<svg width="169" height="152" viewBox="0 0 169 152" fill="none" xmlns="http://www.w3.org/2000/svg">
<g clip-path="url(#clip0_53_1336)">
<g filter="url(#filter0_d_53_1336)">
<path d="M129.646 14.4487H35.7721C32.4513 14.4487 30.2254 17.1169 30.8003 20.4082L47.7687 117.546C48.3437 120.838 51.5018 123.506 54.8226 123.506H148.697C152.017 123.506 154.243 120.838 153.668 117.546L136.7 20.4082C136.125 17.1169 132.967 14.4487 129.646 14.4487Z" stroke="white" stroke-width="2.40969"/>
<path d="M128.365 69.6187L128.558 70.7231C129.43 75.6934 128.581 84.419 111.566 84.419H109.894C92.8418 84.419 88.9352 75.6934 88.0643 70.7231L87.871 69.6187C86.987 64.5745 87.8615 55.9961 104.914 55.9961H106.586C123.6 55.9961 127.481 64.5745 128.365 69.6187ZM117.528 70.3181L117.444 69.8393C116.947 67.0044 114.452 63.3596 107.021 63.3596C99.4053 63.3596 98.3353 67.0044 98.8317 69.8393L98.9094 70.2809C99.4063 73.1163 101.941 76.9822 109.408 76.9822C116.838 76.9822 118.025 73.153 117.528 70.3181Z" fill="white"/>
<path d="M88.6684 83.9035H53.1525L52.5915 80.7003C51.9399 76.9822 51.2826 70.6864 65.1177 67.5933C66.793 67.1883 68.8769 66.7833 70.2807 66.5255C73.6501 65.8261 73.9311 65.3106 73.7827 64.464C73.6153 63.5068 72.6493 62.6596 67.4114 62.6596C61.0586 62.6596 61.2001 65.1634 61.2756 66.2311H50.502L50.4568 65.9734C49.8504 62.5124 50.0831 55.9961 65.1294 55.9961H66.7264C80.6578 55.9961 84.0732 60.0092 84.8601 64.5007L84.886 64.6479C85.6861 69.2132 83.4226 71.3486 73.7436 72.9319L67.9738 73.9263C61.808 74.994 60.9873 76.2456 61.1225 77.0189H77.6919L77.1241 73.779H86.8944L88.6684 83.9035Z" fill="white"/>
<path d="M117.962 109.21L116.152 98.8826H110.022L109.229 94.354H129.04L129.833 98.8826H123.703L125.513 109.21H117.962Z" fill="white"/>
<path d="M97.0931 97.5852C94.2233 97.5852 93.2964 98.4962 93.166 99.8217H101.803C101.251 98.4138 99.963 97.5852 97.0931 97.5852ZM110.023 103.798L110.033 103.853C110.396 105.925 109.763 109.625 99.9825 109.625H98.5059C89.2832 109.625 86.6305 105.455 86.0205 101.976L85.9238 101.424C85.3239 97.9993 86.396 93.9404 95.6741 93.9404H97.2067C106.987 93.9404 109.145 98.4685 109.77 102.031L109.914 102.86H93.6149C94.1087 104.406 95.5985 105.593 98.6353 105.593H98.6633C102.258 105.593 102.559 104.13 102.556 103.798H110.023Z" fill="white"/>
<path d="M77.987 109.21L76.1771 98.8826H70.9946C71.6659 103.19 71.8555 105.068 71.4108 106.504C70.9123 108.271 69.433 109.21 66.3957 109.21H63.5539L62.7263 104.488H63.0606C63.9246 104.488 64.419 104.129 64.5003 103.163C64.6049 102.169 64.5917 100.981 63.4308 94.354H82.9345L85.5376 109.21H77.987Z" fill="white"/>
<path d="M126.643 46.4135C125.702 46.4135 124.869 46.1833 124.144 45.7231C123.419 45.2568 122.819 44.6278 122.346 43.8362C121.878 43.0385 121.557 42.1457 121.384 41.1577C121.209 40.1575 121.216 39.2616 121.406 38.47C121.601 37.6785 121.981 37.0556 122.546 36.6015C123.116 36.1475 123.872 35.9204 124.813 35.9204C125.742 35.9204 126.581 36.1505 127.33 36.6107C128.085 37.0648 128.711 37.6876 129.209 38.4792C129.707 39.2708 130.043 40.1637 130.217 41.1577C130.391 42.1518 130.368 43.0446 130.147 43.8362C129.927 44.6278 129.52 45.2568 128.927 45.7231C128.339 46.1833 127.578 46.4135 126.643 46.4135ZM122.753 50.5555L120.237 36.1966H121.713L122.995 43.5141H123.181L124.415 50.5555H122.753ZM126.175 44.9131C126.838 44.9131 127.357 44.7475 127.732 44.4161C128.108 44.0847 128.354 43.6368 128.472 43.0723C128.589 42.5016 128.585 41.8634 128.462 41.1577C128.339 40.4582 128.12 39.8262 127.804 39.2616C127.495 38.6971 127.088 38.2491 126.584 37.9178C126.087 37.5864 125.497 37.4207 124.816 37.4207C124.166 37.4207 123.655 37.5803 123.284 37.8994C122.912 38.2123 122.67 38.651 122.558 39.2156C122.445 39.774 122.454 40.4214 122.582 41.1577C122.709 41.8818 122.925 42.5292 123.229 43.0999C123.539 43.6644 123.939 44.1093 124.429 44.4345C124.918 44.7536 125.5 44.9131 126.175 44.9131Z" fill="white"/>
<path d="M114.612 46.3953C113.968 46.3953 113.396 46.294 112.896 46.0916C112.402 45.8891 111.974 45.6191 111.612 45.2816C111.249 44.9441 110.945 44.5697 110.7 44.1587C110.455 43.7475 110.257 43.3272 110.108 42.8976C109.964 42.4681 109.86 42.0662 109.794 41.6918L108.831 36.1968H110.503L111.376 41.1764C111.457 41.6427 111.579 42.0938 111.743 42.5294C111.906 42.9651 112.12 43.3578 112.385 43.7076C112.657 44.0574 112.984 44.3335 113.367 44.536C113.755 44.7385 114.212 44.8398 114.739 44.8398C115.153 44.8398 115.519 44.7692 115.835 44.628C116.15 44.4869 116.405 44.2783 116.598 44.0021C116.79 43.7199 116.913 43.364 116.968 42.9344C117.023 42.5049 117 42.0048 116.9 41.4341L118.045 41.7655C118.213 42.7227 118.181 43.548 117.95 44.2415C117.724 44.9349 117.325 45.4687 116.753 45.843C116.186 46.2112 115.473 46.3953 114.612 46.3953ZM117.91 46.1376L117.444 43.4775H117.258L115.983 36.1968H117.645L119.387 46.1376H117.91Z" fill="white"/>
<path d="M103.923 46.4135C102.927 46.4135 102.027 46.1895 101.224 45.7415C100.427 45.2936 99.7643 44.6738 99.2356 43.8822C98.707 43.0907 98.3526 42.1825 98.1731 41.1577C97.9903 40.1145 98.0283 39.2003 98.2866 38.4148C98.5454 37.6293 98.999 37.0188 99.647 36.5831C100.294 36.1413 101.107 35.9204 102.085 35.9204C103.088 35.9204 103.991 36.1444 104.794 36.5923C105.596 37.0342 106.258 37.6508 106.78 38.4424C107.308 39.2278 107.662 40.133 107.841 41.1577C108.023 42.1948 107.988 43.1091 107.737 43.9007C107.484 44.6861 107.036 45.3028 106.389 45.7508C105.742 46.1926 104.92 46.4135 103.923 46.4135ZM103.651 44.8579C104.691 44.8579 105.405 44.5143 105.792 43.827C106.179 43.1398 106.278 42.25 106.086 41.1577C105.889 40.0348 105.476 39.142 104.846 38.4792C104.215 37.8104 103.385 37.476 102.357 37.476C101.658 37.476 101.109 37.6324 100.712 37.9454C100.315 38.2583 100.053 38.691 99.9275 39.2432C99.8013 39.7955 99.8013 40.4336 99.9285 41.1577C100.124 42.2745 100.541 43.1704 101.18 43.8454C101.818 44.5204 102.642 44.8579 103.651 44.8579Z" fill="white"/>
<path d="M92.8548 46.1376L91.113 36.1968H92.5897L93.0106 38.5991L92.7143 38.2862C92.7782 37.9794 92.8801 37.6971 93.0211 37.4394C93.168 37.1817 93.3444 36.97 93.5503 36.8043C93.7743 36.5957 94.0399 36.4361 94.3489 36.3257C94.6578 36.2152 94.981 36.1508 95.318 36.1324C95.6544 36.1078 95.9771 36.1293 96.286 36.1968L96.5554 37.7339C96.1925 37.6419 95.8075 37.6174 95.4004 37.6603C94.9926 37.7032 94.6351 37.8536 94.3277 38.1113C94.0452 38.3383 93.8429 38.6145 93.7204 38.9397C93.6042 39.2649 93.545 39.6178 93.5435 39.9982C93.5408 40.3725 93.5741 40.7561 93.6433 41.1488L94.5173 46.1376H92.8548Z" fill="white"/>
<path d="M85.0575 46.4137C84.1412 46.4137 83.2772 46.2541 82.466 45.935C81.6548 45.6159 80.9244 45.1588 80.2754 44.5636C79.6253 43.9622 79.0771 43.2381 78.6319 42.3913C78.1909 41.5383 77.8772 40.578 77.6902 39.5103C77.443 38.0989 77.4826 36.8778 77.8101 35.847C78.137 34.8161 78.7132 34.0214 79.5376 33.463C80.3615 32.8985 81.3955 32.6162 82.6398 32.6162C84.1386 32.6162 85.4066 32.9629 86.4444 33.6563C87.4811 34.3435 88.2781 35.2855 88.8342 36.4821L87.2223 36.8226C86.8025 36.0188 86.2321 35.3775 85.5107 34.8989C84.7887 34.4203 83.9511 34.181 82.9979 34.181C81.9997 34.1748 81.2086 34.3957 80.625 34.8436C80.0456 35.2855 79.6596 35.9083 79.4663 36.7122C79.2725 37.516 79.2656 38.4488 79.4457 39.5103C79.6242 40.5658 79.9506 41.4923 80.4248 42.2901C80.8991 43.0878 81.507 43.7137 82.2495 44.1678C82.9963 44.6157 83.8693 44.8428 84.8669 44.8489C85.7288 44.855 86.4249 44.6924 86.9546 44.3611C87.4848 44.0297 87.8561 43.5511 88.0684 42.9252C88.2807 42.2992 88.3441 41.5476 88.2585 40.6701H85.4167L85.1795 39.317H89.7674C89.8075 39.4397 89.8429 39.587 89.873 39.7588C89.9078 39.9245 89.9311 40.0381 89.9416 40.0994C90.1534 41.3083 90.1143 42.3913 89.8239 43.3486C89.5382 44.2997 88.9979 45.0483 88.202 45.5945C87.4119 46.1406 86.3641 46.4137 85.0575 46.4137Z" fill="white"/>
<path d="M68.9699 46.4139C68.0224 46.4139 67.1399 46.2543 66.3224 45.9352C65.5112 45.6161 64.8061 45.162 64.2078 44.573C63.6142 43.9777 63.1727 43.2751 62.8817 42.4651L64.5442 42.1982C64.907 43.0328 65.4705 43.6863 66.2342 44.1587C67.0031 44.6251 67.8524 44.8583 68.7808 44.8583C69.3813 44.8583 69.9073 44.7662 70.3578 44.5821C70.8136 44.3919 71.1531 44.1219 71.3771 43.7722C71.6005 43.4224 71.6702 43.0082 71.5862 42.5296C71.535 42.235 71.4383 41.9834 71.2963 41.7748C71.1595 41.5601 70.9884 41.379 70.7829 41.2317C70.5828 41.0783 70.362 40.9495 70.1212 40.8452C69.8798 40.7409 69.6327 40.6549 69.3792 40.5874L65.7948 39.5842C65.404 39.4737 65.0206 39.3356 64.6451 39.1699C64.268 38.9981 63.9215 38.7864 63.6052 38.5348C63.2873 38.2771 63.0169 37.9703 62.7935 37.6144C62.569 37.2523 62.4137 36.8259 62.3277 36.335C62.1903 35.5495 62.2775 34.8807 62.5891 34.3284C62.9065 33.77 63.3918 33.3436 64.0462 33.049C64.7005 32.7545 65.4711 32.6102 66.3572 32.6164C67.2561 32.6225 68.0858 32.7821 68.8468 33.095C69.6126 33.4019 70.278 33.8437 70.8437 34.4205C71.4151 34.9973 71.8519 35.6876 72.1539 36.4914L70.4518 36.7952C70.2643 36.2552 69.9754 35.7919 69.5857 35.4053C69.2012 35.0126 68.7523 34.7119 68.239 34.5033C67.7246 34.2885 67.1822 34.1781 66.6113 34.172C66.0652 34.1658 65.5883 34.2517 65.1795 34.4297C64.7713 34.6076 64.465 34.8561 64.2606 35.1752C64.0557 35.4882 63.9891 35.8502 64.061 36.2614C64.1323 36.6664 64.3071 36.9946 64.5864 37.2462C64.8648 37.4917 65.1869 37.688 65.5534 37.8353C65.9252 37.9764 66.2828 38.093 66.6271 38.1851L69.2994 38.9122C69.6042 38.992 69.958 39.1024 70.3604 39.2436C70.7692 39.3847 71.1753 39.5842 71.5799 39.8419C71.9828 40.0935 72.3393 40.431 72.6488 40.8544C72.9572 41.2716 73.1674 41.7993 73.2794 42.4375C73.3908 43.0757 73.3602 43.6433 73.1875 44.1403C73.0206 44.6374 72.7381 45.0546 72.3388 45.3922C71.9385 45.7235 71.45 45.9751 70.8738 46.1469C70.2981 46.3249 69.6633 46.4139 68.9699 46.4139Z" fill="white"/>
<path d="M59.7355 46.1377L57.4133 32.8833H59.0664L61.3891 46.1377H59.7355Z" fill="white"/>
<path d="M46.9064 46.1377L44.584 32.8833H48.7077C48.8439 32.8833 49.0829 32.8864 49.4245 32.8925C49.7661 32.8987 50.0954 32.9232 50.4126 32.9662C51.4703 33.1011 52.3996 33.4755 53.2007 34.0891C54.0066 34.6966 54.6683 35.4697 55.1859 36.4086C55.7034 37.3475 56.061 38.3815 56.259 39.5105C56.4566 40.6396 56.4613 41.6735 56.2728 42.6124C56.0842 43.5513 55.6939 44.3275 55.1019 44.9411C54.5152 45.5486 53.7161 45.9199 52.706 46.0548C52.4028 46.0917 52.0789 46.1162 51.7344 46.1285C51.3949 46.1346 51.1601 46.1377 51.0301 46.1377H46.9064ZM48.3319 44.573H50.7559C50.9913 44.573 51.2533 44.5668 51.5421 44.5545C51.83 44.5361 52.079 44.5085 52.2892 44.4717C52.9963 44.3367 53.5344 44.0329 53.9036 43.5604C54.2728 43.088 54.5009 42.4989 54.5875 41.7932C54.6747 41.0875 54.6467 40.3266 54.5035 39.5105C54.3573 38.676 54.1138 37.9058 53.7737 37.2002C53.4394 36.4945 53.0053 35.9085 52.4717 35.4422C51.938 34.9758 51.2977 34.6782 50.5506 34.5493C50.3264 34.5064 50.0646 34.4788 49.7653 34.4665C49.4659 34.4542 49.2048 34.448 48.9819 34.448H46.5578L48.3319 44.573Z" fill="white"/>
</g>
<g opacity="0.1" filter="url(#filter1_d_53_1336)">
<path d="M124.229 16.9497H30.3553C27.0346 16.9497 24.8086 19.6179 25.3836 22.9092L42.352 120.047C42.9269 123.339 46.0851 126.007 49.4058 126.007H143.28C146.601 126.007 148.827 123.339 148.252 120.047L131.283 22.9092C130.708 19.6179 127.55 16.9497 124.229 16.9497Z" stroke="white" stroke-width="2.40969"/>
<path d="M122.949 72.1197L123.142 73.2246C124.013 78.1949 123.165 86.9205 106.149 86.9205H104.478C87.4258 86.9205 83.5193 78.1949 82.6479 73.2246L82.4546 72.1197C81.5711 67.076 82.4451 58.4971 99.4972 58.4971H101.169C118.184 58.4971 122.065 67.076 122.949 72.1197ZM112.112 72.8196L112.028 72.3408C111.531 69.5059 109.035 65.8611 101.605 65.8611C93.9889 65.8611 92.9189 69.5059 93.4158 72.3408L93.4929 72.7824C93.9899 75.6178 96.5244 79.4832 103.992 79.4832C111.422 79.4832 112.608 75.6545 112.112 72.8196Z" fill="white"/>
<path d="M83.2521 86.405H47.7365L47.1753 83.2019C46.5237 79.4832 45.8664 73.1874 59.7014 70.0948C61.3766 69.6898 63.4606 69.2848 64.8644 69.0271C68.2338 68.3276 68.5153 67.8121 68.3669 66.9655C68.199 66.0083 67.233 65.1612 61.9951 65.1612C55.6423 65.1612 55.7838 67.6649 55.8593 68.7326H45.0857L45.0406 68.4749C44.4342 65.0139 44.6669 58.4971 59.7131 58.4971H61.3101C75.242 58.4971 78.6569 62.5102 79.4438 67.0022L79.4697 67.1494C80.2698 71.7147 78.0062 73.8501 68.3273 75.4334L62.5575 76.4278C56.3917 77.4955 55.571 78.7471 55.7062 79.5204H72.2756L71.7078 76.28H81.4781L83.2521 86.405Z" fill="white"/>
<path d="M112.547 111.711L110.737 101.384H104.607L103.814 96.855H123.624L124.418 101.384H118.288L120.098 111.711H112.547Z" fill="white"/>
<path d="M91.6779 100.086C88.808 100.086 87.8812 100.997 87.7512 102.323H96.3887C95.8353 100.914 94.5477 100.086 91.6779 100.086ZM104.608 106.299L104.618 106.354C104.981 108.425 104.348 112.126 94.5678 112.126H93.0906C83.8679 112.126 81.2152 107.956 80.6052 104.477L80.5085 103.924C79.9086 100.5 80.9807 96.4409 90.2588 96.4409H91.7914C101.571 96.4409 103.73 100.97 104.354 104.531L104.5 105.36H88.1996C88.6934 106.907 90.1833 108.094 93.2205 108.094H93.248C96.8424 108.094 97.1434 106.63 97.1408 106.299H104.608Z" fill="white"/>
<path d="M72.5717 111.711L70.7619 101.384H65.5794C66.2506 105.692 66.4402 107.569 65.9955 109.005C65.497 110.773 64.0177 111.711 60.9805 111.711H58.1386L57.311 106.99H57.6459C58.5094 106.99 59.0037 106.63 59.085 105.664C59.1896 104.67 59.1764 103.482 58.0156 96.855H77.5192L80.1223 111.711H72.5717Z" fill="white"/>
<path d="M121.226 48.9149C120.285 48.9149 119.452 48.6849 118.728 48.2246C118.002 47.7582 117.403 47.1293 116.93 46.3377C116.462 45.54 116.141 44.6471 115.968 43.6592C115.793 42.659 115.8 41.7631 115.99 40.9715C116.185 40.1799 116.565 39.5571 117.13 39.103C117.7 38.6489 118.456 38.4219 119.397 38.4219C120.326 38.4219 121.165 38.652 121.914 39.1122C122.669 39.5663 123.295 40.1891 123.793 40.9807C124.291 41.7723 124.627 42.6651 124.801 43.6592C124.975 44.6533 124.952 45.5461 124.732 46.3377C124.511 47.1293 124.104 47.7582 123.511 48.2246C122.923 48.6849 122.161 48.9149 121.226 48.9149ZM117.336 53.0569L114.82 38.698H116.297L117.579 46.0156H117.765L118.999 53.0569H117.336ZM120.759 47.4146C121.422 47.4146 121.94 47.2489 122.316 46.9176C122.691 46.5862 122.938 46.1383 123.056 45.5737C123.173 45.0031 123.169 44.3649 123.045 43.6592C122.923 42.9597 122.704 42.3276 122.388 41.7631C122.079 41.1985 121.672 40.7506 121.168 40.4192C120.67 40.0879 120.081 39.9222 119.4 39.9222C118.75 39.9222 118.239 40.0818 117.868 40.4009C117.495 40.7138 117.253 41.1525 117.142 41.7171C117.029 42.2754 117.037 42.9228 117.166 43.6592C117.293 44.3833 117.509 45.0307 117.813 45.6013C118.123 46.1659 118.522 46.6107 119.013 46.936C119.502 47.2551 120.084 47.4146 120.759 47.4146Z" fill="white"/>
<path d="M109.196 48.8963C108.552 48.8963 107.98 48.795 107.48 48.5925C106.986 48.39 106.558 48.1201 106.196 47.7826C105.833 47.445 105.529 47.0707 105.284 46.6596C105.038 46.2485 104.841 45.8281 104.691 45.3986C104.548 44.9691 104.444 44.5671 104.378 44.1928L103.415 38.6978H105.087L105.959 43.6774C106.041 44.1437 106.163 44.5948 106.326 45.0304C106.49 45.4661 106.704 45.8588 106.97 46.2086C107.241 46.5584 107.568 46.8345 107.95 47.037C108.339 47.2395 108.796 47.3408 109.322 47.3408C109.738 47.3408 110.102 47.2702 110.418 47.129C110.734 46.9879 110.989 46.7793 111.182 46.5031C111.374 46.2209 111.497 45.865 111.552 45.4354C111.607 45.0059 111.584 44.5058 111.484 43.9351L112.629 44.2665C112.796 45.2237 112.765 46.049 112.533 46.7424C112.308 47.4358 111.909 47.9697 111.337 48.344C110.77 48.7122 110.056 48.8963 109.196 48.8963ZM112.494 48.6386L112.028 45.9785H111.842L110.567 38.6978H112.229L113.971 48.6386H112.494Z" fill="white"/>
<path d="M98.5075 48.9149C97.5104 48.9149 96.6105 48.691 95.8077 48.243C95.0108 47.7951 94.348 47.1753 93.8193 46.3837C93.2907 45.5921 92.9363 44.684 92.7568 43.6592C92.574 42.616 92.612 41.7017 92.8708 40.9163C93.1291 40.1308 93.5827 39.5203 94.2307 39.0846C94.8777 38.6428 95.6905 38.4219 96.6686 38.4219C97.672 38.4219 98.5746 38.6458 99.3779 39.0938C100.18 39.5356 100.842 40.1523 101.364 40.9439C101.892 41.7294 102.246 42.6345 102.425 43.6592C102.607 44.6962 102.572 45.6105 102.321 46.4021C102.068 47.1875 101.619 47.8043 100.973 48.2522C100.326 48.694 99.5041 48.9149 98.5075 48.9149ZM98.2345 47.3594C99.2749 47.3594 99.9889 47.0158 100.376 46.3285C100.763 45.6412 100.861 44.7515 100.67 43.6592C100.473 42.5362 100.06 41.6434 99.4296 40.9807C98.7985 40.3119 97.9693 39.9774 96.9411 39.9774C96.2419 39.9774 95.6931 40.1339 95.296 40.4469C94.8988 40.7598 94.6374 41.1924 94.5112 41.7447C94.385 42.297 94.3855 42.9351 94.5122 43.6592C94.7076 44.776 95.1249 45.6719 95.7634 46.3469C96.4019 47.0219 97.2252 47.3594 98.2345 47.3594Z" fill="white"/>
<path d="M87.4385 48.6386L85.6968 38.6978H87.1734L87.5943 41.1001L87.2981 40.7872C87.362 40.4804 87.4644 40.1981 87.6049 39.9403C87.7517 39.6826 87.9281 39.471 88.1341 39.3052C88.358 39.0966 88.6242 38.9371 88.9326 38.8267C89.2416 38.7162 89.5648 38.6517 89.9022 38.6334C90.2381 38.6088 90.5608 38.6303 90.8698 38.6978L91.1391 40.2349C90.7763 40.1429 90.3913 40.1183 89.9841 40.1613C89.5764 40.2042 89.2188 40.3546 88.9115 40.6123C88.6289 40.8393 88.4267 41.1155 88.3041 41.4407C88.1879 41.7659 88.1288 42.1187 88.1272 42.4992C88.1251 42.8735 88.1578 43.257 88.227 43.6498L89.1011 48.6386H87.4385Z" fill="white"/>
<path d="M79.6414 48.9146C78.7251 48.9146 77.8611 48.7551 77.0499 48.436C76.2387 48.1169 75.5083 47.6597 74.8592 47.0645C74.2091 46.4632 73.6609 45.7391 73.2157 44.8923C72.7752 44.0393 72.4615 43.079 72.274 42.0113C72.0269 40.6 72.067 39.3788 72.3939 38.3479C72.7208 37.317 73.297 36.5224 74.1214 35.964C74.9453 35.3995 75.9793 35.1172 77.2241 35.1172C78.7224 35.1172 79.9904 35.4639 81.0282 36.1573C82.0649 36.8446 82.8619 37.7865 83.418 38.983L81.8061 39.3236C81.3863 38.5198 80.8159 37.8785 80.0945 37.3999C79.3725 36.9213 78.5349 36.6819 77.5817 36.6819C76.5835 36.6758 75.7929 36.8967 75.2088 37.3446C74.63 37.7865 74.2434 38.4093 74.0501 39.2132C73.8568 40.017 73.8499 40.9497 74.0295 42.0113C74.208 43.0667 74.5349 43.9933 75.0086 44.791C75.4829 45.5888 76.0913 46.2147 76.8333 46.6688C77.5801 47.1167 78.4531 47.3437 79.4507 47.3499C80.3126 47.356 81.0087 47.1934 81.5389 46.8621C82.0686 46.5307 82.4399 46.052 82.6522 45.4261C82.8645 44.8002 82.9279 44.0486 82.8423 43.1711H80.0005L79.7634 41.818H84.3512C84.3913 41.9407 84.4267 42.088 84.4568 42.2598C84.4917 42.4255 84.5149 42.539 84.5255 42.6004C84.7372 43.8092 84.6982 44.8923 84.4077 45.8496C84.1225 46.8007 83.5817 47.5493 82.7858 48.0954C81.9957 48.6416 80.9479 48.9146 79.6414 48.9146Z" fill="white"/>
<path d="M63.554 48.9148C62.6065 48.9148 61.724 48.7553 60.9065 48.4362C60.0953 48.1171 59.3902 47.663 58.7919 47.0739C58.1982 46.4787 57.7562 45.7761 57.4657 44.9661L59.1277 44.6992C59.4911 45.5337 60.0541 46.1872 60.8183 46.6598C61.5872 47.1261 62.4359 47.3593 63.3649 47.3593C63.9654 47.3593 64.4908 47.2672 64.9419 47.0831C65.3976 46.8929 65.7372 46.6229 65.9606 46.2732C66.1845 45.9234 66.2543 45.5092 66.1703 45.0305C66.1185 44.736 66.0219 44.4844 65.8803 44.2758C65.7436 44.061 65.5724 43.88 65.367 43.7327C65.1669 43.5793 64.9461 43.4504 64.7047 43.3462C64.4639 43.2418 64.2162 43.1559 63.9633 43.0884L60.3789 42.0851C59.9881 41.9747 59.6046 41.8366 59.2286 41.6709C58.8521 41.4991 58.5056 41.2874 58.1887 41.0358C57.8713 40.7781 57.6009 40.4713 57.3775 40.1154C57.1531 39.7533 56.9978 39.3269 56.9117 38.836C56.7739 38.0505 56.861 37.3816 57.1732 36.8294C57.49 36.271 57.9759 35.8445 58.6302 35.55C59.2841 35.2555 60.0546 35.1112 60.9413 35.1174C61.8402 35.1235 62.6699 35.283 63.4304 35.596C64.1962 35.9028 64.8621 36.3446 65.4272 36.9214C65.9992 37.4983 66.4359 38.1886 66.7375 38.9924L65.0353 39.2962C64.8479 38.7562 64.5595 38.2929 64.1697 37.9063C63.7853 37.5136 63.3364 37.2129 62.823 37.0043C62.3086 36.7895 61.7657 36.679 61.1953 36.6729C60.6493 36.6668 60.1718 36.7527 59.7636 36.9306C59.3554 37.1086 59.049 37.3571 58.8447 37.6762C58.6398 37.9892 58.5727 38.3512 58.645 38.7623C58.7158 39.1673 58.8911 39.4956 59.1705 39.7472C59.4488 39.9926 59.771 40.189 60.1375 40.3363C60.5088 40.4774 60.8669 40.594 61.2112 40.6861L63.8835 41.4132C64.1882 41.493 64.5421 41.6034 64.9445 41.7446C65.3527 41.8857 65.7594 42.0851 66.1639 42.3429C66.5669 42.5944 66.9234 42.9319 67.2329 43.3554C67.5413 43.7726 67.7515 44.3004 67.8629 44.9385C67.9749 45.5767 67.9443 46.1443 67.7716 46.6413C67.6047 47.1383 67.3216 47.5557 66.9229 47.8931C66.5225 48.2245 66.034 48.4761 65.4573 48.6479C64.8817 48.8259 64.2474 48.9148 63.554 48.9148Z" fill="white"/>
<path d="M54.3197 48.6387L51.9971 35.3843H53.65L55.9727 48.6387H54.3197Z" fill="white"/>
<path d="M41.4901 48.6387L39.1677 35.3843H43.2914C43.4276 35.3843 43.6666 35.3874 44.0082 35.3935C44.3498 35.3996 44.6792 35.4242 44.9963 35.4671C46.0539 35.6021 46.9833 35.9764 47.7843 36.5901C48.5904 37.1975 49.2522 37.9707 49.7696 38.9096C50.287 39.8485 50.6447 40.8824 50.8425 42.0115C51.0403 43.1406 51.045 44.1745 50.8566 45.1134C50.6682 46.0522 50.2779 46.8285 49.6858 47.4421C49.0987 48.0496 48.3 48.4208 47.2897 48.5558C46.9865 48.5926 46.6627 48.6172 46.3181 48.6295C45.9786 48.6356 45.7438 48.6387 45.6138 48.6387H41.4901ZM42.9156 47.0739H45.3397C45.5749 47.0739 45.837 47.0678 46.1259 47.0555C46.4137 47.0371 46.6627 47.0095 46.873 46.9727C47.5799 46.8377 48.118 46.5339 48.4872 46.0614C48.8564 45.5889 49.0845 44.9999 49.1713 44.2942C49.2582 43.5885 49.2301 42.8276 49.0871 42.0115C48.9409 41.177 48.6976 40.4069 48.3573 39.7012C48.0231 38.9955 47.5892 38.4095 47.0554 37.9431C46.5218 37.4768 45.8814 37.1792 45.1344 37.0503C44.9101 37.0073 44.6483 36.9797 44.349 36.9675C44.0496 36.9552 43.7885 36.949 43.5656 36.949H41.1415L42.9156 47.0739Z" fill="white"/>
</g>
<g opacity="0.1" filter="url(#filter2_d_53_1336)">
<path d="M118.812 21.6821H24.9383C21.6176 21.6821 19.3916 24.3503 19.9666 27.6416L36.935 124.78C37.51 128.071 40.6681 130.739 43.9888 130.739H137.863C141.184 130.739 143.41 128.071 142.835 124.78L125.866 27.6416C125.291 24.3503 122.133 21.6821 118.812 21.6821Z" stroke="white" stroke-width="2.40969"/>
<path d="M117.531 76.8521L117.725 77.9565C118.596 82.9268 117.747 91.6524 100.732 91.6524H99.0604C82.0083 91.6524 78.1018 82.9268 77.2309 77.9565L77.0371 76.8521C76.1535 71.8079 77.0281 63.2295 94.0802 63.2295H95.7517C112.767 63.2295 116.648 71.8079 117.531 76.8521ZM106.694 77.5515L106.611 77.0727C106.114 74.2378 103.618 70.593 96.1874 70.593C88.5719 70.593 87.5014 74.2378 87.9983 77.0727L88.0754 77.5148C88.5724 80.3497 91.1074 84.2156 98.5746 84.2156C106.005 84.2156 107.191 80.3864 106.694 77.5515Z" fill="white"/>
<path d="M77.8351 91.1374H42.319L41.7577 87.9343C41.1062 84.2156 40.4489 77.9198 54.2844 74.8267C55.9591 74.4217 58.043 74.0167 59.4468 73.7589C62.8162 73.0595 63.0977 72.544 62.9493 71.6974C62.7814 70.7402 61.816 69.8936 56.5775 69.8936C50.2248 69.8936 50.3663 72.3968 50.4419 73.4645H39.6683L39.6231 73.2068C39.0167 69.7458 39.2494 63.2295 54.2955 63.2295H55.893C69.8245 63.2295 73.2393 67.2426 74.0267 71.7341L74.0521 71.8813C74.8522 76.4471 72.5887 78.5826 62.9097 80.1653L57.1399 81.1596C50.9742 82.2274 50.1533 83.479 50.2888 84.2523H66.858L66.2902 81.0124H76.0611L77.8351 91.1374Z" fill="white"/>
<path d="M107.13 116.444L105.32 106.116H99.1897L98.3965 101.587H118.207L119 106.116H112.871L114.68 116.444H107.13Z" fill="white"/>
<path d="M86.2601 104.818C83.3903 104.818 82.4634 105.73 82.3335 107.055H90.971C90.4175 105.647 89.13 104.818 86.2601 104.818ZM99.1907 111.031L99.2002 111.086C99.5631 113.157 98.9298 116.858 89.15 116.858H87.6734C78.4507 116.858 75.7974 112.688 75.188 109.209L75.0908 108.656C74.4909 105.232 75.563 101.173 84.8416 101.173H86.3737C96.1535 101.173 98.3125 105.702 98.9367 109.264L99.0819 110.092H82.7819C83.2757 111.638 84.7655 112.826 87.8028 112.826H87.8302C91.4247 112.826 91.7257 111.363 91.7231 111.031H99.1907Z" fill="white"/>
<path d="M67.1541 116.444L65.3448 106.116H60.1623C60.833 110.424 61.0231 112.301 60.5779 113.737C60.0794 115.504 58.6001 116.444 55.5634 116.444H52.7211L51.8938 111.721H52.2282C53.0917 111.721 53.5861 111.363 53.6674 110.396C53.772 109.402 53.7593 108.215 52.5979 101.587H72.1021L74.7047 116.444H67.1541Z" fill="white"/>
<path d="M115.809 53.6475C114.868 53.6475 114.035 53.4174 113.31 52.957C112.585 52.4907 111.985 51.8617 111.512 51.0702C111.044 50.2724 110.723 49.3796 110.551 48.3917C110.375 47.3914 110.382 46.4955 110.572 45.704C110.768 44.9123 111.148 44.2895 111.712 43.8354C112.282 43.3813 113.038 43.1543 113.979 43.1543C114.908 43.1543 115.747 43.3844 116.497 43.8447C117.251 44.2988 117.877 44.9216 118.375 45.7132C118.873 46.5047 119.209 47.3975 119.383 48.3917C119.557 49.3857 119.534 50.2785 119.314 51.0702C119.093 51.8617 118.686 52.4907 118.093 52.957C117.505 53.4174 116.744 53.6475 115.809 53.6475ZM111.919 57.7892L109.403 43.4304H110.879L112.162 50.748H112.347L113.581 57.7892H111.919ZM115.341 52.1471C116.004 52.1471 116.523 51.9814 116.898 51.65C117.274 51.3187 117.52 50.8707 117.638 50.3062C117.755 49.7355 117.751 49.0973 117.628 48.3917C117.505 47.6921 117.286 47.0601 116.971 46.4955C116.661 45.931 116.254 45.483 115.751 45.1517C115.253 44.8203 114.663 44.6546 113.982 44.6546C113.332 44.6546 112.822 44.8142 112.45 45.1333C112.078 45.4462 111.836 45.885 111.724 46.4495C111.612 47.0079 111.62 47.6553 111.749 48.3917C111.876 49.1157 112.091 49.7631 112.395 50.3338C112.705 50.8983 113.105 51.3432 113.595 51.6684C114.084 51.9875 114.667 52.1471 115.341 52.1471Z" fill="white"/>
<path d="M103.778 53.6291C103.134 53.6291 102.562 53.5281 102.063 53.3257C101.569 53.1229 101.141 52.8529 100.778 52.5154C100.416 52.1779 100.112 51.8036 99.8663 51.3925C99.6207 50.9813 99.4232 50.561 99.2738 50.1315C99.1306 49.7019 99.0261 49.3 98.9606 48.9257L97.9978 43.4307H99.6693L100.542 48.4103C100.624 48.8766 100.746 49.3276 100.909 49.7633C101.072 50.199 101.286 50.5917 101.552 50.9415C101.824 51.2912 102.151 51.5674 102.533 51.7699C102.922 51.9724 103.379 52.0736 103.905 52.0736C104.32 52.0736 104.685 52.003 105.001 51.8619C105.317 51.7208 105.571 51.5121 105.764 51.236C105.957 50.9538 106.08 50.5978 106.135 50.1683C106.19 49.7388 106.167 49.2387 106.066 48.668L107.211 48.9993C107.379 49.9566 107.347 50.7819 107.116 51.4753C106.891 52.1688 106.492 52.7026 105.92 53.0769C105.353 53.4452 104.639 53.6291 103.778 53.6291ZM107.077 53.3714L106.61 50.7114H106.425L105.149 43.4307H106.812L108.553 53.3714H107.077Z" fill="white"/>
<path d="M93.09 53.6475C92.0929 53.6475 91.193 53.4232 90.3902 52.9755C89.5933 52.5275 88.9305 51.9077 88.4019 51.1162C87.8732 50.3246 87.5188 49.4164 87.3393 48.3917C87.1565 47.3485 87.1946 46.4342 87.4533 45.6487C87.7116 44.8633 88.1653 44.2527 88.8133 43.817C89.4602 43.3752 90.273 43.1543 91.2511 43.1543C92.2545 43.1543 93.1576 43.3783 93.9604 43.8262C94.7621 44.268 95.4243 44.8848 95.9472 45.6763C96.4748 46.4618 96.8281 47.3669 97.0077 48.3917C97.1893 49.4287 97.1545 50.343 96.9031 51.1346C96.6506 51.92 96.2017 52.5367 95.5558 52.9847C94.9089 53.4264 94.0866 53.6475 93.09 53.6475ZM92.8175 52.0918C93.8574 52.0918 94.5714 51.7482 94.9585 51.0609C95.3456 50.3737 95.4439 49.4839 95.2527 48.3917C95.0557 47.2687 94.6422 46.3758 94.0121 45.7132C93.381 45.0443 92.5519 44.7099 91.5241 44.7099C90.8244 44.7099 90.2756 44.8664 89.8785 45.1793C89.4813 45.4922 89.2199 45.9248 89.0937 46.4771C88.9675 47.0294 88.968 47.6676 89.0948 48.3917C89.2907 49.5084 89.7074 50.4043 90.3459 51.0793C90.9844 51.7543 91.8083 52.0918 92.8175 52.0918Z" fill="white"/>
<path d="M82.0211 53.3714L80.2793 43.4307H81.7559L82.1769 45.8331L81.8806 45.5201C81.9445 45.2133 82.0469 44.931 82.1874 44.6733C82.3342 44.4155 82.5106 44.2039 82.7171 44.0382C82.9405 43.8296 83.2067 43.67 83.5157 43.5596C83.8241 43.4491 84.1473 43.3847 84.4848 43.3663C84.8206 43.3417 85.1433 43.3632 85.4523 43.4307L85.7216 44.9678C85.3588 44.8758 84.9738 44.8512 84.5666 44.8942C84.1594 44.9372 83.8019 45.0875 83.494 45.3452C83.212 45.5723 83.0092 45.8484 82.8867 46.1736C82.7705 46.4988 82.7113 46.8517 82.7103 47.2321C82.7076 47.6064 82.7409 47.9899 82.8095 48.3827L83.6836 53.3714H82.0211Z" fill="white"/>
<path d="M74.2236 53.6477C73.3073 53.6477 72.4439 53.4883 71.6321 53.1689C70.8209 52.8498 70.0905 52.3927 69.4415 51.7975C68.7913 51.1961 68.2437 50.472 67.7979 49.6252C67.3575 48.7723 67.0438 47.8119 66.8563 46.7442C66.6091 45.3329 66.6493 44.1117 66.9762 43.0808C67.3031 42.05 67.8793 41.2553 68.7042 40.6969C69.5276 40.1324 70.5616 39.8501 71.8064 39.8501C73.3047 39.8501 74.5727 40.1968 75.6105 40.8902C76.6477 41.5775 77.4441 42.5194 78.0003 43.7159L76.3884 44.0565C75.9691 43.2527 75.3982 42.6115 74.6768 42.1328C73.9553 41.6542 73.1177 41.4148 72.1639 41.4148C71.1663 41.4087 70.3752 41.6296 69.7911 42.0776C69.2123 42.5194 68.8262 43.1422 68.6324 43.9461C68.4391 44.7499 68.4322 45.6826 68.6118 46.7442C68.7908 47.7996 69.1172 48.7263 69.5914 49.5239C70.0652 50.3217 70.6736 50.9476 71.4156 51.4017C72.1629 51.8496 73.0354 52.0766 74.033 52.0828C74.8949 52.0889 75.5909 51.9263 76.1212 51.595C76.6514 51.2636 77.0227 50.785 77.235 50.159C77.4473 49.5332 77.5102 48.7815 77.4246 47.904H74.5828L74.3456 46.5509H78.934C78.9736 46.6737 79.009 46.8209 79.0391 46.9928C79.0745 47.1584 79.0972 47.2719 79.1077 47.3333C79.32 48.5422 79.2804 49.6252 78.99 50.5825C78.7048 51.5336 78.164 52.2822 77.3681 52.8283C76.5785 53.3745 75.5302 53.6477 74.2236 53.6477Z" fill="white"/>
<path d="M58.1359 53.6474C57.189 53.6474 56.3065 53.4879 55.489 53.1685C54.6778 52.8495 53.9727 52.3954 53.3738 51.8063C52.7806 51.2112 52.3386 50.5086 52.0481 49.6985L53.7102 49.4316C54.0731 50.2662 54.6366 50.9196 55.4002 51.3922C56.1697 51.8585 57.0184 52.0917 57.9474 52.0917C58.5479 52.0917 59.0733 51.9996 59.5238 51.8156C59.9801 51.6253 60.3197 51.3553 60.5431 51.0056C60.7665 50.6558 60.8362 50.2416 60.7528 49.763C60.701 49.4684 60.6044 49.2169 60.4623 49.0082C60.3255 48.7935 60.1549 48.6124 59.9495 48.4652C59.7493 48.3117 59.5286 48.1829 59.2872 48.0786C59.0459 47.9742 58.7987 47.8884 58.5457 47.8209L54.9614 46.8176C54.5705 46.7071 54.1871 46.569 53.8111 46.4034C53.4345 46.2316 53.0876 46.0198 52.7712 45.7683C52.4536 45.5105 52.1831 45.2037 51.9598 44.8478C51.7353 44.4858 51.5801 44.0593 51.4941 43.5684C51.3565 42.783 51.4436 42.1141 51.7555 41.5618C52.0725 41.0035 52.5581 40.577 53.2122 40.2824C53.8666 39.9879 54.6371 39.8437 55.5233 39.8498C56.4222 39.856 57.2524 40.0155 58.0129 40.3284C58.7786 40.6353 59.4441 41.0771 60.0097 41.6539C60.5811 42.2307 61.0179 42.921 61.32 43.7249L59.6178 44.0286C59.4304 43.4886 59.1415 43.0253 58.7522 42.6387C58.3672 42.246 57.9183 41.9454 57.405 41.7367C56.8906 41.522 56.3482 41.4115 55.7773 41.4054C55.2318 41.3992 54.7543 41.4851 54.3461 41.6631C53.9373 41.8411 53.631 42.0896 53.4272 42.4087C53.2217 42.7216 53.1552 43.0836 53.2275 43.4948C53.2983 43.8997 53.4736 44.228 53.753 44.4796C54.0308 44.7251 54.3535 44.9214 54.7195 45.0687C55.0913 45.2099 55.4488 45.3264 55.7932 45.4185L58.4655 46.1456C58.7707 46.2254 59.124 46.3359 59.5265 46.477C59.9352 46.6182 60.3419 46.8176 60.7459 47.0753C61.1494 47.3269 61.5054 47.6644 61.8148 48.0878C62.1233 48.505 62.3335 49.0328 62.4454 49.671C62.5574 50.3091 62.5268 50.8767 62.3535 51.3737C62.1872 51.8708 61.9041 52.2881 61.5048 52.6256C61.105 52.9569 60.6165 53.2084 60.0398 53.3806C59.4642 53.5581 58.8293 53.6474 58.1359 53.6474Z" fill="white"/>
<path d="M48.902 53.3714L46.5796 40.1172H48.2328L50.5552 53.3714H48.902Z" fill="white"/>
<path d="M36.0726 53.3714L33.7502 40.1172H37.8739C38.0102 40.1172 38.2491 40.1202 38.5907 40.1264C38.9323 40.1325 39.2617 40.157 39.5788 40.2C40.6365 40.335 41.5658 40.7093 42.3668 41.3229C43.1729 41.9305 43.8347 42.7036 44.3521 43.6425C44.8695 44.5813 45.2272 45.6153 45.425 46.7443C45.6229 47.8734 45.6276 48.9074 45.4391 49.8462C45.2507 50.7851 44.8604 51.5614 44.2683 52.175C43.6812 52.7825 42.8825 53.1535 41.8722 53.2885C41.569 53.3257 41.2452 53.3501 40.9006 53.3623C40.5611 53.3687 40.3263 53.3714 40.1963 53.3714H36.0726ZM37.4981 51.8068H39.9222C40.1575 51.8068 40.4195 51.8007 40.7084 51.7884C40.9962 51.77 41.2452 51.7424 41.4554 51.7055C42.1624 51.5705 42.7005 51.2668 43.0697 50.7943C43.439 50.3218 43.667 49.7327 43.7538 49.027C43.8407 48.3214 43.8127 47.5605 43.6696 46.7443C43.5234 45.9098 43.2802 45.1397 42.9398 44.434C42.6056 43.7284 42.1717 43.1424 41.638 42.676C41.1043 42.2096 40.4639 41.912 39.7169 41.7832C39.4927 41.7402 39.2309 41.7126 38.9315 41.7003C38.6321 41.688 38.371 41.6819 38.1481 41.6819H35.7241L37.4981 51.8068Z" fill="white"/>
</g>
<g opacity="0.1" filter="url(#filter3_d_53_1336)">
<path d="M114.365 26.2769H20.4908C17.1701 26.2769 14.9441 28.945 15.5191 32.2363L32.4875 129.374C33.0624 132.666 36.2206 135.334 39.5413 135.334H133.415C136.736 135.334 138.962 132.666 138.387 129.374L121.419 32.2363C120.844 28.945 117.686 26.2769 114.365 26.2769Z" stroke="white" stroke-width="2.40969"/>
<path d="M113.085 81.4463L113.279 82.5507C114.149 87.521 113.301 96.2472 96.2857 96.2472H94.6141C77.562 96.2472 73.6555 87.521 72.7846 82.5507L72.5908 81.4463C71.7072 76.4022 72.5818 67.8237 89.6339 67.8237H91.3054C108.321 67.8237 112.201 76.4022 113.085 81.4463ZM102.248 82.1457L102.164 81.6674C101.668 78.832 99.1713 75.1872 91.7411 75.1872C84.1256 75.1872 83.0551 78.832 83.552 81.6674L83.6291 82.1091C84.1261 84.9439 86.6611 88.8098 94.1283 88.8098C101.558 88.8098 102.745 84.9806 102.248 82.1457Z" fill="white"/>
<path d="M73.3887 95.7317H37.8727L37.3115 92.5285C36.6599 88.8098 36.0025 82.5141 49.8379 79.4214C51.513 79.0165 53.5967 78.6115 55.0005 78.3537C58.3699 77.6543 58.6514 77.1388 58.503 76.2916C58.3351 75.3344 57.3696 74.4878 52.1313 74.4878C45.7785 74.4878 45.92 76.9916 45.9956 78.0593H35.222L35.1768 77.8015C34.5704 74.3406 34.8031 67.8237 49.8491 67.8237H51.4466C65.3781 67.8237 68.793 71.8369 69.5804 76.3288L69.6058 76.476C70.4059 81.0414 68.1423 83.1768 58.4634 84.76L52.6936 85.7539C46.5279 86.8216 45.7071 88.0732 45.8425 88.8465H62.4117L61.8439 85.6067H71.6148L73.3887 95.7317Z" fill="white"/>
<path d="M102.683 121.038L100.873 110.711H94.744L93.9502 106.183H113.761L114.554 110.711H108.425L110.234 121.038H102.683Z" fill="white"/>
<path d="M81.8138 109.413C78.944 109.413 78.0172 110.324 77.8872 111.65H86.5247C85.9712 110.241 84.6837 109.413 81.8138 109.413ZM94.7444 115.626L94.754 115.682C95.1168 117.753 94.4836 121.453 84.7037 121.453H83.2271C74.0045 121.453 71.3512 117.283 70.7417 113.804L70.6445 113.252C70.0446 109.827 71.1167 105.768 80.3953 105.768H81.9274C91.7072 105.768 93.8662 110.297 94.4904 113.859L94.6357 114.687H78.3356C78.8294 116.234 80.3193 117.421 83.3565 117.421H83.3845C86.9784 117.421 87.2794 115.957 87.2773 115.626H94.7444Z" fill="white"/>
<path d="M62.7078 121.038L60.8985 110.711H55.716C56.3872 115.019 56.5768 116.896 56.1316 118.333C55.6336 120.1 54.1538 121.038 51.1169 121.038H48.2749L47.4475 116.317H47.7819C48.6456 116.317 49.14 115.957 49.2214 114.991C49.3258 113.997 49.3128 112.809 48.1517 106.183H67.6558L70.2584 121.038H62.7078Z" fill="white"/>
<path d="M111.363 58.2421C110.422 58.2421 109.589 58.0119 108.864 57.5517C108.139 57.0856 107.539 56.4563 107.066 55.665C106.598 54.8672 106.278 53.9744 106.104 52.9863C105.929 51.9862 105.936 51.0903 106.126 50.2986C106.321 49.5071 106.702 48.8842 107.266 48.4302C107.837 47.9761 108.592 47.749 109.534 47.749C110.462 47.749 111.301 47.9792 112.051 48.4394C112.805 48.8934 113.431 49.5163 113.929 50.3079C114.427 51.0995 114.763 51.9923 114.937 52.9863C115.111 53.9802 115.088 54.8731 114.868 55.665C114.647 56.4563 114.241 57.0856 113.647 57.5517C113.059 58.0119 112.298 58.2421 111.363 58.2421ZM107.473 62.3843L104.957 48.0252H106.433L107.716 55.3429H107.901L109.135 62.3843H107.473ZM110.896 56.7417C111.558 56.7417 112.077 56.5759 112.452 56.2448C112.828 55.9132 113.074 55.4652 113.192 54.9007C113.309 54.3299 113.305 53.6922 113.182 52.9863C113.059 52.2868 112.84 51.6548 112.524 51.0903C112.215 50.5257 111.808 50.0778 111.304 49.7464C110.807 49.415 110.217 49.2494 109.536 49.2494C108.886 49.2494 108.375 49.4089 108.004 49.728C107.632 50.0409 107.39 50.4797 107.278 51.0442C107.165 51.6026 107.174 52.25 107.303 52.9863C107.429 53.7102 107.645 54.3576 107.95 54.9284C108.259 55.4928 108.659 55.9382 109.149 56.2629C109.639 56.5823 110.221 56.7417 110.896 56.7417Z" fill="white"/>
<path d="M99.3324 58.2233C98.6881 58.2233 98.1166 58.1223 97.6165 57.9198C97.1227 57.7173 96.6949 57.4473 96.3321 57.1098C95.9698 56.7723 95.6656 56.3977 95.4205 55.9868C95.175 55.5755 94.9774 55.1551 94.828 54.7257C94.6843 54.2962 94.5798 53.8944 94.5143 53.5198L93.5515 48.0249H95.2235L96.096 53.0045C96.1773 53.4709 96.2999 53.9221 96.4631 54.3574C96.6262 54.7932 96.8401 55.1859 97.1058 55.5356C97.3778 55.8853 97.7047 56.1617 98.087 56.3642C98.4752 56.5667 98.9326 56.6676 99.4591 56.6676C99.8737 56.6676 100.239 56.5975 100.555 56.4561C100.871 56.3153 101.125 56.1064 101.319 55.8301C101.51 55.5478 101.634 55.1923 101.688 54.7623C101.743 54.3329 101.721 53.8328 101.621 53.262L102.766 53.5936C102.933 54.5508 102.901 55.3762 102.67 56.0697C102.445 56.7628 102.046 57.2969 101.474 57.6711C100.907 58.0394 100.193 58.2233 99.3324 58.2233ZM102.631 57.9655L102.165 55.3055H101.979L100.703 48.0249H102.365L104.107 57.9655H102.631Z" fill="white"/>
<path d="M88.6435 58.2421C87.6469 58.2421 86.747 58.0183 85.9437 57.5703C85.1473 57.1223 84.4845 56.5026 83.9559 55.7107C83.4267 54.9193 83.0728 54.0111 82.8933 52.9863C82.7105 51.9432 82.7486 51.0289 83.0068 50.2434C83.2656 49.458 83.7187 48.8474 84.3673 48.4118C85.0142 47.97 85.827 47.749 86.8051 47.749C87.808 47.749 88.7111 47.973 89.5138 48.421C90.3161 48.8628 90.9783 49.4795 91.5006 50.2711C92.0282 51.0565 92.3821 51.9616 92.5617 52.9863C92.7433 54.0233 92.7085 54.9379 92.4571 55.7293C92.2046 56.5148 91.7552 57.1313 91.1093 57.5793C90.4624 58.021 89.6406 58.2421 88.6435 58.2421ZM88.371 56.6865C89.4114 56.6865 90.1249 56.3431 90.5125 55.6554C90.8996 54.9682 90.9979 54.0785 90.8062 52.9863C90.6097 51.8634 90.1962 50.9706 89.5661 50.3079C88.935 49.639 88.1053 49.3046 87.0776 49.3046C86.3778 49.3046 85.8296 49.461 85.4325 49.774C85.0353 50.087 84.7734 50.5196 84.6472 51.0718C84.5215 51.6241 84.5215 52.2623 84.6488 52.9863C84.8442 54.103 85.2614 54.9991 85.8999 55.674C86.5379 56.349 87.3617 56.6865 88.371 56.6865Z" fill="white"/>
<path d="M77.5753 57.9655L75.8335 48.0249H77.3101L77.7311 50.4273L77.4348 50.1143C77.4987 49.8075 77.6006 49.5253 77.7411 49.2675C77.8879 49.0098 78.0648 48.7981 78.2708 48.6324C78.4942 48.4238 78.7604 48.2642 79.0693 48.1538C79.3783 48.0433 79.7015 47.9789 80.0384 47.9605C80.3748 47.936 80.6975 47.9574 81.0065 48.0249L81.2758 49.562C80.913 49.47 80.528 49.4455 80.1203 49.4884C79.7131 49.5314 79.3556 49.6817 79.0477 49.9394C78.7656 50.1665 78.5634 50.4426 78.4408 50.7678C78.3241 51.0931 78.2655 51.4459 78.2639 51.8264C78.2613 52.2007 78.2946 52.5842 78.3632 52.9769L79.2378 57.9655H77.5753Z" fill="white"/>
<path d="M69.778 58.2418C68.8617 58.2418 67.9977 58.0823 67.1865 57.7629C66.3753 57.4441 65.6449 56.987 64.9958 56.3917C64.3457 55.7901 63.7975 55.0663 63.3518 54.2196C62.9113 53.3666 62.5976 52.4062 62.4107 51.3384C62.1635 49.9271 62.2031 48.706 62.5305 47.6751C62.8575 46.6442 63.4331 45.8495 64.258 45.2911C65.0819 44.7266 66.116 44.4443 67.3602 44.4443C68.8585 44.4443 70.1271 44.791 71.1649 45.4844C72.2016 46.1717 72.998 47.1136 73.5546 48.3102L71.9423 48.6508C71.5229 47.8469 70.9526 47.2056 70.2306 46.727C69.5092 46.2484 68.6716 46.0091 67.7183 46.0091C66.7202 46.0029 65.929 46.2239 65.3449 46.6718C64.7661 47.1136 64.38 47.7365 64.1867 48.5403C63.9929 49.3442 63.9861 50.2769 64.1661 51.3384C64.3447 52.3939 64.671 53.3204 65.1453 54.1181C65.6195 54.9159 66.2274 55.5419 66.9694 55.9958C67.7167 56.4438 68.5892 56.6708 69.5874 56.6771C70.4493 56.683 71.1448 56.5204 71.675 56.1893C72.2053 55.8576 72.5765 55.3793 72.7888 54.7532C73.0011 54.1272 73.0645 53.3757 72.979 52.4982H70.1366L69.9 51.1451H74.4878C74.528 51.2679 74.5628 51.4151 74.5929 51.587C74.6283 51.7527 74.6515 51.8662 74.6621 51.9275C74.8739 53.1364 74.8348 54.2196 74.5443 55.1768C74.2586 56.1276 73.7183 56.8764 72.9225 57.4228C72.1324 57.9686 71.0846 58.2418 69.778 58.2418Z" fill="white"/>
<path d="M53.6901 58.2419C52.743 58.2419 51.8605 58.0825 51.0431 57.7631C50.2317 57.4442 49.5268 56.9903 48.9283 56.4009C48.3348 55.8057 47.8928 55.1031 47.6023 54.2931L49.2645 54.0263C49.6274 54.8607 50.1908 55.5144 50.9547 55.9869C51.7237 56.453 52.5726 56.6863 53.5016 56.6863C54.1021 56.6863 54.6275 56.5944 55.078 56.4105C55.5343 56.2202 55.8739 55.9502 56.0973 55.6005C56.3207 55.2503 56.3909 54.8363 56.307 54.358C56.2552 54.063 56.1586 53.8116 56.0165 53.6027C55.8797 53.388 55.7091 53.2073 55.5037 53.0598C55.3035 52.9065 55.0828 52.7776 54.8414 52.6733C54.6001 52.569 54.3529 52.483 54.0999 52.4155L50.5153 51.4123C50.1245 51.3018 49.7412 51.1638 49.3654 50.9981C48.9886 50.8262 48.6419 50.6146 48.3254 50.363C48.0078 50.1053 47.7373 49.7984 47.514 49.4425C47.2896 49.0805 47.1343 48.654 47.0483 48.1631C46.9107 47.3776 46.9978 46.7088 47.3097 46.1565C47.6267 45.5981 48.1123 45.1717 48.7666 44.8771C49.4209 44.5826 50.1912 44.4384 51.0777 44.4445C51.9766 44.4506 52.8064 44.6102 53.5671 44.9232C54.3328 45.23 54.9983 45.6718 55.5639 46.2486C56.1359 46.8254 56.5721 47.5157 56.8742 48.3196L55.172 48.6234C54.9846 48.0833 54.6962 47.6201 54.3064 47.2335C53.9214 46.8408 53.4725 46.5401 52.9592 46.3315C52.445 46.1166 51.9024 46.0062 51.3317 46.0001C50.7857 45.9939 50.3085 46.0799 49.9001 46.2578C49.4917 46.4357 49.1854 46.6842 48.9812 47.0033C48.776 47.3163 48.7094 47.6784 48.7815 48.0895C48.8524 48.4945 49.0276 48.8228 49.307 49.0744C49.5853 49.3198 49.9076 49.5162 50.2739 49.6634C50.6454 49.8045 51.0033 49.9211 51.3476 50.0132L54.0197 50.7404C54.3249 50.8201 54.6782 50.9306 55.0807 51.0717C55.4894 51.2128 55.8961 51.4123 56.3001 51.67C56.7036 51.9216 57.0596 52.2591 57.369 52.6825C57.6775 53.0998 57.8877 53.6277 57.9996 54.2655C58.1116 54.9038 58.081 55.4714 57.9077 55.9683C57.7414 56.4658 57.4583 56.883 57.059 57.2204C56.6592 57.5515 56.1707 57.8035 55.594 57.9751C55.0184 58.1532 54.3835 58.2419 53.6901 58.2419Z" fill="white"/>
<path d="M44.4559 57.966L42.1335 44.7114H43.7867L46.1091 57.966H44.4559Z" fill="white"/>
<path d="M31.6266 57.966L29.3042 44.7114H33.4279C33.5641 44.7114 33.803 44.7145 34.1447 44.7206C34.4863 44.7268 34.8157 44.7513 35.1328 44.7943C36.1905 44.9293 37.1198 45.3036 37.9208 45.9172C38.7269 46.5247 39.3886 47.2979 39.9061 48.2367C40.4236 49.1756 40.7811 50.2096 40.979 51.3386C41.1768 52.4677 41.1815 53.5017 40.9931 54.4403C40.8047 55.3794 40.4144 56.1559 39.8222 56.7692C39.2352 57.3766 38.4365 57.7481 37.4261 57.8831C37.123 57.9198 36.7991 57.9442 36.4545 57.9565C36.1151 57.9628 35.8804 57.966 35.7503 57.966H31.6266ZM33.0521 56.4009H35.4761C35.7114 56.4009 35.9735 56.395 36.2624 56.3828C36.5501 56.3642 36.7992 56.3366 37.0094 56.2999C37.7164 56.1649 38.2545 55.8609 38.6237 55.3884C38.9929 54.9159 39.221 54.3271 39.3078 53.6213C39.3947 52.9156 39.3666 52.1547 39.2237 51.3386C39.0774 50.5041 38.8341 49.734 38.4938 49.0283C38.1596 48.3226 37.7257 47.7366 37.192 47.2703C36.6582 46.8039 36.0179 46.5063 35.2709 46.3774C35.0466 46.3345 34.7848 46.3069 34.4855 46.2946C34.1861 46.2823 33.925 46.2762 33.7021 46.2762H31.278L33.0521 56.4009Z" fill="white"/>
</g>
</g>
<defs>
<filter id="filter0_d_53_1336" x="2.0169" y="-11.799" width="180.435" height="166.372" filterUnits="userSpaceOnUse" color-interpolation-filters="sRGB">
<feFlood flood-opacity="0" result="BackgroundImageFix"/>
<feColorMatrix in="SourceAlpha" type="matrix" values="0 0 0 0 0 0 0 0 0 0 0 0 0 0 0 0 0 0 127 0" result="hardAlpha"/>
<feOffset dy="2.40969"/>
<feGaussianBlur stdDeviation="13.7352"/>
<feComposite in2="hardAlpha" operator="out"/>
<feColorMatrix type="matrix" values="0 0 0 0 0.9125 0 0 0 0 0.9125 0 0 0 0 0.9125 0 0 0 0.87 0"/>
<feBlend mode="normal" in2="BackgroundImageFix" result="effect1_dropShadow_53_1336"/>
<feBlend mode="normal" in="SourceGraphic" in2="effect1_dropShadow_53_1336" result="shape"/>
</filter>
<filter id="filter1_d_53_1336" x="-3.39984" y="-9.29801" width="180.435" height="166.372" filterUnits="userSpaceOnUse" color-interpolation-filters="sRGB">
<feFlood flood-opacity="0" result="BackgroundImageFix"/>
<feColorMatrix in="SourceAlpha" type="matrix" values="0 0 0 0 0 0 0 0 0 0 0 0 0 0 0 0 0 0 127 0" result="hardAlpha"/>
<feOffset dy="2.40969"/>
<feGaussianBlur stdDeviation="13.7352"/>
<feComposite in2="hardAlpha" operator="out"/>
<feColorMatrix type="matrix" values="0 0 0 0 0.9125 0 0 0 0 0.9125 0 0 0 0 0.9125 0 0 0 0.87 0"/>
<feBlend mode="normal" in2="BackgroundImageFix" result="effect1_dropShadow_53_1336"/>
<feBlend mode="normal" in="SourceGraphic" in2="effect1_dropShadow_53_1336" result="shape"/>
</filter>
<filter id="filter2_d_53_1336" x="-8.81684" y="-4.56559" width="180.435" height="166.372" filterUnits="userSpaceOnUse" color-interpolation-filters="sRGB">
<feFlood flood-opacity="0" result="BackgroundImageFix"/>
<feColorMatrix in="SourceAlpha" type="matrix" values="0 0 0 0 0 0 0 0 0 0 0 0 0 0 0 0 0 0 127 0" result="hardAlpha"/>
<feOffset dy="2.40969"/>
<feGaussianBlur stdDeviation="13.7352"/>
<feComposite in2="hardAlpha" operator="out"/>
<feColorMatrix type="matrix" values="0 0 0 0 0.9125 0 0 0 0 0.9125 0 0 0 0 0.9125 0 0 0 0.87 0"/>
<feBlend mode="normal" in2="BackgroundImageFix" result="effect1_dropShadow_53_1336"/>
<feBlend mode="normal" in="SourceGraphic" in2="effect1_dropShadow_53_1336" result="shape"/>
</filter>
<filter id="filter3_d_53_1336" x="-13.2643" y="0.0291338" width="180.435" height="166.372" filterUnits="userSpaceOnUse" color-interpolation-filters="sRGB">
<feFlood flood-opacity="0" result="BackgroundImageFix"/>
<feColorMatrix in="SourceAlpha" type="matrix" values="0 0 0 0 0 0 0 0 0 0 0 0 0 0 0 0 0 0 127 0" result="hardAlpha"/>
<feOffset dy="2.40969"/>
<feGaussianBlur stdDeviation="13.7352"/>
<feComposite in2="hardAlpha" operator="out"/>
<feColorMatrix type="matrix" values="0 0 0 0 0.9125 0 0 0 0 0.9125 0 0 0 0 0.9125 0 0 0 0.87 0"/>
<feBlend mode="normal" in2="BackgroundImageFix" result="effect1_dropShadow_53_1336"/>
<feBlend mode="normal" in="SourceGraphic" in2="effect1_dropShadow_53_1336" result="shape"/>
</filter>
<clipPath id="clip0_53_1336">
<rect width="169" height="152" fill="white"/>
</clipPath>
</defs>
</svg>
