<svg width="320" height="286" viewBox="0 0 320 286" fill="none" xmlns="http://www.w3.org/2000/svg">
<g filter="url(#filter0_d_437_2779)">
<rect x="1.41406" y="1.18654" width="200.52" height="208.346" rx="11.3852" transform="matrix(1 0 0.173648 0.984808 54.7295 26.018)" stroke="white" stroke-width="2.40969" shape-rendering="crispEdges"/>
<path d="M243.058 130.992L243.424 133.071C245.074 142.423 243.466 158.841 211.249 158.841H208.083C175.795 158.841 168.398 142.423 166.749 133.071L166.383 130.992C164.709 121.502 166.365 105.36 198.653 105.36H201.819C234.036 105.36 241.385 121.502 243.058 130.992ZM222.539 132.309L222.38 131.408C221.439 126.074 216.713 119.215 202.644 119.215C188.223 119.215 186.197 126.074 187.137 131.408L187.284 132.239C188.225 137.573 193.024 144.847 207.163 144.847C221.232 144.847 223.479 137.643 222.539 132.309Z" fill="white"/>
<path d="M167.893 157.871H100.644L99.5811 151.844C98.3474 144.847 97.1027 133.001 123.3 127.182C126.472 126.42 130.417 125.658 133.075 125.173C139.455 123.857 139.988 122.887 139.707 121.294C139.389 119.493 137.561 117.899 127.642 117.899C115.613 117.899 115.881 122.61 116.025 124.619H95.6247L95.5392 124.134C94.391 117.622 94.8316 105.36 123.321 105.36H126.346C152.725 105.36 159.191 112.911 160.682 121.363L160.731 121.64C162.245 130.23 157.959 134.248 139.632 137.227L128.707 139.098C117.032 141.106 115.478 143.462 115.735 144.917H147.108L146.033 138.82H164.534L167.893 157.871Z" fill="white"/>
<path d="M223.36 205.487L219.933 186.056H208.327L206.824 177.535H244.335L245.838 186.056H234.231L237.657 205.487H223.36Z" fill="white"/>
<path d="M183.846 183.614C178.412 183.614 176.657 185.328 176.411 187.822H192.766C191.718 185.172 189.28 183.614 183.846 183.614ZM208.33 195.304L208.348 195.408C209.035 199.305 207.836 206.267 189.318 206.267H186.522C169.059 206.267 164.035 198.421 162.881 191.875L162.698 190.836C161.562 184.393 163.591 176.755 181.16 176.755H184.062C202.58 176.755 206.667 185.276 207.849 191.979L208.124 193.537H177.26C178.195 196.447 181.016 198.681 186.767 198.681H186.82C193.625 198.681 194.195 195.927 194.191 195.304H208.33Z" fill="white"/>
<path d="M147.668 205.487L144.241 186.056H134.428C135.699 194.161 136.058 197.694 135.216 200.396C134.272 203.721 131.471 205.487 125.72 205.487H120.339L118.772 196.603H119.405C121.041 196.603 121.977 195.927 122.131 194.109C122.329 192.238 122.304 190.004 120.106 177.535H157.036L161.965 205.487H147.668Z" fill="white"/>
<path d="M239.798 87.3309C238.016 87.3309 236.439 86.8979 235.067 86.032C233.693 85.1545 232.558 83.9711 231.662 82.4816C230.776 80.9807 230.169 79.3007 229.841 77.4418C229.51 75.5599 229.523 73.8741 229.882 72.3847C230.252 70.8953 230.972 69.7234 232.04 68.869C233.121 68.0146 234.552 67.5874 236.334 67.5874C238.093 67.5874 239.681 68.0204 241.1 68.8863C242.529 69.7407 243.714 70.9126 244.657 72.402C245.6 73.8915 246.236 75.5714 246.566 77.4418C246.895 79.3123 246.852 80.9922 246.434 82.4816C246.017 83.9711 245.247 85.1545 244.123 86.032C243.01 86.8979 241.568 87.3309 239.798 87.3309ZM232.432 95.1244L227.668 68.107H230.464L232.892 81.8755H233.243L235.58 95.1244H232.432ZM238.913 84.5079C240.168 84.5079 241.15 84.1962 241.861 83.5727C242.572 82.9492 243.039 82.1064 243.262 81.0442C243.483 79.9704 243.476 78.7696 243.242 77.4418C243.01 76.1256 242.595 74.9364 241.997 73.8742C241.411 72.8119 240.641 71.9691 239.687 71.3456C238.745 70.7221 237.629 70.4104 236.339 70.4104C235.108 70.4104 234.141 70.7106 233.438 71.311C232.733 71.8998 232.275 72.7253 232.064 73.7876C231.85 74.8382 231.866 76.0563 232.11 77.4418C232.35 78.8043 232.758 80.0223 233.335 81.0961C233.921 82.1583 234.678 82.9954 235.606 83.6074C236.533 84.2077 237.635 84.5079 238.913 84.5079Z" fill="white"/>
<path d="M217.018 87.2962C215.799 87.2962 214.716 87.1057 213.769 86.7247C212.834 86.3437 212.024 85.8357 211.337 85.2007C210.651 84.5656 210.075 83.8613 209.611 83.0878C209.146 82.3142 208.772 81.5233 208.489 80.7151C208.217 79.9069 208.02 79.1506 207.895 78.4463L206.072 68.1069H209.238L210.89 77.4764C211.045 78.3539 211.276 79.2026 211.585 80.0223C211.894 80.8421 212.299 81.581 212.802 82.2391C213.317 82.8972 213.936 83.4168 214.66 83.7978C215.395 84.1788 216.261 84.3694 217.258 84.3694C218.043 84.3694 218.735 84.2366 219.333 83.971C219.931 83.7055 220.413 83.3129 220.779 82.7933C221.142 82.2622 221.376 81.5926 221.48 80.7843C221.583 79.9761 221.54 79.0351 221.351 77.9614L223.519 78.5849C223.836 80.386 223.776 81.9389 223.338 83.2436C222.911 84.5483 222.156 85.5528 221.073 86.2571C219.999 86.9499 218.647 87.2962 217.018 87.2962ZM223.263 86.8113L222.381 81.8062H222.029L219.614 68.1069H222.761L226.059 86.8113H223.263Z" fill="white"/>
<path d="M196.78 87.3309C194.893 87.3309 193.189 86.9095 191.669 86.0666C190.16 85.2238 188.905 84.0576 187.904 82.5682C186.902 81.0788 186.232 79.37 185.892 77.4418C185.546 75.479 185.618 73.7587 186.107 72.2808C186.597 70.8029 187.456 69.6541 188.683 68.8344C189.908 68.0031 191.447 67.5874 193.299 67.5874C195.198 67.5874 196.908 68.0088 198.428 68.8517C199.947 69.683 201.201 70.8433 202.19 72.3328C203.189 73.8106 203.859 75.5137 204.199 77.4418C204.543 79.3931 204.477 81.1134 204.001 82.6029C203.523 84.0807 202.672 85.2411 201.449 86.084C200.224 86.9153 198.668 87.3309 196.78 87.3309ZM196.264 84.404C198.234 84.404 199.585 83.7575 200.319 82.4643C201.052 81.1712 201.238 79.497 200.875 77.4418C200.503 75.3289 199.72 73.649 198.527 72.402C197.332 71.1435 195.761 70.5143 193.815 70.5143C192.49 70.5143 191.452 70.8087 190.7 71.3976C189.948 71.9864 189.452 72.8004 189.214 73.8395C188.975 74.8786 188.975 76.0794 189.216 77.4418C189.586 79.5432 190.376 81.2289 191.585 82.4989C192.793 83.769 194.353 84.404 196.264 84.404Z" fill="white"/>
<path d="M175.821 86.8114L172.523 68.107H175.319L176.116 72.6272L175.555 72.0384C175.676 71.4611 175.869 70.93 176.136 70.445C176.414 69.9601 176.748 69.5618 177.138 69.25C177.562 68.8575 178.065 68.5573 178.65 68.3495C179.235 68.1416 179.847 68.0204 180.485 67.9858C181.122 67.9396 181.733 67.98 182.318 68.107L182.828 70.9992C182.141 70.8261 181.412 70.7799 180.641 70.8607C179.869 70.9415 179.192 71.2244 178.61 71.7093C178.075 72.1365 177.692 72.6561 177.46 73.268C177.24 73.8799 177.128 74.5438 177.125 75.2597C177.12 75.964 177.183 76.6856 177.314 77.4245L178.969 86.8114H175.821Z" fill="white"/>
<path d="M161.057 87.3311C159.322 87.3311 157.687 87.0309 156.15 86.4305C154.614 85.8301 153.232 84.97 152.002 83.85C150.771 82.7185 149.734 81.3561 148.89 79.7628C148.056 78.1579 147.462 76.3509 147.108 74.342C146.639 71.6864 146.715 69.3888 147.334 67.449C147.954 65.5093 149.044 64.0141 150.606 62.9635C152.165 61.9012 154.123 61.3701 156.48 61.3701C159.317 61.3701 161.718 62.0225 163.683 63.3271C165.647 64.6203 167.155 66.3926 168.209 68.644L165.156 69.2848C164.362 67.7723 163.281 66.5658 161.915 65.6652C160.549 64.7646 158.963 64.3143 157.157 64.3143C155.268 64.3028 153.77 64.7184 152.664 65.5613C151.568 66.3926 150.837 67.5645 150.47 69.077C150.104 70.5895 150.091 72.3445 150.431 74.342C150.77 76.3278 151.388 78.0713 152.286 79.5722C153.183 81.0732 154.335 82.2509 155.74 83.1053C157.155 83.9482 158.807 84.3753 160.697 84.3869C162.328 84.3984 163.646 84.0925 164.65 83.469C165.654 82.8455 166.357 81.9449 166.759 80.7673C167.161 79.5896 167.281 78.1752 167.118 76.5241H161.737L161.288 73.9783H169.976C170.052 74.2092 170.118 74.4863 170.175 74.8096C170.242 75.1213 170.285 75.3349 170.306 75.4504C170.707 77.7249 170.632 79.7628 170.082 81.5639C169.542 83.3535 168.518 84.7621 167.011 85.7897C165.516 86.8173 163.531 87.3311 161.057 87.3311Z" fill="white"/>
<path d="M130.596 87.331C128.802 87.331 127.131 87.0308 125.583 86.4304C124.047 85.83 122.712 84.9756 121.579 83.8672C120.455 82.7472 119.619 81.4252 119.068 79.9012L122.216 79.3989C122.903 80.9692 123.97 82.1988 125.416 83.0878C126.872 83.9653 128.48 84.4041 130.238 84.4041C131.375 84.4041 132.371 84.2309 133.224 83.8845C134.087 83.5266 134.73 83.0186 135.154 82.3605C135.577 81.7023 135.709 80.923 135.55 80.0224C135.453 79.4682 135.269 78.9948 135.001 78.6023C134.742 78.1982 134.418 77.8575 134.029 77.5804C133.65 77.2918 133.232 77.0493 132.776 76.8531C132.319 76.6568 131.851 76.4951 131.371 76.3681L124.584 74.4804C123.844 74.2725 123.118 74.0128 122.407 73.701C121.693 73.3777 121.037 72.9794 120.438 72.506C119.836 72.0211 119.324 71.4438 118.901 70.7741C118.476 70.0929 118.182 69.2905 118.019 68.3668C117.759 66.8889 117.924 65.6304 118.514 64.5913C119.115 63.5406 120.034 62.7382 121.273 62.184C122.512 61.6298 123.97 61.3584 125.649 61.37C127.351 61.3815 128.922 61.6817 130.363 62.2706C131.813 62.8479 133.073 63.6792 134.144 64.7645C135.226 65.8498 136.053 67.1487 136.625 68.6612L133.402 69.2327C133.047 68.2167 132.5 67.345 131.762 66.6176C131.034 65.8787 130.184 65.3129 129.212 64.9204C128.238 64.5162 127.211 64.3084 126.13 64.2969C125.096 64.2853 124.193 64.447 123.419 64.7818C122.646 65.1166 122.066 65.5842 121.679 66.1846C121.291 66.7735 121.165 67.4547 121.301 68.2283C121.436 68.9903 121.767 69.608 122.296 70.0814C122.823 70.5432 123.433 70.9127 124.127 71.1898C124.83 71.4553 125.508 71.6747 126.16 71.8479L131.22 73.2161C131.797 73.3662 132.467 73.574 133.229 73.8396C134.003 74.1051 134.772 74.4804 135.538 74.9653C136.301 75.4387 136.976 76.0737 137.562 76.8704C138.146 77.6555 138.544 78.6484 138.756 79.8492C138.967 81.05 138.909 82.118 138.582 83.0532C138.266 83.9884 137.73 84.7735 136.975 85.4086C136.217 86.0321 135.292 86.5054 134.2 86.8287C133.111 87.1636 131.909 87.331 130.596 87.331Z" fill="white"/>
<path d="M113.11 86.8112L108.713 61.8721H111.843L116.241 86.8112H113.11Z" fill="white"/>
<path d="M88.8174 86.8112L84.4199 61.8721H92.2281C92.4861 61.8721 92.9384 61.8778 93.5853 61.8894C94.2322 61.9009 94.8558 61.9471 95.4563 62.0279C97.459 62.2819 99.2187 62.9863 100.735 64.1408C102.262 65.2839 103.515 66.7387 104.495 68.5052C105.474 70.2717 106.151 72.2172 106.526 74.3417C106.901 76.4661 106.91 78.4116 106.553 80.1781C106.196 81.9446 105.457 83.4052 104.336 84.5598C103.224 85.7028 101.712 86.4014 99.7987 86.6554C99.2248 86.7247 98.6115 86.7708 97.9591 86.7939C97.3163 86.8055 96.8718 86.8112 96.6256 86.8112H88.8174ZM91.5165 83.867H96.1064C96.5519 83.867 97.0482 83.8555 97.5951 83.8324C98.1401 83.7978 98.6116 83.7458 99.0097 83.6765C100.348 83.4225 101.367 82.851 102.066 81.962C102.765 81.0729 103.197 79.9645 103.362 78.6367C103.526 77.309 103.473 75.8773 103.202 74.3417C102.925 72.7714 102.465 71.3224 101.82 69.9946C101.188 68.6668 100.366 67.5642 99.3553 66.6867C98.3447 65.8092 97.1322 65.2492 95.7177 65.0068C95.2931 64.926 94.7974 64.874 94.2306 64.8509C93.6638 64.8278 93.1693 64.8163 92.7473 64.8163H88.1573L91.5165 83.867Z" fill="white"/>
</g>
<g opacity="0.1" filter="url(#filter1_d_437_2779)">
<rect x="1.41406" y="1.18654" width="200.52" height="208.346" rx="11.3852" transform="matrix(1 0 0.173648 0.984808 44.4717 30.7236)" stroke="white" stroke-width="2.40969" shape-rendering="crispEdges"/>
<path d="M232.802 135.698L233.169 137.777C234.818 147.129 233.211 163.547 200.993 163.547H197.828C165.54 163.547 158.143 147.129 156.493 137.777L156.127 135.698C154.454 126.208 156.109 110.066 188.397 110.066H191.563C223.781 110.066 231.129 126.208 232.802 135.698ZM212.283 137.015L212.124 136.114C211.183 130.78 206.457 123.922 192.388 123.922C177.967 123.922 175.941 130.78 176.882 136.114L177.028 136.945C177.969 142.28 182.768 149.553 196.908 149.553C210.976 149.553 213.223 142.349 212.283 137.015Z" fill="white"/>
<path d="M157.637 162.577H90.388L89.3253 156.55C88.0915 149.553 86.8469 137.707 113.044 131.888C116.216 131.126 120.161 130.364 122.819 129.879C129.2 128.563 129.732 127.593 129.451 126C129.133 124.199 127.305 122.605 117.386 122.605C105.358 122.605 105.625 127.316 105.769 129.325H85.3688L85.2833 128.84C84.1351 122.328 84.5758 110.066 113.065 110.066H116.09C142.469 110.066 148.936 117.617 150.426 126.069L150.475 126.346C151.989 134.936 147.703 138.954 129.376 141.933L118.451 143.804C106.777 145.813 105.222 148.168 105.479 149.623H136.852L135.777 143.526H154.278L157.637 162.577Z" fill="white"/>
<path d="M213.104 210.193L209.678 190.762H198.071L196.568 182.241H234.079L235.582 190.762H223.975L227.401 210.193H213.104Z" fill="white"/>
<path d="M173.589 188.32C168.154 188.32 166.399 190.034 166.153 192.528H182.508C181.461 189.878 179.023 188.32 173.589 188.32ZM198.072 200.01L198.09 200.114C198.777 204.011 197.578 210.973 179.06 210.973H176.264C158.801 210.973 153.777 203.127 152.623 196.581L152.44 195.542C151.304 189.099 153.334 181.461 170.902 181.461H173.804C192.322 181.461 196.409 189.982 197.591 196.685L197.866 198.243H167.003C167.938 201.153 170.758 203.387 176.509 203.387H176.562C183.368 203.387 183.937 200.633 183.933 200.01H198.072Z" fill="white"/>
<path d="M137.412 210.193L133.985 190.762H124.172C125.443 198.867 125.803 202.4 124.96 205.102C124.016 208.427 121.215 210.193 115.464 210.193H110.083L108.517 201.309H109.15C110.785 201.309 111.721 200.633 111.875 198.815C112.073 196.944 112.048 194.71 109.85 182.241H146.78L151.709 210.193H137.412Z" fill="white"/>
<path d="M229.54 92.037C227.758 92.037 226.181 91.604 224.809 90.7381C223.435 89.8606 222.3 88.6771 221.404 87.1877C220.518 85.6867 219.911 84.0068 219.584 82.1479C219.252 80.2659 219.265 78.5802 219.624 77.0908C219.994 75.6014 220.714 74.4294 221.783 73.5751C222.863 72.7207 224.294 72.2935 226.076 72.2935C227.835 72.2935 229.424 72.7264 230.842 73.5924C232.271 74.4468 233.457 75.6187 234.399 77.1081C235.342 78.5975 235.978 80.2775 236.308 82.1479C236.638 84.0183 236.594 85.6983 236.177 87.1877C235.759 88.6771 234.989 89.8606 233.866 90.7381C232.752 91.604 231.31 92.037 229.54 92.037ZM222.174 99.8305L217.41 72.813H220.206L222.634 86.5815H222.986L225.322 99.8305H222.174ZM228.655 89.214C229.91 89.214 230.892 88.9023 231.603 88.2788C232.314 87.6553 232.781 86.8124 233.004 85.7502C233.225 84.6764 233.218 83.4757 232.984 82.1479C232.752 80.8317 232.337 79.6424 231.74 78.5802C231.154 77.518 230.384 76.6751 229.43 76.0517C228.487 75.4282 227.371 75.1164 226.082 75.1164C224.851 75.1164 223.883 75.4166 223.18 76.017C222.475 76.6059 222.017 77.4314 221.806 78.4936C221.592 79.5443 221.608 80.7624 221.852 82.1479C222.092 83.5103 222.501 84.7284 223.077 85.8022C223.663 86.8644 224.42 87.7015 225.349 88.3134C226.275 88.9138 227.377 89.214 228.655 89.214Z" fill="white"/>
<path d="M206.76 92.0023C205.541 92.0023 204.458 91.8118 203.511 91.4308C202.577 91.0498 201.766 90.5417 201.08 89.9067C200.393 89.2717 199.818 88.5674 199.353 87.7938C198.888 87.0202 198.514 86.2293 198.231 85.4211C197.96 84.6129 197.762 83.8567 197.638 83.1524L195.814 72.813H198.98L200.632 82.1825C200.787 83.06 201.018 83.9086 201.327 84.7284C201.636 85.5481 202.042 86.2871 202.545 86.9452C203.059 87.6033 203.678 88.1229 204.402 88.5039C205.138 88.8849 206.004 89.0754 207 89.0754C207.786 89.0754 208.477 88.9426 209.075 88.6771C209.673 88.4115 210.155 88.019 210.521 87.4994C210.884 86.9683 211.118 86.2986 211.222 85.4904C211.325 84.6822 211.283 83.7412 211.093 82.6674L213.261 83.2909C213.578 85.0921 213.518 86.645 213.08 87.9497C212.653 89.2544 211.898 90.2589 210.815 90.9632C209.741 91.6559 208.39 92.0023 206.76 92.0023ZM213.006 91.5174L212.123 86.5122H211.771L209.356 72.813H212.504L215.802 91.5174H213.006Z" fill="white"/>
<path d="M186.523 92.037C184.635 92.037 182.931 91.6155 181.411 90.7727C179.902 89.9298 178.647 88.7637 177.646 87.2743C176.645 85.7849 175.974 84.0761 175.634 82.1479C175.288 80.1851 175.36 78.4647 175.85 76.9869C176.339 75.509 177.198 74.3602 178.425 73.5404C179.65 72.7091 181.189 72.2935 183.041 72.2935C184.941 72.2935 186.65 72.7149 188.171 73.5577C189.689 74.389 190.943 75.5494 191.932 77.0388C192.932 78.5167 193.601 80.2197 193.941 82.1479C194.285 84.0992 194.219 85.8195 193.743 87.3089C193.265 88.7868 192.415 89.9472 191.192 90.79C189.966 91.6213 188.41 92.037 186.523 92.037ZM186.006 89.1101C187.976 89.1101 189.328 88.4635 190.061 87.1704C190.794 85.8772 190.98 84.2031 190.617 82.1479C190.245 80.035 189.462 78.3551 188.269 77.1081C187.074 75.8496 185.504 75.2203 183.557 75.2203C182.233 75.2203 181.194 75.5148 180.442 76.1036C179.69 76.6924 179.195 77.5064 178.956 78.5456C178.717 79.5847 178.718 80.7855 178.958 82.1479C179.328 84.2492 180.118 85.935 181.327 87.205C182.536 88.4751 184.095 89.1101 186.006 89.1101Z" fill="white"/>
<path d="M165.563 91.5174L162.265 72.813H165.061L165.858 77.3333L165.297 76.7444C165.418 76.1671 165.612 75.636 165.878 75.1511C166.156 74.6662 166.49 74.2678 166.881 73.9561C167.304 73.5635 167.808 73.2633 168.392 73.0555C168.977 72.8477 169.589 72.7265 170.228 72.6918C170.864 72.6456 171.475 72.686 172.06 72.813L172.57 75.7053C171.883 75.5321 171.154 75.4859 170.383 75.5667C169.612 75.6476 168.934 75.9304 168.352 76.4154C167.817 76.8426 167.434 77.3621 167.202 77.9741C166.982 78.586 166.87 79.2499 166.867 79.9657C166.863 80.67 166.925 81.3917 167.056 82.1306L168.711 91.5174H165.563Z" fill="white"/>
<path d="M150.8 92.0372C149.065 92.0372 147.429 91.737 145.893 91.1366C144.356 90.5362 142.974 89.676 141.745 88.5561C140.513 87.4246 139.476 86.0621 138.632 84.4688C137.798 82.8639 137.204 81.057 136.85 79.048C136.382 76.3924 136.457 74.0948 137.076 72.1551C137.696 70.2154 138.786 68.7202 140.348 67.6695C141.907 66.6073 143.866 66.0762 146.222 66.0762C149.059 66.0762 151.46 66.7285 153.426 68.0332C155.389 69.3263 156.897 71.0986 157.951 73.3501L154.898 73.9909C154.104 72.4784 153.024 71.2718 151.657 70.3713C150.291 69.4707 148.705 69.0204 146.899 69.0204C145.01 69.0088 143.512 69.4245 142.406 70.2673C141.31 71.0986 140.579 72.2706 140.212 73.7831C139.846 75.2956 139.833 77.0506 140.174 79.048C140.512 81.0339 141.13 82.7773 142.028 84.2783C142.926 85.7793 144.077 86.957 145.482 87.8114C146.897 88.6542 148.549 89.0814 150.439 89.0929C152.07 89.1045 153.388 88.7985 154.392 88.175C155.396 87.5516 156.099 86.651 156.501 85.4733C156.903 84.2956 157.023 82.8812 156.861 81.2302H151.479L151.03 78.6843H159.718C159.794 78.9152 159.86 79.1923 159.917 79.5156C159.984 79.8274 160.027 80.041 160.048 80.1564C160.449 82.431 160.374 84.4688 159.824 86.27C159.284 88.0596 158.26 89.4682 156.753 90.4958C155.258 91.5234 153.273 92.0372 150.8 92.0372Z" fill="white"/>
<path d="M120.338 92.037C118.544 92.037 116.874 91.7368 115.326 91.1364C113.789 90.5361 112.455 89.6817 111.321 88.5732C110.198 87.4533 109.361 86.1313 108.811 84.6072L111.958 84.105C112.645 85.6752 113.712 86.9049 115.158 87.7939C116.614 88.6714 118.222 89.1101 119.98 89.1101C121.118 89.1101 122.113 88.9369 122.966 88.5906C123.829 88.2326 124.473 87.7246 124.896 87.0665C125.319 86.4084 125.451 85.629 125.292 84.7285C125.195 84.1743 125.012 83.7009 124.743 83.3083C124.484 82.9042 124.16 82.5636 123.772 82.2865C123.392 81.9979 122.974 81.7554 122.518 81.5591C122.061 81.3628 121.593 81.2012 121.113 81.0742L114.326 79.1864C113.586 78.9786 112.861 78.7188 112.149 78.4071C111.435 78.0838 110.779 77.6855 110.18 77.2121C109.578 76.7271 109.066 76.1498 108.643 75.4802C108.218 74.799 107.924 73.9965 107.762 73.0729C107.501 71.595 107.666 70.3365 108.257 69.2973C108.857 68.2467 109.776 67.4442 111.015 66.89C112.254 66.3358 113.713 66.0645 115.391 66.076C117.093 66.0876 118.664 66.3878 120.105 66.9766C121.555 67.5539 122.815 68.3852 123.886 69.4705C124.968 70.5559 125.795 71.8548 126.367 73.3673L123.144 73.9388C122.789 72.9228 122.242 72.051 121.504 71.3237C120.776 70.5847 119.926 70.019 118.954 69.6264C117.98 69.2223 116.953 69.0145 115.872 69.0029C114.838 68.9914 113.935 69.153 113.161 69.4879C112.388 69.8227 111.808 70.2903 111.422 70.8907C111.033 71.4795 110.907 72.1607 111.043 72.9343C111.178 73.6963 111.509 74.314 112.038 74.7874C112.565 75.2493 113.176 75.6187 113.869 75.8958C114.573 76.1614 115.25 76.3808 115.902 76.554L120.962 77.9221C121.54 78.0722 122.209 78.2801 122.971 78.5456C123.745 78.8112 124.515 79.1864 125.28 79.6714C126.044 80.1447 126.718 80.7798 127.304 81.5764C127.888 82.3615 128.286 83.3545 128.498 84.5553C128.71 85.756 128.652 86.824 128.324 87.7593C128.008 88.6945 127.473 89.4796 126.717 90.1146C125.959 90.7381 125.035 91.2115 123.943 91.5348C122.853 91.8696 121.651 92.037 120.338 92.037Z" fill="white"/>
<path d="M102.853 91.5173L98.4551 66.5781H101.585L105.983 91.5173H102.853Z" fill="white"/>
<path d="M78.5596 91.5173L74.1621 66.5781H81.9703C82.2282 66.5781 82.6806 66.5839 83.3275 66.5954C83.9743 66.607 84.598 66.6532 85.1985 66.734C87.2012 66.988 88.9608 67.6923 90.4775 68.8469C92.0039 69.9899 93.2569 71.4447 94.2367 73.2113C95.2165 74.9778 95.8936 76.9233 96.2682 79.0477C96.6428 81.1722 96.6517 83.1176 96.295 84.8842C95.9382 86.6507 95.1992 88.1113 94.0779 89.2658C92.9664 90.4089 91.4541 91.1074 89.5409 91.3614C88.9669 91.4307 88.3537 91.4769 87.7012 91.5C87.0585 91.5115 86.614 91.5173 86.3678 91.5173H78.5596ZM81.2587 88.5731H85.8486C86.2941 88.5731 86.7904 88.5615 87.3373 88.5385C87.8822 88.5038 88.3538 88.4519 88.7519 88.3826C90.0905 88.1286 91.1094 87.557 91.8085 86.668C92.5076 85.779 92.9394 84.6706 93.1039 83.3428C93.2684 82.015 93.2152 80.5833 92.9445 79.0477C92.6676 77.4775 92.2069 76.0285 91.5625 74.7007C90.9297 73.3729 90.1081 72.2703 89.0975 71.3928C88.0869 70.5153 86.8744 69.9553 85.4599 69.7128C85.0353 69.632 84.5396 69.5801 83.9728 69.557C83.406 69.5339 82.9115 69.5223 82.4895 69.5223H77.8995L81.2587 88.5731Z" fill="white"/>
</g>
<g opacity="0.1" filter="url(#filter2_d_437_2779)">
<rect x="1.41406" y="1.18654" width="200.52" height="208.346" rx="11.3852" transform="matrix(1 0 0.173648 0.984808 34.2158 39.6279)" stroke="white" stroke-width="2.40969" shape-rendering="crispEdges"/>
<path d="M222.544 144.603L222.911 146.681C224.56 156.033 222.953 172.451 190.735 172.451H187.57C155.282 172.451 147.885 156.033 146.236 146.681L145.869 144.603C144.196 135.112 145.852 118.971 178.14 118.971H181.305C213.523 118.971 220.871 135.112 222.544 144.603ZM202.025 145.919L201.866 145.018C200.926 139.684 196.199 132.826 182.13 132.826C167.71 132.826 165.683 139.684 166.624 145.018L166.77 145.85C167.711 151.184 172.511 158.458 186.65 158.458C200.719 158.458 202.965 151.253 202.025 145.919Z" fill="white"/>
<path d="M147.379 171.482H80.1302L79.0674 165.455C77.8337 158.458 76.5891 146.612 102.786 140.792C105.958 140.03 109.904 139.268 112.562 138.783C118.942 137.467 119.474 136.497 119.193 134.904C118.876 133.103 117.047 131.51 107.129 131.51C95.0998 131.51 95.3676 136.22 95.5108 138.229H75.111L75.0255 137.744C73.8773 131.232 74.318 118.971 102.807 118.971H105.832C132.211 118.971 138.678 126.522 140.168 134.973L140.217 135.25C141.732 143.841 137.446 147.859 119.119 150.837L108.193 152.708C96.5187 154.717 94.9644 157.072 95.2209 158.527H126.594L125.52 152.431H144.02L147.379 171.482Z" fill="white"/>
<path d="M202.848 219.097L199.422 199.665H187.815L186.312 191.145H223.824L225.326 199.665H213.719L217.146 219.097H202.848Z" fill="white"/>
<path d="M163.335 197.224C157.901 197.224 156.145 198.938 155.899 201.432H172.254C171.207 198.782 168.769 197.224 163.335 197.224ZM187.818 208.914L187.836 209.018C188.524 212.914 187.324 219.877 168.806 219.877H166.01C148.547 219.877 143.523 212.031 142.369 205.485L142.186 204.445C141.05 198.003 143.08 190.365 160.648 190.365H163.55C182.068 190.365 186.155 198.886 187.337 205.589L187.612 207.147H156.749C157.684 210.057 160.505 212.291 166.255 212.291H166.308C173.114 212.291 173.683 209.537 173.679 208.914H187.818Z" fill="white"/>
<path d="M127.156 219.097L123.73 199.665H113.917C115.187 207.771 115.547 211.304 114.704 214.005C113.76 217.331 110.959 219.097 105.209 219.097H99.8272L98.2607 210.213H98.8938C100.529 210.213 101.465 209.537 101.619 207.719C101.817 205.848 101.793 203.614 99.5939 191.145H136.525L141.453 219.097H127.156Z" fill="white"/>
<path d="M219.284 100.941C217.502 100.941 215.925 100.508 214.553 99.6423C213.179 98.7649 212.044 97.5814 211.148 96.092C210.262 94.591 209.655 92.9111 209.328 91.0522C208.996 89.1702 209.009 87.4845 209.368 85.9951C209.739 84.5057 210.458 83.3337 211.527 82.4793C212.607 81.625 214.038 81.1978 215.82 81.1978C217.579 81.1978 219.168 81.6307 220.587 82.4967C222.015 83.3511 223.201 84.523 224.143 86.0124C225.086 87.5018 225.722 89.1818 226.052 91.0522C226.382 92.9226 226.338 94.6026 225.921 96.092C225.503 97.5814 224.733 98.7649 223.61 99.6423C222.496 100.508 221.054 100.941 219.284 100.941ZM211.918 108.735L207.154 81.7173H209.95L212.378 95.4858H212.73L215.066 108.735H211.918ZM218.399 98.1183C219.654 98.1183 220.636 97.8065 221.347 97.1831C222.058 96.5596 222.525 95.7167 222.748 94.6545C222.969 93.5807 222.962 92.38 222.728 91.0522C222.496 89.736 222.081 88.5467 221.484 87.4845C220.898 86.4223 220.128 85.5794 219.174 84.9559C218.231 84.3325 217.115 84.0207 215.826 84.0207C214.595 84.0207 213.628 84.3209 212.925 84.9213C212.219 85.5102 211.761 86.3357 211.55 87.3979C211.337 88.4486 211.352 89.6667 211.596 91.0522C211.837 92.4146 212.245 93.6327 212.821 94.7065C213.407 95.7687 214.164 96.6058 215.093 97.2177C216.019 97.8181 217.122 98.1183 218.399 98.1183Z" fill="white"/>
<path d="M196.504 100.907C195.285 100.907 194.202 100.716 193.256 100.335C192.321 99.9541 191.51 99.446 190.824 98.811C190.137 98.176 189.562 97.4717 189.097 96.6981C188.632 95.9245 188.258 95.1336 187.975 94.3254C187.704 93.5172 187.506 92.7609 187.382 92.0566L185.559 81.7173H188.724L190.376 91.0868C190.531 91.9643 190.763 92.8129 191.071 93.6327C191.38 94.4524 191.786 95.1914 192.289 95.8495C192.803 96.5076 193.423 97.0272 194.146 97.4082C194.882 97.7892 195.748 97.9797 196.744 97.9797C197.53 97.9797 198.222 97.8469 198.82 97.5814C199.418 97.3158 199.899 96.9233 200.265 96.4037C200.629 95.8726 200.862 95.2029 200.966 94.3947C201.07 93.5865 201.027 92.6455 200.837 91.5717L203.005 92.1952C203.323 93.9964 203.262 95.5493 202.824 96.854C202.398 98.1587 201.643 99.1632 200.559 99.8675C199.485 100.56 198.134 100.907 196.504 100.907ZM202.75 100.422L201.867 95.4165H201.515L199.1 81.7173H202.248L205.546 100.422H202.75Z" fill="white"/>
<path d="M176.267 100.941C174.379 100.941 172.675 100.52 171.155 99.677C169.646 98.8341 168.391 97.668 167.39 96.1786C166.389 94.6892 165.718 92.9804 165.378 91.0522C165.032 89.0894 165.104 87.369 165.594 85.8912C166.083 84.4133 166.942 83.2645 168.169 82.4447C169.394 81.6134 170.933 81.1978 172.785 81.1978C174.685 81.1978 176.394 81.6192 177.915 82.462C179.433 83.2933 180.687 84.4537 181.677 85.9431C182.676 87.421 183.345 89.124 183.685 91.0522C184.029 93.0034 183.963 94.7238 183.487 96.2132C183.009 97.6911 182.159 98.8515 180.936 99.6943C179.711 100.526 178.154 100.941 176.267 100.941ZM175.751 98.0144C177.72 98.0144 179.072 97.3678 179.805 96.0747C180.538 94.7815 180.724 93.1074 180.362 91.0522C179.989 88.9393 179.206 87.2594 178.013 86.0124C176.818 84.7539 175.248 84.1246 173.301 84.1246C171.977 84.1246 170.938 84.4191 170.186 85.0079C169.434 85.5967 168.939 86.4107 168.7 87.4499C168.461 88.489 168.462 89.6898 168.702 91.0522C169.073 93.1535 169.862 94.8392 171.071 96.1093C172.28 97.3794 173.84 98.0144 175.751 98.0144Z" fill="white"/>
<path d="M155.307 100.422L152.009 81.7173H154.805L155.602 86.2376L155.041 85.6487C155.162 85.0714 155.356 84.5403 155.622 84.0554C155.9 83.5705 156.234 83.1721 156.625 82.8604C157.048 82.4678 157.552 82.1676 158.137 81.9598C158.721 81.752 159.333 81.6307 159.972 81.5961C160.608 81.5499 161.219 81.5903 161.804 81.7173L162.314 84.6096C161.627 84.4364 160.898 84.3902 160.127 84.471C159.356 84.5519 158.679 84.8347 158.096 85.3197C157.562 85.7469 157.178 86.2664 156.946 86.8784C156.726 87.4903 156.614 88.1542 156.612 88.87C156.607 89.5743 156.67 90.296 156.8 91.0349L158.455 100.422H155.307Z" fill="white"/>
<path d="M140.544 100.941C138.809 100.941 137.173 100.641 135.637 100.041C134.101 99.4405 132.718 98.5803 131.489 97.4604C130.257 96.3289 129.22 94.9664 128.376 93.3731C127.542 91.7682 126.948 89.9613 126.594 87.9523C126.126 85.2967 126.201 82.9991 126.821 81.0594C127.44 79.1197 128.53 77.6245 130.092 76.5738C131.652 75.5116 133.61 74.9805 135.966 74.9805C138.803 74.9805 141.205 75.6328 143.17 76.9375C145.133 78.2306 146.641 80.0029 147.695 82.2544L144.642 82.8952C143.848 81.3827 142.768 80.1761 141.401 79.2755C140.035 78.375 138.449 77.9247 136.644 77.9247C134.754 77.9131 133.256 78.3288 132.15 79.1716C131.054 80.0029 130.323 81.1749 129.957 82.6874C129.59 84.1999 129.577 85.9549 129.918 87.9523C130.256 89.9382 130.874 91.6816 131.772 93.1826C132.67 94.6836 133.821 95.8613 135.226 96.7157C136.641 97.5585 138.293 97.9857 140.183 97.9972C141.815 98.0088 143.132 97.7028 144.136 97.0793C145.14 96.4559 145.843 95.5553 146.245 94.3776C146.647 93.1999 146.767 91.7855 146.605 90.1345H141.223L140.774 87.5886H149.462C149.538 87.8195 149.604 88.0966 149.661 88.4199C149.728 88.7317 149.772 88.9453 149.792 89.0607C150.193 91.3353 150.119 93.3731 149.569 95.1743C149.028 96.9639 148.005 98.3725 146.497 99.4001C145.002 100.428 143.018 100.941 140.544 100.941Z" fill="white"/>
<path d="M110.082 100.941C108.289 100.941 106.618 100.641 105.07 100.041C103.534 99.4404 102.199 98.586 101.065 97.4775C99.9417 96.3576 99.1048 95.0356 98.5547 93.5115L101.702 93.0093C102.389 94.5795 103.456 95.8092 104.902 96.6982C106.359 97.5757 107.966 98.0144 109.724 98.0144C110.862 98.0144 111.857 97.8412 112.71 97.4949C113.574 97.1369 114.217 96.6289 114.64 95.9708C115.063 95.3127 115.195 94.5333 115.037 93.6328C114.939 93.0786 114.756 92.6052 114.487 92.2126C114.228 91.8085 113.905 91.4679 113.516 91.1908C113.137 90.9021 112.719 90.6597 112.262 90.4634C111.805 90.2671 111.337 90.1055 110.857 89.9785L104.071 88.0907C103.33 87.8829 102.605 87.6231 101.893 87.3114C101.18 86.9881 100.523 86.5898 99.9238 86.1164C99.3225 85.6314 98.8103 85.0541 98.3874 84.3845C97.9625 83.7033 97.6686 82.9008 97.5057 81.9772C97.2451 80.4993 97.4101 79.2408 98.0007 78.2016C98.6009 77.151 99.5205 76.3485 100.759 75.7943C101.998 75.2401 103.457 74.9688 105.135 74.9803C106.837 74.9919 108.409 75.2921 109.849 75.8809C111.299 76.4582 112.559 77.2895 113.63 78.3748C114.712 79.4601 115.539 80.7591 116.111 82.2716L112.888 82.8431C112.533 81.8271 111.986 80.9553 111.249 80.228C110.52 79.489 109.67 78.9233 108.698 78.5307C107.724 78.1266 106.697 77.9188 105.616 77.9072C104.583 77.8957 103.679 78.0573 102.906 78.3922C102.132 78.727 101.552 79.1946 101.166 79.795C100.777 80.3838 100.651 81.065 100.787 81.8386C100.922 82.6006 101.254 83.2183 101.782 83.6917C102.309 84.1536 102.92 84.523 103.613 84.8001C104.317 85.0657 104.994 85.2851 105.646 85.4583L110.706 86.8264C111.284 86.9765 111.953 87.1844 112.715 87.4499C113.489 87.7155 114.259 88.0907 115.024 88.5756C115.788 89.049 116.462 89.6841 117.048 90.4807C117.632 91.2658 118.03 92.2588 118.242 93.4596C118.454 94.6603 118.396 95.7283 118.068 96.6636C117.752 97.5988 117.217 98.3839 116.461 99.0189C115.704 99.6424 114.779 100.116 113.687 100.439C112.597 100.774 111.395 100.941 110.082 100.941Z" fill="white"/>
<path d="M92.5967 100.422L88.1992 75.4824H91.3295L95.727 100.422H92.5967Z" fill="white"/>
<path d="M68.3037 100.422L63.9062 75.4824H71.7145C71.9724 75.4824 72.4248 75.4882 73.0716 75.4997C73.7185 75.5113 74.3421 75.5575 74.9426 75.6383C76.9453 75.8923 78.705 76.5966 80.2217 77.7512C81.748 78.8942 83.0011 80.349 83.9808 82.1155C84.9606 83.8821 85.6378 85.8276 86.0124 87.952C86.387 90.0765 86.3959 92.0219 86.0391 93.7885C85.6823 95.555 84.9433 97.0155 83.8221 98.1701C82.7105 99.3132 81.1982 100.012 79.2851 100.266C78.7111 100.335 78.0979 100.381 77.4454 100.404C76.8026 100.416 76.3581 100.422 76.1119 100.422H68.3037ZM71.0028 97.4774H75.5928C76.0383 97.4774 76.5345 97.4658 77.0815 97.4427C77.6264 97.4081 78.0979 97.3562 78.496 97.2869C79.8347 97.0329 80.8536 96.4613 81.5526 95.5723C82.2517 94.6833 82.6835 93.5749 82.848 92.2471C83.0125 90.9193 82.9594 89.4876 82.6886 87.952C82.4117 86.3818 81.9511 84.9328 81.3066 83.605C80.6739 82.2772 79.8522 81.1746 78.8416 80.2971C77.831 79.4196 76.6185 78.8596 75.2041 78.6171C74.7795 78.5363 74.2838 78.4844 73.7169 78.4613C73.1501 78.4382 72.6557 78.4266 72.2336 78.4266H67.6436L71.0028 97.4774Z" fill="white"/>
</g>
<g opacity="0.1" filter="url(#filter3_d_437_2779)">
<rect x="1.41406" y="1.18654" width="200.52" height="208.346" rx="11.3852" transform="matrix(1 0 0.173648 0.984808 25.794 48.2734)" stroke="white" stroke-width="2.40969" shape-rendering="crispEdges"/>
<path d="M214.126 153.248L214.493 155.326C216.142 164.678 214.535 181.096 182.317 181.096H179.152C146.864 181.096 139.467 164.678 137.818 155.326L137.451 153.248C135.778 143.757 137.434 127.616 169.722 127.616H172.887C205.105 127.616 212.453 143.757 214.126 153.248ZM193.607 154.564L193.448 153.663C192.508 148.329 187.781 141.471 173.712 141.471C159.292 141.471 157.265 148.329 158.206 153.663L158.352 154.495C159.293 159.829 164.093 167.103 178.232 167.103C192.301 167.103 194.548 159.898 193.607 154.564Z" fill="white"/>
<path d="M138.961 180.127H71.7122L70.6495 174.1C69.4158 167.103 68.1711 155.257 94.3682 149.437C97.54 148.675 101.486 147.913 104.144 147.429C110.524 146.112 111.056 145.142 110.775 143.549C110.458 141.748 108.629 140.155 98.7106 140.155C86.6818 140.155 86.9497 144.865 87.0929 146.874H66.6931L66.6076 146.389C65.4593 139.877 65.9 127.616 94.3894 127.616H97.4142C123.793 127.616 130.26 135.167 131.75 143.618L131.799 143.895C133.314 152.486 129.028 156.504 110.701 159.482L99.7754 161.353C88.1008 163.362 86.5465 165.717 86.803 167.172H118.176L117.102 161.076H135.602L138.961 180.127Z" fill="white"/>
<path d="M194.428 227.743L191.002 208.311H179.395L177.893 199.791H215.404L216.906 208.311H205.299L208.726 227.743H194.428Z" fill="white"/>
<path d="M154.913 205.87C149.479 205.87 147.723 207.584 147.477 210.078H163.832C162.785 207.428 160.347 205.87 154.913 205.87ZM179.396 217.56L179.415 217.664C180.102 221.56 178.902 228.523 160.384 228.523H157.588C140.125 228.523 135.102 220.677 133.947 214.131L133.764 213.091C132.628 206.649 134.658 199.011 152.226 199.011H155.128C173.646 199.011 177.734 207.532 178.915 214.235L179.19 215.793H148.327C149.262 218.703 152.083 220.937 157.833 220.937H157.886C164.692 220.937 165.261 218.183 165.257 217.56H179.396Z" fill="white"/>
<path d="M118.736 227.743L115.31 208.311H105.497C106.768 216.417 107.127 219.95 106.284 222.651C105.341 225.977 102.539 227.743 96.7887 227.743H91.4073L89.8407 218.859H90.4738C92.1093 218.859 93.0454 218.183 93.1996 216.365C93.3973 214.494 93.3727 212.26 91.174 199.791H128.105L133.033 227.743H118.736Z" fill="white"/>
<path d="M210.864 109.587C209.082 109.587 207.505 109.154 206.133 108.288C204.759 107.41 203.624 106.227 202.728 104.737C201.842 103.237 201.236 101.557 200.908 99.6977C200.576 97.8157 200.589 96.13 200.948 94.6406C201.319 93.1512 202.038 91.9793 203.107 91.1249C204.187 90.2705 205.618 89.8433 207.4 89.8433C209.159 89.8433 210.748 90.2762 212.167 91.1422C213.595 91.9966 214.781 93.1685 215.723 94.6579C216.666 96.1473 217.302 97.8273 217.632 99.6977C217.962 101.568 217.918 103.248 217.501 104.737C217.083 106.227 216.313 107.41 215.19 108.288C214.076 109.154 212.634 109.587 210.864 109.587ZM203.498 117.38L198.734 90.3628H201.53L203.958 104.131H204.31L206.646 117.38H203.498ZM209.98 106.764C211.234 106.764 212.217 106.452 212.927 105.829C213.638 105.205 214.105 104.362 214.328 103.3C214.549 102.226 214.542 101.025 214.308 99.6977C214.076 98.3815 213.661 97.1922 213.064 96.13C212.478 95.0678 211.708 94.2249 210.754 93.6015C209.811 92.978 208.695 92.6662 207.406 92.6662C206.175 92.6662 205.208 92.9664 204.505 93.5668C203.799 94.1557 203.341 94.9812 203.13 96.0434C202.917 97.0941 202.932 98.3122 203.176 99.6977C203.417 101.06 203.825 102.278 204.401 103.352C204.987 104.414 205.744 105.251 206.673 105.863C207.599 106.464 208.702 106.764 209.98 106.764Z" fill="white"/>
<path d="M188.084 109.552C186.865 109.552 185.782 109.362 184.836 108.981C183.901 108.6 183.09 108.092 182.404 107.457C181.717 106.821 181.142 106.117 180.677 105.344C180.212 104.57 179.838 103.779 179.555 102.971C179.284 102.163 179.086 101.406 178.962 100.702L177.139 90.3628H180.304L181.956 99.7323C182.111 100.61 182.343 101.458 182.651 102.278C182.96 103.098 183.366 103.837 183.869 104.495C184.383 105.153 185.003 105.673 185.726 106.054C186.462 106.435 187.328 106.625 188.324 106.625C189.11 106.625 189.802 106.492 190.4 106.227C190.998 105.961 191.479 105.569 191.845 105.049C192.209 104.518 192.442 103.848 192.546 103.04C192.65 102.232 192.607 101.291 192.418 100.217L194.585 100.841C194.903 102.642 194.842 104.195 194.404 105.499C193.978 106.804 193.223 107.809 192.139 108.513C191.066 109.206 189.714 109.552 188.084 109.552ZM194.33 109.067L193.447 104.062H193.095L190.68 90.3628H193.828L197.126 109.067H194.33Z" fill="white"/>
<path d="M167.847 109.587C165.959 109.587 164.255 109.165 162.735 108.322C161.226 107.48 159.971 106.314 158.97 104.824C157.969 103.335 157.298 101.626 156.958 99.6977C156.612 97.7349 156.684 96.0146 157.174 94.5367C157.664 93.0588 158.522 91.91 159.749 91.0902C160.974 90.2589 162.513 89.8433 164.365 89.8433C166.265 89.8433 167.975 90.2647 169.495 91.1075C171.013 91.9388 172.267 93.0992 173.257 94.5886C174.256 96.0665 174.925 97.7695 175.265 99.6977C175.609 101.649 175.543 103.369 175.067 104.859C174.589 106.337 173.739 107.497 172.516 108.34C171.291 109.171 169.734 109.587 167.847 109.587ZM167.331 106.66C169.3 106.66 170.652 106.013 171.385 104.72C172.119 103.427 172.304 101.753 171.942 99.6977C171.569 97.5848 170.786 95.9049 169.593 94.6579C168.398 93.3994 166.828 92.7701 164.882 92.7701C163.557 92.7701 162.518 93.0646 161.766 93.6534C161.014 94.2423 160.519 95.0562 160.28 96.0954C160.041 97.1345 160.042 98.3353 160.282 99.6977C160.653 101.799 161.442 103.485 162.651 104.755C163.86 106.025 165.42 106.66 167.331 106.66Z" fill="white"/>
<path d="M146.887 109.067L143.589 90.3628H146.385L147.182 94.8831L146.621 94.2942C146.742 93.7169 146.936 93.1858 147.202 92.7009C147.48 92.216 147.814 91.8176 148.205 91.5059C148.628 91.1133 149.132 90.8131 149.717 90.6053C150.301 90.3975 150.913 90.2763 151.552 90.2416C152.188 90.1954 152.799 90.2358 153.385 90.3628L153.894 93.2551C153.207 93.0819 152.478 93.0357 151.707 93.1165C150.936 93.1974 150.259 93.4802 149.676 93.9652C149.142 94.3924 148.758 94.9119 148.526 95.5239C148.306 96.1358 148.194 96.7997 148.192 97.5155C148.187 98.2198 148.25 98.9415 148.38 99.6804L150.035 109.067H146.887Z" fill="white"/>
<path d="M132.124 109.587C130.389 109.587 128.753 109.287 127.217 108.686C125.681 108.086 124.298 107.226 123.069 106.106C121.838 104.974 120.8 103.612 119.956 102.019C119.122 100.414 118.528 98.6068 118.174 96.5978C117.706 93.9423 117.781 91.6446 118.401 89.7049C119.02 87.7652 120.11 86.27 121.672 85.2193C123.232 84.1571 125.19 83.626 127.546 83.626C130.383 83.626 132.785 84.2783 134.75 85.583C136.713 86.8762 138.221 88.6484 139.275 90.8999L136.222 91.5407C135.428 90.0282 134.348 88.8216 132.981 87.9211C131.615 87.0205 130.029 86.5702 128.224 86.5702C126.334 86.5586 124.836 86.9743 123.73 87.8171C122.634 88.6484 121.903 89.8204 121.537 91.3329C121.17 92.8454 121.157 94.6004 121.498 96.5978C121.836 98.5837 122.454 100.327 123.352 101.828C124.25 103.329 125.401 104.507 126.806 105.361C128.221 106.204 129.873 106.631 131.763 106.643C133.395 106.654 134.712 106.348 135.716 105.725C136.72 105.101 137.423 104.201 137.825 103.023C138.227 101.845 138.347 100.431 138.185 98.78H132.803L132.355 96.2341H141.042C141.118 96.465 141.184 96.7421 141.241 97.0654C141.308 97.3772 141.352 97.5908 141.372 97.7062C141.773 99.9808 141.699 102.019 141.149 103.82C140.608 105.609 139.585 107.018 138.078 108.046C136.582 109.073 134.598 109.587 132.124 109.587Z" fill="white"/>
<path d="M101.662 109.587C99.8686 109.587 98.1977 109.287 96.6498 108.686C95.1136 108.086 93.7788 107.231 92.6455 106.123C91.5218 105.003 90.6849 103.681 90.1348 102.157L93.2821 101.655C93.9693 103.225 95.0361 104.455 96.4825 105.344C97.9386 106.221 99.5459 106.66 101.305 106.66C102.442 106.66 103.437 106.487 104.29 106.14C105.154 105.782 105.797 105.274 106.22 104.616C106.643 103.958 106.776 103.179 106.617 102.278C106.519 101.724 106.336 101.251 106.067 100.858C105.808 100.454 105.485 100.113 105.096 99.8363C104.717 99.5477 104.299 99.3052 103.842 99.1089C103.385 98.9126 102.917 98.751 102.438 98.624L95.6506 96.7362C94.9105 96.5284 94.1847 96.2686 93.4732 95.9569C92.7597 95.6336 92.1032 95.2353 91.5039 94.7619C90.9026 94.2769 90.3904 93.6997 89.9675 93.03C89.5426 92.3488 89.2487 91.5463 89.0858 90.6227C88.8252 89.1448 88.9902 87.8863 89.5807 86.8472C90.181 85.7965 91.1005 84.994 92.3393 84.4398C93.5782 83.8856 95.0369 83.6143 96.7154 83.6258C98.4175 83.6374 99.9886 83.9376 101.429 84.5264C102.879 85.1037 104.139 85.935 105.21 87.0203C106.293 88.1057 107.119 89.4046 107.691 90.9171L104.468 91.4886C104.113 90.4726 103.567 89.6009 102.829 88.8735C102.1 88.1345 101.25 87.5688 100.278 87.1762C99.3043 86.7721 98.277 86.5643 97.1964 86.5527C96.1626 86.5412 95.259 86.7028 94.4857 87.0377C93.7123 87.3725 93.1324 87.8401 92.7458 88.4405C92.3572 89.0293 92.2311 89.7105 92.3675 90.4841C92.5019 91.2461 92.8336 91.8639 93.3626 92.3372C93.8895 92.7991 94.4998 93.1685 95.1935 93.4456C95.8969 93.7112 96.5745 93.9306 97.2264 94.1038L102.286 95.4719C102.864 95.622 103.533 95.8299 104.295 96.0954C105.069 96.361 105.839 96.7362 106.604 97.2212C107.368 97.6945 108.042 98.3296 108.628 99.1262C109.212 99.9114 109.61 100.904 109.822 102.105C110.034 103.306 109.976 104.374 109.648 105.309C109.333 106.244 108.797 107.029 108.041 107.664C107.284 108.288 106.359 108.761 105.267 109.085C104.177 109.419 102.975 109.587 101.662 109.587Z" fill="white"/>
<path d="M84.1767 109.067L79.7793 84.1279H82.9096L87.3071 109.067H84.1767Z" fill="white"/>
<path d="M59.8838 109.067L55.4863 84.1279H63.2945C63.5525 84.1279 64.0049 84.1337 64.6517 84.1452C65.2986 84.1568 65.9222 84.203 66.5227 84.2838C68.5254 84.5378 70.2851 85.2421 71.8017 86.3967C73.3281 87.5397 74.5812 88.9945 75.5609 90.7611C76.5407 92.5276 77.2179 94.4731 77.5925 96.5975C77.967 98.722 77.976 100.667 77.6192 102.434C77.2624 104.2 76.5234 105.661 75.4022 106.816C74.2906 107.959 72.7783 108.657 70.8652 108.911C70.2912 108.981 69.6779 109.027 69.0255 109.05C68.3827 109.061 67.9382 109.067 67.692 109.067H59.8838ZM62.5829 106.123H67.1728C67.6183 106.123 68.1146 106.111 68.6615 106.088C69.2065 106.054 69.678 106.002 70.0761 105.932C71.4148 105.678 72.4336 105.107 73.1327 104.218C73.8318 103.329 74.2636 102.22 74.4281 100.893C74.5926 99.5648 74.5395 98.1331 74.2687 96.5975C73.9918 95.0273 73.5311 93.5783 72.8867 92.2505C72.2539 90.9227 71.4323 89.8201 70.4217 88.9426C69.4111 88.0651 68.1986 87.5051 66.7841 87.2626C66.3595 87.1818 65.8638 87.1299 65.297 87.1068C64.7302 87.0837 64.2357 87.0721 63.8137 87.0721H59.2237L62.5829 106.123Z" fill="white"/>
</g>
<defs>
<filter id="filter0_d_437_2779" x="27.4651" y="0.939276" width="294.468" height="262.495" filterUnits="userSpaceOnUse" color-interpolation-filters="sRGB">
<feFlood flood-opacity="0" result="BackgroundImageFix"/>
<feColorMatrix in="SourceAlpha" type="matrix" values="0 0 0 0 0 0 0 0 0 0 0 0 0 0 0 0 0 0 127 0" result="hardAlpha"/>
<feOffset dy="2.40969"/>
<feGaussianBlur stdDeviation="13.7352"/>
<feComposite in2="hardAlpha" operator="out"/>
<feColorMatrix type="matrix" values="0 0 0 0 0.9125 0 0 0 0 0.9125 0 0 0 0 0.9125 0 0 0 0.87 0"/>
<feBlend mode="normal" in2="BackgroundImageFix" result="effect1_dropShadow_437_2779"/>
<feBlend mode="normal" in="SourceGraphic" in2="effect1_dropShadow_437_2779" result="shape"/>
</filter>
<filter id="filter1_d_437_2779" x="17.2073" y="5.64484" width="294.468" height="262.495" filterUnits="userSpaceOnUse" color-interpolation-filters="sRGB">
<feFlood flood-opacity="0" result="BackgroundImageFix"/>
<feColorMatrix in="SourceAlpha" type="matrix" values="0 0 0 0 0 0 0 0 0 0 0 0 0 0 0 0 0 0 127 0" result="hardAlpha"/>
<feOffset dy="2.40969"/>
<feGaussianBlur stdDeviation="13.7352"/>
<feComposite in2="hardAlpha" operator="out"/>
<feColorMatrix type="matrix" values="0 0 0 0 0.9125 0 0 0 0 0.9125 0 0 0 0 0.9125 0 0 0 0.87 0"/>
<feBlend mode="normal" in2="BackgroundImageFix" result="effect1_dropShadow_437_2779"/>
<feBlend mode="normal" in="SourceGraphic" in2="effect1_dropShadow_437_2779" result="shape"/>
</filter>
<filter id="filter2_d_437_2779" x="6.95147" y="14.5491" width="294.468" height="262.495" filterUnits="userSpaceOnUse" color-interpolation-filters="sRGB">
<feFlood flood-opacity="0" result="BackgroundImageFix"/>
<feColorMatrix in="SourceAlpha" type="matrix" values="0 0 0 0 0 0 0 0 0 0 0 0 0 0 0 0 0 0 127 0" result="hardAlpha"/>
<feOffset dy="2.40969"/>
<feGaussianBlur stdDeviation="13.7352"/>
<feComposite in2="hardAlpha" operator="out"/>
<feColorMatrix type="matrix" values="0 0 0 0 0.9125 0 0 0 0 0.9125 0 0 0 0 0.9125 0 0 0 0.87 0"/>
<feBlend mode="normal" in2="BackgroundImageFix" result="effect1_dropShadow_437_2779"/>
<feBlend mode="normal" in="SourceGraphic" in2="effect1_dropShadow_437_2779" result="shape"/>
</filter>
<filter id="filter3_d_437_2779" x="-1.47041" y="23.1946" width="294.468" height="262.495" filterUnits="userSpaceOnUse" color-interpolation-filters="sRGB">
<feFlood flood-opacity="0" result="BackgroundImageFix"/>
<feColorMatrix in="SourceAlpha" type="matrix" values="0 0 0 0 0 0 0 0 0 0 0 0 0 0 0 0 0 0 127 0" result="hardAlpha"/>
<feOffset dy="2.40969"/>
<feGaussianBlur stdDeviation="13.7352"/>
<feComposite in2="hardAlpha" operator="out"/>
<feColorMatrix type="matrix" values="0 0 0 0 0.9125 0 0 0 0 0.9125 0 0 0 0 0.9125 0 0 0 0.87 0"/>
<feBlend mode="normal" in2="BackgroundImageFix" result="effect1_dropShadow_437_2779"/>
<feBlend mode="normal" in="SourceGraphic" in2="effect1_dropShadow_437_2779" result="shape"/>
</filter>
</defs>
</svg>
