<svg width="237" height="212" viewBox="0 0 237 212" fill="none" xmlns="http://www.w3.org/2000/svg">
<g filter="url(#filter0_d_394_2369)">
<rect x="1.04604" y="0.877735" width="148.334" height="154.123" rx="9.10872" transform="matrix(1 0 0.173648 0.984808 40.4784 19.0133)" stroke="white" style="stroke:white;stroke-opacity:1;" stroke-width="1.78255" shape-rendering="crispEdges"/>
<path d="M179.794 96.6675L180.065 98.2049C181.285 105.123 180.096 117.268 156.263 117.268H153.922C130.037 117.268 124.565 105.123 123.345 98.2049L123.074 96.6675C121.836 89.6468 123.061 77.7064 146.946 77.7064H149.287C173.12 77.7064 178.556 89.6468 179.794 96.6675ZM164.615 97.6412L164.497 96.975C163.801 93.029 160.305 87.9557 149.898 87.9557C139.23 87.9557 137.731 93.029 138.427 96.975L138.535 97.5899C139.231 101.536 142.782 106.917 153.241 106.917C163.648 106.917 165.31 101.587 164.615 97.6412Z" fill="white" style="fill:white;fill-opacity:1;"/>
<path d="M124.191 116.551H74.4441L73.6579 112.093C72.7453 106.917 71.8246 98.1536 91.2037 93.849C93.5501 93.2852 96.4688 92.7215 98.435 92.3628C103.155 91.3891 103.549 90.6717 103.341 89.493C103.106 88.1606 101.753 86.982 94.416 86.982C85.5177 86.982 85.7159 90.4667 85.8218 91.9529H70.7312L70.6679 91.5941C69.8186 86.777 70.1445 77.7064 91.2194 77.7064H93.457C112.971 77.7064 117.754 83.2922 118.857 89.5443L118.893 89.7493C120.013 96.1038 116.843 99.0761 103.286 101.28L95.2037 102.663C86.5674 104.149 85.4176 105.892 85.6074 106.968H108.816L108.021 102.458H121.706L124.191 116.551Z" fill="white" style="fill:white;fill-opacity:1;"/>
<path d="M165.222 151.775L162.688 137.4H154.102L152.99 131.097H180.739L181.85 137.4H173.264L175.799 151.775H165.222Z" fill="white" style="fill:white;fill-opacity:1;"/>
<path d="M135.991 135.594C131.971 135.594 130.673 136.862 130.491 138.707H142.589C141.814 136.747 140.011 135.594 135.991 135.594ZM154.103 144.242L154.116 144.319C154.624 147.201 153.737 152.351 140.039 152.351H137.97C125.052 152.351 121.336 146.548 120.482 141.705L120.346 140.936C119.506 136.171 121.008 130.521 134.004 130.521H136.15C149.849 130.521 152.873 136.824 153.747 141.782L153.95 142.935H131.119C131.811 145.087 133.898 146.74 138.152 146.74H138.191C143.225 146.74 143.646 144.703 143.643 144.242H154.103Z" fill="white" style="fill:white;fill-opacity:1;"/>
<path d="M109.23 151.775L106.695 137.4H99.4358C100.376 143.396 100.642 146.009 100.018 148.008C99.3203 150.468 97.2481 151.775 92.9941 151.775H89.0132L87.8544 145.202H88.3227C89.5326 145.202 90.225 144.703 90.3391 143.357C90.4854 141.974 90.4671 140.321 88.8406 131.097H116.16L119.806 151.775H109.23Z" fill="white" style="fill:white;fill-opacity:1;"/>
<path d="M177.381 64.3693C176.062 64.3693 174.896 64.049 173.881 63.4084C172.864 62.7593 172.025 61.8839 171.362 60.7821C170.707 59.6717 170.258 58.429 170.016 57.0539C169.77 55.6617 169.78 54.4147 170.045 53.313C170.319 52.2112 170.852 51.3442 171.642 50.7122C172.441 50.0802 173.5 49.7642 174.818 49.7642C176.119 49.7642 177.295 50.0844 178.344 50.725C179.401 51.3571 180.278 52.224 180.975 53.3258C181.673 54.4276 182.143 55.6703 182.387 57.0539C182.631 58.4376 182.599 59.6803 182.29 60.7821C181.981 61.8839 181.412 62.7593 180.581 63.4084C179.757 64.049 178.69 64.3693 177.381 64.3693ZM171.932 70.1345L168.408 50.1485H170.476L172.272 60.3337H172.532L174.26 70.1345H171.932ZM176.726 62.281C177.654 62.281 178.381 62.0504 178.907 61.5892C179.433 61.128 179.778 60.5045 179.943 59.7187C180.107 58.9244 180.102 58.0361 179.928 57.0539C179.757 56.0802 179.45 55.2005 179.008 54.4147C178.574 53.629 178.005 53.0055 177.299 52.5443C176.602 52.083 175.776 51.8524 174.822 51.8524C173.912 51.8524 173.196 52.0745 172.676 52.5186C172.155 52.9542 171.816 53.5649 171.659 54.3507C171.502 55.1279 171.513 56.029 171.694 57.0539C171.871 58.0618 172.173 58.9628 172.6 59.7572C173.033 60.5429 173.593 61.1622 174.28 61.6148C174.966 62.059 175.781 62.281 176.726 62.281Z" fill="white" style="fill:white;fill-opacity:1;"/>
<path d="M160.53 64.3436C159.628 64.3436 158.827 64.2027 158.126 63.9208C157.435 63.639 156.835 63.2632 156.327 62.7934C155.82 62.3237 155.394 61.8027 155.05 61.2304C154.706 60.6582 154.43 60.0731 154.22 59.4752C154.019 58.8774 153.873 58.3179 153.781 57.7969L152.433 50.1484H154.774L155.996 57.0795C156.111 57.7286 156.282 58.3564 156.511 58.9628C156.739 59.5692 157.039 60.1158 157.411 60.6027C157.792 61.0895 158.25 61.4738 158.785 61.7557C159.329 62.0375 159.97 62.1785 160.707 62.1785C161.288 62.1785 161.8 62.0803 162.242 61.8838C162.685 61.6874 163.041 61.397 163.312 61.0126C163.581 60.6197 163.753 60.1244 163.83 59.5265C163.907 58.9286 163.875 58.2325 163.735 57.4382L165.338 57.8994C165.573 59.2318 165.529 60.3806 165.205 61.3457C164.889 62.3109 164.331 63.0539 163.529 63.5749C162.735 64.0874 161.735 64.3436 160.53 64.3436ZM165.15 63.9849L164.497 60.2824H164.237L162.45 50.1484H164.778L167.218 63.9849H165.15Z" fill="white" style="fill:white;fill-opacity:1;"/>
<path d="M145.558 64.3693C144.162 64.3693 142.901 64.0576 141.776 63.4341C140.66 62.8106 139.732 61.9479 138.991 60.8461C138.251 59.7443 137.755 58.4803 137.503 57.0539C137.247 55.602 137.3 54.3293 137.663 53.2361C138.025 52.1428 138.66 51.293 139.568 50.6866C140.474 50.0716 141.612 49.7642 142.983 49.7642C144.388 49.7642 145.652 50.0759 146.777 50.6994C147.9 51.3144 148.828 52.1727 149.56 53.2745C150.299 54.3678 150.794 55.6276 151.046 57.0539C151.3 58.4974 151.251 59.77 150.899 60.8718C150.546 61.965 149.917 62.8234 149.012 63.4469C148.105 64.0618 146.954 64.3693 145.558 64.3693ZM145.176 62.2042C146.633 62.2042 147.633 61.7259 148.175 60.7693C148.718 59.8127 148.855 58.5742 148.587 57.0539C148.311 55.4909 147.732 54.2482 146.85 53.3258C145.966 52.3948 144.804 51.9293 143.364 51.9293C142.384 51.9293 141.616 52.1471 141.06 52.5827C140.504 53.0183 140.137 53.6204 139.96 54.3891C139.784 55.1578 139.784 56.0461 139.962 57.0539C140.236 58.6084 140.82 59.8554 141.714 60.7949C142.608 61.7344 143.762 62.2042 145.176 62.2042Z" fill="white" style="fill:white;fill-opacity:1;"/>
<path d="M130.055 63.985L127.615 50.1485H129.683L130.273 53.4923L129.858 53.0567C129.947 52.6297 130.091 52.2368 130.288 51.8781C130.493 51.5193 130.74 51.2247 131.029 50.9941C131.342 50.7037 131.715 50.4816 132.148 50.3279C132.58 50.1741 133.033 50.0845 133.505 50.0588C133.976 50.0247 134.428 50.0546 134.861 50.1485L135.238 52.288C134.73 52.1599 134.191 52.1258 133.62 52.1855C133.05 52.2453 132.549 52.4546 132.118 52.8133C131.722 53.1293 131.439 53.5137 131.267 53.9663C131.104 54.419 131.022 54.9101 131.02 55.4397C131.016 55.9607 131.063 56.4945 131.159 57.0411L132.383 63.985H130.055Z" fill="white" style="fill:white;fill-opacity:1;"/>
<path d="M119.132 64.3694C117.849 64.3694 116.639 64.1473 115.503 63.7032C114.366 63.2591 113.343 62.6228 112.434 61.7943C111.523 60.9573 110.756 59.9494 110.132 58.7708C109.515 57.5836 109.075 56.2469 108.813 54.7608C108.467 52.7963 108.523 51.0967 108.981 49.6618C109.439 48.2269 110.246 47.1208 111.401 46.3436C112.554 45.5578 114.003 45.1649 115.746 45.1649C117.845 45.1649 119.621 45.6475 121.075 46.6126C122.527 47.5692 123.643 48.8803 124.422 50.5458L122.164 51.0198C121.577 49.9009 120.778 49.0084 119.767 48.3422C118.756 47.676 117.583 47.3429 116.247 47.3429C114.849 47.3343 113.742 47.6418 112.923 48.2653C112.113 48.8803 111.572 49.7472 111.301 50.8661C111.03 51.9849 111.02 53.2832 111.272 54.7608C111.522 56.2298 111.979 57.5195 112.644 58.6298C113.308 59.7402 114.159 60.6114 115.199 61.2434C116.245 61.8669 117.468 62.1829 118.865 62.1915C120.073 62.2 121.047 61.9737 121.79 61.5124C122.533 61.0512 123.052 60.385 123.35 59.5138C123.647 58.6427 123.736 57.5964 123.616 56.375H119.635L119.303 54.4917H125.73C125.786 54.6625 125.835 54.8675 125.877 55.1067C125.926 55.3373 125.959 55.4953 125.974 55.5807C126.27 57.2633 126.215 58.7708 125.808 60.1032C125.409 61.427 124.651 62.469 123.537 63.2292C122.43 63.9893 120.962 64.3694 119.132 64.3694Z" fill="white" style="fill:white;fill-opacity:1;"/>
<path d="M96.5989 64.3694C95.272 64.3694 94.036 64.1474 92.8909 63.7032C91.7546 63.2591 90.7672 62.6271 89.9288 61.8071C89.0975 60.9786 88.4784 60.0007 88.0715 58.8733L90.3997 58.5017C90.908 59.6633 91.6972 60.5729 92.7672 61.2306C93.8443 61.8797 95.0333 62.2043 96.3343 62.2043C97.1755 62.2043 97.9118 62.0762 98.5431 61.8199C99.1816 61.5552 99.6573 61.1794 99.9704 60.6925C100.284 60.2057 100.381 59.6292 100.264 58.963C100.192 58.553 100.056 58.2028 99.8575 57.9124C99.666 57.6135 99.4265 57.3615 99.1388 57.1565C98.8583 56.943 98.5492 56.7636 98.2113 56.6184C97.8735 56.4733 97.5272 56.3537 97.1724 56.2597L92.1518 54.8633C91.6043 54.7095 91.0674 54.5174 90.5411 54.2868C90.0132 54.0476 89.5276 53.7529 89.0843 53.4028C88.6394 53.044 88.2606 52.617 87.9477 52.1216C87.6334 51.6177 87.416 51.0241 87.2955 50.3408C87.1027 49.2475 87.2248 48.3166 87.6616 47.5479C88.1057 46.7706 88.7859 46.177 89.7023 45.7671C90.6187 45.3571 91.6978 45.1564 92.9395 45.1649C94.1985 45.1735 95.3608 45.3955 96.4263 45.8311C97.499 46.2582 98.4313 46.8731 99.2234 47.676C100.024 48.4789 100.636 49.4397 101.059 50.5586L98.6744 50.9814C98.4118 50.2298 98.0075 49.5849 97.4617 49.0468C96.923 48.5002 96.2941 48.0817 95.5751 47.7913C94.8546 47.4924 94.0946 47.3386 93.2952 47.3301C92.5305 47.3215 91.8621 47.4411 91.29 47.6888C90.7179 47.9365 90.2889 48.2824 90.003 48.7265C89.7155 49.1621 89.6223 49.6661 89.7232 50.2383C89.8226 50.802 90.0679 51.259 90.4592 51.6091C90.849 51.9508 91.3005 52.2241 91.8136 52.4291C92.334 52.6255 92.8352 52.7878 93.3175 52.9159L97.0605 53.928C97.4877 54.0391 97.9831 54.1928 98.5468 54.3892C99.1191 54.5857 99.6884 54.8633 100.255 55.222C100.819 55.5722 101.319 56.0419 101.752 56.6313C102.184 57.2121 102.478 57.9466 102.635 58.8348C102.792 59.7231 102.749 60.5132 102.507 61.205C102.273 61.8968 101.877 62.4776 101.318 62.9473C100.757 63.4086 100.073 63.7587 99.2654 63.9979C98.4591 64.2456 97.5703 64.3694 96.5989 64.3694Z" fill="white" style="fill:white;fill-opacity:1;"/>
<path d="M83.6641 63.985L80.4111 45.5364H82.7268L85.9798 63.985H83.6641Z" fill="white" style="fill:white;fill-opacity:1;"/>
<path d="M65.6944 63.985L62.4414 45.5364H68.2175C68.4083 45.5364 68.7429 45.5406 69.2214 45.5492C69.7 45.5577 70.1613 45.5919 70.6055 45.6517C72.087 45.8396 73.3887 46.3606 74.5106 47.2147C75.6398 48.0603 76.5667 49.1364 77.2915 50.4432C78.0162 51.75 78.5172 53.1891 78.7943 54.7607C79.0714 56.3322 79.078 57.7714 78.8141 59.0782C78.5501 60.3849 78.0034 61.4654 77.174 62.3195C76.3518 63.1651 75.233 63.6818 73.8178 63.8697C73.3932 63.9209 72.9396 63.9551 72.4569 63.9722C71.9814 63.9807 71.6526 63.985 71.4705 63.985H65.6944ZM67.691 61.807H71.0864C71.416 61.807 71.7831 61.7985 72.1877 61.7814C72.5908 61.7558 72.9396 61.7174 73.2341 61.6661C74.2244 61.4782 74.9781 61.0554 75.4952 60.3978C76.0124 59.7401 76.3318 58.9202 76.4535 57.9379C76.5752 56.9557 76.5359 55.8966 76.3356 54.7607C76.1307 53.5991 75.79 52.5272 75.3132 51.545C74.8452 50.5628 74.2373 49.7471 73.4898 49.098C72.7422 48.4489 71.8452 48.0346 70.7989 47.8553C70.4848 47.7955 70.1181 47.757 69.6988 47.74C69.2795 47.7229 68.9137 47.7143 68.6015 47.7143H65.2061L67.691 61.807Z" fill="white" style="fill:white;fill-opacity:1;"/>
</g>
<g opacity="0.1" filter="url(#filter1_d_394_2369)">
<rect x="1.04604" y="0.877735" width="148.334" height="154.123" rx="9.10872" transform="matrix(1 0 0.173648 0.984808 32.8906 22.4943)" stroke="white" style="stroke:white;stroke-opacity:1;" stroke-width="1.78255" shape-rendering="crispEdges"/>
<path d="M172.207 100.149L172.478 101.686C173.698 108.604 172.509 120.75 148.676 120.75H146.335C122.45 120.75 116.978 108.604 115.758 101.686L115.487 100.149C114.249 93.1281 115.474 81.1877 139.359 81.1877H141.7C165.533 81.1877 170.969 93.1281 172.207 100.149ZM157.028 101.122L156.91 100.456C156.215 96.5103 152.718 91.437 142.311 91.437C131.643 91.437 130.144 96.5103 130.84 100.456L130.948 101.071C131.644 105.017 135.195 110.398 145.654 110.398C156.061 110.398 157.724 105.068 157.028 101.122Z" fill="white" style="fill:white;fill-opacity:1;"/>
<path d="M116.604 120.032H66.8572L66.071 115.574C65.1584 110.398 64.2376 101.635 83.6168 97.3303C85.9632 96.7666 88.8819 96.2029 90.8481 95.8441C95.5678 94.8705 95.9617 94.153 95.7539 92.9744C95.5189 91.642 94.1663 90.4633 86.8291 90.4633C77.9308 90.4633 78.129 93.948 78.2349 95.4342H63.1443L63.081 95.0754C62.2316 90.2583 62.5576 81.1877 83.6325 81.1877H85.8701C105.384 81.1877 110.167 86.7736 111.27 93.0256L111.306 93.2306C112.426 99.5851 109.256 102.557 95.6987 104.761L87.6168 106.145C78.9805 107.631 77.8307 109.373 78.0205 110.449H101.229L100.434 105.94H114.119L116.604 120.032Z" fill="white" style="fill:white;fill-opacity:1;"/>
<path d="M157.636 155.256L155.102 140.882H146.516L145.404 134.578H173.153L174.264 140.882H165.678L168.213 155.256H157.636Z" fill="white" style="fill:white;fill-opacity:1;"/>
<path d="M128.405 139.075C124.385 139.075 123.087 140.343 122.905 142.188H135.003C134.228 140.228 132.425 139.075 128.405 139.075ZM146.517 147.723L146.53 147.799C147.038 150.682 146.151 155.832 132.453 155.832H130.384C117.466 155.832 113.75 150.029 112.896 145.186L112.76 144.417C111.92 139.651 113.422 134.001 126.418 134.001H128.564C142.263 134.001 145.287 140.305 146.161 145.263L146.364 146.416H123.533C124.225 148.568 126.312 150.221 130.566 150.221H130.605C135.639 150.221 136.061 148.184 136.057 147.723H146.517Z" fill="white" style="fill:white;fill-opacity:1;"/>
<path d="M101.644 155.256L99.1089 140.882H91.8498C92.79 146.877 93.0557 149.491 92.4324 151.489C91.7343 153.949 89.6621 155.256 85.4081 155.256H81.4273L80.2684 148.684H80.7368C81.9466 148.684 82.6391 148.184 82.7531 146.839C82.8994 145.455 82.8812 143.803 81.2547 134.578H108.574L112.22 155.256H101.644Z" fill="white" style="fill:white;fill-opacity:1;"/>
<path d="M169.794 67.8504C168.476 67.8504 167.309 67.5301 166.294 66.8895C165.278 66.2404 164.438 65.365 163.775 64.2632C163.12 63.1528 162.671 61.9101 162.429 60.535C162.183 59.1428 162.193 57.8958 162.458 56.794C162.732 55.6922 163.265 54.8253 164.055 54.1933C164.855 53.5613 165.913 53.2452 167.231 53.2452C168.532 53.2452 169.708 53.5655 170.757 54.2061C171.814 54.8381 172.691 55.7051 173.388 56.8068C174.086 57.9086 174.556 59.1514 174.8 60.535C175.044 61.9187 175.012 63.1614 174.703 64.2632C174.394 65.365 173.825 66.2404 172.994 66.8895C172.17 67.5301 171.103 67.8504 169.794 67.8504ZM164.345 73.6156L160.821 53.6296H162.889L164.685 63.8148H164.945L166.673 73.6156H164.345ZM169.139 65.7621C170.067 65.7621 170.794 65.5315 171.32 65.0703C171.846 64.6091 172.191 63.9856 172.356 63.1998C172.52 62.4055 172.515 61.5172 172.342 60.535C172.17 59.5613 171.863 58.6816 171.421 57.8958C170.987 57.1101 170.418 56.4866 169.712 56.0253C169.015 55.5641 168.189 55.3335 167.235 55.3335C166.325 55.3335 165.609 55.5556 165.089 55.9997C164.568 56.4353 164.229 57.046 164.072 57.8318C163.915 58.609 163.926 59.5101 164.107 60.535C164.284 61.5428 164.586 62.4439 165.013 63.2382C165.446 64.024 166.006 64.6432 166.693 65.0959C167.379 65.54 168.194 65.7621 169.139 65.7621Z" fill="white" style="fill:white;fill-opacity:1;"/>
<path d="M152.943 67.8251C152.041 67.8251 151.24 67.6841 150.539 67.4023C149.848 67.1204 149.248 66.7446 148.741 66.2749C148.233 65.8051 147.807 65.2841 147.463 64.7119C147.119 64.1396 146.843 63.5546 146.633 62.9567C146.433 62.3588 146.286 61.7994 146.194 61.2784L144.846 53.6299H147.187L148.409 60.5609C148.524 61.21 148.695 61.8378 148.924 62.4442C149.152 63.0506 149.452 63.5973 149.824 64.0841C150.205 64.5709 150.663 64.9553 151.198 65.2371C151.742 65.519 152.383 65.6599 153.12 65.6599C153.701 65.6599 154.213 65.5617 154.655 65.3653C155.098 65.1688 155.454 64.8784 155.725 64.4941C155.994 64.1012 156.166 63.6058 156.243 63.0079C156.32 62.4101 156.288 61.714 156.148 60.9196L157.752 61.3809C157.986 62.7133 157.942 63.862 157.618 64.8272C157.302 65.7923 156.744 66.5354 155.942 67.0564C155.148 67.5688 154.148 67.8251 152.943 67.8251ZM157.563 67.4663L156.91 63.7638H156.65L154.863 53.6299H157.191L159.631 67.4663H157.563Z" fill="white" style="fill:white;fill-opacity:1;"/>
<path d="M137.971 67.8504C136.575 67.8504 135.314 67.5386 134.189 66.9151C133.073 66.2917 132.145 65.429 131.404 64.3272C130.664 63.2254 130.168 61.9614 129.916 60.535C129.66 59.083 129.713 57.8104 130.076 56.7172C130.438 55.6239 131.073 54.7741 131.981 54.1677C132.887 53.5527 134.025 53.2452 135.396 53.2452C136.801 53.2452 138.065 53.557 139.19 54.1805C140.313 54.7954 141.241 55.6538 141.973 56.7556C142.712 57.8489 143.207 59.1087 143.459 60.535C143.713 61.9784 143.665 63.251 143.312 64.3528C142.959 65.4461 142.33 66.3045 141.425 66.928C140.519 67.5429 139.367 67.8504 137.971 67.8504ZM137.589 65.6852C139.046 65.6852 140.046 65.2069 140.588 64.2503C141.131 63.2938 141.268 62.0553 141 60.535C140.724 58.972 140.145 57.7293 139.263 56.8068C138.379 55.8759 137.217 55.4104 135.777 55.4104C134.797 55.4104 134.029 55.6282 133.473 56.0638C132.917 56.4994 132.55 57.1015 132.373 57.8702C132.197 58.6389 132.197 59.5272 132.375 60.535C132.649 62.0895 133.233 63.3365 134.127 64.276C135.022 65.2155 136.175 65.6852 137.589 65.6852Z" fill="white" style="fill:white;fill-opacity:1;"/>
<path d="M122.468 67.4661L120.028 53.6296H122.096L122.686 56.9734L122.271 56.5378C122.36 56.1108 122.504 55.7179 122.701 55.3591C122.906 55.0004 123.153 54.7058 123.442 54.4752C123.755 54.1848 124.128 53.9627 124.561 53.809C124.993 53.6552 125.446 53.5655 125.918 53.5399C126.389 53.5057 126.841 53.5356 127.274 53.6296L127.651 55.7691C127.143 55.641 126.604 55.6068 126.033 55.6666C125.463 55.7264 124.962 55.9357 124.531 56.2944C124.135 56.6104 123.852 56.9948 123.68 57.4474C123.517 57.9001 123.435 58.3912 123.433 58.9208C123.429 59.4418 123.476 59.9756 123.572 60.5222L124.796 67.4661H122.468Z" fill="white" style="fill:white;fill-opacity:1;"/>
<path d="M111.546 67.8504C110.262 67.8504 109.052 67.6283 107.916 67.1842C106.779 66.74 105.756 66.1037 104.847 65.2753C103.936 64.4382 103.169 63.4304 102.545 62.2517C101.928 61.0645 101.488 59.7279 101.226 58.2417C100.88 56.2773 100.936 54.5776 101.394 53.1427C101.852 51.7078 102.659 50.6018 103.814 49.8245C104.968 49.0388 106.416 48.6459 108.159 48.6459C110.258 48.6459 112.034 49.1284 113.488 50.0936C114.94 51.0502 116.056 52.3612 116.836 54.0267L114.577 54.5007C113.99 53.3819 113.191 52.4893 112.18 51.8231C111.169 51.1569 109.996 50.8238 108.66 50.8238C107.263 50.8153 106.155 51.1228 105.337 51.7463C104.526 52.3612 103.985 53.2281 103.714 54.347C103.443 55.4659 103.433 56.7641 103.685 58.2417C103.935 59.7108 104.393 61.0005 105.057 62.1108C105.721 63.2211 106.573 64.0923 107.612 64.7244C108.659 65.3478 109.881 65.6639 111.279 65.6724C112.486 65.6809 113.46 65.4546 114.203 64.9934C114.946 64.5322 115.466 63.866 115.763 62.9948C116.06 62.1236 116.149 61.0773 116.029 59.856H112.048L111.716 57.9727H118.143C118.199 58.1435 118.248 58.3485 118.29 58.5876C118.34 58.8182 118.372 58.9762 118.387 59.0617C118.683 60.7442 118.628 62.2517 118.222 63.5841C117.822 64.908 117.065 65.95 115.95 66.7101C114.844 67.4703 113.375 67.8504 111.546 67.8504Z" fill="white" style="fill:white;fill-opacity:1;"/>
<path d="M89.012 67.8504C87.6851 67.8504 86.4491 67.6283 85.304 67.1842C84.1676 66.7401 83.1802 66.108 82.3418 65.2881C81.5106 64.4596 80.8915 63.4817 80.4846 62.3542L82.8128 61.9827C83.3211 63.1443 84.1103 64.0539 85.1803 64.7116C86.2574 65.3607 87.4464 65.6852 88.7473 65.6852C89.5886 65.6852 90.3249 65.5571 90.9562 65.3009C91.5946 65.0361 92.0704 64.6603 92.3835 64.1735C92.6966 63.6866 92.7945 63.1101 92.677 62.4439C92.6047 62.0339 92.4692 61.6838 92.2706 61.3934C92.0791 61.0944 91.8395 60.8425 91.5519 60.6375C91.2714 60.424 90.9622 60.2446 90.6244 60.0994C90.2866 59.9542 89.9403 59.8346 89.5855 59.7407L84.5649 58.3442C84.0174 58.1905 83.4805 57.9983 82.9542 57.7677C82.4263 57.5286 81.9407 57.2339 81.4974 56.8837C81.0525 56.525 80.6737 56.0979 80.3608 55.6026C80.0465 55.0986 79.8291 54.505 79.7086 53.8218C79.5158 52.7285 79.6379 51.7975 80.0747 51.0288C80.5188 50.2516 81.199 49.658 82.1154 49.248C83.0318 48.8381 84.1109 48.6374 85.3526 48.6459C86.6116 48.6544 87.7739 48.8765 88.8394 49.3121C89.9121 49.7391 90.8444 50.3541 91.6365 51.157C92.4372 51.9598 93.0489 52.9207 93.4717 54.0395L91.0875 54.4623C90.8249 53.7107 90.4206 53.0659 89.8748 52.5278C89.3361 51.9812 88.7072 51.5627 87.9882 51.2723C87.2677 50.9733 86.5077 50.8196 85.7083 50.811C84.9436 50.8025 84.2752 50.9221 83.7031 51.1698C83.131 51.4175 82.702 51.7634 82.4161 52.2075C82.1286 52.6431 82.0353 53.147 82.1362 53.7193C82.2356 54.283 82.481 54.7399 82.8723 55.0901C83.2621 55.4317 83.7136 55.705 84.2267 55.91C84.747 56.1065 85.2483 56.2688 85.7306 56.3969L89.4736 57.409C89.9008 57.52 90.3962 57.6738 90.9599 57.8702C91.5322 58.0666 92.1015 58.3442 92.6678 58.7029C93.2326 59.0531 93.7317 59.5229 94.1652 60.1122C94.5972 60.693 94.8915 61.4275 95.0481 62.3158C95.2047 63.2041 95.1619 63.9941 94.9196 64.6859C94.686 65.3778 94.2897 65.9585 93.7308 66.4283C93.1703 66.8895 92.4862 67.2397 91.6784 67.4789C90.8722 67.7265 89.9834 67.8504 89.012 67.8504Z" fill="white" style="fill:white;fill-opacity:1;"/>
<path d="M76.0772 67.4661L72.8242 49.0175H75.1399L78.3928 67.4661H76.0772Z" fill="white" style="fill:white;fill-opacity:1;"/>
<path d="M58.1075 67.4661L54.8545 49.0175H60.6306C60.8214 49.0175 61.156 49.0217 61.6345 49.0303C62.113 49.0388 62.5744 49.073 63.0186 49.1328C64.5001 49.3207 65.8018 49.8417 66.9237 50.6958C68.0528 51.5413 68.9798 52.6175 69.7046 53.9243C70.4293 55.2311 70.9303 56.6702 71.2074 58.2418C71.4845 59.8133 71.4911 61.2525 71.2271 62.5593C70.9632 63.866 70.4165 64.9465 69.5871 65.8006C68.7649 66.6461 67.6461 67.1629 66.2309 67.3508C65.8063 67.402 65.3527 67.4362 64.87 67.4533C64.3945 67.4618 64.0657 67.4661 63.8836 67.4661H58.1075ZM60.1041 65.2881H63.4995C63.8291 65.2881 64.1962 65.2796 64.6008 65.2625C65.0039 65.2369 65.3527 65.1984 65.6472 65.1472C66.6375 64.9593 67.3912 64.5365 67.9083 63.8788C68.4255 63.2212 68.7449 62.4012 68.8666 61.419C68.9882 60.4368 68.9489 59.3777 68.7486 58.2418C68.5438 57.0802 68.203 56.0083 67.7263 55.0261C67.2582 54.0438 66.6504 53.2282 65.9029 52.5791C65.1553 51.9299 64.2583 51.5157 63.212 51.3363C62.8979 51.2766 62.5312 51.2381 62.1119 51.221C61.6926 51.204 61.3268 51.1954 61.0146 51.1954H57.6192L60.1041 65.2881Z" fill="white" style="fill:white;fill-opacity:1;"/>
</g>
<g opacity="0.1" filter="url(#filter2_d_394_2369)">
<rect x="1.04604" y="0.877735" width="148.334" height="154.123" rx="9.10872" transform="matrix(1 0 0.173648 0.984808 25.3036 29.0816)" stroke="white" style="stroke:white;stroke-opacity:1;" stroke-width="1.78255" shape-rendering="crispEdges"/>
<path d="M164.619 106.736L164.89 108.273C166.11 115.191 164.921 127.337 141.088 127.337H138.747C114.862 127.337 109.39 115.191 108.17 108.273L107.899 106.736C106.661 99.715 107.886 87.7747 131.771 87.7747H134.113C157.945 87.7747 163.381 99.715 164.619 106.736ZM149.44 107.709L149.322 107.043C148.627 103.097 145.13 98.0239 134.723 98.0239C124.055 98.0239 122.556 103.097 123.252 107.043L123.36 107.658C124.056 111.604 127.607 116.985 138.066 116.985C148.474 116.985 150.136 111.655 149.44 107.709Z" fill="white" style="fill:white;fill-opacity:1;"/>
<path d="M109.016 126.619H59.2693L58.4831 122.161C57.5705 116.985 56.6498 108.222 76.0289 103.917C78.3753 103.353 81.294 102.79 83.2602 102.431C87.9799 101.457 88.3738 100.74 88.166 99.5613C87.931 98.2289 86.5784 97.0502 79.2412 97.0502C70.3429 97.0502 70.5411 100.535 70.647 102.021H55.5564L55.4931 101.662C54.6437 96.8452 54.9697 87.7747 76.0446 87.7747H78.2822C97.7959 87.7747 102.58 93.3605 103.682 99.6125L103.718 99.8175C104.839 106.172 101.668 109.144 88.1108 111.348L80.0289 112.732C71.3926 114.218 70.2428 115.96 70.4326 117.036H93.641L92.8458 112.527H106.531L109.016 126.619Z" fill="white" style="fill:white;fill-opacity:1;"/>
<path d="M150.049 161.843L147.514 147.469H138.928L137.816 141.165H165.565L166.676 147.469H158.09L160.625 161.843H150.049Z" fill="white" style="fill:white;fill-opacity:1;"/>
<path d="M120.817 145.662C116.797 145.662 115.499 146.93 115.317 148.775H127.415C126.64 146.815 124.837 145.662 120.817 145.662ZM138.929 154.31L138.942 154.387C139.451 157.269 138.563 162.419 124.865 162.419H122.796C109.878 162.419 106.162 156.616 105.308 151.773L105.173 151.004C104.332 146.239 105.834 140.589 118.83 140.589H120.976C134.675 140.589 137.699 146.892 138.573 151.85L138.776 153.003H115.945C116.637 155.155 118.724 156.808 122.978 156.808H123.017C128.051 156.808 128.473 154.771 128.469 154.31H138.929Z" fill="white" style="fill:white;fill-opacity:1;"/>
<path d="M94.0557 161.843L91.5211 147.469H84.2619C85.2021 153.464 85.4678 156.078 84.8445 158.077C84.1464 160.536 82.0742 161.843 77.8202 161.843H73.8394L72.6805 155.271H73.1489C74.3587 155.271 75.0512 154.771 75.1652 153.426C75.3115 152.042 75.2933 150.39 73.6668 141.165H100.986L104.632 161.843H94.0557Z" fill="white" style="fill:white;fill-opacity:1;"/>
<path d="M162.206 74.4379C160.888 74.4379 159.721 74.1176 158.706 73.4771C157.69 72.8279 156.85 71.9525 156.188 70.8507C155.532 69.7404 155.083 68.4976 154.841 67.1225C154.595 65.7303 154.605 64.4834 154.871 63.3816C155.145 62.2798 155.677 61.4129 156.467 60.7808C157.267 60.1488 158.325 59.8328 159.644 59.8328C160.945 59.8328 162.12 60.1531 163.169 60.7936C164.226 61.4257 165.103 62.2926 165.801 63.3944C166.498 64.4962 166.968 65.7389 167.212 67.1225C167.456 68.5062 167.424 69.7489 167.115 70.8507C166.807 71.9525 166.237 72.8279 165.406 73.4771C164.582 74.1176 163.515 74.4379 162.206 74.4379ZM156.757 80.2031L153.233 60.2171H155.301L157.097 70.4023H157.357L159.086 80.2031H156.757ZM161.551 72.3496C162.479 72.3496 163.206 72.119 163.732 71.6578C164.258 71.1966 164.603 70.5731 164.768 69.7873C164.932 68.993 164.927 68.1047 164.754 67.1225C164.582 66.1489 164.275 65.2691 163.833 64.4834C163.4 63.6976 162.83 63.0741 162.124 62.6129C161.427 62.1517 160.602 61.921 159.648 61.921C158.737 61.921 158.022 62.1431 157.501 62.5872C156.98 63.0228 156.641 63.6335 156.485 64.4193C156.327 65.1965 156.338 66.0976 156.519 67.1225C156.697 68.1304 156.999 69.0314 157.425 69.8258C157.858 70.6115 158.418 71.2308 159.105 71.6834C159.791 72.1276 160.606 72.3496 161.551 72.3496Z" fill="white" style="fill:white;fill-opacity:1;"/>
<path d="M145.355 74.4121C144.453 74.4121 143.652 74.2712 142.952 73.9893C142.26 73.7075 141.66 73.3317 141.153 72.8619C140.645 72.3922 140.219 71.8711 139.875 71.2989C139.532 70.7267 139.255 70.1416 139.045 69.5437C138.845 68.9458 138.698 68.3864 138.606 67.8654L137.258 60.2169H139.599L140.822 67.148C140.936 67.7971 141.107 68.4248 141.336 69.0313C141.564 69.6377 141.864 70.1843 142.236 70.6711C142.617 71.158 143.075 71.5423 143.611 71.8242C144.155 72.106 144.795 72.247 145.532 72.247C146.113 72.247 146.625 72.1487 147.068 71.9523C147.51 71.7558 147.866 71.4654 148.137 71.0811C148.406 70.6882 148.579 70.1928 148.655 69.595C148.732 68.9971 148.7 68.301 148.56 67.5067L150.164 67.9679C150.399 69.3003 150.354 70.4491 150.03 71.4142C149.714 72.3793 149.156 73.1224 148.354 73.6434C147.56 74.1559 146.56 74.4121 145.355 74.4121ZM149.975 74.0534L149.322 70.3508H149.062L147.275 60.2169H149.604L152.043 74.0534H149.975Z" fill="white" style="fill:white;fill-opacity:1;"/>
<path d="M130.384 74.4379C128.988 74.4379 127.727 74.1262 126.603 73.5027C125.487 72.8792 124.558 72.0165 123.818 70.9147C123.077 69.813 122.581 68.5489 122.329 67.1225C122.073 65.6706 122.126 64.3979 122.489 63.3047C122.851 62.2114 123.486 61.3616 124.394 60.7552C125.3 60.1402 126.438 59.8328 127.809 59.8328C129.214 59.8328 130.479 60.1445 131.603 60.768C132.726 61.383 133.654 62.2413 134.386 63.3431C135.125 64.4364 135.62 65.6962 135.872 67.1225C136.126 68.566 136.078 69.8386 135.725 70.9404C135.372 72.0336 134.743 72.892 133.838 73.5155C132.932 74.1304 131.78 74.4379 130.384 74.4379ZM130.002 72.2728C131.459 72.2728 132.459 71.7945 133.002 70.8379C133.544 69.8813 133.681 68.6428 133.413 67.1225C133.138 65.5595 132.559 64.3168 131.676 63.3944C130.792 62.4634 129.63 61.9979 128.19 61.9979C127.21 61.9979 126.442 62.2157 125.886 62.6513C125.33 63.0869 124.963 63.689 124.787 64.4577C124.61 65.2264 124.61 66.1147 124.788 67.1225C125.062 68.677 125.646 69.924 126.54 70.8635C127.435 71.803 128.589 72.2728 130.002 72.2728Z" fill="white" style="fill:white;fill-opacity:1;"/>
<path d="M114.88 74.0533L112.44 60.2169H114.509L115.098 63.5607L114.683 63.1251C114.773 62.698 114.916 62.3052 115.113 61.9464C115.318 61.5877 115.566 61.293 115.854 61.0624C116.168 60.772 116.54 60.55 116.973 60.3962C117.405 60.2425 117.858 60.1528 118.33 60.1272C118.801 60.093 119.253 60.1229 119.686 60.2169L120.063 62.3564C119.555 62.2283 119.016 62.1941 118.445 62.2539C117.875 62.3137 117.374 62.5229 116.943 62.8817C116.548 63.1977 116.264 63.582 116.092 64.0347C115.929 64.4874 115.847 64.9785 115.845 65.508C115.841 66.029 115.888 66.5629 115.984 67.1095L117.208 74.0533H114.88Z" fill="white" style="fill:white;fill-opacity:1;"/>
<path d="M103.959 74.4378C102.675 74.4378 101.465 74.2157 100.329 73.7716C99.1923 73.3274 98.1694 72.6911 97.2602 71.8627C96.3494 71.0256 95.5819 70.0178 94.9578 68.8391C94.3408 67.6519 93.9013 66.3153 93.6393 64.8291C93.2929 62.8647 93.3488 61.165 93.8069 59.7301C94.2651 58.2952 95.0718 57.1892 96.227 56.4119C97.3807 55.6262 98.8291 55.2333 100.572 55.2333C102.671 55.2333 104.447 55.7158 105.901 56.681C107.353 57.6376 108.469 58.9486 109.249 60.6141L106.991 61.0881C106.403 59.9693 105.604 59.0767 104.593 58.4105C103.582 57.7443 102.409 57.4112 101.073 57.4112C99.6756 57.4027 98.5677 57.7102 97.7497 58.3337C96.9388 58.9486 96.3978 59.8155 96.1268 60.9344C95.8557 62.0533 95.8461 63.3515 96.098 64.8291C96.3484 66.2982 96.8056 67.5879 97.4697 68.6982C98.1338 69.8085 98.9856 70.6797 100.025 71.3118C101.072 71.9353 102.294 72.2513 103.692 72.2598C104.899 72.2684 105.873 72.042 106.616 71.5808C107.359 71.1196 107.879 70.4534 108.176 69.5822C108.473 68.711 108.562 67.6647 108.442 66.4434H104.461L104.129 64.5601H110.556C110.612 64.7309 110.661 64.9359 110.703 65.175C110.753 65.4056 110.785 65.5636 110.8 65.6491C111.097 67.3316 111.041 68.8391 110.635 70.1715C110.235 71.4954 109.478 72.5374 108.363 73.2975C107.257 74.0577 105.789 74.4378 103.959 74.4378Z" fill="white" style="fill:white;fill-opacity:1;"/>
<path d="M81.4241 74.4377C80.0972 74.4377 78.8612 74.2156 77.7161 73.7715C76.5797 73.3273 75.5924 72.6953 74.754 71.8754C73.9227 71.0469 73.3036 70.0689 72.8967 68.9415L75.2249 68.57C75.7332 69.7316 76.5224 70.6412 77.5924 71.2988C78.6695 71.948 79.8585 72.2725 81.1595 72.2725C82.0007 72.2725 82.737 72.1444 83.3683 71.8882C84.0067 71.6234 84.4825 71.2476 84.7956 70.7608C85.1087 70.2739 85.2066 69.6974 85.0891 69.0312C85.0168 68.6212 84.8813 68.271 84.6827 67.9807C84.4912 67.6817 84.2517 67.4298 83.964 67.2248C83.6835 67.0112 83.3744 66.8319 83.0365 66.6867C82.6987 66.5415 82.3524 66.4219 81.9976 66.328L76.977 64.9315C76.4295 64.7778 75.8926 64.5856 75.3663 64.355C74.8384 64.1158 74.3528 63.8212 73.9095 63.471C73.4646 63.1123 73.0858 62.6852 72.7729 62.1898C72.4586 61.6859 72.2412 61.0923 72.1207 60.409C71.9279 59.3158 72.05 58.3848 72.4868 57.6161C72.9309 56.8389 73.6111 56.2453 74.5275 55.8353C75.4439 55.4253 76.523 55.2246 77.7647 55.2332C79.0237 55.2417 80.186 55.4638 81.2515 55.8994C82.3242 56.3264 83.2565 56.9414 84.0486 57.7442C84.8493 58.5471 85.461 59.508 85.8838 60.6268L83.4996 61.0496C83.237 60.298 82.8327 59.6532 82.2869 59.1151C81.7482 58.5684 81.1193 58.1499 80.4003 57.8595C79.6798 57.5606 78.9198 57.4069 78.1204 57.3983C77.3557 57.3898 76.6873 57.5094 76.1152 57.757C75.5431 58.0047 75.1141 58.3506 74.8282 58.7948C74.5407 59.2304 74.4474 59.7343 74.5484 60.3065C74.6477 60.8702 74.8931 61.3272 75.2844 61.6774C75.6742 62.019 76.1257 62.2923 76.6388 62.4973C77.1592 62.6938 77.6604 62.856 78.1427 62.9842L81.8857 63.9963C82.3129 64.1073 82.8083 64.261 83.372 64.4575C83.9443 64.6539 84.5136 64.9315 85.0799 65.2902C85.6447 65.6404 86.1438 66.1102 86.5773 66.6995C87.0093 67.2803 87.3036 68.0148 87.4602 68.9031C87.6168 69.7914 87.574 70.5814 87.3317 71.2732C87.0981 71.965 86.7018 72.5458 86.1429 73.0156C85.5824 73.4768 84.8983 73.827 84.0906 74.0661C83.2843 74.3138 82.3955 74.4377 81.4241 74.4377Z" fill="white" style="fill:white;fill-opacity:1;"/>
<path d="M68.4893 74.0536L65.2363 55.605H67.552L70.8049 74.0536H68.4893Z" fill="white" style="fill:white;fill-opacity:1;"/>
<path d="M50.5196 74.0536L47.2666 55.605H53.0427C53.2335 55.605 53.5681 55.6093 54.0466 55.6178C54.5252 55.6263 54.9865 55.6605 55.4307 55.7203C56.9122 55.9082 58.2139 56.4292 59.3358 57.2833C60.465 58.1289 61.3919 59.205 62.1167 60.5118C62.8414 61.8186 63.3424 63.2577 63.6195 64.8293C63.8966 66.4008 63.9032 67.84 63.6392 69.1468C63.3753 70.4536 62.8286 71.534 61.9992 72.3881C61.177 73.2337 60.0582 73.7504 58.643 73.9383C58.2184 73.9895 57.7648 74.0237 57.2821 74.0408C56.8066 74.0493 56.4778 74.0536 56.2957 74.0536H50.5196ZM52.5162 71.8756H55.9116C56.2412 71.8756 56.6083 71.8671 57.0129 71.85C57.416 71.8244 57.7648 71.786 58.0593 71.7347C59.0496 71.5468 59.8033 71.124 60.3204 70.4664C60.8376 69.8087 61.157 68.9888 61.2787 68.0066C61.4004 67.0243 61.361 65.9652 61.1607 64.8293C60.9559 63.6677 60.6152 62.5958 60.1384 61.6136C59.6703 60.6314 59.0625 59.8157 58.315 59.1666C57.5674 58.5175 56.6704 58.1032 55.6241 57.9239C55.31 57.8641 54.9433 57.8256 54.524 57.8086C54.1047 57.7915 53.7389 57.7829 53.4267 57.7829H50.0313L52.5162 71.8756Z" fill="white" style="fill:white;fill-opacity:1;"/>
</g>
<g opacity="0.1" filter="url(#filter3_d_394_2369)">
<rect x="1.04604" y="0.877735" width="148.334" height="154.123" rx="9.10872" transform="matrix(1 0 0.173648 0.984808 19.0741 35.4767)" stroke="white" style="stroke:white;stroke-opacity:1;" stroke-width="1.78255" shape-rendering="crispEdges"/>
<path d="M158.391 113.131L158.663 114.668C159.882 121.586 158.694 133.732 134.861 133.732H132.519C108.634 133.732 103.162 121.586 101.943 114.668L101.671 113.131C100.434 106.11 101.658 94.1698 125.543 94.1698H127.885C151.718 94.1698 157.154 106.11 158.391 113.131ZM143.212 114.105L143.095 113.438C142.399 109.492 138.903 104.419 128.495 104.419C117.828 104.419 116.329 109.492 117.024 113.438L117.133 114.053C117.829 117.999 121.379 123.38 131.839 123.38C142.246 123.38 143.908 118.051 143.212 114.105Z" fill="white" style="fill:white;fill-opacity:1;"/>
<path d="M102.789 133.014H53.0417L52.2556 128.556C51.3429 123.38 50.4222 114.617 69.8014 110.312C72.1477 109.749 75.0665 109.185 77.0326 108.826C81.7524 107.853 82.1463 107.135 81.9384 105.956C81.7035 104.624 80.3509 103.445 73.0137 103.445C64.1154 103.445 64.3136 106.93 64.4195 108.416H49.3289L49.2656 108.058C48.4162 103.24 48.7422 94.1698 69.817 94.1698H72.0546C91.5684 94.1698 96.352 99.7556 97.4544 106.008L97.4906 106.213C98.611 112.567 95.4405 115.539 81.8832 117.743L73.8013 119.127C65.1651 120.613 64.0153 122.355 64.2051 123.431H87.4134L86.6182 118.922H100.304L102.789 133.014Z" fill="white" style="fill:white;fill-opacity:1;"/>
<path d="M143.821 168.238L141.286 153.864H132.7L131.589 147.561H159.337L160.449 153.864H151.863L154.397 168.238H143.821Z" fill="white" style="fill:white;fill-opacity:1;"/>
<path d="M114.59 152.058C110.57 152.058 109.271 153.326 109.089 155.171H121.188C120.413 153.211 118.61 152.058 114.59 152.058ZM132.701 160.706L132.715 160.782C133.223 163.665 132.336 168.815 118.637 168.815H116.569C103.651 168.815 99.9344 163.012 99.0805 158.169L98.945 157.4C98.1046 152.634 99.6062 146.984 112.602 146.984H114.749C128.448 146.984 131.471 153.288 132.346 158.246L132.549 159.399H109.718C110.409 161.551 112.496 163.204 116.75 163.204H116.789C121.824 163.204 122.245 161.167 122.242 160.706H132.701Z" fill="white" style="fill:white;fill-opacity:1;"/>
<path d="M87.8281 168.238L85.2935 153.864H78.0344C78.9745 159.86 79.2402 162.473 78.617 164.472C77.9189 166.932 75.8467 168.238 71.5927 168.238H67.6119L66.453 161.666H66.9213C68.1312 161.666 68.8236 161.167 68.9377 159.821C69.084 158.438 69.0658 156.785 67.4393 147.561H94.7585L98.4046 168.238H87.8281Z" fill="white" style="fill:white;fill-opacity:1;"/>
<path d="M155.979 80.8331C154.661 80.8331 153.494 80.5128 152.48 79.8722C151.463 79.2231 150.624 78.3476 149.961 77.2458C149.306 76.1355 148.857 74.8928 148.614 73.5177C148.369 72.1255 148.379 70.8785 148.644 69.7767C148.918 68.6749 149.45 67.808 150.241 67.176C151.04 66.5439 152.099 66.2279 153.417 66.2279C154.718 66.2279 155.893 66.5482 156.943 67.1888C158 67.8208 158.877 68.6877 159.574 69.7895C160.271 70.8913 160.742 72.134 160.986 73.5177C161.23 74.9013 161.197 76.144 160.889 77.2458C160.58 78.3476 160.01 79.2231 159.179 79.8722C158.356 80.5128 157.289 80.8331 155.979 80.8331ZM150.53 86.5982L147.006 66.6123H149.075L150.871 76.7974H151.131L152.859 86.5982H150.53ZM155.325 78.7448C156.253 78.7448 156.98 78.5142 157.506 78.053C158.031 77.5917 158.377 76.9682 158.542 76.1825C158.705 75.3882 158.7 74.4999 158.527 73.5177C158.355 72.544 158.049 71.6643 157.606 70.8785C157.173 70.0927 156.603 69.4692 155.898 69.008C155.201 68.5468 154.375 68.3162 153.421 68.3162C152.51 68.3162 151.795 68.5383 151.275 68.9824C150.753 69.418 150.414 70.0287 150.258 70.8144C150.1 71.5917 150.112 72.4927 150.292 73.5177C150.47 74.5255 150.772 75.4266 151.198 76.2209C151.632 77.0067 152.192 77.6259 152.879 78.0786C153.564 78.5227 154.38 78.7448 155.325 78.7448Z" fill="white" style="fill:white;fill-opacity:1;"/>
<path d="M139.128 80.8075C138.226 80.8075 137.425 80.6666 136.725 80.3847C136.034 80.1029 135.434 79.727 134.926 79.2573C134.418 78.7875 133.993 78.2665 133.649 77.6943C133.305 77.122 133.028 76.537 132.819 75.9391C132.618 75.3412 132.472 74.7818 132.38 74.2608L131.031 66.6123H133.373L134.595 73.5433C134.709 74.1925 134.881 74.8202 135.109 75.4266C135.338 76.0331 135.638 76.5797 136.01 77.0665C136.391 77.5534 136.849 77.9377 137.384 78.2196C137.928 78.5014 138.569 78.6423 139.306 78.6423C139.887 78.6423 140.399 78.5441 140.841 78.3477C141.283 78.1512 141.64 77.8608 141.91 77.4765C142.179 77.0836 142.352 76.5882 142.429 75.9904C142.505 75.3925 142.474 74.6964 142.334 73.9021L143.937 74.3633C144.172 75.6957 144.127 76.8445 143.803 77.8096C143.488 78.7747 142.929 79.5178 142.128 80.0388C141.334 80.5513 140.334 80.8075 139.128 80.8075ZM143.748 80.4488L143.095 76.7462H142.835L141.048 66.6123H143.377L145.817 80.4488H143.748Z" fill="white" style="fill:white;fill-opacity:1;"/>
<path d="M124.157 80.8331C122.761 80.8331 121.501 80.5213 120.376 79.8978C119.26 79.2743 118.332 78.4117 117.591 77.3099C116.85 76.2081 116.354 74.944 116.103 73.5177C115.847 72.0657 115.9 70.7931 116.262 69.6998C116.624 68.6066 117.259 67.7567 118.167 67.1503C119.074 66.5354 120.212 66.2279 121.582 66.2279C122.987 66.2279 124.252 66.5397 125.377 67.1631C126.5 67.7781 127.427 68.6365 128.159 69.7383C128.898 70.8315 129.394 72.0913 129.645 73.5177C129.9 74.9611 129.851 76.2337 129.499 77.3355C129.145 78.4288 128.516 79.2871 127.611 79.9106C126.705 80.5256 125.554 80.8331 124.157 80.8331ZM123.776 78.6679C125.233 78.6679 126.232 78.1896 126.775 77.233C127.317 76.2764 127.455 75.038 127.187 73.5177C126.911 71.9547 126.332 70.7119 125.449 69.7895C124.565 68.8585 123.404 68.3931 121.964 68.3931C120.984 68.3931 120.216 68.6109 119.659 69.0464C119.103 69.482 118.737 70.0842 118.56 70.8529C118.383 71.6216 118.384 72.5098 118.561 73.5177C118.836 75.0721 119.42 76.3191 120.314 77.2586C121.208 78.1982 122.362 78.6679 123.776 78.6679Z" fill="white" style="fill:white;fill-opacity:1;"/>
<path d="M108.653 80.4487L106.214 66.6123H108.282L108.872 69.9561L108.457 69.5205C108.546 69.0934 108.689 68.7005 108.886 68.3418C109.092 67.9831 109.339 67.6884 109.628 67.4578C109.941 67.1674 110.314 66.9454 110.746 66.7916C111.179 66.6379 111.631 66.5482 112.104 66.5226C112.575 66.4884 113.027 66.5183 113.46 66.6123L113.837 68.7518C113.329 68.6237 112.789 68.5895 112.219 68.6493C111.648 68.7091 111.147 68.9183 110.716 69.2771C110.321 69.5931 110.038 69.9774 109.866 70.4301C109.703 70.8828 109.62 71.3739 109.618 71.9034C109.615 72.4244 109.661 72.9582 109.758 73.5049L110.982 80.4487H108.653Z" fill="white" style="fill:white;fill-opacity:1;"/>
<path d="M97.7311 80.8329C96.4475 80.8329 95.2375 80.6108 94.1011 80.1667C92.9647 79.7226 91.9419 79.0863 91.0326 78.2578C90.1218 77.4208 89.3544 76.4129 88.7302 75.2343C88.1133 74.0471 87.6738 72.7104 87.4117 71.2243C87.0653 69.2598 87.1212 67.5602 87.5794 66.1253C88.0376 64.6904 88.8442 63.5843 89.9994 62.8071C91.1531 62.0213 92.6016 61.6284 94.3448 61.6284C96.4436 61.6284 98.2199 62.111 99.6737 63.0761C101.126 64.0327 102.242 65.3438 103.021 67.0093L100.763 67.4833C100.175 66.3644 99.3763 65.4719 98.3655 64.8057C97.3547 64.1395 96.1815 63.8064 94.8459 63.8064C93.4481 63.7978 92.3402 64.1053 91.5221 64.7288C90.7112 65.3438 90.1703 66.2107 89.8992 67.3296C89.6282 68.4484 89.6186 69.7467 89.8705 71.2243C90.1208 72.6933 90.5781 73.983 91.2422 75.0933C91.9063 76.2037 92.7581 77.0749 93.7975 77.7069C94.8441 78.3304 96.0663 78.6464 97.4641 78.655C98.6712 78.6635 99.646 78.4372 100.389 77.9759C101.131 77.5147 101.651 76.8485 101.948 75.9773C102.246 75.1062 102.335 74.0599 102.215 72.8385H98.2338L97.9017 70.9552H104.328C104.384 71.126 104.434 71.331 104.476 71.5702C104.525 71.8008 104.557 71.9588 104.572 72.0442C104.869 73.7268 104.814 75.2343 104.407 76.5667C104.007 77.8905 103.25 78.9325 102.135 79.6927C101.029 80.4528 99.561 80.8329 97.7311 80.8329Z" fill="white" style="fill:white;fill-opacity:1;"/>
<path d="M75.1976 80.8331C73.8706 80.8331 72.6346 80.611 71.4896 80.1669C70.3532 79.7227 69.3658 79.0907 68.5274 78.2707C67.6962 77.4423 67.0771 76.4643 66.6701 75.3369L68.9983 74.9654C69.5067 76.1269 70.2958 77.0366 71.3658 77.6942C72.4429 78.3433 73.632 78.6679 74.9329 78.6679C75.7741 78.6679 76.5104 78.5398 77.1417 78.2836C77.7802 78.0188 78.256 77.643 78.5691 77.1561C78.8822 76.6693 78.98 76.0928 78.8625 75.4266C78.7902 75.0166 78.6548 74.6664 78.4561 74.376C78.2647 74.0771 78.0251 73.8251 77.7374 73.6202C77.457 73.4066 77.1478 73.2273 76.81 73.0821C76.4722 72.9369 76.1258 72.8173 75.771 72.7233L70.7504 71.3269C70.203 71.1732 69.666 70.981 69.1397 70.7504C68.6119 70.5112 68.1263 70.2166 67.6829 69.8664C67.2381 69.5077 66.8592 69.0806 66.5464 68.5852C66.232 68.0813 66.0146 67.4877 65.8941 66.8044C65.7014 65.7112 65.8234 64.7802 66.2603 64.0115C66.7043 63.2343 67.3845 62.6407 68.3009 62.2307C69.2173 61.8207 70.2964 61.62 71.5381 61.6286C72.7972 61.6371 73.9595 61.8592 75.025 62.2948C76.0976 62.7218 77.03 63.3368 77.822 64.1396C78.6227 64.9425 79.2344 65.9033 79.6572 67.0222L77.273 67.445C77.0104 66.6934 76.6062 66.0485 76.0603 65.5105C75.5216 64.9638 74.8928 64.5453 74.1737 64.2549C73.4532 63.956 72.6933 63.8022 71.8939 63.7937C71.1292 63.7852 70.4608 63.9047 69.8887 64.1524C69.3166 64.4001 68.8876 64.746 68.6016 65.1902C68.3142 65.6258 68.2209 66.1297 68.3218 66.7019C68.4212 67.2656 68.6665 67.7226 69.0579 68.0728C69.4477 68.4144 69.8991 68.6877 70.4123 68.8927C70.9326 69.0891 71.4339 69.2514 71.9161 69.3795L75.6591 70.3917C76.0863 70.5027 76.5817 70.6564 77.1454 70.8529C77.7178 71.0493 78.2871 71.3269 78.8534 71.6856C79.4181 72.0358 79.9172 72.5056 80.3507 73.0949C80.7827 73.6757 81.077 74.4102 81.2336 75.2985C81.3903 76.1867 81.3474 76.9768 81.1052 77.6686C80.8716 78.3604 80.4753 78.9412 79.9163 79.411C79.3559 79.8722 78.6718 80.2224 77.864 80.4615C77.0577 80.7092 76.1689 80.8331 75.1976 80.8331Z" fill="white" style="fill:white;fill-opacity:1;"/>
<path d="M62.2628 80.4485L59.0098 61.9999H61.3254L64.5784 80.4485H62.2628Z" fill="white" style="fill:white;fill-opacity:1;"/>
<path d="M44.293 80.4485L41.04 61.9999H46.8161C47.0069 61.9999 47.3416 62.0041 47.8201 62.0127C48.2986 62.0212 48.7599 62.0554 49.2041 62.1152C50.6856 62.3031 51.9873 62.8241 53.1093 63.6782C54.2384 64.5238 55.1653 65.5999 55.8901 66.9067C56.6149 68.2135 57.1158 69.6526 57.3929 71.2242C57.67 72.7957 57.6766 74.2349 57.4127 75.5417C57.1488 76.8484 56.6021 77.9289 55.7727 78.783C54.9504 79.6286 53.8317 80.1453 52.4164 80.3332C51.9918 80.3844 51.5382 80.4186 51.0555 80.4357C50.58 80.4442 50.2512 80.4485 50.0691 80.4485H44.293ZM46.2897 78.2705H49.6851C50.0146 78.2705 50.3817 78.262 50.7863 78.2449C51.1894 78.2193 51.5382 78.1809 51.8328 78.1296C52.823 77.9417 53.5767 77.5189 54.0939 76.8613C54.611 76.2036 54.9304 75.3837 55.0521 74.4014C55.1738 73.4192 55.1345 72.3601 54.9342 71.2242C54.7294 70.0626 54.3886 68.9907 53.9119 68.0085C53.4438 67.0263 52.836 66.2106 52.0884 65.5615C51.3408 64.9124 50.4439 64.4981 49.3975 64.3188C49.0834 64.259 48.7167 64.2205 48.2974 64.2035C47.8781 64.1864 47.5124 64.1778 47.2001 64.1778H43.8048L46.2897 78.2705Z" fill="white" style="fill:white;fill-opacity:1;"/>
</g>
<defs>
<filter id="filter0_d_394_2369" x="20.3098" y="0.461468" width="217.831" height="194.179" filterUnits="userSpaceOnUse" color-interpolation-filters="sRGB">
<feFlood flood-opacity="0" result="BackgroundImageFix"/>
<feColorMatrix in="SourceAlpha" type="matrix" values="0 0 0 0 0 0 0 0 0 0 0 0 0 0 0 0 0 0 127 0" result="hardAlpha"/>
<feOffset dy="1.78255"/>
<feGaussianBlur stdDeviation="10.1605"/>
<feComposite in2="hardAlpha" operator="out"/>
<feColorMatrix type="matrix" values="0 0 0 0 0.9125 0 0 0 0 0.9125 0 0 0 0 0.9125 0 0 0 0.87 0"/>
<feBlend mode="normal" in2="BackgroundImageFix" result="effect1_dropShadow_394_2369"/>
<feBlend mode="normal" in="SourceGraphic" in2="effect1_dropShadow_394_2369" result="shape"/>
</filter>
<filter id="filter1_d_394_2369" x="12.7219" y="3.94243" width="217.831" height="194.179" filterUnits="userSpaceOnUse" color-interpolation-filters="sRGB">
<feFlood flood-opacity="0" result="BackgroundImageFix"/>
<feColorMatrix in="SourceAlpha" type="matrix" values="0 0 0 0 0 0 0 0 0 0 0 0 0 0 0 0 0 0 127 0" result="hardAlpha"/>
<feOffset dy="1.78255"/>
<feGaussianBlur stdDeviation="10.1605"/>
<feComposite in2="hardAlpha" operator="out"/>
<feColorMatrix type="matrix" values="0 0 0 0 0.9125 0 0 0 0 0.9125 0 0 0 0 0.9125 0 0 0 0.87 0"/>
<feBlend mode="normal" in2="BackgroundImageFix" result="effect1_dropShadow_394_2369"/>
<feBlend mode="normal" in="SourceGraphic" in2="effect1_dropShadow_394_2369" result="shape"/>
</filter>
<filter id="filter2_d_394_2369" x="5.13497" y="10.5297" width="217.831" height="194.179" filterUnits="userSpaceOnUse" color-interpolation-filters="sRGB">
<feFlood flood-opacity="0" result="BackgroundImageFix"/>
<feColorMatrix in="SourceAlpha" type="matrix" values="0 0 0 0 0 0 0 0 0 0 0 0 0 0 0 0 0 0 127 0" result="hardAlpha"/>
<feOffset dy="1.78255"/>
<feGaussianBlur stdDeviation="10.1605"/>
<feComposite in2="hardAlpha" operator="out"/>
<feColorMatrix type="matrix" values="0 0 0 0 0.9125 0 0 0 0 0.9125 0 0 0 0 0.9125 0 0 0 0.87 0"/>
<feBlend mode="normal" in2="BackgroundImageFix" result="effect1_dropShadow_394_2369"/>
<feBlend mode="normal" in="SourceGraphic" in2="effect1_dropShadow_394_2369" result="shape"/>
</filter>
<filter id="filter3_d_394_2369" x="-1.09452" y="16.9248" width="217.831" height="194.179" filterUnits="userSpaceOnUse" color-interpolation-filters="sRGB">
<feFlood flood-opacity="0" result="BackgroundImageFix"/>
<feColorMatrix in="SourceAlpha" type="matrix" values="0 0 0 0 0 0 0 0 0 0 0 0 0 0 0 0 0 0 127 0" result="hardAlpha"/>
<feOffset dy="1.78255"/>
<feGaussianBlur stdDeviation="10.1605"/>
<feComposite in2="hardAlpha" operator="out"/>
<feColorMatrix type="matrix" values="0 0 0 0 0.9125 0 0 0 0 0.9125 0 0 0 0 0.9125 0 0 0 0.87 0"/>
<feBlend mode="normal" in2="BackgroundImageFix" result="effect1_dropShadow_394_2369"/>
<feBlend mode="normal" in="SourceGraphic" in2="effect1_dropShadow_394_2369" result="shape"/>
</filter>
</defs>
</svg>
