<svg width="212" height="212" viewBox="0 0 212 212" fill="none" xmlns="http://www.w3.org/2000/svg">
<g clip-path="url(#clip0_1_2)">
<path d="M211.93 0H0.110001V211.82H211.93V0Z" fill="#BD1E1E"/>
<path d="M25.17 85.93C25.17 83.77 26.92 82.03 29.09 82.03C31.25 82.03 33.01 83.78 33.01 85.93C33.01 88.09 31.26 89.83 29.09 89.83C26.93 89.83 25.17 88.08 25.17 85.93Z" fill="#D7D8D8"/>
<path d="M112.2 148.31C115.8 148.31 118.71 145.39 118.71 141.8C118.71 138.2 115.79 135.29 112.2 135.29C108.6 135.29 105.69 138.21 105.69 141.8C105.69 145.39 108.6 148.31 112.2 148.31Z" fill="white"/>
<path d="M178.83 105.91C178.83 119.62 172.87 129.88 159.39 129.88C145.8 129.88 139.72 120.1 139.72 105.91C139.72 92.55 145.92 81.94 158.92 81.94C172.75 81.94 178.83 92.43 178.83 105.91ZM202.08 106.38C202.08 80.39 184.79 62.5 159.27 62.5C132.68 62.5 116.46 81.22 116.46 106.86C116.46 131.42 134.46 149.31 159.27 149.31C184.2 149.31 202.08 130.83 202.08 106.38ZM77.16 120.34C77.16 126.18 73.58 129.88 65.59 129.88H45.44V112.95H65.59C73.34 112.94 77.16 115.33 77.16 120.34ZM103.03 120.34C103.03 101.62 88.48 99.24 74.17 99.24H45.44V82.06H76.56L76.92 93.39H97.79V64.17H11.22V82.65H24.58V129.27H11.22V147.75H68.46C91.59 147.76 103.03 136.91 103.03 120.34Z" fill="white"/>
</g>
<defs>
<clipPath id="clip0_1_2">
<rect width="211.82" height="211.82" fill="white"/>
</clipPath>
</defs>
</svg>
