<svg width="263" height="59" viewBox="0 0 263 59" fill="none" xmlns="http://www.w3.org/2000/svg">
<g clip-path="url(#clip0_809_1265)">
<mask id="mask0_809_1265" style="mask-type:luminance" maskUnits="userSpaceOnUse" x="0" y="9" width="51" height="51">
<path d="M47.8102 9.50012H16.1602C15.782 9.50974 15.4228 9.66779 15.1602 9.94012L0.700162 24.3801C0.49524 24.5819 0.354496 24.8398 0.295593 25.1213C0.23669 25.4029 0.262253 25.6955 0.369073 25.9626C0.475893 26.2296 0.659212 26.4592 0.896021 26.6224C1.13283 26.7856 1.41258 26.8753 1.70016 26.8801H32.9202V58.0501C32.9277 58.3376 33.0194 58.6166 33.1838 58.8525C33.3483 59.0884 33.5784 59.2709 33.8456 59.3773C34.1128 59.4838 34.4053 59.5095 34.687 59.4514C34.9686 59.3932 35.227 59.2537 35.4302 59.0501L49.5602 44.9501C50.0193 44.4831 50.2777 43.855 50.2802 43.2001V11.9901C50.2855 11.665 50.226 11.3421 50.1053 11.0403C49.9845 10.7384 49.8049 10.4636 49.5769 10.2318C49.3488 10 49.077 9.81599 48.7771 9.69037C48.4772 9.56475 48.1553 9.50008 47.8302 9.50012H47.8102Z" fill="white" style="fill:white;fill-opacity:1;"/>
</mask>
<g mask="url(#mask0_809_1265)">
<mask id="mask1_809_1265" style="mask-type:luminance" maskUnits="userSpaceOnUse" x="-2" y="9" width="53" height="53">
<path d="M48.8602 9.52014H-0.369805C-1.15957 9.52014 -1.7998 10.1604 -1.7998 10.9501V60.1801C-1.7998 60.9699 -1.15957 61.6101 -0.369805 61.6101H48.8602C49.65 61.6101 50.2902 60.9699 50.2902 60.1801V10.9501C50.2902 10.1604 49.65 9.52014 48.8602 9.52014Z" fill="white" style="fill:white;fill-opacity:1;"/>
</mask>
<g mask="url(#mask1_809_1265)">
<path d="M15.5602 26.8901V9.52014L-1.7998 26.8901H15.5602Z" fill="white" style="fill:white;fill-opacity:1;"/>
<path d="M15.5605 26.8901H32.9205L15.5605 9.52014V26.8901Z" fill="white" style="fill:white;fill-opacity:1;"/>
<path d="M15.5605 9.52014L32.9205 26.8901V9.52014H15.5605Z" fill="white" style="fill:white;fill-opacity:1;"/>
<path d="M50.2799 26.8901V9.52014L32.9199 26.8901H50.2799Z" fill="white" style="fill:white;fill-opacity:1;"/>
<path d="M32.9199 26.8901L50.2899 9.52014H32.9199V26.8901Z" fill="white" style="fill:white;fill-opacity:1;"/>
<path d="M32.9199 61.6101L50.2899 44.2501H32.9199V61.6101Z" fill="white" style="fill:white;fill-opacity:1;"/>
<path d="M32.9199 44.2503H50.2899L32.9199 26.8903V44.2503Z" fill="white" style="fill:white;fill-opacity:1;"/>
<path d="M32.9199 26.8903L50.2899 44.2503V26.8903H32.9199Z" fill="white" style="fill:white;fill-opacity:1;"/>
</g>
</g>
<path d="M64.0997 14.4301C64.084 14.1853 64.1587 13.9433 64.3097 13.7501C64.3877 13.6619 64.4854 13.5933 64.5949 13.5498C64.7043 13.5064 64.8225 13.4893 64.9397 13.5001H72.7197C73.9252 13.4797 75.1234 13.6901 76.2497 14.1201C77.2645 14.5107 78.1897 15.1025 78.9697 15.8601C79.7308 16.6083 80.327 17.5076 80.7197 18.5001C81.1393 19.5562 81.3499 20.6837 81.3397 21.8201V24.1901C81.3423 24.8387 81.2271 25.4825 80.9997 26.0901C80.7784 26.6599 80.4825 27.1979 80.1197 27.6901C79.7984 28.1398 79.4067 28.5348 78.9597 28.8601C78.5985 29.129 78.1871 29.3228 77.7497 29.4301C78.1865 29.5643 78.6034 29.756 78.9897 30.0001C79.4984 30.3288 79.9536 30.7335 80.3397 31.2001C80.8085 31.7685 81.1802 32.4105 81.4397 33.1001C81.7507 33.9655 81.8998 34.8807 81.8797 35.8001V38.8001C81.8912 39.907 81.6483 41.0018 81.1697 42.0001C80.701 42.9093 80.0668 43.7232 79.2997 44.4001C78.5154 45.1027 77.6064 45.6522 76.6197 46.0201C75.6127 46.3987 74.5455 46.5918 73.4697 46.5901H64.9397C64.3797 46.5901 64.0997 46.2901 64.0997 45.6801V14.4301ZM70.1997 19.3101V27.0701H72.3297C72.6326 27.0631 72.9341 27.0262 73.2297 26.9601C73.5574 26.8867 73.8691 26.7546 74.1497 26.5701C74.4472 26.3613 74.6934 26.0878 74.8697 25.7701C75.0739 25.379 75.1705 24.9407 75.1497 24.5001V22.1601C75.1847 21.7611 75.1322 21.3593 74.9957 20.9827C74.8593 20.6062 74.6422 20.264 74.3597 19.9801C73.8013 19.5117 73.0879 19.2692 72.3597 19.3001L70.1997 19.3101ZM70.1997 32.2101V40.8601H72.6897C73.0791 40.8607 73.4642 40.7789 73.8197 40.6201C74.14 40.4655 74.4257 40.2478 74.6597 39.9801C74.8909 39.7288 75.0679 39.4326 75.1797 39.1101C75.2928 38.7891 75.3469 38.4503 75.3397 38.1101V35.2201C75.3522 34.7732 75.2775 34.3283 75.1197 33.9101C74.9811 33.5621 74.7736 33.2458 74.5097 32.9801C74.2598 32.7399 73.9638 32.5528 73.6397 32.4301C73.3186 32.3155 72.9807 32.2547 72.6397 32.2501L70.1997 32.2101Z" fill="white" style="fill:white;fill-opacity:1;"/>
<path d="M84.6899 14.4301C84.6742 14.1853 84.7489 13.9433 84.8999 13.7501C84.9748 13.6661 85.0676 13.6 85.1714 13.5567C85.2753 13.5134 85.3876 13.4941 85.4999 13.5001H90.4099C90.5242 13.4893 90.6395 13.5064 90.7457 13.55C90.8519 13.5935 90.946 13.6622 91.0199 13.7501C91.1591 13.9488 91.2294 14.1876 91.2199 14.4301V45.7101C91.2199 46.3201 90.9499 46.6201 90.4099 46.6201H85.4999C84.9399 46.6201 84.6699 46.3201 84.6699 45.7101L84.6899 14.4301Z" fill="white" style="fill:white;fill-opacity:1;"/>
<path d="M94.5005 37.2901C94.4776 36.9911 94.5327 36.6913 94.6605 36.4201C94.7361 36.3225 94.8357 36.2462 94.9497 36.1989C95.0637 36.1515 95.1881 36.1347 95.3105 36.1501H99.8105C100.171 36.1501 100.391 36.2201 100.501 36.3701C100.62 36.6083 100.672 36.8745 100.651 37.1401V38.2101C100.638 38.7247 100.723 39.2369 100.901 39.7201C101.043 40.0988 101.268 40.4406 101.561 40.7201C101.809 40.9577 102.106 41.1386 102.431 41.2501C102.754 41.3501 103.092 41.4007 103.431 41.4001C103.8 41.4005 104.166 41.3327 104.511 41.2001C104.837 41.0689 105.134 40.8714 105.381 40.6201C105.638 40.3667 105.842 40.0641 105.981 39.7301C106.136 39.3563 106.214 38.9549 106.211 38.5501C106.218 38.0261 106.133 37.5049 105.961 37.0101C105.771 36.5372 105.512 36.0956 105.191 35.7001C104.791 35.2153 104.345 34.7699 103.861 34.3701L101.951 32.7801C100.617 31.7601 99.5039 30.8634 98.6105 30.0901C97.7524 29.3986 96.9772 28.61 96.3005 27.7401C95.6985 26.959 95.2444 26.0745 94.9605 25.1301C94.6335 23.9861 94.4785 22.7997 94.5005 21.6101C94.4504 20.3478 94.6954 19.0912 95.2162 17.9402C95.737 16.7892 96.5192 15.7757 97.5005 14.9801C98.3402 14.3107 99.2962 13.8022 100.321 13.4801C101.245 13.1775 102.208 13.0124 103.181 12.9901C104.373 12.9782 105.557 13.192 106.671 13.6201C107.694 14.0101 108.63 14.6018 109.421 15.3601C110.213 16.1412 110.83 17.0821 111.231 18.1201C111.672 19.2682 111.889 20.4902 111.871 21.7201V23.1201C111.903 23.371 111.838 23.6247 111.691 23.8301C111.464 23.98 111.189 24.0405 110.921 24.0001H106.501C106.191 24.0001 105.981 23.9401 105.891 23.8101C105.788 23.5953 105.743 23.3575 105.761 23.1201V21.7501C105.769 21.3534 105.712 20.9579 105.591 20.5801C105.497 20.2189 105.334 19.8793 105.111 19.5801C104.889 19.3079 104.608 19.0892 104.291 18.9401C103.935 18.7722 103.544 18.69 103.151 18.7001C102.837 18.7037 102.527 18.7578 102.231 18.8601C101.919 18.98 101.633 19.1601 101.391 19.3901C101.129 19.6613 100.922 19.9804 100.781 20.3301C100.61 20.7694 100.532 21.2392 100.551 21.7101C100.533 22.225 100.618 22.7382 100.801 23.2201C100.959 23.6834 101.196 24.1163 101.501 24.5001C101.851 24.8728 102.24 25.2079 102.661 25.5001L104.141 26.6501C105.311 27.5201 106.381 28.3601 107.361 29.1501C108.324 29.9249 109.202 30.7998 109.981 31.7601C110.713 32.6926 111.3 33.7312 111.721 34.8401C112.18 36.1224 112.401 37.4782 112.371 38.8401C112.373 39.9343 112.148 41.0172 111.711 42.0201C111.281 43.0201 110.651 43.9218 109.861 44.6701C109.038 45.4539 108.074 46.0748 107.021 46.5001C104.576 47.4105 101.885 47.4105 99.4405 46.5001C98.3894 46.0412 97.451 45.3587 96.6905 44.5001C95.9534 43.7116 95.3881 42.7786 95.0305 41.7601C94.6701 40.7114 94.4909 39.609 94.5005 38.5001V37.2901Z" fill="white" style="fill:white;fill-opacity:1;"/>
<path d="M129.141 14.4001C129.125 14.269 129.139 14.136 129.182 14.0113C129.226 13.8865 129.297 13.7733 129.391 13.6801C129.524 13.5711 129.689 13.508 129.861 13.5001H134.811C135.401 13.5001 135.691 13.8401 135.691 14.5001V38.6001C135.708 39.8279 135.463 41.0452 134.971 42.1701C134.5 43.1944 133.819 44.1077 132.971 44.8501C132.121 45.5915 131.141 46.168 130.081 46.5501C127.778 47.3789 125.254 47.3505 122.971 46.4701C121.809 46.0163 120.778 45.2809 119.971 44.3301L119.801 44.0501C119.739 43.9293 119.692 43.8018 119.661 43.6701C119.641 43.5241 119.641 43.3761 119.661 43.2301C119.663 43.102 119.708 42.9785 119.791 42.8801L122.061 40.1001C122.125 39.9822 122.221 39.8843 122.337 39.8172C122.453 39.7502 122.586 39.7166 122.721 39.7201C122.862 39.731 122.999 39.7703 123.124 39.8356C123.25 39.9009 123.361 39.9909 123.451 40.1001C123.831 40.4774 124.274 40.7854 124.761 41.0101C125.257 41.2481 125.8 41.3712 126.351 41.3701C126.776 41.3815 127.2 41.2996 127.591 41.1301C127.941 40.9977 128.253 40.7814 128.501 40.5001C128.739 40.2052 128.916 39.8651 129.021 39.5001C129.132 39.1029 129.189 38.6926 129.191 38.2801L129.141 14.4001Z" fill="white" style="fill:white;fill-opacity:1;"/>
<path d="M138.981 21.3001C138.961 20.0969 139.21 18.9045 139.711 17.8101C140.186 16.8087 140.867 15.9192 141.711 15.2001C142.557 14.4543 143.538 13.8772 144.601 13.5001C146.874 12.7501 149.328 12.7501 151.601 13.5001C152.665 13.8673 153.649 14.4341 154.501 15.1701C155.382 15.9201 156.085 16.8563 156.561 17.9111C157.037 18.966 157.272 20.1132 157.251 21.2701V38.8401C157.268 39.9955 157.032 41.1407 156.559 42.1948C156.085 43.2488 155.386 44.186 154.511 44.9401C153.649 45.671 152.654 46.228 151.581 46.5801C150.459 46.9586 149.284 47.1512 148.101 47.1501C146.912 47.1503 145.733 46.9508 144.611 46.5601C143.546 46.1867 142.56 45.6206 141.701 44.8901C140.823 44.1471 140.122 43.2174 139.65 42.169C139.178 41.1205 138.946 39.9798 138.971 38.8301L138.981 21.3001ZM145.501 38.5001C145.502 38.87 145.559 39.2375 145.671 39.5901C145.777 39.9206 145.944 40.2289 146.161 40.5001C146.384 40.7639 146.66 40.9784 146.971 41.1301C147.312 41.2988 147.69 41.3813 148.071 41.3701C148.433 41.3951 148.796 41.337 149.132 41.2C149.468 41.0631 149.769 40.8511 150.011 40.5801C150.463 40.0368 150.701 39.3468 150.681 38.6401V21.6401C150.681 21.253 150.62 20.8683 150.501 20.5001C150.39 20.163 150.221 19.8481 150.001 19.5701C149.772 19.3022 149.494 19.0815 149.181 18.9201C148.843 18.7617 148.474 18.6798 148.101 18.6801C147.737 18.6695 147.376 18.7424 147.044 18.8932C146.713 19.044 146.421 19.2688 146.191 19.5501C145.963 19.8287 145.79 20.1476 145.681 20.4901C145.557 20.8438 145.493 21.2155 145.491 21.5901L145.501 38.5001Z" fill="white" style="fill:white;fill-opacity:1;"/>
<path d="M167.06 38.5001C167.052 38.8674 167.109 39.2332 167.23 39.5801C167.352 39.9164 167.527 40.2306 167.75 40.5101C168.11 40.932 168.599 41.2234 169.142 41.3391C169.684 41.4548 170.25 41.3884 170.75 41.1501C171.044 40.9895 171.3 40.7679 171.5 40.5001C171.72 40.2202 171.893 39.906 172.01 39.5701C172.13 39.2225 172.191 38.8576 172.19 38.4901V14.5001C172.183 14.2595 172.257 14.0234 172.4 13.8301C172.47 13.7382 172.561 13.6646 172.666 13.6158C172.77 13.567 172.885 13.5445 173 13.5501H178C178.114 13.5402 178.229 13.562 178.331 13.6132C178.434 13.6644 178.52 13.7429 178.58 13.8401C178.703 14.0379 178.766 14.2673 178.76 14.5001V38.9001C178.773 40.0201 178.519 41.1271 178.02 42.1301C177.531 43.1311 176.851 44.0276 176.02 44.7701C175.173 45.541 174.189 46.1479 173.12 46.5601C170.866 47.4199 168.375 47.4199 166.12 46.5601C165.048 46.1482 164.062 45.5413 163.21 44.7701C162.379 44.0276 161.7 43.1311 161.21 42.1301C160.712 41.1271 160.458 40.0201 160.47 38.9001V14.5001C160.457 14.2633 160.528 14.0294 160.67 13.8401C160.721 13.7608 160.791 13.6949 160.873 13.6479C160.954 13.6009 161.046 13.5742 161.14 13.5701H166.32C166.431 13.5565 166.544 13.5747 166.645 13.6225C166.745 13.6703 166.831 13.7457 166.89 13.8401C166.995 14.0439 167.047 14.2709 167.04 14.5001L167.06 38.5001Z" fill="white" style="fill:white;fill-opacity:1;"/>
<path d="M182.56 14.4301C182.547 14.184 182.626 13.9419 182.78 13.7501C182.858 13.6619 182.956 13.5933 183.065 13.5498C183.175 13.5064 183.293 13.4893 183.41 13.5001H192.05C193.257 13.4884 194.454 13.7196 195.57 14.1801C197.158 14.8248 198.515 15.9329 199.464 17.3598C200.412 18.7868 200.91 20.4665 200.89 22.1801V24.9301C200.894 25.7357 200.796 26.5386 200.6 27.3201C200.421 28.02 200.148 28.6927 199.79 29.3201C199.451 29.9137 199.041 30.4643 198.57 30.9601C198.113 31.4364 197.603 31.8591 197.05 32.2201L201.21 45.7201C201.291 45.9258 201.291 46.1543 201.21 46.3601C201.171 46.4536 201.104 46.5326 201.018 46.5864C200.932 46.6401 200.831 46.6659 200.73 46.6601H195.5C195.312 46.6727 195.124 46.6197 194.97 46.5101C194.82 46.3363 194.729 46.1191 194.71 45.8901L191.19 33.7601H189.08V45.7601C189.08 46.3501 188.81 46.6301 188.27 46.6301H183.37C183.271 46.6427 183.17 46.6356 183.074 46.6092C182.977 46.5829 182.887 46.5377 182.808 46.4764C182.729 46.4151 182.663 46.3388 182.614 46.2519C182.564 46.165 182.533 46.0693 182.52 45.9701C182.51 45.9004 182.51 45.8297 182.52 45.7601L182.56 14.4301ZM189.12 19.3101V28.3101H191.5C191.887 28.345 192.277 28.2921 192.641 28.1553C193.004 28.0185 193.332 27.8014 193.6 27.5201C194.076 26.9636 194.332 26.2523 194.32 25.5201V22.2201C194.373 21.5243 194.148 20.836 193.694 20.3057C193.241 19.7754 192.596 19.4462 191.9 19.3901C191.774 19.3801 191.647 19.3801 191.52 19.3901L189.12 19.3101Z" fill="white" style="fill:white;fill-opacity:1;"/>
<path d="M204.35 14.43C204.334 14.1853 204.409 13.9433 204.56 13.75C204.638 13.6618 204.735 13.5932 204.845 13.5498C204.954 13.5064 205.072 13.4893 205.19 13.5H209.69C209.902 13.5136 210.107 13.5863 210.28 13.71C210.486 13.8583 210.64 14.0684 210.72 14.31L216.66 31.97L217.25 34.73L217.14 32.21L216.88 14.43C216.877 14.1931 216.95 13.9617 217.09 13.77C217.169 13.6745 217.271 13.5999 217.386 13.5528C217.501 13.5057 217.626 13.4876 217.75 13.5H222.16C222.359 13.5022 222.552 13.5688 222.71 13.69C222.807 13.7788 222.881 13.8897 222.926 14.0133C222.972 14.1368 222.987 14.2695 222.97 14.4V45.71C223.001 45.9195 222.948 46.1329 222.823 46.3035C222.697 46.4741 222.509 46.588 222.3 46.62H217.61C217.377 46.621 217.149 46.5588 216.95 46.44C216.729 46.3087 216.562 46.1031 216.48 45.86L210.72 28.98L210.09 26.69L210.24 29.08L210.5 45.72C210.5 46.33 210.26 46.63 209.66 46.63H205.24C204.68 46.63 204.4 46.33 204.4 45.72L204.35 14.43Z" fill="white" style="fill:white;fill-opacity:1;"/>
<path d="M244.8 45.74C244.96 46.33 244.8 46.61 244.36 46.61H239.36C239.131 46.6107 238.906 46.5485 238.71 46.43C238.612 46.3602 238.532 46.2689 238.474 46.1632C238.417 46.0575 238.385 45.9401 238.38 45.82L237.76 41.82H232.4L231.8 45.82C231.805 45.9516 231.78 46.0827 231.729 46.2037C231.677 46.3248 231.599 46.4328 231.5 46.52C231.311 46.6293 231.098 46.6911 230.88 46.7H225.88C225.4 46.7 225.24 46.39 225.4 45.78L232.03 14.42C232.18 13.86 232.47 13.58 232.97 13.58H237.23C237.47 13.577 237.702 13.6601 237.886 13.8143C238.069 13.9684 238.192 14.1834 238.23 14.42L244.8 45.74ZM233.22 36.74H237L235.37 26.12L235.11 23.31L234.85 26.12L233.22 36.74Z" fill="white" style="fill:white;fill-opacity:1;"/>
<path d="M247.241 14.4301C247.228 14.184 247.306 13.9419 247.461 13.7501C247.537 13.6627 247.633 13.5945 247.741 13.5511C247.848 13.5076 247.965 13.4902 248.081 13.5001H252.991C253.105 13.4893 253.22 13.5064 253.326 13.55C253.433 13.5935 253.527 13.6622 253.601 13.7501C253.74 13.9488 253.81 14.1876 253.801 14.4301V40.8601H262.041C262.501 40.8601 262.731 41.1301 262.731 41.6701V45.7401C262.731 46.3301 262.501 46.6101 262.041 46.6101H248.101C247.541 46.6101 247.261 46.3101 247.261 45.7001L247.241 14.4301Z" fill="white" style="fill:white;fill-opacity:1;"/>
</g>
<defs>
<clipPath id="clip0_809_1265">
<rect width="263" height="59" fill="white" style="fill:white;fill-opacity:1;"/>
</clipPath>
</defs>
</svg>
