<svg xmlns="http://www.w3.org/2000/svg" xmlns:xlink="http://www.w3.org/1999/xlink" viewBox="0 0 270 90"><defs><style>.a{fill:none;}.b{clip-path:url(#a);}.c{clip-path:url(#b);}.d{fill:#e73533;}.e{fill:#bf1818;}.f{fill:#1e1e1c;}</style><clipPath id="a"><path class="a" d="M51.31,20H19.66a1.44,1.44,0,0,0-1,.44L4.2,34.88a1.46,1.46,0,0,0,1,2.5H36.42V68.55a1.47,1.47,0,0,0,2.51,1l14.13-14.1a2.51,2.51,0,0,0,.72-1.75V22.49A2.45,2.45,0,0,0,51.33,20h0Z"/></clipPath><clipPath id="b"><rect class="a" x="1.7" y="20.02" width="52.09" height="52.09" rx="1.43"/></clipPath></defs><rect class="a" width="270" height="90"/><g class="b"><g class="c"><polygon class="d" points="19.06 37.39 19.06 20.02 1.7 37.39 19.06 37.39"/><polygon class="e" points="19.06 37.39 36.42 37.39 19.06 20.02 19.06 37.39"/><polygon class="f" points="19.06 20.02 36.42 37.39 36.42 20.02 19.06 20.02"/><polygon class="e" points="53.78 37.39 53.78 20.02 36.42 37.39 53.78 37.39"/><polygon class="d" points="36.42 37.39 53.79 20.02 36.42 20.02 36.42 37.39"/><polygon class="e" points="36.42 72.11 53.79 54.75 36.42 54.75 36.42 72.11"/><polygon class="d" points="36.42 54.75 53.79 54.75 36.42 37.39 36.42 54.75"/><polygon class="f" points="36.42 37.39 53.79 54.75 53.79 37.39 36.42 37.39"/></g></g><path class="f" d="M67.6,24.93a1,1,0,0,1,.21-.68.75.75,0,0,1,.63-.25h7.78a9.45,9.45,0,0,1,3.53.62,8.06,8.06,0,0,1,2.72,1.74A7.65,7.65,0,0,1,84.22,29a8.78,8.78,0,0,1,.62,3.32v2.37a5.36,5.36,0,0,1-.34,1.9,6.92,6.92,0,0,1-.88,1.6,5.15,5.15,0,0,1-1.16,1.17,3.37,3.37,0,0,1-1.21.57,5.16,5.16,0,0,1,1.24.57,5.93,5.93,0,0,1,1.35,1.2,6.69,6.69,0,0,1,1.1,1.9,7.5,7.5,0,0,1,.44,2.7v3a7.23,7.23,0,0,1-.71,3.2,8.23,8.23,0,0,1-1.87,2.4,8.43,8.43,0,0,1-2.68,1.62,8.91,8.91,0,0,1-3.15.57H68.44c-.56,0-.84-.3-.84-.91Zm6.1,4.88v7.76h2.13a4.61,4.61,0,0,0,.9-.11,2.78,2.78,0,0,0,.92-.39,2.4,2.4,0,0,0,.72-.8A2.49,2.49,0,0,0,78.65,35V32.66a2.75,2.75,0,0,0-.79-2.18,2.92,2.92,0,0,0-2-.68Zm0,12.9v8.65h2.49a2.76,2.76,0,0,0,1.13-.24,2.64,2.64,0,0,0,.84-.64,2.49,2.49,0,0,0,.52-.87,2.83,2.83,0,0,0,.16-1V45.72a3.44,3.44,0,0,0-.22-1.31,2.78,2.78,0,0,0-.61-.93,2.57,2.57,0,0,0-.87-.55,3.1,3.1,0,0,0-1-.18Z"/><path class="f" d="M88.19,24.93a1,1,0,0,1,.21-.68A.75.75,0,0,1,89,24h4.91a.71.71,0,0,1,.61.25,1.11,1.11,0,0,1,.2.68V56.21c0,.61-.27.91-.81.91H89c-.56,0-.83-.3-.83-.91Z"/><path class="f" d="M98,47.79a1.73,1.73,0,0,1,.16-.87.71.71,0,0,1,.65-.27h4.5c.36,0,.58.07.69.22a1.46,1.46,0,0,1,.15.77v1.07a4.1,4.1,0,0,0,.25,1.51,2.69,2.69,0,0,0,.66,1,2.37,2.37,0,0,0,.87.53,3.37,3.37,0,0,0,1,.15,3,3,0,0,0,1.08-.2,2.55,2.55,0,0,0,.87-.58,2.69,2.69,0,0,0,.6-.89,3,3,0,0,0,.23-1.18,4.48,4.48,0,0,0-.25-1.54,5.07,5.07,0,0,0-.77-1.31,9.83,9.83,0,0,0-1.33-1.33l-1.91-1.59q-2-1.53-3.34-2.69a14.27,14.27,0,0,1-2.31-2.35,8.09,8.09,0,0,1-1.34-2.61A12,12,0,0,1,98,32.11a8.12,8.12,0,0,1,3-6.63,8.72,8.72,0,0,1,2.82-1.5,9.92,9.92,0,0,1,2.86-.49,9.46,9.46,0,0,1,3.49.63,8.18,8.18,0,0,1,2.75,1.74,7.84,7.84,0,0,1,1.81,2.76,9.63,9.63,0,0,1,.64,3.6v1.4a1,1,0,0,1-.18.71,1.1,1.1,0,0,1-.77.17H110c-.31,0-.52-.06-.61-.19a1.37,1.37,0,0,1-.13-.69V32.25a3.57,3.57,0,0,0-.17-1.17,2.89,2.89,0,0,0-.48-1,2.34,2.34,0,0,0-.82-.64,2.52,2.52,0,0,0-1.14-.24,2.92,2.92,0,0,0-.92.16,2.55,2.55,0,0,0-.84.53,2.93,2.93,0,0,0-.61.94,3.43,3.43,0,0,0-.23,1.38,3.9,3.9,0,0,0,.25,1.51A4.31,4.31,0,0,0,105,35a7.38,7.38,0,0,0,1.16,1l1.48,1.15c1.17.87,2.24,1.71,3.22,2.5a17.47,17.47,0,0,1,2.62,2.61,11.7,11.7,0,0,1,1.74,3.08,11.12,11.12,0,0,1,.65,4,7.91,7.91,0,0,1-.66,3.18,8,8,0,0,1-1.85,2.65A9,9,0,0,1,110.52,57a10.86,10.86,0,0,1-7.58,0,7.89,7.89,0,0,1-2.75-2,7.79,7.79,0,0,1-1.66-2.74A9.77,9.77,0,0,1,98,49Z"/><path class="f" d="M132.64,24.9a.87.87,0,0,1,.25-.72.8.8,0,0,1,.47-.18h4.95c.59,0,.88.34.88,1V49.1a8.6,8.6,0,0,1-.72,3.57,8,8,0,0,1-2,2.68,9.07,9.07,0,0,1-2.89,1.7,10.18,10.18,0,0,1-7.11-.08,7.53,7.53,0,0,1-3-2.14l-.17-.28a1.74,1.74,0,0,1-.14-.38,1.62,1.62,0,0,1,0-.44.56.56,0,0,1,.13-.35l2.27-2.78a.73.73,0,0,1,.66-.38,1.05,1.05,0,0,1,.73.38,4.6,4.6,0,0,0,1.31.91,3.66,3.66,0,0,0,1.59.36,2.92,2.92,0,0,0,1.24-.24A2.29,2.29,0,0,0,132,51a2.82,2.82,0,0,0,.52-1,4.6,4.6,0,0,0,.17-1.22Z"/><path class="f" d="M142.48,31.8a8.07,8.07,0,0,1,.73-3.49,7.85,7.85,0,0,1,2-2.61A8.84,8.84,0,0,1,148.1,24a11.17,11.17,0,0,1,7,0,8.85,8.85,0,0,1,2.9,1.67,7.82,7.82,0,0,1,2.75,6.1V49.34a7.89,7.89,0,0,1-2.74,6.1,8.74,8.74,0,0,1-2.93,1.64,10.85,10.85,0,0,1-3.48.57,10.61,10.61,0,0,1-3.49-.59,9.19,9.19,0,0,1-2.91-1.67,7.72,7.72,0,0,1-2.73-6.06ZM149,49a3.65,3.65,0,0,0,.17,1.09,2.87,2.87,0,0,0,.49.91,2.5,2.5,0,0,0,.81.63,2.33,2.33,0,0,0,1.1.24,2.38,2.38,0,0,0,1.94-.79,2.9,2.9,0,0,0,.67-1.94v-17A3.67,3.67,0,0,0,154,31a3,3,0,0,0-.5-.93,2.71,2.71,0,0,0-.82-.65,2.54,2.54,0,0,0-1.08-.24,2.38,2.38,0,0,0-1.91.87,2.87,2.87,0,0,0-.51.94,3.39,3.39,0,0,0-.19,1.1Z"/><path class="f" d="M170.56,49a3.05,3.05,0,0,0,.17,1.08,3.27,3.27,0,0,0,.52.93,2.52,2.52,0,0,0,3,.64A2.34,2.34,0,0,0,175,51a3.24,3.24,0,0,0,.51-.93,3.31,3.31,0,0,0,.18-1.08V25a1.07,1.07,0,0,1,.21-.67.71.71,0,0,1,.6-.28h5a.62.62,0,0,1,.58.29,1.2,1.2,0,0,1,.18.66v24.4a7.08,7.08,0,0,1-.74,3.23,8.62,8.62,0,0,1-2,2.64,9.26,9.26,0,0,1-2.9,1.79,9.82,9.82,0,0,1-7,0,9.3,9.3,0,0,1-2.91-1.79,8.62,8.62,0,0,1-2-2.64,7.08,7.08,0,0,1-.74-3.23V25a1,1,0,0,1,.2-.66.59.59,0,0,1,.47-.27h5.18a.59.59,0,0,1,.57.27,1.36,1.36,0,0,1,.15.66Z"/><path class="f" d="M186.06,24.93a1,1,0,0,1,.22-.68.75.75,0,0,1,.63-.25h8.64a9,9,0,0,1,3.52.68,8.53,8.53,0,0,1,5.32,8v2.75a9.65,9.65,0,0,1-.29,2.39,8.07,8.07,0,0,1-.81,2,8.52,8.52,0,0,1-1.22,1.64,8.7,8.7,0,0,1-1.52,1.26l4.16,13.5a.88.88,0,0,1,0,.64.49.49,0,0,1-.48.3H199a.82.82,0,0,1-.53-.15,1.08,1.08,0,0,1-.26-.62l-3.52-12.13h-2.11v12c0,.59-.27.87-.81.87h-4.9a.76.76,0,0,1-.85-.66.74.74,0,0,1,0-.21Zm6.56,4.88v9H195a2.58,2.58,0,0,0,2.1-.79,3,3,0,0,0,.72-2v-3.3a2.64,2.64,0,0,0-2.42-2.83,2.41,2.41,0,0,0-.38,0Z"/><path class="f" d="M207.85,24.93a1,1,0,0,1,.21-.68.75.75,0,0,1,.63-.25h4.5a1.14,1.14,0,0,1,.59.21,1.2,1.2,0,0,1,.44.6l5.94,17.66.59,2.76-.11-2.52-.26-17.78a1.1,1.1,0,0,1,.21-.66.76.76,0,0,1,.66-.27h4.41a.92.92,0,0,1,.55.19.82.82,0,0,1,.26.71V56.21a.8.8,0,0,1-.67.91h-4.69a1.28,1.28,0,0,1-.66-.18,1.08,1.08,0,0,1-.47-.58l-5.76-16.88-.63-2.29.15,2.39L214,56.22c0,.61-.24.91-.84.91h-4.42c-.56,0-.84-.3-.84-.91Z"/><path class="f" d="M248.3,56.24c.16.59,0,.87-.44.87h-5a1.25,1.25,0,0,1-.65-.18.79.79,0,0,1-.33-.61l-.62-4H235.9l-.6,4a.89.89,0,0,1-.3.7,1.35,1.35,0,0,1-.62.18h-5c-.48,0-.64-.31-.48-.92l6.63-31.36c.15-.56.44-.84.94-.84h4.26a1,1,0,0,1,1,.84Zm-11.58-9h3.78l-1.63-10.62-.26-2.81-.26,2.81Z"/><path class="f" d="M250.74,24.93a1,1,0,0,1,.22-.68.74.74,0,0,1,.62-.25h4.91a.71.71,0,0,1,.61.25,1.11,1.11,0,0,1,.2.68V51.36h8.24q.69,0,.69.81v4.07c0,.59-.23.87-.69.87H251.6c-.56,0-.84-.3-.84-.91Z"/></svg>