<svg width="102" height="102" viewBox="0 0 102 102" fill="none" xmlns="http://www.w3.org/2000/svg">
<g clip-path="url(#clip0_313_16450)">
<mask id="mask0_313_16450" style="mask-type:luminance" maskUnits="userSpaceOnUse" x="0" y="0" width="102" height="102">
<path d="M101.913 0H0V101.913H101.913V0Z" fill="white" style="fill:white;fill-opacity:1;"/>
</mask>
<g mask="url(#mask0_313_16450)">
<path fill-rule="evenodd" clip-rule="evenodd" d="M101.966 0H0.0527344V101.913H101.966V0ZM53.9828 71.3567C55.7149 71.3567 57.115 69.9518 57.115 68.2245C57.115 66.4924 55.7101 65.0923 53.9828 65.0923C52.2507 65.0923 50.8506 66.4973 50.8506 68.2245C50.8506 69.9518 52.2507 71.3567 53.9828 71.3567ZM76.6874 62.4894C83.1731 62.4894 86.0406 57.553 86.0406 50.9567C86.0406 44.471 83.1154 39.424 76.4613 39.424C70.2066 39.424 67.2236 44.5288 67.2236 50.9567C67.2236 57.784 70.1489 62.4894 76.6874 62.4894ZM76.6297 30.0708C88.9082 30.0708 97.227 38.6782 97.227 51.1828C97.227 62.9465 88.6243 71.8378 76.6297 71.8378C64.6928 71.8378 56.0324 63.2304 56.0324 51.4138C56.0324 39.0775 63.8364 30.0708 76.6297 30.0708ZM31.5573 62.4894C35.4015 62.4894 37.124 60.7092 37.124 57.8994C37.124 55.489 35.286 54.3391 31.5573 54.3439H21.8624V62.4894H31.5573ZM35.6854 47.7475C42.5704 47.7475 49.5708 48.8926 49.5708 57.8994C49.5708 65.8718 44.0667 71.0921 32.9381 71.0873H5.3981V62.1959H11.826V39.7656H5.3981V30.8742H47.0497V44.9329H37.0085L36.8353 39.4817H21.8624V47.7475H35.6854Z" fill="white" style="fill:white;fill-opacity:1;"/>
</g>
</g>
<defs>
<clipPath id="clip0_313_16450">
<rect width="102" height="102" fill="white" style="fill:white;fill-opacity:1;"/>
</clipPath>
</defs>
</svg>
