<svg width="114" height="32" viewBox="0 0 114 32" fill="none" xmlns="http://www.w3.org/2000/svg">
<rect width="114" height="32" fill="white"/>
<g clip-path="url(#clip0_665_2)">
<path d="M2.55946 9.6792H6.16065C10.4401 9.6792 13.907 13.1419 13.907 17.4123V21.0073C13.907 21.3166 13.6557 21.5658 13.3476 21.5658H2.55946C2.2496 21.5658 2 21.3149 2 21.0073V10.2377C2 9.92838 2.25133 9.6792 2.55946 9.6792Z" fill="#3540FA"/>
<path fill-rule="evenodd" clip-rule="evenodd" d="M107.588 9.66557C107.628 9.66557 107.659 9.69651 107.659 9.73603V11.3136C107.659 11.384 107.752 11.4132 107.793 11.3565C107.939 11.1624 108.108 10.9699 108.299 10.7791C108.662 10.4165 109.113 10.1158 109.643 9.87351C110.208 9.60886 110.864 9.47998 111.599 9.47998H111.926C111.966 9.47998 111.997 9.51091 111.997 9.55044V11.6951C111.997 11.7346 111.966 11.7655 111.926 11.7655H111.506C110.704 11.7655 110.024 11.9855 109.449 12.4185C108.877 12.8464 108.433 13.4101 108.115 14.1181C107.81 14.8141 107.657 15.5616 107.657 16.3641V21.6192C107.657 21.6587 107.626 21.6896 107.586 21.6896H105.438C105.398 21.6896 105.367 21.6587 105.367 21.6192V9.73603C105.367 9.69651 105.4 9.66557 105.438 9.66557H107.586H107.588Z" fill="#232323"/>
<path fill-rule="evenodd" clip-rule="evenodd" d="M94.674 10.3254C93.7719 10.8719 93.0782 11.6229 92.5945 12.5697C92.1125 13.4994 91.8749 14.5391 91.8749 15.6784C91.8749 16.8178 92.1211 17.8454 92.6186 18.7906V18.794C93.1333 19.7392 93.8494 20.4936 94.7652 21.0555H94.7686C95.6913 21.6071 96.7603 21.8769 97.9687 21.8769C99.3751 21.8769 100.551 21.5453 101.468 20.8579C102.384 20.1688 103.05 19.2855 103.469 18.2114L103.581 17.9227C103.598 17.8763 103.565 17.8265 103.515 17.8265H101.195C101.169 17.8265 101.145 17.8403 101.133 17.8643L101.072 17.976C100.79 18.4984 100.394 18.9298 99.8812 19.2717C99.3855 19.5862 98.7606 19.7529 97.9928 19.7529C97.2699 19.7529 96.645 19.6017 96.1113 19.3078C95.5708 18.9951 95.1387 18.5844 94.8117 18.0757C94.5655 17.6598 94.3882 17.213 94.2815 16.7353C94.2712 16.6923 94.3056 16.6511 94.3503 16.6511H103.763C103.803 16.6511 103.834 16.6202 103.834 16.5806V15.6802C103.834 14.5391 103.596 13.5012 103.114 12.5715C102.632 11.6246 101.938 10.8753 101.036 10.3289C100.141 9.76179 99.0773 9.4834 97.8551 9.4834C96.6329 9.4834 95.5829 9.76179 94.6757 10.3272L94.674 10.3254ZM101.394 14.393C101.405 14.4377 101.372 14.479 101.326 14.479H94.3865C94.34 14.479 94.3073 14.436 94.3176 14.3913C94.5121 13.6524 94.8685 13.0269 95.3866 12.5096C95.9977 11.9133 96.8102 11.6057 97.8517 11.6057C98.8931 11.6057 99.7057 11.9133 100.317 12.5113C100.849 13.0303 101.207 13.6541 101.391 14.393H101.394Z" fill="#232323"/>
<path fill-rule="evenodd" clip-rule="evenodd" d="M71.4194 10.2C70.5483 10.7482 69.8718 11.4974 69.3898 12.4426C68.9078 13.3722 68.6703 14.4119 68.6703 15.553C68.6703 16.694 68.9096 17.7165 69.3898 18.6617C69.8718 19.6068 70.5484 20.3629 71.4177 20.9266H71.4194L71.4228 20.93C72.3145 21.4799 73.3474 21.7514 74.511 21.7514C75.4957 21.7514 76.3564 21.5607 77.0794 21.1672C77.5029 20.9421 77.8816 20.6705 78.2138 20.3561C78.2603 20.3131 78.3377 20.344 78.3377 20.4076V21.4971C78.3377 21.5366 78.3687 21.5676 78.4083 21.5676H80.5566C80.5962 21.5676 80.6272 21.5366 80.6272 21.4971V9.60882C80.6272 9.5693 80.5962 9.53837 80.5566 9.53837H78.4083C78.3687 9.53837 78.3377 9.5693 78.3377 9.60882V10.7069C78.3377 10.7705 78.2603 10.8032 78.2138 10.7585C77.8816 10.4388 77.5029 10.1656 77.0794 9.93877C76.3564 9.54524 75.4957 9.35449 74.511 9.35449C73.3474 9.35449 72.3128 9.6346 71.4194 10.2ZM76.742 19.0758C77.2946 18.7081 77.7129 18.2217 77.9969 17.6117C78.2844 16.9776 78.4307 16.2936 78.4307 15.5513C78.4307 14.8089 78.2844 14.1095 77.9986 13.4925C77.7146 12.8825 77.2963 12.3944 76.7437 12.0267H76.7403C76.2152 11.6658 75.5542 11.4785 74.7417 11.4785C73.9292 11.4785 73.2751 11.6658 72.7139 12.0284C72.1441 12.3979 71.712 12.8859 71.4125 13.4977C71.1113 14.1129 70.9598 14.7951 70.9598 15.5513C70.9598 16.3074 71.1113 16.9741 71.4142 17.6065C71.7137 18.2166 72.1458 18.7046 72.7139 19.0741C73.2733 19.4367 73.9447 19.624 74.7417 19.624C75.5387 19.624 76.2152 19.4367 76.7403 19.0775H76.7437L76.742 19.0758Z" fill="#232323"/>
<path fill-rule="evenodd" clip-rule="evenodd" d="M58.6844 10.198C57.7824 10.7445 57.0887 11.4937 56.6067 12.4423C56.1247 13.372 55.8871 14.4117 55.8871 15.5527C55.8871 16.6938 56.1333 17.7197 56.6308 18.6648V18.6683C57.1455 19.6134 57.8616 20.3678 58.7774 20.9298H58.7808C59.7035 21.4814 60.7725 21.7512 61.9809 21.7512C63.3873 21.7512 64.5631 21.4195 65.4806 20.7321C66.3964 20.043 67.0626 19.1598 67.4809 18.0857L67.5928 17.797C67.61 17.7506 67.5755 17.7008 67.5273 17.7008H65.2069C65.1811 17.7008 65.157 17.7145 65.1449 17.7386L65.0847 17.8503C64.8023 18.3727 64.4064 18.804 63.8934 19.146C63.3977 19.4605 62.7745 19.6272 62.005 19.6272C61.282 19.6272 60.6572 19.476 60.1235 19.1821C59.583 18.8693 59.1509 18.4586 58.8239 17.95C58.5777 17.5341 58.4004 17.0873 58.2937 16.6096C58.2833 16.5666 58.3178 16.5254 58.3625 16.5254H67.7752C67.8148 16.5254 67.8458 16.4944 67.8458 16.4549V15.5544C67.8458 14.4134 67.6082 13.3754 67.1262 12.4457C66.6443 11.4989 65.9505 10.7496 65.0485 10.2014C64.1534 9.63435 63.0895 9.35596 61.8673 9.35596C60.6451 9.35596 59.5951 9.63435 58.6862 10.1997L58.6844 10.198ZM65.4048 14.2656C65.4152 14.3103 65.3825 14.3515 65.336 14.3515H58.3987C58.3522 14.3515 58.3195 14.3086 58.3298 14.2639C58.5244 13.5249 58.8807 12.8994 59.3988 12.3822C60.0099 11.7859 60.8224 11.4783 61.8639 11.4783C62.9053 11.4783 63.7178 11.7859 64.329 12.3839C64.8591 12.9029 65.2189 13.5267 65.4031 14.2656H65.4048Z" fill="#232323"/>
<path fill-rule="evenodd" clip-rule="evenodd" d="M45.1592 9.53837C45.1988 9.53837 45.2298 9.5693 45.2298 9.60882V10.6829C45.2298 10.7464 45.309 10.7791 45.3537 10.7344C45.6808 10.4199 46.0526 10.1536 46.4675 9.93705C47.206 9.54524 48.0718 9.35449 49.0565 9.35449C50.2202 9.35449 51.2461 9.63288 52.124 10.2C53.0106 10.7482 53.6957 11.4974 54.176 12.4426C54.658 13.3722 54.8955 14.4119 54.8955 15.5513C54.8955 16.6906 54.6562 17.7148 54.176 18.6599C53.694 19.6068 53.0088 20.3629 52.124 20.9249C51.2461 21.4782 50.2202 21.748 49.0565 21.748C48.0701 21.748 47.2042 21.5573 46.4658 21.1637H46.4623L46.4589 21.1603C46.0475 20.9266 45.6791 20.6534 45.3537 20.3372C45.3073 20.2925 45.2298 20.3251 45.2298 20.3887V26.0338C45.2298 26.0734 45.1988 26.1043 45.1592 26.1043H43.0109C42.9713 26.1043 42.9403 26.0734 42.9403 26.0338V9.60882C42.9403 9.5693 42.9713 9.53837 43.0109 9.53837H45.1592ZM50.8536 19.0741H50.8502C50.308 19.4367 49.6383 19.624 48.8258 19.624C48.0133 19.624 47.3678 19.4367 46.8238 19.0758C46.2712 18.7081 45.8529 18.2217 45.5689 17.6117C45.2814 16.9776 45.1351 16.2936 45.1351 15.553C45.1351 14.8123 45.2814 14.1112 45.5672 13.4943C45.8512 12.8842 46.2695 12.3962 46.8221 12.0284C47.3643 11.6675 48.0271 11.4802 48.8241 11.4802C49.6211 11.4802 50.3062 11.6675 50.8485 12.0284H50.8519C51.4217 12.3996 51.8538 12.8876 52.1533 13.4994C52.4546 14.1146 52.606 14.7968 52.606 15.553C52.606 16.3091 52.4546 16.9759 52.1516 17.6082C51.8521 18.2183 51.42 18.7063 50.8519 19.0758L50.8536 19.0741Z" fill="#232323"/>
<path fill-rule="evenodd" clip-rule="evenodd" d="M34.6793 19.4247C34.2593 19.215 33.9598 18.9572 33.7635 18.6599C33.569 18.3248 33.4537 17.9897 33.4141 17.6512L33.3917 17.4639C33.3883 17.4278 33.3573 17.402 33.3211 17.402H31.1143C31.073 17.402 31.0403 17.4364 31.0437 17.4776L31.0592 17.7045C31.1091 18.428 31.3398 19.0999 31.7478 19.7202V19.7237C32.1643 20.3372 32.7565 20.8252 33.5139 21.1947H33.5157C34.2989 21.5693 35.2388 21.7514 36.325 21.7514C37.7848 21.7514 38.9811 21.4542 39.8849 20.8304C40.8248 20.1773 41.293 19.2305 41.293 18.0293C41.293 17.2646 41.0968 16.6253 40.6716 16.1458C40.2705 15.6801 39.7575 15.3261 39.1378 15.0821C38.5387 14.8467 37.9018 14.6662 37.2287 14.5408C36.5901 14.4033 35.9824 14.2676 35.404 14.1318C34.8446 13.984 34.4022 13.7967 34.0682 13.575C33.7842 13.386 33.643 13.1248 33.643 12.7553C33.643 12.2999 33.8221 11.982 34.1904 11.7603C34.5795 11.5249 35.2009 11.3891 36.0926 11.3891C37.0377 11.3891 37.6402 11.5644 37.9758 11.8497H37.9776L37.9793 11.8531C38.3597 12.1642 38.5611 12.5216 38.6128 12.9306L38.6369 13.1162C38.642 13.1523 38.6713 13.1781 38.7074 13.1781H40.8764C40.9194 13.1781 40.9522 13.142 40.947 13.099L40.9212 12.8636C40.854 12.2501 40.6389 11.6796 40.2774 11.1537C39.9228 10.6158 39.3977 10.1879 38.7212 9.86487C38.0412 9.51775 37.1737 9.35449 36.1391 9.35449C34.6242 9.35449 33.4279 9.65007 32.5913 10.2825C31.7615 10.908 31.3536 11.7981 31.3536 12.9151C31.3536 13.6678 31.5515 14.2985 31.9767 14.7762L31.9784 14.7797C32.3795 15.2127 32.8908 15.5478 33.507 15.7901H33.5105L33.5139 15.7918C34.1095 16.0101 34.7344 16.1905 35.3903 16.3297C36.0444 16.4672 36.6607 16.6115 37.2356 16.7628H37.2391H37.2425C37.8002 16.8951 38.2375 17.0807 38.568 17.3144C38.8555 17.5172 39.0001 17.7956 39.0001 18.1839C39.0001 18.5104 38.9106 18.7527 38.7487 18.9383C38.5663 19.1463 38.3373 19.3044 38.0567 19.4109H38.055H38.0533C37.7693 19.5243 37.4697 19.6034 37.1564 19.6446C36.8259 19.6893 36.5574 19.7116 36.3457 19.7116C35.6364 19.7116 35.0856 19.6085 34.6776 19.4195L34.6793 19.4247Z" fill="#232323"/>
<path fill-rule="evenodd" clip-rule="evenodd" d="M16.5304 9.6792C16.4908 9.6792 16.4598 9.71013 16.4598 9.74966V21.4953C16.4598 21.5348 16.4908 21.5658 16.5304 21.5658H18.6564C18.696 21.5658 18.7269 21.5348 18.7269 21.4953V9.74966C18.7269 9.71013 18.696 9.6792 18.6564 9.6792H16.5304Z" fill="#232323"/>
<path d="M18.6581 6H16.5304C16.4914 6 16.4598 6.03154 16.4598 6.07046V8.19447C16.4598 8.23338 16.4914 8.26493 16.5304 8.26493H18.6581C18.6971 8.26493 18.7287 8.23338 18.7287 8.19447V6.07046C18.7287 6.03154 18.6971 6 18.6581 6Z" fill="#232323"/>
<path d="M29.9988 19.4038H27.8711C27.8321 19.4038 27.8005 19.4354 27.8005 19.4743V21.5983C27.8005 21.6372 27.8321 21.6687 27.8711 21.6687H29.9988C30.0378 21.6687 30.0694 21.6372 30.0694 21.5983V19.4743C30.0694 19.4354 30.0378 19.4038 29.9988 19.4038Z" fill="#232323"/>
<path fill-rule="evenodd" clip-rule="evenodd" d="M26.0275 11.9442C26.0671 11.9442 26.0981 11.9132 26.0981 11.8737V9.75141C26.0981 9.71189 26.0671 9.68096 26.0275 9.68096H22.9789V7.57241C22.9789 7.53289 22.9479 7.50195 22.9083 7.50195H20.7824C20.7428 7.50195 20.7118 7.53289 20.7118 7.57241V18.2561C20.7118 18.8146 20.8702 19.6274 21.3797 20.332C21.9202 21.0795 22.8016 21.6294 24.0393 21.6517C24.0393 21.6517 24.041 21.6517 24.0427 21.6517H26.0275C26.0671 21.6517 26.0981 21.6208 26.0981 21.5813V19.459C26.0981 19.4195 26.0671 19.3885 26.0275 19.3885H24.0479C24.0479 19.3885 24.0444 19.3885 24.0427 19.3885C23.5556 19.3713 23.3438 19.184 23.2199 19.0105C23.0477 18.7733 22.9806 18.4537 22.9806 18.2561V11.9442H26.0292H26.0275Z" fill="#232323"/>
<path fill-rule="evenodd" clip-rule="evenodd" d="M85.0702 14.9858V6.15639C85.0702 6.11687 85.0392 6.08594 84.9996 6.08594H82.8737C82.8341 6.08594 82.8031 6.11687 82.8031 6.15639V21.4971C82.8031 21.5366 82.8341 21.5675 82.8737 21.5675H84.9996C85.0392 21.5675 85.0702 21.5366 85.0702 21.4971V16.4053L89.2739 21.5417C89.2877 21.5589 89.3083 21.5675 89.329 21.5675H92.0092C92.0695 21.5675 92.1022 21.4988 92.0643 21.4524L87.4406 15.7402C87.4199 15.7145 87.4199 15.6784 87.4406 15.6526L92.0953 9.79609C92.1314 9.74969 92.0987 9.68095 92.0402 9.68095H89.2894C89.267 9.68095 89.2464 9.69126 89.2343 9.70845L85.0702 14.9875V14.9858Z" fill="#232323"/>
</g>
<defs>
<clipPath id="clip0_665_2">
<rect width="110" height="20.106" fill="white" transform="translate(2 6)"/>
</clipPath>
</defs>
</svg>
