<?xml version="1.0" encoding="UTF-8"?>
<svg id="Layer_1" xmlns="http://www.w3.org/2000/svg" version="1.1" viewBox="0 0 300 160">
  <!-- Generator: Adobe Illustrator 29.3.1, SVG Export Plug-In . SVG Version: 2.1.0 Build 151)  -->
  <defs>
    <style>
      .st0 {
        fill: #231f20;
      }

      .st1 {
        fill: #ee3425;
      }
    </style>
  </defs>
  <g>
    <path class="st0" d="M98,112c-1.1.9-2.2,1-2.9,1s-2-.2-2.7-1.1c-.8-.9-.9-2-.9-3,0-2.4.8-4.9,2.1-6.4.6-.6,1.6-1.5,3.6-1.5s2.1.5,2.6,1c.7.8.9,1.8.9,2.9,0,2.5-.8,5.4-2.6,7ZM98.5,102.7c-.4-.4-1-.5-1.5-.5s-1.7.2-2.6,1.3c-.9,1.3-1.5,3.6-1.5,5.7s0,1.4.5,2c.3.4.8.8,1.8.8s1.8-.5,2.2-1c1.2-1.3,1.8-4.4,1.8-6.1s0-1.5-.7-2.1Z"/>
    <path class="st0" d="M104.2,104.2c.1.3.2.7.2.9s0,.6,0,.9c.3-.5.8-.9,1.4-1.3.4-.2.9-.4,1.5-.4s1.3.4,1.5.6c.5.6.6,1.5.6,2.1,0,1.2-.3,3.2-1.4,4.6-1,1.2-2.1,1.5-3,1.5s-1.3-.2-1.8-.4l-.7,3.5-1.3.3,1.9-9.5c.2-.7.2-1.1.2-1.3s0-.5-.1-.7l1.2-.6ZM103.2,111.5c.3.3.8.5,1.5.5s1.4-.1,2.1-1.1c.6-.9,1-2.6,1-3.8s0-1-.4-1.3c-.2-.2-.5-.3-.8-.3-.7,0-1.2.3-1.5.6-.5.4-.9.8-1.2,1.3l-.8,4.1Z"/>
    <path class="st0" d="M116.6,111.8c-1,1.1-2.3,1.2-3,1.2s-1.5,0-2.1-.8c-.5-.6-.7-1.5-.7-2.2,0-1.2.4-3.1,1.7-4.5.9-.9,1.8-1.2,2.6-1.2s1.4.3,1.7.6c.4.5.5,1.1.5,1.5s0,1.1-.7,1.8c-.8.7-2.2.9-3.4.9s-.7,0-1,0c0,.4-.1.8-.1,1.1,0,.7.3,1.1.5,1.4.4.4.9.4,1.2.4.9,0,1.6-.3,2-.8l.2-.2.5.8ZM113.5,108.2c.9,0,1.6,0,2.1-.5.6-.4.6-.9.6-1.2,0-.9-.6-1.2-1.2-1.2s-.9.2-1.5.8c-.4.4-.8,1.1-1,2.1.3,0,.7,0,1,0Z"/>
    <path class="st0" d="M121,104.2c0,.1.2.5.2,1s0,.7-.1.8c.7-1,1.9-1.8,3.1-1.8s.9.1,1.2.4c.4.4.4.9.4,1.2s0,.4,0,.5l-1.3,6.4h-1.2l1.1-5.7c0-.3.1-.7.1-.9s0-.5-.2-.6c-.2-.2-.4-.2-.6-.2-.4,0-.8.2-1.1.4-.5.3-1.1.9-1.7,1.6l-1.1,5.5h-1.3l1.2-6c0-.4.2-.8.2-1.3s0-.5-.1-.8l1.2-.6Z"/>
    <path class="st0" d="M138.4,103.1c-.4-.3-1.2-.9-2.4-.9s-1.4.3-1.6.4c-.7.5-.9,1.1-.9,1.7s0,.5.2.8c.2.3.5.6,1.2.8l1.1.5c.5.3,1,.5,1.4,1.2.3.5.4,1,.4,1.7,0,1.1-.4,2-1.2,2.7-.7.6-1.7,1-3.3,1s-2-.2-3-.9l.6-1.1c1.1.8,2,.9,2.6.9s1.5-.1,2.1-.7c.6-.5.8-1.1.8-1.7s-.4-1.4-1.5-1.9l-1-.4c-1.3-.6-1.9-1.4-1.9-2.6s.3-2.1,1.6-2.9c.7-.4,1.6-.6,2.4-.6s2,.2,2.9,1l-.7,1Z"/>
    <path class="st0" d="M142.8,112.5c-.7,1.4-1.3,2.5-2,3.1-.3.3-.9.6-1.5.7l-.3-.9c.6-.1,1.1-.4,1.4-.8.2-.2.6-.7,1-1.8h-.5c0-.7-.1-2.4-.2-2.9l-.7-5.4,1.3-.3.5,5.4c0,.6,0,1.1,0,2.1.5-.9.7-1.3.9-1.8l2.7-5.5h1.4l-4.1,8Z"/>
    <path class="st0" d="M152.4,105.9c-.9-.5-1.5-.6-1.8-.6-.6,0-1,.1-1.3.3-.2.1-.5.4-.5,1s0,.4.1.5c.1.2.5.4.7.5l1,.4c.5.2.9.4,1.3.9.2.3.4.7.4,1.2s-.2,1.5-1.1,2.1c-.7.5-1.5.7-2.3.7-1.2,0-2-.4-2.7-.8l.5-1c.7.5,1.5.8,2.3.8s1.2-.2,1.5-.5c.3-.2.4-.6.4-1,0-.7-.4-1.1-1-1.3l-.9-.4c-.2,0-.7-.3-1-.6-.2-.3-.5-.7-.5-1.3s.3-1.5,1.1-2c.5-.4,1.3-.6,2.1-.6,1.2,0,1.9.4,2.2.6l-.5,1Z"/>
    <path class="st0" d="M158.4,105.5h-1.7l-1,4.9c0,.5-.1.8-.1.9,0,.3,0,.4.1.5.2.2.4.2.7.2s.6,0,.8-.2v.8c-.5.2-1,.3-1.4.3-.6,0-.9-.2-1.1-.3-.3-.3-.4-.8-.4-1.1s0-.9.1-1.1l1-5.1h-1l.2-1h1.1c.3-1.2.4-1.5.6-2.1l1.4-.3c-.3,1-.5,1.8-.6,2.4h2l-.5,1Z"/>
    <path class="st0" d="M164.8,111.8c-1,1.1-2.3,1.2-3,1.2s-1.5,0-2.1-.8c-.5-.6-.7-1.5-.7-2.2,0-1.2.4-3.1,1.8-4.5.9-.9,1.8-1.2,2.6-1.2s1.4.3,1.7.6c.4.5.5,1.1.5,1.5s0,1.1-.7,1.8c-.8.7-2.2.9-3.4.9s-.7,0-1,0c0,.4-.1.8-.1,1.1,0,.7.3,1.1.5,1.4.4.4.9.4,1.2.4.9,0,1.5-.3,2-.8l.2-.2.5.8ZM161.6,108.2c.9,0,1.6,0,2.1-.5.6-.4.6-.9.6-1.2,0-.9-.6-1.2-1.2-1.2s-.9.2-1.5.8c-.4.4-.8,1.1-1,2.1.3,0,.7,0,1,0Z"/>
    <path class="st0" d="M169.2,104.2c.1.3.2.7.2,1s0,.6-.1.9c.4-.5.8-.9,1.3-1.2.5-.4,1.1-.6,1.7-.6s.9.2,1.1.7c.1.3.2.8.2,1.1.7-1,1.9-1.8,2.8-1.8s.9.2,1.2.5c.2.3.3.8.3,1.1s0,.7-.1.9l-1.2,6h-1.2l1.2-5.9c0-.2,0-.6,0-.8,0-.4-.1-.5-.3-.6-.2-.1-.4-.1-.5-.1-.3,0-.6.2-.9.4-.7.5-1.3,1.3-1.5,1.6l-1.1,5.5h-1.2l1.2-5.7c.1-.6.2-.9.2-1.1s0-.4-.2-.5c-.1-.1-.2-.2-.4-.2-.3,0-.7.2-1,.3-.8.5-1.4,1.3-1.7,1.6l-1.1,5.5h-1.2l1.2-6c0-.2.2-.9.2-1.3s0-.6-.1-.8l1.2-.6Z"/>
    <path class="st0" d="M185,105.9c-.8-.5-1.5-.6-1.8-.6-.6,0-1,.1-1.3.3-.2.1-.5.4-.5,1s0,.4.1.5c.1.2.5.4.7.5l1,.4c.5.2.9.4,1.3.9.2.3.4.7.4,1.2s-.2,1.5-1.1,2.1c-.7.5-1.5.7-2.3.7-1.2,0-2-.4-2.7-.8l.5-1c.7.5,1.5.8,2.3.8s1.2-.2,1.5-.5c.2-.2.4-.6.4-1,0-.7-.4-1.1-1-1.3l-.9-.4c-.2,0-.7-.3-1-.6-.2-.3-.5-.7-.5-1.3s.3-1.5,1-2c.5-.4,1.3-.6,2.1-.6,1.2,0,1.9.4,2.3.6l-.5,1Z"/>
    <path class="st0" d="M195.4,101.3c.9,0,1.9,0,2.6.9.5.5.7,1.2.7,1.9s-.3,2.3-1.5,3.4c-.5.4-1.3.8-2.9.8h-1.9l-.9,4.6h-1.3l2.3-11.5h2.9ZM194.5,107.1c1,0,1.5-.2,2-.7.3-.3.9-1,.9-2.1s-.2-1.1-.4-1.3c-.5-.5-1.4-.6-1.9-.6h-1.4l-.9,4.7h1.8Z"/>
    <path class="st0" d="M206.5,104.3l-1.2,5.9c0,.2-.2.8-.2,1.1s0,.5.4,1l-1,.8c-.2-.2-.4-.5-.5-.7,0-.2-.2-.7-.1-1.1-.3.4-.7.8-1,1.1-.5.4-1.2.7-2,.7s-1-.2-1.2-.4c-.4-.4-.5-.9-.5-1.3s0-.9.1-1.2l1.1-5.6,1.3-.3-1.1,5.6c-.1.7-.1,1-.1,1.2,0,.2,0,.6.2.7.2.2.4.2.5.2.7,0,1.4-.5,1.6-.7.4-.3.9-.8,1.3-1.5l1.1-5.2,1.3-.3Z"/>
    <path class="st0" d="M210.6,104.5c0,.4-.3,1.1-.4,1.6.7-1,1.8-1.8,2.9-1.8s2.2,1,2.2,2.8-.8,3.8-1.9,4.9c-.7.7-1.7,1.1-2.6,1.1s-2.2-.3-3.1-1c0-.3.2-.8.3-1.3l1.5-7.2c.1-.6.2-1.1.2-1.6s0-.7,0-.9l1.3-.5c0,.3.1.6.1,1,0,.6,0,1.2-.2,1.9l-.2,1.1ZM209.2,111.5c.4.4.9.5,1.7.5s1.4-.4,1.7-.8c.8-1,1.3-2.8,1.3-4s-.4-1.6-1.3-1.6-1.7.7-2.6,1.9l-.8,4.1Z"/>
    <path class="st0" d="M219.9,100.5c0,.4.1.7.1,1.1,0,.6-.1,1.4-.2,2l-1.5,7.5c0,.4,0,.5,0,.6,0,.1,0,.2,0,.3,0,0,.2,0,.3,0,.1,0,.2,0,.3,0v.8c-.2.1-.5.2-.9.2s-.6,0-.9-.3c-.2-.2-.2-.5-.2-.7s0-.4,0-.6l1.6-7.8c0-.5.2-1.2.2-1.6s0-.7-.1-1l1.3-.5Z"/>
    <path class="st0" d="M221.9,112.9h-1.2l1.7-8.4,1.3-.2-1.7,8.6ZM223.5,102.9c-.5,0-1-.5-1-1s.5-1,1-1,1,.5,1,1-.4,1-1,1Z"/>
    <path class="st0" d="M230.8,106c-.6-.5-1.2-.6-1.6-.6s-1.1,0-1.7.9c-.3.5-.6,1.1-.7,1.7-.2.6-.4,1.5-.4,2.2s0,.8.3,1.1c.2.3.6.6,1.2.6s1.4-.3,1.9-.9l.5.8c-1.1,1-2,1.1-2.7,1.1s-1.5-.2-2-.8c-.5-.6-.6-1.2-.6-2.1s.3-2.1.6-2.8c.5-1.3,1.2-1.9,1.4-2.1.5-.4,1.3-1,2.4-1s1.3.1,1.9.7l-.6,1Z"/>
    <path class="st0" d="M237.1,113.2c-.4-.4-.6-1-.6-1.5s0-.2,0-.3c-.2.5-.6.9-1.1,1.2-.4.2-1,.4-1.6.4s-1-.2-1.4-.6c-.3-.4-.6-1.1-.6-2s.4-3.4,1.7-4.7c.6-.7,1.7-1.4,3.2-1.4s1.9.4,2.2.7c-.3,1-.3,1.2-.4,1.8l-.7,3.5c0,.4-.1.8-.1,1.1s.1.8.4,1.1l-1,.8ZM237.6,105.6c-.2-.1-.5-.2-1-.2-.9,0-1.6.4-2.3,1.2-.9,1.2-1.1,2.9-1.1,3.9s0,.8.3,1.1c.1.2.4.4.8.4.7,0,1.1-.4,1.4-.6.4-.4.8-.8,1-1.4l.9-4.3Z"/>
    <path class="st0" d="M244.6,105.5h-1.7l-1,4.9c0,.5-.1.8-.1.9,0,.3,0,.4.1.5.2.2.4.2.7.2s.6,0,.8-.2v.8c-.5.2-1,.3-1.4.3-.6,0-.9-.2-1.1-.3-.3-.3-.4-.8-.4-1.1s0-.9.1-1.1l1-5.1h-1l.2-1h1.1c.3-1.2.4-1.5.6-2.1l1.4-.3c-.4,1-.5,1.8-.7,2.4h2l-.5,1Z"/>
    <path class="st0" d="M246.2,112.9h-1.2l1.7-8.4,1.3-.2-1.7,8.6ZM247.7,102.9c-.5,0-1-.5-1-1s.5-1,1-1,1,.5,1,1-.4,1-1,1Z"/>
    <path class="st0" d="M254.5,112c-.9.9-2,1.1-2.8,1.1s-1.6-.4-2-.8c-.6-.7-.7-1.7-.7-2.2,0-1.7.6-3.3,1.5-4.4,1-1.1,2.1-1.3,2.9-1.3s1.6.3,2,.8c.6.7.7,1.5.7,2.3,0,1.9-.7,3.6-1.7,4.6ZM254.4,105.8c-.2-.3-.6-.5-1.1-.5s-1.2,0-1.9,1.1c-.7,1-.9,2.6-.9,3.6s0,1,.4,1.4c.4.4.8.5,1.1.5.7,0,1.4-.3,2-1.2.6-1,.8-2.4.8-3.5s0-1.1-.4-1.5Z"/>
    <path class="st0" d="M260,104.2c0,.1.2.5.2,1s0,.7-.1.8c.7-1,1.9-1.8,3.1-1.8s.9.1,1.2.4c.3.4.4.9.4,1.2s0,.4,0,.5l-1.3,6.4h-1.2l1.1-5.7c0-.3.1-.7.1-.9s0-.5-.2-.6c-.2-.2-.4-.2-.6-.2-.4,0-.7.2-1.1.4-.5.3-1.1.9-1.7,1.6l-1.1,5.5h-1.2l1.2-6c0-.4.2-.8.2-1.3s0-.5-.1-.8l1.2-.6Z"/>
    <path class="st0" d="M271.9,105.9c-.9-.5-1.5-.6-1.8-.6-.6,0-1,.1-1.3.3-.2.1-.5.4-.5,1s0,.4.1.5c.1.2.5.4.7.5l1,.4c.5.2.9.4,1.3.9.2.3.4.7.4,1.2s-.2,1.5-1.1,2.1c-.7.5-1.5.7-2.3.7-1.2,0-2-.4-2.7-.8l.5-1c.7.5,1.5.8,2.3.8s1.2-.2,1.5-.5c.3-.2.4-.6.4-1,0-.7-.4-1.1-1-1.3l-.9-.4c-.2,0-.7-.3-1-.6-.2-.3-.5-.7-.5-1.3s.2-1.5,1-2c.5-.4,1.3-.6,2.1-.6,1.2,0,1.9.4,2.3.6l-.5,1Z"/>
  </g>
  <g>
    <path class="st0" d="M123.7,50.2v-.5c-.1,0-.3-.5-.3-.5l-.2-.4-.2-.5-.2-.4-.3-.3-.3-.4-.3-.3-.3-.3-.3-.3-.4-.3-.4-.2-.4-.3-.4-.2-.4-.2h-.4c0-.1-.5-.2-.5-.2h-.4c0-.1-.5-.2-.5-.2h-.5c0,0-.5-.1-.5-.1h-.6c0,0-.5,0-.5,0h-1.1c0,0-.6.1-.6.1h-.6c0,0-.6.2-.6.2l-.5.2h-.6c0,.1-.5.3-.5.3l-.5.2-.5.2-.5.2-.5.3-.5.3-.5.3-.5.3-.5.3-.4.4-.5.3-.5.4-.4.4-.4.5-.4.4-.3.5-.3.5-.3.4-.2.4-.3.3-.2.3v.3c-.1,0-.2.1-.2.1h0c0,0,0,.1,0,.1h0c0,.1-.1.7-.1.7l-.3.9-.3,1.1h0c0,0-.2,1.3-.2,1.3l-.2,1.2v1.1s0,1.1,0,1.1v.5s.1.5.1.5v.4c.1,0,.3.5.3.5l.2.5.2.4.2.4.3.4.3.3.3.3.3.3.4.3.4.2.4.2.4.3.4.2h.4c0,.1.4.2.4.2h.5c0,0,.5.2.5.2h.5c0,0,.6.2.6.2h.5s.6,0,.6,0h1.1s.6-.1.6-.1h.6c0,0,.5-.2.5-.2h.6c0-.1.5-.2.5-.2l.6-.2.5-.2.5-.2.5-.2.5-.3.5-.2.5-.3.5-.3.5-.3.4-.4.5-.4.4-.4.4-.5.4-.5.4-.5.4-.5.4-.5.3-.5.3-.5.3-.5.2-.6.3-.6.3-.6.2-.6.2-.6h0c0,0,.3-1.4.3-1.4l.2-1.3v-1.1c0,0,0-1.1,0-1.1v-.5ZM117.2,55.5l-.2.5-.2.6-.3.6-.2.6v.3c-.1,0-.3.3-.3.3l-.2.3-.2.2-.2.3-.2.2-.2.2-.2.3-.2.2-.2.2-.3.2-.2.2-.3.2-.2.2h-.3c0,.1-.3.2-.3.2h-.2c0,0-.3.2-.3.2h-.3c0,0-.3.1-.3.1h-.3s-.3,0-.3,0h-.3c0,0-.3,0-.3,0h-.6c0,0-.3,0-.3,0h-.3s-.2,0-.2,0h-.3c0,0-.3-.2-.3-.2h-.2c0,0-.3-.3-.3-.3l-.3-.3-.2-.4-.2-.4v-.5c-.1,0-.2-.5-.2-.5v-.5c0,0,0-.5,0-.5v-1h0s0-.1,0-.1v-.3c0,0,.2-.3.2-.3v-.5c.1,0,.1,0,.1,0v-.6c.1,0,.3-.6.3-.6l.2-.6.3-.6v-.3c.1,0,.3-.3.3-.3l.2-.3.2-.3.2-.3.2-.2v-.2c.1,0,.4-.2.4-.2v-.3c.1,0,.3-.2.3-.2l.2-.2.2-.2.3-.2.2-.2h.3c0-.1.3-.2.3-.2h.3c0,0,.3-.2.3-.2h.3c0,0,.3-.1.3-.1h.3s.3,0,.3,0h.3s.3,0,.3,0h.6s.2,0,.2,0h.3s.3,0,.3,0h.3c0,0,.2.2.2.2h.2c0,0,.3.3.3.3l.3.4.3.4.2.5v.4c0,0,.2.5.2.5v2.2c0,0-.1.6-.1.6v.6c-.1,0-.1,0-.1,0Z"/>
    <polygon class="st0" points="126.5 65.9 132.5 65.9 135.3 55.4 136.8 49.7 141.8 49.7 143.1 44.9 127.1 44.9 125.9 49.7 130.9 49.7 129.3 55.4 126.5 65.9"/>
    <polygon class="st0" points="145.2 65.9 148.1 55.1 148.2 55.1 148.2 55 148.3 55 148.3 55 148.3 55 148.4 55 148.5 55 148.6 55 148.6 54.9 148.7 54.9 148.7 54.9 148.7 54.9 148.8 54.8 148.9 54.8 148.9 54.8 149 54.7 149.1 54.7 149.1 54.6 149.2 54.6 149.3 54.6 149.3 54.7 149.4 54.8 149.4 54.9 149.5 55 149.5 55 149.5 55.1 149.6 55.1 149.6 55.2 149.7 55.3 149.7 55.4 149.8 55.5 149.8 55.5 149.8 55.6 149.9 55.6 149.9 55.7 149.9 55.7 150 55.8 150.1 56 150.2 56.2 150.3 56.3 150.4 56.5 150.5 56.7 150.6 56.9 150.7 57.1 150.8 57.5 151 58 151.2 58.4 151.4 58.9 151.5 59.4 151.7 59.9 151.9 60.5 152 61.1 152.1 61.7 152.3 62.2 152.4 62.8 152.5 63.4 152.5 64 152.4 64.7 152.4 65.3 152.4 65.9 158.6 65.9 158.6 65.7 158.6 65.3 158.6 65 158.6 64.7 158.6 64.4 158.6 64 158.6 63.7 158.6 63.4 158.6 63.1 158.5 62.8 158.4 62.4 158.4 62 158.4 61.8 158.4 61.4 158.3 61.1 158.3 60.7 158.2 60.1 158 59.6 157.8 59 157.7 58.4 157.6 57.9 157.4 57.3 157.2 56.7 157.1 56.2 156.9 55.6 156.7 55.1 156.5 54.5 156.2 54 155.9 53.5 155.6 53 155.3 52.5 155 52 155.2 51.9 155.4 51.8 155.5 51.8 155.7 51.6 155.9 51.5 156.1 51.4 156.3 51.3 156.6 51.2 156.8 51.1 157 50.9 157.2 50.8 157.4 50.6 157.6 50.5 157.8 50.3 158 50.2 158.2 50.1 158.4 49.9 158.6 49.8 158.8 49.7 159 49.5 159.2 49.4 159.4 49.2 159.5 49 159.7 48.9 159.9 48.8 160.1 48.6 160.3 48.5 160.5 48.3 160.6 48.2 160.8 48 161 47.9 161.2 47.7 161.2 47.7 161.4 47.5 161.4 47.5 161.5 47.4 161.6 47.3 161.7 47.2 161.8 47.1 161.9 47 161.9 46.9 162 46.8 162.1 46.7 162.1 46.6 162.2 46.6 162.4 46.5 162.5 46.5 162.5 46.4 162.7 46.2 162.8 46 162.9 45.8 163.1 45.7 163.2 45.5 163.3 45.3 163.4 45.2 163.6 45 156.5 45 156.2 45.3 156 45.5 155.7 45.8 155.4 46 155.2 46.2 155 46.4 154.7 46.7 154.4 46.8 154.2 46.9 154.1 47 153.9 47.1 153.7 47.3 153.6 47.4 153.5 47.5 153.3 47.6 153.2 47.7 153 47.7 152.9 47.8 152.7 47.9 152.5 48 152.4 48.1 152.3 48.2 152.1 48.2 152 48.3 151.9 48.3 151.7 48.4 151.5 48.6 151.4 48.6 151.2 48.7 151.1 48.7 151 48.7 150.8 48.8 150.7 48.9 150.5 49 150.3 49 150.2 49.1 150 49.1 149.9 49.2 149.8 49.3 149.6 49.3 150.8 45 144.9 45 139.2 65.9 145.2 65.9"/>
    <polygon class="st0" points="166.2 65.9 170.5 49.7 173.3 49.7 173.5 49.7 173.7 49.7 173.9 49.8 174.1 49.8 174.2 49.8 174.4 49.9 174.6 49.9 174.7 49.9 175 49.9 175.3 50 175.5 50.1 175.6 50.3 175.8 50.4 176 50.5 176.1 50.7 176.3 50.9 176.4 51.1 176.4 51.2 176.5 51.3 176.6 51.5 176.6 51.6 176.6 51.8 176.6 51.9 176.6 52.1 176.6 52.2 176.6 52.3 176.6 52.4 176.6 52.5 176.6 52.6 176.5 52.7 176.4 52.8 176.4 52.9 176.4 53 176.4 53.1 176.4 53.1 176.4 53.2 176.3 53.6 176.1 54 176 54.3 175.8 54.7 175.6 55 175.3 55.3 175 55.5 174.7 55.7 174.6 55.8 174.4 55.9 174.3 56 174.1 56.1 173.9 56.2 173.8 56.2 173.5 56.3 173.4 56.3 173.2 56.4 173.1 56.4 172.9 56.4 172.7 56.5 172.5 56.5 172.4 56.5 172.2 56.5 172 56.5 171.9 56.5 171.7 56.5 171.6 56.5 171.5 56.5 171.3 56.5 171.2 56.5 171 56.4 170.9 56.4 170.8 56.4 170.7 56.4 170.5 56.3 170.4 56.3 170.3 56.3 170.2 56.2 170.1 56.2 169.9 56.2 168.7 60.8 168.9 60.8 169.1 60.9 169.3 61 169.5 61.1 169.7 61.1 169.9 61.1 170.1 61.1 170.3 61.1 170.5 61.1 170.7 61.2 170.9 61.2 171.1 61.2 171.3 61.2 171.5 61.2 171.7 61.2 171.9 61.2 172.4 61.2 172.9 61.2 173.5 61.1 174 61.1 174.4 61 174.9 60.8 175.3 60.7 175.8 60.6 176.2 60.4 176.6 60.3 176.9 60.1 177.4 59.9 177.7 59.6 178.1 59.4 178.5 59.1 178.8 58.9 179.1 58.6 179.5 58.3 179.8 58 180.1 57.7 180.4 57.4 180.7 57 180.9 56.7 181.2 56.3 181.4 56 181.6 55.6 181.8 55.2 182 54.8 182.1 54.4 182.3 54 182.4 53.6 182.5 53.2 182.5 53.1 182.6 53.1 182.6 53 182.6 52.9 182.6 52.8 182.6 52.8 182.7 52.8 182.7 52.7 182.7 52.7 182.7 52.6 182.7 52.5 182.7 52.5 182.7 52.5 182.7 52.4 182.7 52.4 182.7 52.4 182.8 52.3 182.8 52.3 182.8 52.2 182.8 52.2 182.9 51.5 182.9 50.8 182.8 50.2 182.7 49.5 182.6 49 182.4 48.4 182.1 47.8 181.8 47.3 181.6 47 181.4 46.7 181.1 46.5 180.8 46.3 180.6 46.1 180.2 45.8 179.9 45.7 179.6 45.6 179.1 45.5 178.7 45.3 178.3 45.3 177.8 45.2 177.3 45.1 176.8 45 176.2 45 175.6 45 165.8 45 160.2 65.9 166.2 65.9"/>
    <polygon class="st0" points="191.1 65.9 191.2 65.9 191.4 65.9 191.6 65.9 191.8 65.9 192 65.9 192.3 65.9 192.6 65.9 192.9 65.9 193 65.9 193.1 65.8 193.3 65.8 193.5 65.8 193.7 65.7 193.9 65.7 194.1 65.7 194.2 65.6 194.4 65.6 194.6 65.6 194.7 65.5 194.9 65.5 195.1 65.4 195.3 65.4 195.5 65.3 195.7 65.2 196 65.1 196.2 65.1 196.4 65 196.7 64.9 196.9 64.7 197.2 64.6 197.5 64.4 197.7 64.3 198 64.2 198.2 64 198.4 63.9 198.7 63.7 198.9 63.6 199.2 63.4 199.4 63.2 199.7 63 199.9 62.8 200.2 62.5 200.4 62.3 200.6 62 200.8 61.8 201 61.5 201.2 61.2 201.4 60.9 201.8 60.2 202.1 59.5 202.4 58.7 202.6 57.9 202.7 57 202.8 56.2 202.9 55.5 202.9 55.4 202.8 54.7 202.7 54 202.5 53.4 202.3 52.8 202 52.2 201.8 51.9 201.5 51.7 201.2 51.4 201 51.1 200.7 50.9 200.4 50.7 200.1 50.5 199.8 50.3 199.4 50.2 199 50.1 198.7 50 198.3 49.9 197.9 49.9 197.4 49.9 197 49.8 196.5 49.8 196.4 49.8 196.2 49.9 196 49.9 195.9 49.9 195.7 49.9 195.6 49.9 195.4 49.9 195.3 49.9 195.2 49.9 195.1 49.9 195 50 194.9 50 194.7 50 194.6 50 194.5 50 194.4 50 194.3 50 194.3 50 194.2 50.1 194.2 50.1 194.1 50.1 194.1 50.1 194 50.1 194 50.1 193.9 50.1 193.9 50.1 193.8 50.1 193.8 50.1 193.7 50.2 193.7 50.2 193.7 50.2 193.6 50.2 193.6 50.2 193.5 50.2 193.5 50.2 193.4 50.2 193.4 50.2 193.3 50.2 193.3 50.2 193.2 50.3 193.2 50.3 193.1 50.3 193.1 50.3 193.1 50.3 193 50.3 192.9 50.3 191.7 55 191.8 55 191.8 55 191.9 54.9 191.9 54.9 191.9 54.9 192 54.9 192.1 54.8 192.2 54.8 192.3 54.8 192.4 54.7 192.5 54.7 192.6 54.7 192.8 54.6 192.9 54.6 192.9 54.6 193.1 54.6 193.2 54.5 193.3 54.5 193.4 54.5 193.5 54.5 193.7 54.5 193.8 54.5 194 54.5 194.2 54.6 194.4 54.6 194.6 54.6 194.8 54.6 195 54.7 195.2 54.8 195.3 54.8 195.6 55 195.9 55.1 196.1 55.4 196.2 55.6 196.4 55.9 196.5 56.2 196.6 56.4 196.6 56.7 196.6 57 196.6 57.3 196.5 57.6 196.4 57.9 196.3 58.4 196.1 58.9 195.9 59.4 195.6 59.8 195.5 59.9 195.3 60.1 195.2 60.2 195 60.3 194.8 60.4 194.6 60.5 194.4 60.6 194.2 60.6 194.1 60.7 193.9 60.7 193.7 60.8 193.5 60.9 193.3 61 193.1 61.1 192.9 61.1 192.7 61.1 192.5 61.1 192.3 61.1 192.1 61.2 191.9 61.2 191.7 61.2 191.5 61.2 191.3 61.2 191.1 61.2 191 61.2 191 61.2 190.9 61.2 190.9 61.2 190.8 61.2 190.8 61.2 189 61.2 190.6 55.4 193.3 44.9 187.4 44.9 184.5 55.4 181.7 65.9 191.1 65.9"/>
    <polygon class="st0" points="207.7 65.9 210.5 55.4 213.3 44.9 207.3 44.9 204.5 55.4 201.7 65.9 207.7 65.9"/>
    <polygon class="st0" points="214.5 65.9 220.5 65.9 224.8 49.7 229.8 49.7 231.1 45 215 45 213.9 49.7 218.8 49.7 214.5 65.9"/>
    <polygon class="st0" points="227.1 65.9 236.5 65.9 236.7 65.9 236.8 65.9 237 65.9 237.2 65.9 237.4 65.9 237.7 65.9 238 65.9 238.3 65.9 238.5 65.9 238.6 65.8 238.8 65.8 239 65.8 239.1 65.7 239.3 65.7 239.5 65.7 239.7 65.6 239.8 65.6 240 65.6 240.1 65.5 240.4 65.5 240.5 65.4 240.7 65.4 240.9 65.3 241.1 65.2 241.4 65.1 241.6 65.1 241.8 65 242.1 64.9 242.4 64.7 242.7 64.6 242.9 64.4 243.1 64.3 243.4 64.2 243.6 64 243.9 63.9 244.1 63.7 244.4 63.6 244.6 63.4 244.9 63.2 245.1 63 245.3 62.8 245.6 62.5 245.8 62.3 246 62 246.2 61.8 246.5 61.5 246.7 61.2 246.9 60.9 247.2 60.2 247.5 59.5 247.8 58.7 248 57.9 248.2 57 248.3 56.2 248.3 55.5 248.3 55.4 248.3 54.7 248.2 54 247.9 53.4 247.7 52.8 247.4 52.2 247.2 51.9 246.9 51.7 246.7 51.4 246.5 51.1 246.2 50.9 245.9 50.7 245.5 50.5 245.2 50.3 244.9 50.2 244.5 50.1 244.1 50 243.7 49.9 243.3 49.9 242.9 49.9 242.4 49.8 241.9 49.8 241.8 49.8 241.6 49.9 241.4 49.9 241.3 49.9 241.2 49.9 241 49.9 240.9 49.9 240.8 49.9 240.7 49.9 240.6 49.9 240.4 50 240.3 50 240.1 50 240 50 239.9 50 239.8 50 239.7 50 239.7 50 239.6 50.1 239.6 50.1 239.5 50.1 239.5 50.1 239.4 50.1 239.4 50.1 239.4 50.1 239.3 50.1 239.2 50.1 239.2 50.1 239.2 50.2 239.1 50.2 239.1 50.2 239 50.2 239 50.2 239 50.2 238.9 50.2 238.9 50.2 238.8 50.2 238.8 50.2 238.7 50.2 238.7 50.3 238.6 50.3 238.6 50.3 238.6 50.3 238.5 50.3 238.5 50.3 238.4 50.3 237.1 55 237.2 55 237.2 55 237.3 54.9 237.3 54.9 237.4 54.9 237.4 54.9 237.5 54.8 237.6 54.8 237.8 54.8 237.8 54.7 237.9 54.7 238.1 54.7 238.2 54.6 238.3 54.6 238.4 54.6 238.5 54.6 238.6 54.5 238.8 54.5 238.8 54.5 239 54.5 239.1 54.5 239.2 54.5 239.4 54.5 239.7 54.6 239.8 54.6 240.1 54.6 240.3 54.6 240.4 54.7 240.6 54.8 240.8 54.8 241 55 241.3 55.1 241.5 55.4 241.7 55.6 241.8 55.9 241.9 56.2 242 56.4 242 56.7 242 57 242 57.3 241.9 57.6 241.8 57.9 241.7 58.4 241.5 58.9 241.3 59.4 241 59.8 240.9 59.9 240.8 60.1 240.6 60.2 240.4 60.3 240.3 60.4 240.1 60.5 239.8 60.6 239.7 60.6 239.5 60.7 239.3 60.7 239.1 60.8 238.9 60.9 238.8 61 238.6 61.1 238.4 61.1 238.1 61.1 237.9 61.1 237.7 61.1 237.5 61.2 237.3 61.2 237.1 61.2 236.9 61.2 236.7 61.2 236.5 61.2 236.5 61.2 236.4 61.2 236.4 61.2 236.3 61.2 236.3 61.2 236.2 61.2 234.4 61.2 236 55.4 238.8 44.9 232.8 44.9 230 55.4 227.1 65.9"/>
    <polygon class="st0" points="253.1 65.9 255.9 55.4 258.7 44.9 252.8 44.9 249.9 55.4 247.1 65.9 253.1 65.9"/>
    <polygon class="st0" points="266.9 53.7 266.3 56.1 274.1 56.1 274.8 53.7 275.4 51.4 267.5 51.4 266.9 53.7"/>
    <polygon class="st0" points="144.9 77.5 145.1 77.5 145.3 77.6 145.4 77.6 145.5 77.6 145.7 77.7 145.9 77.7 146.1 77.8 146.3 77.8 146.4 77.8 146.5 77.8 146.7 77.8 147.8 73.3 147.7 73.2 147.5 73.2 147.3 73.2 147 73.1 146.8 73.1 146.6 73 146.4 72.9 146.1 72.9 145.9 72.9 145.7 72.9 145.4 72.8 145.1 72.8 144.9 72.8 144.6 72.8 144.3 72.8 144 72.8 143.4 72.8 142.7 72.9 142 72.9 141.4 73 140.8 73.2 140.1 73.3 139.5 73.5 139 73.7 138.4 73.9 137.8 74.1 137.2 74.3 136.7 74.6 136.1 74.8 135.6 75.2 135.1 75.5 134.6 75.8 134.2 76.2 133.7 76.6 133.3 77 132.9 77.5 132.5 78 132.1 78.4 131.8 78.9 131.7 79 131.4 79.4 131.2 79.9 130.8 80.4 130.6 80.9 130.3 81.5 130.1 82 129.8 82.6 129.6 83.1 129.4 83.7 129.4 83.8 129.4 83.9 129.3 84 129.3 84.1 129.3 84.1 129.3 84.2 129.3 84.3 129.3 84.4 129.3 84.4 129.3 84.4 129.3 84.5 129.3 84.6 129.3 84.7 129.3 84.7 129.3 84.8 129.3 84.9 129.1 85.8 129.1 86.7 129.1 87.6 129.2 88.5 129.3 89.3 129.5 90.1 129.8 90.9 130.2 91.7 130.4 92.1 130.6 92.4 130.9 92.7 131.2 93 131.6 93.3 132 93.6 132.4 93.8 132.9 94 133.3 94.1 133.8 94.3 134.4 94.4 135 94.5 135.6 94.6 136.2 94.6 136.8 94.7 137.5 94.7 137.7 94.7 137.9 94.7 138.1 94.6 138.3 94.6 138.4 94.6 138.6 94.6 138.8 94.6 139 94.6 139.2 94.6 139.6 94.6 139.8 94.6 140.1 94.6 140.4 94.5 140.7 94.5 141 94.4 141.2 94.4 141.5 94.4 141.7 94.3 142 94.3 142.2 94.2 143.5 89.6 143.5 89.6 143.4 89.6 143.3 89.7 143.2 89.7 143.2 89.7 143.1 89.7 143.1 89.7 143.1 89.7 143 89.7 142.9 89.8 142.9 89.8 142.8 89.8 142.7 89.8 142.7 89.8 142.6 89.8 142.6 89.8 142.4 89.9 142.3 89.9 142.2 89.9 142 90 141.9 90 141.8 90 141.7 90 141.6 90 141.4 90 141.3 90 141.2 90.1 141.1 90.1 141 90.1 141 90.1 140.8 90.1 140.8 90.1 140.7 90.1 140.6 90.2 140.5 90.2 140.4 90.2 140.3 90.2 140.2 90.2 140.1 90.2 140.1 90.2 139.9 90.2 139.8 90.2 139.6 90.1 139.5 90.1 139.4 90.1 139.2 90.1 139 90.1 138.9 90.1 138.7 90.1 138.6 90 138.4 89.9 138.2 89.9 138.1 89.9 137.9 89.8 137.7 89.8 137.6 89.7 137.3 89.6 137 89.4 136.8 89.2 136.5 89 136.3 88.7 136.1 88.5 135.8 88.1 135.7 87.8 135.6 87.5 135.4 87.1 135.3 86.6 135.2 86.1 135.3 85.6 135.4 85 135.5 84.4 135.6 83.7 135.8 83 136.1 82.4 136.5 81.8 136.8 81.2 137 80.9 137.2 80.6 137.4 80.4 137.6 80.1 137.8 79.9 138.1 79.6 138.3 79.4 138.6 79.2 138.9 79 139.2 78.8 139.4 78.6 139.8 78.4 140.1 78.2 140.4 78.1 140.7 78 141 77.8 141.4 77.8 141.7 77.7 142 77.6 142.4 77.6 142.8 77.5 143.1 77.5 143.5 77.5 143.9 77.5 144.1 77.5 144.3 77.5 144.5 77.5 144.8 77.5 144.9 77.5"/>
    <polygon class="st0" points="270.8 65.9 272.1 61.2 263.8 61.2 265.8 53.7 266.9 49.7 274.6 49.7 275.9 44.9 262.2 44.9 259.8 53.7 256.5 65.9 270.8 65.9"/>
    <polygon class="st0" points="163.1 73.4 162.9 73.5 162.7 73.6 162.5 73.7 162.4 73.8 162.2 73.8 162 73.9 161.8 74 161.6 74.1 161.4 74.2 161.2 74.3 161 74.4 160.7 74.6 160.6 74.6 160.4 74.8 160.2 74.9 160 75 159.8 75.2 159.6 75.3 159.4 75.4 159.1 75.6 158.9 75.7 158.7 75.9 158.4 76.1 158.3 76.2 158.1 76.3 157.8 76.5 157.6 76.7 157.4 76.8 157.2 77 156.9 77.1 156.7 77.4 156.6 77.5 156.4 77.6 156.3 77.6 156.2 77.8 156 77.8 155.9 77.9 155.8 78 155.7 78.1 155.6 78.2 155.4 78.3 155.3 78.4 155.2 78.6 155.1 78.6 155.1 78.7 154.9 78.8 154.8 78.9 154.7 79 156.2 73.4 150.2 73.4 144.6 94.3 150.6 94.3 152.8 86.1 152.9 86 153.1 85.9 153.2 85.8 153.3 85.7 153.4 85.5 153.5 85.4 153.6 85.2 153.8 85.1 153.8 85 153.9 85 153.9 84.9 154 84.9 154 84.9 154 84.8 154.1 84.7 154.1 84.7 154.3 84.6 154.4 84.5 154.5 84.4 154.5 84.4 154.6 84.3 154.8 84.2 154.8 84.1 154.9 84 155.1 83.9 155.3 83.7 155.6 83.5 155.8 83.4 156 83.2 156.2 83 156.4 82.8 156.6 82.6 156.7 82.5 156.9 82.4 156.9 82.4 157 82.3 157.1 82.2 157.2 82.2 157.4 82.1 157.5 82 157.6 81.9 157.7 81.8 157.8 81.7 157.9 81.6 158 81.6 158.1 81.6 158.2 81.5 158.4 81.4 158.5 81.2 158.8 81.1 159 81 159.2 80.8 159.4 80.7 159.6 80.5 159.8 80.4 160 80.3 160.2 80.1 160.4 80 160.6 79.9 160.7 79.8 160.9 79.7 161.1 79.6 161.4 79.5 161.6 79.4 157.5 94.3 163.5 94.3 169.1 73.4 163.1 73.4"/>
    <polygon class="st0" points="187.1 73.3 186.9 73.3 186.7 73.3 186.4 73.2 186.2 73.2 186 73.1 185.8 73.1 185.5 73 185.3 73 185.1 73 184.8 72.9 184.6 72.9 184.3 72.9 184 72.9 183.7 72.9 183.5 72.9 182.8 72.9 182.1 73 181.4 73.1 180.8 73.1 180.2 73.3 179.6 73.4 179 73.6 178.4 73.8 177.8 73.9 177.2 74.1 176.7 74.4 176.1 74.6 175.6 74.9 175 75.3 174.6 75.6 174 75.9 173.6 76.3 173.2 76.7 172.7 77.1 172.3 77.6 171.9 78 171.5 78.5 171.2 79 170.9 79.5 170.6 80 170.3 80.4 170 81 169.7 81.6 169.5 82.1 169.2 82.6 169 83.2 168.9 83.8 168.9 83.9 168.8 84 168.8 84.1 168.8 84.2 168.8 84.2 168.8 84.3 168.8 84.4 168.8 84.4 168.8 84.5 168.7 84.5 168.7 84.6 168.7 84.7 168.7 84.7 168.7 84.8 168.7 84.9 168.7 85 168.6 85.9 168.5 86.8 168.5 87.7 168.6 88.5 168.7 89.4 169 90.2 169.2 91 169.6 91.8 169.8 92.1 170 92.5 170.3 92.8 170.7 93.1 171 93.4 171.4 93.7 171.8 93.9 172.3 94.1 172.8 94.2 173.3 94.4 173.8 94.5 174.4 94.6 175 94.6 175.6 94.7 176.3 94.8 176.9 94.8 177.1 94.8 177.3 94.8 177.5 94.7 177.7 94.7 177.8 94.7 178 94.6 178.2 94.6 178.4 94.6 178.7 94.6 179 94.6 179.3 94.6 179.6 94.6 179.8 94.6 180.1 94.6 180.4 94.5 180.6 94.5 180.9 94.4 181.2 94.4 181.4 94.4 181.6 94.3 182.9 89.7 182.9 89.7 182.8 89.7 182.7 89.8 182.6 89.8 182.6 89.8 182.6 89.8 182.5 89.8 182.5 89.8 182.4 89.8 182.4 89.9 182.3 89.9 182.2 89.9 182.1 89.9 182.1 89.9 182.1 89.9 182 89.9 181.8 89.9 181.7 90 181.6 90 181.4 90.1 181.3 90.1 181.2 90.1 181.1 90.1 181 90.1 180.9 90.1 180.8 90.1 180.6 90.2 180.6 90.2 180.5 90.2 180.4 90.2 180.3 90.2 180.2 90.2 180.1 90.2 180 90.2 179.9 90.3 179.8 90.3 179.7 90.3 179.6 90.3 179.6 90.3 179.5 90.3 179.3 90.3 179.2 90.2 179.1 90.2 178.9 90.2 178.8 90.2 178.6 90.2 178.4 90.2 178.3 90.2 178.1 90.2 178 90.1 177.8 90 177.6 90 177.5 89.9 177.4 89.9 177.2 89.9 177 89.8 176.8 89.7 176.5 89.5 176.2 89.3 175.9 89.1 175.7 88.8 175.5 88.5 175.3 88.2 175.1 87.9 175 87.6 174.8 87.2 174.7 86.7 174.7 86.2 174.7 85.7 174.8 85.1 174.9 84.4 175 83.8 175.3 83.2 175.6 82.4 175.9 81.8 176.2 81.3 176.4 81 176.6 80.7 176.8 80.4 177 80.2 177.2 80 177.5 79.7 177.7 79.5 178 79.3 178.3 79.1 178.6 78.8 178.9 78.7 179.2 78.5 179.5 78.3 179.8 78.2 180.1 78 180.5 77.9 180.8 77.8 181.1 77.8 181.4 77.7 181.8 77.7 182.2 77.6 182.6 77.6 183 77.6 183.4 77.6 183.5 77.6 183.7 77.6 183.9 77.6 184.2 77.6 184.3 77.6 184.5 77.6 184.7 77.7 184.8 77.7 185 77.7 185.2 77.8 185.4 77.8 185.5 77.8 185.7 77.8 185.8 77.9 185.9 77.9 186.1 77.9 187.3 73.4 187.1 73.3"/>
    <polygon class="st0" points="203.9 73.4 187.9 73.4 186.7 78.1 191.7 78.1 187.3 94.3 193.4 94.3 197.7 78.1 202.7 78.1 203.9 73.4"/>
    <polygon class="st0" points="210.4 82.1 209.7 84.4 217.6 84.4 218.3 82.1 218.9 79.8 211 79.8 210.4 82.1"/>
    <polygon class="st0" points="209.3 82.1 210.1 79 210.3 78 218.1 78 219.4 73.3 205.6 73.3 204.1 79 203.3 82.1 200 94.2 214.3 94.2 215.6 89.6 207.3 89.6 209.3 82.1"/>
    <polygon class="st0" points="240 73.3 239.9 73.4 239.8 73.6 239.6 73.7 239.5 73.8 239.4 73.9 239.2 74 239.1 74.1 238.9 74.2 238.8 74.4 238.6 74.5 238.5 74.6 238.4 74.8 238.2 74.8 238.1 74.9 238 75 237.8 75.2 237.7 75.4 237.5 75.5 237.3 75.7 237.1 75.9 236.9 76.1 236.7 76.3 236.5 76.5 236.3 76.7 236.2 76.8 236.1 76.9 236 77 235.9 77.1 235.8 77.2 235.8 77.4 235.6 77.4 235.5 77.5 235.4 77.6 235.3 77.7 235.2 77.9 235.1 78 235 78.1 234.9 78.2 234.8 78.3 234.8 78.4 234.5 78.6 234.3 78.9 234.1 79.2 233.8 79.5 233.6 79.7 233.4 80 233.2 80.3 233 80.5 232.8 80.8 232.6 81.1 232.5 81.3 232.3 81.6 232.2 81.9 232 82.1 231.9 82.3 231.8 82.4 231.7 82.4 231.7 82.3 231.6 82.1 231.6 81.8 231.6 81.5 231.5 81.3 231.5 81.1 231.5 80.8 231.4 80.6 231.4 80.4 231.3 80.1 231.2 79.8 231.1 79.5 231.1 79.3 231 79 230.9 78.7 230.8 78.4 230.7 78.2 230.7 78 230.5 77.7 230.5 77.4 230.4 77.2 230.4 77 230.3 76.8 230.2 76.5 230.1 76.4 230 76.3 229.9 76.1 229.9 76 229.8 75.9 229.8 75.8 229.7 75.7 229.7 75.6 229.6 75.5 229.6 75.4 229.5 75.2 229.4 75.1 229.4 75 229.3 74.9 229.3 74.8 229.2 74.8 229.2 74.7 229.2 74.6 229.1 74.6 229.1 74.6 229.1 74.5 229.1 74.5 229 74.4 229 74.4 229 74.4 229 74.3 228.9 74.2 228.9 74.2 228.9 74.1 228.8 74.1 228.7 74.1 228.7 74 228.7 74 228.7 73.9 228.6 73.9 228.6 73.8 228.6 73.8 228.6 73.7 228.5 73.7 228.5 73.6 228.5 73.6 228.5 73.6 228.4 73.5 228.4 73.5 228.3 73.4 228.3 73.3 222.3 73.3 216.7 94.3 222.7 94.3 226 82 226.1 82.2 226.3 82.4 226.5 82.7 226.6 83 226.7 83.2 226.8 83.5 226.9 83.7 227 84 227.1 84.3 227.2 84.6 227.3 84.9 227.3 85.2 227.4 85.4 227.4 85.7 227.5 86 227.5 86.3 227.5 86.5 227.6 86.9 227.7 87.2 227.7 87.5 227.7 87.8 227.7 88.1 227.7 88.5 227.7 88.8 227.7 89.1 227.7 89.3 227.6 89.7 227.6 90 227.6 90.2 227.6 90.4 227.6 90.7 227.6 90.9 231.3 90.9 231.6 90.3 231.9 89.7 232.1 89.2 232.4 88.7 232.6 88.3 232.9 87.8 233.1 87.4 233.4 87 233.7 86.6 234 86.2 234.2 85.8 234.5 85.4 234.7 85.1 235 84.8 235.2 84.4 235.5 84.2 235.6 84 235.8 83.8 236 83.6 236.1 83.5 236.2 83.4 236.4 83.2 236.5 83 236.6 82.9 236.8 82.8 236.9 82.7 237 82.6 237.2 82.4 237.4 82.4 237.5 82.2 237.6 82.1 237.7 82 234.4 94.3 240.4 94.3 246 73.3 240 73.3"/>
    <polygon class="st0" points="267.9 79 266.6 83.8 263.8 94.2 269.8 94.2 272.6 83.8 273.9 79 275.4 73.3 269.4 73.3 267.9 79"/>
    <polygon class="st0" points="264.2 87.9 264.5 87.1 264.7 86.3 264.9 85.4 265 84.6 265 83.9 265 83.8 265 83.1 264.9 82.4 264.6 81.8 264.4 81.1 264 80.6 263.9 80.3 263.6 80 263.4 79.8 263.1 79.5 262.9 79.3 262.6 79 262.4 79 262.2 78.9 261.9 78.7 261.5 78.6 261.2 78.5 260.8 78.4 260.4 78.3 260 78.3 259.5 78.2 259.1 78.2 258.6 78.2 258.5 78.2 258.3 78.2 258.1 78.3 258 78.3 257.8 78.3 257.7 78.3 257.6 78.3 257.4 78.3 257.4 78.3 257.2 78.3 257.1 78.4 257 78.4 256.8 78.4 256.7 78.4 256.6 78.4 256.5 78.4 256.4 78.4 256.4 78.4 256.3 78.5 256.3 78.5 256.2 78.5 256.2 78.5 256.1 78.5 256.1 78.5 256 78.5 256 78.5 255.9 78.5 255.9 78.5 255.8 78.5 255.8 78.6 255.8 78.6 255.7 78.6 255.7 78.6 255.6 78.6 255.6 78.6 255.6 78.6 255.5 78.6 255.4 78.6 255.4 78.6 255.3 78.6 255.3 78.6 255.3 78.6 255.2 78.6 255.2 78.6 255.2 78.6 255.1 78.6 255 79 253.8 83.3 253.9 83.3 253.9 83.3 254 83.3 254 83.3 254 83.3 254.1 83.3 254.2 83.2 254.3 83.2 254.5 83.1 254.5 83.1 254.6 83.1 254.8 83 254.9 83 255 83 255.1 83 255.2 82.9 255.3 82.9 255.4 82.9 255.5 82.9 255.6 82.9 255.8 82.9 255.9 82.9 256.1 82.9 256.3 82.9 256.6 82.9 256.7 83 257 83 257.1 83 257.3 83.1 257.4 83.2 257.7 83.3 258 83.5 258.2 83.8 258.3 84 258.5 84.3 258.6 84.5 258.7 84.8 258.7 85.1 258.7 85.4 258.7 85.7 258.6 86 258.6 86.3 258.4 86.8 258.2 87.3 258 87.8 257.7 88.2 257.6 88.3 257.4 88.5 257.3 88.6 257.1 88.7 257 88.8 256.7 88.9 256.6 88.9 256.3 89 256.2 89.1 256 89.1 255.8 89.2 255.6 89.3 255.4 89.3 255.2 89.4 255 89.5 254.8 89.5 254.6 89.5 254.4 89.5 254.2 89.6 254 89.6 253.8 89.6 253.6 89.6 253.4 89.6 253.2 89.6 253.2 89.6 253.1 89.6 253.1 89.6 253 89.6 253 89.6 252.9 89.6 251.1 89.6 252.6 83.8 253.9 79 255.4 73.3 249.5 73.3 247.9 79 246.7 83.8 243.8 94.2 253.2 94.2 253.4 94.2 253.5 94.2 253.7 94.2 253.9 94.2 254.1 94.2 254.4 94.2 254.7 94.2 255 94.2 255.2 94.2 255.3 94.2 255.4 94.2 255.6 94.1 255.8 94.1 256 94.1 256.2 94 256.3 94 256.5 94 256.7 93.9 256.8 93.9 257 93.9 257.2 93.8 257.4 93.7 257.6 93.7 257.8 93.6 258 93.5 258.3 93.4 258.6 93.4 258.8 93.2 259.1 93.1 259.3 93 259.6 92.8 259.8 92.7 260 92.6 260.3 92.4 260.6 92.3 260.8 92.1 261 91.9 261.3 91.7 261.5 91.6 261.8 91.3 262 91.1 262.3 90.9 262.5 90.7 262.7 90.4 262.9 90.2 263.1 89.9 263.3 89.6 263.5 89.3 263.9 88.6 264.2 87.9"/>
  </g>
  <path class="st0" d="M85.5,87.1l-3.3-4.5-.5.3,3.2,4.5-17,10.3-1.1-1.6v-6.2c0,0-.1,0-.1,0l-7-9.6,1.7-1-.3-.5-1.7,1-.6-.8,1.7-1-.3-.5-1.7,1-1-1.4,1.7-1-.4-.5-1.7,1-1.7-2.3v-2.5l2.7-1.6v-.3.2c.1,0,1.4-.7,1.4-.7l-.4-.5-3.8,2.3-11.4-15.6,16.9-10.2,10.7,14.7.5-.3-10.9-14.9h-.2c0-.1-.2-.1-.2-.1l-17.4,10.5h-.2c0,0-.1.3-.1.3v2.1l-.9-1.2h-.2c0-.1-.2,0-.2,0h0s-17.3,10.4-17.3,10.4h0s-.2,0-.2,0v.3c-.1,0-.1,6.8-.1,6.8h.1c0,.1,1,1.5,1,1.5l-.8.4h-.2c0,0-.1.3-.1.3v6.7h.1c0,.1,11.6,16,11.6,16v.2s.2.1.2.1h.2s1-.7,1-.7v2h0v.2s11.7,15.9,11.7,15.9h0c0,0,.2.2.2.2h.2s17.4-10.5,17.4-10.5h.2s0-.3,0-.3v-2.2l.8,1.2h0c0,.1.2.2.2.2h.2s17.4-10.6,17.4-10.6h.2s0-.3,0-.3v-7c0,0-.3,0-.3,0ZM66.1,90l-17,10.3-11.4-15.5,17.1-10.3,11.3,15.5ZM66.2,90.6v6l-16.8,10.1v-6l16.8-10.1ZM36.2,83.2l16.9-10.1v1.8s-15.7,9.5-15.7,9.5h-.2c0,0-.1.3-.1.3v4l-.9.5v-6h0s0,0,0,0ZM37.7,85.8l11.1,15.1v5.6l-11.1-15.1v-5.6ZM43.5,56.3l11.1,15.2v2.4s-.9.6-.9.6v-1.9s0-.2,0-.2h-.2c0-.1,0-.1,0-.1l-10-13.7v-2.3ZM41.7,57l11.3,15.5-17,10.2-11.3-15.4,17-10.3ZM24.5,73.7v-5.7l11,15h0v5.7l-11-15ZM35.6,97.8l-11.1-15.1v-5.6l11.1,15.1v5.7ZM36,91.7l-11.4-15.5.7-.4,10.2,13.9h0c0,.1,0,.2,0,.2h.2c0,.1.2,0,.2,0l1-.6v1.6l-1,.7ZM37.2,93.4v.3c-.1,0-.1,4-.1,4l-.8.5v-6l.9-.6.9,1.2-.7.4h-.2ZM48.8,115.5l-11-15.1v-5.6l11,15.1v5.6ZM49.1,109.2l-11.3-15.5.7-.4,10.3,14v.2s.2.1.2.1h.2s16.2-9.8,16.2-9.8l.8,1.1-17,10.2ZM66.2,105.6l-16.8,10.1v-6l16.8-10.1v6ZM67.8,103.8l-.8-1.2v-3.5h0c0,0,0-.2,0-.2l-1-1.3.9-.5h.1s0-.1,0-.1l.9,1.3v5.5ZM85.2,94l-16.8,10.2v-6l16.8-10.1v6Z"/>
  <g>
    <polygon class="st1" points="75.3 57.7 58.3 67.9 69.6 83.3 86.5 73.1 75.3 57.7"/>
    <polygon class="st1" points="70.2 84.6 70.2 89.9 86.8 79.8 86.8 74.6 70.2 84.6"/>
    <polygon class="st1" points="58 74.5 68.7 89.1 68.7 84.5 58 69.9 58 74.5"/>
  </g>
</svg>