<svg width="227" height="48" viewBox="0 0 227 48" fill="none" xmlns="http://www.w3.org/2000/svg">
<mask id="mask0_313_15942" style="mask-type:luminance" maskUnits="userSpaceOnUse" x="0" y="0" width="227" height="48">
<path d="M227 0H0V47.9323H227V0Z" fill="white" style="fill:white;fill-opacity:1;"/>
</mask>
<g mask="url(#mask0_313_15942)">
<path d="M80.7564 27.1758V8.34108H88.2176C89.3348 8.32675 90.4366 8.60503 91.4155 9.14877C92.3483 9.66352 93.1267 10.4223 93.669 11.3455C94.2112 12.2687 94.4974 13.3222 94.4974 14.3955C94.4974 15.4689 94.2112 16.5224 93.669 17.4456C93.1267 18.3687 92.3483 19.1275 91.4155 19.6423C90.4364 20.1853 89.3347 20.4632 88.2176 20.4491H83.688V27.1758H80.7564ZM88.2176 17.7589C88.6587 17.7693 89.0972 17.6873 89.5054 17.5182C89.9136 17.3491 90.2827 17.0964 90.5894 16.7762C91.2049 16.1366 91.5492 15.28 91.5492 14.3882C91.5492 13.4965 91.2049 12.6399 90.5894 12.0003C90.2806 11.6836 89.9109 11.4342 89.503 11.2674C89.095 11.1006 88.6576 11.0199 88.2176 11.0303H83.688V17.7571L88.2176 17.7589ZM100.343 27.1758H97.4114V8.34108H100.343V27.1758ZM106.445 27.1758H103.007L109.67 17.3815L103.541 8.34108H107.031L111.535 15.149H111.588L116.092 8.34108H119.53L113.4 17.3013L120.062 27.1758H116.572L111.535 19.5611H111.482L106.445 27.1758ZM141.913 27.1758H138.583L134.719 20.1801H130.322V27.1758H127.395V8.34108H135.122C136.224 8.32284 137.313 8.59159 138.282 9.12142C139.188 9.61631 139.944 10.3513 140.467 11.2473C140.995 12.1611 141.267 13.203 141.253 14.2611C141.267 15.4206 140.936 16.5576 140.305 17.5261C139.673 18.4945 138.769 19.2502 137.709 19.6961L141.913 27.1758ZM130.322 11.0303V17.4872H135.119C135.544 17.5037 135.969 17.4312 136.365 17.2743C136.762 17.1175 137.122 16.8796 137.424 16.5756C137.719 16.2708 137.951 15.9087 138.104 15.511C138.258 15.1134 138.33 14.6885 138.316 14.262C138.336 13.8326 138.267 13.4039 138.113 13.0031C137.96 12.6022 137.725 12.2382 137.424 11.9343C137.123 11.6304 136.762 11.3933 136.365 11.2381C135.968 11.0829 135.544 11.0131 135.119 11.0331L130.322 11.0303ZM146.671 26.555C145.664 25.9784 144.83 25.1369 144.259 24.1201C143.683 23.0802 143.38 21.9084 143.38 20.7166C143.38 19.5249 143.683 18.353 144.259 17.3131C144.83 16.2962 145.664 15.4544 146.671 14.8773C147.701 14.2952 148.861 13.9895 150.041 13.9895C151.222 13.9895 152.382 14.2952 153.412 14.8773C154.419 15.4544 155.253 16.2962 155.824 17.3131C156.4 18.353 156.703 19.5249 156.703 20.7166C156.703 21.9084 156.4 23.0802 155.824 24.1201C155.253 25.1369 154.419 25.9784 153.412 26.555C152.382 27.1371 151.222 27.4428 150.041 27.4428C148.861 27.4428 147.701 27.1371 146.671 26.555ZM152.081 24.3489C152.688 23.9953 153.186 23.4784 153.519 22.8557C153.86 22.1954 154.039 21.4615 154.039 20.7166C154.039 19.9717 153.86 19.2378 153.519 18.5775C153.186 17.9547 152.688 17.4376 152.081 17.0843C151.458 16.7311 150.756 16.5456 150.042 16.5456C149.328 16.5456 148.626 16.7311 148.003 17.0843C147.395 17.4373 146.897 17.9544 146.564 18.5775C146.222 19.2378 146.044 19.9717 146.044 20.7166C146.044 21.4615 146.222 22.1954 146.564 22.8557C146.897 23.4786 147.396 23.9956 148.003 24.3489C148.626 24.7015 149.328 24.8867 150.042 24.8867C150.756 24.8867 151.458 24.7015 152.081 24.3489ZM163.486 26.8011C162.807 26.4688 162.225 25.9666 161.794 25.3426H161.766V27.1721H159.102V8.34108H161.766V16.0897H161.794C162.225 15.4675 162.808 14.9672 163.486 14.6366C164.31 14.1975 165.231 13.9753 166.163 13.9903C167.217 13.9866 168.249 14.2905 169.135 14.8655C170.062 15.4618 170.82 16.2915 171.333 17.273C171.893 18.3319 172.177 19.517 172.159 20.7171C172.177 21.9172 171.893 23.1023 171.333 24.1611C170.82 25.143 170.062 25.9731 169.135 26.5696C168.248 27.1438 167.217 27.4474 166.163 27.4438C165.231 27.46 164.311 27.239 163.486 26.8011ZM167.576 24.3526C168.166 23.9893 168.649 23.4738 168.975 22.8593C169.316 22.1991 169.495 21.4652 169.495 20.7203C169.495 19.9753 169.316 19.2414 168.975 18.5812C168.649 17.9664 168.166 17.4508 167.576 17.088C166.987 16.7353 166.315 16.5491 165.631 16.5491C164.946 16.5491 164.274 16.7353 163.685 17.088C163.095 17.4506 162.612 17.9662 162.287 18.5812C161.945 19.2414 161.767 19.9753 161.767 20.7203C161.767 21.4652 161.945 22.1991 162.287 22.8593C162.612 23.4741 163.095 23.9897 163.685 24.3526C164.274 24.7046 164.946 24.8903 165.631 24.8903C166.315 24.8903 166.987 24.7046 167.576 24.3526ZM176.916 26.5586C175.909 25.9819 175.076 25.1405 174.504 24.1237C173.927 23.0838 173.625 21.912 173.625 20.7203C173.625 19.5285 173.927 18.3567 174.504 17.3168C175.076 16.3 175.909 15.4583 176.916 14.881C177.946 14.2988 179.107 13.9931 180.287 13.9931C181.468 13.9931 182.628 14.2988 183.658 14.881C184.665 15.4584 185.498 16.3 186.07 17.3168C186.646 18.3567 186.949 19.5285 186.949 20.7203C186.949 21.912 186.646 23.0838 186.07 24.1237C185.498 25.1403 184.665 25.9818 183.658 26.5586C182.628 27.1408 181.468 27.4465 180.287 27.4465C179.107 27.4465 177.946 27.1408 176.916 26.5586ZM182.326 24.3526C182.933 23.999 183.431 23.4821 183.765 22.8593C184.106 22.1991 184.285 21.4652 184.285 20.7203C184.285 19.9753 184.106 19.2414 183.765 18.5812C183.431 17.9582 182.933 17.4412 182.326 17.088C181.703 16.7347 181.001 16.5492 180.287 16.5492C179.573 16.5492 178.871 16.7347 178.248 17.088C177.641 17.4413 177.143 17.9583 176.81 18.5812C176.468 19.2414 176.29 19.9753 176.29 20.7203C176.29 21.4652 176.468 22.1991 176.81 22.8593C177.143 23.482 177.641 23.999 178.248 24.3526C178.871 24.7052 179.573 24.8904 180.287 24.8904C181.001 24.8904 181.703 24.7052 182.326 24.3526ZM191.453 26.2086C190.706 25.3193 190.333 24.1703 190.413 23.007V16.8172H188.014V14.2647H189.481C189.648 14.2782 189.815 14.2537 189.971 14.1931C190.128 14.1325 190.268 14.0374 190.384 13.9147C190.607 13.5832 190.711 13.1839 190.677 12.7843V9.95827H193.075V14.2638H196.145V16.8163H193.075V22.7354C193.035 23.2816 193.208 23.8219 193.555 24.2422C193.738 24.4206 193.955 24.5582 194.194 24.6463C194.433 24.7344 194.687 24.771 194.94 24.7537C195.455 24.7488 195.96 24.6097 196.407 24.3498V26.9023C196.13 27.0309 195.839 27.1257 195.541 27.1849C195.168 27.2663 194.788 27.3069 194.408 27.3062C193.866 27.3415 193.324 27.2619 192.815 27.0726C192.306 26.8832 191.842 26.5883 191.453 26.2068V26.2086ZM199.037 11.3704C198.881 11.2241 198.757 11.0471 198.672 10.8504C198.587 10.6536 198.544 10.4413 198.544 10.2268C198.544 10.0122 198.587 9.79987 198.672 9.60311C198.757 9.40636 198.881 9.22935 199.037 9.08313C199.18 8.934 199.352 8.81548 199.542 8.73454C199.732 8.65361 199.936 8.61192 200.143 8.61192C200.349 8.61192 200.553 8.65361 200.743 8.73454C200.933 8.81548 201.105 8.934 201.249 9.08313C201.404 9.22935 201.528 9.40636 201.613 9.60311C201.698 9.79987 201.742 10.0122 201.742 10.2268C201.742 10.4413 201.698 10.6536 201.613 10.8504C201.528 11.0471 201.404 11.2241 201.249 11.3704C201.105 11.5193 200.933 11.6376 200.743 11.7184C200.553 11.7992 200.349 11.8408 200.143 11.8408C199.936 11.8408 199.732 11.7992 199.542 11.7184C199.353 11.6376 199.181 11.5193 199.037 11.3704ZM201.474 27.1776H198.811V14.2611H201.476L201.474 27.1776ZM207.162 26.5586C206.155 25.9821 205.322 25.1406 204.751 24.1237C204.174 23.0838 203.871 21.912 203.871 20.7203C203.871 19.5285 204.174 18.3567 204.751 17.3168C205.322 16.2998 206.155 15.4581 207.162 14.881C208.188 14.288 209.352 13.9815 210.534 13.9931C211.647 13.9701 212.748 14.2343 213.732 14.7606C214.581 15.2109 215.334 15.8283 215.944 16.5765L214.024 18.2174C213.598 17.699 213.065 17.281 212.462 16.9928C211.859 16.7046 211.201 16.5532 210.534 16.5492C209.818 16.5409 209.114 16.727 208.495 17.088C207.887 17.4412 207.389 17.9582 207.056 18.5812C206.714 19.2414 206.536 19.9753 206.536 20.7203C206.536 21.4652 206.714 22.1991 207.056 22.8593C207.389 23.4821 207.887 23.999 208.495 24.3526C209.114 24.7132 209.819 24.899 210.534 24.8904C211.252 24.9014 211.962 24.7302 212.598 24.3927C213.191 24.0776 213.72 23.6534 214.158 23.1419L216.076 24.7828C215.443 25.5536 214.664 26.1892 213.785 26.6525C212.759 27.1901 211.618 27.4631 210.462 27.4472C209.307 27.4313 208.173 27.127 207.162 26.5614V26.5586ZM219.061 26.7063C218.264 26.3042 217.563 25.7304 217.009 25.0253L218.741 23.2759C219.158 23.7609 219.654 24.1704 220.207 24.4866C220.777 24.8363 221.431 25.0225 222.098 25.0253C222.684 25.0625 223.265 24.9022 223.751 24.5695C223.931 24.4427 224.079 24.2737 224.181 24.0769C224.283 23.8801 224.337 23.6613 224.337 23.4391C224.335 23.2428 224.278 23.0512 224.172 22.8868C224.066 22.7224 223.915 22.592 223.738 22.5111C223.137 22.2092 222.508 21.9703 221.859 21.7982C221.109 21.5807 220.374 21.3108 219.661 20.9905C219.079 20.7182 218.567 20.3124 218.168 19.8055C217.729 19.2188 217.507 18.4953 217.542 17.7607C217.538 17.0906 217.733 16.4348 218.101 15.8773C218.506 15.2758 219.069 14.8003 219.727 14.5045C220.504 14.1494 221.351 13.9747 222.205 13.9931C223.135 13.9755 224.059 14.1592 224.913 14.5318C225.592 14.8151 226.212 15.2259 226.739 15.7424L225.007 17.4909C224.654 17.1717 224.248 16.9169 223.807 16.7379C223.302 16.5212 222.758 16.4114 222.209 16.4152C221.69 16.3851 221.175 16.5269 220.743 16.819C220.585 16.9204 220.454 17.0591 220.361 17.2232C220.268 17.3873 220.217 17.5718 220.21 17.7607C220.209 17.9508 220.262 18.1374 220.363 18.2974C220.465 18.4574 220.611 18.5839 220.783 18.6614C221.387 18.9544 222.016 19.1932 222.662 19.3752C223.422 19.5905 224.165 19.8601 224.887 20.1819C225.469 20.4548 225.98 20.8605 226.38 21.367C226.818 21.954 227.04 22.6773 227.005 23.4118C227.007 24.1255 226.798 24.8236 226.406 25.4173C225.979 26.0601 225.386 26.5719 224.69 26.8968C223.873 27.2799 222.98 27.4686 222.079 27.4484C221.027 27.4614 219.988 27.2055 219.06 26.7045L219.061 26.7063ZM84.8698 44.4207H85.853V46.7908H84.9953V45.2602H80.0521V46.7872H79.1953V44.417H79.6738C80.0023 44.0308 80.2432 43.5769 80.3799 43.087C80.6005 42.3899 80.7141 41.6628 80.7166 40.931L80.7546 39.1497H84.8698V44.4207ZM84.013 44.4207V39.9912H81.5897L81.5644 40.931C81.5586 41.6515 81.4504 42.3675 81.243 43.0569C81.1132 43.5502 80.8886 44.0129 80.5821 44.4188L84.013 44.4207ZM88.5074 44.9612C88.0464 44.6788 87.6644 44.2822 87.3978 43.809C87.1195 43.322 86.9757 42.7686 86.9816 42.2064C86.9742 41.6413 87.1134 41.0841 87.3852 40.5901C87.6413 40.1194 88.0148 39.7244 88.4686 39.4442C88.9155 39.1664 89.4308 39.0211 89.9556 39.0249C90.464 39.0186 90.964 39.1549 91.4002 39.4187C91.8368 39.6857 92.1923 40.0689 92.4276 40.5263C92.6844 41.0205 92.8144 41.5718 92.8059 42.1298C92.8056 42.266 92.7972 42.4021 92.7807 42.5373H87.8619C87.9006 42.8986 88.0242 43.2453 88.2226 43.5485C88.421 43.8517 88.6883 44.1026 89.0022 44.2803C89.3201 44.4589 89.6785 44.551 90.0423 44.5474C90.3985 44.5422 90.7491 44.4578 91.0693 44.3003C91.3896 44.1427 91.6714 43.9158 91.895 43.6358L92.4872 44.1827C92.2053 44.5335 91.8585 44.8255 91.4661 45.0424C91.0212 45.2837 90.5218 45.404 90.017 45.3915C89.4829 45.3941 88.9589 45.245 88.5047 44.9612H88.5074ZM91.9383 41.7861C91.8903 41.2529 91.6636 40.7521 91.2955 40.3667C91.1196 40.1922 90.9105 40.0554 90.6809 39.9646C90.4512 39.8739 90.2057 39.8312 89.9592 39.8389C89.6113 39.837 89.269 39.9268 88.9661 40.0996C88.6618 40.2722 88.4021 40.5148 88.2084 40.8079C88.0146 41.101 87.8922 41.4362 87.851 41.7861H91.9383ZM95.6211 39.1516H99.8645V45.2593H99.0077V39.9902H96.4363L96.4111 40.9319C96.4071 41.85 96.3078 42.7651 96.1149 43.6622C96.0257 44.1624 95.8035 44.6288 95.4721 45.0114C95.2079 45.261 94.8569 45.3956 94.4952 45.386C94.2954 45.3847 94.098 45.3416 93.9156 45.2593V44.4571C94.0694 44.5135 94.2313 44.5443 94.395 44.5483C94.5093 44.5509 94.6227 44.527 94.7265 44.4785C94.8302 44.43 94.9216 44.3581 94.9936 44.2684C95.2008 43.9486 95.3321 43.5849 95.3773 43.2055C95.4989 42.4544 95.5623 41.6948 95.5669 40.9338L95.6211 39.1516ZM105.581 39.3339C105.932 39.532 106.222 39.8249 106.418 40.1799C106.625 40.5597 106.729 40.9874 106.721 41.4206V45.2639H105.902V44.2803H105.889C105.689 44.5997 105.411 44.8625 105.082 45.0442C104.689 45.277 104.24 45.3957 103.784 45.387C103.419 45.394 103.058 45.3111 102.732 45.1454C102.439 44.999 102.19 44.7773 102.01 44.5027C101.841 44.2486 101.751 43.9497 101.751 43.644C101.746 43.4133 101.788 43.184 101.875 42.9705C101.962 42.757 102.091 42.5639 102.255 42.4033C102.651 42.0399 103.149 41.8107 103.68 41.7478L105.873 41.3786V41.3659C105.882 41.162 105.849 40.9584 105.776 40.768C105.703 40.5776 105.593 40.4044 105.451 40.2592C105.304 40.1179 105.131 40.0078 104.942 39.9356C104.752 39.8634 104.55 39.8305 104.348 39.8389C104.024 39.8314 103.704 39.9127 103.422 40.0741C103.141 40.2443 102.885 40.4519 102.659 40.6913L102.092 40.1443C102.358 39.8194 102.683 39.5492 103.05 39.3485C103.448 39.1296 103.895 39.0181 104.348 39.0249C104.777 39.0167 105.2 39.122 105.575 39.3302L105.581 39.3339ZM104.887 44.335C105.188 44.1614 105.437 43.9095 105.609 43.6057C105.787 43.2897 105.879 42.9316 105.874 42.5683V42.1362L103.882 42.4671C103.531 42.5092 103.2 42.6501 102.924 42.8737C102.823 42.965 102.742 43.0775 102.688 43.2034C102.633 43.3293 102.606 43.4656 102.609 43.6029C102.609 43.7407 102.64 43.8766 102.7 44.0002C102.76 44.1238 102.848 44.2318 102.956 44.3158C103.216 44.5207 103.54 44.6246 103.87 44.6084C104.225 44.6085 104.575 44.5128 104.882 44.3313L104.887 44.335ZM110.082 44.9649C109.622 44.6822 109.24 44.2856 108.973 43.8126C108.695 43.3257 108.551 42.7722 108.557 42.21C108.55 41.6449 108.689 41.0877 108.961 40.5937C109.217 40.1229 109.59 39.7279 110.044 39.4478C110.491 39.1699 111.007 39.0246 111.532 39.0285C112.041 39.0223 112.541 39.1586 112.977 39.4223C113.413 39.6896 113.769 40.0727 114.004 40.5299C114.261 41.0241 114.391 41.5754 114.383 42.1334C114.382 42.2697 114.374 42.4057 114.357 42.5409H109.441C109.48 42.9048 109.606 43.2537 109.807 43.5583C110.003 43.8609 110.269 44.1111 110.582 44.2876C110.9 44.4661 111.258 44.5581 111.622 44.5547C111.978 44.5497 112.329 44.4654 112.649 44.3078C112.969 44.1502 113.251 43.9233 113.474 43.6431L114.067 44.19C113.786 44.5408 113.439 44.8328 113.046 45.0497C112.601 45.2911 112.101 45.4114 111.596 45.3988C111.059 45.4004 110.532 45.2488 110.077 44.9612L110.082 44.9649ZM113.513 41.7898C113.463 41.2536 113.232 40.7511 112.858 40.3667C112.683 40.1921 112.474 40.0553 112.244 39.9645C112.015 39.8738 111.77 39.8311 111.523 39.8389C111.175 39.8368 110.833 39.9267 110.53 40.0996C110.226 40.2723 109.966 40.515 109.772 40.808C109.578 41.1011 109.456 41.4362 109.414 41.7861L113.513 41.7898ZM118.458 45.2639H117.6V39.9948H115.407V39.1552H120.638V39.9948H118.458V45.2639ZM129.536 39.1561H130.432L127.823 46.2193C127.667 46.7115 127.397 47.1588 127.034 47.5238C126.774 47.7367 126.46 47.8736 126.128 47.9196C125.796 47.9656 125.458 47.9188 125.15 47.7845V46.9449C125.24 46.9928 125.335 47.031 125.434 47.0588C125.551 47.0933 125.672 47.1105 125.795 47.1099C126.057 47.1038 126.31 47.0109 126.515 46.8453C126.72 46.6798 126.866 46.4509 126.93 46.1937L127.291 45.2776L124.619 39.1561H125.552L127.732 44.2083H127.757L129.536 39.1561ZM132.863 45.2639H131.999V39.1561H132.705L135.087 42.2611H135.125L137.507 39.1561H138.201V45.2639H137.343V40.6785H137.318L135.1 43.5419L132.881 40.6785H132.856L132.863 45.2639ZM141.369 45.2639H140.511V39.1561H141.369V41.7606H144.872V39.1516H145.73V45.2593H144.872V42.561H141.369V45.2639ZM149.17 44.9649C148.709 44.6825 148.327 44.2859 148.06 43.8126C147.782 43.3257 147.638 42.7722 147.644 42.21C147.637 41.6449 147.776 41.0877 148.047 40.5937C148.304 40.123 148.677 39.728 149.131 39.4478C149.578 39.1701 150.093 39.0248 150.618 39.0285C151.126 39.0223 151.626 39.1586 152.063 39.4223C152.499 39.6894 152.855 40.0725 153.09 40.5299C153.347 41.0241 153.477 41.5754 153.468 42.1334C153.468 42.2697 153.46 42.4057 153.443 42.5409H148.521C148.56 42.9022 148.684 43.2489 148.882 43.5521C149.081 43.8553 149.348 44.1062 149.662 44.2839C149.98 44.4626 150.338 44.5546 150.702 44.551C151.058 44.5458 151.409 44.4615 151.729 44.3039C152.049 44.1463 152.331 43.9195 152.555 43.6394L153.147 44.1864C152.865 44.5371 152.518 44.8291 152.126 45.046C151.681 45.2873 151.181 45.4076 150.677 45.3952C150.141 45.3971 149.616 45.2467 149.162 44.9612L149.17 44.9649ZM152.601 41.7898C152.553 41.2565 152.326 40.7558 151.958 40.3704C151.782 40.1958 151.573 40.059 151.343 39.9683C151.114 39.8776 150.868 39.8348 150.622 39.8426C150.274 39.8406 149.931 39.9305 149.628 40.1033C149.324 40.2759 149.064 40.5186 148.871 40.8117C148.677 41.1047 148.554 41.4398 148.512 41.7898H152.601ZM156.492 44.9649C156.031 44.6822 155.65 44.2856 155.383 43.8126C155.105 43.3257 154.961 42.7722 154.967 42.21C154.96 41.6449 155.099 41.0877 155.371 40.5937C155.627 40.1231 156 39.7282 156.454 39.4478C156.901 39.1699 157.417 39.0246 157.942 39.0285C158.45 39.0223 158.95 39.1586 159.387 39.4223C159.823 39.6896 160.178 40.0727 160.414 40.5299C160.671 41.0241 160.801 41.5754 160.792 42.1334C160.792 42.2697 160.784 42.4057 160.767 42.5409H155.835C155.873 42.9044 155.996 43.2533 156.196 43.5583C156.392 43.8609 156.658 44.1111 156.971 44.2876C157.289 44.4661 157.647 44.5581 158.011 44.5547C158.367 44.5497 158.718 44.4654 159.038 44.3078C159.358 44.1502 159.64 43.9233 159.863 43.6431L160.456 44.19C160.175 44.5408 159.828 44.8328 159.435 45.0497C158.99 45.291 158.491 45.4113 157.986 45.3988C157.454 45.3977 156.933 45.2461 156.481 44.9612L156.492 44.9649ZM159.923 41.7898C159.875 41.2564 159.648 40.7555 159.28 40.3704C159.104 40.1957 158.895 40.0589 158.666 39.9682C158.436 39.8775 158.191 39.8347 157.945 39.8426C157.597 39.8405 157.254 39.9304 156.952 40.1033C156.647 40.2759 156.388 40.5186 156.194 40.8117C156 41.1047 155.877 41.4398 155.836 41.7898H159.923Z" fill="white" style="fill:white;fill-opacity:1;"/>
<path fill-rule="evenodd" clip-rule="evenodd" d="M66.764 -0.00012207V35.5179H0.000976562V-0.00012207H66.764ZM31.5793 31.8851H35.1781V3.63171L49.1725 17.7616L35.1781 31.8915H63.1668L49.1725 17.7616L63.1668 3.63171H35.1781H31.5793H3.5979V31.8851L31.5793 3.63171V31.8851Z" fill="white" style="fill:white;fill-opacity:1;"/>
</g>
</svg>
