<svg width="220" height="47" viewBox="0 0 220 47" fill="none" xmlns="http://www.w3.org/2000/svg">
<g clip-path="url(#clip0_809_1393)">
<path d="M41.4287 9.33482V40.2002H56.7859V0.200195L41.4287 9.33482Z" fill="white" style="fill:white;fill-opacity:1;"/>
<path d="M39.6429 0.200195V40.2002H25V10.9695L39.6429 0.200195Z" fill="white" style="fill:white;fill-opacity:1;"/>
<path d="M23.2143 0.200195L0 21.4502V40.2002H23.2142L23.2143 0.200195Z" fill="white" style="fill:white;fill-opacity:1;"/>
<path d="M181.654 2.98779L171.278 7.6672V14.2661L181.654 9.58929V2.98779Z" fill="white" style="fill:white;fill-opacity:1;"/>
<path d="M76.9992 40.0927H69.9541V7.49902H95.3817V40.0927H88.29V14.0643H76.9992V40.0927Z" fill="white" style="fill:white;fill-opacity:1;"/>
<path fill-rule="evenodd" clip-rule="evenodd" d="M106.605 16.5155C108.6 15.0743 111.043 14.2505 113.727 14.2505C121.332 14.2505 126.931 19.9311 126.931 27.5208C126.931 35.157 121.332 40.8842 113.727 40.8842C111.115 40.8842 108.735 40.0926 106.822 38.7423V45.8451H100.01V14.9489H100.012V14.717H106.432L106.605 16.5155ZM106.309 27.5208C106.309 31.4786 109.202 34.412 113.168 34.412C117.133 34.412 120.026 31.4786 120.026 27.5208C120.026 23.6095 117.133 20.6295 113.168 20.6295C109.202 20.6295 106.309 23.6095 106.309 27.5208Z" fill="white" style="fill:white;fill-opacity:1;"/>
<path fill-rule="evenodd" clip-rule="evenodd" d="M149.44 16.6636C147.376 15.1497 144.83 14.2505 141.96 14.2505C134.402 14.2505 128.756 19.9311 128.756 27.5208C128.756 35.1104 134.402 40.8376 141.96 40.8376C144.852 40.8376 147.405 39.9357 149.45 38.3682L149.616 40.0919H150.731L156.05 40.0926V14.9489H156.047V14.717H149.627L149.44 16.6636ZM142.52 34.412C138.554 34.412 135.661 31.432 135.661 27.5208C135.661 23.563 138.554 20.6295 142.52 20.6295C146.486 20.6295 149.378 23.563 149.378 27.5208C149.378 31.4786 146.486 34.412 142.52 34.412Z" fill="white" style="fill:white;fill-opacity:1;"/>
<path d="M167.128 14.949V28.1262L178.885 14.949H182.711V40.0927H176.132V26.7759L164.422 40.0927H160.549V14.949H167.128Z" fill="white" style="fill:white;fill-opacity:1;"/>
<path d="M215.848 14.949H210.109L202.691 29.1971L195.319 14.949H189.534L185.334 40.0927H191.913L194.246 24.9599L201.991 40.1393H203.297L211.089 24.9599L213.421 40.0927H220L215.848 14.949Z" fill="white" style="fill:white;fill-opacity:1;"/>
</g>
<defs>
<clipPath id="clip0_809_1393">
<rect width="220" height="46" fill="white" style="fill:white;fill-opacity:1;" transform="translate(0 0.200195)"/>
</clipPath>
</defs>
</svg>
