<svg width="198" height="87" viewBox="0 0 198 87" fill="none" xmlns="http://www.w3.org/2000/svg">
<mask id="path-1-inside-1_407_1646" fill="white">
<path fill-rule="evenodd" clip-rule="evenodd" d="M42.0605 0.501953C37.09 0.501953 33.0605 4.53139 33.0605 9.50195V28.7704H9.14648C4.17592 28.7704 0.146484 32.7998 0.146484 37.7704V78C0.146484 82.9706 4.17592 87 9.14648 87H153.912C158.883 87 162.912 82.9706 162.912 78V50.2871H188.236C193.207 50.2871 197.236 46.2577 197.236 41.2871V9.50195C197.236 4.53139 193.207 0.501953 188.236 0.501953H42.0605Z"/>
</mask>
<path d="M33.0605 28.7704V29.7704H34.0605V28.7704H33.0605ZM162.912 50.2871V49.2871H161.912V50.2871H162.912ZM34.0605 9.50195C34.0605 5.08368 37.6423 1.50195 42.0605 1.50195V-0.498047C36.5377 -0.498047 32.0605 3.97911 32.0605 9.50195H34.0605ZM34.0605 28.7704V9.50195H32.0605V28.7704H34.0605ZM9.14648 29.7704H33.0605V27.7704H9.14648V29.7704ZM1.14648 37.7704C1.14648 33.3521 4.72821 29.7704 9.14648 29.7704V27.7704C3.62364 27.7704 -0.853516 32.2475 -0.853516 37.7704H1.14648ZM1.14648 78V37.7704H-0.853516V78H1.14648ZM9.14648 86C4.7282 86 1.14648 82.4183 1.14648 78H-0.853516C-0.853516 83.5229 3.62363 88 9.14648 88V86ZM153.912 86H9.14648V88H153.912V86ZM161.912 78C161.912 82.4183 158.33 86 153.912 86V88C159.435 88 163.912 83.5228 163.912 78H161.912ZM161.912 50.2871V78H163.912V50.2871H161.912ZM188.236 49.2871H162.912V51.2871H188.236V49.2871ZM196.236 41.2871C196.236 45.7054 192.655 49.2871 188.236 49.2871V51.2871C193.759 51.2871 198.236 46.81 198.236 41.2871H196.236ZM196.236 9.50195V41.2871H198.236V9.50195H196.236ZM188.236 1.50195C192.655 1.50195 196.236 5.08368 196.236 9.50195H198.236C198.236 3.97911 193.759 -0.498047 188.236 -0.498047V1.50195ZM42.0605 1.50195H188.236V-0.498047H42.0605V1.50195Z" fill="#D9D9D9" mask="url(#path-1-inside-1_407_1646)"/>
</svg>
