<?xml version="1.0" encoding="utf-8"?><svg xmlns="http://www.w3.org/2000/svg" xmlns:xlink="http://www.w3.org/1999/xlink"><symbol fill="none" viewBox="0 0 45 23" id="arrow-btn-right" xmlns="http://www.w3.org/2000/svg"><path fill-rule="evenodd" clip-rule="evenodd" d="M36.5.5h4l4 11-3.5 11h-4l2.864-9H16v-4h23.773L36.5.5ZM0 9.5v4h4v-4H0Zm8 4v-4h4v4H8Z" fill="#fff"/></symbol><symbol fill="none" viewBox="0 0 45 23" id="arrow-btn-right-gray" xmlns="http://www.w3.org/2000/svg"><path fill-rule="evenodd" clip-rule="evenodd" d="M36.5.5h4l4 11-3.5 11h-4l2.864-9H16v-4h23.773L36.5.5ZM0 9.5v4h4v-4H0Zm8 4v-4h4v4H8Z" fill="#607D8B"/></symbol><symbol fill="none" viewBox="0 0 45 22" id="arrow-btn-right-orange" xmlns="http://www.w3.org/2000/svg"><path fill-rule="evenodd" clip-rule="evenodd" d="M36.5 0h4l4 11L41 22h-4l2.864-9H16V9h23.773L36.5 0ZM0 9v4h4V9H0Zm8 4V9h4v4H8Z" fill="#F48A0B"/></symbol><symbol fill="none" viewBox="0 0 41 40" id="arrow-circl-right" xmlns="http://www.w3.org/2000/svg"><path d="M20.266 26.667 26.933 20m0 0-6.667-6.666M26.933 20H13.6m23.333 0c0 9.205-7.462 16.667-16.667 16.667C11.062 36.667 3.6 29.205 3.6 20c0-9.205 7.462-16.666 16.666-16.666 9.205 0 16.667 7.461 16.667 16.666Z" stroke="#F3F3F3" stroke-width="2" stroke-linecap="round" stroke-linejoin="round"/></symbol><symbol fill="none" viewBox="0 0 37 36" id="arrow-down" xmlns="http://www.w3.org/2000/svg"><path d="M18.5 8.667v18.666m0 0L27.832 18m-9.334 9.333L9.166 18" stroke="#fff" stroke-width="2" stroke-linecap="round" stroke-linejoin="round"/></symbol><symbol fill="none" viewBox="0 0 37 36" id="btn-arrow" xmlns="http://www.w3.org/2000/svg"><path d="m11.834 11.333 13.333 13.334m0 0V11.333m0 13.334H11.834" stroke="#fff" stroke-width="3" stroke-linecap="round" stroke-linejoin="round"/></symbol><symbol fill="none" viewBox="0 0 24 24" id="check-gray" xmlns="http://www.w3.org/2000/svg"><path d="m9.55 18-5.7-5.7 1.425-1.425L9.55 15.15l9.175-9.175L20.15 7.4 9.55 18Z" fill="#607D8B"/></symbol><symbol fill="none" viewBox="0 0 24 24" id="check-white" xmlns="http://www.w3.org/2000/svg"><path d="m9.55 18-5.7-5.7 1.425-1.425L9.55 15.15l9.175-9.175L20.15 7.4 9.55 18Z" fill="#fff"/></symbol><symbol fill="none" viewBox="0 0 32 26" id="curved-arrow-down" xmlns="http://www.w3.org/2000/svg"><path d="M22.203 24.865a1.093 1.093 0 0 0 1.546 0l6.957-6.957a1.093 1.093 0 1 0-1.546-1.546l-6.184 6.184-6.183-6.184a1.093 1.093 0 0 0-1.546 1.546l6.956 6.957ZM.582 2.216h15.835V.03H.582v2.186Zm21.301 5.466v16.41h2.186V7.682h-2.186Zm-5.465-5.466a5.466 5.466 0 0 1 5.465 5.466h2.186A7.652 7.652 0 0 0 16.418.03v2.186Z" fill="#DBDBDB"/></symbol><symbol fill="none" viewBox="0 0 32 26" id="curved-arrow-down-orange" xmlns="http://www.w3.org/2000/svg"><path d="M22.203 24.865a1.093 1.093 0 0 0 1.546 0l6.957-6.957a1.093 1.093 0 1 0-1.546-1.546l-6.184 6.184-6.183-6.184a1.093 1.093 0 0 0-1.546 1.546l6.956 6.957ZM.582 2.216h15.835V.03H.582v2.186Zm21.301 5.466v16.41h2.186V7.682h-2.186Zm-5.465-5.466a5.466 5.466 0 0 1 5.465 5.466h2.186A7.652 7.652 0 0 0 16.418.03v2.186Z" fill="#FF9F43"/></symbol><symbol fill="none" viewBox="0 0 27 34" id="curved-arrow-left" xmlns="http://www.w3.org/2000/svg"><path d="M1.043 21.334a1.5 1.5 0 0 0 0 2.12l9.546 9.547a1.5 1.5 0 0 0 2.121-2.121l-8.485-8.486 8.485-8.485a1.5 1.5 0 0 0-2.121-2.121l-9.546 9.546ZM23.573 0v15.835h3V0h-3Zm-5.06 20.894H2.104v3h16.41v-3Zm5.06-5.059a5.059 5.059 0 0 1-5.06 5.06v3a8.059 8.059 0 0 0 8.06-8.06h-3Z" fill="#FF9F43"/></symbol><symbol fill="none" viewBox="0 0 27 34" id="curved-arrow-right" xmlns="http://www.w3.org/2000/svg"><path d="M26.133 21.334a1.5 1.5 0 0 1 0 2.12l-9.546 9.547a1.5 1.5 0 1 1-2.121-2.121l8.485-8.486-8.485-8.485a1.5 1.5 0 1 1 2.12-2.121l9.547 9.546ZM3.603 0v15.835h-3V0h3Zm5.06 20.894h16.41v3H8.662v-3Zm-5.06-5.059a5.059 5.059 0 0 0 5.06 5.06v3a8.059 8.059 0 0 1-8.06-8.06h3Z" fill="#FF9F43"/></symbol><symbol fill="none" viewBox="0 0 20 20" id="lightning" xmlns="http://www.w3.org/2000/svg"><path d="m10.833 1.667-8.333 10H10l-.833 6.666 8.333-10H10l.833-6.666Z" stroke="#FF9F43" stroke-width="2" stroke-linecap="round" stroke-linejoin="round"/></symbol><symbol fill="none" viewBox="0 0 20 20" id="mail" xmlns="http://www.w3.org/2000/svg"><path d="M18.333 5c0-.916-.75-1.666-1.667-1.666H3.333c-.917 0-1.667.75-1.667 1.667m16.667 0v10c0 .916-.75 1.666-1.667 1.666H3.333c-.917 0-1.667-.75-1.667-1.666V5m16.667 0-8.334 5.833-8.333-5.833" stroke="#fff" stroke-width="2" stroke-linecap="round" stroke-linejoin="round" opacity=".8"/></symbol><symbol fill="none" viewBox="0 0 20 21" id="phone" xmlns="http://www.w3.org/2000/svg"><path d="M18.333 14.6v2.5a1.667 1.667 0 0 1-1.816 1.666 16.492 16.492 0 0 1-7.192-2.558 16.252 16.252 0 0 1-5-5 16.492 16.492 0 0 1-2.558-7.225 1.666 1.666 0 0 1 1.658-1.817h2.5A1.667 1.667 0 0 1 7.592 3.6c.105.8.3 1.586.583 2.342A1.667 1.667 0 0 1 7.8 7.7L6.742 8.758a13.333 13.333 0 0 0 5 5l1.058-1.059a1.667 1.667 0 0 1 1.758-.375 10.7 10.7 0 0 0 2.342.584 1.666 1.666 0 0 1 1.433 1.691Z" stroke="#fff" stroke-width="2" stroke-linecap="round" stroke-linejoin="round" opacity=".8"/></symbol><symbol fill="none" viewBox="0 0 37 32" id="rutube" xmlns="http://www.w3.org/2000/svg"><g clip-path="url(#pa)"><path d="M19.493 19.35H5.805v-5.421h13.688c.8 0 1.356.14 1.635.383.279.244.452.695.452 1.355v1.947c0 .695-.173 1.147-.452 1.39-.28.244-.835.348-1.635.348v-.002Zm.94-10.532H0V32h5.805v-7.542h10.698L21.58 32h6.5l-5.597-7.577c2.064-.306 2.99-.94 3.755-1.982.764-1.043 1.147-2.71 1.147-4.936v-1.738c0-1.32-.14-2.363-.383-3.162a5.272 5.272 0 0 0-1.252-2.12A5.656 5.656 0 0 0 23.595 9.2c-.835-.243-1.878-.383-3.162-.383v.002Z" fill="#fff"/><path d="M32.54 8.816c2.463 0 4.46-1.973 4.46-4.408C37 1.974 35.003 0 32.54 0s-4.46 1.974-4.46 4.408c0 2.435 1.997 4.408 4.46 4.408Z" fill="#ED143B"/></g><defs><clipPath id="pa"><path fill="#fff" d="M0 0h37v32H0z"/></clipPath></defs></symbol><symbol fill="none" viewBox="0 0 32 32" id="tg" xmlns="http://www.w3.org/2000/svg"><path d="M0 16c0 8.837 7.163 16 16 16s16-7.163 16-16S24.837 0 16 0 0 7.163 0 16Z" fill="#08C"/><path d="M8.1 15.708c4.295-1.87 7.159-3.105 8.592-3.7 4.091-1.702 4.942-1.998 5.496-2.008.122-.002.394.028.57.171.15.121.19.285.21.4.02.114.044.375.025.58-.222 2.33-1.181 7.983-1.67 10.592-.206 1.104-.613 1.474-1.006 1.51-.856.079-1.505-.565-2.334-1.108-1.297-.85-2.03-1.38-3.288-2.209-1.455-.959-.512-1.485.317-2.346.217-.226 3.987-3.655 4.06-3.966.01-.039.018-.184-.069-.26-.086-.077-.213-.05-.305-.03-.13.03-2.201 1.4-6.214 4.108-.588.404-1.12.6-1.598.59-.526-.011-1.538-.297-2.29-.542-.923-.3-1.656-.458-1.592-.968.033-.265.398-.536 1.096-.814Z" fill="#fff"/></symbol><symbol fill="none" viewBox="0 0 28 28" id="vk" xmlns="http://www.w3.org/2000/svg"><path d="M0 13.44C0 7.103 0 3.939 1.96 1.96 3.948 0 7.112 0 13.44 0h1.12c6.337 0 9.501 0 11.48 1.96C28 3.948 28 7.112 28 13.44v1.12c0 6.337 0 9.501-1.96 11.48C24.052 28 20.888 28 14.56 28h-1.12c-6.337 0-9.501 0-11.48-1.96C0 24.052 0 20.888 0 14.56v-1.12Z" fill="#07F"/><path d="M14.896 20.17C8.512 20.17 4.872 15.8 4.723 8.52h3.21c.103 5.339 2.455 7.597 4.322 8.064V8.521h3.014v4.601c1.839-.196 3.78-2.296 4.434-4.61h3.005a8.896 8.896 0 0 1-4.088 5.814 9.212 9.212 0 0 1 4.788 5.843h-3.313c-.71-2.212-2.483-3.93-4.826-4.163v4.163h-.373Z" fill="#fff"/></symbol></svg>