<svg width="27" height="34" viewBox="0 0 27 34" fill="none" xmlns="http://www.w3.org/2000/svg">
<path d="M1.0429 21.3336C0.457114 21.9193 0.457114 22.8691 1.0429 23.4549L10.5888 33.0008C11.1746 33.5866 12.1244 33.5866 12.7102 33.0008C13.296 32.415 13.296 31.4653 12.7102 30.8795L4.22488 22.3942L12.7102 13.9089C13.2959 13.3231 13.2959 12.3734 12.7102 11.7876C12.1244 11.2018 11.1746 11.2018 10.5888 11.7876L1.0429 21.3336ZM23.5723 6.55671e-08L23.5723 15.8354L26.5723 15.8354L26.5723 -6.55671e-08L23.5723 6.55671e-08ZM18.5135 20.8942L2.10356 20.8942L2.10356 23.8942L18.5135 23.8942L18.5135 20.8942ZM23.5723 15.8354C23.5723 18.6293 21.3074 20.8942 18.5135 20.8942L18.5135 23.8942C22.9642 23.8942 26.5723 20.2862 26.5723 15.8354L23.5723 15.8354Z" fill="#FF9F43"/>
</svg>
