<svg width="209" height="100" viewBox="0 0 209 100" fill="none" xmlns="http://www.w3.org/2000/svg">
<path d="M64.5533 30.8633H77.8175V35.1695H71.5077V65.4254H64.5533V30.8633ZM85.6814 52.4505L86.8733 35.1695H87.2725L88.4644 52.4505H85.6814ZM77.98 65.4254H84.7891L85.4332 56.2465H88.7123L89.3594 65.4254H96.1655L92.5388 30.8633H81.6067L77.98 65.4254ZM106.125 53.3289V59.8444C106.125 60.7227 106.81 60.9776 107.209 60.9776C107.864 60.9776 108.321 60.4394 108.321 59.8444V51.7993C108.321 50.7226 108.121 49.5329 105.526 49.5329H102.704V45.7369H105.64C107.608 45.7369 108.321 45.2835 108.321 43.1587V36.3027C108.321 35.7077 107.864 35.1695 107.208 35.1695C106.81 35.1695 106.125 35.396 106.125 36.3027V41.9402H99.1678V37.0394C99.1678 34.6312 99.453 30.8633 104.328 30.8633H110.088C114.964 30.8633 115.278 34.6312 115.278 37.0394V42.5633C115.278 46.3313 112.626 47.3512 110.544 47.2661V47.6062C115.221 47.4929 115.278 51.0621 115.278 52.2805V59.2497C115.278 61.6859 114.964 65.4254 110.088 65.4254H104.328C99.453 65.4254 99.1678 61.6856 99.1678 59.2494V53.3289H106.125ZM119.84 30.8633H135.95V65.4254H128.993V35.1695H126.797V65.4254H119.84V30.8633ZM147.469 49.8726V35.1698H148.382C149.123 35.1698 149.665 35.7926 149.665 36.8977V48.1444C149.665 49.2495 149.123 49.8723 148.381 49.8723L147.469 49.8726ZM140.512 65.4254H147.469V53.6686H151.461C156.308 53.6686 156.622 49.9291 156.622 47.4926V37.0394C156.622 34.6312 156.308 30.8633 151.461 30.8633H140.512V65.4254ZM170.336 59.8444C170.336 60.4394 169.88 60.9776 169.224 60.9776C168.825 60.9776 168.141 60.7227 168.141 59.8444V36.3027C168.141 35.396 168.825 35.1695 169.224 35.1695C169.88 35.1695 170.336 35.7077 170.336 36.3027V59.8444ZM161.184 59.2497C161.184 61.6859 161.497 65.4254 166.345 65.4254H172.133C176.98 65.4254 177.294 61.6856 177.294 59.2494V37.0394C177.294 34.6312 176.98 30.8633 172.133 30.8633H166.345C161.497 30.8633 161.184 34.6312 161.184 37.0394V59.2497ZM199.933 30.8633H209V65.4254H202.043V43.7534H201.786L198.193 65.4254H192.633L189.069 43.7534H188.813V65.4254H181.856V30.8633H190.894L195.428 55.1701L199.933 30.8633ZM55.5373 18.1153C53.4077 8.85148 48.0698 1.31595 47.3342 0.0975342C46.1708 1.82549 41.9139 8.48329 39.7498 15.8488C37.386 24.0926 37.0382 31.4016 37.854 38.5689C38.6636 45.7646 41.7228 53.1588 41.7228 53.1588C43.3483 57.0116 45.7831 61.1758 47.3686 63.2157C49.6921 60.2129 55.0328 51.2605 56.6979 39.5889C57.6246 33.073 57.6646 27.379 55.5373 18.1153ZM47.3342 60.8928C46.2879 58.938 44.6624 55.2265 44.5085 49.4474C44.4686 43.895 46.7126 39.1071 47.3686 38.1159C47.953 39.1074 49.886 43.2716 50.1171 48.9659C50.2738 54.5186 48.4148 58.9093 47.3342 60.8928ZM54.9188 33.8378C54.8389 37.3792 54.414 41.1187 53.8722 43.3568C54.0661 39.504 53.6015 34.093 52.7117 29.8437C51.8221 25.6224 49.3044 18.5402 47.2945 15.2821C45.4383 18.3986 43.1513 24.5175 41.9539 29.8153C40.7506 35.1127 40.7165 41.5437 40.7165 43.4701C40.3969 41.8551 39.5986 36.0478 39.8239 30.2402C40.0122 25.4526 41.1411 20.495 41.76 18.2285C44.1207 10.6646 46.7924 5.82023 47.2942 5.05517C47.7963 5.82023 51.1606 11.7978 52.9056 18.0585C54.6423 24.3194 54.9929 30.3248 54.9188 33.8378Z" fill="white" style="fill:white;fill-opacity:1;"/>
<path d="M50.9469 65.3686H34.7544V76.1622C34.7688 76.1622 34.7802 76.1338 34.7943 76.1338C38.6094 72.3378 44.7969 72.3378 48.6147 76.1338C52.4298 79.9017 52.4298 86.0491 48.6147 89.8454C48.5975 89.8735 48.5803 89.8735 48.5634 89.9019C48.5434 89.9019 48.5234 89.9303 48.5062 89.9587C44.6998 93.6982 39.7272 95.5678 34.7544 95.5678C29.7591 95.5678 24.7635 93.6982 20.9543 89.9019C14.2364 83.2444 13.4409 72.9041 18.5619 65.3686C19.2649 64.3319 20.066 63.3643 20.9543 62.479C24.7635 58.683 29.7591 56.8131 34.7544 56.8131V30.8633C15.5595 30.8633 0 46.3028 0 65.3686C0 84.4344 15.5595 99.9023 34.7544 99.9023C44.7624 99.9023 53.7784 95.681 60.1195 88.9671V65.3686H50.9469ZM209 75.5229H64.5534V99.9023H209V75.5229ZM196.509 92.5423H198.342V88.8623H196.509V92.5423ZM196.509 86.1025H199.283L201.139 87.0227L201.597 87.9425L202.056 89.7825V90.7023C202.007 97.2933 197.739 94.8806 193.254 95.3025V80.1227H196.509V86.1025ZM172.421 80.1227V82.8826H170.106V95.3025H166.416V82.8826H164.102V80.1227H172.421ZM138.638 91.1624H139.096L140.013 90.7023V84.2625H138.638V91.1624ZM134.925 84.2628H133.526V90.7023L134.466 91.1624H134.925V84.2628ZM138.638 80.1227V81.5027H140.953L142.328 82.4225L143.268 83.3427L143.726 85.1827V90.2426L143.268 92.0826L142.328 93.0024L140.953 93.9222H138.638V95.3022H134.925V93.9222H132.61L131.212 93.0024L130.295 92.0826L129.837 90.2426V85.1827L130.295 83.3427L131.212 82.4225L132.61 81.5027H134.925V80.1227H138.638ZM108.536 80.1227V82.8826H105.758V86.1025H108.536V88.8623H105.758V92.5423H108.999V95.3022H102.054V80.1227H108.536ZM75.2018 86.1025H77.0537V80.1227H80.2945V95.3025H77.0537V88.8623H75.2018V95.3025H71.498V80.1227H75.2018V86.1025Z" fill="white" style="fill:white;fill-opacity:1;"/>
</svg>
