<svg width="281" height="97" viewBox="0 0 281 97" fill="none" xmlns="http://www.w3.org/2000/svg">
<path d="M115.242 62.2285C112.511 62.89 110.264 64.1363 108.308 66.0747C105.108 69.2464 103.888 72.7741 103.879 78.881C103.871 84.8247 105.035 88.3676 108.026 91.5038C110.943 94.5614 114.546 96 119.29 96C127.053 96 132.286 92.0454 134.288 84.6651C134.989 82.0833 134.993 75.7641 134.296 73.1573C132.751 67.3806 128.892 63.5301 123.333 62.2195C120.995 61.6685 117.538 61.6723 115.242 62.2285ZM123.536 69.0648C125.152 70.0595 126.718 72.1393 127.304 74.0707C127.525 74.7956 127.681 76.9115 127.681 79.1787C127.681 82.8169 127.629 83.1607 126.822 84.909C124.252 90.4725 117.879 91.7453 113.67 87.5358C111.579 85.4449 110.827 83.1491 110.837 78.881C110.85 73.4178 112.421 70.2452 115.921 68.6197C116.998 68.1189 117.731 68.0135 119.666 68.0802C121.742 68.1517 122.273 68.2868 123.536 69.0648Z" fill="white" stroke="white" style="fill:white;fill-opacity:1;stroke:white;stroke-opacity:1;" stroke-width="1.33333"/>
<path d="M48.0698 62.3717C40.5443 64.3423 36.6536 70.6826 37.1172 80.2207C37.3801 85.6336 38.7323 89.0422 41.7646 91.9343C44.7252 94.7582 48.0347 96 52.5999 96C60.3684 96 65.8155 91.8072 67.5879 84.4633C68.1771 82.0219 68.2429 76.3614 67.7117 73.8197C67.1306 71.0384 65.4547 67.8242 63.638 66.0078C59.9802 62.3496 53.7289 60.8896 48.0698 62.3717ZM55.9776 68.5896C59.2436 70.0726 60.834 73.0703 61.0687 78.1843C61.2381 81.8832 60.603 84.5874 59.0668 86.7084C56.2607 90.5821 50.6773 91.0861 47.1475 87.7844C46.3499 87.0383 45.4457 85.8087 45.0944 84.9917C43.6001 81.5185 43.6635 75.7743 45.231 72.5651C46.0867 70.8133 48.1293 68.8573 49.5927 68.3884C51.2596 67.8542 54.589 67.9593 55.9776 68.5896Z" fill="white" stroke="white" style="fill:white;fill-opacity:1;stroke:white;stroke-opacity:1;" stroke-width="1.33333"/>
<path d="M234.116 1.0638C234.116 1.12542 234.315 2.11356 234.558 3.2595C235.157 6.09143 235.119 9.73496 234.471 11.5957C233.739 13.6962 232.072 16.0086 227.71 20.974C223.42 25.8581 222.003 27.8222 220.556 30.8908C218.147 35.9982 217.765 41.5966 219.392 47.9515C220.256 51.3259 222.884 56.0165 224.575 57.2005C225.09 57.5616 225.175 57.4768 225.608 56.1743C225.867 55.3933 226.535 54.0777 227.092 53.2509L228.105 51.7474L226.787 49.7003C225.11 47.0937 224.291 44.4672 224.291 41.6969C224.291 35.7699 227.106 31.4035 233.237 27.8216C234.778 26.921 236.737 25.4973 237.591 24.658L239.142 23.1316L239.83 23.8649C240.803 24.9033 244.046 27.2628 246.323 28.5897C250.067 30.7714 252.662 34.2574 253.642 38.4214C254.559 42.321 253.776 46.2003 251.332 49.8605L250.128 51.6626L250.928 52.8166C251.368 53.4513 252.033 54.722 252.406 55.6402C252.779 56.5583 253.155 57.38 253.241 57.4661C253.554 57.7793 255.636 55.0051 256.769 52.7654C260.843 44.7096 260.893 33.7486 256.897 24.2126C252.976 14.8519 244.631 5.20809 237.799 2.14214C236.115 1.38623 234.116 0.801204 234.116 1.0638Z" fill="white" stroke="white" style="fill:white;fill-opacity:1;stroke:white;stroke-opacity:1;" stroke-width="1.33333"/>
<path d="M1 79.0399V95.4248L4.20051 95.3402L7.40103 95.2557L7.54989 82.7689L7.69875 70.2822L10.403 82.7689L13.1075 95.2557L16.4375 95.34C19.1807 95.4093 19.7979 95.3453 19.9396 94.9764C20.034 94.7302 21.3603 88.9985 22.8871 82.239L25.6627 69.9493L25.7613 82.6025L25.8598 95.2557L29.0603 95.3402L32.2608 95.4248V79.0328V62.6408L27.2939 62.7224L22.327 62.804L19.5954 74.9436C18.0928 81.6203 16.8076 87.1395 16.7391 87.208C16.6703 87.2764 15.3502 81.7802 13.8053 74.9939L10.9963 62.6551H5.99816H1V79.0399Z" fill="white" stroke="white" style="fill:white;fill-opacity:1;stroke:white;stroke-opacity:1;" stroke-width="1.33333"/>
<path d="M146.955 62.5768L139.436 62.6652L139.512 78.9605L139.589 95.2557L146.586 95.3396C154.702 95.437 157.826 95.1426 160.26 94.0505C164.683 92.0653 166.806 87.3446 165.524 82.3423C164.665 78.9867 162.598 76.7448 159.174 75.453C157.619 74.8662 156.929 74.8069 152.019 74.8382L146.586 74.8727V71.7457V68.6188L154.997 68.5399L163.407 68.4607V65.4835V62.5062L158.941 62.4973C156.485 62.4922 151.092 62.528 146.955 62.5768ZM156.495 81.2217C157.958 81.8409 158.564 82.7121 158.729 84.4329C158.917 86.3851 158.218 87.787 156.66 88.5816C155.704 89.0693 154.889 89.1524 151.064 89.1524H146.586V84.9843V80.8162H151.061C154.17 80.8162 155.829 80.94 156.495 81.2217Z" fill="white" stroke="white" style="fill:white;fill-opacity:1;stroke:white;stroke-opacity:1;" stroke-width="1.33333"/>
<path d="M237.533 24.6881C236.711 25.511 234.777 26.921 233.236 27.8216C227.106 31.4047 224.292 35.7705 224.292 41.6969C224.292 44.4098 225.11 47.0991 226.667 49.508L227.859 51.353L229.51 50.0079C232.521 47.5555 235.449 46.4679 239.029 46.4721C242.946 46.4769 246.162 47.7008 248.907 50.2317L250.189 51.4134L250.774 50.7075C251.794 49.4785 253.136 46.7407 253.608 44.9281C255.051 39.3887 252.507 32.6837 247.785 29.5808C242.631 26.1939 241.704 25.544 240.431 24.4246L239.029 23.192L237.533 24.6881Z" fill="white" stroke="white" style="fill:white;fill-opacity:1;stroke:white;stroke-opacity:1;" stroke-width="1.33333"/>
<path d="M223.868 62.6173C223.773 62.7706 226.282 70.1767 229.444 79.0757L235.191 95.2557L238.896 95.3304C240.934 95.3715 242.754 95.3045 242.942 95.1815C243.416 94.871 254.64 62.8584 254.377 62.5708C254.259 62.4425 252.568 62.3755 250.619 62.422L247.075 62.5062L246.012 65.7812L244.948 69.0561L239.119 69.1368L233.29 69.2175L232.14 65.8618L230.99 62.5062L227.515 62.4226C225.58 62.3758 223.964 62.4622 223.868 62.6173ZM241.512 80.444C240.512 83.3507 239.568 86.0635 239.413 86.4729C239.17 87.1145 238.868 86.4154 237.224 81.4116C236.174 78.2185 235.314 75.5057 235.311 75.3827C235.309 75.26 237.112 75.1594 239.318 75.1594H243.33L241.512 80.444Z" fill="white" stroke="white" style="fill:white;fill-opacity:1;stroke:white;stroke-opacity:1;" stroke-width="1.33333"/>
<path d="M262.178 62.2219C259.838 62.8522 258.299 63.7415 256.589 65.4507C254.927 67.1135 253.767 69.5822 253.767 71.4591V72.5002L256.957 72.4156L260.147 72.3311L260.41 71.2143C260.757 69.7454 262.004 68.45 263.46 68.0457C264.936 67.6357 267.866 67.6253 269.304 68.0245C271.532 68.6435 272.549 71.0113 271.476 73.0852C270.801 74.3916 269.448 74.9591 266.569 75.1448L264.038 75.3083V78.1367V80.965L266.867 81.1142C268.976 81.2255 269.957 81.4173 270.727 81.8692C273.636 83.5769 273.596 87.6867 270.656 89.1988C267.978 90.5767 262.544 90.145 260.929 88.4259C260.544 88.0163 260.066 87.0406 259.868 86.2582L259.507 84.8354H256.413H253.32L253.369 86.7706C253.43 89.1432 254.01 90.5695 255.628 92.3252C257.955 94.8499 261.361 95.9911 266.569 95.9911C271.924 95.9911 275.268 94.8088 277.765 92.0326C280.075 89.4623 280.597 85.4642 279.051 82.1756C278.354 80.6917 276.125 78.5276 275.004 78.2465C274.323 78.0756 274.022 77.5412 274.607 77.5412C275.164 77.5412 277.329 75.3515 277.971 74.1377C278.874 72.4326 278.876 68.9525 277.975 67.2698C276.657 64.8088 273.728 62.7816 270.499 62.0966C268.362 61.6434 264.088 61.7078 262.178 62.2219Z" fill="white" stroke="white" style="fill:white;fill-opacity:1;stroke:white;stroke-opacity:1;" stroke-width="1.33333"/>
<path d="M82.5763 62.2395C78.7291 63.2693 75.6531 65.7053 73.8375 69.1604C72.3236 72.0411 71.774 74.6105 71.7582 78.881C71.7425 83.0548 72.1507 85.2377 73.4836 88.1104C75.9159 93.3521 80.2591 96.0039 86.3987 95.9964C91.0682 95.9908 94.1827 94.8091 96.7428 92.0725C98.249 90.4621 100.02 86.9901 100.319 85.0587L100.516 83.7934H97.101H93.6864L93.3437 84.9364C92.8373 86.6265 91.3877 88.4513 89.9488 89.2099C88.0103 90.2317 84.9768 90.1703 83.1074 89.0714C80.2877 87.414 79.003 84.7149 78.7738 79.9662C78.5487 75.3 79.5002 72.0253 81.709 69.8657C83.158 68.4491 84.8113 67.9266 87.4265 68.0588C90.3861 68.2082 91.7447 69.1124 93.018 71.7803L93.9201 73.6709H97.2177H100.515L100.374 72.2046C100.072 69.055 97.3793 65.2736 94.2529 63.6072C90.9444 61.8438 86.1516 61.2823 82.5763 62.2395Z" fill="white" stroke="white" style="fill:white;fill-opacity:1;stroke:white;stroke-opacity:1;" stroke-width="1.33333"/>
<path d="M178.275 63.3988C176.906 66.6737 167.145 94.718 167.265 95.0303C167.466 95.5558 173.779 95.5579 174.207 95.0324C174.373 94.8278 176.276 89.256 178.435 82.6507C180.593 76.0451 182.4 70.6861 182.448 70.7418C182.497 70.7972 184.257 76.2684 186.358 82.9002C188.46 89.532 190.319 95.0565 190.489 95.1768C190.97 95.5168 197.435 95.4486 197.649 95.1012C197.784 94.8832 188.536 67.8789 186.591 62.8081C186.448 62.4377 185.73 62.3574 182.564 62.3574H178.71L178.275 63.3988Z" fill="white" stroke="white" style="fill:white;fill-opacity:1;stroke:white;stroke-opacity:1;" stroke-width="1.33333"/>
<path d="M201.737 62.6021C201.442 62.7914 201.378 66.2819 201.439 79.0489L201.516 95.2557L204.344 95.3429C205.9 95.3908 207.474 95.3548 207.843 95.2628L208.512 95.0955V81.8579V68.6205L215.435 68.5405L222.357 68.4607V65.4834V62.5062L212.234 62.4342C206.667 62.3946 201.943 62.4702 201.737 62.6021Z" fill="white" stroke="white" style="fill:white;fill-opacity:1;stroke:white;stroke-opacity:1;" stroke-width="1.33333"/>
</svg>
