<svg width="79" height="13" viewBox="0 0 79 13" fill="none" xmlns="http://www.w3.org/2000/svg">
<g clip-path="url(#clip0_389_4865)">
<path fill-rule="evenodd" clip-rule="evenodd" d="M0 7.87221C0 10.4254 1.4272 13 4.6231 13C7.81607 13 9.24605 10.4254 9.24605 7.87221C9.24605 6.12836 8.65958 4.1203 7.68084 2.49796C6.72894 0.931638 5.58516 0 4.6231 0C3.6581 0 2.51403 0.931638 1.57039 2.49796C0.586796 4.1203 0 6.12836 0 7.87221ZM32.8238 3.83041H29.5876V0.696455H39.527V3.83041H36.291L36.2909 12.3036H32.8236L32.8238 3.83041ZM46.9224 3.83046H52.0081V0.696507H46.9229C42.2502 0.696507 39.7556 3.02953 39.7556 6.50006C39.7556 9.97061 42.2502 12.3037 46.9229 12.3037H52.0081V9.16968H46.9224C44.7603 9.16968 43.3383 8.39345 43.3383 6.50006C43.3383 4.60666 44.7603 3.83046 46.9224 3.83046ZM20.6862 7.62463L22.5347 0.696507H28.6616V12.3037H25.1945V2.85657L22.674 12.3037H18.6985L16.1796 2.86246V12.3037H12.7123V0.696507H18.8377L20.6862 7.62463ZM58.3321 4.06093H57.1094V5.19631H58.3321C58.6418 5.19631 58.8263 5.03662 58.8263 4.74213V4.53182C58.8263 4.22897 58.6672 4.06093 58.3321 4.06093ZM58.6418 6.50006H55.4761V0.696352H60.1326V2.08431H57.1094V2.84118H58.6418C59.9234 2.84118 60.5431 3.48045 60.5431 4.60749C60.5431 5.7935 59.9234 6.50006 58.6418 6.50006ZM64.3106 4.12807H63.0209L63.6658 1.9834L64.3106 4.12807ZM66.7894 6.50006L65.0057 0.696507H62.577L60.7931 6.50006H62.3174L62.644 5.38974H64.6875L65.0226 6.50006H66.7894ZM70.9177 6.50006V4.25435H69.0504V6.50006H67.3751V0.696507H69.0504V2.82446H70.9177V0.696507H72.5931V6.50006H70.9177ZM75.5663 2.82441H75.2731V0.696455H73.5978V6.5H75.2731V4.2543H75.5157L77.0652 6.5H79L76.9063 3.46369L78.8327 0.696455H77.0652L75.5663 2.82441Z" fill="#FDFDFD" style="fill:#FDFDFD;fill:color(display-p3 0.9922 0.9922 0.9922);fill-opacity:1;"/>
</g>
<defs>
<clipPath id="clip0_389_4865">
<rect width="79" height="13" fill="white" style="fill:white;fill-opacity:1;"/>
</clipPath>
</defs>
</svg>
