<svg width="247" height="99" viewBox="0 0 247 99" fill="none" xmlns="http://www.w3.org/2000/svg">
<path d="M120.778 31.5521H128.085V67.8283H120.164L101.758 42.3699V67.8283H94.4512V31.5521H102.371L120.778 57.0103V31.5521Z" fill="white" style="fill:white;fill-opacity:1;"/>
<path d="M143.973 37.9442V47.5065H154.459C156.318 47.5065 157.787 47.0696 158.865 46.1961C159.944 45.3224 160.483 44.1557 160.483 42.6957C160.483 41.2394 159.944 40.092 158.865 39.2537C157.827 38.3796 156.358 37.9425 154.459 37.9425L143.973 37.9442ZM167.789 42.701C167.789 45.9429 166.693 48.6199 164.498 50.7322C162.342 52.8443 159.163 53.9004 154.961 53.9004H143.973V67.8318H136.666V31.553H154.961C159.163 31.553 162.342 32.6091 164.498 34.7212C166.693 36.8339 167.789 39.4928 167.789 42.6974V42.701Z" fill="white" style="fill:white;fill-opacity:1;"/>
<path d="M191.21 30.8423C195.152 30.8423 198.554 31.8072 201.416 33.7375C204.316 35.6314 206.529 38.254 208.054 41.6053H200.245C197.977 38.6907 194.965 37.2337 191.21 37.2343C187.825 37.2343 185 38.4181 182.732 40.7859C180.498 43.1524 179.381 46.1205 179.381 49.6902C179.381 53.2599 180.497 56.2284 182.728 58.5954C184.997 60.9631 187.822 62.1469 191.206 62.1469C194.998 62.1469 198.01 60.6899 200.241 57.776H208.05C206.523 61.1268 204.31 63.7672 201.413 65.6974C198.549 67.5913 195.147 68.5381 191.206 68.5381C185.74 68.5381 181.185 66.7536 177.541 63.1845C173.897 59.5788 172.074 55.0806 172.074 49.6902C172.074 44.2998 173.899 39.8199 177.548 36.2506C181.19 32.6449 185.743 30.8423 191.21 30.8423Z" fill="white" style="fill:white;fill-opacity:1;"/>
<path d="M245.576 67.8283H235.926L221.646 53.4598V67.8283H214.34V31.5521H221.646V46.2481L236.371 31.5521H245.576L227.503 49.6902L245.576 67.8283Z" fill="white" style="fill:white;fill-opacity:1;"/>
<mask id="mask0_313_16419" style="mask-type:luminance" maskUnits="userSpaceOnUse" x="0" y="0" width="73" height="99">
<path d="M72.7987 0H0V99H72.7987V0Z" fill="white" style="fill:white;fill-opacity:1;"/>
</mask>
<g mask="url(#mask0_313_16419)">
<path d="M72.8022 60.452L61.9994 49.4122V-0.00188156H60.4505V50.0353L70.582 60.4619L64.8617 66.205L64.9734 61.6419C65.1005 61.5391 65.2033 61.4096 65.2746 61.263C65.3462 61.1159 65.3848 60.9552 65.3878 60.7918C65.4024 60.6327 65.384 60.4724 65.3337 60.3208C65.2839 60.1689 65.2031 60.029 65.0965 59.9098C64.9905 59.7904 64.8613 59.6941 64.7164 59.6265C64.5714 59.5597 64.4141 59.5229 64.2543 59.5187C64.0945 59.5149 63.9355 59.5433 63.7871 59.6021C63.6391 59.6625 63.5049 59.7521 63.3924 59.8658C63.28 59.9793 63.1922 60.1146 63.1344 60.2631C63.0763 60.412 63.0495 60.571 63.0556 60.7305C63.0531 60.8943 63.085 61.0567 63.1489 61.2076C63.2119 61.359 63.3056 61.4957 63.4244 61.6088L63.218 70.0457L72.8022 60.452ZM43.5426 21.3122C43.4198 21.4201 43.3214 21.5526 43.2536 21.7011C43.1894 21.8494 43.1578 22.0095 43.1603 22.171C43.1565 22.3671 43.2032 22.5609 43.2954 22.7341C43.3866 22.9074 43.5203 23.0551 43.6841 23.1633C43.8475 23.2712 44.0356 23.3363 44.2311 23.3523C44.4268 23.3683 44.6233 23.3348 44.8028 23.2554C44.9822 23.1766 45.1384 23.0532 45.2564 22.8971C45.3759 22.7416 45.454 22.5584 45.4838 22.3648C45.5131 22.1708 45.4937 21.9728 45.4272 21.7883C45.3599 21.6042 45.2474 21.4397 45.1002 21.3099V-0.00188156H43.5513L43.5426 21.3122ZM49.3465 50.521L58.8965 59.8289L59.456 85.7221H55.9718V61.4138L50.0953 54.9775V85.261C49.9748 85.3665 49.8777 85.4961 49.8101 85.6412C49.7428 85.7867 49.7064 85.9447 49.7031 86.1048C49.7016 86.3007 49.7489 86.4936 49.8407 86.6666C49.9334 86.8393 50.0679 86.9859 50.2317 87.0935C50.3955 87.2008 50.5836 87.265 50.7789 87.28C50.9737 87.2962 51.1694 87.2627 51.348 87.1831C51.5273 87.1034 51.6833 86.9798 51.8017 86.8237C51.9208 86.668 51.9985 86.485 52.0278 86.2912C52.057 86.0976 52.0371 85.9001 51.9702 85.716C51.9026 85.5319 51.7903 85.3676 51.6432 85.2376V58.6513L54.4056 62.0676V87.2898H61.021L60.4332 59.1825L50.9275 49.8735V-0.00188156H49.3786L49.3465 50.521ZM38.0018 28.0834H43.8388V60.7035H34.0038V32.9814H37.918V55.3529C37.7939 55.4588 37.6942 55.5907 37.6267 55.7392C37.5591 55.8883 37.5247 56.0503 37.526 56.214C37.5245 56.4094 37.5718 56.602 37.6636 56.7745C37.7557 56.9468 37.8893 57.0934 38.0521 57.2014C38.2155 57.3086 38.4031 57.3735 38.598 57.3904C38.7933 57.4064 38.9894 57.3731 39.1684 57.2935C39.3474 57.2145 39.5034 57.0917 39.6221 56.9364C39.7414 56.7818 39.8197 56.5996 39.8495 56.4065C39.8803 56.2133 39.8617 56.0153 39.7954 55.8312C39.7293 55.6473 39.6181 55.4828 39.472 55.3529V31.4161H32.4547V62.2527H45.3941V26.5354H39.5569V-0.00188156H38.0079L38.0018 28.0834ZM16.9544 48.8947C16.8306 49.0025 16.7316 49.1361 16.6643 49.2859C16.5968 49.4356 16.562 49.5978 16.5622 49.7619C16.5606 49.9572 16.608 50.1499 16.6999 50.3224C16.7936 50.4968 16.9303 50.6447 17.097 50.7517C17.2606 50.8593 17.4488 50.924 17.6441 50.9394C17.8395 50.955 18.0357 50.9212 18.2146 50.8412C18.3932 50.7614 18.5488 50.6377 18.667 50.4819C18.7861 50.3262 18.8639 50.1432 18.8932 49.9496C18.9227 49.756 18.9028 49.558 18.8354 49.3743C18.7682 49.1906 18.6562 49.0266 18.5096 48.897V-0.00188156H16.9606L16.9544 48.8947ZM11.1836 49.5877L-0.00390625 60.7709L6.86229 67.6537H20.6684V54.0834H14.6972V61.7327H10.0255V59.9993C10.1468 59.8896 10.2439 59.7561 10.3107 59.6069C10.3771 59.4574 10.4115 59.2956 10.4116 59.1321C10.4113 58.9386 10.3627 58.7479 10.2702 58.5777C10.1777 58.4073 10.0437 58.263 9.88046 58.1581C9.71805 58.0526 9.5316 57.9892 9.33829 57.9743C9.14491 57.9593 8.9509 57.993 8.77401 58.0724C8.59714 58.1514 8.44288 58.2732 8.32527 58.4269C8.20749 58.5809 8.12978 58.7618 8.09906 58.9531C8.06951 59.1448 8.08809 59.3407 8.15315 59.5235C8.21777 59.7061 8.32725 59.8698 8.47159 59.9993V63.2807H16.25V55.6326H19.1231V66.1266H7.51019L2.16353 60.7869L12.7364 50.2304V-0.00188156H11.1873L11.1836 49.5877ZM55.0165 45.249C54.8419 45.4065 54.7189 45.6132 54.6638 45.8415C54.6087 46.0705 54.6241 46.3108 54.7081 46.5309C54.7925 46.7502 54.9412 46.9389 55.1345 47.0731C55.3288 47.2056 55.5584 47.2764 55.7936 47.2766C56.0292 47.2768 56.2593 47.2058 56.4538 47.0731C56.6471 46.9389 56.7958 46.7502 56.8804 46.5309C56.9651 46.3123 56.9822 46.0734 56.9296 45.8451C56.8743 45.6167 56.7514 45.4103 56.5766 45.2528V-0.00188156H55.0216L55.0165 45.249ZM27.2544 19.0087C27.1311 19.1173 27.0323 19.2506 26.9641 19.3999C26.8967 19.5496 26.8619 19.7118 26.8621 19.8759C26.863 20.0696 26.9119 20.2602 27.0048 20.4303C27.0967 20.6006 27.2303 20.7449 27.3933 20.8498C27.5556 20.9555 27.742 21.0188 27.9354 21.0338C28.1288 21.0489 28.3228 21.0152 28.4997 20.9357C28.6768 20.8568 28.8316 20.7349 28.9496 20.5812C29.0665 20.4268 29.1438 20.2461 29.1746 20.055C29.2046 19.8634 29.1864 19.6674 29.1218 19.4846C29.0566 19.3021 28.9473 19.1386 28.8033 19.0087V-0.0043335H27.2544V19.0087ZM32.3588 24.6844H27.2432V67.6034H45.5613V86.1943L34.9369 96.8172L26.7614 88.8612H32.0476L35.0106 91.8137L42.1571 84.5446V70.7619H29.6173C29.4881 70.6174 29.3243 70.5077 29.1415 70.443C28.9582 70.3785 28.7617 70.3604 28.5698 70.3903C28.3783 70.4211 28.1974 70.4992 28.0435 70.6172C27.8898 70.7356 27.7682 70.8904 27.6895 71.0675C27.6109 71.2451 27.5776 71.4393 27.5923 71.6329C27.6082 71.8263 27.6719 72.0125 27.7781 72.1751C27.8845 72.3368 28.0293 72.47 28.1997 72.5626C28.3709 72.6547 28.5622 72.7027 28.7566 72.7025C28.9196 72.7023 29.0805 72.6671 29.2287 72.5995C29.3775 72.5323 29.5099 72.434 29.6173 72.3114H40.6388V83.93L34.8962 89.7505L32.6035 87.312H22.9798L34.9798 98.9982L47.1201 86.8372V66.0541H28.8022V26.2384H33.9177V-0.00188156H32.3575L32.3588 24.6844ZM22.2937 -0.00188156H23.8428V75.6097H37.0453V82.4923H21.5387V87.2898H8.98301V70.9018H15.8504V81.0731C15.9946 81.2028 16.104 81.3665 16.1688 81.5491C16.2335 81.7319 16.2516 81.9278 16.2217 82.1195C16.1896 82.311 16.1101 82.4913 15.9906 82.6444C15.8721 82.7982 15.717 82.9202 15.5394 82.9989C15.3622 83.0788 15.1676 83.1121 14.9739 83.0958C14.7806 83.0798 14.5943 83.0162 14.4317 82.9107C14.2696 82.8041 14.1365 82.6592 14.0444 82.4888C13.9522 82.3175 13.904 82.1263 13.9043 81.9318C13.9045 81.7688 13.9397 81.6079 14.0076 81.4596C14.0749 81.3113 14.1734 81.179 14.2965 81.072V72.451H10.5554V85.7419H20.0218V80.9444H35.4938V77.159H22.2975L22.2937 -0.00188156Z" fill="white" style="fill:white;fill-opacity:1;"/>
</g>
</svg>
