<svg width="319" height="63" viewBox="0 0 319 63" fill="none" xmlns="http://www.w3.org/2000/svg">
<path fill-rule="evenodd" clip-rule="evenodd" d="M0 31.5C0 14.1167 14.0778 0.0388889 31.4611 0V11.3944C20.3778 11.3944 11.3945 20.4167 11.3945 31.5C11.3945 42.6222 20.4167 51.6056 31.5 51.6056C42.5444 51.6056 51.6055 42.7 51.6055 31.4222H63C63 48.8833 48.9222 63 31.5 63C14.0778 63 0 48.8833 0 31.5Z" fill="white" style="fill:white;fill-opacity:1;"/>
<path d="M17.6172 31.5001C17.6172 23.8001 23.8783 17.5389 31.5783 17.5389C39.2783 17.5389 45.5394 23.8001 45.5394 31.5001C45.5394 39.2389 39.2783 45.4612 31.5783 45.4612C23.8783 45.4612 17.6172 39.2389 17.6172 31.5001Z" fill="white" style="fill:white;fill-opacity:1;"/>
<path d="M41.2607 13.8055C41.2607 9.3722 44.8385 5.79443 49.2719 5.79443C53.7052 5.79443 57.283 9.3722 57.283 13.8055C57.283 18.2389 53.7052 21.8167 49.2719 21.8167C44.8385 21.8167 41.2607 18.2389 41.2607 13.8055Z" fill="white" style="fill:white;fill-opacity:1;"/>
<path d="M287.194 21.7389L286.222 26.5222C283.928 36.9056 283.111 40.25 281.128 50.5944L280.7 50.9833L274.4 51.1778L274.089 50.75L276.617 40.0945L277.355 36.5945C274.633 36.5167 271.95 36.4778 269.228 36.4778C267.128 36.4778 265.494 36.5167 263.861 36.5556C262.928 40.7556 262.15 44.4111 260.983 50.5944L260.555 50.9833L254.255 51.1778L253.944 50.75L256.472 40.0945L257.483 35.4667C259.155 28.1556 259.467 26.5611 260.439 19.8333L260.867 19.4056C263.744 19.0167 264.444 18.9 267.4 18.2778L267.711 18.7056L267.05 21.7778L266.078 26.5611L265.067 31.0722C267.322 31.1111 269.617 31.15 271.911 31.15C274.322 31.15 275.917 31.1111 278.6 31.0333C279.455 27.0667 279.805 24.9278 280.583 19.7945L281.011 19.3667C283.928 18.9778 284.589 18.8611 287.583 18.2389L287.894 18.6667L287.194 21.7389Z" fill="white" style="fill:white;fill-opacity:1;"/>
<path d="M211.244 35.6222C211.672 33.8333 211.983 32.0056 211.983 30.2945C211.983 23.9945 207.939 22.9445 205.644 22.9445C195.883 22.9445 194.639 38.1111 194.639 40.4056C194.639 45.3833 197.633 47.5611 200.978 47.5611C207.628 47.5611 210.116 40.7556 211.244 35.6222ZM217.7 37.5667C216.339 42.9333 212.528 52.1889 200.861 52.1889C192.578 52.1889 188.066 47.9111 188.066 39.4333C188.066 38.3444 188.144 37.1389 188.339 35.8556C188.378 35.5445 188.416 35.2333 188.455 34.9222C190.711 20.9222 196.778 7.62223 210.116 7.50556C211.905 7.46667 215.483 7.31112 217.933 6.72778L217.039 12.3278C214.55 12.95 210.661 13.3 208.366 13.3C205.528 13.3389 203.583 14.3889 202.222 15.7111C201.561 16.3333 201.016 17.0722 200.628 17.6944C200.239 18.3167 199.928 18.9 199.733 19.3667C201.522 18.8222 203.466 18.4722 205.644 18.4722C213.772 18.4722 218.633 23.0222 218.633 31.0333C218.633 33.1722 218.244 35.3889 217.7 37.5667Z" fill="white" style="fill:white;fill-opacity:1;"/>
<path d="M297.888 31.8499C299.366 30.5666 300.222 29.7499 302.283 27.7666C304.422 25.6666 309.711 20.2221 310.683 19.1721L311.383 18.8221H318.499L318.694 19.3666C318.072 19.911 317.761 20.1832 315.272 22.2832C314.299 23.0999 313.677 23.7221 312.511 24.7721L304.461 32.1999L314.066 50.4777L313.677 50.9832L306.794 51.1777L306.288 50.7888C304.694 46.9388 304.266 46.0832 302.011 41.5721L297.655 32.7832C296.294 38.8499 295.438 42.6999 293.922 50.6721L293.494 51.061L287.194 51.2555L286.883 50.8277L289.411 40.1721L290.383 35.5443C292.055 28.2332 292.366 26.6388 293.338 19.911L293.766 19.4832C296.683 19.0943 297.344 18.9777 300.338 18.3555L300.649 18.7832L299.988 21.8555L299.016 26.6388L297.888 31.8499Z" fill="white" style="fill:white;fill-opacity:1;"/>
<path d="M243.133 43.1277C242.472 43.6721 241.772 44.2944 241.072 44.7221C239.478 45.7332 237.339 46.161 235.667 46.161C229.989 46.161 228.395 41.3777 228.395 38.4221C228.395 38.111 228.511 30.0999 235.045 25.6666C238.7 23.1777 242.745 23.061 244.806 23.061C245.739 23.061 246.672 23.0999 247.606 23.0999L243.133 43.1277ZM255.033 18.8999L254.722 18.3944L246.128 18.3555C240.411 18.3555 232.4 18.7055 226.606 25.511C224 28.6221 221.628 33.9499 221.628 38.8499C221.628 46.5888 226.8 51.061 233.139 51.061C238.428 51.061 241.15 48.7666 242.2 47.911L241.772 50.3999L242.083 50.8277L247.917 50.711L248.345 50.2832C249.589 42.8944 250.017 40.5221 252.195 30.9944L255.033 18.8999Z" fill="white" style="fill:white;fill-opacity:1;"/>
<path d="M91.195 51.9945C84.4672 51.9945 74.745 49.8556 78.2839 34.3C79.6061 28.4667 83.6505 16.0612 100.256 16.0612C116.395 16.0612 113.984 29.2834 113.012 33.95C110.017 47.1334 101.967 51.9945 91.195 51.9945ZM93.4116 45.15C98.1561 45.15 100.373 40.2111 101.812 33.8723C102.823 29.4 103.912 22.8278 98.195 22.8278C93.3339 22.8278 91.1561 27.4945 89.7561 33.8723C88.395 39.7445 88.0839 45.15 93.4116 45.15Z" fill="white" style="fill:white;fill-opacity:1;"/>
<path d="M130.667 51.2555C127.556 51.2555 122.423 51.2555 120.284 51.3333L119.934 50.9055C120.517 48.8444 121.995 43.2444 123.511 36.4388C124.756 30.9166 125.845 26.0555 126.273 23.8388C123.667 23.9166 119.661 23.9166 117.678 23.9555L117.328 23.4888C117.834 21.8166 118.573 18.8999 119.039 17.1499L119.623 16.7999C121.373 16.8777 127.945 16.9166 133.273 16.9166C139.689 16.9166 145.95 16.7999 147.273 16.7222L147.7 17.0722C147.234 18.6277 146.378 21.8166 145.95 23.4111L145.328 23.7999C142.761 23.7611 140.817 23.7611 137.084 23.7611C136.773 25.1611 135.761 29.3222 134.089 36.7111C132.845 42.3111 131.795 47.4055 131.211 50.6722L130.667 51.2555Z" fill="white" style="fill:white;fill-opacity:1;"/>
<path d="M166.717 24.6555C164.617 24.6555 162.283 24.7333 161.233 24.7333C160.922 26.1722 159.639 31.4999 158.472 36.6722C157.111 42.7777 155.867 48.4944 155.4 50.8666L154.778 51.2555C151.589 51.2555 147.505 51.2555 144.239 51.3333L143.928 50.9055C144.589 48.2222 146.3 40.9888 147.933 33.7555C149.567 26.4833 151.005 19.3666 151.433 17.3444L151.978 16.8777C155.478 16.8777 159.017 16.9944 167.728 16.9944C174.533 16.9944 181.144 16.7999 184.644 16.7222L184.955 17.1111C184.489 18.8611 182.544 27.2222 180.678 35.5055C179.161 42.1944 177.761 48.8444 177.411 50.7499L176.944 51.1388C174.144 51.1388 169.05 51.1388 166.367 51.2166L166.094 50.7499C166.678 48.4944 167.922 43.2444 169.4 36.75C170.528 31.8111 171.617 26.5611 172.083 24.6166C170.956 24.6944 168.661 24.6555 166.717 24.6555Z" fill="white" style="fill:white;fill-opacity:1;"/>
</svg>
