<svg width="62" height="29" viewBox="0 0 62 29" fill="none" xmlns="http://www.w3.org/2000/svg">
<g clip-path="url(#clip0_406_11090)">
<path d="M0 0H29.5904V28.9171H0V0Z" fill="#FDFDFD" style="fill:#FDFDFD;fill:color(display-p3 0.9922 0.9922 0.9922);fill-opacity:1;"/>
<path d="M19.5065 21.0235C19.2204 21.0949 19.1504 21.2073 19.2002 21.2762C19.2511 21.3419 19.5065 21.2917 19.6401 21.2311C19.7757 21.169 19.8086 21.0949 19.7625 21.0266C19.7254 20.9722 19.5505 21.0131 19.5065 21.0235ZM17.2369 7.97863C17.3805 7.99003 17.3694 7.9864 17.4271 7.99624C17.4605 7.94963 17.7133 7.58972 17.7355 7.51463C17.7615 7.44213 17.7011 7.38621 17.6433 7.3831C17.5866 7.37999 17.4732 7.38621 17.3964 7.45508C17.3143 7.52758 17.2634 7.85331 17.2369 7.97863ZM21.5769 12.3794C21.2685 12.2691 20.9516 12.3302 20.6464 12.4488L20.6172 12.512C20.5589 12.6352 20.4779 12.7295 20.3894 12.804C20.5483 12.9159 20.914 13.0257 21.3088 13.0132C21.7057 13.0044 22.0496 12.7284 22.0496 12.7284C21.9701 12.6176 21.8885 12.4902 21.5769 12.3794ZM21.0221 14.0728C20.9018 13.8656 20.5536 13.8273 20.2601 13.5989L20.241 13.659L20.1747 13.6745C19.98 13.722 19.7765 13.7231 19.5812 13.6777C19.6014 13.7243 19.6173 13.7937 19.6247 13.8304C19.8277 14.0738 20.1149 14.2447 20.4959 14.2882C20.8753 14.3296 21.0221 14.0728 21.0221 14.0728ZM20.2977 12.2069C20.4911 12.2691 20.667 12.3002 21.1455 12.181C21.6543 12.0516 21.7269 11.6767 21.7269 11.6767C21.5038 11.5363 21.2166 11.5379 21.0708 11.5922C20.9246 11.644 20.5928 11.644 20.4519 11.613C20.4034 11.8242 20.2869 12.0147 20.1196 12.1567C20.1864 12.1697 20.2447 12.1878 20.2977 12.2069ZM20.7068 18.1675C21.0094 17.9008 21.2007 17.6273 21.0226 17.443C20.8456 17.2581 20.5457 17.4187 20.2415 17.6848C19.9384 17.951 19.7476 18.2239 19.9241 18.4078C20.0884 18.5797 20.4037 18.4337 20.7068 18.1675ZM19.9411 17.4238C20.3226 16.7775 19.8626 15.9117 19.4779 15.3089C19.429 15.291 19.3812 15.2702 19.3348 15.2468C19.4694 15.7108 19.7259 16.2623 19.6205 16.6874C19.285 16.3058 19.1859 15.1618 19.1859 15.1618C19.118 15.1191 19.0533 15.0715 18.9925 15.0194C18.9925 15.0598 18.9904 15.1038 18.9872 15.1468C19.0338 15.8361 19.0927 16.5445 19.3163 16.8977C19.5367 17.2447 19.9411 17.4238 19.9411 17.4238ZM19.1213 14.978C19.3396 15.1442 19.6337 15.3027 19.958 15.2556C19.958 15.2556 20.0327 15.0225 19.3868 14.4508C19.2042 14.4295 19.0299 14.3642 18.8796 14.2608C18.8531 14.3338 18.8092 14.4317 18.8415 14.5715C18.8733 14.7123 18.974 14.8661 19.1213 14.978ZM21.4619 11.2028C21.7396 10.9615 21.978 10.366 21.978 10.366C21.7226 10.397 21.2256 10.6104 20.9246 10.7714C20.648 10.9206 20.2606 11.2323 20.0963 11.3478C20.2903 11.3623 20.4037 11.4291 20.4137 11.4348L20.4794 11.4757C20.9733 11.5451 21.1747 11.4519 21.4619 11.2033V11.2028ZM20.3226 14.9909L20.3078 14.9894C20.1955 14.9923 20.0837 14.9753 19.9776 14.9392C20.0068 14.9878 20.029 15.0324 20.0439 15.0707C21.1026 16.0153 21.0115 16.4813 21.0115 16.4813C20.6506 16.2804 20.2505 15.7045 20.0486 15.354L19.9755 15.3643C19.8887 15.3777 19.8004 15.379 19.7132 15.3679C19.851 15.4922 20.0523 15.8433 20.3814 16.3995C20.7078 16.9572 21.5043 17.1949 21.5043 17.1949C21.5859 16.2504 20.728 15.3788 20.3226 14.9909ZM20.1901 14.3203C19.9305 14.1546 19.8086 14.1225 19.6316 14.0614C19.6056 14.2685 19.5018 14.399 19.4933 14.4099C19.5696 14.4959 19.843 14.9433 20.4159 14.8692C20.4159 14.8692 20.5685 14.5637 20.1901 14.3203ZM18.7413 11.2132C18.5384 11.3457 18.3147 11.6207 18.4848 12.0076C18.6544 12.3949 18.9755 12.9438 18.7832 13.1582C18.5919 13.3726 17.9099 13.484 17.3545 13.2711C17.3545 13.2711 17.2385 13.6057 17.0366 13.8201C17.0366 13.8201 17.1309 14.0049 17.4515 13.9122C17.4515 13.9122 17.3344 14.1867 17.4939 14.4829C17.4939 14.4829 17.867 14.4208 18.0259 14.0956C18.0259 14.0956 18.1754 14.3488 18.4748 14.4415C18.4748 14.4415 18.7207 14.3203 18.6666 13.8496C18.6666 13.8496 18.8468 14.269 19.4021 14.339C19.4021 14.339 19.7217 13.9532 19.3057 13.4327C19.3057 13.4327 19.604 13.688 20.1477 13.5653C20.1477 13.5653 20.2325 13.3012 19.7413 12.9345C19.7413 12.9345 20.2977 12.9138 20.5112 12.4659C20.5112 12.4659 20.2754 12.1898 19.701 12.252C19.701 12.252 20.233 12.1396 20.3501 11.5291C20.3501 11.5291 19.9665 11.2945 19.3597 11.671C19.3597 11.671 19.4657 11.4783 19.7211 11.2852C19.9771 11.0904 20.2871 10.5513 20.179 9.75747C19.9771 10.1842 19.6448 10.6223 18.7413 11.2132ZM18.7344 7.05219C18.8563 7.08326 18.8828 7.07497 18.9411 7.06928C18.9477 7.03036 18.9449 6.99048 18.9332 6.95276C18.9332 6.95276 18.6444 6.68347 18.4011 6.63738C18.3496 6.6262 18.2962 6.62674 18.2449 6.63895C18.1936 6.65116 18.1459 6.67472 18.1054 6.70781C18.1054 6.70781 18.1918 6.70005 18.3216 6.80103C18.4515 6.90097 18.612 7.02267 18.7344 7.05219ZM18.2125 7.84969C18.2072 7.92374 18.1526 8.00142 18.089 8.0646C18.089 8.0646 18.4435 7.98485 18.4859 7.77512C18.5251 7.58869 18.4425 7.45767 18.3842 7.3541C18.3312 7.25571 18.1674 7.0294 18.1266 6.93463C18.0895 6.84867 18.0689 6.77669 18.0821 6.72905C17.974 6.83313 17.8823 6.94292 17.8845 7.03976C17.8855 7.13763 18.0063 7.38621 18.0689 7.48046C18.1325 7.57522 18.2241 7.69899 18.2125 7.84969ZM18.9019 7.50479C18.8065 7.68397 18.7615 7.98019 18.8415 8.18474C18.9051 8.35046 18.9559 8.58608 18.9602 8.66013C19.0927 8.47112 19.1351 8.26915 19.1075 8.07962C19.0911 7.96828 19.0768 7.78496 19.1494 7.64462C19.2092 7.52758 19.3359 7.31837 19.3184 7.11071C19.2129 7.04753 19.0291 6.98849 19.0291 6.98849C19.0466 7.16871 18.9946 7.33131 18.9019 7.50479ZM17.5856 8.76526C17.5856 8.76526 17.8187 8.59747 17.8749 8.45558C17.9321 8.31524 17.947 8.21685 17.7133 8.28521C17.7016 8.45153 17.658 8.6143 17.5856 8.76526ZM21.2987 10.1039C21.5742 9.64199 21.4285 9.0563 21.4285 9.0563C20.8811 9.19612 20.6013 9.6451 20.5224 9.77353C20.4445 9.90144 20.3136 10.397 20.2553 10.5969C20.1843 10.8419 20.0894 11.0506 19.967 11.2007C20.5743 10.9242 21.0602 10.5042 21.2987 10.1039ZM19.2235 8.0646C19.2278 8.10396 19.231 8.14331 19.2326 8.18474C19.3396 8.00763 19.6512 8.18992 19.6512 8.18992C19.4551 7.89008 19.3597 7.85746 19.2177 7.80515C19.2066 7.87765 19.2092 7.96258 19.223 8.06408L19.2235 8.0646ZM22.1561 10.2292L21.9945 10.6782C22.4226 10.3523 22.856 10.0329 23.2943 9.72019C23.5466 9.53842 23.9244 9.27897 24.3012 9.15779C24.3012 9.15779 23.9546 9.58813 23.6748 9.79942C23.3532 10.0433 23.0252 10.2546 22.7538 10.3955C22.5148 10.5213 22.3924 10.5923 21.9065 10.817C21.8731 10.875 21.7724 11.0112 21.7332 11.0645C23.0686 10.8522 24.5375 9.88642 24.9911 9.2883C25.4469 8.69017 25.317 7.79738 25.317 7.79738C24.8756 7.88128 23.9191 8.67049 23.6716 8.90819C23.4236 9.14485 22.6754 9.84137 22.1561 10.2292ZM21.0767 10.5736C21.1805 10.5239 21.2998 10.4706 21.42 10.4224L21.5313 10.3784C22.518 9.87813 23.4957 8.84242 23.8916 8.1226C24.2864 7.40226 24.1237 6.56592 24.0187 6.11849C23.5704 6.48099 22.9261 7.19563 22.6447 7.58403C22.2992 8.06046 21.8567 8.73522 21.5822 9.28467V9.30072C21.5843 9.35769 21.5859 9.41983 21.5833 9.4856L21.5716 9.62905C21.8954 9.23496 22.2833 8.76008 22.6521 8.32042C22.9054 8.02006 23.1205 7.83829 23.3574 7.69174C23.1571 8.24844 22.7994 8.69328 22.544 8.91492C22.2912 9.13553 21.924 9.5089 21.5652 9.7378L21.5297 9.85069C21.501 9.95901 21.4573 10.063 21.3999 10.1598C21.3156 10.3007 21.207 10.4395 21.0767 10.5741V10.5736ZM26.2084 10.2267C25.1623 10.2002 24.3166 10.4442 23.6642 10.6358C22.9017 10.8584 21.7385 11.2738 21.3321 11.4472C21.4847 11.4519 21.6516 11.4949 21.7931 11.5845C22.3606 11.3773 22.6251 11.2883 23.1412 11.151C23.5476 11.0418 23.8486 11.02 24.1035 10.9967C24.1035 10.9967 23.7453 11.223 23.155 11.4027C22.5694 11.5814 22.3177 11.6119 21.8424 11.6984C21.8397 11.715 21.7687 12.0386 21.3761 12.2173C22.2202 11.8652 23.8847 11.6616 24.7781 11.3059C25.9874 10.8253 26.2089 10.2272 26.2089 10.2272L26.2084 10.2267ZM18.5437 15.7895C18.5437 15.7895 18.7567 15.5663 18.8182 15.3824C18.8914 15.1729 18.8944 14.9459 18.8266 14.7346C18.7887 14.6229 18.7293 14.5192 18.6518 14.4291C18.6186 14.4741 18.5766 14.5123 18.5283 14.5414L18.4848 14.5622L18.4382 14.5477C18.4 14.5363 18.3628 14.522 18.3269 14.5047C18.2792 14.6305 18.2612 14.6911 18.2485 14.7978C18.2326 14.9397 18.204 15.1639 18.2586 15.3462C18.3275 15.5689 18.4652 15.7051 18.5437 15.7895ZM21.6977 13.7025C21.5175 13.1924 21.1599 13.1137 20.8091 13.051C20.5542 12.999 20.2915 12.9955 20.0354 13.0407C20.1477 13.1613 20.1864 13.2799 20.241 13.3566C20.4132 13.5963 20.7158 13.7377 21.0618 13.8071C21.4709 13.8858 21.6977 13.703 21.6977 13.703V13.7025ZM15.2831 9.62024C15.405 9.50424 15.5544 9.33128 15.6111 9.16608C15.6111 9.16608 15.3684 9.16971 15.255 9.24169C15.1082 9.33387 14.9678 9.53531 14.9148 9.77663C14.9148 9.77663 15.1612 9.73624 15.2831 9.62024ZM14.3361 9.24169C14.2227 9.16971 13.979 9.16608 13.979 9.16608C14.0362 9.3318 14.1862 9.50424 14.3086 9.62024C14.4294 9.73624 14.6748 9.77663 14.6748 9.77663C14.6212 9.53531 14.4824 9.33387 14.3361 9.24169ZM11.4089 8.96515C11.3964 8.96515 11.3841 8.96273 11.3726 8.95804C11.361 8.95334 11.3506 8.94646 11.3418 8.93779C11.333 8.92912 11.3261 8.91883 11.3214 8.90753C11.3168 8.89623 11.3144 8.88413 11.3146 8.87194C11.3146 8.82015 11.357 8.77872 11.4089 8.77872C11.464 8.77872 11.508 8.82015 11.508 8.87194C11.508 8.92372 11.464 8.96515 11.4089 8.96515ZM11.4682 8.46438C11.3374 8.43435 11.0613 8.40431 10.9394 8.57624C10.8165 8.74713 10.8636 9.0708 11.1084 9.20285C11.1084 9.20285 11.4815 8.89576 11.934 9.20129C11.934 9.20129 12.0384 9.13605 12.2748 9.0853C12.2748 9.0853 12.1359 8.92372 11.9801 8.8564C11.8397 8.79529 11.5509 8.71503 11.4682 8.46438ZM12.6314 12.8284C12.7745 12.8284 12.9907 12.717 13.2567 12.396C13.6499 11.9232 13.7395 11.2852 13.7395 11.2852C13.3367 11.9294 12.9356 12.2644 12.6229 12.2468C12.3458 12.2328 12.2175 11.8507 12.2175 11.8507C12.0777 11.9584 12.0533 12.2649 12.1275 12.4602C12.199 12.657 12.4157 12.8284 12.6314 12.8284ZM12.6118 9.44365C12.491 9.35044 12.3262 9.14071 12.3262 9.14071C12.1105 9.18887 11.9584 9.2158 11.792 9.43226C11.6384 9.63267 11.8493 9.94079 11.8493 9.94079C12.0029 9.43796 12.6118 9.44365 12.6118 9.44365ZM17.4966 16.2157C17.3344 16.9961 17.5866 17.3166 17.5866 17.3166C18.0053 16.8371 18.0402 16.3379 18.1356 15.5973C18.0895 15.6952 18.0296 15.7978 17.9491 15.8987C17.8389 16.646 17.6863 16.7501 17.6863 16.7501C17.6269 16.4327 17.7234 16.1157 17.7234 16.1157C17.6533 16.16 17.5769 16.1937 17.4966 16.2157ZM18.1399 14.3892C18.0996 14.355 18.0646 14.3219 18.0339 14.2918C17.9735 14.3654 17.7679 14.6108 17.6667 14.8568C17.5893 15.066 17.5077 15.3508 17.4674 15.5135C17.425 15.6755 17.3031 16.0158 17.2295 16.1318C17.2295 16.1318 17.5554 16.1711 17.7965 15.9018C18.0334 15.6377 18.1128 15.3731 18.1515 15.1007C18.1791 14.8884 18.1711 14.5922 18.1399 14.3892ZM18.0826 8.87194C18.0826 8.82015 18.1272 8.77872 18.1791 8.77872C18.2321 8.77872 18.2771 8.82015 18.2771 8.87194C18.2771 8.92372 18.2326 8.96515 18.1791 8.96515C18.1537 8.96515 18.1293 8.95537 18.1113 8.93791C18.0932 8.92046 18.0829 8.89675 18.0826 8.87194ZM18.4806 9.20337C18.7265 9.07079 18.7747 8.74713 18.6512 8.57676C18.5294 8.40431 18.2533 8.43435 18.1213 8.46438C18.0392 8.71503 17.7493 8.79581 17.6105 8.8564C17.4536 8.92372 17.3137 9.0853 17.3137 9.0853C17.5501 9.13605 17.6561 9.20129 17.6561 9.20129C17.7748 9.11348 17.9197 9.0661 18.0686 9.06638C18.2175 9.06666 18.3622 9.11511 18.4806 9.20337ZM17.7408 9.94079C17.7408 9.94079 17.9523 9.63267 17.7975 9.43174C17.6322 9.21579 17.4801 9.18835 17.2634 9.14071C17.2634 9.14071 17.1002 9.35044 16.9794 9.44365C16.9794 9.44365 17.5877 9.43796 17.7408 9.94079ZM17.3736 11.8507C17.3736 11.8507 17.2443 12.2328 16.9677 12.2468C16.6561 12.2644 16.2539 11.9294 15.8512 11.2852C15.8512 11.2852 15.9402 11.9232 16.3334 12.396C16.5984 12.717 16.8156 12.8284 16.9582 12.8284C17.1733 12.8284 17.3906 12.657 17.4637 12.4602C17.5352 12.2644 17.513 11.9584 17.3736 11.8507ZM17.2623 18.5579C17.4298 18.4564 17.6015 18.4067 17.6349 18.3969C17.4865 18.3037 17.3593 18.2431 17.2576 18.2037C17.1542 18.1638 17.0101 18.1286 17.0101 18.1286C16.9433 18.1493 16.8246 18.1597 16.8246 18.1597C16.964 18.1887 17.1155 18.4026 17.1505 18.4652C17.1876 18.531 17.2618 18.5585 17.2618 18.5585L17.2623 18.5579ZM16.9619 19.0302C17.0212 19.0028 17.1431 18.8982 17.1023 18.6781C17.0578 18.4207 16.6678 18.1633 16.6678 18.1633C16.6073 18.1647 16.5473 18.1519 16.4929 18.126C16.4189 18.1646 16.35 18.2119 16.2878 18.2669C16.406 18.2477 16.5989 18.2985 16.7065 18.3757C16.7875 18.4337 16.92 18.6346 16.8384 18.7739C16.7563 18.9116 16.4563 18.8169 16.4563 18.8169C16.6323 19.1649 16.9031 19.0587 16.9619 19.0302ZM17.4971 18.7195C17.5851 18.7024 17.7186 18.7817 17.7186 18.7817C17.7186 18.7159 17.6916 18.6512 17.7684 18.603C17.841 18.5585 18.1367 18.6118 18.2612 18.5911C18.3216 18.5807 18.3449 18.5471 18.3285 18.5134C18.2904 18.428 18.2183 18.3492 18.2183 18.3492C18.0752 18.3896 17.6327 18.5025 17.4732 18.5755C17.3757 18.6196 17.2141 18.704 17.185 18.7817C17.1447 18.8873 17.1982 18.9386 17.2406 18.9857C17.3074 18.7982 17.3805 18.7433 17.4971 18.7195ZM18.6735 15.8226C18.7948 16.6155 18.5977 16.7584 18.5977 16.7584C18.4011 16.3881 18.4658 15.8651 18.4658 15.8651C18.4175 15.8102 18.3174 15.7118 18.2591 15.6191C18.355 17.2711 18.6269 17.4611 18.6269 17.4611C19.0238 17.1069 18.9056 15.9749 18.8706 15.5445C18.8128 15.6424 18.7469 15.7354 18.6735 15.8226ZM16.7859 20.7045C16.3196 20.4647 15.8623 20.0975 15.4495 19.5165C15.4389 19.4966 15.4267 19.4775 15.4129 19.4595C15.4129 19.4595 15.2582 19.4958 15.1363 19.444L15.2158 19.5703C15.6593 20.2166 16.1495 20.6216 16.6519 20.8842L16.7859 20.7045ZM11.4497 14.3892C11.4206 14.5922 11.4094 14.8884 11.4402 15.1007C11.4773 15.3731 11.5567 15.6377 11.7936 15.9018C12.0342 16.1711 12.3596 16.1318 12.3596 16.1318C12.2854 16.0158 12.1646 15.6755 12.1238 15.5135C12.0673 15.2919 12.001 15.0728 11.925 14.8568C11.8228 14.6113 11.6161 14.3654 11.5541 14.2923C11.5265 14.3213 11.4905 14.3545 11.4492 14.3892H11.4497ZM12.7867 13.4327C12.8317 13.31 12.801 12.9449 12.801 12.9449C12.5609 13.0521 12.2742 12.9066 12.2742 12.9066C12.2774 13.1862 12.5095 13.571 12.5816 13.6761C12.6982 13.5917 12.7475 13.5332 12.7867 13.4327ZM11.2611 18.5134C11.2446 18.5471 11.2664 18.5807 11.3289 18.5911C11.4524 18.6118 11.748 18.5585 11.8212 18.603C11.8975 18.6512 11.8694 18.7164 11.8694 18.7817C11.8694 18.7817 12.0051 18.7024 12.0904 18.7195C12.2091 18.7438 12.2806 18.7982 12.3479 18.9857C12.3908 18.9391 12.4444 18.8873 12.403 18.7817C12.3749 18.704 12.2133 18.6196 12.1169 18.5755C11.9579 18.503 11.5159 18.3891 11.3707 18.3492C11.3707 18.3492 11.2981 18.428 11.2611 18.5134ZM11.8959 20.1586L13.3447 22.0985L13.5153 21.8505C12.9282 21.0664 12.2038 20.0949 12.1301 19.9965L12.358 19.8412L11.641 19.5781L11.6532 20.3259L11.8959 20.1586ZM11.2626 14.5052C11.2265 14.5229 11.1887 14.5373 11.1498 14.5482L11.1053 14.5632L11.0607 14.542C11.0549 14.5383 10.9972 14.5067 10.9367 14.4296C10.8597 14.5196 10.8012 14.6233 10.7645 14.7351C10.6861 14.9645 10.7084 15.1898 10.7719 15.3824C10.8324 15.5663 11.0454 15.79 11.0454 15.79C11.1222 15.7056 11.2626 15.5699 11.3305 15.3467C11.3856 15.1644 11.3564 14.9402 11.3411 14.7983C11.3305 14.6911 11.3109 14.631 11.2626 14.5052ZM11.3305 15.6186C11.2732 15.7118 11.1715 15.8102 11.1222 15.8651C11.1222 15.8651 11.1885 16.3881 10.9919 16.7584C10.9919 16.7584 10.7953 16.6155 10.9166 15.8226C10.8439 15.7348 10.778 15.6419 10.7195 15.5445C10.685 15.9743 10.5658 17.1069 10.9632 17.4611C10.9632 17.4611 11.2351 17.2705 11.3305 15.6186ZM16.7886 12.9449C16.7886 12.9449 16.7579 13.31 16.8045 13.4327C16.8416 13.5332 16.8914 13.5917 17.0069 13.6761C17.08 13.571 17.3137 13.1867 17.3164 12.9066C17.3164 12.9066 17.0292 13.0521 16.7886 12.9449ZM11.1996 21.1648C10.9654 21.199 10.7386 21.2104 10.5186 21.2006C10.5224 21.2353 10.5224 21.2808 10.5012 21.3145C10.5012 21.3145 10.5457 21.3637 10.5457 21.4181C10.7672 21.4253 10.9987 21.4129 11.2346 21.3782C11.6267 21.3212 12.039 21.2451 12.4534 21.0954L12.3161 20.9116C11.9367 21.0421 11.5583 21.1125 11.1996 21.1648ZM10.0089 21.5035C9.93878 21.5794 9.87161 21.6578 9.8075 21.7386C9.79319 21.7645 9.8165 21.8054 9.85943 21.7997C9.90076 21.7956 10.1323 21.7733 10.2648 21.6873C10.3973 21.6003 10.4858 21.4331 10.3941 21.373C10.303 21.3124 10.1609 21.3414 10.0089 21.5035ZM14.2471 22.8292C14.1904 22.7552 14.0383 22.5517 13.8391 22.2855L13.6695 22.5315L14.2715 23.3372L14.7272 22.5625L14.5661 22.2855C14.4469 22.4895 14.3192 22.708 14.2471 22.8292ZM17.9343 20.3249L17.9491 19.5771L17.2295 19.8396L17.4579 19.9955L15.3425 22.8297L14.2667 20.967L14.1342 21.1612L13.1772 22.5428L12.9372 22.3906L12.9345 23.1249L13.661 22.8499L13.4173 22.6961C13.5492 22.5045 14.0691 21.7562 14.2418 21.5045L15.3181 23.3372L17.6932 20.1576L17.9343 20.3249ZM9.06827 14.9143C9.05979 14.8972 9.05449 14.8791 9.05025 14.8677C9.0336 14.814 9.02591 14.758 9.02746 14.702C8.12555 15.6217 7.60252 15.7791 7.60252 15.7791C7.93743 15.1333 8.76356 14.733 9.04919 14.5782C9.06825 14.5105 9.10105 14.4473 9.14563 14.3923C9.13397 14.3959 9.12126 14.3964 9.10854 14.3975C8.94956 14.4161 8.82292 14.3887 8.727 14.3478C8.35076 14.6082 7.83939 15.0034 7.43931 15.4353C7.03922 15.8677 6.89562 16.268 6.82249 16.775C6.82249 16.775 7.56967 16.7496 8.04235 16.1245C8.51397 15.4984 8.74979 15.2131 9.06827 14.9143ZM8.57068 14.2483C8.54473 14.2258 8.52129 14.2006 8.50073 14.1732C8.50073 14.1732 7.67512 14.8703 6.80341 15.1727C6.80341 15.1727 6.98888 14.849 7.33491 14.6145C7.75461 14.3296 8.06885 14.2343 8.43608 14.0717L8.46628 14.0184C8.47794 14.0003 8.48748 13.9842 8.50073 13.9692C8.19285 14.0826 7.09857 14.4772 6.74459 14.6528C6.38955 14.8283 5.87765 15.226 5.59891 16.0355C5.59891 16.0355 6.33762 16.0981 6.94702 15.6165C7.55642 15.1333 8.26704 14.4617 8.57068 14.2483ZM9.96753 21.3052C9.93509 21.2863 9.89881 21.2747 9.86126 21.2711C9.82371 21.2676 9.78582 21.2721 9.75027 21.2845C9.65806 21.3166 9.32262 21.5051 9.3009 21.5947C9.27758 21.6832 9.32421 21.7267 9.37668 21.7469C9.42808 21.7661 9.49061 21.7847 9.53724 21.7904C9.57683 21.7914 9.61615 21.7838 9.65236 21.7682C9.68857 21.7525 9.72075 21.7291 9.74656 21.6998C9.78895 21.648 9.94633 21.4683 9.96753 21.4258C9.99032 21.387 10.002 21.3274 9.96753 21.3052ZM16.4124 22.5428L16.2422 22.2953L16.061 22.5346C16.1098 22.6029 16.1463 22.6594 16.1718 22.6967L15.928 22.8505L16.6561 23.1254L16.6519 22.3906L16.4124 22.5434V22.5428ZM9.72589 20.9318C9.72377 20.8484 9.6464 20.8267 9.57592 20.8267C9.50597 20.8267 9.21293 20.8334 9.05661 20.7215C9.04626 20.7144 9.03652 20.7064 9.02746 20.6977C8.86637 20.5631 8.77469 20.3559 8.77469 20.1281C8.77469 19.6936 9.1451 19.3378 9.60242 19.3378C10.0592 19.3378 10.428 19.6936 10.428 20.1286C10.428 20.1871 10.4164 20.285 10.4164 20.285C10.454 20.2166 10.5902 19.9147 10.6177 19.8593C10.5532 19.6455 10.4192 19.458 10.2361 19.3251C10.0529 19.1922 9.83054 19.121 9.60242 19.1224C9.18538 19.1224 8.82556 19.3534 8.65387 19.6889C8.71852 19.2902 8.92678 18.9308 9.07356 18.7987C9.25003 18.6403 9.5489 18.589 9.5489 18.589C9.35283 18.6201 9.09317 18.5041 8.80384 18.2493C8.52828 18.0095 8.38838 17.7982 8.37991 17.6227C8.39633 17.8707 8.38838 18.0095 8.3142 18.212C8.2151 18.4865 7.9422 18.9955 8.04023 19.5688C8.09322 19.8837 8.33168 20.3523 8.7323 20.7355C8.81709 20.8215 8.84835 20.9489 8.85895 21.0136C8.85895 21.0136 9.44768 21.0136 9.58705 21.0271C9.58705 21.0271 9.72748 21.0136 9.72589 20.9318ZM9.62097 21.0913C9.55208 21.0809 9.3311 21.0866 9.19862 21.1048C9.05396 21.1281 8.88915 21.155 8.87114 21.2316C8.85524 21.3052 8.9077 21.3808 8.98136 21.4916C9.02587 21.56 9.13397 21.5201 9.19333 21.4988C9.25321 21.4781 9.59394 21.3036 9.64799 21.2461C9.70257 21.1892 9.72589 21.1079 9.6215 21.0908L9.62097 21.0913ZM22.8466 14.6533C22.4931 14.4777 21.3978 14.0831 21.091 13.9697C21.1026 13.9853 21.1132 14.0008 21.1238 14.0189L21.1556 14.0723C21.5228 14.2349 21.836 14.3302 22.2578 14.615C22.6007 14.8496 22.7867 15.1732 22.7867 15.1732C21.9155 14.8708 21.091 14.1738 21.091 14.1738C21.0694 14.2006 21.0457 14.2257 21.02 14.2488C21.322 14.4622 22.0337 15.1339 22.6426 15.617C23.2525 16.0986 23.9896 16.036 23.9896 16.036C23.7119 15.2266 23.2 14.8288 22.8466 14.6533ZM23.4125 13.8061C23.0087 13.6885 22.1052 13.585 21.7438 13.515C21.7571 13.5399 21.7687 13.5658 21.7804 13.5943C22.0793 13.6683 22.4709 13.7983 22.8286 13.9402C23.1571 14.0733 23.4708 14.2841 23.4708 14.2841C22.8365 14.2675 22.1964 14.0277 21.7184 13.8237C21.603 13.8892 21.4733 13.9272 21.34 13.9345C21.5689 13.9925 21.9431 14.1044 23.1417 14.644C24.342 15.1825 24.9768 14.9961 24.9768 14.9961C24.5439 14.2059 23.8137 13.9242 23.4125 13.8061ZM17.0477 7.22049H17.2051V6.9771H17.4028V6.84608H17.2051V6.6379H17.0477V6.84608H16.8516V6.97658H17.0477V7.22049ZM22.1227 12.8154C22.1174 12.8206 22.0538 12.8693 21.9537 12.9273C22.3866 12.964 23.3071 13.005 23.7819 13.2364C23.7819 13.2364 22.9054 13.3473 21.7507 13.0272C21.6331 13.079 21.5435 13.1054 21.3904 13.121C21.4736 13.1727 21.5536 13.238 21.6246 13.3265C22.0469 13.4436 22.766 13.5699 23.9546 13.6518C25.1427 13.7325 25.7759 13.5254 25.7759 13.5254C25.3626 13.2836 24.7029 13.0381 24.2567 12.9558C23.8089 12.8729 22.6373 12.8822 22.1227 12.8154ZM8.25008 13.9345C8.11692 13.9274 7.9874 13.8894 7.87225 13.8237C7.39427 14.0277 6.75413 14.2675 6.11982 14.2846C6.11982 14.2846 6.43247 14.0733 6.76155 13.9402C7.10253 13.8028 7.45231 13.6873 7.80866 13.5943C7.82035 13.5676 7.83272 13.5412 7.84575 13.515C7.48435 13.5844 6.58244 13.6885 6.17864 13.8066C5.77591 13.9247 5.04621 14.2059 4.6138 14.9956C4.6138 14.9956 5.24864 15.1825 6.44731 14.644C7.64544 14.1044 8.02168 13.9925 8.25008 13.9345ZM20.8631 14.3483C20.7428 14.3981 20.611 14.4153 20.4816 14.398C20.469 14.3975 20.4566 14.3958 20.4445 14.3928C20.4943 14.4565 20.524 14.5197 20.5414 14.5792C20.826 14.7341 21.6543 15.1333 21.9881 15.7802C21.9881 15.7802 21.4646 15.6222 20.5616 14.703C20.5651 14.7758 20.5517 14.8484 20.5224 14.9153C20.8398 15.2131 21.0761 15.4995 21.5478 16.125C22.0194 16.7501 22.7671 16.7755 22.7671 16.7755C22.6955 16.2685 22.5514 15.8682 22.1508 15.4363C21.7507 15.0039 21.2399 14.6088 20.8631 14.3483ZM19.8404 21.2839C19.8044 21.2717 19.7662 21.2673 19.7283 21.271C19.6904 21.2747 19.6538 21.2863 19.621 21.3052C19.5887 21.3269 19.5998 21.387 19.621 21.4258C19.6459 21.4683 19.8012 21.6485 19.8446 21.6998C19.8702 21.729 19.9021 21.7522 19.9381 21.7679C19.974 21.7836 20.013 21.7912 20.0523 21.7904C20.1075 21.7817 20.1615 21.7671 20.2134 21.7469C20.2654 21.7262 20.3115 21.6832 20.2897 21.5947C20.2664 21.5051 19.9315 21.3166 19.8404 21.2839ZM19.1971 21.3735C19.1054 21.4336 19.1933 21.6009 19.3258 21.6879C19.4583 21.7738 19.6883 21.7961 19.7312 21.8002C19.7731 21.8054 19.7985 21.7645 19.7821 21.7391C19.7181 21.6585 19.6513 21.5801 19.5818 21.504C19.4281 21.3419 19.2861 21.3135 19.1971 21.3735ZM21.2102 17.6222C21.2033 17.7977 21.0608 18.0085 20.7863 18.2488C20.4959 18.5036 20.2367 18.619 20.0412 18.5885C20.0412 18.5885 20.3406 18.6392 20.5165 18.7982C20.6649 18.9303 20.8705 19.2897 20.9352 19.6884C20.8469 19.5173 20.7115 19.3736 20.5442 19.2735C20.3769 19.1734 20.1844 19.1209 19.9882 19.1219C19.7599 19.12 19.5372 19.1909 19.3539 19.3239C19.1705 19.4569 19.0366 19.6447 18.9724 19.8588C18.9989 19.9142 19.1366 20.2161 19.1737 20.2845C19.1737 20.2845 19.1621 20.1866 19.1621 20.1281C19.1621 19.6931 19.532 19.3368 19.9882 19.3368C20.445 19.3368 20.8165 19.6931 20.8165 20.1281C20.8165 20.3559 20.7227 20.5631 20.5621 20.6972C20.552 20.7055 20.5446 20.7127 20.534 20.721C20.3777 20.8329 20.0836 20.8262 20.0147 20.8262C19.9442 20.8262 19.8674 20.8479 19.8647 20.9313C19.8626 21.0131 20.0015 21.0266 20.0015 21.0266C20.1424 21.0131 20.7317 21.0131 20.7317 21.0131C20.7412 20.9484 20.7735 20.821 20.8594 20.735C21.2584 20.3518 21.4974 19.8831 21.5509 19.5683C21.6479 18.995 21.3745 18.486 21.2738 18.2115C21.2007 18.0095 21.1938 17.8702 21.2102 17.6222ZM19.0715 21.2006C18.8537 21.2109 18.6247 21.1995 18.39 21.1653C18.0318 21.113 17.6534 21.0426 17.274 20.9116L17.1373 21.0949C17.5511 21.2456 17.9655 21.3223 18.3561 21.3787C18.5929 21.4139 18.8224 21.4258 19.0466 21.4191C19.0466 21.3642 19.0889 21.3145 19.0889 21.3145C19.0715 21.2791 19.0654 21.2394 19.0715 21.2006ZM20.3909 21.1042C20.2601 21.0861 20.0391 21.0799 19.9686 21.0908C19.8653 21.1073 19.8886 21.1892 19.9411 21.2461C19.9967 21.3031 20.3374 21.4776 20.3973 21.4983C20.4556 21.5196 20.5632 21.5594 20.6103 21.4911C20.6829 21.3803 20.7349 21.3047 20.7195 21.2311C20.7015 21.1545 20.5361 21.1275 20.3909 21.1042ZM24.289 11.7455C23.0469 11.8232 22.2202 12.1013 21.6198 12.2753C21.7083 12.3064 21.7799 12.3405 21.8397 12.3737C23.1831 12.0091 24.1396 12.1987 24.1396 12.1987C23.7474 12.3245 22.651 12.4871 21.9918 12.4835C22.0581 12.543 22.101 12.6026 22.1375 12.6559C22.7003 12.6507 23.4713 12.7761 24.4204 12.5782C25.3695 12.3815 26.1988 11.8232 26.1988 11.8232C25.8597 11.7388 25.2005 11.6886 24.289 11.7455ZM14.4188 7.23551C14.3812 6.9714 14.2816 6.33547 14.174 6.25676C14.1184 6.21688 14.0458 6.22103 13.9641 6.24537C13.8809 6.27022 13.793 6.32305 13.7893 6.39244C13.784 6.50896 13.9233 6.85696 14.1289 7.32717C14.2508 7.26813 14.3144 7.25467 14.4188 7.23551ZM5.63601 13.6518C6.82408 13.5694 7.54476 13.4431 7.96763 13.3255C8.03264 13.2445 8.11153 13.1751 8.2008 13.1204C8.04712 13.1049 7.95703 13.079 7.84045 13.0272C6.68524 13.3467 5.80929 13.2359 5.80929 13.2359C6.28356 13.005 7.20456 12.9635 7.63697 12.9268C7.57752 12.8939 7.52082 12.8565 7.46739 12.8149C6.95338 12.8822 5.78174 12.8724 5.33502 12.9547C4.8883 13.0376 4.22856 13.283 3.81469 13.5254C3.81469 13.5254 4.449 13.7331 5.63601 13.6518ZM14.5073 7.22567C14.5592 7.21997 14.6133 7.21738 14.6679 7.21531C14.635 6.96156 14.5428 6.54158 14.4904 6.37638C14.4358 6.20963 14.3669 6.09001 14.2535 6.06049C14.2535 6.06049 14.342 6.29249 14.3913 6.53071C14.4389 6.76944 14.4755 6.99781 14.5078 7.22567H14.5073ZM14.3144 7.78444C14.3144 7.78444 14.0802 8.01747 13.8523 8.06926C13.8523 8.06926 13.9456 7.83519 14.3144 7.78444ZM14.1941 8.04854C14.3452 7.96258 14.475 7.76787 14.5036 7.67724C14.3759 7.66015 14.0511 7.69433 13.8518 7.83053C13.7097 7.92242 13.5951 8.04946 13.5195 8.19872C13.5195 8.19872 13.8756 8.22462 14.1941 8.04854ZM12.3855 7.21997H12.5445V6.97658H12.7406V6.84556H12.5445V6.63738H12.3855V6.84556H12.1873V6.97606H12.3855V7.21946V7.21997ZM15.2778 7.78444C15.6456 7.83519 15.7399 8.06926 15.7399 8.06926C15.5104 8.01747 15.2778 7.78444 15.2778 7.78444ZM15.087 7.67724C15.1172 7.76787 15.2471 7.96258 15.397 8.04854C15.715 8.22462 16.0716 8.19872 16.0716 8.19872C15.9969 8.04921 15.8823 7.92218 15.7399 7.83104C15.5401 7.69433 15.2158 7.66015 15.0876 7.67724H15.087ZM16.8209 7.99624C16.8792 7.98588 16.8681 7.99003 17.0133 7.97863C16.9852 7.85279 16.9338 7.52758 16.8527 7.45508C16.7753 7.38621 16.6614 7.37999 16.6047 7.38258C16.5485 7.38621 16.4881 7.44213 16.5125 7.51463C16.5353 7.58972 16.7865 7.94963 16.8209 7.99624ZM14.715 5.9911H14.8751V5.74615H15.0717V5.61617H14.8756V5.40903H14.715V5.61617H14.519V5.74563H14.715V5.9911ZM15.4622 7.32717C15.6694 6.85696 15.8067 6.50896 15.8014 6.39296C15.7982 6.32305 15.7107 6.27022 15.6291 6.24537C15.5454 6.22103 15.4712 6.21688 15.4172 6.25676C15.3101 6.33547 15.2094 6.9714 15.1724 7.23551C15.2783 7.25467 15.3419 7.26813 15.4622 7.32717ZM15.0839 7.22567C15.1157 6.99781 15.1527 6.76996 15.2004 6.53071C15.2497 6.29249 15.3382 6.05997 15.3382 6.05997C15.2232 6.09001 15.1549 6.21015 15.1019 6.37587C15.0478 6.54158 14.9572 6.96208 14.9238 7.2148C14.9779 7.21738 15.0314 7.21997 15.0839 7.22567ZM12.5779 7.97863C12.7231 7.99003 12.712 7.9864 12.7697 7.99624C12.8036 7.94963 13.0548 7.58972 13.0797 7.51463C13.1025 7.44213 13.0426 7.38621 12.9854 7.3831C12.9292 7.37999 12.8142 7.38621 12.7385 7.45508C12.6579 7.52758 12.6065 7.8528 12.5784 7.97812L12.5779 7.97863ZM8.05984 10.3784L8.17059 10.4224C8.29141 10.4706 8.41064 10.5239 8.51504 10.5736C8.39131 10.4483 8.28284 10.3095 8.19179 10.1598C8.13427 10.0629 8.09025 9.95898 8.0609 9.85069L8.02698 9.7378C7.66876 9.5089 7.29941 9.13553 7.04664 8.9144C6.79281 8.69328 6.43247 8.24844 6.23428 7.69226C6.47115 7.8383 6.68577 8.02006 6.93907 8.32042C7.30842 8.76008 7.69473 9.23496 8.01903 9.62905L8.00791 9.4856C8.00579 9.41983 8.00791 9.35769 8.0095 9.30072L8.00844 9.28467C7.735 8.73574 7.29146 8.06046 6.94543 7.58403C6.66457 7.19563 6.02073 6.48099 5.57295 6.11849C5.46856 6.56592 5.30269 7.40226 5.70013 8.1226C6.0965 8.84242 7.07314 9.87813 8.05984 10.3784ZM7.85741 11.0645C7.7966 10.9841 7.7388 10.9015 7.68413 10.817C7.19926 10.5923 7.07579 10.5218 6.83627 10.3955C6.51376 10.2209 6.20597 10.0216 5.9158 9.79942C5.63601 9.58813 5.28891 9.15728 5.28891 9.15728C5.66568 9.27897 6.04457 9.53842 6.29734 9.72019C6.62483 9.95633 7.15156 10.3364 7.59563 10.6782L7.43454 10.2287C6.91575 9.84085 6.16804 9.14485 5.91898 8.90819C5.67151 8.66997 4.71449 7.88128 4.2736 7.79738C4.2736 7.79738 4.14589 8.68965 4.5995 9.2883C5.05363 9.88642 6.52203 10.8522 7.85741 11.0645ZM7.45415 12.6559C7.49018 12.6031 7.5331 12.543 7.59881 12.4835C6.94013 12.4871 5.84479 12.3245 5.45266 12.1987C5.45266 12.1987 6.40809 12.0091 7.7509 12.3742C7.81131 12.3405 7.88338 12.3069 7.9724 12.2753C7.36989 12.1013 6.54481 11.8232 5.30163 11.7455C4.39018 11.6886 3.73309 11.7388 3.39235 11.8232C3.39235 11.8232 4.22273 12.3815 5.17074 12.5782C6.12035 12.7755 6.89085 12.6507 7.45415 12.6559ZM9.62362 11.2007C9.50121 11.0506 9.40529 10.8419 9.33534 10.5969C9.27758 10.397 9.14616 9.90144 9.0688 9.77353C8.99143 9.6451 8.71057 9.19612 8.16264 9.0563C8.16264 9.0563 8.01691 9.64199 8.29247 10.1039C8.52934 10.5042 9.01739 10.9242 9.62362 11.2007ZM4.81199 11.3059C5.70702 11.6611 7.36989 11.8652 8.21457 12.2173C7.82191 12.0386 7.7509 11.715 7.74772 11.6984C7.27344 11.6114 7.02015 11.5814 6.43565 11.4027C5.84586 11.223 5.48763 10.9967 5.48763 10.9967C5.74199 11.02 6.04245 11.0418 6.45102 11.151C6.96609 11.2883 7.23052 11.3768 7.79859 11.5845C7.93902 11.4949 8.10753 11.4519 8.25856 11.4472C7.85158 11.2738 6.69001 10.8584 5.92693 10.6352C5.27514 10.4436 4.42886 10.2002 3.38281 10.2272C3.38281 10.2272 3.60379 10.8253 4.81199 11.3059ZM12.1624 7.99624C12.2213 7.98588 12.2101 7.99003 12.3548 7.97863C12.3272 7.85279 12.2753 7.52758 12.1948 7.45508C12.1185 7.38621 12.004 7.37999 11.9484 7.38258C11.8901 7.38621 11.8312 7.44213 11.8551 7.51463C11.8773 7.58972 12.1296 7.94963 12.1624 7.99624ZM9.86897 11.2846C10.1233 11.4783 10.2314 11.671 10.2314 11.671C9.62362 11.2945 9.23996 11.5291 9.23996 11.5291C9.3576 12.1396 9.88963 12.252 9.88963 12.252C9.31468 12.1898 9.08045 12.4659 9.08045 12.4659C9.29242 12.9133 9.84724 12.9345 9.84724 12.9345C9.3576 13.3017 9.44397 13.5653 9.44397 13.5653C9.98608 13.688 10.2844 13.4332 10.2844 13.4332C9.86897 13.9532 10.189 14.339 10.189 14.339C10.7423 14.2685 10.9246 13.8496 10.9246 13.8496C10.87 14.3208 11.1153 14.4415 11.1153 14.4415C11.4137 14.3483 11.5636 14.0956 11.5636 14.0956C11.7231 14.4213 12.0957 14.4829 12.0957 14.4829C12.2562 14.1862 12.1397 13.9122 12.1397 13.9122C12.4597 14.0055 12.5556 13.8201 12.5556 13.8201C12.3516 13.6057 12.2356 13.2711 12.2356 13.2711C11.6807 13.484 10.9977 13.3726 10.8053 13.1582C10.6161 12.9444 10.9346 12.3949 11.1058 12.0076C11.2754 11.6207 11.0517 11.3457 10.8509 11.2132C9.94421 10.6223 9.61355 10.1842 9.41112 9.75747C9.30355 10.5513 9.61355 11.0899 9.86897 11.2846ZM10.8557 7.05219C10.9765 7.02267 11.1381 6.90097 11.269 6.80155C11.3988 6.70004 11.4841 6.70833 11.4841 6.70833C11.444 6.67525 11.3966 6.65164 11.3456 6.63934C11.2946 6.62703 11.2413 6.62637 11.19 6.63738C10.9463 6.68399 10.6569 6.95328 10.6569 6.95328C10.6445 6.99073 10.6422 7.03067 10.6501 7.06928C10.7089 7.07446 10.7348 7.08326 10.8557 7.05219ZM11.207 7.35358C11.1503 7.45767 11.066 7.58869 11.1037 7.77512C11.1476 7.98485 11.5022 8.0646 11.5022 8.0646C11.4375 8.00142 11.3824 7.92374 11.3771 7.84969C11.3665 7.69899 11.4592 7.57522 11.5223 7.48046C11.5848 7.38621 11.7051 7.13763 11.7067 7.03924C11.7094 6.94292 11.6166 6.83313 11.5085 6.72905C11.5223 6.77669 11.5022 6.84815 11.4645 6.93463C11.4227 7.0294 11.2595 7.25571 11.207 7.3541V7.35358ZM10.3591 8.18474C10.3591 8.14331 10.3607 8.10396 10.3671 8.0646C10.3819 7.96258 10.383 7.87765 10.3719 7.80567C10.2304 7.85746 10.1345 7.89008 9.93997 8.18992C9.93997 8.18992 10.251 8.00763 10.3591 8.18474ZM10.4837 8.07962C10.4561 8.26863 10.4969 8.47112 10.6305 8.65962C10.6523 8.49743 10.6926 8.33815 10.7507 8.18474C10.8302 7.98019 10.7841 7.68397 10.6877 7.50479C10.596 7.33131 10.5457 7.16871 10.561 6.98849C10.561 6.98849 10.3782 7.04753 10.2717 7.11071C10.2547 7.31785 10.3825 7.52758 10.4429 7.64513C10.5144 7.78496 10.4996 7.96828 10.4837 8.07962ZM11.7157 8.45558C11.7729 8.59747 12.0056 8.76526 12.0056 8.76526C11.9326 8.61444 11.8891 8.45163 11.8773 8.28521C11.6442 8.21685 11.6574 8.31472 11.7157 8.45558ZM11.6415 15.8982C11.5669 15.8057 11.5046 15.7042 11.4561 15.5963C11.5514 16.3368 11.5843 16.8366 12.0035 17.3156C12.0035 17.3156 12.2557 16.9956 12.0935 16.2152C12.0236 16.1965 11.9436 16.1634 11.8683 16.1152C11.8683 16.1152 11.9637 16.4321 11.9028 16.7496C11.9028 16.7496 11.7533 16.646 11.6415 15.8982ZM12.7983 9.77353C12.8874 9.84292 12.9631 9.95012 12.9981 10.1314C13.049 10.3846 13.2037 10.6565 13.2504 10.7388L13.2694 10.7347C13.2413 10.5612 13.3542 10.1997 13.3849 10.1474C13.3849 10.1474 13.2196 10.049 13.1438 9.94753C13.0882 9.87192 12.9912 9.74556 12.7199 9.58503C12.6414 9.59564 12.5638 9.61209 12.4878 9.63422C12.4878 9.63422 12.6945 9.69171 12.7983 9.77405V9.77353ZM15.7452 18.6745C15.8883 18.8422 16.1967 19.3275 16.6725 19.3321C16.6725 19.3321 16.6021 19.1043 16.3912 18.9727C16.1792 18.8422 15.91 18.6745 15.7881 18.4725C15.6678 18.271 15.5396 18.1773 15.4521 18.14C15.4336 18.2876 15.3589 18.4238 15.2773 18.5662C15.2773 18.5662 15.5512 19.7723 16.5406 19.866C16.5406 19.866 16.5194 19.6159 16.2274 19.4248C15.9333 19.2353 15.4961 18.9391 15.5274 18.4911C15.5274 18.4911 15.6053 18.5067 15.7452 18.6745ZM11.8551 18.3653C11.8551 18.3653 12.0867 18.2146 12.3405 18.1219C12.5058 18.0603 12.5869 17.8956 12.7623 17.7304C12.5652 17.7988 12.1195 17.8666 11.9346 17.9189C11.7486 17.9722 11.6134 18.0629 11.4359 18.2488C11.4359 18.2488 11.7094 18.3223 11.8551 18.3653ZM13.3071 9.92837C13.3282 9.67151 13.1974 9.52081 13.0061 9.39135C12.8556 9.28622 12.5413 9.19249 12.4777 9.1754C12.606 9.3551 12.8497 9.55862 12.9838 9.63215C13.1544 9.72381 13.3071 9.92837 13.3071 9.92837ZM14.7956 7.84658C14.8274 7.84672 14.858 7.83454 14.8806 7.8127C14.9033 7.79086 14.9161 7.76115 14.9164 7.73006C14.9163 7.71469 14.913 7.6995 14.9069 7.68535C14.9007 7.67121 14.8918 7.65838 14.8806 7.64761C14.8694 7.63684 14.8561 7.62833 14.8415 7.62257C14.8269 7.61682 14.8113 7.61393 14.7956 7.61406C14.7278 7.61406 14.6721 7.66585 14.6721 7.73006C14.6727 7.76156 14.686 7.79156 14.7091 7.8135C14.7323 7.83543 14.7633 7.847 14.7956 7.84658ZM16.5825 8.5229C16.8972 8.56122 17.266 8.54569 17.266 8.54569C17.2459 8.65703 17.1987 8.74092 17.1155 8.79271C17.0959 8.55035 16.5825 8.54776 16.5825 8.54776V8.5229ZM15.582 9.08374C15.9132 9.01538 16.0181 8.8388 16.0748 8.77044C16.0748 8.77044 16.0313 8.93978 16.0509 9.00762C16.0509 9.00762 16.1967 8.99933 16.3106 8.86365C16.3106 8.86365 16.2274 8.99933 16.2105 9.1143C16.2105 9.1143 16.3016 9.12465 16.4627 9.03144C16.4627 9.03144 16.4304 9.11637 16.4245 9.21424C16.4245 9.21424 16.805 9.09721 16.991 8.93149C16.991 8.93149 16.9937 9.04542 16.9847 9.11067C16.9847 9.11067 17.576 9.05371 17.6206 8.22772C17.6206 8.22772 17.2268 8.36806 16.831 8.34994C16.4357 8.33078 15.7076 8.32353 15.4707 8.21322C15.4707 8.21322 15.5099 8.35563 15.6986 8.43694C15.6986 8.43694 15.6005 8.43694 15.5025 8.51824C15.5025 8.51824 15.5597 8.63528 15.7266 8.6969C15.7266 8.6969 15.4262 8.99571 15.1035 8.97499C15.1035 8.97499 15.2502 9.15158 15.582 9.08374ZM17.1261 8.2039C17.3476 8.2039 17.5273 8.17387 17.5273 8.13606C17.5273 8.09619 17.3476 8.06667 17.1261 8.06667C16.9057 8.06667 16.7255 8.09619 16.7255 8.13606C16.7255 8.17387 16.9057 8.2039 17.1261 8.2039ZM16.9576 13.9097C16.9534 13.9045 16.9497 13.9019 16.9476 13.8972L16.928 13.9226C16.8569 13.9892 16.7746 14.0433 16.6847 14.0826C16.6847 14.0826 16.5088 14.4011 16.7218 14.7859C16.9327 15.1717 17.1113 15.5642 17.1982 15.7822C17.1982 15.7822 17.3116 15.7662 17.4377 15.1639C17.5241 14.7558 17.6322 14.6533 17.744 14.513C17.6206 14.572 17.5231 14.5896 17.5135 14.5917L17.4298 14.6051L17.39 14.5326C17.3253 14.4153 17.2921 14.2838 17.2936 14.1505C17.2936 14.1142 17.2952 14.079 17.2989 14.0484C17.1018 14.0526 16.9968 13.9578 16.9576 13.9097ZM17.3111 7.39812C17.3111 7.30956 17.1982 7.28315 17.1399 7.28315H17.1081C17.0498 7.28315 16.9375 7.30905 16.9375 7.39812C16.9375 7.48771 17.0838 7.70365 17.1219 7.79894H17.1256C17.1648 7.70365 17.3111 7.48771 17.3111 7.39812ZM13.7999 9.80097C13.6462 9.63215 13.4501 9.21424 13.4501 9.21424C13.3876 9.20803 13.3139 9.1899 13.2546 9.1754C13.2583 9.22874 13.2562 9.33697 13.2562 9.33697C13.191 9.32144 12.9939 9.26447 12.9939 9.26447C13.2276 9.42087 13.3002 9.47835 13.4125 9.58865C13.6118 9.78751 13.7236 10.035 13.7236 10.035C13.8089 9.89367 13.7999 9.80097 13.7999 9.80097ZM13.4501 17.7361C13.2276 17.7993 13.1772 18.0416 13.1772 18.0416C13.2753 18.0857 13.3176 18.1996 13.5164 18.1996C13.7305 18.1996 13.9758 17.994 14.1427 17.7159C14.2609 17.5165 14.316 17.1178 14.316 17.0468C14.1454 17.3436 13.7246 17.6579 13.4501 17.7361ZM14.5513 12.7113C14.6446 12.847 14.7134 12.875 14.7951 12.9117C14.8756 12.875 14.9434 12.847 15.0378 12.7113C15.1093 12.6047 15.1782 12.4084 15.1395 12.2675C15.0907 12.0946 14.9938 12.0257 14.9339 11.9175C14.8862 11.9604 14.8565 11.9941 14.7972 12.0262H14.7945C14.7346 11.9941 14.7044 11.9604 14.6552 11.9175C14.5947 12.0262 14.4988 12.0946 14.4485 12.2675C14.4109 12.4084 14.4787 12.6047 14.5513 12.7113ZM14.7929 11.8708H14.7972C14.9074 11.7797 15.006 11.644 15.0378 11.5643C15.0674 11.4845 15.0754 11.3675 15.0022 11.2774C14.9143 11.1702 14.8041 11.0506 14.7972 10.9527H14.7919C14.7834 11.0506 14.6742 11.1702 14.5863 11.2774C14.5131 11.3675 14.5206 11.4845 14.5529 11.5643C14.5831 11.644 14.6822 11.7797 14.7929 11.8708ZM13.3622 19.4248C13.0691 19.6159 13.0506 19.866 13.0506 19.866C14.0383 19.7723 14.3118 18.5662 14.3118 18.5662C14.2302 18.4238 14.156 18.2876 14.1353 18.1405C14.0505 18.1778 13.9223 18.271 13.8004 18.472C13.6785 18.6745 13.4099 18.8422 13.1984 18.9727C12.9875 19.1038 12.916 19.3316 12.916 19.3316C13.3945 19.3275 13.7024 18.8422 13.8423 18.6745C13.9832 18.5067 14.0611 18.4911 14.0611 18.4911C14.0929 18.9391 13.6552 19.2353 13.3622 19.4248ZM16.5819 9.39135C16.3927 9.52081 16.2619 9.67099 16.282 9.92837C16.282 9.92837 16.4362 9.72381 16.6052 9.63215C16.7409 9.55913 16.9847 9.3551 17.1113 9.1754C17.0498 9.19249 16.7351 9.28622 16.5819 9.39135ZM16.1394 9.21424C16.1394 9.21424 15.9423 9.63215 15.7897 9.80149C15.7897 9.80149 15.7807 9.89367 15.866 10.0345C15.866 10.0345 15.9773 9.78751 16.176 9.58917C16.2894 9.47835 16.3615 9.42087 16.5952 9.26499C16.5952 9.26499 16.398 9.32092 16.3334 9.33697C16.3334 9.33697 16.3292 9.22822 16.336 9.1754C16.2767 9.1899 16.2036 9.20803 16.14 9.21424H16.1394ZM15.0319 6.26453C15.0319 6.13869 14.9259 6.03667 14.7951 6.03667C14.6626 6.03667 14.5566 6.13869 14.5566 6.26453C14.5566 6.42455 14.7648 6.79015 14.7908 6.96053H14.7988C14.8253 6.78963 15.0319 6.42455 15.0319 6.26453ZM16.8697 9.58555C16.5994 9.74556 16.5003 9.87192 16.4457 9.94701C16.371 10.049 16.2062 10.1474 16.2062 10.1474C16.2359 10.1997 16.3498 10.5617 16.3212 10.7347L16.3387 10.7388C16.3853 10.656 16.5416 10.3846 16.5915 10.1314C16.6259 9.95012 16.7038 9.84292 16.7918 9.77405C16.8946 9.69171 17.1018 9.63422 17.1018 9.63422C17.0258 9.61217 16.9482 9.59589 16.8697 9.58555ZM16.1723 11.0179C16.1394 11.1324 16.1299 11.3069 16.1723 11.4721C16.2052 11.5979 16.2857 11.7616 16.4394 11.8532C16.5719 11.9325 16.8845 11.9506 17.0043 11.6678C17.0043 11.6678 16.4325 11.7098 16.1723 11.0179ZM13.1507 11.8532C13.3044 11.7616 13.3839 11.5979 13.4167 11.4721C13.4548 11.323 13.4548 11.167 13.4167 11.0179C13.1571 11.7098 12.5848 11.6678 12.5848 11.6678C12.7035 11.9506 13.0177 11.9325 13.1507 11.8532ZM10.7099 14.2613C10.5598 14.3647 10.3857 14.4298 10.2033 14.4508C9.55791 15.022 9.63262 15.2556 9.63262 15.2556C9.95746 15.3027 10.25 15.1442 10.4709 14.978C10.6151 14.8661 10.7163 14.7123 10.7497 14.572C10.7804 14.4322 10.738 14.3338 10.7099 14.2613ZM7.89239 13.703C7.89239 13.703 8.11707 13.8858 8.52669 13.8066C8.87432 13.7377 9.17584 13.5963 9.34965 13.3561C9.40264 13.2799 9.43974 13.1613 9.55367 13.0412C9.29771 12.9958 9.03518 12.9991 8.78052 13.051C8.42972 13.1137 8.07203 13.1924 7.89239 13.703ZM9.17584 11.4348C9.18538 11.4296 9.29825 11.3623 9.49167 11.3478C9.32951 11.2318 8.9395 10.9206 8.66606 10.7714C8.36401 10.6104 7.86589 10.397 7.61259 10.366C7.61259 10.366 7.85105 10.9615 8.12661 11.2033C8.41541 11.4519 8.61625 11.5451 9.10907 11.4757L9.17584 11.4348ZM9.8271 21.0266C9.77888 21.0949 9.8128 21.169 9.94845 21.2311C10.0831 21.2917 10.3379 21.3419 10.3899 21.2762C10.4386 21.2073 10.3692 21.0949 10.0831 21.0235C10.0391 21.0131 9.86367 20.9717 9.8271 21.0266ZM7.54211 12.7289C7.54211 12.7289 7.88656 13.005 8.28028 13.0138C8.67613 13.0262 9.04177 12.9164 9.20074 12.8045C9.10428 12.7242 9.02657 12.6246 8.97288 12.5125L8.9448 12.4493C8.64009 12.3302 8.32374 12.2696 8.01215 12.3799C7.70215 12.4912 7.61948 12.6181 7.54211 12.7289ZM7.86324 11.6777C7.86324 11.6777 7.93743 12.0526 8.44403 12.1816C8.92201 12.3007 9.09794 12.2696 9.29189 12.2075C9.34488 12.1883 9.40317 12.1702 9.46941 12.1572C9.30322 12.0147 9.18762 11.8243 9.13927 11.6135C8.99779 11.6445 8.66659 11.6445 8.52086 11.5928C8.37355 11.5384 8.08739 11.5368 7.86377 11.6772L7.86324 11.6777ZM15.3478 21.5056C15.4294 21.6252 15.5905 21.8582 15.751 22.0892L15.9312 21.8484L15.4559 21.1622L15.3213 20.968L14.8592 21.764L15.0287 22.054C15.1655 21.822 15.2873 21.6133 15.3478 21.5056ZM20.5743 20.5786C20.4641 20.4595 20.3263 20.3803 20.2007 20.3559C19.842 20.2865 19.7169 20.5134 19.5097 20.5838C19.3041 20.6537 19.1706 20.5134 18.9745 20.0608C18.7779 19.6071 18.4329 18.9981 18.2262 18.7713C18.1584 18.6967 17.9412 18.6972 17.9062 18.6967C17.8723 18.6967 17.8394 18.7081 17.8368 18.7454C17.8352 18.7817 17.8352 18.9852 17.8352 18.9852C17.7642 18.9386 17.6036 18.8397 17.5236 18.8308C17.4409 18.8195 17.2602 19.0199 17.3445 19.0349C18.2443 19.2032 18.6746 20.1483 18.85 20.5046C18.9411 20.6874 18.9925 20.8852 19.0397 21.0747C19.2993 21.0478 19.4864 21.0079 19.6671 20.8883C19.8457 20.7676 20.1663 20.7008 20.3369 20.7008C20.5038 20.7008 20.5425 20.634 20.5743 20.5786ZM14.1735 7.45094C14.1735 7.51981 14.4522 7.57781 14.7951 7.57781C15.139 7.57781 15.4172 7.51981 15.4172 7.45094C15.4172 7.38103 15.139 7.32406 14.7951 7.32406C14.4522 7.32406 14.1735 7.38103 14.1735 7.45094ZM15.3917 20.1177C15.2275 19.9743 14.8549 19.4688 14.7961 19.3093H14.7929C14.7357 19.4688 14.3616 19.9743 14.1962 20.1172C14.033 20.2622 13.634 20.6439 13.4215 20.8329C13.4215 20.8329 14.0283 20.6894 14.369 20.3937C14.369 20.3937 14.6128 20.5284 14.7903 20.5284H14.7988C14.9758 20.5284 15.219 20.3937 15.219 20.3937C15.5608 20.6894 16.1686 20.8329 16.1686 20.8329C15.955 20.6439 15.5565 20.2622 15.3917 20.1177ZM14.7982 20.647H14.7908C14.6557 20.647 14.529 20.5967 14.458 20.5662C14.529 20.7112 14.6636 20.9359 14.7929 21.0276H14.7951C14.9244 20.9359 15.0595 20.7117 15.1315 20.5662C15.0595 20.5967 14.9323 20.647 14.7982 20.647ZM10.7396 20.5035C10.9155 20.1478 11.3464 19.2022 12.2446 19.0338C12.3294 19.0183 12.1471 18.8184 12.0676 18.8298C11.9865 18.8386 11.8259 18.9375 11.756 18.9841C11.756 18.9841 11.756 18.7806 11.7533 18.7444C11.7512 18.7071 11.7173 18.6957 11.6823 18.6957C11.6479 18.6962 11.4306 18.6957 11.3612 18.7703C11.1572 18.9971 10.8112 19.6061 10.6156 20.0597C10.4195 20.5123 10.2865 20.6527 10.0793 20.5828C9.87268 20.5123 9.74868 20.2855 9.38939 20.3549C9.26433 20.3792 9.1255 20.4585 9.01686 20.5776C9.04707 20.632 9.08575 20.6998 9.2548 20.6998C9.42225 20.6998 9.74338 20.7666 9.92249 20.8873C10.1027 21.0069 10.2918 21.0468 10.5494 21.0737C10.5971 20.8842 10.6495 20.6863 10.7396 20.5035ZM12.4634 8.20338C12.6855 8.20338 12.8635 8.17335 12.8635 8.13555C12.8635 8.09567 12.6855 8.06615 12.4634 8.06615C12.2425 8.06615 12.0639 8.09567 12.0639 8.13555C12.0639 8.17335 12.2425 8.20338 12.4634 8.20338ZM13.0061 8.52238V8.54724C13.0061 8.54724 12.4947 8.54983 12.4746 8.79219C12.3919 8.7404 12.3437 8.65651 12.3246 8.54517C12.3246 8.54517 12.6939 8.56071 13.0061 8.52238ZM12.606 9.11015C12.597 9.0449 12.5991 8.93097 12.5991 8.93097C12.7846 9.09669 13.1661 9.21372 13.1661 9.21372C13.1614 9.15143 13.1478 9.09009 13.1258 9.03144C13.2885 9.12362 13.3802 9.11378 13.3802 9.11378C13.3627 8.99881 13.2806 8.86313 13.2806 8.86313C13.3934 8.99881 13.5386 9.0071 13.5386 9.0071C13.5593 8.93926 13.5164 8.76992 13.5164 8.76992C13.572 8.83828 13.678 9.01487 14.0081 9.08322C14.3388 9.15106 14.4877 8.97447 14.4877 8.97447C14.1645 8.99519 13.8624 8.69638 13.8624 8.69638C14.0309 8.63476 14.0876 8.51772 14.0876 8.51772C13.9912 8.43642 13.8915 8.43642 13.8915 8.43642C14.0802 8.35512 14.1184 8.21271 14.1184 8.21271C13.8836 8.32301 13.1539 8.33026 12.7596 8.34942C12.3638 8.36754 11.9685 8.22721 11.9685 8.22721C12.0135 9.05319 12.606 9.11015 12.606 9.11015ZM9.09529 14.2877C9.26399 14.2713 9.4277 14.2224 9.57695 14.1438C9.72621 14.0652 9.85806 13.9586 9.96488 13.8299C9.97283 13.7931 9.99032 13.7237 10.0073 13.6771C9.85625 13.7144 9.65753 13.7289 9.41589 13.674L9.35018 13.6585L9.33004 13.5984C9.03647 13.8268 8.68885 13.8646 8.56856 14.0723C8.56856 14.0723 8.71481 14.3291 9.09529 14.2877ZM12.6515 7.39708C12.6515 7.30905 12.5397 7.28263 12.482 7.28263H12.4496C12.3924 7.28263 12.2785 7.30853 12.2785 7.3976C12.2785 7.48719 12.4253 7.70313 12.464 7.79842H12.4671C12.5074 7.70313 12.6515 7.48667 12.6515 7.39708ZM12.1608 14.6046L12.0761 14.5912C12.0676 14.5886 11.9685 14.5715 11.845 14.5124C11.9584 14.6528 12.0665 14.7553 12.1524 15.1634C12.2785 15.7657 12.3919 15.7817 12.3919 15.7817C12.4772 15.5642 12.6553 15.1706 12.8678 14.7853C13.0797 14.4006 12.9048 14.0821 12.9048 14.0821C12.783 14.0231 12.7305 13.9873 12.6632 13.9216L12.642 13.8967C12.6399 13.9019 12.6356 13.9045 12.6335 13.9091C12.5922 13.9573 12.4878 14.0521 12.2912 14.0479C12.3135 14.2149 12.2815 14.3845 12.1995 14.5326L12.1608 14.6046ZM9.20922 16.399C9.53777 15.8423 9.73967 15.4917 9.87692 15.3674C9.78895 15.3778 9.69992 15.3778 9.61408 15.3643L9.54307 15.354C9.34011 15.7045 8.94003 16.2799 8.57968 16.4808C8.57968 16.4808 8.48748 16.0147 9.54731 15.0702C9.56162 15.0318 9.58281 14.9873 9.61302 14.9386C9.51604 14.9728 9.40529 14.9909 9.28182 14.9889L9.26804 14.9904C8.8616 15.3783 8.00473 16.2498 8.08474 17.1944C8.08474 17.1944 8.88174 16.9567 9.20869 16.3985L9.20922 16.399ZM10.0947 14.4094C10.0884 14.399 9.98502 14.268 9.95746 14.0614C9.78153 14.122 9.65806 14.1546 9.40105 14.3203C9.02057 14.5627 9.17637 14.8692 9.17637 14.8692C9.74603 14.9428 10.0195 14.4953 10.0947 14.4094ZM14.4798 14.9428C14.5221 14.8118 14.705 14.5694 14.7092 14.1738C14.7097 14.0241 14.431 13.7812 14.3531 13.5886C14.0934 13.8097 14.0579 14.2545 14.0881 14.4032C14.147 14.6916 14.4803 14.9428 14.4803 14.9428H14.4798ZM8.88279 18.167C9.18856 18.4326 9.50068 18.5792 9.66548 18.4072C9.84088 18.2234 9.65117 17.9505 9.34647 17.6843C9.04389 17.4181 8.74396 17.2576 8.5675 17.4425C8.38839 17.6268 8.57968 17.8997 8.88279 18.167ZM10.2733 16.8972C10.4985 16.544 10.5552 15.8356 10.6034 15.1463C10.5993 15.104 10.5971 15.0614 10.5971 15.0189C10.5801 15.0355 10.5605 15.05 10.5441 15.0645C10.4985 15.0984 10.4516 15.1307 10.4036 15.1613C10.4036 15.1613 10.303 16.3058 9.97018 16.6874C9.8642 16.2618 10.1212 15.7102 10.2558 15.2462C10.209 15.2692 10.161 15.2899 10.1122 15.3084C9.72642 15.9117 9.26804 16.777 9.64746 17.4233C9.64746 17.4233 10.0539 17.2436 10.2733 16.8972ZM12.6362 18.0261C12.6362 18.0261 12.8969 18.0903 13.0628 18.0183C13.0628 18.0183 13.1226 17.7801 13.3086 17.6734C13.35 17.6507 13.4798 17.6134 13.6001 17.5554C13.5545 17.5207 13.5137 17.4984 13.4591 17.4368C13.4591 17.4368 13.2482 17.5113 13.0739 17.6237C12.899 17.7356 12.7284 17.9277 12.6362 18.0261ZM13.944 10.7414C14.0193 10.497 13.8582 10.2608 13.7983 10.1283C13.6626 10.2329 13.5519 10.3447 13.5333 10.6347C13.5164 10.9247 13.5969 11.3017 13.5969 11.3017C13.7002 11.0925 13.8693 10.9869 13.944 10.7414ZM14.7966 9.7901H14.7929C14.7293 9.81755 14.4686 9.9496 14.4495 10.1371C14.431 10.325 14.7802 10.6715 14.7908 10.8155H14.7982C14.8094 10.6715 15.158 10.325 15.14 10.1371C15.1225 9.9496 14.8613 9.81755 14.7966 9.7901ZM13.58 9.08581C13.6499 9.32558 13.7707 9.55188 13.8894 9.72796C13.9965 9.89056 14.0643 10.1516 14.0548 10.2406C14.0548 10.2406 14.2143 9.90299 14.1337 9.66426C14.0691 9.4799 13.8968 9.20233 13.58 9.08581ZM16.3938 14.5886C16.3212 14.7418 16.1463 14.8925 16.1071 15.0262C16.0594 15.1836 16.0451 15.283 16.1241 15.4663C16.1961 15.6263 16.2799 15.7206 16.3095 15.8185C16.3095 15.8185 16.5374 15.5352 16.5745 15.4171C16.6148 15.3006 16.6248 15.1069 16.5798 14.9847C16.5321 14.861 16.4489 14.7015 16.3938 14.5886ZM15.0393 10.7616C14.9969 10.9351 15.0367 11.0511 15.1188 11.1572C15.2004 11.2618 15.3393 11.3763 15.4696 11.5974C15.4696 11.5974 15.618 11.4089 15.6366 11.3105C15.6546 11.2116 15.6254 10.9765 15.5926 10.8792C15.5608 10.7787 15.432 10.4612 15.3255 10.1376C15.3255 10.1376 15.0828 10.5855 15.0393 10.7616ZM16.9417 13.7533C16.8687 13.6933 16.7996 13.6288 16.7351 13.5601C16.7351 13.5601 16.5432 13.8931 16.512 13.9904C16.512 13.9904 16.6063 14.0148 16.7112 13.9412C16.8156 13.8687 16.8384 13.8491 16.9423 13.7533H16.9417ZM16.3387 12.5845C16.2592 12.7336 16.1182 12.9532 16.1182 12.9532C16.1283 13.0428 16.1214 13.1966 16.1511 13.3835C16.1818 13.5699 16.4373 13.8879 16.4373 13.8879C16.5003 13.7206 16.6503 13.4917 16.6815 13.267C16.6996 13.1158 16.6656 12.889 16.6656 12.889C16.5623 12.8423 16.4314 12.6942 16.3387 12.5845ZM15.7542 11.3887C15.6838 11.4879 15.6393 11.6024 15.6244 11.7222C15.6154 11.8558 15.6376 11.9641 15.7145 12.1598C15.812 12.4079 15.9609 12.6844 16.0298 12.8092C16.0298 12.8092 16.1622 12.628 16.2364 12.4653C16.2364 12.4653 16.0298 12.1935 15.9402 12.0013C15.8374 11.7756 15.7955 11.5674 15.7542 11.3887ZM15.4585 9.66426C15.3764 9.90247 15.538 10.2406 15.538 10.2406C15.5253 10.1516 15.5931 9.89056 15.7007 9.72796C15.8194 9.55188 15.9391 9.32558 16.0112 9.08581C15.6933 9.20233 15.521 9.47938 15.4585 9.66426ZM16.0573 10.6347C16.0382 10.3447 15.9285 10.2329 15.7918 10.1283C15.7335 10.2608 15.5714 10.497 15.6456 10.7414C15.7219 10.9874 15.8904 11.0925 15.9927 11.3017C15.9927 11.3017 16.0748 10.9247 16.0568 10.6347H16.0573ZM13.9975 10.8792C13.9647 10.9765 13.9371 11.2116 13.9541 11.3105C13.9716 11.4089 14.1215 11.5974 14.1215 11.5974C14.2503 11.3763 14.3902 11.2618 14.4702 11.1572C14.5534 11.0511 14.5926 10.9351 14.5502 10.7611C14.5068 10.585 14.2646 10.1376 14.2646 10.1376C14.157 10.4612 14.0288 10.7787 13.9975 10.8792ZM14.7951 19.0603C14.8215 19.1089 14.8571 19.1545 14.9032 19.1959C15.1554 19.4264 15.3165 19.4046 15.4564 19.356C15.4564 19.356 15.0404 19.2223 15.0627 18.8687C15.087 18.517 15.2969 18.3052 15.3329 18.1224C15.3742 17.9205 15.3605 17.7278 15.1967 17.4953C15.0627 17.9287 14.9185 18.2462 14.8035 18.4627C14.7998 18.4683 14.7982 18.4751 14.7951 18.4818C14.7924 18.4751 14.7903 18.4683 14.786 18.4627C14.6249 18.1528 14.4936 17.829 14.3939 17.4953C14.2307 17.7278 14.2159 17.9205 14.2567 18.1219C14.2938 18.3052 14.5031 18.517 14.5269 18.8687C14.5497 19.2223 14.1342 19.356 14.1342 19.356C14.2736 19.4046 14.4337 19.4264 14.6875 19.1959C14.731 19.1571 14.7674 19.1112 14.7951 19.0603ZM14.3727 19.5693L14.4522 19.443C14.3308 19.4947 14.1766 19.4585 14.1766 19.4585C14.1626 19.4764 14.1502 19.4954 14.1395 19.5155C13.7262 20.0975 13.2689 20.4637 12.8031 20.7034L12.9356 20.8847C13.4401 20.6226 13.9302 20.2156 14.3727 19.5693ZM16.9534 18.0261C16.8596 17.9272 16.69 17.7356 16.5167 17.6237C16.3424 17.5113 16.1299 17.4373 16.1299 17.4373C16.0748 17.4984 16.0361 17.5207 15.99 17.5548C16.1103 17.6134 16.2401 17.6507 16.2799 17.674C16.4664 17.7801 16.5263 18.0183 16.5263 18.0183C16.6921 18.0908 16.9539 18.0256 16.9539 18.0256L16.9534 18.0261ZM16.1373 17.7361C15.8644 17.6569 15.4431 17.3425 15.2725 17.0463C15.2725 17.1173 15.3271 17.516 15.4468 17.7154C15.6138 17.9935 15.8581 18.1991 16.0727 18.1991C16.2719 18.1991 16.3148 18.0851 16.4118 18.0406C16.4118 18.0406 16.3615 17.7988 16.1379 17.7356L16.1373 17.7361ZM12.6266 19.0292C12.6849 19.0577 12.9573 19.1638 13.1338 18.8158C13.1338 18.8158 12.8322 18.9106 12.7506 18.7728C12.6696 18.6335 12.8026 18.4326 12.8842 18.3741C12.9907 18.2975 13.1846 18.2467 13.3002 18.2653C13.3002 18.2653 13.2069 18.1804 13.0951 18.125C13.0407 18.151 12.9807 18.1638 12.9202 18.1623C12.9202 18.1623 12.5313 18.4197 12.4857 18.6776C12.4481 18.8971 12.5684 19.0023 12.6266 19.0297V19.0292ZM13.3537 12.4653C13.4268 12.628 13.5598 12.8092 13.5598 12.8092C13.6287 12.6844 13.7797 12.4079 13.8756 12.1598C13.9525 11.9641 13.9758 11.8558 13.9652 11.7222C13.9506 11.6023 13.906 11.4878 13.8354 11.3887C13.7946 11.5674 13.7522 11.7756 13.6499 12.0013C13.5609 12.193 13.3537 12.4653 13.3537 12.4653ZM12.6484 13.7533C12.7512 13.8491 12.7755 13.8687 12.8794 13.9412C12.9838 14.0148 13.0797 13.9904 13.0797 13.9904C13.0469 13.8931 12.8572 13.5601 12.8572 13.5601C12.8095 13.6134 12.6945 13.7144 12.6484 13.7533ZM12.925 12.889C12.925 12.889 12.89 13.1158 12.9091 13.267C12.9398 13.4917 13.0893 13.7206 13.1544 13.8874C13.1544 13.8874 13.4088 13.5699 13.4385 13.3835C13.4671 13.1971 13.4634 13.0428 13.4729 12.9537C13.4729 12.9537 13.3309 12.7336 13.253 12.5845C13.1597 12.6942 13.0278 12.8423 12.925 12.889ZM12.411 17.6993C12.411 17.6993 12.6886 17.6408 12.9022 17.5725C13.1354 17.4984 13.297 17.3995 13.3844 17.3513C13.3426 17.2907 13.2599 17.1804 13.2779 17.0064C13.2779 17.0064 12.9101 17.2291 12.8031 17.3125C12.6918 17.3995 12.4618 17.6253 12.411 17.6993ZM13.2811 15.818C13.3092 15.7206 13.3945 15.6263 13.4655 15.4663C13.545 15.283 13.5296 15.1836 13.4835 15.0262C13.4438 14.8925 13.2694 14.7418 13.1974 14.5886C13.1407 14.7015 13.0569 14.861 13.0114 14.9847C12.9637 15.1069 12.9769 15.3006 13.0145 15.4171C13.0527 15.5352 13.2811 15.818 13.2811 15.818ZM12.4385 18.4642C12.4746 18.4015 12.6251 18.1877 12.7649 18.1587C12.7649 18.1587 12.6462 18.1483 12.5779 18.1276C12.5779 18.1276 12.4348 18.1628 12.3331 18.2027C12.2313 18.242 12.1047 18.3026 11.9547 18.3958C11.9865 18.4057 12.1593 18.4554 12.3278 18.5569C12.3278 18.5569 12.402 18.53 12.4391 18.4637L12.4385 18.4642ZM15.202 11.5674C15.1331 11.7103 15.1183 11.8641 15.1406 11.9553C15.1633 12.0454 15.2847 12.1779 15.2974 12.3281C15.3165 12.5617 15.1257 12.8465 15.1257 12.8465C15.3022 12.7621 15.503 12.5648 15.591 12.44C15.6784 12.3157 15.6138 12.135 15.5751 12.0412C15.538 11.947 15.255 11.6228 15.202 11.5674ZM13.58 13.1551C13.5164 13.442 13.8327 13.6129 13.9806 13.8698C14.0193 13.7662 14.1422 13.486 14.2832 13.3892C14.2832 13.3892 14.4639 12.8802 13.882 12.5663C13.882 12.5663 13.643 12.8693 13.58 13.1551ZM14.0155 12.0417C13.9774 12.135 13.9122 12.3152 13.9996 12.44C14.0876 12.5643 14.2895 12.7621 14.4639 12.8465C14.4639 12.8465 14.2731 12.5617 14.2943 12.3276C14.3049 12.1785 14.4268 12.0454 14.4495 11.9547C14.4729 11.8641 14.458 11.7103 14.3886 11.5674C14.3356 11.6228 14.0532 11.9475 14.0155 12.0417ZM13.146 14.1002C13.146 14.1002 13.1687 14.2478 13.2837 14.4612C13.3977 14.6735 13.5561 14.8221 13.6409 14.8977C13.6409 14.8977 13.8317 14.5818 13.8878 14.4425C13.9509 14.283 13.944 14.1266 13.9175 14.0676C13.8518 13.9293 13.6292 13.7305 13.5296 13.557C13.5074 13.6414 13.1989 14.0495 13.146 14.1002ZM15.5014 14.4032C15.5332 14.2545 15.4972 13.8097 15.2381 13.5886C15.1596 13.7812 14.8793 14.0241 14.8814 14.1738C14.8867 14.5694 15.0669 14.8118 15.1104 14.9428C15.1104 14.9428 15.4431 14.6916 15.5014 14.4032ZM15.7076 12.5663C15.1252 12.8802 15.3064 13.3892 15.3064 13.3892C15.4484 13.486 15.5703 13.7662 15.6085 13.8693C15.7568 13.6129 16.0748 13.442 16.0112 13.1551C15.9466 12.8693 15.7076 12.5663 15.7076 12.5663ZM16.3053 14.4617C16.3691 14.3484 16.4157 14.2266 16.4436 14.1002C16.3906 14.05 16.0833 13.6414 16.06 13.557C15.9609 13.7305 15.7372 13.9298 15.6742 14.0676C15.6456 14.1261 15.6376 14.283 15.7023 14.4425C15.759 14.5823 15.9487 14.8977 15.9487 14.8977C16.034 14.8221 16.1924 14.673 16.3053 14.4612V14.4617ZM13.2859 16.2669C13.3214 16.4062 13.4766 16.7107 13.4766 16.7107C13.5423 16.6046 13.7363 16.3565 13.785 16.1794C13.8338 16.0039 13.6594 15.7071 13.5969 15.6201C13.2837 15.8998 13.2519 16.1282 13.2859 16.2669ZM17.1791 17.6993C17.1277 17.6253 16.8983 17.399 16.7875 17.3125C16.6778 17.2296 16.3106 17.007 16.3106 17.007C16.3297 17.1804 16.247 17.2907 16.2057 17.3513C16.2931 17.3995 16.4542 17.4984 16.6879 17.5725C16.9004 17.6408 17.1791 17.6993 17.1791 17.6993ZM13.714 15.0044C13.6442 15.1443 13.6305 15.3047 13.6759 15.4539C13.7373 15.6352 14.0187 15.8884 14.0187 15.8884C14.1009 15.7517 14.2233 15.5709 14.262 15.4803C14.3006 15.3871 14.3229 15.2773 14.2975 15.1437C14.2657 14.9728 14.0601 14.7574 13.9922 14.6269C13.9281 14.7522 13.7808 14.8827 13.714 15.0044ZM15.6535 16.3586C15.6631 16.1183 15.2704 15.6652 15.2704 15.6652C15.0627 15.8563 15.0113 15.9769 14.9895 16.1685C14.9641 16.3586 15.0319 16.5026 15.1204 16.6693C15.1983 16.8195 15.405 17.0411 15.405 17.0411C15.4325 16.8578 15.6424 16.6579 15.654 16.3586H15.6535ZM15.5714 15.8884C15.5714 15.8884 15.8522 15.6352 15.9137 15.4534C15.9614 15.3177 15.9428 15.124 15.875 15.0044C15.8082 14.8832 15.662 14.7522 15.5973 14.6264C15.5306 14.7574 15.3255 14.9733 15.2926 15.1442C15.2709 15.2573 15.2828 15.3742 15.3271 15.4808C15.3658 15.5709 15.4903 15.7517 15.5714 15.8884ZM15.9222 17.4632C15.9222 17.4632 16.0944 17.3472 16.1628 17.1965C16.2274 17.0541 16.1908 16.9526 16.1235 16.8806C16.0573 16.8065 15.901 16.6357 15.8337 16.5248C15.7902 16.6564 15.6615 16.9008 15.644 16.9748C15.6138 17.1147 15.6546 17.2835 15.9222 17.4632ZM15.1225 17.1224C15.13 16.8951 14.9191 16.5414 14.7977 16.4057H14.7913C14.6721 16.5414 14.4601 16.8951 14.4676 17.1224C14.4819 17.5756 14.7802 18.0028 14.7956 18.1411C14.8099 18.0033 15.1082 17.5756 15.1225 17.1224ZM13.6674 17.4632C13.9339 17.2835 13.9763 17.1147 13.9451 16.9748C13.9281 16.9008 13.7988 16.6564 13.7559 16.5243C13.6896 16.6357 13.5328 16.8065 13.466 16.8801C13.3993 16.9526 13.3627 17.0541 13.4263 17.1965C13.4952 17.3472 13.6674 17.4632 13.6674 17.4632ZM15.9932 15.6207C15.9296 15.7077 15.7563 16.0039 15.8051 16.1794C15.8565 16.3565 16.0488 16.6046 16.1135 16.7107C16.1135 16.7107 16.2682 16.4062 16.3037 16.2669C16.3387 16.1282 16.3058 15.8993 15.9932 15.6207ZM17.248 18.1219C17.5034 18.2141 17.7355 18.3648 17.7355 18.3648C17.8797 18.3213 18.1542 18.2483 18.1542 18.2483C17.9767 18.0623 17.841 17.9717 17.655 17.9184C17.4674 17.8661 17.0249 17.7982 16.8273 17.7299C17.0021 17.8951 17.0838 18.0603 17.248 18.1219ZM14.6038 16.1685C14.5788 15.9769 14.5269 15.8563 14.3213 15.6652C14.3213 15.6652 13.9281 16.1183 13.9371 16.3586C13.9488 16.6574 14.157 16.8578 14.1862 17.0411C14.1862 17.0411 14.3913 16.8195 14.4702 16.6693C14.5582 16.5026 14.6249 16.3586 14.6038 16.1685ZM14.7951 13.9873C14.8337 13.818 15.2047 13.4917 15.1697 13.3131C15.1188 13.0469 14.9397 13.1033 14.7977 12.991H14.7951C14.652 13.1033 14.4702 13.0469 14.4188 13.3131C14.386 13.4917 14.7548 13.818 14.7929 13.9873H14.7951ZM14.7919 15.9749H14.7972C14.8268 15.864 15.0049 15.7299 15.078 15.5352C15.122 15.4213 15.1204 15.2866 15.0727 15.195C15.0171 15.0878 14.8173 14.8247 14.7951 14.7496C14.7701 14.8247 14.573 15.0878 14.5158 15.195C14.4681 15.2866 14.467 15.4208 14.5105 15.5352C14.5847 15.7299 14.7622 15.864 14.7919 15.9749Z" fill="#000032" style="fill:#000032;fill:color(display-p3 0.0000 0.0000 0.1961);fill-opacity:1;"/>
<path d="M32.0566 0H61.6471V28.9171H32.0566V0Z" fill="#FDFDFD" style="fill:#FDFDFD;fill:color(display-p3 0.9922 0.9922 0.9922);fill-opacity:1;"/>
<mask id="mask0_406_11090" style="mask-type:luminance" maskUnits="userSpaceOnUse" x="36" y="7" width="21" height="15">
<path d="M56.9126 7.83154H36.3721V21.2772H56.9126V7.83154Z" fill="white" style="fill:white;fill-opacity:1;"/>
</mask>
<g mask="url(#mask0_406_11090)">
<path d="M53.5095 17.067C53.5964 16.7118 53.7109 15.6729 53.7109 15.6729H52.6903C52.6839 15.7791 52.6616 16.1338 52.6298 16.4958C52.5822 17.0318 52.4237 17.5253 51.8721 17.5253H51.4471C51.446 17.4803 51.4471 15.6729 51.4471 15.6729H50.4084V21.2777H51.4471V18.4321H52.0729L53.0925 21.2756H54.2069L52.9589 17.9919C53.2181 17.8003 53.4194 17.4331 53.5095 17.067ZM41.7422 10.787C41.7507 9.27119 42.128 8.77249 42.526 8.76369C42.9234 8.77249 43.3007 9.27119 43.3092 10.7875V10.788C43.3007 12.2691 42.9234 12.775 42.526 12.7828C42.1285 12.775 41.7507 12.2691 41.7417 10.788L41.7422 10.787ZM42.5027 13.7015L42.517 13.702L42.526 13.7015L42.535 13.702L42.5493 13.7015C43.2361 13.6885 43.8937 13.283 44.1788 12.1349C44.2885 11.745 44.3441 11.2608 44.3446 10.7611L44.3425 10.5798C44.3245 9.7792 44.1862 9.2049 43.9716 8.79631C43.633 8.09979 43.0946 7.83879 42.5382 7.83258L42.535 7.83154H42.517L42.5132 7.83258C41.9568 7.83879 41.4184 8.09979 41.0804 8.79631C40.8657 9.20542 40.7274 9.7792 40.7094 10.5803L40.7068 10.7616C40.7073 11.2608 40.7635 11.745 40.8726 12.1349C41.1577 13.283 41.8159 13.6885 42.5027 13.7015ZM37.7636 20.4103C37.6629 20.4103 37.4091 20.3875 37.4091 20.3875V18.4145C37.4091 18.4145 37.4907 18.3958 37.5797 18.3958C38.106 18.3958 38.7275 18.3648 38.7275 19.4025C38.7275 20.3528 38.0445 20.4103 37.7636 20.4103ZM37.8892 17.5067C37.7106 17.5067 37.5517 17.5108 37.4091 17.5181V16.6051H39.2702V15.6729H36.3721V21.2761H37.9459C39.5155 21.2761 39.7582 19.8893 39.7582 19.3761C39.7582 18.7697 39.5171 17.5067 37.8892 17.5067ZM48.0058 17.4637H46.5819V15.6729H45.547V21.2777H46.5819V18.3953H48.0058V21.2777H49.0413V15.6729H48.0058V17.4637ZM51.4397 13.5792V8.90817H52.3013V7.97654H49.5283V8.90869H50.3899V13.5792H51.4397ZM47.3413 10.874V13.5792H48.3794V7.97654H47.3408V9.92783H46.7769C46.5438 9.92783 46.3705 9.87604 46.2603 9.77144C46.1818 9.69894 46.1437 9.60003 46.1437 9.47211V7.97654H45.1051V9.57672C45.1051 9.94492 45.2513 10.2567 45.5412 10.5047C45.8273 10.7502 46.1771 10.874 46.583 10.874H47.3413ZM37.4091 8.90869H38.6942V13.5792H39.7328V7.97654H36.3721V13.5792H37.4091V8.90869ZM41.9213 17.6242C41.9235 17.5103 41.9452 16.7128 41.9468 16.6051L42.1301 16.5932C42.8863 16.5932 43.0246 16.7376 43.0946 17.6237L41.9213 17.6242ZM42.3765 15.6729H40.9685L40.7772 21.2772H41.8032C41.8032 21.2772 41.8975 18.6786 41.9033 18.5548L43.2 18.5558C43.2117 18.6687 43.4051 21.2772 43.4051 21.2772H44.4649C44.4649 21.2772 44.1003 17.428 44.0707 17.1809C43.9525 16.1898 43.4835 15.6729 42.3765 15.6729ZM54.3701 9.92783C54.3727 9.8139 54.3939 9.0164 54.3955 8.90869H54.5911C55.3462 8.90869 55.4728 9.04074 55.5433 9.92783H54.3701ZM56.5194 9.48506C56.4007 8.49336 55.9323 7.97654 54.8253 7.97654H53.4173L53.2255 13.5803H54.2519C54.2519 13.5803 54.3462 10.9817 54.3521 10.8589H55.6482C55.6604 10.9723 55.8538 13.5803 55.8538 13.5803H56.9131C56.9131 13.5803 56.5486 9.73156 56.5194 9.48506Z" fill="#000032" style="fill:#000032;fill:color(display-p3 0.0000 0.0000 0.1961);fill-opacity:1;"/>
</g>
</g>
<defs>
<clipPath id="clip0_406_11090">
<rect width="62" height="29" fill="white" style="fill:white;fill-opacity:1;"/>
</clipPath>
</defs>
</svg>
