<svg width="60" height="16" viewBox="0 0 60 16" fill="none" xmlns="http://www.w3.org/2000/svg">
<g clip-path="url(#clip0_389_4844)">
<path fill-rule="evenodd" clip-rule="evenodd" d="M0 0V14.9333L14.9333 0H0Z" fill="#FDFDFD" style="fill:#FDFDFD;fill:color(display-p3 0.9922 0.9922 0.9922);fill-opacity:1;"/>
<path fill-rule="evenodd" clip-rule="evenodd" d="M1.06641 16H15.9997V1.06665L1.06641 16Z" fill="#FDFDFD" style="fill:#FDFDFD;fill:color(display-p3 0.9922 0.9922 0.9922);fill-opacity:1;"/>
<path fill-rule="evenodd" clip-rule="evenodd" d="M24.3885 7.65317C26.1248 7.65317 27.0479 6.80287 27.0479 5.21417V5.1244C27.0479 3.42381 26.0807 2.75253 24.3885 2.75253H22.5862V7.65317H24.3885ZM19.0479 0H24.4764C28.3005 0 30.4764 1.72297 30.4764 5.10228V5.19153C30.4764 8.57059 28.1688 10.1819 24.5861 10.1819H22.5862V16H19.0479V0Z" fill="#FDFDFD" style="fill:#FDFDFD;fill:color(display-p3 0.9922 0.9922 0.9922);fill-opacity:1;"/>
<path fill-rule="evenodd" clip-rule="evenodd" d="M37.5202 13.2475C39.2238 13.2475 40.0864 12.4867 40.0864 11.032V10.9427C40.0864 9.51039 39.2238 8.72723 37.434 8.72723H35.4501V13.2475H37.5202ZM37.6497 16H32V0H42.0486V2.81966H35.4718L35.4501 6.17608H37.7574C41.3154 6.17608 43.4286 7.76505 43.4286 10.9648V11.0546C43.4286 14.1873 41.4664 16 37.6497 16Z" fill="#FDFDFD" style="fill:#FDFDFD;fill:color(display-p3 0.9922 0.9922 0.9922);fill-opacity:1;"/>
<path fill-rule="evenodd" clip-rule="evenodd" d="M46 0.0223449H49.7153V6.9051L55.4486 0H59.3932L52.903 7.57545L59.7143 16H55.3798L49.7153 8.82676V16H46V0.0223449Z" fill="#FDFDFD" style="fill:#FDFDFD;fill:color(display-p3 0.9922 0.9922 0.9922);fill-opacity:1;"/>
</g>
<defs>
<clipPath id="clip0_389_4844">
<rect width="60" height="16" fill="white" style="fill:white;fill-opacity:1;"/>
</clipPath>
</defs>
</svg>
