<svg width="165" height="74" viewBox="0 0 165 74" fill="none" xmlns="http://www.w3.org/2000/svg">
<path d="M121.454 0.0774727C120.144 0.284065 119.338 0.684334 118.48 1.53006C118.021 1.98843 117.88 2.18211 117.628 2.69213C117.073 3.80901 116.937 4.7774 116.937 7.57928V9.07706L129.378 9.10289C140.489 9.12226 141.863 9.13517 142.309 9.22555C144.831 9.74848 146.115 11.0461 146.599 13.5639C146.709 14.1127 146.716 15.0488 146.716 27.4507C146.716 39.9752 146.709 40.7822 146.599 41.331C146.161 43.5325 145.18 44.7526 143.328 45.3918C142.205 45.7791 142.386 45.7727 134.811 45.7985C127.597 45.8243 126.842 45.805 125.874 45.5596C124.119 45.1142 123.119 43.9004 123.125 42.2154C123.125 41.2987 123.429 40.4078 124.093 39.3813C124.306 39.0585 127.932 34.1842 132.159 28.5547L139.837 18.3155H128.397H116.963L112.001 24.9135C109.272 28.5482 106.794 31.873 106.504 32.3056C105.884 33.2288 105.4 34.1972 105.149 35.0042C104.988 35.5335 104.975 35.6756 104.975 36.6504C104.975 37.6253 104.988 37.7673 105.149 38.2967C105.375 39.0327 105.846 40.0011 106.355 40.7758C106.801 41.4407 110.414 46.2891 111.537 47.7224C114.473 51.4604 116.473 53.1066 119.189 54.0169C120.622 54.4947 122.235 54.74 124.732 54.8626C126.694 54.953 143.586 54.9078 144.78 54.7981C147.903 54.5269 150.019 54.146 152.019 53.494C155.839 52.2544 158.653 50.3112 160.846 47.3996C163.079 44.4363 164.344 40.8403 164.886 35.908C164.995 34.8944 165.047 21.621 164.944 20.0264C164.608 14.7841 163.273 10.7104 160.808 7.42434C160.24 6.67545 158.982 5.35844 158.227 4.72576C155.71 2.62112 152.523 1.25246 148.548 0.568127C147.458 0.380905 146.457 0.25824 144.715 0.103298C143.38 -0.0193672 122.177 -0.0387344 121.454 0.0774727Z" fill="white" style="fill:white;fill-opacity:1;"/>
<path d="M75.7199 36.489C68.0802 46.5215 61.8148 54.7722 61.7955 54.8239C61.7632 54.9078 63.1311 54.9207 73.3325 54.9207H84.9082L98.3293 36.928C105.704 27.0375 111.854 18.7868 111.989 18.5931L112.241 18.2509H100.923H89.6056L75.7199 36.489Z" fill="white" style="fill:white;fill-opacity:1;"/>
<path d="M4.39412 18.4123C3.21332 18.6125 2.40677 19.0192 1.60021 19.8326C0.954963 20.4782 0.671055 20.9108 0.425862 21.6209C0.129049 22.4796 0.0774295 22.925 0.0387147 25.2363L0 27.4184L4.57479 27.4313L9.14958 27.4507L9.16894 50.3499L9.18184 73.2556H18.3121H27.4423V50.337V27.4184H37.0758C42.9863 27.4184 46.9287 27.4442 47.2836 27.4829C49.4903 27.7283 50.6711 28.6256 51.0325 30.3236C51.2583 31.4017 50.9486 32.5444 50.0452 33.9583C49.8839 34.2165 46.2964 39.0197 42.0765 44.6364C37.863 50.2595 34.4109 54.8691 34.4109 54.8884C34.4109 54.9078 39.5471 54.9207 45.8253 54.9207H57.2397L62.1049 48.4454C64.7826 44.8882 67.1701 41.6989 67.4088 41.3632C69.7962 38.0255 69.9188 35.5852 67.8476 32.4411C67.3314 31.6664 63.5567 26.6178 62.363 25.1136C59.0593 20.956 56.6461 19.3162 52.8972 18.677C50.8841 18.3349 52.3488 18.3542 27.6681 18.3413C9.20765 18.3284 4.79417 18.3413 4.39412 18.4123Z" fill="white" style="fill:white;fill-opacity:1;"/>
</svg>
