<svg width="280" height="54" viewBox="0 0 280 54" fill="none" xmlns="http://www.w3.org/2000/svg">
<path d="M146.271 0.48566C159.172 -2.23984 173.969 6.79318 174.656 20.3834C170.807 20.2632 166.944 20.4998 163.103 20.2937C161.856 11.7741 150.802 6.91565 143.642 11.9148C134.344 18.8081 134.272 35.8312 144.334 42.1395C151.499 46.3499 162.142 42.1129 163.07 33.534C167.043 33.4503 171.023 33.5218 175 33.477C173.921 45.9132 160.828 55.3647 148.54 53.838C135.535 54.3697 124.873 42.707 124.46 30.2022C121.667 16.5884 131.916 1.35816 146.271 0.48566Z" fill="white" style="fill:white;fill-opacity:1;"/>
<path d="M36.0844 1.07255C42.6174 1.23075 49.986 0.657304 56 1.35625C49.4529 1.40112 42.9027 1.26346 36.3583 1.39504C36.2983 18.5949 36.3525 35.7978 36.3355 53C35.6935 36.4131 36.1899 18.2572 36.0844 1.07255Z" fill="white" style="fill:white;fill-opacity:1;"/>
<path d="M77.4734 1.19536C88.9089 1.95607 101.122 -0.860602 112.028 3.55818C122.397 7.67463 123.832 22.8678 116.054 29.9759C108.686 36.3164 98.1183 34.6759 89.1498 34.942C89.0716 40.9516 89.1951 46.9604 89.1107 52.9699C85.1094 53.0084 81.1042 53.0137 77.1021 52.9639C77.3468 35.7713 76.5176 18.1384 77.4734 1.19536ZM89.1529 11.2467C89.1053 15.7718 89.1138 20.2999 89.1498 24.8288C93.9927 24.7783 98.9683 25.2638 103.714 24.1027C108.002 22.9832 108.78 17.3212 106.797 13.9858C102.28 9.50519 94.8242 11.8627 89.1529 11.2467Z" fill="white" style="fill:white;fill-opacity:1;"/>
<path d="M179.954 1.10036C184.284 1.01073 188.637 0.935541 192.967 1.08517C196.835 7.06742 199.42 14.1837 203.564 19.8196C207.642 14.4852 210.426 7.1297 214.097 1.06086C218.474 1.02212 222.858 0.975028 227.235 1.06086C223.025 9.4038 218.222 17.4771 213.82 25.7304C218.852 34.8185 224.059 43.8207 229 52.9597C224.526 52.921 220.053 53.0106 215.582 52.9088C211.718 46.303 208.461 39.3394 204.577 32.7358C203.84 32.6166 203.106 32.6021 202.378 32.6887C198.8 39.3599 195.241 46.0584 191.559 52.6733C187.244 53.303 182.483 52.807 178 52.924C182.89 43.7311 188.296 34.7858 193.203 25.599C188.939 17.9313 184.658 10.275 180.355 2.62783C180.236 2.12653 179.157 1.3981 179.954 1.10036Z" fill="white" style="fill:white;fill-opacity:1;"/>
<path d="M236.464 1.05006C249.673 0.986941 262.889 0.980859 276.095 1.04702C276.089 4.41374 276.204 7.78654 276.077 11.1502C266.803 11.2339 257.523 11.0871 248.253 11.2042C248.224 14.3732 248.179 17.543 248.259 20.7097C256.302 21.4146 264.929 19.0754 272.539 22.5561C283.133 27.9275 282.086 45.6783 271.676 50.6169C268.559 52.2147 265.083 53.0543 261.584 52.9973C253.087 52.9676 244.588 53.0277 236.093 52.9706C236.336 35.7241 235.53 18.0335 236.464 1.05006ZM248.27 29.409C248.155 33.7704 248.25 38.144 248.253 42.5116C253.339 42.0188 258.906 43.6287 263.763 41.7533C267.094 39.8262 268.42 34.5621 265.522 31.6768C260.822 27.4461 253.89 30.1383 248.27 29.409Z" fill="white" style="fill:white;fill-opacity:1;"/>
<path d="M0 1.0174C3.30002 1.0349 6.60012 0.954257 9.90014 1.04099C9.82344 18.2699 10.3038 36.1926 9.65571 53C9.64717 35.7802 9.70969 18.5574 9.63017 1.33996C6.42103 1.25323 3.20907 1.33085 0 1.31639V1.0174Z" fill="white" style="fill:white;fill-opacity:1;"/>
<path d="M15.0759 52.9641C15.2592 35.7515 14.6299 17.7486 15.3723 1.00485C20.4561 0.995669 25.5429 1.00179 30.6298 1.00485C31.3447 17.7578 30.7795 35.7453 30.9139 52.9695C25.6345 52.997 20.3522 53.0238 15.0759 52.9641Z" fill="white" style="fill:white;fill-opacity:1;"/>
<path d="M36.0295 1.05892C42.6748 0.926619 49.3263 1.06504 55.9744 1.01992C56.0061 18.3347 56.012 35.6556 55.9714 52.9681C49.3174 52.9734 42.6575 53.0491 36.0063 52.9466C36.0237 35.6495 35.9686 18.353 36.0295 1.05892Z" fill="white" style="fill:white;fill-opacity:1;"/>
<path d="M0 1.01756C3.31822 1.03285 6.63943 0.954852 9.95772 1.04201C10.04 18.3429 9.9753 35.6507 9.98413 52.9547C6.66 53.0717 3.32705 52.9187 0 52.973V1.01756Z" fill="white" style="fill:white;fill-opacity:1;"/>
</svg>
