<svg width="78" height="9" viewBox="0 0 78 9" fill="none" xmlns="http://www.w3.org/2000/svg">
<path d="M3.71149 2.72217L2.72217 3.71149C2.59068 3.84298 2.38092 3.84298 2.25256 3.71149L0.0986181 1.55754C-0.0328727 1.42605 -0.0328727 1.21629 0.0986181 1.08793L1.08793 0.0986181C1.21942 -0.0328727 1.42918 -0.0328727 1.55754 0.0986181L3.71149 2.25256C3.83985 2.38092 3.83985 2.59068 3.71149 2.72217ZM4.08404 3.09473L0.139318 7.03632C0.00782693 7.16781 0.00782693 7.37757 0.139318 7.50593L1.10985 8.47646C1.24134 8.60795 1.45109 8.60795 1.57946 8.47646L5.52418 4.53487C5.65567 4.40338 5.65567 4.19362 5.52418 4.06526L4.55365 3.09473C4.42529 2.96324 4.2124 2.96324 4.08404 3.09473Z" fill="white" style="fill:white;fill-opacity:1;"/>
<path d="M34.1828 0.311523H36.8878L39.0668 6.0846L41.2301 0.311523H43.838V8.01H42.1036V2.12422L39.8432 8.01H38.0618L35.8014 2.15553V8.01H34.1797V0.311523H34.1828Z" fill="white" style="fill:white;fill-opacity:1;"/>
<path d="M55.1664 0.311523H61.1336V8.01H59.2865V1.93324H56.8539C56.8382 3.01648 56.8069 4.46288 56.7756 5.27374C56.713 7.29306 56.1244 8.01 54.39 8.01H53.5635V6.38828H54.0237C54.8032 6.38828 55.0568 6.03764 55.1069 4.94188C55.1508 3.76472 55.1664 1.42606 55.1664 0.311523Z" fill="white" style="fill:white;fill-opacity:1;"/>
<path d="M70.5684 0.311523H77.5843V1.93324H74.9921V8.01H73.1637V1.93324H70.5715V0.311523H70.5684Z" fill="white" style="fill:white;fill-opacity:1;"/>
<path d="M29.4091 0.154785H28.7485C27.1612 0.154785 25.959 1.11905 25.6835 2.55606L27.371 2.8253C27.6027 2.1428 28.1318 1.67319 28.8017 1.64501C29.0178 1.63562 28.9677 1.63875 29.1837 1.64501C30.1793 1.67945 30.6301 2.15845 30.6301 3.33874C28.7423 3.33874 27.4524 3.25108 26.5038 3.8741C25.7274 4.38441 25.3955 4.95107 25.3955 5.84646C25.3955 7.14258 26.4036 8.16946 28.0316 8.16946C28.2883 8.16946 28.1819 8.16946 28.257 8.16946C29.406 8.16946 30.3358 7.72177 30.7146 7.18015V8.0098H32.4146V3.37005C32.4084 1.57927 31.4503 0.154785 29.4091 0.154785ZM28.3728 6.66671C27.6496 6.6448 27.2332 6.22841 27.2332 5.69931C27.2332 5.26101 27.4305 5.04812 27.6903 4.89472C27.9627 4.73505 28.3196 4.6787 28.8706 4.65991C29.4028 4.64113 29.8318 4.61608 30.6551 4.61608C30.6551 5.93099 29.8286 6.59157 28.8017 6.66045C28.6421 6.6761 28.5419 6.67297 28.3728 6.66671Z" fill="white" style="fill:white;fill-opacity:1;"/>
<path d="M70.1403 4.68186V3.96179C70.1403 1.47598 68.5812 0.192383 66.565 0.192383H66.1705C64.0009 0.192383 62.6171 1.67009 62.5451 3.75829C62.5357 4.0651 62.5357 4.19033 62.5451 4.60985C62.5952 6.68552 64.051 8.08496 65.9952 8.13505C66.3521 8.14445 66.3051 8.14445 66.6433 8.13505C68.337 8.08809 69.6175 7.1113 69.9963 5.83397L68.3589 5.54907C67.9582 6.35054 67.1943 6.65735 66.5838 6.68866C66.3897 6.69805 66.3646 6.69805 66.1705 6.68866C65.2125 6.64796 64.3578 5.89971 64.3578 4.81021V4.68812H70.1403V4.68186ZM66.1392 1.64191C66.3333 1.63252 66.4022 1.63252 66.5932 1.64191C67.3978 1.68261 68.2431 2.20545 68.3245 3.24172H64.3641C64.458 2.31815 65.2031 1.692 66.1392 1.64191Z" fill="white" style="fill:white;fill-opacity:1;"/>
<path d="M53.0566 3.48278C53.016 1.62 51.5132 0.192383 49.5252 0.192383H48.8051C46.8202 0.192383 45.3175 1.62 45.2736 3.49218C45.2643 4.01188 45.2643 4.31556 45.2736 4.83213C45.3143 6.70431 46.8171 8.13192 48.8051 8.13192H49.5252C51.5101 8.13192 53.0128 6.70431 53.0566 4.83213C53.0692 4.31556 53.0692 4.00249 53.0566 3.48278ZM51.244 4.73821C51.222 5.82457 50.43 6.56343 49.3655 6.61978C49.162 6.62917 49.1745 6.62917 48.971 6.61978C47.8941 6.56656 47.1145 5.8277 47.0926 4.73821C47.0832 4.28425 47.0832 4.02753 47.0926 3.57671C47.1145 2.49973 47.8941 1.76088 48.971 1.70766C49.1745 1.69827 49.162 1.69827 49.3655 1.70766C50.43 1.76088 51.222 2.49973 51.244 3.58923C51.2533 4.04005 51.2533 4.28738 51.244 4.73821Z" fill="white" style="fill:white;fill-opacity:1;"/>
<path d="M22.5342 5.29548C22.3213 6.00929 21.7453 6.49768 20.9751 6.60726C20.7528 6.63856 20.5337 6.62917 20.3521 6.60413C19.3941 6.4695 18.7178 5.74943 18.6959 4.73821C18.6865 4.28425 18.6865 4.02753 18.6959 3.57671C18.7147 2.55922 19.4254 1.81097 20.4022 1.70766C20.4585 1.7014 20.6714 1.68261 20.878 1.70453C21.7014 1.79219 22.3182 2.28684 22.5405 3.03509L24.3281 2.69071C23.943 1.22866 22.6187 0.192383 20.925 0.192383H20.4116C18.4267 0.192383 16.9239 1.62 16.8801 3.49218C16.8707 4.01188 16.8707 4.31556 16.8801 4.83213C16.9208 6.70431 18.4235 8.13192 20.4116 8.13192H20.925C22.6532 8.13192 23.99 7.05495 24.3438 5.53968L22.5342 5.29548Z" fill="white" style="fill:white;fill-opacity:1;"/>
</svg>
