<svg width="342" height="56" viewBox="0 0 342 56" fill="none" xmlns="http://www.w3.org/2000/svg">
<g clip-path="url(#clip0_313_16157)">
<path d="M29.4611 0.0791016C29.7216 0.131817 29.9437 0.215401 30.1705 0.232214C31.5915 0.337548 32.9784 0.634251 34.3567 0.984982C36.49 1.52786 38.5291 2.34076 40.4349 3.44624C41.782 4.22764 43.0345 5.18015 44.3285 6.05748C44.4325 6.12799 44.5304 6.20789 44.6759 6.31702C44.0841 6.76279 43.5152 7.1918 42.9458 7.62005C41.7927 8.48733 40.6317 9.34395 39.493 10.2306C39.2867 10.3913 39.1533 10.3508 38.9924 10.2373C37.3106 9.05063 35.49 8.14669 33.5289 7.58181C32.3642 7.24634 31.1694 6.97281 29.97 6.82503C28.7069 6.6694 27.4193 6.61641 26.1478 6.66524C24.6931 6.72112 23.2539 6.99359 21.8452 7.39831C20.3973 7.81426 19.0036 8.37382 17.6807 9.10192C16.3297 9.84549 15.0302 10.6778 13.8992 11.7518C13.1729 12.4415 12.4346 13.1237 11.7653 13.8691C10.7856 14.96 9.9557 16.171 9.236 17.4617C8.47039 18.8348 7.81256 20.2586 7.41763 21.7863C7.10456 22.9973 6.80876 24.226 6.66392 25.4662C6.50824 26.7992 6.46025 28.1579 6.51047 29.4997C6.55163 30.5997 6.75391 31.7025 6.97689 32.7841C7.38169 34.7478 8.06123 36.6248 9.04935 38.3569C9.70478 39.5057 10.4585 40.6024 11.2416 41.6659C11.7765 42.3923 12.4047 43.0568 13.0498 43.686C14.3202 44.9251 15.7337 45.9711 17.2683 46.8535C18.5941 47.6158 19.9747 48.2397 21.4358 48.6474C22.495 48.9429 23.5776 49.1714 24.6629 49.3424C25.6002 49.49 26.5574 49.5938 27.5036 49.5781C30.188 49.5335 32.7937 49.0405 35.288 47.9786C36.6222 47.4106 37.8843 46.7192 39.0907 45.9074C40.5678 44.9135 41.8699 43.7108 43.05 42.3792C44.4668 40.7806 45.6093 38.9793 46.481 37.011C47.1997 35.388 47.7731 33.7094 48.0233 31.9376C48.1642 30.9395 48.2411 29.9318 48.3362 28.9274C48.3767 28.4997 48.3822 28.0685 48.4216 27.6407C48.4311 27.5374 48.4864 27.4059 48.5638 27.3468C49.7714 26.4251 50.9865 25.5135 52.1993 24.5988C52.8958 24.0734 53.5914 23.5467 54.3268 22.991C54.4183 23.5809 54.5487 24.1409 54.5844 24.7072C54.6639 25.9722 54.7131 27.2399 54.7433 28.5072C54.778 29.9661 54.6054 31.4066 54.3753 32.8471C54.1199 34.4462 53.7251 36.0031 53.1983 37.5242C52.5108 39.5094 51.6098 41.3897 50.4927 43.1637C49.6709 44.4686 48.755 45.6912 47.7458 46.8504C46.3701 48.4305 44.8247 49.7998 43.1444 51.0282C41.8226 51.9945 40.4278 52.8272 38.96 53.5201C37.0295 54.4315 35.0314 55.1619 32.924 55.5241C31.8703 55.7052 30.8114 55.8544 29.742 56.0486C28.2602 56.0791 26.7915 56.0791 25.2776 56.0517C25.1355 56.0426 25.0385 56.0608 24.9415 56.0791C24.8591 56.0791 24.7767 56.0791 24.6534 56.0488C24.1346 55.9333 23.6587 55.8338 23.1786 55.7659C21.7385 55.5623 20.3372 55.1979 18.9536 54.7474C17.0057 54.1133 15.1457 53.2675 13.406 52.1807C11.2015 50.8038 9.17712 49.1883 7.43029 47.215C6.26664 45.9004 5.19771 44.5252 4.27173 43.0243C3.18495 41.2628 2.26998 39.4137 1.63772 37.4396C1.16852 35.9747 0.799042 34.4701 0.484474 32.9614C0.283866 31.9993 0.117428 31.014 0.150639 30.0145C0.152771 29.9503 0.102853 29.8843 0.0771484 29.8192C0.0771486 28.7102 0.0771486 27.6012 0.107644 26.4408C0.221368 25.4866 0.229224 24.568 0.404719 23.6844C0.700233 22.1965 1.04779 20.714 1.47293 19.2598C2.01858 17.3934 2.83458 15.6383 3.79437 13.9529C4.76733 12.2443 5.88395 10.6387 7.21123 9.20953C8.18455 8.16147 9.25756 7.2073 10.3178 6.24804C11.6396 5.05223 13.1449 4.12406 14.6921 3.27353C16.4353 2.31532 18.274 1.57699 20.1845 1.06755C21.4289 0.73572 22.7133 0.560546 23.98 0.316623C24.403 0.235166 24.8269 0.158149 25.2503 0.0791016C26.6419 0.0791016 28.0334 0.0791016 29.4611 0.0791016Z" fill="white" style="fill:white;fill-opacity:1;"/>
<path d="M342.078 44.9685C340.111 45.0056 338.144 45.0056 336.137 45.0056C336.137 40.1748 336.137 35.3722 336.137 30.5504C330.206 30.5504 324.317 30.5504 318.387 30.5504C318.387 35.3511 318.387 40.1538 318.387 44.9809C316.385 44.9809 314.425 44.9809 312.445 44.9809C312.445 33.823 312.445 22.6761 312.445 11.499C314.401 11.499 316.361 11.499 318.363 11.499C318.363 15.9796 318.363 20.4659 318.363 24.9731C324.293 24.9731 330.182 24.9731 336.113 24.9731C336.113 20.4942 336.113 16.0079 336.113 11.4689C338.104 11.4689 340.055 11.4689 342.041 11.4689C342.078 22.6231 342.078 33.7773 342.078 44.9685Z" fill="white" style="fill:white;fill-opacity:1;"/>
<path d="M124.577 11.9196C126.136 12.3582 127.531 13.0321 128.735 14.12C129.948 15.2148 130.712 16.5599 131.033 18.166C131.259 19.2941 131.238 20.4251 131.06 21.5723C130.844 22.9687 130.301 24.2014 129.457 25.2852C128.872 26.0371 128.14 26.6525 127.314 27.1333C127.173 27.2154 127.038 27.3077 126.854 27.4241C127.17 27.5639 127.451 27.7032 127.743 27.8158C128.635 28.1601 129.407 28.6926 130.135 29.3182C131.229 30.2587 131.93 31.4589 132.377 32.8175C132.768 34.0081 132.897 35.2525 132.808 36.5028C132.695 38.0741 132.281 39.5584 131.341 40.8387C130.425 42.0866 129.24 43.0104 127.826 43.5665C126.795 43.9722 125.72 44.2752 124.645 44.5454C123.952 44.7196 123.228 44.7999 122.514 44.8399C116.313 45.1872 110.106 44.925 103.903 45.0055C103.801 45.0068 103.7 45.0057 103.574 45.0057C103.574 33.7519 103.574 22.5163 103.574 11.2316C103.691 11.2316 103.814 11.2316 103.937 11.2316C109.393 11.2316 114.85 11.2094 120.305 11.2476C121.635 11.2569 122.966 11.4512 124.258 11.8322C124.354 11.8605 124.453 11.8781 124.577 11.9196ZM110.731 34.6045C110.731 36.1671 110.731 37.7297 110.731 39.2817C110.803 39.2978 110.827 39.3082 110.852 39.308C113.998 39.2831 117.144 39.2473 120.291 39.2375C121.301 39.2344 122.266 39.0399 123.201 38.6746C123.873 38.4122 124.446 38.0014 124.865 37.3891C125.551 36.3872 125.683 35.2697 125.473 34.101C125.242 32.8215 124.468 31.9432 123.346 31.425C122.268 30.9274 121.107 30.7629 119.922 30.7659C117.002 30.7734 114.081 30.7684 111.161 30.7684C111.024 30.7684 110.888 30.7684 110.731 30.7684C110.731 32.0518 110.731 33.2886 110.731 34.6045ZM114.553 16.9266C113.286 16.9266 112.018 16.9266 110.755 16.9266C110.755 19.6687 110.755 22.362 110.755 25.0735C111.653 25.0735 112.526 25.0898 113.399 25.0703C115.625 25.0204 117.861 25.2408 120.076 24.9012C120.721 24.8022 121.386 24.6234 121.964 24.3236C123.019 23.7765 123.702 22.9194 123.887 21.6402C124.089 20.2457 123.613 18.7504 122.451 17.9494C121.425 17.2416 120.265 16.9838 119.068 16.9396C117.59 16.8851 116.11 16.9266 114.553 16.9266Z" fill="white" style="fill:white;fill-opacity:1;"/>
<path d="M174.359 45.0056C173.164 45.0056 172.008 45.0056 170.829 45.0056C170.829 33.747 170.829 22.5106 170.829 11.2316C170.968 11.2316 171.105 11.2316 171.242 11.2316C175.965 11.2316 180.688 11.2023 185.411 11.2482C186.968 11.2633 188.508 11.5404 190.015 12.0065C191.318 12.4098 192.547 12.9511 193.673 13.7316C195.565 15.0422 196.939 16.7629 197.689 18.9954C198.001 19.9239 198.258 20.857 198.295 21.8415C198.328 22.7185 198.428 23.6028 198.358 24.4719C198.189 26.561 197.6 28.5243 196.375 30.2393C195.285 31.7657 193.903 32.9425 192.236 33.7629C192.079 33.8402 191.923 33.9187 191.723 34.0178C194.134 37.6714 196.53 41.3037 198.973 45.0056C198.791 45.0056 198.682 45.0056 198.574 45.0056C196.232 45.0056 193.889 44.9999 191.547 45.0143C191.308 45.0158 191.178 44.9273 191.061 44.7486C189.612 42.5336 188.162 40.3185 186.71 38.1049C186.173 37.2848 185.635 36.4644 185.081 35.6554C185.008 35.5478 184.841 35.4449 184.717 35.4442C182.492 35.4316 180.266 35.435 178.006 35.435C178.006 38.6175 178.006 41.7865 178.006 45.0056C176.78 45.0056 175.589 45.0056 174.359 45.0056ZM177.988 28.1186C177.988 28.6535 177.988 29.1885 177.988 29.7401C180.081 29.7401 182.126 29.735 184.17 29.742C185.404 29.7462 186.605 29.5898 187.757 29.1092C189.038 28.5752 190.026 27.6974 190.602 26.4155C191.3 24.8603 191.361 23.2107 191.031 21.5527C190.73 20.0432 189.942 18.8421 188.661 18.0197C187.552 17.3079 186.308 16.9695 185.018 16.9403C182.806 16.8903 180.592 16.9265 178.378 16.9265C178.255 16.9265 178.131 16.9265 177.988 16.9265C177.988 20.6623 177.988 24.3509 177.988 28.1186Z" fill="white" style="fill:white;fill-opacity:1;"/>
<path d="M152.197 25.0734C155.348 25.0734 158.46 25.0734 161.595 25.0734C161.595 26.972 161.595 28.8489 161.595 30.7619C156.569 30.7619 151.545 30.7619 146.502 30.7619C146.502 33.6238 146.502 36.4498 146.502 39.2977C152.405 39.2977 158.295 39.2977 164.214 39.2977C164.214 41.1961 164.214 43.0731 164.214 44.9779C155.938 44.9779 147.645 44.9779 139.327 44.9779C139.327 33.7536 139.327 22.5175 139.327 11.2565C147.611 11.2565 155.903 11.2565 164.301 11.2565C163.824 11.624 163.412 11.9456 162.996 12.2608C161.583 13.3317 160.169 14.4007 158.754 15.4697C158.168 15.9125 157.589 16.3649 156.989 16.7869C156.847 16.8871 156.635 16.9205 156.454 16.9209C153.289 16.9286 150.123 16.9265 146.957 16.9265C146.817 16.9265 146.676 16.9265 146.509 16.9265C146.509 19.6348 146.509 22.3291 146.509 25.0734C148.386 25.0734 150.272 25.0734 152.197 25.0734Z" fill="white" style="fill:white;fill-opacity:1;"/>
<path d="M82.7012 31.2429C81.5108 30.9267 80.3465 30.6345 79.1981 30.2872C78.3629 30.0347 77.5355 29.7428 76.7283 29.4083C75.6802 28.974 74.7025 28.3879 73.8372 27.6429C73.1862 27.0824 72.6228 26.4241 72.2014 25.6525C71.6055 24.5611 71.3008 23.3966 71.1814 22.1472C70.9542 19.7672 71.4382 17.5849 72.7407 15.6069C73.8367 13.9425 75.3387 12.7868 77.1419 12.0146C78.1257 11.5933 79.1239 11.2364 80.1792 11.0678C80.8872 10.9547 81.5952 10.8138 82.3083 10.7679C83.3681 10.6996 84.4371 10.6281 85.4934 10.6979C86.7216 10.7789 87.9502 10.9572 89.1609 11.1901C90.9477 11.5338 92.6353 12.2127 94.2729 13.0105C94.82 13.277 95.3309 13.6218 95.926 13.9704C95.3474 14.4071 94.8462 14.7854 94.3448 15.1637C93.1723 16.0482 92.0038 16.9386 90.8208 17.8082C90.6973 17.8989 90.4571 17.938 90.3218 17.879C89.1297 17.359 87.9169 16.9317 86.6108 16.8464C85.8245 16.7951 85.0349 16.6687 84.2526 16.7054C82.8857 16.7696 81.5166 16.9126 80.269 17.5746C78.9748 18.2613 78.2538 19.3238 78.3021 20.8554C78.326 21.6102 78.6638 22.2107 79.1973 22.7249C80.1954 23.6868 81.465 24.0576 82.7242 24.4291C83.9229 24.7827 85.1488 25.0383 86.3539 25.3705C87.7381 25.752 89.1267 26.1263 90.4878 26.5834C92.3445 27.207 94.016 28.1749 95.3004 29.7237C96.1345 30.7296 96.6541 31.9066 96.824 33.2184C96.9206 33.9644 96.9599 34.721 96.9805 35.4741C97.0122 36.6358 96.7529 37.7506 96.3351 38.8223C95.8001 40.1946 94.9479 41.3499 93.8591 42.3025C92.6368 43.3718 91.2276 44.1134 89.6939 44.6127C88.471 45.0108 87.2309 45.3191 85.9474 45.3978C84.8017 45.468 83.6509 45.5901 82.5082 45.5418C80.2045 45.4444 77.9293 45.0922 75.7254 44.3647C74.1405 43.8416 72.6051 43.1993 71.2147 42.2395C70.9766 42.0751 70.7433 41.9035 70.4893 41.722C71.2996 39.8226 72.1066 37.9308 72.9296 36.0016C73.299 36.2441 73.6654 36.4935 74.04 36.729C75.4751 37.6314 77.0102 38.3079 78.6353 38.746C79.5289 38.9868 80.442 39.1846 81.3585 39.2951C82.3684 39.4169 83.3956 39.4941 84.4094 39.45C85.802 39.3895 87.1779 39.1723 88.3972 38.3683C89.6319 37.5541 90.1591 35.9853 89.5876 34.5938C89.2492 33.77 88.6068 33.2972 87.8942 32.9161C86.5458 32.195 85.0798 31.8144 83.6033 31.478C83.311 31.4114 83.0237 31.3222 82.7012 31.2429Z" fill="white" style="fill:white;fill-opacity:1;"/>
<path d="M256.288 17.0848C255.763 17.0848 255.276 17.0848 254.767 17.0848C254.767 19.7278 254.767 22.3421 254.767 24.9852C259.743 24.9852 264.706 24.9852 269.696 24.9852C269.696 26.837 269.696 28.6604 269.696 30.5266C264.724 30.5266 259.752 30.5266 254.762 30.5266C254.762 33.517 254.762 36.4648 254.762 39.4552C260.481 39.4552 266.199 39.4552 271.94 39.4552C271.94 41.3212 271.94 43.1446 271.94 44.9869C264.235 44.9869 256.544 44.9869 248.825 44.9869C248.825 33.8295 248.825 22.6728 248.825 11.4926C256.371 11.4926 263.917 11.4926 271.481 11.4926C271.481 13.3473 271.481 15.1877 271.481 17.0848C266.43 17.0848 261.378 17.0848 256.288 17.0848Z" fill="white" style="fill:white;fill-opacity:1;"/>
<path d="M305.54 34.1696C305.544 36.5155 305.567 38.8616 305.527 41.2067C305.523 41.4732 305.217 41.8045 304.967 41.9837C304.133 42.5824 303.298 43.2009 302.394 43.6733C300.84 44.4858 299.163 44.9501 297.44 45.2489C296.04 45.4917 294.632 45.6156 293.218 45.5504C291.271 45.4608 289.344 45.2211 287.468 44.6207C285.746 44.0695 284.131 43.3131 282.653 42.2488C280.966 41.0338 279.603 39.5129 278.55 37.7015C277.713 36.2617 277.081 34.7272 276.739 33.0884C276.531 32.0923 276.393 31.0759 276.299 30.0613C276.215 29.1495 276.186 28.2257 276.22 27.3106C276.297 25.2441 276.668 23.233 277.436 21.3071C278.018 19.8489 278.771 18.4912 279.726 17.2624C280.21 16.6387 280.794 16.096 281.373 15.5283C281.763 15.6562 281.741 15.3944 281.765 15.1795C281.765 15.1795 281.769 15.1857 281.797 15.1852C281.925 15.1693 282.045 15.1853 282.12 15.1333C282.648 14.7682 283.142 14.3424 283.695 14.0252C284.557 13.5308 285.439 13.0613 286.348 12.6674C287.144 12.3226 287.991 12.1052 288.808 11.8086C288.929 11.7644 289.007 11.5941 289.105 11.4822C289.524 11.4069 289.942 11.3261 290.362 11.2585C290.636 11.2144 290.912 11.191 291.187 11.1558C291.564 11.1076 291.941 11.0556 292.318 11.0084C292.406 10.9973 292.497 10.9951 292.586 10.995C293.602 10.9941 294.622 10.9413 295.633 11.0072C297.043 11.0991 298.455 11.2396 299.807 11.701C300.587 11.9672 301.351 12.2826 302.124 12.5726C302.17 12.5898 302.226 12.5775 302.3 12.6188C302.414 12.9994 302.744 13.1635 303.158 13.075C303.151 13.0626 303.143 13.0503 303.146 13.0652C303.211 13.1723 303.25 13.2763 303.323 13.3277C303.745 13.6229 304.175 13.9056 304.647 14.2228C304.696 14.1698 304.779 14.0805 304.861 13.9912C304.886 14.0993 304.932 14.2074 304.932 14.3155C304.936 16.8322 304.935 19.3488 304.934 21.8655C304.934 21.9652 304.916 22.0648 304.896 22.2834C304.689 22.071 304.545 21.9326 304.411 21.785C303.897 21.2169 303.412 20.6173 302.868 20.0815C301.371 18.6084 299.556 17.6881 297.589 17.0944C296.773 16.8483 295.915 16.734 295.069 16.6162C293.238 16.3616 291.455 16.6615 289.72 17.246C288.006 17.8231 286.505 18.7803 285.301 20.1635C284.095 21.5487 283.312 23.1794 282.94 24.9929C282.767 25.8384 282.708 26.7102 282.622 27.5727C282.456 29.2343 282.701 30.8611 283.18 32.4363C283.567 33.7085 284.162 34.8918 284.996 35.9421C285.976 37.1766 287.171 38.1178 288.566 38.7914C289.617 39.2993 290.718 39.6826 291.884 39.778C292.99 39.8684 294.105 39.98 295.208 39.922C296.76 39.8405 298.268 39.4654 299.715 38.8578C301.403 38.1494 302.918 37.178 304.149 35.791C304.589 35.296 304.946 34.7251 305.391 34.1787C305.473 34.1689 305.507 34.1692 305.54 34.1696Z" fill="white" style="fill:white;fill-opacity:1;"/>
<path d="M232.041 38.757C232.041 40.8502 232.041 42.9039 232.041 44.9815C230.08 44.9815 228.146 44.9815 226.185 44.9815C226.185 35.6954 226.185 26.4214 226.185 17.1055C222.578 17.1055 218.997 17.1055 215.389 17.1055C215.389 15.2144 215.389 13.3649 215.389 11.4921C224.608 11.4921 233.825 11.4921 243.063 11.4921C243.063 13.3434 243.063 15.1836 243.063 17.0656C239.41 17.0656 235.751 17.0656 232.041 17.0656C232.041 24.3107 232.041 31.5141 232.041 38.757Z" fill="white" style="fill:white;fill-opacity:1;"/>
<path d="M50.5568 13.1477C51.192 14.2798 51.8069 15.391 52.4313 16.5196C51.7446 17.044 51.1244 17.5223 50.4993 17.994C49.1455 19.0155 47.789 20.0331 46.4341 21.0531C45.1096 22.0503 43.7839 23.0461 42.4621 24.047C40.7256 25.362 38.9962 26.6867 37.2567 27.9975C35.6707 29.1926 34.0721 30.3703 32.4853 31.5643C31.1594 32.5618 29.8423 33.5715 28.5217 34.5764C28.2091 34.8142 27.9055 35.0658 27.5812 35.2855C27.5004 35.3402 27.3268 35.3418 27.2437 35.2889C25.842 34.3968 24.4495 33.4894 23.0515 32.5911C21.2406 31.4275 19.4313 30.2611 17.6103 29.1144C17.186 28.8472 16.9603 28.5731 16.97 28.0008C17.0117 25.539 16.9878 23.076 16.9878 20.5601C17.4861 20.8693 17.9556 21.1536 18.4183 21.4492C20.4759 22.7638 22.5336 24.0784 24.5871 25.3999C25.4028 25.9248 26.2086 26.4659 27.0169 27.0028C27.2766 27.1754 27.4738 27.2134 27.7714 26.9814C29.259 25.8218 30.7782 24.705 32.2834 23.5691C33.8095 22.4174 35.3313 21.2598 36.8565 20.1069C38.2602 19.0458 39.6666 17.9884 41.0706 16.9277C42.7069 15.6914 44.3416 14.4531 45.9774 13.2161C46.8864 12.5287 47.796 11.8421 48.7054 11.1553C48.8067 11.0788 48.9084 11.0029 49.073 10.8794C49.5593 11.6263 50.0479 12.3765 50.5568 13.1477Z" fill="white" style="fill:white;fill-opacity:1;"/>
<path d="M289.077 11.4874C289.008 11.5941 288.93 11.7644 288.808 11.8085C287.992 12.1052 287.144 12.3226 286.349 12.6673C285.439 13.0613 284.558 13.5308 283.695 14.0251C283.142 14.3423 282.649 14.7681 282.121 15.1333C282.046 15.1852 281.926 15.1692 281.795 15.1833C282.483 14.6453 283.174 14.0614 283.928 13.582C285.412 12.6392 287.037 12.0255 288.725 11.584C288.833 11.5558 288.94 11.5233 289.077 11.4874Z" fill="white" style="fill:white;fill-opacity:1;"/>
<path d="M304.85 13.9666C304.779 14.0805 304.696 14.1698 304.647 14.2228C304.175 13.9056 303.745 13.6229 303.323 13.3277C303.25 13.2762 303.211 13.1722 303.164 13.0531C303.555 13.1998 303.944 13.3758 304.32 13.5763C304.505 13.6748 304.667 13.8187 304.85 13.9666Z" fill="white" style="fill:white;fill-opacity:1;"/>
<path d="M303.159 13.0464C302.744 13.1634 302.415 12.9993 302.329 12.6248C302.61 12.7333 302.885 12.8756 303.159 13.0464Z" fill="white" style="fill:white;fill-opacity:1;"/>
<path d="M281.742 15.1899C281.741 15.3944 281.763 15.6562 281.397 15.5172C281.493 15.3964 281.606 15.2984 281.742 15.1899Z" fill="white" style="fill:white;fill-opacity:1;"/>
<path d="M305.539 34.1455C305.507 34.1691 305.474 34.1688 305.415 34.1672C305.439 34.1512 305.488 34.1363 305.539 34.1455Z" fill="white" style="fill:white;fill-opacity:1;"/>
</g>
<defs>
<clipPath id="clip0_313_16157">
<rect width="342" height="56" fill="white" style="fill:white;fill-opacity:1;"/>
</clipPath>
</defs>
</svg>
