<svg width="430" height="94" viewBox="0 0 430 94" fill="none" xmlns="http://www.w3.org/2000/svg">
<g clip-path="url(#clip0_313_16030)">
<path d="M64.9283 0L43.9082 93.9994H56.4806L77.501 5.44623e-07L64.9283 0Z" fill="#797979" style="fill:#797979;fill:color(display-p3 0.4745 0.4745 0.4745);fill-opacity:1;"/>
<path d="M77.5007 5.44623e-07L64.928 0L63.3613 6.98965L72.2244 23.5995L77.5007 5.44623e-07Z" fill="white" style="fill:white;fill-opacity:1;"/>
<path d="M49.1862 70.3706L43.9102 93.9988H56.4826L58.0496 86.9804L49.1862 70.3706Z" fill="white" style="fill:white;fill-opacity:1;"/>
<path d="M96.3319 5.45031e-07L83.75 0L108.839 46.9997H121.411L96.3319 5.45031e-07Z" fill="#797979" style="fill:#797979;fill:color(display-p3 0.4745 0.4745 0.4745);fill-opacity:1;"/>
<path d="M121.411 47H108.839L83.75 93.9997H96.3319L121.411 47Z" fill="white" style="fill:white;fill-opacity:1;"/>
<path d="M77.5005 5.4462e-07L64.9277 0L90.0069 46.9997H102.579L77.5005 5.4462e-07Z" fill="#797979" style="fill:#797979;fill:color(display-p3 0.4745 0.4745 0.4745);fill-opacity:1;"/>
<path d="M102.579 47H90.0069L64.9277 93.9997H77.5005L102.579 47Z" fill="white" style="fill:white;fill-opacity:1;"/>
<path d="M31.4026 47H18.8301L43.9092 93.9997H56.4816L31.4026 47Z" fill="#797979" style="fill:#797979;fill:color(display-p3 0.4745 0.4745 0.4745);fill-opacity:1;"/>
<path d="M56.4817 5.44623e-07L43.9093 0L18.8301 46.9997H31.4026L56.4817 5.44623e-07Z" fill="white" style="fill:white;fill-opacity:1;"/>
<path d="M37.6517 5.44623e-07L25.079 0L0 46.9997H12.5725L37.6517 5.44623e-07Z" fill="white" style="fill:white;fill-opacity:1;"/>
<path d="M12.5725 47H0L25.079 93.9997H37.6516L12.5725 47Z" fill="#797979" style="fill:#797979;fill:color(display-p3 0.4745 0.4745 0.4745);fill-opacity:1;"/>
<path d="M171.975 72.8939C164.463 72.8939 159.075 71.1643 155.433 68.0811C151.79 64.9979 149.893 60.6363 149.59 55.2219H161.352C161.655 57.6283 162.262 59.8843 163.856 61.3883C165.449 62.9675 167.953 64.0203 171.975 64.0203C177.439 64.0203 180.929 61.0875 180.929 56.8763C180.929 54.7707 180.322 53.3419 178.805 52.2139C177.211 51.2363 174.631 50.4843 170.685 49.8827C163.704 48.9803 158.847 47.5515 155.736 44.9195C152.473 42.4379 151.107 38.7531 151.107 33.5643C151.107 28.9771 153.08 24.9915 156.495 22.0587C159.91 19.2763 164.842 17.5467 170.837 17.5467C183.054 17.5467 190.187 22.8859 191.173 33.6395H179.867C179.184 28.8267 176.073 26.4955 170.837 26.4955C165.373 26.4955 162.717 28.9771 162.717 32.5867C162.717 34.4667 163.173 35.9707 164.69 36.9483C166.132 38.0763 168.636 38.8283 172.81 39.4299C179.412 40.2571 184.344 41.6107 187.683 44.0171C191.022 46.4987 192.691 50.2587 192.691 55.7483C192.691 60.5611 190.718 64.8475 187.152 67.8555C183.585 70.9387 178.349 72.8939 171.975 72.8939ZM198.712 18.2987H234.073V27.7739H210.929V40.3323H229.444V49.2059H210.929V62.5915H235.287V72.0667H198.712V18.2987ZM241.01 18.2987H253.303V62.5163H275.385V72.0667H241.01V18.2987ZM280.641 18.2987H316.002V27.7739H292.858V40.3323H311.374V49.2059H292.858V62.5915H317.217V72.0667H280.641V18.2987ZM322.94 18.2987H337.206L357.846 53.7179V18.2987H368.773V72.0667H356.48L333.867 33.7899V72.0667H322.94V18.2987ZM391.124 18.2987H407.135L424.74 72.0667H411.915L408.197 60.1099H388.544L384.825 72.0667H373.291L391.124 18.2987ZM391.2 51.4619H405.541L398.408 28.2251L391.2 51.4619Z" fill="white" style="fill:white;fill-opacity:1;"/>
</g>
<defs>
<clipPath id="clip0_313_16030">
<rect width="430" height="94" fill="white" style="fill:white;fill-opacity:1;"/>
</clipPath>
</defs>
</svg>
