<svg width="224" height="101" viewBox="0 0 224 101" fill="none" xmlns="http://www.w3.org/2000/svg">
<mask id="mask0_313_16214" style="mask-type:luminance" maskUnits="userSpaceOnUse" x="0" y="0" width="224" height="101">
<path d="M223.178 0H0V101H223.178V0Z" fill="white" style="fill:white;fill-opacity:1;"/>
</mask>
<g mask="url(#mask0_313_16214)">
<path d="M140.521 44.5869H138.546V31.0951H134.002V29.2635H145.065V31.0951H140.521V44.5869Z" fill="white" style="fill:white;fill-opacity:1;"/>
<path d="M149.667 44.5879V29.2646H154.349C155.116 29.2526 155.88 29.3454 156.621 29.5403C157.186 29.689 157.712 29.9579 158.162 30.3281C158.546 30.6551 158.839 31.0758 159.011 31.5493C159.197 32.0537 159.292 32.5875 159.288 33.1249C159.313 33.9445 159.048 34.7464 158.538 35.3899C157.966 36.03 157.192 36.4543 156.344 36.5913C157.319 36.6762 158.227 37.1184 158.893 37.8322C159.459 38.4963 159.761 39.3441 159.742 40.2153C159.737 40.7748 159.63 41.3287 159.427 41.8502C159.221 42.3812 158.889 42.8544 158.459 43.2289C157.973 43.6648 157.4 43.9936 156.779 44.194C155.971 44.4656 155.122 44.5923 154.271 44.5682L149.667 44.5879ZM151.643 35.8823H153.757C154.315 35.8873 154.874 35.8211 155.417 35.6853C155.819 35.5784 156.195 35.3908 156.523 35.1339C156.792 34.9091 156.996 34.6168 157.115 34.287C157.241 33.9462 157.308 33.5865 157.313 33.2234C157.319 32.9225 157.257 32.624 157.131 32.3509C157.004 32.0777 156.817 31.8372 156.581 31.6477C155.821 31.216 154.945 31.0238 154.072 31.0963H151.643V35.8823ZM151.643 42.7365H154.349C156.503 42.7365 157.57 41.9093 157.57 40.2547C157.606 39.8586 157.543 39.4596 157.384 39.0946C157.225 38.7298 156.976 38.4107 156.661 38.167C155.821 37.6918 154.859 37.4726 153.895 37.5367H151.643V42.7365Z" fill="white" style="fill:white;fill-opacity:1;"/>
<path d="M166.301 35.7487H172.721C172.681 35.0057 172.522 34.2741 172.247 33.5821C171.988 33.0117 171.61 32.5018 171.141 32.0853C170.659 31.6701 170.093 31.3613 169.482 31.1793C168.802 30.9764 168.096 30.8768 167.388 30.8838C166.866 30.8889 166.344 30.9284 165.827 31.002C165.238 31.074 164.661 31.2196 164.109 31.4353L163.733 29.84C164.26 29.5846 164.817 29.3992 165.392 29.2885C166.139 29.1289 166.901 29.0496 167.664 29.0522C168.676 29.0413 169.684 29.1943 170.648 29.5052C171.505 29.7744 172.285 30.2475 172.919 30.8838C173.577 31.5652 174.07 32.3869 174.361 33.2867C174.715 34.4007 174.882 35.5653 174.855 36.7334C174.871 37.8802 174.711 39.0226 174.381 40.1212C174.09 41.0603 173.59 41.9221 172.919 42.6422C172.25 43.3621 171.417 43.9095 170.489 44.2376C169.409 44.6366 168.263 44.8304 167.111 44.8088C166.448 44.819 165.786 44.7595 165.135 44.6315L163.792 44.277L164.167 42.5438C164.659 42.7175 165.17 42.8299 165.689 42.8786C166.169 42.9049 166.65 42.9049 167.131 42.8786C168.598 42.9544 170.042 42.4841 171.18 41.559C171.719 41.0253 172.136 40.3846 172.409 39.6786C172.681 38.9727 172.801 38.2175 172.761 37.4622H166.301V35.7487Z" fill="white" style="fill:white;fill-opacity:1;"/>
<path d="M191.391 44.5904H189.414V31.0988H184.14C184.14 33.285 184.14 35.2349 184.002 37.0075C183.945 38.4534 183.753 39.8909 183.429 41.3013C183.241 42.2743 182.806 43.1831 182.165 43.9405C181.878 44.241 181.531 44.4773 181.146 44.6335C180.762 44.7896 180.348 44.8623 179.933 44.8465H179.458H179.062V42.8769C179.167 42.8957 179.274 42.8957 179.379 42.8769H179.695C179.893 42.875 180.089 42.8321 180.268 42.7507C180.449 42.6692 180.61 42.5513 180.742 42.4042C181.129 41.8823 181.379 41.2735 181.473 40.6315C181.715 39.4558 181.873 38.2645 181.948 37.0666C182.046 35.5303 182.125 33.5608 182.145 31.1579V29.3853H191.371L191.391 44.5904Z" fill="white" style="fill:white;fill-opacity:1;"/>
<path d="M118.434 8.22913H117.387V92.8422H118.434V8.22913Z" fill="white" style="fill:white;fill-opacity:1;"/>
<path d="M135.582 73.2905H134.002V61.02H137.617C138.283 60.9975 138.947 61.0705 139.592 61.2365C140.111 61.3607 140.597 61.5959 141.015 61.926C141.414 62.2412 141.732 62.6462 141.944 63.1077C142.159 63.6598 142.266 64.2483 142.259 64.8409C142.293 65.3898 142.198 65.9388 141.982 66.4447C141.766 66.9507 141.435 67.3995 141.015 67.7559C140.015 68.4801 138.793 68.8352 137.558 68.7604H135.582V73.2905ZM135.582 67.3817H137.558C138.347 67.4393 139.133 67.2313 139.79 66.7908C140.056 66.5688 140.264 66.2868 140.399 65.9682C140.532 65.6495 140.588 65.3035 140.561 64.9591C140.589 64.6173 140.535 64.2737 140.4 63.9579C140.266 63.6421 140.057 63.3638 139.79 63.1471C139.127 62.7229 138.344 62.5227 137.558 62.5759H135.582V67.3817Z" fill="white" style="fill:white;fill-opacity:1;"/>
<path d="M151.091 73.4442C150.298 73.4625 149.511 73.3149 148.779 73.0109C148.108 72.7325 147.507 72.3086 147.021 71.7701C146.516 71.1964 146.132 70.5263 145.895 69.8005C145.632 68.9457 145.505 68.0552 145.52 67.1613C145.5 66.2656 145.633 65.3731 145.915 64.522C146.159 63.7953 146.549 63.1254 147.061 62.5525C147.537 62.0071 148.132 61.5763 148.799 61.2919C149.491 60.9924 150.237 60.8382 150.991 60.8389C151.818 60.8258 152.637 60.9799 153.401 61.2919C154.078 61.5869 154.681 62.0315 155.159 62.5918C155.654 63.1664 156.025 63.8371 156.247 64.5614C156.507 65.3827 156.635 66.2407 156.622 67.1022C156.643 68.0333 156.496 68.9608 156.187 69.8399C155.951 70.5707 155.561 71.2424 155.041 71.8095C154.551 72.3338 153.95 72.7439 153.283 73.0109C152.586 73.2927 151.843 73.4398 151.091 73.4442ZM151.248 71.9868C151.767 72.0084 152.283 71.9093 152.757 71.6973C153.229 71.4853 153.647 71.1663 153.975 70.7656C154.713 69.7072 155.062 68.427 154.962 67.1416C154.977 66.411 154.891 65.6819 154.706 64.975C154.543 64.423 154.275 63.9078 153.915 63.4585C153.585 63.0646 153.156 62.7656 152.671 62.5918C152.149 62.3869 151.592 62.2866 151.031 62.2964C150.515 62.2979 150.003 62.4052 149.53 62.6115C149.057 62.8058 148.637 63.1097 148.305 63.4978C147.939 63.9458 147.663 64.4611 147.495 65.0144C147.284 65.7036 147.184 66.4215 147.198 67.1416C147.178 67.8881 147.278 68.633 147.495 69.3475C147.659 69.9025 147.935 70.4184 148.305 70.8641C148.659 71.2584 149.098 71.5681 149.588 71.7701C150.123 71.9469 150.687 72.0205 151.248 71.9868Z" fill="white" style="fill:white;fill-opacity:1;"/>
<path d="M169.165 72.9502C168.785 73.1185 168.387 73.244 167.979 73.3244C167.483 73.4059 166.981 73.4455 166.478 73.4426C165.604 73.4561 164.735 73.316 163.909 73.029C163.171 72.7575 162.499 72.3348 161.934 71.7882C161.398 71.2237 160.988 70.5525 160.729 69.8186C160.443 68.9956 160.302 68.1291 160.314 67.2582C160.348 66.3216 160.535 65.3968 160.868 64.5204C161.132 63.7897 161.541 63.1198 162.072 62.5508C162.625 61.9887 163.301 61.5636 164.048 61.31C164.847 61.0261 165.69 60.886 166.538 60.8964C167.114 60.8833 167.69 60.9294 168.256 61.0343C168.626 61.1171 168.99 61.2291 169.342 61.3691L169.046 62.7478C168.662 62.6079 168.266 62.5089 167.861 62.4523C167.475 62.3908 167.086 62.3579 166.695 62.3539C166.079 62.3121 165.461 62.4013 164.883 62.6151C164.303 62.829 163.777 63.1629 163.337 63.5947C162.5 64.6025 162.09 65.8949 162.191 67.199C162.192 67.8696 162.306 68.5352 162.526 69.1685C162.722 69.7313 163.031 70.2476 163.435 70.6852C163.847 71.1049 164.346 71.4278 164.898 71.6306C165.53 71.862 166.2 71.9755 166.873 71.9654C167.265 71.9645 167.655 71.9248 168.039 71.8473C168.404 71.7955 168.758 71.6823 169.085 71.5124L169.165 72.9502Z" fill="white" style="fill:white;fill-opacity:1;"/>
<path d="M180.229 69.9995H174.975L173.77 73.2887H172.169L176.871 61.0379H178.451L183.054 73.2887H181.415L180.229 69.9995ZM175.488 68.5617H179.715L177.74 62.7908L175.488 68.5617Z" fill="white" style="fill:white;fill-opacity:1;"/>
<path d="M189.513 73.2865H187.934V62.4735H184.299V61.016H193.149V62.4735H189.513V73.2865Z" fill="white" style="fill:white;fill-opacity:1;"/>
<path d="M201.367 73.4464C200.575 73.4646 199.787 73.317 199.057 73.0131C198.385 72.7347 197.785 72.3109 197.297 71.7723C196.792 71.1986 196.409 70.5285 196.171 69.8027C195.902 68.949 195.769 68.0585 195.777 67.1635C195.764 66.2666 195.903 65.374 196.191 64.5242C196.436 63.8014 196.818 63.1326 197.317 62.5546C197.801 62.0085 198.402 61.5777 199.075 61.2941C199.781 60.996 200.542 60.8483 201.309 60.8608C202.134 60.8477 202.955 61.0018 203.719 61.3138C204.396 61.6088 204.997 62.0532 205.477 62.6137C205.965 63.1932 206.334 63.8624 206.563 64.5834C206.815 65.4068 206.942 66.2632 206.938 67.1241C206.95 68.0546 206.802 68.9802 206.504 69.8618C206.26 70.589 205.87 71.2591 205.359 71.8314C204.867 72.3556 204.268 72.7658 203.6 73.0328C202.89 73.3129 202.132 73.4533 201.367 73.4464ZM201.526 71.9889C202.057 72.0216 202.588 71.9278 203.075 71.7156C203.563 71.5032 203.993 71.1784 204.331 70.7678C205.061 69.7053 205.408 68.4282 205.319 67.1438C205.34 66.4117 205.246 65.6808 205.042 64.9773C204.895 64.4234 204.633 63.9067 204.271 63.4606C203.941 63.0669 203.512 62.7678 203.027 62.594C202.504 62.3905 201.948 62.2903 201.387 62.2986C200.865 62.3022 200.347 62.4094 199.866 62.6137C199.402 62.8132 198.989 63.1165 198.661 63.5C198.295 63.948 198.019 64.4633 197.851 65.0167C197.64 65.7057 197.54 66.4237 197.554 67.1438C197.508 67.8859 197.582 68.6308 197.772 69.3497C197.927 69.9085 198.204 70.4264 198.582 70.8663C198.933 71.2558 199.365 71.5649 199.846 71.7723C200.388 71.947 200.957 72.0204 201.526 71.9889Z" fill="white" style="fill:white;fill-opacity:1;"/>
<path d="M223.178 73.2865H221.598L220.827 63.7143L217.726 73.2865H216.067L212.984 63.7537L212.234 73.2865H210.634L211.7 61.0357H213.676L216.994 71.573L220.137 61.016H222.112L223.178 73.2865Z" fill="white" style="fill:white;fill-opacity:1;"/>
<path d="M59.0491 57.769C58.1157 58.8028 56.9868 59.6426 55.7269 60.2401C54.467 60.8375 53.1011 61.1809 51.7078 61.2505C50.3144 61.3201 48.921 61.1144 47.6076 60.6454C46.2942 60.1764 45.0867 59.4532 44.0545 58.5175C41.9718 56.623 40.7243 53.9848 40.5836 51.1773C40.443 48.37 41.4208 45.621 43.3039 43.529C44.2386 42.4974 45.3682 41.6598 46.6278 41.0637C47.8876 40.4677 49.2529 40.1252 50.6455 40.0557C52.0382 39.9862 53.4308 40.1911 54.744 40.6586C56.0571 41.1262 57.265 41.8473 58.2983 42.7806C60.3857 44.6723 61.6366 47.3114 61.7773 50.1203C61.9181 52.9292 60.9371 55.6794 59.0491 57.769Z" fill="white" style="fill:white;fill-opacity:1;"/>
<path d="M26.5303 51.0125C26.5303 51.0125 32.4568 48.0187 35.8746 34.6649C39.2923 21.3112 52.2124 15.1268 52.2124 15.1268C52.2124 15.1268 24.8116 -11.9944 4.06836 30.5288C9.22846 31.8054 13.9864 34.3481 17.9095 37.9256C21.8325 41.5031 24.7961 46.0019 26.5303 51.0125Z" fill="white" style="fill:white;fill-opacity:1;"/>
<path d="M29.0805 4.6681C29.0805 4.6681 50.199 0.531978 62.6648 26.9046C62.6648 26.9046 77.2443 31.6316 90.0656 18.1203C90.0656 18.1203 68.631 -11.1082 29.041 4.6681" fill="white" style="fill:white;fill-opacity:1;"/>
<path d="M63.5341 71.0036C63.5341 71.0036 57.963 67.3993 44.6675 71.1218C31.3722 74.8443 19.5781 66.9266 19.5781 66.9266C19.5781 66.9266 9.70037 104.132 57.1134 100.784C57.1134 100.784 51.5228 84.5149 63.5933 71.0036" fill="white" style="fill:white;fill-opacity:1;"/>
<path d="M22.028 92.0391C22.028 92.0391 7.88315 75.8884 24.5567 51.899C24.5567 51.899 21.3366 36.9499 3.20111 32.6365C3.20111 32.6365 -11.4575 65.7649 22.0478 92.0391" fill="white" style="fill:white;fill-opacity:1;"/>
<path d="M62.4865 29.2871C62.4865 29.2871 62.0914 35.8656 71.9691 45.5164C81.8469 55.1674 80.9184 69.3483 80.9184 69.3483C80.9184 69.3483 118.157 59.2248 91.5863 20.1089C87.9063 23.967 83.3134 26.8418 78.229 28.4695C73.1444 30.0973 67.7314 30.4258 62.4865 29.425" fill="white" style="fill:white;fill-opacity:1;"/>
<path d="M101.603 54.5987C101.603 54.5987 94.6488 74.8853 65.4897 72.5218C65.4897 72.5218 54.1105 82.744 59.4445 100.569C59.4445 100.569 95.5378 96.6295 101.603 54.5987Z" fill="white" style="fill:white;fill-opacity:1;"/>
</g>
</svg>
