<svg width="215" height="43" viewBox="0 0 215 43" fill="none" xmlns="http://www.w3.org/2000/svg">
<path d="M97.3874 5.03533C97.3874 1.65599 95.5761 -2.57492e-05 91.5762 -2.57492e-05C87.5764 -2.57492e-05 85.7656 1.65599 85.7656 5.03533C85.7656 8.41764 87.5764 10.0707 91.5762 10.0707C95.5761 10.0707 97.3874 8.41764 97.3874 5.03533Z" fill="white" style="fill:white;fill-opacity:1;"/>
<path d="M96.9998 42.224H86.1533V13.5591H96.9998V42.224Z" fill="white" style="fill:white;fill-opacity:1;"/>
<path d="M128.223 32.9269C125.976 34.1852 123.322 34.9019 120.709 34.9019C115.899 34.9019 113.658 32.7164 113.658 27.8915C113.658 23.0638 115.899 20.8781 120.476 20.8781C122.848 20.8781 125.804 21.6155 127.971 22.8151L133.765 16.419C129.988 13.9934 125.467 12.7823 120.476 12.7823C108.616 12.7823 102.812 18.4262 102.812 27.8915C102.812 37.3569 108.616 42.9979 120.709 42.9979C126.131 42.9979 130.277 41.7397 134.072 39.3757L128.223 32.9269Z" fill="white" style="fill:white;fill-opacity:1;"/>
<path d="M172.888 27.8907C172.888 18.4254 167.083 12.7843 155.225 12.7843C143.366 12.7843 137.559 18.4254 137.559 27.8907C137.559 37.356 143.366 43 155.225 43C167.083 43 172.888 37.356 172.888 27.8907ZM162.025 27.8994C162.025 32.7241 159.783 34.9099 155.207 34.9099C150.631 34.9099 148.39 32.7241 148.39 27.8994C148.39 23.0717 150.631 20.8861 155.207 20.8861C159.783 20.8861 162.025 23.0717 162.025 27.8994Z" fill="white" style="fill:white;fill-opacity:1;"/>
<path d="M78.4051 42.2231H67.5586V21.306H53.924V42.2231H43.0781V13.5582H53.924V20.5305L67.5586 13.5582H71.4329C75.2833 13.5582 78.4051 16.6802 78.4051 20.5305V42.2231Z" fill="white" style="fill:white;fill-opacity:1;"/>
<path d="M203.178 42.2231H214.024V20.5305C214.024 16.6802 210.902 13.5582 207.052 13.5582H203.178L189.544 20.5305V13.5582H178.697V42.2231H189.544V21.306H203.178V42.2231Z" fill="white" style="fill:white;fill-opacity:1;"/>
<path d="M0 13.5576H10.8465V34.4747H24.481V13.5576H35.3304V42.2225H24.481V35.2502L10.8465 42.2225H6.97274C3.12181 42.2225 0 39.1005 0 35.2502" fill="white" style="fill:white;fill-opacity:1;"/>
</svg>
