<svg width="343" height="91" viewBox="0 0 343 91" fill="none" xmlns="http://www.w3.org/2000/svg">
<g clip-path="url(#clip0_313_16174)">
<mask id="mask0_313_16174" style="mask-type:luminance" maskUnits="userSpaceOnUse" x="0" y="0" width="343" height="91">
<path d="M343 0H0V91H343V0Z" fill="white" style="fill:white;fill-opacity:1;"/>
</mask>
<g mask="url(#mask0_313_16174)">
<path d="M144.377 34.0249C139.871 34.0249 136.501 35.6837 134.834 38.4273H134.474V34.8678H126.238V72.5697H134.474V60.6179H134.834C136.493 63.3616 139.871 65.0204 144.377 65.0204C152.829 65.0204 159.533 58.1524 159.533 49.5182C159.533 40.8928 152.829 34.0249 144.377 34.0249ZM142.71 57.5606C138.114 57.5606 134.474 54.0011 134.474 49.5182C134.474 44.9904 138.114 41.4758 142.71 41.4758C147.441 41.4758 151.036 44.9904 151.036 49.5182C151.036 54.046 147.395 57.5606 142.71 57.5606Z" fill="white" style="fill:white;fill-opacity:1;"/>
<path d="M328.582 36.2385C323.872 36.2385 320.184 38.0138 317.941 41.0981H317.572C318.184 35.5213 321.356 32.8135 328.188 31.8452L340.144 30.1238V22.5834L327.393 24.3855C315.617 26.0173 309.966 32.2217 309.966 43.4024C309.966 51.4895 310.489 54.0449 311.941 57.1022C314.219 62.0065 319.87 65.0192 326.698 65.0192C335.899 65.0192 343 58.5278 343 50.0281C342.991 41.8512 337.126 36.2385 328.582 36.2385ZM326.61 57.5236C321.925 57.5236 318.464 54.3406 318.464 50.0281C318.464 45.6706 321.879 42.4879 326.61 42.4879C331.249 42.4879 334.673 45.6706 334.673 50.0281C334.673 54.3406 331.206 57.5236 326.61 57.5236Z" fill="white" style="fill:white;fill-opacity:1;"/>
<path d="M117.604 26.0137L108.332 44.6091L95.699 26.0137H85.8506L104.187 52.9296L103.683 53.9516C102.89 55.5834 101.844 56.4621 99.4297 56.4621H92.9418V64.2087H100.349C105.998 64.2087 108.278 62.7832 110.639 58.0938L126.849 26.0048H117.604V26.0137Z" fill="white" style="fill:white;fill-opacity:1;"/>
<path d="M207.109 34.9025L205.703 53.1215C205.487 55.9727 204.523 57.0126 202.243 57.0126H200.225V64.4274H205.136C210.659 64.4274 213.11 61.917 213.506 56.6808L214.588 42.5237H224.716V64.1763H233.041V34.9025H207.109Z" fill="white" style="fill:white;fill-opacity:1;"/>
<path d="M254.506 41.562C257.876 41.562 260.552 43.4449 261.822 45.9644L269.184 43.2029C267.13 37.6348 261.3 34.0306 254.335 34.0306C244.999 34.0306 237.953 40.7282 237.953 49.5328C237.953 58.3285 245.009 65.0349 254.335 65.0349C261.3 65.0349 267.13 61.4305 269.184 55.8627L261.822 53.1011C260.552 55.6116 257.876 57.5035 254.506 57.5035C249.82 57.5035 246.441 54.1951 246.441 49.5416C246.441 44.8704 249.82 41.562 254.506 41.562Z" fill="white" style="fill:white;fill-opacity:1;"/>
<path d="M295.192 34.8582L282.406 53.4716V34.8582H274.17V64.1769H283.28L295.984 45.698V64.1769H304.221V34.8582H295.192Z" fill="white" style="fill:white;fill-opacity:1;"/>
<path d="M187.82 38.4162H187.46C185.802 35.6726 182.423 34.0138 177.917 34.0138C169.466 34.0138 162.762 40.8817 162.762 49.5159C162.762 58.1413 169.466 65.0181 177.917 65.0181C182.423 65.0181 185.793 63.3596 187.46 60.6159H187.82V64.1755H196.056V34.8567H187.82V38.4162ZM179.594 57.5583C174.908 57.5583 171.268 54.0437 171.268 49.5159C171.268 44.9881 174.863 41.4735 179.594 41.4735C184.189 41.4735 187.829 44.9881 187.829 49.5159C187.82 53.9991 184.189 57.5583 179.594 57.5583Z" fill="white" style="fill:white;fill-opacity:1;"/>
<path d="M62.6366 45.9644C62.6366 35.3487 56.8247 26.015 48.0934 20.6982L48.2105 27.9068C53.4007 32.3451 56.6895 38.8004 56.6895 45.9644C56.6895 49.237 55.9866 52.3571 54.7521 55.2083C50.9948 51.6576 48.3186 47.4795 46.6516 42.5482C44.6422 36.5769 44.1737 30.0408 44.1017 22.0521L44.1106 18.6181C42.3084 17.8471 40.4253 17.2374 38.4971 16.807L38.5059 22.0431C38.6952 49.6223 43.498 60.9913 50.6433 69.5357C57.9509 64.0486 62.6366 55.531 62.6366 45.9644C62.6366 45.9732 62.6366 45.9732 62.6366 45.9644Z" fill="white" style="fill:white;fill-opacity:1;"/>
<path d="M24.1396 22.0487L24.1486 16.8126C22.2203 17.243 20.3371 17.8527 18.5349 18.6237L18.544 22.0577C18.4629 30.0375 18.0033 36.5826 15.9939 42.5539C14.336 47.485 11.6508 51.6542 7.89334 55.2137C6.65889 52.3626 5.95605 49.2424 5.95605 45.9698C5.95605 38.7971 9.23593 32.3506 14.4351 27.9125L14.5522 20.7038C5.81188 26.0117 0 35.3453 0 45.961V45.9698C0 55.5365 4.69456 64.0541 11.9932 69.5414C19.1567 61.0059 23.9503 49.628 24.1396 22.0487Z" fill="white" style="fill:white;fill-opacity:1;"/>
<path d="M34.1295 11.4916C33.1114 11.4109 32.1924 11.375 31.3272 11.375C30.4623 11.375 29.543 11.4109 28.516 11.4916V17.687C28.516 44.836 27.4617 56.635 23.3799 74.9615C28.552 76.2617 34.0486 76.2617 39.2297 74.9704C35.1748 56.7786 34.1295 44.9793 34.1295 17.687V11.4916Z" fill="white" style="fill:white;fill-opacity:1;"/>
</g>
</g>
<defs>
<clipPath id="clip0_313_16174">
<rect width="343" height="91" fill="white" style="fill:white;fill-opacity:1;"/>
</clipPath>
</defs>
</svg>
