<svg width="110" height="110" viewBox="0 0 110 110" fill="none" xmlns="http://www.w3.org/2000/svg">
<path fill-rule="evenodd" clip-rule="evenodd" d="M109.996 55.002C109.996 85.3765 85.3726 110 54.9981 110C24.6235 110 0 85.3765 0 55.002C0 24.6274 24.6235 0.00390625 54.9981 0.00390625C85.3726 0.00390625 109.996 24.6274 109.996 55.002ZM70.0078 75.2852C70.0078 60.0582 65.1378 51.7346 52.6193 51.7346V48.0637H52.6969C57.3807 48.0637 60.7024 45.716 62.7202 43.1898C65.0213 40.4075 65.4948 37.7843 65.5995 35.4405H52.7047V31.8122H65.487C65.1572 29.352 64.222 26.9034 62.6969 25.0679C59.7711 21.4319 55.6267 20.8188 52.8987 20.8188H45.6112V86.7637H52.7047V62.1537H61.979V86.7365H70.0078V75.2852ZM64.4005 50.0388C75.7276 54.0396 80.097 63.1316 80.097 76.6589V90.7878H35.5646V17.1401H51.1603C51.3 17.1401 51.4164 17.1401 51.5328 17.144H55.3163C62.7939 17.144 65.9216 18.4595 69.4529 21.1913C74.6022 25.2232 75.4094 31.0788 75.4094 34.0124C75.4094 37.6407 74.2957 41.4824 71.5755 44.61C70.1513 46.3213 67.9744 48.5759 64.4005 50.0388Z" fill="white" style="fill:white;fill-opacity:1;"/>
</svg>
