<svg width="75" height="20" viewBox="0 0 75 20" fill="none" xmlns="http://www.w3.org/2000/svg">
<g clip-path="url(#clip0_752_5143)">
<path d="M19.396 1.43103C17.5684 1.89654 13.8788 4.10344 12.2926 5.6724C11.9133 6.05171 11.5512 6.3793 11.5167 6.3793C11.465 6.3793 11.0167 6.75861 10.4995 7.24137C8.91327 8.68965 9.60292 8.5862 12.8443 6.8793C18.3788 3.93103 18.4133 3.91378 19.1029 4.05171C19.465 4.10344 20.2581 4.34482 20.896 4.56896C21.534 4.79309 22.534 5.10344 23.1374 5.25861C23.7409 5.41378 24.3098 5.60344 24.396 5.68965C24.4995 5.75861 24.8443 5.91378 25.1719 5.99999C25.4995 6.10344 26.5512 6.46551 27.4995 6.81034C28.4478 7.13792 30.3098 7.77585 31.6374 8.22413C32.965 8.65516 34.1891 9.06896 34.3443 9.15516C34.5167 9.24137 34.7581 9.25861 34.9133 9.20689C35.0684 9.13792 35.2753 9.22413 35.4133 9.39654C35.5684 9.62068 35.8443 9.70689 36.3615 9.68965C36.7409 9.6724 37.0684 9.72413 37.0684 9.81034C37.0684 9.89654 37.465 9.99999 37.9478 10.069C38.4305 10.1379 38.9995 10.2931 39.2064 10.431C39.7064 10.7586 41.0167 10.9138 41.6374 10.7069C41.9305 10.6207 42.0167 10.5345 41.8615 10.5345C41.7064 10.5172 41.465 10.4138 41.3443 10.2759C41.2064 10.1552 40.9305 9.98275 40.7064 9.91378C40.4822 9.84482 40.1891 9.68965 40.034 9.55171C38.7753 8.46551 38.0684 7.96551 37.6374 7.86206C37.3788 7.79309 37.034 7.62068 36.896 7.49999C36.3443 7.01723 27.6202 2.75861 26.0857 2.22413C23.6374 1.39654 20.8788 1.06896 19.396 1.43103Z" fill="white" style="fill:white;fill-opacity:1;"/>
<path d="M13.8792 9.36206C11.9999 9.99999 10.7758 11.0862 10.2758 12.5517C9.91371 13.5862 9.93095 15.4138 10.293 16.4828C10.6896 17.6552 12.0344 18.9828 13.2758 19.4138C14.431 19.7931 16.4999 19.8448 17.5516 19.5L18.2758 19.2586V17.5862V15.9138L17.4654 16.3103C16.5516 16.7759 15.931 16.8276 15.1034 16.4828C13.8965 15.9828 13.4482 14.6552 14.0689 13.3621C14.6723 12.069 16.8447 11.8793 17.9827 13C18.2585 13.2759 18.2758 13.2069 18.2758 11.569V9.82758L17.6378 9.55171C16.7585 9.1724 14.7585 9.0862 13.8792 9.36206Z" fill="white" style="fill:white;fill-opacity:1;"/>
<path d="M0.344727 14.4483V19.5L4.01714 19.4483C7.32749 19.3966 7.72404 19.3621 8.27576 19.0345C9.15507 18.5172 9.65507 17.6897 9.65507 16.7241C9.65507 15.5 8.96542 14.6207 7.68955 14.2241C7.39645 14.1379 7.43093 14.069 7.9999 13.7241C8.37921 13.5 8.77576 13.1379 8.89645 12.9138C9.43093 11.9483 8.9999 10.3276 8.06886 9.7931C7.793 9.63793 6.58611 9.55173 3.9999 9.48276L0.344727 9.39655V14.4483ZM5.48266 11.931C5.7068 12.1552 5.75852 12.8621 5.56886 12.9828C5.48266 13.0345 5.17231 13.1207 4.87921 13.1897L4.31024 13.3103V12.5172C4.31024 11.7586 4.32749 11.7241 4.793 11.7241C5.05162 11.7241 5.36197 11.8103 5.48266 11.931ZM5.65507 15.7241C5.77576 15.8448 5.86197 16.0862 5.86197 16.2931C5.86197 16.8103 5.53438 17.069 4.87921 17.069C4.32749 17.069 4.31024 17.0517 4.31024 16.2931C4.31024 15.5345 4.32749 15.5172 4.87921 15.5172C5.18955 15.5172 5.53438 15.6034 5.65507 15.7241Z" fill="white" style="fill:white;fill-opacity:1;"/>
<path d="M19.3105 14.4828V19.4828H21.3795H23.4485V17.5345L23.4657 15.6034L24.5347 17.5345L25.6037 19.4828H27.8968C29.7071 19.4828 30.1554 19.431 30.0519 19.2586C29.983 19.1379 29.1899 17.9828 28.3278 16.6897C27.4485 15.3793 26.7243 14.2759 26.7243 14.2241C26.7243 14.1552 27.4657 13.0862 28.3623 11.8448L30.0174 9.56896L27.914 9.51724C26.7243 9.5 25.7243 9.55172 25.6381 9.63793C25.5519 9.72414 25.0174 10.569 24.4657 11.5L23.4485 13.1897V11.3276V9.48276H21.3795H19.3105V14.4828Z" fill="white" style="fill:white;fill-opacity:1;"/>
<path d="M42.3449 11.5172C42.6553 11.7931 43.9311 12.069 44.8449 12.0517L45.776 12.0345L44.9484 11.8965C44.4829 11.8103 43.8794 11.6724 43.5863 11.569C42.9484 11.3448 42.1036 11.3103 42.3449 11.5172Z" fill="white" style="fill:white;fill-opacity:1;"/>
<path d="M58.8447 15.431C58.8792 15.5172 59.1723 15.6035 59.4826 15.6035C59.793 15.6035 60.0861 15.5172 60.1206 15.431C60.155 15.3276 59.8792 15.2586 59.4826 15.2586C59.0861 15.2586 58.8102 15.3276 58.8447 15.431Z" fill="white" style="fill:white;fill-opacity:1;"/>
<path d="M32.4134 16.1552C31.7582 16.3965 31.3789 16.9655 31.3789 17.6724C31.3789 18.431 31.7927 18.9827 32.5513 19.2241C33.0168 19.3621 33.6203 19.1896 33.6203 18.8965C33.6203 18.7586 33.4134 18.7069 33.0341 18.7586C32.5686 18.8103 32.3961 18.7414 32.0858 18.3621C31.8961 18.1034 31.7237 17.7931 31.7237 17.6724C31.7237 17.5517 31.8961 17.2414 32.0858 16.9827C32.3961 16.6034 32.5686 16.5345 33.0341 16.5862C33.4134 16.6379 33.6203 16.5862 33.6203 16.4483C33.6203 16.1034 32.9824 15.9483 32.4134 16.1552Z" fill="white" style="fill:white;fill-opacity:1;"/>
<path d="M34.3105 16.3793C34.3105 16.4655 34.4657 16.5517 34.6554 16.5517C34.9657 16.5517 35.0002 16.6724 35.0002 17.8965C35.0002 18.9827 35.0519 19.2586 35.2588 19.2586C35.4657 19.2586 35.5174 18.9827 35.5174 17.8965C35.5174 16.6724 35.5519 16.5517 35.8623 16.5517C36.0519 16.5517 36.2071 16.4655 36.2071 16.3793C36.2071 16.2758 35.7761 16.2069 35.2588 16.2069C34.7416 16.2069 34.3105 16.2758 34.3105 16.3793Z" fill="white" style="fill:white;fill-opacity:1;"/>
<path d="M37.0693 17.7241C37.0693 18.9655 37.1211 19.2586 37.328 19.2586C37.5004 19.2586 37.5866 19.069 37.5866 18.7069C37.5866 18.2241 37.6555 18.1552 38.2417 18C38.7935 17.8621 38.8797 17.7758 38.9314 17.2758C39.0176 16.4827 38.7245 16.2069 37.828 16.2069H37.0693V17.7241ZM38.3624 17.069C38.3624 17.3793 38.259 17.5172 37.9831 17.5517C37.6383 17.6034 37.5866 17.5345 37.5866 17.069C37.5866 16.6034 37.6383 16.5345 37.9831 16.5862C38.259 16.6207 38.3624 16.7586 38.3624 17.069Z" fill="white" style="fill:white;fill-opacity:1;"/>
<path d="M40.1204 17.6207C39.7583 18.4138 39.4824 19.1034 39.4824 19.1552C39.4824 19.3965 39.9997 19.2241 40.1031 18.931C40.241 18.4827 41.6548 18.4827 41.7928 18.931C41.8617 19.1034 42.0169 19.2586 42.1548 19.2586C42.4652 19.2586 42.4135 19.069 41.7066 17.4138C41.4479 16.7931 41.1204 16.2758 40.9997 16.2414C40.8272 16.2069 40.5341 16.6896 40.1204 17.6207ZM41.3445 17.6207C41.5341 18.0862 41.5169 18.1034 41.0341 18.1034C40.741 18.1034 40.5169 18.069 40.5169 18.0345C40.5169 18.0172 40.6031 17.7241 40.7066 17.431C40.9135 16.8448 41.0169 16.8621 41.3445 17.6207Z" fill="white" style="fill:white;fill-opacity:1;"/>
<path d="M43.2762 16.3276C43.2762 16.4138 43.4314 16.6552 43.621 16.8965C44.0693 17.4655 44.0521 17.7241 43.5348 18.4828C43.19 18.9828 43.1555 19.1207 43.3624 19.2069C43.5348 19.2586 43.7072 19.1207 43.8796 18.7931C44.2589 18.069 44.4314 18.0345 44.7245 18.5862C44.8624 18.8621 45.1383 19.1379 45.3452 19.1896C45.5693 19.2414 45.6555 19.2069 45.5693 19.0862C45.5003 18.9655 45.2762 18.5862 45.0521 18.2241L44.6383 17.569L45.0865 17C45.5865 16.3448 45.621 16.2069 45.2762 16.2069C45.1555 16.2069 44.9141 16.3965 44.7589 16.6379C44.6038 16.8793 44.4141 17.069 44.3279 17.069C44.2589 17.069 44.1038 16.8793 44.0003 16.6379C43.8279 16.2414 43.2762 16.0172 43.2762 16.3276Z" fill="white" style="fill:white;fill-opacity:1;"/>
<path d="M46.9828 16.6379C46.3621 17.2414 46.3966 18.1552 47.0518 18.8103C47.6208 19.3793 48.3449 19.4655 49.1208 19.0517C49.6897 18.7758 49.8277 18.4827 49.8277 17.6552C49.8277 16.7586 49.207 16.2069 48.1897 16.2069C47.5863 16.2069 47.2932 16.3103 46.9828 16.6379ZM48.9311 16.8276C49.3966 17.1379 49.4484 18.0172 49.0173 18.4827C48.6725 18.8621 47.8104 18.8793 47.3794 18.5C46.707 17.8965 47.2415 16.5517 48.1553 16.5517C48.3621 16.5517 48.7242 16.6724 48.9311 16.8276Z" fill="white" style="fill:white;fill-opacity:1;"/>
<path d="M50.8623 17.7069V19.2242L51.6899 19.1552C52.1382 19.1207 52.6037 19.0173 52.7244 18.931C52.983 18.7069 53.0002 18.069 52.7244 17.7931C52.6209 17.6897 52.5175 17.2931 52.5175 16.9483L52.5002 16.2931L51.6899 16.2414L50.8623 16.1897V17.7069ZM52.0175 16.7414C52.2933 17.0173 52.1037 17.4138 51.7071 17.4138C51.4658 17.4138 51.3795 17.2931 51.3795 16.9828C51.3795 16.5345 51.6899 16.4138 52.0175 16.7414ZM52.1554 18C52.4313 18.2069 52.4485 18.2759 52.2589 18.5173C52.1382 18.6724 51.8795 18.7931 51.7071 18.7931C51.4658 18.7931 51.3795 18.6724 51.3795 18.2759C51.3795 17.7069 51.6382 17.6207 52.1554 18Z" fill="white" style="fill:white;fill-opacity:1;"/>
<path d="M54.224 16.6379C53.9137 16.931 53.793 17.2414 53.793 17.7414C53.793 19.2586 55.8964 19.8793 56.8447 18.6379C56.9654 18.4828 57.0688 18.069 57.0688 17.7069C57.0688 16.7586 56.4654 16.2069 55.4309 16.2069C54.8275 16.2069 54.5343 16.3103 54.224 16.6379ZM56.1723 16.8276C56.6378 17.1379 56.6895 18.0172 56.2585 18.4828C55.9137 18.8621 55.0516 18.8793 54.6206 18.5C53.9481 17.8965 54.4826 16.5517 55.3964 16.5517C55.6033 16.5517 55.9654 16.6724 56.1723 16.8276Z" fill="white" style="fill:white;fill-opacity:1;"/>
<path d="M58.1035 17.7586C58.1035 18.6207 58.1725 19.3103 58.2587 19.3103C58.3449 19.3103 58.8277 18.7931 59.3449 18.1724L60.2587 17.0345L60.3449 18.1207C60.3966 18.8103 60.5173 19.2414 60.6552 19.2586C60.8104 19.2931 60.8621 18.9138 60.8621 17.7586C60.8621 15.8621 60.7242 15.8103 59.5518 17.2586L58.707 18.3276L58.6552 17.2586C58.6208 16.4827 58.5346 16.2069 58.3621 16.2069C58.1552 16.2069 58.1035 16.5172 58.1035 17.7586Z" fill="white" style="fill:white;fill-opacity:1;"/>
<path d="M63.7584 17.2414C63.7066 17.8621 63.5687 18.3793 63.3963 18.5862C63.086 18.931 62.9997 20 63.2756 20C63.3791 20 63.448 19.8448 63.448 19.6552C63.448 19.3448 63.5687 19.3103 64.5687 19.3103C65.5687 19.3103 65.6894 19.3448 65.6894 19.6552C65.6894 19.8448 65.7756 20 65.8618 20C65.9653 20 66.0342 19.7241 66.0342 19.3966C66.0342 19.069 65.9653 18.7931 65.8618 18.7931C65.7584 18.7931 65.6894 18.2414 65.6894 17.5V16.2069H64.7584H63.8273L63.7584 17.2414ZM65.3446 17.6724V18.7931H64.6377C64.0342 18.7931 63.948 18.7586 64.0515 18.4828C64.1204 18.3276 64.2239 17.8276 64.2584 17.3621C64.3446 16.6034 64.3791 16.5517 64.8446 16.5517C65.3446 16.5517 65.3446 16.5517 65.3446 17.6724Z" fill="white" style="fill:white;fill-opacity:1;"/>
<path d="M67.1551 16.7586C66.3102 17.7586 66.8792 19.0862 68.2068 19.2414C69.4309 19.3966 70.3275 18.5 70.0861 17.3966C69.9137 16.5862 69.3792 16.2069 68.4309 16.2069C67.724 16.2069 67.5516 16.2759 67.1551 16.7586ZM69.2068 16.8276C69.6378 17.2586 69.724 17.8793 69.4137 18.3621C69.1895 18.7069 68.9826 18.7931 68.4654 18.7931C67.7413 18.7931 67.4999 18.6035 67.3275 17.931C67.0861 16.9483 68.4999 16.1207 69.2068 16.8276Z" fill="white" style="fill:white;fill-opacity:1;"/>
<path d="M71.4825 16.5862C71.0687 18.4655 71.017 19.0172 71.1894 19.1896C71.4136 19.4138 71.4825 19.2241 71.6894 18.0172L71.8274 17.1552L72.2756 18.1379C72.5343 18.6896 72.7756 19.1379 72.8274 19.1379C72.8791 19.1379 73.086 18.7586 73.2929 18.2759C73.7239 17.2759 73.9653 17.1724 73.9825 17.9655C73.9998 18.7241 74.1722 19.2069 74.4481 19.2586C74.7067 19.3276 74.7067 19.3276 74.3963 17.7069C74.2584 16.9655 74.1377 16.3103 74.1377 16.2759C74.1377 16.2414 74.0687 16.2069 73.9653 16.2069C73.8791 16.2069 73.5687 16.6552 73.2929 17.1896L72.7929 18.1896L72.3618 17.1896C71.8963 16.1552 71.6032 15.9655 71.4825 16.5862Z" fill="white" style="fill:white;fill-opacity:1;"/>
<path d="M27.7931 0.258619C27.2931 0.396551 26.7069 0.603447 26.5 0.706896C26.1724 0.896551 26.2414 0.948275 27.3448 1.37931C28.0172 1.63793 30.6034 2.86207 33.1207 4.10345C37.6551 6.34483 41.2586 7.7931 42.8965 8.01724C43.3965 8.08621 43.8103 8.24138 43.862 8.37931C43.931 8.53448 44.2241 8.62069 44.7414 8.62069C45.1724 8.62069 45.5172 8.68965 45.5172 8.7931C45.5172 8.87931 45.8276 8.96552 46.2069 8.96552C46.5862 8.96552 47.1724 9.12069 47.5345 9.2931C48.1896 9.63793 48.8276 9.72414 50.0862 9.67241C50.862 9.65517 50.7586 9.51724 49.6551 9.05172C49.2241 8.87931 48.7414 8.58621 48.5689 8.41379C48.3965 8.24138 48.1896 8.10345 48.1034 8.10345C48 8.10345 47.6379 7.84483 47.2931 7.53448C46.931 7.22414 46.3276 6.7931 45.9482 6.60345C45.5689 6.41379 44.2069 5.7069 42.931 5.05172C40.9138 4 36.6551 1.96552 35.0862 1.2931C32.7069 0.293102 29.4138 -0.172415 27.7931 0.258619Z" fill="white" style="fill:white;fill-opacity:1;"/>
<path d="M50.8623 10.3276C50.8623 10.4655 51.2589 10.5862 52.5692 10.8103C52.983 10.8793 53.1209 10.8448 53.0347 10.7069C52.9658 10.6034 52.6899 10.5172 52.414 10.5172C52.1382 10.5172 51.8623 10.431 51.8106 10.3448C51.6726 10.1379 50.8623 10.1207 50.8623 10.3276Z" fill="white" style="fill:white;fill-opacity:1;"/>
</g>
<defs>
<clipPath id="clip0_752_5143">
<rect width="75" height="20" fill="white" style="fill:white;fill-opacity:1;"/>
</clipPath>
</defs>
</svg>
