<?xml version="1.0" encoding="utf-8"?><svg viewBox="0 0 50 50" xmlns="http://www.w3.org/2000/svg" xmlns:xlink="http://www.w3.org/1999/xlink"><style>:root>svg{display:none}:root>svg:target{display:block}</style><svg fill="none" viewBox="0 0 24 24" id="arrow-accordion" xmlns="http://www.w3.org/2000/svg"><g clip-path="url(#aaa)" stroke="var(--white-bg)" stroke-width="2" stroke-miterlimit="10"><path d="m18.855 13.26-6.607 6.607a.362.362 0 0 1-.503 0L5.138 13.26" style="stroke:var(--white-bg);stroke-opacity:1" stroke-linecap="square"/><path d="M12 20.002v-16.8" style="stroke:var(--white-bg);stroke-opacity:1"/></g><defs><clipPath id="aaa"><path fill="#fff" style="fill:var(--white-bg);fill-opacity:1" d="M0 0h24v24H0z"/></clipPath></defs></svg><svg fill="none" viewBox="0 0 45 23" id="arrow-btn-right" xmlns="http://www.w3.org/2000/svg"><path fill-rule="evenodd" clip-rule="evenodd" d="M36.5.5h4l4 11-3.5 11h-4l2.864-9H16v-4h23.773L36.5.5ZM0 9.5v4h4v-4H0Zm8 4v-4h4v4H8Z" fill="#fff"/></svg><svg fill="none" viewBox="0 0 45 23" id="arrow-btn-right-gray" xmlns="http://www.w3.org/2000/svg"><path fill-rule="evenodd" clip-rule="evenodd" d="M36.5.5h4l4 11-3.5 11h-4l2.864-9H16v-4h23.773L36.5.5ZM0 9.5v4h4v-4H0Zm8 4v-4h4v4H8Z" fill="#607D8B"/></svg><svg fill="none" viewBox="0 0 45 22" id="arrow-btn-right-orange" xmlns="http://www.w3.org/2000/svg"><path fill-rule="evenodd" clip-rule="evenodd" d="M36.5 0h4l4 11L41 22h-4l2.864-9H16V9h23.773L36.5 0ZM0 9v4h4V9H0Zm8 4V9h4v4H8Z" fill="#F48A0B"/></svg><svg fill="none" viewBox="0 0 41 40" id="arrow-circl-right" xmlns="http://www.w3.org/2000/svg"><path d="M20.266 26.667 26.933 20m0 0-6.667-6.666M26.933 20H13.6m23.333 0c0 9.205-7.462 16.667-16.667 16.667C11.062 36.667 3.6 29.205 3.6 20c0-9.205 7.462-16.666 16.666-16.666 9.205 0 16.667 7.461 16.667 16.666Z" stroke="#F3F3F3" stroke-width="2" stroke-linecap="round" stroke-linejoin="round"/></svg><svg fill="none" viewBox="0 0 37 36" id="arrow-down" xmlns="http://www.w3.org/2000/svg"><path d="M18.5 8.667v18.666m0 0L27.832 18m-9.334 9.333L9.166 18" stroke="#fff" stroke-width="2" stroke-linecap="round" stroke-linejoin="round"/></svg><svg fill="none" viewBox="0 0 18 26" id="bookmark" xmlns="http://www.w3.org/2000/svg"><path d="m17 24-8-5-8 5V2a1 1 0 0 1 1-1h14a1 1 0 0 1 1 1v22Z" stroke="#FDFDFD" style="stroke:color(display-p3 .9922 .9922 .9922);stroke-opacity:1" stroke-width="2" stroke-linecap="round"/></svg><svg fill="none" viewBox="0 0 18 26" id="bookmark-mint" xmlns="http://www.w3.org/2000/svg"><path d="m17 24-8-5-8 5V2a1 1 0 0 1 1-1h14a1 1 0 0 1 1 1v22Z" stroke="#00E0FF" style="stroke:color(display-p3 0 .8784 1);stroke-opacity:1" stroke-width="2" stroke-linecap="round"/></svg><svg fill="none" viewBox="0 0 18 26" id="bookmark-orange" xmlns="http://www.w3.org/2000/svg"><path d="m17 24-8-5-8 5V2a1 1 0 0 1 1-1h14a1 1 0 0 1 1 1v22Z" stroke="#FB9512" style="stroke:color(display-p3 .9843 .5843 .0706);stroke-opacity:1" stroke-width="2" stroke-linecap="round"/></svg><svg fill="none" viewBox="0 0 37 36" id="btn-arrow" xmlns="http://www.w3.org/2000/svg"><path d="m11.834 11.333 13.333 13.334m0 0V11.333m0 13.334H11.834" stroke="#fff" stroke-width="3" stroke-linecap="round" stroke-linejoin="round"/></svg><svg fill="none" viewBox="0 0 32 32" id="business-session" xmlns="http://www.w3.org/2000/svg"><g clip-path="url(#aka)" stroke="var(--tabs-icon-color)" stroke-width="2" stroke-miterlimit="10"><path d="m16.03 2.18-.02 8.48M16.03 21.35l-.02 8.48M16.01 18.59c5.904 0 10.69-2.395 10.69-5.35 0-2.955-4.786-5.35-10.69-5.35S5.32 10.285 5.32 13.24c0 2.955 4.786 5.35 10.69 5.35Z" style="stroke:var(--tabs-icon-color);stroke-opacity:1"/><path d="M16.01 24.11c5.904 0 10.69-2.395 10.69-5.35 0-2.955-4.786-5.35-10.69-5.35S5.32 15.805 5.32 18.76c0 2.955 4.786 5.35 10.69 5.35Z" style="stroke:var(--tabs-icon-color);stroke-opacity:1"/></g><defs><clipPath id="aka"><path fill="#fff" style="fill:#fff;fill-opacity:1" d="M0 0h32v32H0z"/></clipPath></defs></svg><svg fill="none" viewBox="0 0 22 22" id="camera" xmlns="http://www.w3.org/2000/svg"><g clip-path="url(#ala)" stroke="#16B113" stroke-width="2" stroke-linecap="round" stroke-linejoin="round"><path d="M14.41 5H2.59c-.325 0-.59.308-.59.688v9.625c0 .38.265.687.59.687h11.82c.325 0 .59-.308.59-.688V5.688c0-.38-.265-.688-.59-.688ZM15 9.625l4.125-2.75v8.25L15 12.375" style="stroke:color(display-p3 .0848 .6941 .0745);stroke-opacity:1"/></g><defs><clipPath id="ala"><path fill="#fff" style="fill:#fff;fill-opacity:1" d="M0 0h22v22H0z"/></clipPath></defs></svg><svg fill="none" viewBox="0 0 24 24" id="check-gray" xmlns="http://www.w3.org/2000/svg"><path d="m9.55 18-5.7-5.7 1.425-1.425L9.55 15.15l9.175-9.175L20.15 7.4 9.55 18Z" fill="#607D8B"/></svg><svg fill="none" viewBox="0 0 24 24" id="check-white" xmlns="http://www.w3.org/2000/svg"><path d="m9.55 18-5.7-5.7 1.425-1.425L9.55 15.15l9.175-9.175L20.15 7.4 9.55 18Z" fill="#fff"/></svg><svg fill="none" viewBox="0 0 32 32" id="clock" xmlns="http://www.w3.org/2000/svg"><g clip-path="url(#aqa)" stroke="#FDFDFD" stroke-width="2" stroke-miterlimit="10"><path d="M16 27.73c6.478 0 11.73-5.252 11.73-11.73 0-6.478-5.252-11.73-11.73-11.73C9.522 4.27 4.27 9.522 4.27 16c0 6.478 5.252 11.73 11.73 11.73Z" style="stroke:color(display-p3 .9922 .9922 .9922);stroke-opacity:1"/><path d="M16 8.59V16l5.27 5.31" style="stroke:color(display-p3 .9922 .9922 .9922);stroke-opacity:1"/></g><defs><clipPath id="aqa"><path fill="#fff" style="fill:#fff;fill-opacity:1" d="M0 0h32v32H0z"/></clipPath></defs></svg><svg fill="none" viewBox="0 0 32 32" id="clock-mint" xmlns="http://www.w3.org/2000/svg"><g clip-path="url(#aoa)" stroke="#00E0FF" stroke-width="2" stroke-miterlimit="10"><path d="M16 27.73c6.478 0 11.73-5.252 11.73-11.73 0-6.478-5.252-11.73-11.73-11.73C9.522 4.27 4.27 9.522 4.27 16c0 6.478 5.252 11.73 11.73 11.73Z" style="stroke:color(display-p3 0 .8784 1);stroke-opacity:1"/><path d="M16 8.59V16l5.27 5.31" style="stroke:color(display-p3 0 .8784 1);stroke-opacity:1"/></g><defs><clipPath id="aoa"><path fill="#fff" style="fill:#fff;fill-opacity:1" d="M0 0h32v32H0z"/></clipPath></defs></svg><svg fill="none" viewBox="0 0 32 32" id="clock-orange" xmlns="http://www.w3.org/2000/svg"><g clip-path="url(#apa)" stroke="#FB9512" stroke-width="2" stroke-miterlimit="10"><path d="M16 27.73c6.478 0 11.73-5.252 11.73-11.73 0-6.478-5.252-11.73-11.73-11.73C9.522 4.27 4.27 9.522 4.27 16c0 6.478 5.252 11.73 11.73 11.73Z" style="stroke:color(display-p3 .9843 .5843 .0706);stroke-opacity:1"/><path d="M16 8.59V16l5.27 5.31" style="stroke:color(display-p3 .9843 .5843 .0706);stroke-opacity:1"/></g><defs><clipPath id="apa"><path fill="#fff" style="fill:#fff;fill-opacity:1" d="M0 0h32v32H0z"/></clipPath></defs></svg><svg fill="none" viewBox="0 0 32 26" id="curved-arrow-down" xmlns="http://www.w3.org/2000/svg"><path d="M22.203 24.865a1.093 1.093 0 0 0 1.546 0l6.957-6.957a1.093 1.093 0 1 0-1.546-1.546l-6.184 6.184-6.183-6.184a1.093 1.093 0 0 0-1.546 1.546l6.956 6.957ZM.582 2.216h15.835V.03H.582v2.186Zm21.301 5.466v16.41h2.186V7.682h-2.186Zm-5.465-5.466a5.466 5.466 0 0 1 5.465 5.466h2.186A7.652 7.652 0 0 0 16.418.03v2.186Z" fill="#DBDBDB"/></svg><svg fill="none" viewBox="0 0 32 26" id="curved-arrow-down-orange" xmlns="http://www.w3.org/2000/svg"><path d="M22.203 24.865a1.093 1.093 0 0 0 1.546 0l6.957-6.957a1.093 1.093 0 1 0-1.546-1.546l-6.184 6.184-6.183-6.184a1.093 1.093 0 0 0-1.546 1.546l6.956 6.957ZM.582 2.216h15.835V.03H.582v2.186Zm21.301 5.466v16.41h2.186V7.682h-2.186Zm-5.465-5.466a5.466 5.466 0 0 1 5.465 5.466h2.186A7.652 7.652 0 0 0 16.418.03v2.186Z" fill="#FF9F43"/></svg><svg fill="none" viewBox="0 0 27 34" id="curved-arrow-left" xmlns="http://www.w3.org/2000/svg"><path d="M1.043 21.334a1.5 1.5 0 0 0 0 2.12l9.546 9.547a1.5 1.5 0 0 0 2.121-2.121l-8.485-8.486 8.485-8.485a1.5 1.5 0 0 0-2.121-2.121l-9.546 9.546ZM23.573 0v15.835h3V0h-3Zm-5.06 20.894H2.104v3h16.41v-3Zm5.06-5.059a5.059 5.059 0 0 1-5.06 5.06v3a8.059 8.059 0 0 0 8.06-8.06h-3Z" fill="#FF9F43"/></svg><svg fill="none" viewBox="0 0 27 34" id="curved-arrow-right" xmlns="http://www.w3.org/2000/svg"><path d="M26.133 21.334a1.5 1.5 0 0 1 0 2.12l-9.546 9.547a1.5 1.5 0 1 1-2.121-2.121l8.485-8.486-8.485-8.485a1.5 1.5 0 1 1 2.12-2.121l9.547 9.546ZM3.603 0v15.835h-3V0h3Zm5.06 20.894h16.41v3H8.662v-3Zm-5.06-5.059a5.059 5.059 0 0 0 5.06 5.06v3a8.059 8.059 0 0 1-8.06-8.06h3Z" fill="#FF9F43"/></svg><svg fill="none" viewBox="0 0 20 20" id="lightning" xmlns="http://www.w3.org/2000/svg"><path d="m10.833 1.667-8.333 10H10l-.833 6.666 8.333-10H10l.833-6.666Z" stroke="#FF9F43" stroke-width="2" stroke-linecap="round" stroke-linejoin="round"/></svg><svg fill="none" viewBox="0 0 20 20" id="mail" xmlns="http://www.w3.org/2000/svg"><path d="M18.333 5c0-.916-.75-1.666-1.667-1.666H3.333c-.917 0-1.667.75-1.667 1.667m16.667 0v10c0 .916-.75 1.666-1.667 1.666H3.333c-.917 0-1.667-.75-1.667-1.666V5m16.667 0-8.334 5.833-8.333-5.833" stroke="#fff" stroke-width="2" stroke-linecap="round" stroke-linejoin="round" opacity=".8"/></svg><svg fill="none" viewBox="0 0 20 21" id="meetup" xmlns="http://www.w3.org/2000/svg"><g clip-path="url(#axa)" stroke="#FDFDFD" stroke-linecap="square"><path d="M8.125 14.25a2.5 2.5 0 1 0 0-5 2.5 2.5 0 0 0 0 5Z" style="stroke:color(display-p3 .9922 .9922 .9922);stroke-opacity:1"/><path d="M4.171 16.75a4.375 4.375 0 0 1 7.908 0h4.796a.624.624 0 0 0 .625-.625V4.875a.625.625 0 0 0-.625-.625H3.125a.625.625 0 0 0-.625.625v11.25a.625.625 0 0 0 .625.625h1.046Z" style="stroke:color(display-p3 .9922 .9922 .9922);stroke-opacity:1"/><path d="M13.75 14.25H15v-7.5H5V8" style="stroke:color(display-p3 .9922 .9922 .9922);stroke-opacity:1"/></g><defs><clipPath id="axa"><path fill="#fff" style="fill:#fff;fill-opacity:1" transform="translate(0 .5)" d="M0 0h20v20H0z"/></clipPath></defs></svg><svg fill="none" viewBox="0 0 20 21" id="phone" xmlns="http://www.w3.org/2000/svg"><path d="M18.333 14.6v2.5a1.667 1.667 0 0 1-1.816 1.666 16.492 16.492 0 0 1-7.192-2.558 16.252 16.252 0 0 1-5-5 16.492 16.492 0 0 1-2.558-7.225 1.666 1.666 0 0 1 1.658-1.817h2.5A1.667 1.667 0 0 1 7.592 3.6c.105.8.3 1.586.583 2.342A1.667 1.667 0 0 1 7.8 7.7L6.742 8.758a13.333 13.333 0 0 0 5 5l1.058-1.059a1.667 1.667 0 0 1 1.758-.375 10.7 10.7 0 0 0 2.342.584 1.666 1.666 0 0 1 1.433 1.691Z" stroke="#fff" stroke-width="2" stroke-linecap="round" stroke-linejoin="round" opacity=".8"/></svg><svg fill="none" viewBox="0 0 32 32" id="plenar-session" xmlns="http://www.w3.org/2000/svg"><g clip-path="url(#aza)" stroke="#FDFDFD" stroke-width="2" stroke-miterlimit="10"><path d="M16.01 21.35c5.904 0 10.69-2.395 10.69-5.35 0-2.955-4.786-5.35-10.69-5.35S5.32 13.045 5.32 16c0 2.955 4.786 5.35 10.69 5.35Z" style="stroke:color(display-p3 .9922 .9922 .9922);stroke-opacity:1"/><path d="M16.01 26.7c5.904 0 10.69-2.395 10.69-5.35 0-2.955-4.786-5.35-10.69-5.35S5.32 18.395 5.32 21.35c0 2.955 4.786 5.35 10.69 5.35Z" style="stroke:color(display-p3 .9922 .9922 .9922);stroke-opacity:1"/><path d="M16.01 16.02c5.904 0 10.69-2.396 10.69-5.35 0-2.955-4.786-5.35-10.69-5.35S5.32 7.715 5.32 10.67c0 2.954 4.786 5.35 10.69 5.35Z" style="stroke:color(display-p3 .9922 .9922 .9922);stroke-opacity:1"/></g><defs><clipPath id="aza"><path fill="#fff" style="fill:#fff;fill-opacity:1" d="M0 0h32v32H0z"/></clipPath></defs></svg><svg fill="none" viewBox="0 0 50 50" id="rutube" xmlns="http://www.w3.org/2000/svg"><rect width="50" height="50" rx="25" fill="#FDFDFD" style="fill:color(display-p3 .9922 .9922 .9922);fill-opacity:1"/><g clip-path="url(#baa)"><mask id="bab" style="mask-type:luminance" maskUnits="userSpaceOnUse" x="11" y="11" width="28" height="23"><path d="M11.875 11.25H38.75v22.5H11.875v-22.5Z" fill="#fff" style="fill:#fff;fill-opacity:1"/></mask><g mask="url(#bab)" fill="#080821"><path d="M26.034 24.856h-9.942v-3.811h9.942c.58 0 .985.098 1.187.269.203.171.329.488.329.953v1.369c0 .488-.126.806-.329.977-.203.172-.606.245-1.187.245v-.002Zm.683-7.405H11.874v16.3h4.216v-5.303h7.771l3.688 5.303h4.72l-4.064-5.328c1.499-.215 2.171-.66 2.727-1.393.555-.734.833-1.906.833-3.471v-1.222c0-.928-.102-1.662-.278-2.223a3.682 3.682 0 0 0-.91-1.491c-.445-.41-.98-.72-1.565-.904-.606-.17-1.364-.268-2.297-.268ZM35.51 17.449c1.79 0 3.24-1.388 3.24-3.1 0-1.711-1.45-3.099-3.24-3.099-1.788 0-3.239 1.388-3.239 3.1 0 1.711 1.45 3.099 3.24 3.099Z" style="fill:color(display-p3 .0314 .0314 .1294);fill-opacity:1"/></g></g><defs><clipPath id="baa"><path fill="#fff" style="fill:#fff;fill-opacity:1" transform="translate(11.875 11.25)" d="M0 0h26.875v22.5H0z"/></clipPath></defs></svg><svg fill="none" viewBox="0 0 32 32" id="techno-session" xmlns="http://www.w3.org/2000/svg"><g clip-path="url(#bba)"><path d="m3.21 26.67 7.46-22.4v23.46L19.2 4.27v23.46l8.53-23.46v22.4" stroke="var(--tabs-icon-color)" style="stroke:var(--tabs-icon-color);stroke-opacity:1" stroke-width="2" stroke-linecap="square" stroke-linejoin="bevel"/></g><defs><clipPath id="bba"><path fill="#fff" style="fill:#fff;fill-opacity:1" d="M0 0h32v32H0z"/></clipPath></defs></svg><svg fill="none" viewBox="0 0 50 50" id="tg" xmlns="http://www.w3.org/2000/svg"><rect width="50" height="50" rx="25" fill="#FDFDFD" style="fill:color(display-p3 .9922 .9922 .9922);fill-opacity:1"/><path d="m35 15.753-3.757 19.612s-.525 1.36-1.97.708l-8.667-6.882-.04-.02a6003.79 6003.79 0 0 0 10.646-9.926c.615-.593.233-.947-.48-.498l-13.411 8.82-5.174-1.803s-.814-.3-.893-.953c-.079-.653.92-1.006.92-1.006l21.092-8.569S35 14.447 35 15.753Z" fill="#080821" style="fill:color(display-p3 .0314 .0314 .1294);fill-opacity:1"/></svg><svg fill="none" viewBox="0 0 50 50" id="vk" xmlns="http://www.w3.org/2000/svg"><rect width="50" height="50" rx="25" fill="#FDFDFD" style="fill:color(display-p3 .9922 .9922 .9922);fill-opacity:1"/><path d="M26.228 33.75c-9.396 0-14.755-6.57-14.978-17.5h4.706c.155 8.023 3.625 11.421 6.373 12.122V16.25h4.432v6.92c2.713-.298 5.565-3.452 6.527-6.92h4.431a13.486 13.486 0 0 1-2.122 5.003 13.194 13.194 0 0 1-3.907 3.72 13.618 13.618 0 0 1 4.453 3.617 13.94 13.94 0 0 1 2.607 5.16h-4.878a8.676 8.676 0 0 0-2.63-4.221 8.409 8.409 0 0 0-4.481-2.033v6.254h-.533Z" fill="#080821" style="fill:color(display-p3 .0314 .0314 .1294);fill-opacity:1"/></svg></svg>