<svg width="376" height="347" viewBox="0 0 376 347" fill="none" xmlns="http://www.w3.org/2000/svg">
<g clip-path="url(#clip0_416_1822)" filter="url(#filter0_i_416_1822)">
<rect x="0.685547" y="269.418" width="61.0469" height="67.521" rx="4" transform="rotate(-60 0.685547 269.418)" fill="#1E2137"/>
<rect x="36.709" y="207.024" width="61.0469" height="67.521" rx="4" transform="rotate(-60 36.709 207.024)" fill="#292D47"/>
<rect x="72.7324" y="144.629" width="61.0469" height="67.521" rx="4" transform="rotate(-60 72.7324 144.629)" fill="#1E2137"/>
<rect x="108.756" y="82.2354" width="61.0469" height="67.521" rx="4" transform="rotate(-60 108.756 82.2354)" fill="#2B2F4E"/>
<rect x="144.779" y="19.8408" width="61.0469" height="67.521" rx="4" transform="rotate(-60 144.779 19.8408)" fill="#1E2137"/>
<rect x="68.6875" y="308.679" width="61.0469" height="67.521" rx="4" transform="rotate(-60 68.6875 308.679)" fill="#1E2137"/>
<rect x="104.711" y="246.284" width="61.0469" height="67.521" rx="4" transform="rotate(-60 104.711 246.284)" fill="#1E2137"/>
<rect x="140.734" y="183.89" width="61.0469" height="67.521" rx="2" transform="rotate(-60 140.734 183.89)" fill="#555C8E"/>
<rect x="176.758" y="121.496" width="61.0469" height="67.521" rx="4" transform="rotate(-60 176.758 121.496)" fill="#292D47"/>
<rect x="212.781" y="59.1011" width="61.0469" height="67.521" rx="4" transform="rotate(-60 212.781 59.1011)" fill="#292D47"/>
<rect x="248.805" y="-3.29346" width="61.0469" height="67.521" rx="4" transform="rotate(-60 248.805 -3.29346)" fill="#1E2137"/>
<rect x="136.688" y="347.939" width="61.0469" height="67.521" rx="4" transform="rotate(-60 136.688 347.939)" fill="#1E2137"/>
<rect x="172.711" y="285.545" width="61.0469" height="67.521" rx="4" transform="rotate(-60 172.711 285.545)" fill="#292D46"/>
<rect x="208.734" y="223.15" width="61.0469" height="67.521" rx="18" transform="rotate(-60 208.734 223.15)" fill="#1E2137"/>
<rect opacity="0.84" x="244.758" y="160.756" width="61.0469" height="67.521" rx="4" transform="rotate(-60 244.758 160.756)" fill="#515787"/>
<rect x="280.781" y="98.3618" width="61.0469" height="67.521" rx="4" transform="rotate(-60 280.781 98.3618)" fill="#292D47"/>
<rect x="316.805" y="35.9673" width="61.0469" height="67.521" rx="4" transform="rotate(-60 316.805 35.9673)" fill="#1E2137"/>
<rect x="352.828" y="-26.4272" width="61.0469" height="67.521" rx="4" transform="rotate(-60 352.828 -26.4272)" fill="#1E2137"/>
<rect opacity="0.45" x="204.689" y="387.2" width="61.0469" height="67.521" rx="4" transform="rotate(-60 204.689 387.2)" fill="#282C45"/>
<rect x="240.713" y="324.805" width="61.0469" height="67.521" rx="4" transform="rotate(-60 240.713 324.805)" fill="#1E2137"/>
<rect x="276.736" y="262.411" width="61.0469" height="67.521" rx="4" transform="rotate(-60 276.736 262.411)" fill="#1E2137"/>
<rect x="312.76" y="200.017" width="61.0469" height="67.521" rx="4" transform="rotate(-60 312.76 200.017)" fill="#1E2137"/>
<rect x="348.783" y="137.622" width="61.0469" height="67.521" rx="4" transform="rotate(-60 348.783 137.622)" fill="#1E2137"/>
</g>
<defs>
<filter id="filter0_i_416_1822" x="0.685547" y="-4.04824" width="485.926" height="464.393" filterUnits="userSpaceOnUse" color-interpolation-filters="sRGB">
<feFlood flood-opacity="0" result="BackgroundImageFix"/>
<feBlend mode="normal" in="SourceGraphic" in2="BackgroundImageFix" result="shape"/>
<feColorMatrix in="SourceAlpha" type="matrix" values="0 0 0 0 0 0 0 0 0 0 0 0 0 0 0 0 0 0 127 0" result="hardAlpha"/>
<feOffset dy="-10"/>
<feGaussianBlur stdDeviation="2.3"/>
<feComposite in2="hardAlpha" operator="arithmetic" k2="-1" k3="1"/>
<feColorMatrix type="matrix" values="0 0 0 0 0.0755208 0 0 0 0 0.0759983 0 0 0 0 0.104167 0 0 0 0.25 0"/>
<feBlend mode="normal" in2="shape" result="effect1_innerShadow_416_1822"/>
</filter>
<clipPath id="clip0_416_1822">
<rect width="310.461" height="381.854" fill="white" transform="translate(0.685547 269.418) rotate(-60)"/>
</clipPath>
</defs>
</svg>
