<svg width="384" height="77" viewBox="0 0 384 77" fill="none" xmlns="http://www.w3.org/2000/svg">
<path d="M383.4 52.1996H371.2L357.2 36.5996V52.1996H347.7V15.2H357.2V29.8996L370.3 15.2H382.2L366.2 32.7996L383.4 52.1996ZM331 28.9996H317.9V15.2H308.5V52.1996H318V37.5996H331.1V52.1996H340.6V15.2H331.1V28.9996H331ZM56.2001 35.1996C56.0001 42.0996 55.1001 43.4996 51.2001 43.4996V52.1996H52.6001C62.3001 52.1996 64.6001 47.1996 65.0001 36.0996L65.4001 23.8H74.5001V52.1996H84.0001V15.2H56.9001L56.2001 35.1996ZM121.6 39.1996C121.6 45.4996 117.9 52.1996 107.6 52.1996H91.2001V15.2H100.7V26.3996H107.5C116.5 26.3996 121.6 30.9996 121.6 39.1996ZM112 39.1996C112 36.0996 110 34.6996 106.7 34.6996H100.6V44.0996H106.7C110.1 44.0996 112 42.4996 112 39.1996ZM170.6 33.6996C170.6 44.4996 163.3 52.1996 152.5 53.0996V66.9996H143V53.0996C132.2 52.1996 124.9 44.4996 124.9 33.6996C124.9 23 132.2 15.3 143 14.4V0.599998H152.5V14.3C163.3 15.2 170.6 22.9 170.6 33.6996ZM143 23.2C137.7 23.9 134.5 27.8996 134.5 33.6996C134.5 39.4996 137.8 43.3996 143 44.1996V23.2ZM161 33.6996C161 27.8996 157.7 24 152.5 23.2V44.0996C157.7 43.3996 161 39.4996 161 33.6996ZM208.5 43.6996V52.1996H205.2C201.6 52.1996 198.8 50.7996 197.6 48.2996C196.2 50.3996 193 53.0996 187.2 53.0996C179.3 53.0996 173.9 47.7996 173.9 40.0996C173.9 32.6996 178.9 28.2996 187.3 28.2996H196.7C196.7 23.8 194.3 22.1 190.7 22.1C186.2 22.1 184.8 24.5 184.5 25.7996H174.9C175.4 19.5 180.7 13.4 190.7 13.4C200.4 13.4 206.2 19.1 206.2 28.1996V40.5996C206.1 42.8996 206.8 43.6996 208.5 43.6996ZM196.6 35.9996H189C186.4 35.9996 183.5 36.5996 183.5 40.1996C183.5 43.8996 186.2 45.0996 189.6 45.0996C193.5 45.0996 196.6 42.6996 196.6 38.3996V35.9996ZM264.5 36.1996C264.5 46.5996 258 52.1996 246.6 52.1996H226.1V0.599998H260.5V10H236V20.5H246.6C258 20.5 264.5 26.3996 264.5 36.1996ZM254.4 36.1996C254.4 31.8996 251.4 29.4996 246.2 29.4996H236.1V42.8996H246.2C251.5 42.8996 254.4 40.5996 254.4 36.1996ZM303.1 43.6996V52.1996H299.8C296.2 52.1996 293.4 50.7996 292.2 48.2996C290.8 50.3996 287.6 53.0996 281.8 53.0996C273.9 53.0996 268.5 47.7996 268.5 40.0996C268.5 32.6996 273.5 28.2996 281.9 28.2996H291.3C291.3 23.8 288.9 22.1 285.3 22.1C280.8 22.1 279.4 24.5 279.1 25.7996H269.5C270 19.5 275.3 13.4 285.3 13.4C295 13.4 300.8 19.1 300.8 28.1996V40.5996C300.8 42.8996 301.4 43.6996 303.1 43.6996ZM291.3 35.9996H283.7C281.1 35.9996 278.2 36.5996 278.2 40.1996C278.2 43.8996 280.9 45.0996 284.3 45.0996C288.2 45.0996 291.3 42.6996 291.3 38.3996V35.9996ZM11.5 52.1996H1.1C1.1 52.1996 1.1 52.1996 16.8 7.7C18.3 3.4 20.1 0 25.8 0C31.5 0 33.2001 3.4 34.6001 7.7C49.5001 52.1996 49.5001 52.1996 49.5001 52.1996H38.5001L35.1001 41.5996H15.1L11.5 52.1996ZM18.1 32.6996H32.2001L25.5 11.6H25.2L18.1 32.6996ZM0 76.9996H50.6001V66.4996H0V76.9996Z" fill="white" style="fill:white;fill-opacity:1;"/>
</svg>
