<svg width="299" height="48" viewBox="0 0 299 48" fill="none" xmlns="http://www.w3.org/2000/svg">
<path fill-rule="evenodd" clip-rule="evenodd" d="M47.51 46.4761L44.9835 1.17841H29.8717L23.2224 11.2624H33.0644V14.9578L33.1618 14.7913L33.0015 31.2418H23.546L31.0689 18.3705H18.537L0 46.4761H14.5148L17.9903 40.5464H32.7879L32.7124 46.4761H47.51ZM138.489 11.2624L141.524 1.17841H99.9504L96.9054 11.2624H138.489ZM108.149 18.3705L99.6676 46.4761H114.465L122.947 18.3705H108.149Z" fill="white" style="fill:white;fill-opacity:1;"/>
<path fill-rule="evenodd" clip-rule="evenodd" d="M165.309 19.3383C165.205 19.7908 165.246 21.0415 165.315 19.6274C165.243 21.2206 165.058 21.7423 164.445 23.7817C163.587 26.613 162.449 29.0138 161.02 30.9809C159.596 32.9449 158.056 34.3559 156.403 35.2106C154.751 36.0653 153.082 36.4927 151.401 36.4927C148.859 36.4927 147.105 35.5751 146.14 33.7431C144.924 31.3486 144.962 28.0302 146.238 23.7848C147.096 20.9567 148.233 18.5779 149.657 16.6516C151.08 14.7284 152.651 13.3081 154.364 12.3936C156.077 11.476 157.739 11.0173 159.367 11.0173C159.618 11.0173 159.822 11.0832 160.055 11.1052H179.99C179.978 11.0612 179.978 11.0141 179.965 10.9733C179.057 7.40349 177.008 4.68217 173.816 2.8093C170.623 0.936427 166.789 0 162.321 0C159.964 0 157.632 0.273367 155.313 0.826429C153.009 1.3709 150.769 2.15556 148.629 3.16753C146.486 4.17624 144.29 5.6249 142.024 7.5072C139.758 9.3895 137.716 11.7054 135.887 14.4519C134.001 17.3234 132.549 20.4577 131.579 23.7534C129.401 30.9747 129.816 36.7692 132.829 41.1246C135.843 45.4894 140.968 47.6671 148.214 47.6671C153.352 47.6671 158.047 46.539 162.292 44.2921C166.538 42.0453 170.082 39.1198 172.917 35.506C175.773 31.8664 177.916 27.7201 179.233 23.2852C179.767 21.5097 180.081 19.8317 180.116 19.3415L165.309 19.3383Z" fill="white" style="fill:white;fill-opacity:1;"/>
<path fill-rule="evenodd" clip-rule="evenodd" d="M219.717 3.61686C217.561 1.99224 213.696 1.18152 208.118 1.18152H185.703L182.618 11.4257H196.972L196.985 11.3912H201.73C203.835 11.3912 205.18 11.4823 205.768 11.6708C206.132 11.7684 206.471 11.9429 206.762 12.1825C207.053 12.422 207.289 12.7212 207.455 13.0598C207.782 13.7354 207.81 14.521 207.534 15.4166C207.185 16.5824 206.446 17.5346 205.318 18.273C204.19 19.0115 202.484 19.3823 200.193 19.3823H194.571L194.584 19.3415H180.229L172.037 46.4761H194.886C198.383 46.4761 200.9 46.3158 202.446 45.9984C203.986 45.6716 205.607 45.15 207.307 44.421C209.007 43.6919 210.359 42.9409 211.358 42.1679C212.844 41.0694 214.135 39.7288 215.176 38.2022C216.296 36.5911 217.15 34.8108 217.706 32.9292C218.523 30.2236 218.529 27.9548 217.718 26.1228C216.901 24.2907 215.44 23.0621 213.319 22.4399C217.988 19.9197 220.917 16.7175 222.089 12.8241C223.302 8.78926 222.517 5.71599 219.717 3.61686ZM204.108 31.7445C203.728 33.0751 202.871 34.2192 201.701 34.9592C200.51 35.7322 198.468 36.1156 195.577 36.1156H189.518L192.114 27.5305H198.166C201.101 27.5305 202.93 27.8951 203.647 28.6241C204.36 29.35 204.514 30.3901 204.108 31.7445Z" fill="white" style="fill:white;fill-opacity:1;"/>
<path fill-rule="evenodd" clip-rule="evenodd" d="M257.089 46.4761L254.554 1.17841H239.442L232.692 11.4258H242.568L242.581 31.2418H233.122L240.077 19.3383H227.469L209.573 46.4761H224.088L227.567 40.5464H242.358L242.292 46.4761H257.089ZM277.195 12.6513C278.404 11.6206 279.976 11.1084 281.908 11.1084C282.48 11.1084 282.97 11.1712 283.417 11.2624H298.968C299.034 10.4045 299 9.60632 298.846 8.87414C298.575 7.46075 297.902 6.15567 296.907 5.11583C295.914 4.1086 294.72 3.32165 293.403 2.80616C291.169 1.86973 288.488 1.40151 285.368 1.40151C281.625 1.40151 278.169 2.04256 275.02 3.32152C271.859 4.60362 269.225 6.43564 267.114 8.81759C264.996 11.1995 263.585 13.5909 262.859 15.9791H274.693C275.158 14.7913 275.991 13.682 277.195 12.6513Z" fill="white" style="fill:white;fill-opacity:1;"/>
<path fill-rule="evenodd" clip-rule="evenodd" d="M290.66 22.6567C292.489 21.8208 293.981 20.8184 295.166 19.6588H279.545C278.973 19.7185 278.367 19.7531 277.704 19.7531H276.582L274.257 27.4646C275.821 27.4646 276.865 27.5086 277.405 27.5903C278.54 27.7568 279.382 28.0113 279.922 28.3539C280.463 28.6964 280.83 29.2275 281.035 29.9439C281.229 30.6635 281.195 31.4806 280.918 32.395C280.463 33.8939 279.567 35.1383 278.235 36.125C276.89 37.1117 275.306 37.6114 273.477 37.6114C271.538 37.6114 270.193 37.0458 269.445 35.9239C268.691 34.8021 268.635 33.1649 269.279 31.0218H256.98C255.342 36.455 255.776 40.5495 258.287 43.3054C260.791 46.0676 264.861 47.4408 270.476 47.4408C272.827 47.4408 275.24 47.1517 277.713 46.5829C280.186 46.0142 282.518 45.0966 284.711 43.8396C286.931 42.5517 288.9 40.8741 290.525 38.8872C292.192 36.8893 293.438 34.5753 294.189 32.0839C294.902 29.7334 294.918 27.7317 294.255 26.0756C293.582 24.4227 292.385 23.282 290.66 22.6567ZM94.4136 3.61686C92.258 1.99224 88.3991 1.18152 82.8213 1.18152H60.4065L57.3144 11.4257H71.6752L71.6878 11.3912H76.4328C78.5319 11.3912 79.8769 11.4823 80.4645 11.6709C80.8286 11.7684 81.1677 11.9429 81.4588 12.1825C81.7498 12.4221 81.9862 12.7212 82.152 13.0598C82.4819 13.7354 82.5071 14.521 82.2368 15.4166C81.888 16.5824 81.1433 17.5346 80.0151 18.273C78.8933 19.0115 77.1807 19.3823 74.8899 19.3823H69.2744L69.287 19.3415H54.9262L46.7402 46.4761H69.5887C73.0861 46.4761 75.6032 46.3158 77.1493 45.9984C78.8173 45.6326 80.4455 45.1042 82.0106 44.421C83.7043 43.6919 85.0555 42.9409 86.0611 42.1679C87.5457 41.0678 88.8362 39.7274 89.8792 38.2022C90.979 36.6247 91.8243 34.8649 92.4088 32.9292C93.2258 30.2236 93.2258 27.9548 92.4151 26.1228C91.6043 24.2907 90.1368 23.0621 88.022 22.4399C92.6916 19.9197 95.614 16.7175 96.7924 12.8241C98.0054 8.78926 97.2135 5.71599 94.4136 3.61686ZM78.8053 31.7445C78.4245 33.0751 77.5678 34.2192 76.3982 34.9592C75.2073 35.7322 73.171 36.1156 70.28 36.1156H64.2214L66.8108 27.5305H72.8693C75.8043 27.5305 77.6269 27.8951 78.3434 28.6241C79.063 29.35 79.217 30.3901 78.8053 31.7445Z" fill="white" style="fill:white;fill-opacity:1;"/>
</svg>
