<svg width="66" height="29" viewBox="0 0 66 29" fill="none" xmlns="http://www.w3.org/2000/svg">
<path d="M32.8618 2.28516H32.5713V25.765H32.8618V2.28516Z" fill="white" style="fill:white;fill-opacity:1;"/>
<path d="M37.62 20.3392H37.1816V16.9342H38.1847C38.3695 16.928 38.5539 16.9482 38.7328 16.9943C38.8768 17.0288 39.0117 17.094 39.1276 17.1856C39.2383 17.2731 39.3266 17.3855 39.3854 17.5135C39.4453 17.6668 39.475 17.8301 39.4729 17.9945C39.4823 18.1468 39.456 18.2992 39.3961 18.4395C39.3363 18.58 39.2442 18.7045 39.1276 18.8034C38.8501 19.0044 38.511 19.1029 38.1685 19.0822H37.62V20.3392ZM37.62 18.6996H38.1685C38.3875 18.7156 38.6055 18.6578 38.7878 18.5356C38.8615 18.474 38.9193 18.3957 38.9567 18.3073C38.9937 18.2189 39.0093 18.1229 39.0017 18.0273C39.0096 17.9325 38.9944 17.8371 38.957 17.7495C38.92 17.6618 38.8619 17.5846 38.7878 17.5245C38.6038 17.4068 38.3865 17.3512 38.1685 17.366H37.62V18.6996Z" fill="white" style="fill:white;fill-opacity:1;"/>
<path d="M41.9245 20.3819C41.7044 20.387 41.4861 20.346 41.283 20.2617C41.0968 20.1844 40.93 20.0668 40.7951 19.9174C40.6549 19.7582 40.5484 19.5722 40.4826 19.3708C40.4096 19.1336 40.3743 18.8865 40.3785 18.6384C40.3729 18.3899 40.41 18.1422 40.4882 17.9061C40.556 17.7044 40.6643 17.5185 40.8061 17.3595C40.9383 17.2082 41.1034 17.0886 41.2885 17.0097C41.4805 16.9266 41.6874 16.8838 41.8968 16.884C42.1262 16.8804 42.3535 16.9231 42.5656 17.0097C42.7535 17.0916 42.9206 17.2149 43.0535 17.3704C43.1909 17.5299 43.2936 17.716 43.3552 17.917C43.4275 18.1449 43.4628 18.383 43.4594 18.622C43.4653 18.8804 43.4244 19.1378 43.3386 19.3817C43.2732 19.5845 43.1649 19.7709 43.0206 19.9283C42.8846 20.0738 42.7179 20.1876 42.5328 20.2617C42.3393 20.3399 42.1331 20.3807 41.9245 20.3819ZM41.9681 19.9775C42.112 19.9835 42.2553 19.956 42.3867 19.8972C42.5179 19.8383 42.6338 19.7498 42.7248 19.6386C42.9296 19.3449 43.0265 18.9897 42.9988 18.633C43.003 18.4302 42.9791 18.2279 42.9276 18.0318C42.8826 17.8786 42.8082 17.7356 42.7082 17.6109C42.6165 17.5016 42.4975 17.4187 42.3629 17.3704C42.2182 17.3136 42.0636 17.2857 41.9079 17.2885C41.7646 17.2889 41.6227 17.3186 41.4913 17.3759C41.3601 17.4298 41.2435 17.5141 41.1515 17.6218C41.0497 17.7462 40.9733 17.8891 40.9266 18.0427C40.8681 18.2339 40.8404 18.4331 40.8442 18.633C40.8387 18.8401 40.8664 19.0468 40.9266 19.2451C40.9722 19.3991 41.0487 19.5423 41.1515 19.666C41.2497 19.7754 41.3715 19.8613 41.5075 19.9174C41.656 19.9664 41.8124 19.9868 41.9681 19.9775Z" fill="white" style="fill:white;fill-opacity:1;"/>
<path d="M46.9396 20.2449C46.8341 20.2916 46.7237 20.3264 46.6106 20.3487C46.4728 20.3714 46.3337 20.3823 46.194 20.3815C45.9514 20.3853 45.7102 20.3464 45.4812 20.2668C45.2763 20.1914 45.0898 20.0741 44.9331 19.9225C44.7843 19.7658 44.6705 19.5796 44.5988 19.3759C44.5192 19.1475 44.4801 18.9071 44.4836 18.6654C44.493 18.4055 44.5449 18.1489 44.6372 17.9057C44.7106 17.7029 44.8241 17.517 44.9715 17.3591C45.1248 17.2031 45.3123 17.0852 45.5196 17.0148C45.7414 16.936 45.9753 16.8971 46.2106 16.9C46.3704 16.8964 46.5303 16.9092 46.6874 16.9383C46.7901 16.9613 46.8912 16.9923 46.9888 17.0312L46.9067 17.4138C46.8002 17.375 46.6901 17.3475 46.5777 17.3318C46.4708 17.3147 46.3628 17.3056 46.2542 17.3045C46.0832 17.2929 45.912 17.3176 45.7514 17.377C45.5905 17.4363 45.4445 17.529 45.3223 17.6488C45.0902 17.9284 44.9763 18.2871 45.0044 18.649C45.0047 18.8351 45.0362 19.0198 45.0974 19.1955C45.1518 19.3517 45.2376 19.4949 45.3497 19.6164C45.4639 19.7328 45.6023 19.8225 45.7556 19.8787C45.931 19.9429 46.1168 19.9744 46.3036 19.9716C46.4123 19.9714 46.5206 19.9604 46.6272 19.9389C46.7286 19.9245 46.8268 19.8931 46.9175 19.8459L46.9396 20.2449Z" fill="white" style="fill:white;fill-opacity:1;"/>
<path d="M50.0101 19.4258H48.552L48.2177 20.3385H47.7734L49.0783 16.939H49.5167L50.7941 20.3385H50.3391L50.0101 19.4258ZM48.6945 19.0268H49.8675L49.3194 17.4254L48.6945 19.0268Z" fill="white" style="fill:white;fill-opacity:1;"/>
<path d="M52.5867 20.3381H52.1483V17.3376H51.1396V16.9331H53.5957V17.3376H52.5867V20.3381Z" fill="white" style="fill:white;fill-opacity:1;"/>
<path d="M55.8766 20.3823C55.6569 20.3874 55.4382 20.3464 55.2355 20.2621C55.049 20.1848 54.8825 20.0672 54.7472 19.9178C54.6071 19.7586 54.5009 19.5726 54.4348 19.3712C54.3601 19.1343 54.323 18.8872 54.3255 18.6388C54.3216 18.3899 54.3604 18.1423 54.4403 17.9065C54.5081 17.7059 54.6144 17.5203 54.7528 17.3599C54.887 17.2083 55.0538 17.0888 55.2407 17.0101C55.4365 16.9274 55.6476 16.8864 55.8604 16.8899C56.0894 16.8862 56.3171 16.929 56.5292 17.0156C56.7171 17.0974 56.8839 17.2208 57.0171 17.3763C57.1524 17.5371 57.2548 17.7228 57.3185 17.9229C57.3884 18.1514 57.4237 18.389 57.4226 18.6279C57.4257 18.8861 57.3849 19.143 57.3022 19.3876C57.2344 19.5894 57.1261 19.7753 56.9842 19.9342C56.8479 20.0796 56.6815 20.1935 56.4963 20.2675C56.2991 20.3453 56.0887 20.3842 55.8766 20.3823ZM55.9206 19.9779C56.068 19.9869 56.2154 19.9609 56.3507 19.902C56.486 19.8431 56.6053 19.753 56.6991 19.639C56.9015 19.3442 56.9981 18.9898 56.9731 18.6334C56.979 18.4302 56.9531 18.2274 56.8963 18.0322C56.8555 17.8785 56.7828 17.7351 56.6825 17.6113C56.5908 17.502 56.4718 17.4191 56.3372 17.3708C56.1922 17.3144 56.0379 17.2865 55.8822 17.2889C55.7372 17.2899 55.5936 17.3196 55.46 17.3763C55.3313 17.4317 55.2168 17.5158 55.1258 17.6222C55.0241 17.7466 54.9476 17.8895 54.9009 18.0431C54.8424 18.2343 54.8147 18.4335 54.8185 18.6334C54.8057 18.8393 54.8261 19.046 54.8791 19.2455C54.922 19.4006 54.9988 19.5443 55.1036 19.6663C55.2012 19.7744 55.3209 19.8602 55.4545 19.9178C55.605 19.9662 55.7628 19.9866 55.9206 19.9779Z" fill="white" style="fill:white;fill-opacity:1;"/>
<path d="M61.9291 20.3381H61.4907L61.2769 17.6819L60.4164 20.3381H59.9558L59.1005 17.6928L58.8922 20.3381H58.4482L58.7441 16.9386H59.2925L60.2133 19.8626L61.0852 16.9331H61.6333L61.9291 20.3381Z" fill="white" style="fill:white;fill-opacity:1;"/>
<path d="M16.3836 16.0318C16.1247 16.3187 15.8114 16.5518 15.4618 16.7176C15.1121 16.8834 14.7331 16.9786 14.3465 16.998C13.9598 17.0173 13.5731 16.9602 13.2087 16.83C12.8442 16.6999 12.5092 16.4992 12.2227 16.2396C11.6448 15.7138 11.2986 14.9817 11.2596 14.2027C11.2205 13.4237 11.4919 12.6608 12.0144 12.0803C12.2738 11.794 12.5872 11.5616 12.9368 11.3962C13.2864 11.2308 13.6653 11.1357 14.0517 11.1165C14.4381 11.0972 14.8246 11.154 15.189 11.2838C15.5534 11.4135 15.8886 11.6136 16.1753 11.8726C16.7546 12.3976 17.1017 13.1299 17.1407 13.9094C17.1798 14.6888 16.9076 15.452 16.3836 16.0318Z" fill="white" style="fill:white;fill-opacity:1;"/>
<path d="M7.36005 14.157C7.36005 14.157 9.00466 13.3262 9.95308 9.62059C10.9015 5.91498 14.4868 4.19882 14.4868 4.19882C14.4868 4.19882 6.88314 -3.32721 1.12695 8.47282C2.55886 8.82707 3.87918 9.53267 4.96781 10.5254C6.05644 11.5182 6.87882 12.7665 7.36005 14.157Z" fill="white" style="fill:white;fill-opacity:1;"/>
<path d="M8.06663 1.29674C8.06663 1.29674 13.9269 0.148977 17.3861 7.4673C17.3861 7.4673 21.4319 8.77901 24.9898 5.02967C24.9898 5.02967 19.0418 -3.08114 8.05566 1.29674" fill="white" style="fill:white;fill-opacity:1;"/>
<path d="M17.6281 19.7046C17.6281 19.7046 16.0821 18.7044 12.3927 19.7374C8.70328 20.7704 5.43047 18.5732 5.43047 18.5732C5.43047 18.5732 2.68944 28.8976 15.8464 27.9685C15.8464 27.9685 14.295 23.4539 17.6445 19.7046" fill="white" style="fill:white;fill-opacity:1;"/>
<path d="M6.11025 25.5416C6.11025 25.5416 2.18511 21.0599 6.81197 14.4029C6.81197 14.4029 5.91839 10.2546 0.885858 9.05762C0.885858 9.05762 -3.18185 18.2506 6.11575 25.5416" fill="white" style="fill:white;fill-opacity:1;"/>
<path d="M17.3375 8.12845C17.3375 8.12845 17.2279 9.95395 19.9689 12.632C22.7099 15.3101 22.4523 19.2453 22.4523 19.2453C22.4523 19.2453 32.786 16.436 25.4126 5.58154C24.3914 6.65215 23.1169 7.44988 21.706 7.90157C20.295 8.35329 18.793 8.44443 17.3375 8.16672" fill="white" style="fill:white;fill-opacity:1;"/>
<path d="M28.1913 15.1523C28.1913 15.1523 26.2616 20.7818 18.1701 20.126C18.1701 20.126 15.0124 22.9626 16.4925 27.9088C16.4925 27.9088 26.5083 26.8158 28.1913 15.1523Z" fill="white" style="fill:white;fill-opacity:1;"/>
<path d="M62.1764 7.88184L63.7108 11.2417L65.2453 7.88184H65.9993V12.5116H65.4702V8.61599L63.8894 12.0024H63.519L61.9383 8.61599V12.5116H61.4092V7.88184H62.1764Z" fill="white" style="fill:white;fill-opacity:1;"/>
<path d="M57.5285 7.88184L58.7587 10.5274L59.8897 7.88184H60.5246L58.4611 12.5116H57.8658L58.4941 11.1028L56.8936 7.88184H57.5285Z" fill="white" style="fill:white;fill-opacity:1;"/>
<path d="M54.9039 8.39773H53.6869V10.2893H54.9039C55.4727 10.2893 55.8497 9.91233 55.8497 9.33691C55.8497 8.76811 55.466 8.39773 54.9039 8.39773ZM53.6869 10.8052V12.5116H53.1445V7.88184H54.9369C55.8166 7.88184 56.4052 8.47048 56.4052 9.34353C56.4052 10.2166 55.8232 10.8052 54.9435 10.8052H53.6869Z" fill="white" style="fill:white;fill-opacity:1;"/>
<path d="M49.369 11.7313V8.66238C48.4034 8.68222 47.7354 9.29732 47.7354 10.1968C47.7354 11.0963 48.4034 11.718 49.369 11.7313ZM49.9246 8.66238V11.7313C50.8902 11.718 51.5582 11.0963 51.5582 10.1968C51.5582 9.29732 50.8902 8.6756 49.9246 8.66238ZM49.9246 12.6837H49.369V12.2472C48.0131 12.2075 47.1533 11.3609 47.1533 10.1968C47.1533 9.03276 48.0131 8.19278 49.369 8.14648V7.70996H49.9246V8.14648C51.2805 8.19278 52.1403 9.03276 52.1403 10.1968C52.1403 11.3609 51.2805 12.2009 49.9246 12.2472V12.6837Z" fill="white" style="fill:white;fill-opacity:1;"/>
<path d="M46.1461 12.5116H45.5906V8.74165L43.064 12.5116H42.4688V7.88184H43.0243V11.6518L45.5509 7.88184H46.1461V12.5116Z" fill="white" style="fill:white;fill-opacity:1;"/>
<path d="M37.2822 7.88184H37.851V11.9957H40.3908V7.88184H40.9596V11.9957H41.5813V13.4905H41.0125V12.5116H37.2822V7.88184Z" fill="white" style="fill:white;fill-opacity:1;"/>
</svg>
