<svg width="74" height="14" viewBox="0 0 74 14" fill="none" xmlns="http://www.w3.org/2000/svg">
<g clip-path="url(#clip0_641_2467)">
<path d="M6.61586 7.77647H12.328V11.3117L6.61482 13.6489V7.77545L6.61586 7.77647ZM12.328 6.95793V3.42272L6.61586 1.08447V6.95489L12.328 6.95793ZM0 3.42272V11.3127L5.71313 13.6499V1.08447L0 3.42272Z" fill="white" style="fill:white;fill-opacity:1;"/>
<path d="M20.422 3.24686C17.7117 3.24686 16.252 4.73925 16.252 7.37194C16.252 10.0046 17.7117 11.497 20.347 11.497C22.0786 11.497 23.478 10.6481 24.035 8.922H22.2285C21.8818 9.50682 21.3851 9.87309 20.347 9.87309C18.7967 9.87309 18.1792 9.06871 18.1792 7.3861V7.34259C18.1792 5.65998 18.7967 4.87079 20.422 4.87079C21.3851 4.87079 21.8818 5.19254 22.2285 5.74902H24.035C23.478 4.08159 22.1535 3.24787 20.422 3.24787V3.24686ZM39.3908 8.11864C39.3908 9.28928 39.9926 9.8741 41.1973 9.8741C42.402 9.8741 43.0038 9.28928 43.0038 8.11864V3.4219H44.9009V11.322H43.1246V10.1513C42.6279 10.985 41.8148 11.497 40.4601 11.497C38.5329 11.497 37.4948 10.4731 37.4948 8.42521V3.4219H39.3919V8.11763L39.3908 8.11864ZM68.4906 8.11864C68.4906 9.28928 69.0924 9.8741 70.2971 9.8741C71.5018 9.8741 72.1036 9.28928 72.1036 8.11864V3.4219H74.0007V11.322H72.2244V10.1513C71.7277 10.985 70.9146 11.497 69.5599 11.497C67.6327 11.497 66.5946 10.4731 66.5946 8.42521V3.4219H68.4917V8.11763L68.4906 8.11864ZM50.3204 9.8741C51.9468 9.8741 52.5788 9.06972 52.5788 7.38711V7.34361C52.5788 5.661 51.9468 4.88596 50.3204 4.88596C48.694 4.88596 48.062 5.661 48.062 7.34361V7.38711C48.062 9.06972 48.694 9.8741 50.3204 9.8741ZM54.4145 0.350098V11.322H52.608V10.1513C52.0957 10.9415 51.3137 11.497 49.9737 11.497C47.4144 11.497 46.1347 9.7709 46.1347 7.48829C46.1347 4.98714 47.4144 3.26102 49.9737 3.26102C51.0878 3.26102 52.1561 3.78817 52.5174 4.49035V0.350098H54.4145ZM24.7722 11.322H26.6693V0.350098H24.7722V11.322ZM32.0888 11.498C29.4993 11.498 27.874 9.93278 27.874 7.37295C27.874 4.81311 29.5003 3.24787 32.0888 3.24787C34.6772 3.24787 36.3036 4.81311 36.3036 7.37295C36.3036 9.93278 34.6772 11.498 32.0888 11.498ZM29.8002 7.38711C29.8002 9.06972 30.4322 9.8741 32.0888 9.8741C33.7454 9.8741 34.3774 9.06972 34.3774 7.38711V7.34361C34.3774 5.661 33.7454 4.8718 32.0888 4.8718C30.4322 4.8718 29.8002 5.66201 29.8002 7.34361V7.38711ZM64.7412 3.42291H65.645V5.17837H64.2904C63.0857 5.17837 62.6796 5.71968 62.6796 6.5969V11.322H60.7825V3.40773H62.589V4.87079C62.9503 3.86102 63.6729 3.42291 64.7422 3.42291H64.7412ZM57.5902 11.498C58.4179 11.498 58.9448 11.0154 58.9448 10.1958C58.9448 9.3763 58.4179 8.89367 57.5902 8.89367C56.7624 8.89367 56.2355 9.3763 56.2355 10.1958C56.2355 11.0154 56.7624 11.498 57.5902 11.498Z" fill="white" style="fill:white;fill-opacity:1;"/>
</g>
<defs>
<clipPath id="clip0_641_2467">
<rect width="74" height="14" fill="white" style="fill:white;fill-opacity:1;"/>
</clipPath>
</defs>
</svg>
