<svg width="388" height="84" viewBox="0 0 388 84" fill="none" xmlns="http://www.w3.org/2000/svg">
<path d="M131.649 44.4326H145.178V38.2421H131.649V32.9406H154.762V26.7016H123.567V57.1853H155.053V50.7201H131.649V44.4326Z" fill="white" style="fill:white;fill-opacity:1;"/>
<path d="M381.822 31.9869L370.201 46.6307L358.596 31.9869H353.084V57.1853H360.083V42.6384L369.279 54.2274H371.009L380.206 42.6384V57.1853H387.188V31.9869H381.822Z" fill="white" style="fill:white;fill-opacity:1;"/>
<path d="M320.436 48.8127V31.9869H313.453V57.1853H318.916L338.845 40.3594V57.1853H345.844V31.9869H340.365L320.436 48.8127Z" fill="white" style="fill:white;fill-opacity:1;"/>
<path d="M305.355 26.7016H295.867L287.187 36.3995L278.088 26.7016H267.42L282.177 41.5879L267.662 57.1853H277.36L287.058 46.0974L297.467 57.1853H308.426L292.02 40.7636L305.355 26.7016Z" fill="white" style="fill:white;fill-opacity:1;"/>
<path d="M187.687 44.2548C188.177 44.0294 188.63 43.7295 189.029 43.3658C189.474 42.9571 189.825 42.456 190.056 41.8977C190.288 41.3393 190.395 40.7372 190.37 40.1332V37.2561C190.422 36.538 190.319 35.8171 190.068 35.1423C189.817 34.4675 189.424 33.8544 188.915 33.3446C187.514 32.3253 185.793 31.8434 184.066 31.9869H161.891V57.1853H182.903C184.799 57.2926 186.688 56.8611 188.35 55.9408C189.051 55.5252 189.626 54.9265 190.014 54.209C190.401 53.4915 190.586 52.6821 190.548 51.8676V48.7966C190.567 47.4547 190.056 46.1593 189.126 45.1923C188.694 44.8124 188.209 44.4967 187.687 44.2548ZM168.825 37.1592H181.303C182.709 37.1592 182.919 37.3854 182.919 37.3854C183.033 37.5031 183.121 37.6425 183.18 37.7952C183.238 37.948 183.265 38.111 183.258 38.2744V40.5534C183.258 41.006 183.258 41.1838 183.016 41.3454C182.471 41.6166 181.859 41.7233 181.254 41.6525H168.825V37.1592ZM183.485 50.2028C183.508 50.4195 183.486 50.6386 183.423 50.8469C183.359 51.0552 183.253 51.2485 183.113 51.4151C182.628 51.7097 182.06 51.8348 181.497 51.7707H168.825V46.8247H181.351C182.547 46.8247 182.967 47.0349 183.113 47.1965C183.251 47.3611 183.355 47.5517 183.419 47.757C183.483 47.9624 183.505 48.1785 183.485 48.3926V50.2028Z" fill="white" style="fill:white;fill-opacity:1;"/>
<path d="M219.06 31.9869H196.819V57.1853H203.802V47.9076H219.06C220.699 48.0394 222.334 47.6121 223.699 46.6954C224.264 46.1943 224.705 45.5681 224.986 44.8665C225.266 44.1649 225.379 43.4075 225.315 42.6546V37.2561C225.283 34.7993 224.588 31.9869 219.06 31.9869ZM218.64 41.1191C218.64 41.7009 218.64 41.9111 218.3 42.1212C217.881 42.3688 217.396 42.4817 216.91 42.4444H203.802V37.45H216.555C217.165 37.3751 217.783 37.4998 218.316 37.8056C218.442 37.9345 218.536 38.0903 218.592 38.2612C218.648 38.432 218.664 38.6135 218.64 38.7916V41.1191Z" fill="white" style="fill:white;fill-opacity:1;"/>
<path d="M261.941 33.4092C260.454 31.9869 257.673 31.9869 256.477 31.9869H237.663C235.852 31.7744 234.027 32.2409 232.54 33.2961C231.401 34.6919 230.861 36.4815 231.037 38.2743V50.9462C230.889 52.6759 231.377 54.4001 232.41 55.7952C233.364 56.765 235.158 57.2337 237.89 57.2337H256.477C258.433 57.2337 260.647 57.1206 261.957 55.7305C262.938 54.4465 263.421 52.8499 263.314 51.2372V38.3067C263.5 36.5585 263.008 34.8058 261.941 33.4092ZM256.332 51.4958H238.035V37.7894H256.332V51.4958Z" fill="white" style="fill:white;fill-opacity:1;"/>
<path d="M16.0342 41.9758L50.3324 84V53.0799C47.6493 52.5717 45.2404 51.1102 43.5504 48.9651C41.8604 46.82 41.0033 44.136 41.1372 41.4084C41.2711 38.6808 42.387 36.0937 44.279 34.1245C46.171 32.1552 48.7115 30.9367 51.4315 30.6939C54.2408 30.964 56.8477 32.2742 58.7406 34.3675C60.6335 36.4608 61.6758 39.1859 61.6628 42.0081H84.6307L50.3486 0.0161743V30.7262C47.3479 30.7262 44.47 31.9182 42.3482 34.0401C40.2264 36.1619 39.0344 39.0397 39.0344 42.0404L16.0342 41.9758Z" fill="white" style="fill:white;fill-opacity:1;"/>
<path d="M62.5839 0L62.2122 0.452569L96.4942 41.9757H84.6305L56.2803 76.6781L62.2122 83.9353L100.681 41.9757L62.5839 0Z" fill="white" style="fill:white;fill-opacity:1;"/>
<path d="M44.4002 7.27343L38.4683 0L0 41.9757L38.1612 83.9353L38.4845 83.5312L4.1701 41.9757H16.0339L44.4002 7.27343Z" fill="white" style="fill:white;fill-opacity:1;"/>
</svg>
