<svg width="458" height="162" viewBox="0 0 458 162" fill="none" xmlns="http://www.w3.org/2000/svg">
<path d="M1 117.23H456.934V160.926H1V117.23Z" fill="#FAFAFA" stroke="#C4C4C4"/>
<path d="M1.62939 1.07593H456.935V44.7713H1.62939V1.07593Z" fill="#FAFAFA" stroke="#C4C4C4"/>
<path d="M1 1.07483H45.5693V161H1V1.07483Z" fill="#FAFAFA" stroke="#C4C4C4"/>
<rect x="412.365" y="1" width="44.5693" height="159.925" fill="#FAFAFA" stroke="#C4C4C4"/>
<path d="M1 117.23H456.934V160.926H1V117.23Z" stroke="#C4C4C4"/>
<path d="M1 1.07483H456.934V44.7702H1V1.07483Z" stroke="#C4C4C4"/>
<path d="M23.3297 44.4135C19.4426 44.472 15.6064 43.5173 12.1936 41.6418C8.93339 39.8758 6.23702 37.2153 4.41707 33.9683C2.5497 30.6475 1.59037 26.887 1.63652 23.0708C1.55448 20.2328 2.06064 17.4088 3.12295 14.7788C4.18504 12.1489 5.78 9.77107 7.8057 7.79697C9.85533 5.78515 12.2863 4.2097 14.9534 3.16456C17.6205 2.11941 20.4692 1.62598 23.3297 1.71367C26.1788 1.62669 29.0164 2.11784 31.6733 3.15791C34.3303 4.19796 36.7524 5.76566 38.7958 7.7678C40.8215 9.7419 42.4165 12.1198 43.4786 14.7496C44.5407 17.3796 45.047 20.2036 44.9648 23.0416C45.0391 25.877 44.5266 28.6967 43.4593 31.3215C42.3923 33.9461 40.7941 36.3182 38.7667 38.2864C36.7344 40.3002 34.3199 41.8806 31.6675 42.9332C29.0152 43.9861 26.1795 44.4895 23.3297 44.4135ZM23.3297 34.2017C24.7516 34.2544 26.1686 34.0049 27.4884 33.4696C28.8081 32.9342 30.0014 32.1248 30.9904 31.0944C31.9891 30.0308 32.7674 28.7772 33.2796 27.4072C33.7917 26.0371 34.0278 24.5776 33.9735 23.1147C34.0265 21.654 33.79 20.1971 33.2779 18.8295C32.7657 17.462 31.988 16.2108 30.9904 15.1495C28.9205 13.154 26.1658 12.04 23.3006 12.04C20.4357 12.04 17.681 13.154 15.6111 15.1495C14.6135 16.2108 13.8358 17.462 13.3236 18.8295C12.8113 20.1971 12.575 21.654 12.628 23.1147C12.6149 24.6478 12.8799 26.1704 13.41 27.6077C13.8832 28.9304 14.634 30.1344 15.6111 31.1382C16.5777 32.1042 17.7244 32.8677 18.9854 33.3849C20.3669 33.9392 21.8426 34.2168 23.3297 34.2017Z" fill="#EEEEEE"/>
<path d="M74.704 61.2117V70.3336H64.4013V101.348H53.3401V70.3336H46.1978V61.2117H53.4033V57.3113C53.2663 53.9309 54.4694 50.6323 56.7533 48.1266C58.0299 46.9275 59.5435 46.0061 61.1976 45.4213C62.8517 44.8364 64.6101 44.6008 66.3607 44.7295H74.6408V53.411H68.3201C67.7146 53.3163 67.0953 53.3643 66.5119 53.5511C65.9284 53.7379 65.3971 54.0584 64.9607 54.4866C64.5243 54.9149 64.1948 55.4391 63.9989 56.0171C63.8029 56.595 63.7459 57.2107 63.8324 57.8146V61.2117H74.704Z" fill="#22272C"/>
<path d="M99.7331 102.543C95.7678 102.582 91.856 101.63 88.3559 99.7746C85.0655 97.9569 82.3343 95.282 80.4551 92.0368C78.6156 88.6623 77.7001 84.8656 77.8004 81.0277C77.7284 78.1636 78.2528 75.3157 79.3406 72.6631C80.4284 70.0106 82.056 67.6108 84.1211 65.6149C86.2127 63.5695 88.693 61.9596 91.417 60.8794C94.1411 59.7993 97.0542 59.2705 99.9859 59.324C102.908 59.2754 105.81 59.8066 108.523 60.8868C111.236 61.9669 113.706 63.5742 115.788 65.6149C117.853 67.6108 119.48 70.0106 120.568 72.6631C121.656 75.3157 122.18 78.1636 122.108 81.0277C122.191 83.8838 121.671 86.7254 120.582 89.3693C119.494 92.0132 117.86 94.4006 115.788 96.3775C113.683 98.4506 111.17 100.068 108.407 101.129C105.645 102.19 102.692 102.671 99.7331 102.543ZM99.7331 92.2255C101.188 92.2746 102.637 92.0201 103.986 91.4783C105.336 90.9366 106.557 90.1197 107.571 89.0801C108.588 88.0051 109.379 86.7396 109.9 85.3572C110.421 83.9748 110.661 82.5031 110.605 81.0277C110.657 79.5527 110.416 78.082 109.895 76.7001C109.375 75.3181 108.585 74.0523 107.571 72.9753C106.549 71.9502 105.326 71.147 103.977 70.6164C102.628 70.0859 101.183 69.8394 99.7331 69.8928C98.2731 69.8306 96.8162 70.0727 95.4556 70.6035C94.0951 71.1344 92.8609 71.9422 91.8323 72.9753C90.8184 74.0523 90.0284 75.3181 89.5077 76.7001C88.987 78.082 88.7459 79.5527 88.7984 81.0277C88.8025 82.5739 89.0807 84.1072 89.6201 85.5572C90.0901 86.8967 90.8446 88.1197 91.8323 89.143C92.8476 90.0963 94.0246 90.863 95.3087 91.4077C96.7225 91.9415 98.221 92.2185 99.7331 92.2255Z" fill="#22272C"/>
<path d="M150.741 60.4566H154.344V70.8366H149.604C148.385 70.7253 147.157 70.8633 145.994 71.2419C144.831 71.6206 143.758 72.2319 142.841 73.0384C141.376 75.1286 140.724 77.6774 141.008 80.21V101.348H129.757V60.6453H136.899L138.859 65.6151C140.293 63.8874 142.117 62.5201 144.181 61.6239C146.246 60.7277 148.493 60.3278 150.741 60.4566Z" fill="#22272C"/>
<path d="M199.474 80.9022C199.537 81.9708 199.537 83.0421 199.474 84.1106H168.503C168.833 86.5233 169.995 88.747 171.79 90.4015C173.688 91.9072 176.064 92.6881 178.49 92.6034C180.279 92.6512 182.048 92.2165 183.609 91.3452C185.09 90.5712 186.318 89.3927 187.149 87.9481H198.842C197.411 92.2547 194.645 95.9988 190.941 98.6426C187.251 101.246 182.823 102.612 178.3 102.543C175.472 102.598 172.663 102.067 170.051 100.984C167.44 99.9008 165.083 98.2895 163.13 96.2521C161.091 94.25 159.48 91.858 158.394 89.2201C157.308 86.5822 156.769 83.7528 156.81 80.9022C156.812 78.5546 157.175 76.2211 157.884 73.9822C158.503 71.8393 159.487 69.8179 160.792 68.0058C162.186 66.3287 163.802 64.8474 165.596 63.6022C167.36 62.3097 169.324 61.3111 171.411 60.6455C173.638 59.9388 175.962 59.5781 178.3 59.576C182.184 59.5093 186.012 60.5106 189.361 62.4698C192.514 64.1994 195.119 66.7703 196.883 69.8931C198.653 73.2914 199.543 77.0752 199.474 80.9022ZM178.3 68.8866C176.023 68.8158 173.792 69.5266 171.979 70.8997C170.253 72.3669 169.054 74.3548 168.566 76.5615H188.413C187.961 75.0448 187.209 73.6332 186.201 72.4095C185.258 71.3368 184.094 70.4786 182.788 69.8931C181.375 69.2619 179.849 68.9197 178.3 68.8866Z" fill="#22272C"/>
<path d="M221.912 102.543C218.82 102.621 215.751 101.997 212.937 100.718C210.377 99.6686 208.18 97.8976 206.616 95.6228C205.158 93.3535 204.41 90.704 204.467 88.0108H215.213C215.237 89.086 215.566 90.1325 216.161 91.0304C216.767 91.8572 217.601 92.491 218.563 92.8548C219.679 93.2457 220.856 93.4374 222.039 93.4209C223.026 93.4427 224.01 93.2937 224.946 92.9806C225.77 92.7103 226.51 92.2337 227.095 91.5966C227.623 90.9585 227.914 90.1585 227.917 89.3318C227.915 88.7263 227.725 88.1361 227.375 87.641C227.025 87.146 226.53 86.77 225.958 86.5638C224.055 85.7837 222.057 85.255 220.016 84.9911L215.908 84.2362C214.566 83.9095 213.254 83.4674 211.989 82.9151C210.695 82.3814 209.499 81.6374 208.449 80.7133C207.463 79.7847 206.669 78.6735 206.111 77.442C205.458 75.8889 205.135 74.2183 205.163 72.5351C205.118 70.7251 205.507 68.9306 206.299 67.3004C207.09 65.6702 208.261 64.2514 209.714 63.1616C213.143 60.5903 217.371 59.2989 221.66 59.5129C225.949 59.2998 230.17 60.6408 233.543 63.2874C235.018 64.4558 236.199 65.952 236.989 67.6563C237.78 69.3605 238.158 71.2254 238.093 73.1013H227.791C227.791 69.8929 225.705 68.2573 221.47 68.2573C220.041 68.1746 218.624 68.5494 217.425 69.3267C216.964 69.6546 216.591 70.0897 216.337 70.5941C216.084 71.0984 215.958 71.6568 215.971 72.2205C215.962 72.7177 216.117 73.2041 216.414 73.6045C216.643 74.0112 216.969 74.3566 217.362 74.6111C217.937 74.9415 218.553 75.1953 219.195 75.366L221.217 75.8064L223.745 76.3096L225.768 76.6871L227.791 77.1275C228.543 77.2535 229.283 77.4429 230.003 77.6936L231.962 78.3856C232.631 78.6223 233.267 78.9392 233.859 79.3293L235.439 80.5246C236.031 80.9133 236.527 81.4292 236.892 82.0344C237.301 82.6114 237.661 83.2217 237.967 83.8587C238.363 84.5585 238.62 85.3273 238.725 86.1235C238.793 87.0239 238.793 87.9281 238.725 88.8286C238.787 90.7503 238.39 92.6593 237.566 94.3983C236.742 96.1372 235.514 97.6566 233.985 98.8311C230.487 101.37 226.239 102.676 221.912 102.543Z" fill="#22272C"/>
<path d="M247.195 55.2353V44.7295H258.256V55.2353H247.195ZM247.195 101.348V60.6455H258.256V101.348H247.195Z" fill="#22272C"/>
<path d="M301.931 60.6474H309.136V96.6944C309.244 100.498 308.374 104.266 306.608 107.641C304.953 110.674 302.45 113.165 299.403 114.812C295.928 116.519 292.089 117.36 288.215 117.266C283.275 117.445 278.406 116.057 274.31 113.302C270.679 110.676 268.211 106.753 267.42 102.356H278.418C279.096 104.105 280.402 105.54 282.084 106.382C283.935 107.352 285.998 107.849 288.089 107.829C290.752 107.913 293.348 106.992 295.357 105.25C296.333 104.372 297.105 103.291 297.618 102.085C298.131 100.879 298.374 99.5761 298.328 98.2671V96.7573C294.837 99.1997 290.648 100.457 286.382 100.343C282.774 100.381 279.22 99.4697 276.079 97.7009C272.996 95.9521 270.441 93.4098 268.684 90.3405C266.908 87.169 265.993 83.5914 266.03 79.9605C265.978 77.2788 266.472 74.6144 267.482 72.1278C268.493 69.6412 269.998 67.3837 271.908 65.4914C275.604 61.7991 280.585 59.6617 285.82 59.5212C291.055 59.3807 296.144 61.2478 300.035 64.7365L301.931 60.6474ZM287.836 90.5293C289.227 90.5857 290.615 90.3518 291.911 89.8426C293.206 89.3334 294.38 88.5601 295.357 87.5725C296.338 86.5653 297.106 85.3729 297.616 84.0656C298.126 82.7582 298.369 81.3624 298.328 79.9605C298.393 77.1805 297.347 74.4884 295.421 72.4743C294.434 71.4819 293.249 70.706 291.943 70.1968C290.636 69.6876 289.237 69.4562 287.836 69.5176C286.464 69.4672 285.097 69.7044 283.823 70.2137C282.549 70.7231 281.396 71.4933 280.441 72.4743C279.455 73.4516 278.682 74.6209 278.171 75.909C277.66 77.1971 277.421 78.5764 277.47 79.9605C277.418 81.3585 277.648 82.7526 278.147 84.0602C278.647 85.3678 279.405 86.5623 280.377 87.5725C281.343 88.5585 282.506 89.3312 283.791 89.8406C285.076 90.35 286.454 90.5847 287.836 90.5293Z" fill="#22272C"/>
<path d="M343.269 59.7027C345.331 59.5947 347.391 59.9516 349.295 60.7468C351.2 61.542 352.899 62.7549 354.267 64.295C357.164 67.8298 358.609 72.3249 358.312 76.8769V101.349H347.188V78.4496C347.359 76.042 346.762 73.642 345.481 71.5925C344.828 70.804 343.992 70.1857 343.044 69.7911C342.097 69.3965 341.068 69.2375 340.045 69.3278C338.782 69.2775 337.523 69.5116 336.363 70.0127C335.203 70.5137 334.171 71.2688 333.345 72.2216C331.506 74.3756 330.537 77.1338 330.627 79.9594V101.349H319.756V45.9255H330.627V64.4209C332.306 62.8261 334.291 61.5859 336.463 60.775C338.636 59.9642 340.951 59.5994 343.269 59.7027Z" fill="#22272C"/>
<path d="M388.146 91.7238L393.139 91.598V101.349H385.302C382.611 101.413 379.944 100.83 377.527 99.6504C375.374 98.5132 373.613 96.7603 372.471 94.6176C371.28 92.1917 370.695 89.5159 370.764 86.8169V69.5169H363.306V67.1263L379.55 50.015H381.572V60.6467H392.886V69.5169H381.825V85.4329C381.724 86.2834 381.817 87.1458 382.099 87.9551C382.381 88.7644 382.843 89.4995 383.452 90.1051C384.06 90.7108 384.799 91.1711 385.612 91.4515C386.425 91.7319 387.291 91.825 388.146 91.7238Z" fill="#22272C"/>
<path d="M412.245 90.1744H401.004V101.419H412.245V90.1744Z" fill="#FF4178"/>
</svg>
