<?xml version="1.0" encoding="UTF-8"?>
<svg xmlns="http://www.w3.org/2000/svg" version="1.1" viewBox="0 0 458 162">
  <defs>
    <style>
      .cls-1 {
        fill: #ff4178;
      }

      .cls-2 {
        fill: #22272c;
      }
    </style>
  </defs>
  <!-- Generator: Adobe Illustrator 28.7.5, SVG Export Plug-In . SVG Version: 1.2.0 Build 176)  -->
  <g>
    <g id="Layer_1">
      <path class="cls-2" d="M74.7,61.2v9.1h-10.3v31h-11.1v-31h-7.1v-9.1h7.2v-3.9c-.1-3.4,1.1-6.7,3.3-9.2,1.3-1.2,2.8-2.1,4.4-2.7,1.7-.6,3.4-.8,5.2-.7h8.3v8.7h-6.3c-.6,0-1.2,0-1.8.1-.6.2-1.1.5-1.6.9-.4.4-.8,1-1,1.5-.2.6-.3,1.2-.2,1.8v3.4h10.9Z"/>
      <path class="cls-2" d="M99.7,102.5c-4,0-7.9-.9-11.4-2.8-3.3-1.8-6-4.5-7.9-7.7-1.8-3.4-2.8-7.2-2.7-11,0-2.9.5-5.7,1.5-8.4,1.1-2.7,2.7-5.1,4.8-7,2.1-2,4.6-3.7,7.3-4.7,2.7-1.1,5.6-1.6,8.6-1.6,2.9,0,5.8.5,8.5,1.6,2.7,1.1,5.2,2.7,7.3,4.7,2.1,2,3.7,4.4,4.8,7,1.1,2.7,1.6,5.5,1.5,8.4,0,2.9-.4,5.7-1.5,8.3-1.1,2.6-2.7,5-4.8,7-2.1,2.1-4.6,3.7-7.4,4.8-2.8,1.1-5.7,1.5-8.7,1.4ZM99.7,92.2c1.5,0,2.9-.2,4.3-.7,1.3-.5,2.6-1.4,3.6-2.4,1-1.1,1.8-2.3,2.3-3.7.5-1.4.8-2.9.7-4.3,0-1.5-.2-2.9-.7-4.3-.5-1.4-1.3-2.6-2.3-3.7-1-1-2.2-1.8-3.6-2.4-1.3-.5-2.8-.8-4.2-.7-1.5,0-2.9.2-4.3.7-1.4.5-2.6,1.3-3.6,2.4-1,1.1-1.8,2.3-2.3,3.7-.5,1.4-.8,2.9-.7,4.3,0,1.5.3,3.1.8,4.5.5,1.3,1.2,2.6,2.2,3.6,1,1,2.2,1.7,3.5,2.3,1.4.5,2.9.8,4.4.8Z"/>
      <path class="cls-2" d="M150.7,60.5h3.6v10.4h-4.7c-1.2-.1-2.4,0-3.6.4-1.2.4-2.2,1-3.2,1.8-1.5,2.1-2.1,4.6-1.8,7.2v21.1h-11.3v-40.7h7.1l2,5c1.4-1.7,3.3-3.1,5.3-4,2.1-.9,4.3-1.3,6.6-1.2Z"/>
      <path class="cls-2" d="M199.5,80.9c0,1.1,0,2.1,0,3.2h-31c.3,2.4,1.5,4.6,3.3,6.3,1.9,1.5,4.3,2.3,6.7,2.2,1.8,0,3.6-.4,5.1-1.3,1.5-.8,2.7-2,3.5-3.4h11.7c-1.4,4.3-4.2,8.1-7.9,10.7-3.7,2.6-8.1,4-12.6,3.9-2.8,0-5.6-.5-8.2-1.6-2.6-1.1-5-2.7-6.9-4.7-2-2-3.7-4.4-4.7-7s-1.6-5.5-1.6-8.3c0-2.3.4-4.7,1.1-6.9.6-2.1,1.6-4.2,2.9-6,1.4-1.7,3-3.2,4.8-4.4,1.8-1.3,3.7-2.3,5.8-3,2.2-.7,4.6-1.1,6.9-1.1,3.9,0,7.7.9,11.1,2.9,3.2,1.7,5.8,4.3,7.5,7.4,1.8,3.4,2.7,7.2,2.6,11ZM178.3,68.9c-2.3,0-4.5.6-6.3,2-1.7,1.5-2.9,3.5-3.4,5.7h19.8c-.5-1.5-1.2-2.9-2.2-4.2-.9-1.1-2.1-1.9-3.4-2.5-1.4-.6-2.9-1-4.5-1Z"/>
      <path class="cls-2" d="M221.9,102.5c-3.1,0-6.2-.5-9-1.8-2.6-1-4.8-2.8-6.3-5.1-1.5-2.3-2.2-4.9-2.1-7.6h10.7c0,1.1.4,2.1.9,3,.6.8,1.4,1.5,2.4,1.8,1.1.4,2.3.6,3.5.6,1,0,2-.1,2.9-.4.8-.3,1.6-.7,2.1-1.4.5-.6.8-1.4.8-2.3,0-.6-.2-1.2-.5-1.7-.4-.5-.8-.9-1.4-1.1-1.9-.8-3.9-1.3-5.9-1.6l-4.1-.8c-1.3-.3-2.7-.8-3.9-1.3-1.3-.5-2.5-1.3-3.5-2.2-1-.9-1.8-2-2.3-3.3-.7-1.6-1-3.2-.9-4.9,0-1.8.3-3.6,1.1-5.2.8-1.6,2-3,3.4-4.1,3.4-2.6,7.7-3.9,11.9-3.6,4.3-.2,8.5,1.1,11.9,3.8,1.5,1.2,2.7,2.7,3.4,4.4.8,1.7,1.2,3.6,1.1,5.4h-10.3c0-3.2-2.1-4.8-6.3-4.8-1.4,0-2.8.3-4,1.1-.5.3-.8.8-1.1,1.3-.3.5-.4,1.1-.4,1.6,0,.5.1,1,.4,1.4.2.4.6.8.9,1,.6.3,1.2.6,1.8.8l2,.4,2.5.5,2,.4,2,.4c.8.1,1.5.3,2.2.6l2,.7c.7.2,1.3.6,1.9.9l1.6,1.2c.6.4,1.1.9,1.5,1.5.4.6.8,1.2,1.1,1.8.4.7.7,1.5.8,2.3,0,.9,0,1.8,0,2.7,0,1.9-.3,3.8-1.2,5.6-.8,1.7-2.1,3.3-3.6,4.4-3.5,2.5-7.7,3.8-12.1,3.7Z"/>
      <path class="cls-2" d="M247.2,55.2v-10.5h11.1v10.5h-11.1ZM247.2,101.3v-40.7h11.1v40.7h-11.1Z"/>
      <path class="cls-2" d="M301.9,60.6h7.2v36c.1,3.8-.8,7.6-2.5,10.9-1.7,3-4.2,5.5-7.2,7.2-3.5,1.7-7.3,2.5-11.2,2.5-4.9.2-9.8-1.2-13.9-4-3.6-2.6-6.1-6.5-6.9-10.9h11c.7,1.7,2,3.2,3.7,4,1.9,1,3.9,1.5,6,1.4,2.7,0,5.3-.8,7.3-2.6,1-.9,1.7-2,2.3-3.2s.8-2.5.7-3.8v-1.5c-3.5,2.4-7.7,3.7-11.9,3.6-3.6,0-7.2-.9-10.3-2.6-3.1-1.7-5.6-4.3-7.4-7.4-1.8-3.2-2.7-6.7-2.7-10.4,0-2.7.4-5.3,1.5-7.8,1-2.5,2.5-4.7,4.4-6.6,3.7-3.7,8.7-5.8,13.9-6,5.2-.1,10.3,1.7,14.2,5.2l1.9-4.1ZM287.8,90.5c1.4,0,2.8-.2,4.1-.7,1.3-.5,2.5-1.3,3.4-2.3,1-1,1.7-2.2,2.3-3.5.5-1.3.8-2.7.7-4.1,0-2.8-1-5.5-2.9-7.5-1-1-2.2-1.8-3.5-2.3-1.3-.5-2.7-.7-4.1-.7-1.4,0-2.7.2-4,.7-1.3.5-2.4,1.3-3.4,2.3-1,1-1.8,2.1-2.3,3.4-.5,1.3-.8,2.7-.7,4.1,0,1.4.2,2.8.7,4.1.5,1.3,1.3,2.5,2.2,3.5,1,1,2.1,1.8,3.4,2.3,1.3.5,2.7.7,4,.7Z"/>
      <path class="cls-2" d="M343.3,59.7c2.1-.1,4.1.2,6,1,1.9.8,3.6,2,5,3.5,2.9,3.5,4.3,8,4,12.6v24.5h-11.1v-22.9c.2-2.4-.4-4.8-1.7-6.9-.7-.8-1.5-1.4-2.4-1.8-.9-.4-2-.6-3-.5-1.3,0-2.5.2-3.7.7-1.2.5-2.2,1.3-3,2.2-1.8,2.2-2.8,4.9-2.7,7.7v21.4h-10.9v-55.4h10.9v18.5c1.7-1.6,3.7-2.8,5.8-3.6,2.2-.8,4.5-1.2,6.8-1.1Z"/>
      <path class="cls-2" d="M388.1,91.7h5c0-.1,0,9.6,0,9.6h-7.8c-2.7,0-5.4-.5-7.8-1.7-2.2-1.1-3.9-2.9-5.1-5-1.2-2.4-1.8-5.1-1.7-7.8v-17.3h-7.5v-2.4l16.2-17.1h2v10.6h11.3v8.9h-11.1v15.9c-.1.9,0,1.7.3,2.5.3.8.7,1.5,1.4,2.2.6.6,1.3,1.1,2.2,1.3s1.7.4,2.5.3Z"/>
      <path class="cls-1" d="M412.2,90.2h-11.2v11.2h11.2v-11.2Z"/>
    </g>
  </g>
</svg>