<svg width="68" height="14" viewBox="0 0 68 14" fill="none" xmlns="http://www.w3.org/2000/svg">
<path d="M5.42621 3.3333V5.01848H3.51881V10.7592H1.46325V5.01848H0.148438V3.3333H1.48177V2.61107C1.46325 1.98144 1.68547 1.37033 2.09288 0.90737C2.33362 0.685148 2.6114 0.518482 2.9077 0.40737C3.22251 0.296259 3.53733 0.259222 3.87066 0.277741H5.4077V1.88885H4.24103C4.12992 1.88885 4.01881 1.88885 3.9077 1.90737C3.79659 1.94441 3.70399 1.99996 3.6114 2.07404C3.53733 2.14811 3.46325 2.25922 3.42622 2.35181C3.38918 2.46293 3.37066 2.57404 3.38918 2.68515V3.31478H5.4077L5.42621 3.3333Z" fill="#FDFDFD" style="fill:#FDFDFD;fill:color(display-p3 0.9922 0.9922 0.9922);fill-opacity:1;"/>
<path d="M10.0558 10.9814C9.31507 10.9814 8.59285 10.8148 7.9447 10.4629C7.33359 10.1296 6.83359 9.62959 6.48174 9.037C6.1484 8.40737 5.96322 7.70367 5.98174 6.99996C5.98174 6.46293 6.07433 5.94441 6.25951 5.44441C6.46322 4.94441 6.75951 4.49996 7.1484 4.14811C7.53729 3.77774 8.00026 3.46293 8.50026 3.27774C9.00026 3.07404 9.53729 2.98145 10.0928 2.98145C10.6299 2.98145 11.1669 3.07404 11.6669 3.27774C12.1669 3.48145 12.6299 3.77774 13.0188 4.14811C13.4077 4.51848 13.704 4.96293 13.9077 5.44441C14.1114 5.94441 14.204 6.46293 14.1854 6.99996C14.1854 7.537 14.1114 8.05552 13.9077 8.537C13.704 9.01848 13.4077 9.46293 13.0188 9.8333C12.6299 10.2222 12.1669 10.5185 11.6484 10.7222C11.1299 10.9259 10.5928 11 10.0373 10.9814H10.0558ZM10.0558 9.07404C10.3336 9.07404 10.5928 9.037 10.8521 8.94441C11.0928 8.85182 11.3336 8.68515 11.5188 8.49996C11.704 8.29626 11.8521 8.07404 11.9447 7.81478C12.0373 7.55552 12.0928 7.27774 12.0743 7.01848C12.0743 6.7407 12.0373 6.48145 11.9447 6.22219C11.8521 5.96293 11.704 5.7407 11.5188 5.537C11.3336 5.35182 11.1114 5.20367 10.8521 5.09256C10.6114 4.99996 10.3336 4.94441 10.0743 4.96293C9.79655 4.96293 9.53729 4.99996 9.27803 5.09256C9.01877 5.18515 8.79655 5.3333 8.61137 5.537C8.42618 5.7407 8.27803 5.96293 8.18544 6.22219C8.09285 6.48145 8.03729 6.75922 8.05581 7.01848C8.05581 7.29626 8.11137 7.59256 8.20396 7.85182C8.29655 8.09256 8.42618 8.3333 8.61137 8.51848C8.79655 8.70367 9.01877 8.8333 9.25952 8.94441C9.51877 9.037 9.79655 9.09256 10.0743 9.09256L10.0558 9.07404Z" fill="#FDFDFD" style="fill:#FDFDFD;fill:color(display-p3 0.9922 0.9922 0.9922);fill-opacity:1;"/>
<path d="M19.5002 3.20371H20.1669V5.12963H19.2965C19.0743 5.11111 18.8521 5.12963 18.6298 5.20371C18.4076 5.27778 18.2224 5.38889 18.0373 5.53704C17.7595 5.92593 17.6484 6.38889 17.7039 6.87037V10.7778H15.6113V3.24074H16.9261L17.2965 4.16667C17.5558 3.85185 17.9076 3.59259 18.278 3.42593C18.6669 3.25926 19.0743 3.18519 19.5002 3.20371Z" fill="#FDFDFD" style="fill:#FDFDFD;fill:color(display-p3 0.9922 0.9922 0.9922);fill-opacity:1;"/>
<path d="M28.5373 6.98152C28.5373 7.18522 28.5373 7.37041 28.5373 7.57411H22.7966C22.8521 8.01855 23.0744 8.42596 23.4077 8.74078C23.7596 9.01855 24.204 9.1667 24.6484 9.14818C24.9818 9.14818 25.3151 9.07411 25.5929 8.90744C25.8707 8.7593 26.0929 8.53707 26.241 8.27781H28.4077C28.1484 9.07411 27.6299 9.77781 26.9447 10.2593C26.2595 10.7408 25.4447 11 24.6114 10.9815C24.0929 10.9815 23.5744 10.8889 23.0929 10.6852C22.6114 10.4815 22.167 10.1852 21.8151 9.81485C21.4447 9.44448 21.1299 9.00004 20.9447 8.51855C20.7595 8.03707 20.6484 7.50004 20.6484 6.98152C20.6484 6.55559 20.7225 6.11115 20.8521 5.70374C20.9633 5.31485 21.1484 4.92596 21.3892 4.59263C21.6484 4.27781 21.9447 4.00004 22.2781 3.77781C22.6114 3.53707 22.9633 3.35189 23.3521 3.22226C23.7595 3.09263 24.204 3.01855 24.6299 3.01855C25.3521 3.01855 26.0558 3.18522 26.6855 3.55559C27.2781 3.87041 27.7595 4.35189 28.0744 4.92596C28.4077 5.55559 28.5744 6.2593 28.5558 6.963L28.5373 6.98152ZM24.6114 4.7593C24.1855 4.7593 23.7781 4.87041 23.4447 5.12967C23.1299 5.40744 22.9077 5.77781 22.8151 6.18522H26.4818C26.3892 5.90744 26.2595 5.64818 26.0744 5.40744C25.9077 5.20374 25.6855 5.05559 25.4447 4.94448C25.1855 4.83337 24.9077 4.7593 24.6114 4.7593Z" fill="#FDFDFD" style="fill:#FDFDFD;fill:color(display-p3 0.9922 0.9922 0.9922);fill-opacity:1;"/>
<path d="M32.6859 10.9816C32.1118 10.9816 31.5377 10.889 31.0192 10.6482C30.5377 10.463 30.1303 10.1297 29.8525 9.70379C29.5748 9.27786 29.4451 8.79638 29.4637 8.29638H31.4451C31.4451 8.50008 31.5192 8.68527 31.6118 8.85193C31.7229 9.00008 31.8711 9.12971 32.0562 9.18527C32.2599 9.25934 32.4822 9.29638 32.7044 9.29638C32.8896 9.29638 33.0748 9.27786 33.2414 9.2223C33.3896 9.16675 33.5377 9.09267 33.6303 8.96305C33.7229 8.85193 33.7785 8.70379 33.7785 8.53712C33.7785 8.42601 33.7414 8.3149 33.6859 8.2223C33.6118 8.12971 33.5377 8.05564 33.4266 8.0186C33.0748 7.87045 32.7044 7.77786 32.334 7.7223L31.5748 7.57416C31.334 7.5186 31.0748 7.42601 30.8525 7.33342C30.6118 7.24082 30.3896 7.09267 30.2044 6.92601C30.0192 6.75934 29.8711 6.55564 29.7785 6.3149C29.6488 6.0186 29.5933 5.72231 29.6118 5.40749C29.6118 5.07416 29.6674 4.74082 29.8155 4.44453C29.9636 4.14823 30.1859 3.88897 30.4451 3.68527C31.0748 3.20379 31.8711 2.96305 32.6488 3.0186C33.4451 2.98156 34.2229 3.2223 34.8525 3.7223C35.1303 3.94453 35.3525 4.2223 35.4822 4.53712C35.6303 4.85193 35.7044 5.20379 35.6859 5.53712H33.7785C33.7785 4.94453 33.3896 4.64823 32.6118 4.64823C32.3525 4.64823 32.0933 4.70379 31.8711 4.85193C31.7785 4.90749 31.7229 5.00008 31.6674 5.09267C31.6118 5.18527 31.5933 5.29638 31.5933 5.38897C31.5933 5.48156 31.6118 5.57416 31.6674 5.64823C31.7044 5.7223 31.7785 5.79638 31.834 5.83342C31.9451 5.88897 32.0562 5.94453 32.1674 5.98156L32.5377 6.05564L33.0007 6.14823L33.3711 6.22231L33.7414 6.29638C33.8896 6.3149 34.0192 6.35193 34.1488 6.40749L34.5192 6.53712C34.6488 6.57416 34.7599 6.64823 34.8711 6.70379L35.1674 6.92601C35.2785 7.00008 35.3711 7.09267 35.4451 7.20379C35.5192 7.3149 35.5933 7.42601 35.6488 7.53712C35.7229 7.66675 35.7785 7.8149 35.797 7.96305C35.797 8.12971 35.797 8.29638 35.797 8.46305C35.797 8.8149 35.7414 9.16675 35.5748 9.50008C35.4266 9.8149 35.1859 10.1112 34.9081 10.3149C34.2599 10.7779 33.4822 11.0186 32.6674 11.0001L32.6859 10.9816Z" fill="#FDFDFD" style="fill:#FDFDFD;fill:color(display-p3 0.9922 0.9922 0.9922);fill-opacity:1;"/>
<path d="M37.3711 2.22228V0.277832H39.4266V2.22228H37.3711ZM37.3711 10.7593V3.22228H39.4266V10.7593H37.3711Z" fill="#FDFDFD" style="fill:#FDFDFD;fill:color(display-p3 0.9922 0.9922 0.9922);fill-opacity:1;"/>
<path d="M47.5007 3.22222H48.8341V9.88889C48.8526 10.5926 48.6859 11.2963 48.3711 11.9074C48.0563 12.463 47.5933 12.9259 47.0378 13.2407C46.3896 13.5556 45.6859 13.7037 44.9637 13.7037C44.0563 13.7407 43.1489 13.4815 42.3896 12.963C41.7229 12.4815 41.26 11.7593 41.1118 10.9444H43.1489C43.2785 11.2593 43.5192 11.537 43.8341 11.6852C44.1859 11.8704 44.5563 11.963 44.9452 11.9444C45.4452 11.9444 45.9266 11.7963 46.297 11.463C46.4822 11.2963 46.6118 11.0926 46.7229 10.8704C46.8341 10.6481 46.8711 10.4074 46.8526 10.1667V9.88889C46.2044 10.3333 45.4266 10.5741 44.6489 10.5556C43.9822 10.5556 43.3155 10.3889 42.7415 10.0741C42.1674 9.75926 41.7044 9.27778 41.3711 8.7037C41.0378 8.11111 40.8711 7.46296 40.8711 6.77778C40.8711 6.27778 40.9452 5.7963 41.1489 5.33333C41.3341 4.87037 41.6118 4.46296 41.9637 4.11111C42.6489 3.42593 43.5748 3.03704 44.5378 3C45.5007 2.98148 46.4452 3.31481 47.1674 3.96296L47.5192 3.2037L47.5007 3.22222ZM44.8896 8.75926C45.1489 8.75926 45.4081 8.72222 45.6489 8.62963C45.8896 8.53704 46.1118 8.38889 46.2785 8.2037C46.4637 8.01852 46.5933 7.7963 46.7044 7.55555C46.797 7.31481 46.8526 7.05555 46.8341 6.7963C46.8341 6.27778 46.6489 5.77778 46.297 5.40741C46.1118 5.22222 45.8896 5.07407 45.6489 4.98148C45.4081 4.88889 45.1489 4.85185 44.8896 4.85185C44.6303 4.85185 44.3896 4.88889 44.1489 4.98148C43.9081 5.07407 43.7044 5.22222 43.5192 5.40741C43.3341 5.59259 43.1859 5.7963 43.0933 6.03704C43.0007 6.27778 42.9452 6.53704 42.9637 6.7963C42.9637 7.05555 43.0007 7.31481 43.0933 7.55555C43.1859 7.7963 43.3341 8.01852 43.5007 8.2037C43.6859 8.38889 43.8896 8.53704 44.1304 8.62963C44.3711 8.72222 44.6304 8.75926 44.8711 8.75926H44.8896Z" fill="#FDFDFD" style="fill:#FDFDFD;fill:color(display-p3 0.9922 0.9922 0.9922);fill-opacity:1;"/>
<path d="M55.1673 3.05552C55.5562 3.037 55.9265 3.09256 56.2784 3.24071C56.6302 3.38885 56.9451 3.61107 57.2043 3.88885C57.7414 4.537 58.0006 5.37034 57.9451 6.22219V10.7592H55.8895V6.51848C55.9265 6.07404 55.8154 5.62959 55.5747 5.24071C55.4451 5.09256 55.2969 4.98145 55.1302 4.90737C54.9636 4.8333 54.7599 4.79626 54.5747 4.81478C54.334 4.81478 54.1117 4.85182 53.8895 4.94441C53.6673 5.037 53.4821 5.18515 53.3339 5.35182C53.0006 5.75922 52.8154 6.25922 52.834 6.77774V10.7407H50.8154V0.481445H52.834V3.90737C53.1488 3.61108 53.5191 3.38885 53.908 3.24071C54.3154 3.09256 54.7414 3.01848 55.1673 3.037V3.05552Z" fill="#FDFDFD" style="fill:#FDFDFD;fill:color(display-p3 0.9922 0.9922 0.9922);fill-opacity:1;"/>
<path d="M63.4636 8.9815H64.3896C64.3896 8.96298 64.3896 10.7593 64.3896 10.7593H62.9451C62.4451 10.7593 61.9451 10.6667 61.5007 10.4445C61.0933 10.2408 60.7785 9.90743 60.5562 9.51854C60.334 9.07409 60.2229 8.57409 60.2414 8.07409V4.87039H58.8525V4.42594L61.8525 1.25928H62.2229V3.22224H64.3155V4.87039H62.2599V7.81483C62.2414 7.9815 62.2599 8.12965 62.3155 8.2778C62.3711 8.42594 62.4451 8.55557 62.5748 8.6852C62.6859 8.79631 62.8155 8.88891 62.9822 8.92594C63.1488 8.96298 63.297 9.00002 63.4451 8.9815H63.4636Z" fill="#FDFDFD" style="fill:#FDFDFD;fill:color(display-p3 0.9922 0.9922 0.9922);fill-opacity:1;"/>
<path d="M67.9266 8.70361H65.8525V10.7777H67.9266V8.70361Z" fill="#FDFDFD" style="fill:#FDFDFD;fill:color(display-p3 0.9922 0.9922 0.9922);fill-opacity:1;"/>
</svg>
