<svg width="243" height="79" viewBox="0 0 243 79" fill="none" xmlns="http://www.w3.org/2000/svg">
<path d="M124.991 43.3942H122.368L109.187 18.5236H99.0488V60.4729H108.173V38.5398H111.155L120.101 56.399H127.257L136.203 38.5398H139.185V60.4729H148.31V18.5236H138.172L124.991 43.3942Z" fill="white" style="fill:white;fill-opacity:1;"/>
<path fill-rule="evenodd" clip-rule="evenodd" d="M228.909 34.4046H212.566V27.5134H240.208V18.5236H203.045V60.4729H228.909C238.126 60.4729 243 55.2602 243 47.4094C243 39.5584 237.533 34.4046 228.909 34.4046ZM228.138 51.7799H212.566V43.0949H228.147C231.712 43.0949 233.376 44.2924 233.376 47.4094C233.376 50.5261 231.705 51.7853 228.138 51.7853V51.7799Z" fill="white" style="fill:white;fill-opacity:1;"/>
<path d="M187.236 18.5236H198.974L179.858 38.818L199.458 60.4729H187.295L172.242 43.6937H166.946V60.4729H157.312V18.5236H166.946V34.7041H172.242L187.236 18.5236Z" fill="white" style="fill:white;fill-opacity:1;"/>
<path fill-rule="evenodd" clip-rule="evenodd" d="M0 39.3472C0 17.6164 17.8028 0 39.5313 0C61.2599 0 79.0627 17.6164 79.0627 39.3472C79.0627 61.0781 61.2599 78.6945 39.5313 78.6945C17.8028 78.6945 0 61.0781 0 39.3472ZM30.3905 39.3475L44.2255 26.0686L67.3252 26.1088L59.0488 34.921H47.6843L30.3905 52.6264L11.1201 32.9539L18.0376 26.0686H30.6304L23.967 32.9539L30.3905 39.3475ZM67.9428 37.3801H48.6726L33.3552 52.6261H45.708L52.6254 45.7408H59.0488L67.9428 37.3801Z" fill="white" style="fill:white;fill-opacity:1;"/>
</svg>
