<svg width="230" height="124" viewBox="0 0 230 124" fill="none" xmlns="http://www.w3.org/2000/svg">
<path d="M115 110.142C54.6155 110.142 14.2306 90.3925 14.2306 61.1482C14.2306 31.9032 54.6155 12.1532 115 12.1532C175.386 12.1532 215.769 31.9032 215.769 61.1482C215.769 90.3925 175.386 110.142 115 110.142ZM115 11.0148C53.8461 11.0148 13.075 31.1434 13.075 61.1482C13.075 91.1532 53.8461 111.283 115 111.283C176.154 111.283 216.925 91.1532 216.925 61.1482C216.925 31.1434 176.154 11.0148 115 11.0148ZM115 116.598C49.9986 116.598 6.53749 94.1918 6.53749 61.1482C6.53749 27.7262 49.9986 5.69757 115 5.69757C180.384 5.69757 223.462 27.7262 223.462 61.1482C223.462 94.1918 180.384 116.598 115 116.598ZM115 0C45.7688 0 0 24.6869 0 61.1482C0 97.2285 45.7688 122.296 115 122.296C184.616 122.296 230 97.2285 230 61.1482C230 24.6869 184.616 0 115 0Z" fill="#F2F3F4" style="fill:#F2F3F4;fill:color(display-p3 0.9490 0.9529 0.9569);fill-opacity:1;"/>
<path d="M54.4051 43.6769V56.7802H42.9046V43.6769H30.9629V78.6187H42.9046V65.5154H54.4051V78.6187H66.3476V43.6769H54.4051Z" fill="#F2F3F4" style="fill:#F2F3F4;fill:color(display-p3 0.9490 0.9529 0.9569);fill-opacity:1;"/>
<path d="M199.04 43.6769H186.783L179.122 56.7802H175.598V43.6769H163.655V78.6187H175.643L175.598 65.5154H179.122L186.783 78.6187H199.04L188.826 61.1483L199.04 43.6769Z" fill="#F2F3F4" style="fill:#F2F3F4;fill:color(display-p3 0.9490 0.9529 0.9569);fill-opacity:1;"/>
<path d="M145.965 43.6769L135.792 61.077L125.619 43.6769H114.562V78.6187H125.619V62.0217L133.281 75.1259H138.303L145.965 62.0217V78.6187H157.023V43.6769H145.965Z" fill="#F2F3F4" style="fill:#F2F3F4;fill:color(display-p3 0.9490 0.9529 0.9569);fill-opacity:1;"/>
<path d="M77.2399 43.6769L76.6219 61.1447C76.4481 66.056 75.4379 69.8834 72.0817 69.8834H70.7666V78.6186H75.4388C83.8015 78.646 86.8891 71.1804 87.2308 61.511L87.5535 52.4016L95.9786 52.4121V78.6186H107.92V43.6769H77.2399Z" fill="#F2F3F4" style="fill:#F2F3F4;fill:color(display-p3 0.9490 0.9529 0.9569);fill-opacity:1;"/>
</svg>
