<svg width="327" height="86" viewBox="0 0 327 86" fill="none" xmlns="http://www.w3.org/2000/svg">
<path d="M42.6305 2.59003C41.4914 4.04004 38.7299 7.42337 36.4516 10.1507C32.7927 14.5353 32.1368 15.1567 30.2383 16.0543C27.3733 17.4007 24.4047 18.1258 19.572 18.6091C16.2237 18.9198 15.4989 19.0924 15.3263 19.6103C15.0501 20.5424 15.3263 20.7841 17.5009 21.2674C20.8492 21.9924 26.6138 24.0293 29.0647 25.3067C31.55 26.6186 36.5552 30.6234 39.7999 33.9722L41.8365 36.0091L40.3522 37.2519C37.9014 39.3579 33.2069 40.7734 27.2697 41.2222L23.8869 41.4638L24.9569 38.5293C25.5438 36.9067 26.821 33.5234 27.822 30.9686C28.823 28.4138 29.4444 26.5496 29.2027 26.8258C28.9611 27.1019 27.4078 29.0008 25.7164 31.1067C18.9507 39.496 17.2593 41.2567 15.1537 42.3615C12.4267 43.7424 8.18091 44.7091 3.86608 44.9853C0.517779 45.1924 0.310667 45.2269 0.138074 46.021C0 46.4698 -0.0345186 46.8841 0.0345186 46.9186C0.103556 46.9877 2.0366 47.54 4.31483 48.1269C12.7374 50.44 15.7405 52.0972 22.4026 58.2079C26.4758 61.9365 26.4758 61.9365 27.1661 61.2805C27.8565 60.59 27.8565 60.5555 26.3377 57.5865C24.163 53.2365 23.0584 49.5769 22.9894 46.4008C22.9894 44.9508 23.0584 43.6734 23.162 43.5353C23.6798 43.0174 33.0688 45.9174 36.5897 47.6781C39.5583 49.1627 42.2163 51.1996 46.5311 55.3424C50.0865 58.7258 50.0865 58.7258 50.7423 58.0353C51.3982 57.3448 51.3982 57.2758 49.5687 53.6508C47.4286 49.4043 46.2549 45.3996 46.2549 42.396C46.2549 40.1519 47.256 37.0103 51.2256 26.9984C52.2612 24.3746 53.0206 22.3377 52.917 22.4412C52.7789 22.5448 50.6733 25.1686 48.188 28.2412C45.7026 31.3138 43.528 33.8341 43.3208 33.8341C42.8376 33.7996 40.4903 29.2769 39.4893 26.4115C39.0405 25.0996 38.4537 22.8555 38.2466 21.44C37.8669 18.9888 37.9014 18.8162 39.006 15.5019C39.6274 13.6377 41.2152 9.39123 42.4924 6.07694C43.8041 2.76265 44.8051 0.0352745 44.7706 0.000747681C44.7361 -0.0337753 43.7696 1.14003 42.6305 2.59003Z" fill="white" style="fill:white;fill-opacity:1;"/>
<path d="M116.327 18.5401C104.556 19.3341 92.2677 24.8234 83.4655 33.2817C79.0471 37.5627 76.3892 41.1531 73.8348 46.2972C71.1769 51.6829 70.0723 55.9639 70.0723 60.7627C70.0723 65.0091 70.7281 67.8746 72.4886 71.4996C75.7333 78.2317 82.499 82.996 91.6464 84.9984C95.8577 85.896 104.315 85.827 109.354 84.8258C126.855 81.4079 141.595 69.9805 147.774 55.1353C149.5 50.9924 150.259 46.6424 150.052 42.1543C149.776 36.527 148.188 32.2805 144.874 28.2758C138.971 21.0948 129.03 17.7115 116.327 18.5401ZM118.847 34.8698C123.714 35.802 127.304 38.4948 128.823 42.2924C129.962 45.1234 129.893 49.8877 128.719 53.2365C125.613 61.8674 116.224 68.9448 107.111 69.5317C99.8273 69.9805 93.614 66.6662 91.6464 61.2805C90.7489 58.8293 90.7144 54.3412 91.6119 51.6484C93.9591 44.6055 100.311 38.2531 107.559 35.7674C111.564 34.3865 114.877 34.1103 118.847 34.8698Z" fill="white" style="fill:white;fill-opacity:1;"/>
<path d="M177.046 32.9019C170.315 40.6353 163.308 48.7138 161.409 50.8888C157.647 55.2388 157.578 55.1008 162.583 53.4781C172.559 50.2329 183.778 42.4996 191.82 33.2817C195.859 28.69 202.28 19.9555 202.28 19.1269C202.28 18.9888 199.345 18.8507 195.79 18.8507H189.266L177.046 32.9019Z" fill="white" style="fill:white;fill-opacity:1;"/>
<path d="M205.87 22.0269C203.66 26.3769 200.795 33.6615 199.553 37.9424C197.551 44.7781 197.067 47.9543 196.86 54.8246C196.55 64.802 197.516 69.6353 201.693 79.3365L204.144 85.1365H215.466C221.679 85.1365 226.788 85.102 226.788 85.0329C226.753 84.9984 223.06 70.1186 218.538 51.9936L210.288 19.0234L208.873 18.9198L207.492 18.8162L205.87 22.0269Z" fill="white" style="fill:white;fill-opacity:1;"/>
<path d="M248.328 20.8186C247.982 21.9234 243.668 36.8031 238.697 53.8924L229.688 84.9639L242.425 85.0674C249.467 85.102 255.266 85.0674 255.335 84.9984C255.438 84.9293 257.302 78.715 259.546 71.1889C261.755 63.6972 263.654 57.4829 263.757 57.3793C263.826 57.2758 267.727 63.49 272.352 71.1543L280.81 85.1365H295.791C307.7 85.1365 310.668 85.0329 310.392 84.6877C308.908 82.8234 285.884 53.0639 285.711 52.7877C285.573 52.5805 294.237 45.296 306.008 35.7674C317.296 26.6186 326.547 19.0579 326.547 18.9889C326.547 18.9198 320.817 18.8508 313.844 18.8508H301.141L283.744 34.0067C274.147 42.3615 266.277 49.1281 266.208 49.0936C266.105 48.99 273.63 22.1651 274.424 19.7829L274.734 18.8508H261.824H248.914L248.328 20.8186Z" fill="white" style="fill:white;fill-opacity:1;"/>
<path d="M161.375 59.7615C158.13 60.3829 154.955 61.2115 152.78 62.04C151.054 62.6615 150.502 63.2829 141.596 73.9162L132.207 85.1365H145.221H158.269L161.893 80.3031L165.517 75.5043L179.394 75.4698H193.305L192.442 73.4674C190.302 68.6341 186.539 64.4567 182.294 62.2127C177.979 59.9686 175.839 59.5198 169.487 59.3817C165.725 59.3127 162.963 59.4508 161.375 59.7615Z" fill="white" style="fill:white;fill-opacity:1;"/>
</svg>
