<svg width="280" height="89" viewBox="0 0 280 89" fill="none" xmlns="http://www.w3.org/2000/svg">
<g clip-path="url(#clip0_313_16261)">
<path d="M10.3186 14.1437C11.8965 14.1292 13.4635 14.4083 14.9412 14.967C16.3162 15.4824 17.577 16.2664 18.6514 17.2742C19.7114 18.2832 20.5489 19.506 21.1094 20.8634C21.7194 22.3406 22.0239 23.9282 22.004 25.5284C22.0179 27.0927 21.7236 28.6441 21.1381 30.0925C20.5965 31.4422 19.7839 32.6641 18.7516 33.6816C17.697 34.6946 16.4543 35.4874 15.0951 36.0141C13.5877 36.5884 11.9868 36.8714 10.3758 36.8483H5.74607V50.9483H0V14.1437H10.3186ZM5.74607 20.4012V30.6052H11.2309C11.8904 30.6221 12.5466 30.506 13.161 30.2634C13.7754 30.021 14.3356 29.6572 14.8088 29.1934C15.2904 28.7086 15.6665 28.1279 15.9129 27.488C16.1593 26.8484 16.2708 26.1637 16.24 25.4779C16.2572 24.8127 16.1426 24.1505 15.903 23.5306C15.6634 22.9105 15.3036 22.345 14.8446 21.8671C14.3734 21.3807 13.8066 20.9993 13.1805 20.7475C12.5544 20.4957 11.883 20.3789 11.2095 20.4048L5.74607 20.4012Z" fill="white" style="fill:white;fill-opacity:1;"/>
<path d="M36.4273 45.8767C38.0307 45.8825 39.6167 45.5414 41.0785 44.8765C42.3474 44.364 43.4726 43.5459 44.356 42.4934L45.9803 46.8517C45.598 47.5242 45.1154 48.1331 44.549 48.6571C43.8958 49.2694 43.1614 49.787 42.3667 50.1951C41.4713 50.6568 40.525 51.0096 39.5472 51.246C38.4575 51.5094 37.3403 51.6392 36.2198 51.6322C34.3826 51.6488 32.5579 51.3269 30.8352 50.6827C29.2264 50.0843 27.7565 49.1589 26.5166 47.9638C25.2679 46.7513 24.2918 45.2822 23.6543 43.6561C22.9565 41.8516 22.6115 39.9278 22.6382 37.9908C22.6273 36.2085 22.929 34.4386 23.5291 32.7625C24.1063 31.1545 24.9845 29.6737 26.116 28.4007C27.2484 27.1252 28.6331 26.1032 30.1804 25.4001C31.8712 24.6534 33.7019 24.2838 35.5471 24.3169C37.2462 24.2926 38.9299 24.645 40.4792 25.3494C42.0286 26.0538 43.4056 27.093 44.5133 28.3934C45.6009 29.6756 46.4375 31.1545 46.9786 32.7516C47.5603 34.4161 47.8579 36.1681 47.8587 37.933C47.8637 38.6196 47.8136 39.3056 47.7084 39.9839H28.2984C28.5703 42.0036 29.435 43.4912 30.8923 44.4469C32.3498 45.4026 34.1947 45.8791 36.4273 45.8767ZM42.0697 34.9577C41.9954 34.2481 41.768 33.5635 41.4033 32.9521C41.0385 32.3408 40.5455 31.8174 39.9587 31.4192C38.6718 30.515 37.1328 30.0481 35.5651 30.0868C34.7172 30.0811 33.8731 30.2028 33.0606 30.448C32.3122 30.6726 31.6019 31.0098 30.9532 31.448C30.3404 31.8603 29.8071 32.3815 29.3789 32.9863C28.9582 33.5743 28.6713 34.2486 28.5381 34.9614L42.0697 34.9577Z" fill="white" style="fill:white;fill-opacity:1;"/>
<path d="M57.6703 24.9678V34.6049H70.0677V24.9678H75.6026V50.9653H70.0677V40.5519H57.6703V50.9618H52.1318V24.9642L57.6703 24.9678Z" fill="white" style="fill:white;fill-opacity:1;"/>
<path d="M93.6322 45.877C95.2354 45.8828 96.8216 45.5417 98.2834 44.8768C99.5512 44.3643 100.675 43.5462 101.557 42.4937L103.185 46.852C102.803 47.5245 102.32 48.1334 101.754 48.6574C101.101 49.2697 100.366 49.7873 99.5714 50.1955C98.676 50.6571 97.7297 51.0099 96.752 51.2463C95.6624 51.5097 94.5452 51.6395 93.4245 51.6326C91.5862 51.6487 89.7604 51.3269 88.0364 50.683C86.4277 50.0823 84.9582 49.1559 83.7179 47.9604C82.4689 46.7481 81.4928 45.2791 80.8556 43.6528C80.1577 41.8482 79.8126 39.9244 79.8393 37.9876C79.8285 36.2053 80.1302 34.4352 80.7303 32.7591C81.3 31.1535 82.1711 29.6738 83.2956 28.401C84.4283 27.1255 85.8127 26.1035 87.3602 25.4004C89.0565 24.6512 90.8935 24.2816 92.7447 24.3172C94.4438 24.2929 96.1276 24.6453 97.6768 25.3497C99.2262 26.0541 100.603 27.0933 101.711 28.3937C102.797 29.6767 103.634 31.1554 104.176 32.7519C104.76 34.4159 105.06 36.1679 105.063 37.9334C105.068 38.62 105.018 39.3059 104.913 39.9842H85.5068C85.7787 42.0039 86.6433 43.4915 88.1008 44.4472C89.5581 45.4029 91.4019 45.8794 93.6322 45.877ZM99.2708 34.958C99.198 34.2484 98.9714 33.5636 98.6073 32.9521C98.2431 32.3406 97.7503 31.8174 97.1634 31.4195C95.8764 30.5156 94.3375 30.0489 92.7698 30.0871C91.9219 30.0815 91.0778 30.2031 90.2654 30.4481C89.5171 30.6729 88.8066 31.0101 88.1579 31.4483C87.5453 31.8606 87.0119 32.3819 86.5838 32.9866C86.1631 33.5746 85.876 34.2489 85.743 34.9617L99.2708 34.958Z" fill="white" style="fill:white;fill-opacity:1;"/>
<path d="M131.739 47.0678C131.362 47.7262 130.878 48.3157 130.307 48.8118C129.659 49.3885 128.937 49.8743 128.161 50.2561C127.268 50.6901 126.331 51.0253 125.366 51.2563C124.277 51.5199 123.159 51.6495 122.039 51.6427C120.289 51.6506 118.554 51.3106 116.933 50.6425C115.349 49.9902 113.901 49.0421 112.665 47.8477C111.409 46.6228 110.407 45.1586 109.717 43.54C108.978 41.7724 108.612 39.8688 108.643 37.9506C108.612 36.0324 108.978 34.1288 109.717 32.3611C110.398 30.7599 111.386 29.3105 112.624 28.0964C113.863 26.8824 115.328 25.9278 116.933 25.2875C118.557 24.6344 120.291 24.3033 122.039 24.3127C124.114 24.2606 126.171 24.7179 128.032 25.6451C129.728 26.5333 130.896 27.5756 131.538 28.7719L130.014 33.3865C129.194 32.464 128.191 31.7259 127.069 31.2201C125.754 30.5814 124.311 30.2565 122.851 30.2704C120.242 30.2704 118.15 30.9709 116.576 32.3719C115.001 33.7729 114.213 35.6277 114.211 37.9362C114.211 40.2615 114.998 42.1331 116.572 43.5508C118.146 44.9686 120.238 45.6776 122.848 45.6776C124.347 45.708 125.83 45.3645 127.166 44.6774C128.275 44.1223 129.274 43.3673 130.114 42.4496L131.739 47.0678Z" fill="white" style="fill:white;fill-opacity:1;"/>
<path d="M157.141 47.0678C156.764 47.7262 156.281 48.3157 155.71 48.8118C155.062 49.3885 154.34 49.8743 153.563 50.2561C152.67 50.6901 151.733 51.0253 150.769 51.2563C149.679 51.5199 148.562 51.6495 147.441 51.6427C145.691 51.6506 143.956 51.3106 142.336 50.6425C140.751 49.9902 139.303 49.0421 138.067 47.8477C136.812 46.6228 135.81 45.1586 135.119 43.54C134.38 41.7724 134.015 39.8688 134.046 37.9506C134.015 36.0324 134.38 34.1288 135.119 32.3611C135.8 30.7599 136.788 29.3105 138.027 28.0964C139.265 26.8824 140.73 25.9278 142.336 25.2875C143.96 24.6344 145.693 24.3033 147.441 24.3127C149.516 24.2606 151.573 24.7179 153.434 25.6451C155.13 26.5333 156.299 27.5756 156.941 28.7719L155.416 33.3865C154.596 32.464 153.593 31.7259 152.472 31.2201C151.157 30.5814 149.713 30.2565 148.254 30.2704C145.644 30.2704 143.552 30.9709 141.978 32.3719C140.404 33.7729 139.615 35.6277 139.613 37.9362C139.613 40.2615 140.4 42.1331 141.974 43.5508C143.549 44.9686 145.641 45.6776 148.25 45.6776C149.749 45.708 151.232 45.3645 152.568 44.6774C153.677 44.1223 154.677 43.3673 155.517 42.4496L157.141 47.0678Z" fill="white" style="fill:white;fill-opacity:1;"/>
<path d="M185.994 50.9671H180.677V48.2482C180.269 49.211 179.355 50.015 177.934 50.6601C176.344 51.3417 174.629 51.6741 172.904 51.6351C171.177 51.6407 169.467 51.3008 167.873 50.6349C166.303 49.9829 164.874 49.0343 163.657 47.8401C162.417 46.6129 161.433 45.1484 160.76 43.5325C160.031 41.7797 159.665 39.8945 159.686 37.9936C159.666 36.0939 160.031 34.21 160.76 32.4583C161.436 30.8366 162.421 29.3645 163.657 28.1253C166.119 25.6704 169.443 24.2972 172.904 24.3051C174.622 24.2692 176.33 24.6014 177.913 25.2801C179.344 25.9299 180.266 26.7497 180.682 27.7391V24.9731H186.012L185.994 50.9671ZM165.217 38.0477C165.217 40.3706 165.955 42.2242 167.428 43.6082C168.903 44.9924 170.859 45.6845 173.297 45.6845C174.87 45.7203 176.425 45.3473 177.816 44.6013C179.135 43.8791 180.015 42.9644 180.46 41.8571V34.148C180.02 33.0216 179.14 32.0912 177.816 31.357C176.429 30.6036 174.872 30.2231 173.297 30.2521C170.856 30.2521 168.901 30.961 167.428 32.3789C165.957 33.7967 165.221 35.6863 165.217 38.0477Z" fill="white" style="fill:white;fill-opacity:1;"/>
<path d="M197.533 24.9678V34.6049H209.93V24.9678H215.464V50.9653H209.93V40.5519H197.533V50.9618H191.994V24.9642L197.533 24.9678Z" fill="white" style="fill:white;fill-opacity:1;"/>
<path d="M242.853 47.0696C242.476 47.7281 241.992 48.3177 241.422 48.8137C240.773 49.3904 240.051 49.8764 239.274 50.2579C237.364 51.1822 235.272 51.6564 233.153 51.6446C231.402 51.6525 229.668 51.3127 228.047 50.6444C226.462 49.9932 225.014 49.0449 223.779 47.8496C222.523 46.6248 221.521 45.1607 220.831 43.542C220.082 41.7715 219.71 39.8626 219.736 37.9381C219.71 36.0186 220.082 34.115 220.826 32.3485C221.508 30.7474 222.497 29.298 223.735 28.084C224.973 26.8699 226.438 25.9153 228.043 25.2752C229.668 24.6219 231.402 24.2908 233.15 24.3002C235.225 24.2486 237.28 24.7057 239.141 25.6326C240.838 26.5208 242.006 27.5631 242.649 28.7594L241.124 33.374C240.303 32.4508 239.298 31.7124 238.177 31.2076C236.863 30.5684 235.42 30.2435 233.961 30.258C231.355 30.258 229.262 30.9585 227.686 32.3594C226.109 33.7604 225.323 35.62 225.324 37.9381C225.324 40.2634 226.111 42.135 227.686 43.5528C229.26 44.9707 231.352 45.6796 233.961 45.6796C235.463 45.7123 236.948 45.3699 238.287 44.683C239.396 44.1279 240.396 43.3729 241.236 42.4551L242.853 47.0696Z" fill="white" style="fill:white;fill-opacity:1;"/>
<path d="M12.1906 79.6188C12.0507 79.9188 11.8321 80.2101 11.5347 80.4926C11.2549 80.7573 10.9051 80.9955 10.4853 81.2073C10.0655 81.4192 9.58456 81.587 9.04235 81.7104C8.51765 81.8517 7.9492 81.9223 7.33703 81.9223C6.44501 81.9223 5.58799 81.7546 4.76594 81.4192C3.94389 81.0839 3.21804 80.6161 2.58838 80.0159C1.97621 79.3982 1.47773 78.6657 1.09294 77.8184C0.725641 76.9711 0.541992 76.0267 0.541992 74.9853C0.541992 73.9616 0.725641 73.026 1.09294 72.1787C1.47773 71.3138 1.97621 70.5814 2.58838 69.9812C3.21804 69.381 3.94389 68.9132 4.76594 68.5779C5.58799 68.2425 6.44501 68.0748 7.33703 68.0748C7.93172 68.0748 8.48265 68.1366 8.98989 68.2603C9.51459 68.3837 9.9781 68.5514 10.3804 68.7632C10.8001 68.975 11.15 69.2134 11.4298 69.4781C11.7271 69.7429 11.9458 70.0165 12.0857 70.2989L11.456 72.2052C11.0887 71.7816 10.5728 71.4198 9.90813 71.1198C9.24349 70.802 8.53513 70.643 7.78304 70.643C6.31383 70.643 5.13324 71.0403 4.24122 71.8345C3.3667 72.6112 2.92944 73.6614 2.92944 74.9853C2.92944 75.6384 3.04313 76.2386 3.27051 76.7857C3.51537 77.3153 3.84768 77.7742 4.26746 78.1626C4.68723 78.5333 5.19445 78.8244 5.78913 79.0362C6.3838 79.2481 7.04844 79.354 7.78304 79.354C8.5876 79.354 9.3222 79.1951 9.98684 78.8775C10.6515 78.542 11.1674 78.1626 11.5347 77.7389L12.1906 79.6188Z" fill="white" style="fill:white;fill-opacity:1;"/>
<path d="M24.9424 70.9608H20.5874V81.6045H18.1999V70.9608H13.8447V68.3926H24.9424V70.9608Z" fill="white" style="fill:white;fill-opacity:1;"/>
<path d="M40.0066 72.2052C40.374 73.0525 40.5577 73.988 40.5577 75.0118C40.5577 76.0356 40.374 76.9711 40.0066 77.8184C39.6393 78.6657 39.1496 79.3982 38.5375 80.0159C37.9253 80.6161 37.2082 81.0839 36.3862 81.4192C35.5816 81.7546 34.7333 81.9223 33.8412 81.9223C32.8442 81.9223 31.9872 81.7546 31.2701 81.4192C30.5531 81.0839 30.0896 80.669 29.8796 80.1748V87.2441H27.4922V68.3926H29.801V69.7959C30.0109 69.3016 30.4743 68.8956 31.1914 68.5779C31.9261 68.2425 32.7918 68.0748 33.7888 68.0748C34.6982 68.0748 35.5641 68.2425 36.3862 68.5779C37.2082 68.9132 37.9253 69.3899 38.5375 70.0077C39.1496 70.6078 39.6393 71.3403 40.0066 72.2052ZM38.1702 74.9589C38.1702 73.6351 37.7679 72.5847 36.9633 71.8081C36.1588 71.0314 35.0918 70.643 33.7626 70.643C32.853 70.643 32.0309 70.8549 31.2965 71.2785C30.5793 71.6845 30.107 72.2052 29.8796 72.8407V77.1564C30.107 77.7919 30.5793 78.3215 31.2965 78.7451C32.0309 79.151 32.853 79.354 33.7626 79.354C35.0918 79.354 36.1588 78.9569 36.9633 78.1626C37.7679 77.3682 38.1702 76.3004 38.1702 74.9589Z" fill="white" style="fill:white;fill-opacity:1;"/>
<path d="M44.9363 75.0384C44.9363 76.3622 45.3385 77.4124 46.143 78.189C46.9476 78.9657 48.0145 79.354 49.3438 79.354C50.2534 79.354 51.0667 79.151 51.7838 78.7451C52.5183 78.3215 52.9993 77.7919 53.2267 77.1564V72.8407C52.9993 72.2052 52.5183 71.6845 51.7838 71.2785C51.0667 70.8549 50.2534 70.643 49.3438 70.643C48.0145 70.643 46.9476 71.0403 46.143 71.8345C45.3385 72.6289 44.9363 73.6967 44.9363 75.0384ZM55.6141 81.6046H53.3054V80.2013C53.0954 80.6955 52.6233 81.1103 51.8887 81.4457C51.1541 81.7634 50.2883 81.9223 49.2913 81.9223C48.3819 81.9223 47.516 81.7546 46.694 81.4192C45.8894 81.0839 45.1724 80.6161 44.5427 80.0159C43.9305 79.3982 43.4408 78.6657 43.0735 77.8184C42.7236 76.9711 42.5488 76.0356 42.5488 75.0118C42.5488 73.988 42.7236 73.0525 43.0735 72.2052C43.4408 71.3403 43.9305 70.6078 44.5427 70.0077C45.1724 69.3899 45.8894 68.9132 46.694 68.5779C47.516 68.2425 48.3819 68.0748 49.2913 68.0748C50.2883 68.0748 51.1541 68.2425 51.8887 68.5779C52.6233 68.8956 53.0954 69.3016 53.3054 69.7959V68.3926H55.6141V81.6046Z" fill="white" style="fill:white;fill-opacity:1;"/>
<path d="M60.5448 81.6045H57.6064L62.5388 74.5881L58.1049 68.3926H61.0171L63.9817 72.5759L66.9725 68.3926H69.9373L65.5034 74.6146L70.4882 81.6045H67.6023L64.0341 76.6532L60.5448 81.6045Z" fill="white" style="fill:white;fill-opacity:1;"/>
<path d="M83.8662 72.2582C84.2334 73.1054 84.4171 74.0233 84.4171 75.0118C84.4171 76.0002 84.2334 76.9182 83.8662 77.7655C83.5164 78.6126 83.0354 79.3451 82.4233 79.963C81.8285 80.5808 81.129 81.0662 80.3244 81.4192C79.5374 81.7546 78.6979 81.9223 77.8057 81.9223C76.9138 81.9223 76.0655 81.7546 75.261 81.4192C74.4564 81.0662 73.748 80.5808 73.1359 79.963C72.5411 79.3451 72.069 78.6126 71.7191 77.7655C71.3693 76.9182 71.1943 76.0002 71.1943 75.0118C71.1943 74.0233 71.3693 73.1054 71.7191 72.2582C72.069 71.4109 72.5411 70.6785 73.1359 70.0607C73.748 69.4428 74.4564 68.9574 75.261 68.6045C76.0655 68.2514 76.9138 68.0748 77.8057 68.0748C78.6979 68.0748 79.5374 68.2514 80.3244 68.6045C81.129 68.9574 81.8285 69.4428 82.4233 70.0607C83.0354 70.6785 83.5164 71.4109 83.8662 72.2582ZM73.5818 75.0118C73.5818 75.6649 73.6868 76.2651 73.8966 76.8122C74.1065 77.3418 74.4038 77.8008 74.7887 78.189C75.1734 78.5597 75.6195 78.851 76.1267 79.0628C76.6339 79.257 77.1936 79.354 77.8057 79.354C78.4004 79.354 78.9515 79.257 79.4585 79.0628C79.9833 78.851 80.4381 78.5597 80.8229 78.189C81.2077 77.8008 81.505 77.3418 81.7149 76.8122C81.9248 76.2827 82.0297 75.6915 82.0297 75.0384C82.0297 74.3853 81.9248 73.7938 81.7149 73.2643C81.505 72.7171 81.2077 72.2494 80.8229 71.8611C80.4381 71.4727 79.9833 71.1727 79.4585 70.9609C78.9515 70.749 78.4004 70.643 77.8057 70.643C77.1936 70.643 76.6339 70.749 76.1267 70.9609C75.6195 71.1727 75.1734 71.4727 74.7887 71.8611C74.4038 72.2494 74.1065 72.7171 73.8966 73.2643C73.6868 73.7938 73.5818 74.3764 73.5818 75.0118Z" fill="white" style="fill:white;fill-opacity:1;"/>
<path d="M92.2778 68.3926C93.5719 68.3926 94.6214 68.7102 95.4259 69.3457C96.2481 69.9811 96.659 70.8548 96.659 71.9668C96.659 72.5141 96.5716 73.0172 96.3967 73.4761C96.2392 73.9174 95.9419 74.3145 95.5047 74.6676C96.694 75.2499 97.2888 76.2914 97.2888 77.7918C97.2888 78.3567 97.1663 78.8774 96.9214 79.354C96.694 79.8129 96.3792 80.21 95.9769 80.5454C95.5747 80.8807 95.0936 81.1455 94.534 81.3397C93.9918 81.5162 93.4059 81.6045 92.7761 81.6045H87.293V68.3926H92.2778ZM93.2484 79.0892C93.7207 79.0892 94.1054 78.9569 94.4029 78.692C94.7002 78.4096 94.8488 78.0478 94.8488 77.6065C94.8488 77.1652 94.6914 76.821 94.3765 76.5739C94.0792 76.3267 93.7032 76.2032 93.2484 76.2032H89.6804V79.0892H93.2484ZM92.7237 73.7145C93.161 73.7145 93.5195 73.5908 93.7993 73.3437C94.0792 73.079 94.2192 72.7435 94.2192 72.3375C94.2192 71.861 94.0704 71.5079 93.7731 71.2784C93.4758 71.0313 93.126 70.9079 92.7237 70.9079H89.6804V73.7145H92.7237Z" fill="white" style="fill:white;fill-opacity:1;"/>
<path d="M101.715 75.0384C101.715 76.3622 102.117 77.4124 102.921 78.189C103.726 78.9657 104.793 79.354 106.122 79.354C107.032 79.354 107.845 79.151 108.562 78.7451C109.297 78.3215 109.778 77.7919 110.005 77.1564V72.8407C109.778 72.2052 109.297 71.6845 108.562 71.2785C107.845 70.8549 107.032 70.643 106.122 70.643C104.793 70.643 103.726 71.0403 102.921 71.8345C102.117 72.6289 101.715 73.6967 101.715 75.0384ZM112.392 81.6046H110.084V80.2013C109.874 80.6955 109.402 81.1103 108.667 81.4457C107.932 81.7634 107.067 81.9223 106.07 81.9223C105.16 81.9223 104.294 81.7546 103.472 81.4192C102.668 81.0839 101.951 80.6161 101.321 80.0159C100.709 79.3982 100.219 78.6657 99.8519 77.8184C99.5019 76.9711 99.3271 76.0356 99.3271 75.0118C99.3271 73.988 99.5019 73.0525 99.8519 72.2052C100.219 71.3403 100.709 70.6078 101.321 70.0077C101.951 69.3899 102.668 68.9132 103.472 68.5779C104.294 68.2425 105.16 68.0748 106.07 68.0748C107.067 68.0748 107.932 68.2425 108.667 68.5779C109.402 68.8956 109.874 69.3016 110.084 69.7959V68.3926H112.392V81.6046Z" fill="white" style="fill:white;fill-opacity:1;"/>
<path d="M118.555 68.3926V73.5026H125.429V68.3926H127.817V81.6045H125.429V76.0709H118.555V81.6045H116.168V68.3926H118.555Z" fill="white" style="fill:white;fill-opacity:1;"/>
<path d="M133.993 68.3926V77.6329L140.972 68.3926H143.359V81.6045H140.972V72.3641L133.993 81.6045H131.605V68.3926H133.993Z" fill="white" style="fill:white;fill-opacity:1;"/>
<path d="M153.179 79.354C153.599 79.354 154.01 79.3011 154.412 79.1951C154.815 79.0893 155.191 78.9568 155.54 78.798C155.908 78.6391 156.231 78.4538 156.511 78.242C156.791 78.0302 157.027 77.8184 157.22 77.6066L157.849 79.4864C157.709 79.7864 157.491 80.0777 157.193 80.3601C156.913 80.6426 156.564 80.9073 156.144 81.1544C155.742 81.3839 155.278 81.5692 154.753 81.7104C154.229 81.8517 153.66 81.9223 153.048 81.9223C152.069 81.9223 151.159 81.7634 150.32 81.4457C149.498 81.1103 148.78 80.6513 148.168 80.069C147.574 79.4688 147.101 78.745 146.751 77.8978C146.419 77.0329 146.253 76.0709 146.253 75.0118C146.253 74.094 146.402 73.2202 146.699 72.3905C146.996 71.5434 147.425 70.802 147.985 70.1665C148.544 69.531 149.218 69.0281 150.005 68.6574C150.792 68.269 151.684 68.0748 152.681 68.0748C153.625 68.0748 154.473 68.2603 155.226 68.6308C155.978 69.0016 156.616 69.5047 157.141 70.1401C157.683 70.7578 158.094 71.4903 158.374 72.3376C158.654 73.1672 158.794 74.0498 158.794 74.9853C158.794 75.2678 158.767 75.5678 158.715 75.8855H148.693C148.815 77.0506 149.279 77.9242 150.083 78.5068C150.888 79.0715 151.92 79.354 153.179 79.354ZM156.249 73.4496C156.214 73.0613 156.1 72.6994 155.908 72.3641C155.715 72.0111 155.453 71.711 155.121 71.464C154.806 71.1991 154.438 70.9961 154.019 70.8549C153.599 70.7138 153.153 70.643 152.681 70.643C152.209 70.643 151.745 70.7138 151.29 70.8549C150.853 70.9961 150.459 71.1903 150.11 71.4374C149.777 71.6845 149.498 71.9847 149.27 72.3376C149.043 72.6731 148.903 73.0436 148.85 73.4496H156.249Z" fill="white" style="fill:white;fill-opacity:1;"/>
<path d="M263.351 42.8535L246.703 11.5833H280L263.351 42.8535Z" fill="white" style="fill:white;fill-opacity:1;"/>
</g>
<defs>
<clipPath id="clip0_313_16261">
<rect width="280" height="89" fill="white" style="fill:white;fill-opacity:1;"/>
</clipPath>
</defs>
</svg>
