<svg width="120" height="32" viewBox="0 0 120 32" fill="none" xmlns="http://www.w3.org/2000/svg">
<path d="M5.3633 1.08292C6.03052 1.07677 6.69316 1.1948 7.318 1.43111C7.89945 1.64911 8.43259 1.98072 8.88691 2.40695C9.33512 2.83367 9.68927 3.35088 9.9263 3.92493C10.1842 4.54974 10.3129 5.22116 10.3045 5.89799C10.3105 6.55956 10.186 7.21572 9.9384 7.8283C9.70937 8.39914 9.36579 8.91597 8.92928 9.34627C8.48331 9.77475 7.95783 10.11 7.38306 10.3328C6.74568 10.5757 6.06872 10.6954 5.3875 10.6856H3.42977V16.6491H1V1.08292H5.3633ZM3.42977 3.72945V8.04515H5.74909C6.02795 8.05228 6.30542 8.00314 6.56522 7.9006C6.82501 7.79807 7.06191 7.64421 7.26202 7.44804C7.46567 7.24303 7.62469 6.99738 7.72889 6.72679C7.8331 6.4562 7.88021 6.16663 7.8672 5.87661C7.87446 5.59524 7.82602 5.31523 7.7247 5.053C7.62338 4.79077 7.47122 4.55159 7.27715 4.34947C7.07792 4.14376 6.83821 3.98245 6.57347 3.87593C6.30873 3.7694 6.02481 3.72003 5.74002 3.73098L3.42977 3.72945Z" fill="#38056C"/>
<path d="M16.4034 14.5041C17.0814 14.5065 17.7521 14.3623 18.3702 14.0811C18.9067 13.8643 19.3825 13.5183 19.7561 13.0732L20.4429 14.9164C20.2813 15.2008 20.0772 15.4584 19.8378 15.68C19.5615 15.939 19.2509 16.158 18.9149 16.3306C18.5363 16.5258 18.1361 16.675 17.7227 16.775C17.2619 16.8864 16.7895 16.9413 16.3157 16.9384C15.5388 16.9453 14.7672 16.8092 14.0387 16.5367C13.3584 16.2836 12.7369 15.8922 12.2126 15.3868C11.6846 14.874 11.2718 14.2527 11.0022 13.5649C10.7072 12.8017 10.5612 11.988 10.5726 11.1688C10.568 10.4151 10.6955 9.66644 10.9493 8.95753C11.1934 8.2775 11.5647 7.6512 12.0431 7.11274C12.5221 6.57335 13.1075 6.14107 13.7618 5.84369C14.4768 5.5279 15.2509 5.37163 16.0312 5.38555C16.7497 5.37527 17.4617 5.52435 18.1168 5.82227C18.7719 6.12019 19.3542 6.55968 19.8226 7.10969C20.2825 7.65198 20.6363 8.27747 20.8651 8.95295C21.111 9.65691 21.2369 10.3979 21.2372 11.1444C21.2394 11.4348 21.2181 11.7249 21.1737 12.0118H12.966C13.081 12.866 13.4466 13.4952 14.0629 13.8994C14.6792 14.3035 15.4593 14.5051 16.4034 14.5041ZM18.7893 9.88603C18.7579 9.58588 18.6617 9.29632 18.5075 9.03774C18.3533 8.77917 18.1448 8.55787 17.8967 8.38943C17.3525 8.00697 16.7017 7.80958 16.0388 7.82592C15.6802 7.82354 15.3233 7.875 14.9797 7.97863C14.6633 8.07366 14.3629 8.21626 14.0886 8.40165C13.8295 8.57604 13.604 8.79647 13.4229 9.05221C13.2451 9.30091 13.1237 9.58612 13.0674 9.88756L18.7893 9.88603Z" fill="#38056C"/>
<path d="M25.3864 5.66082V9.73675H30.6287V5.66082H32.9692V16.6562H30.6287V12.2519H25.3864V16.6547H23.0444V5.65929L25.3864 5.66082Z" fill="#38056C"/>
<path d="M40.5933 14.5042C41.2713 14.5067 41.9419 14.3624 42.5601 14.0812C43.0962 13.8645 43.5715 13.5184 43.9444 13.0733L44.6328 14.9166C44.4712 15.201 44.267 15.4585 44.0276 15.6801C43.7514 15.9391 43.4408 16.1581 43.1047 16.3307C42.7262 16.5259 42.326 16.6751 41.9125 16.7751C41.4518 16.8865 40.9793 16.9414 40.5055 16.9385C39.7282 16.9453 38.9561 16.8092 38.227 16.5369C37.5469 16.2828 36.9254 15.891 36.4009 15.3854C35.8728 14.8726 35.4601 14.2513 35.1906 13.5635C34.8955 12.8003 34.7496 11.9866 34.7609 11.1674C34.7563 10.4137 34.8839 9.66504 35.1376 8.95613C35.3785 8.27708 35.7469 7.65125 36.2224 7.11288C36.7013 6.57348 37.2868 6.14121 37.9411 5.84382C38.6584 5.52696 39.4352 5.37066 40.2181 5.38568C40.9365 5.3754 41.6485 5.52449 42.3036 5.8224C42.9587 6.12032 43.5411 6.55981 44.0095 7.10982C44.4688 7.6525 44.8225 8.27788 45.0519 8.95308C45.2989 9.65687 45.4258 10.3979 45.4271 11.1445C45.4292 11.4349 45.408 11.725 45.3635 12.0119H37.1574C37.2724 12.8661 37.638 13.4953 38.2543 13.8995C38.8705 14.3037 39.6502 14.5053 40.5933 14.5042ZM42.9776 9.88616C42.9468 9.58603 42.8511 9.2964 42.6971 9.03777C42.5431 8.77915 42.3346 8.55786 42.0865 8.38956C41.5423 8.0073 40.8915 7.80992 40.2286 7.82605C39.8701 7.82367 39.5132 7.87514 39.1696 7.97876C38.8532 8.07379 38.5528 8.2164 38.2785 8.40178C38.0194 8.57617 37.7938 8.7966 37.6128 9.05234C37.4349 9.30104 37.3135 9.58626 37.2573 9.88769L42.9776 9.88616Z" fill="#38056C"/>
<path d="M56.7067 15.0078C56.5475 15.2863 56.3429 15.5356 56.1015 15.7454C55.8276 15.9894 55.5222 16.1948 55.1938 16.3563C54.8162 16.5398 54.42 16.6816 54.0122 16.7793C53.5514 16.8907 53.079 16.9456 52.6052 16.9427C51.865 16.946 51.1314 16.8023 50.4462 16.5197C49.7762 16.2438 49.1639 15.8428 48.6413 15.3377C48.1104 14.8196 47.6866 14.2004 47.3946 13.5158C47.0822 12.7682 46.9276 11.9631 46.9407 11.1518C46.9276 10.3405 47.0822 9.53536 47.3946 8.78776C47.6826 8.11053 48.1004 7.49752 48.6242 6.98406C49.1479 6.47061 49.7672 6.06686 50.4462 5.7961C51.1329 5.51983 51.8659 5.37983 52.6052 5.38377C53.4826 5.36175 54.3523 5.55513 55.1393 5.94728C55.8564 6.32296 56.3507 6.76379 56.622 7.26979L55.9775 9.22147C55.6307 8.83131 55.2064 8.51912 54.7323 8.30519C54.1761 8.03505 53.5658 7.89763 52.9486 7.90355C51.8452 7.90355 50.9606 8.19981 50.2949 8.79234C49.6292 9.38487 49.2959 10.1693 49.2949 11.1457C49.2949 12.1291 49.6277 12.9207 50.2934 13.5204C50.9591 14.12 51.8436 14.4199 52.9471 14.4199C53.581 14.4327 54.2083 14.2874 54.7732 13.9968C55.2422 13.7621 55.6647 13.4428 56.0198 13.0546L56.7067 15.0078Z" fill="#38056C"/>
<path d="M67.4484 15.0078C67.2892 15.2863 67.0846 15.5356 66.8433 15.7454C66.5693 15.9894 66.264 16.1948 65.9355 16.3563C65.5579 16.5398 65.1617 16.6816 64.7539 16.7793C64.2931 16.8907 63.8207 16.9456 63.3469 16.9427C62.6067 16.946 61.8731 16.8023 61.1879 16.5197C60.518 16.2438 59.9056 15.8428 59.383 15.3377C58.8521 14.8196 58.4284 14.2004 58.1364 13.5158C57.8239 12.7682 57.6693 11.9631 57.6825 11.1518C57.6693 10.3405 57.8239 9.53536 58.1364 8.78776C58.4243 8.11053 58.8422 7.49752 59.3659 6.98406C59.8897 6.47061 60.5089 6.06686 61.1879 5.7961C61.8746 5.51983 62.6077 5.37983 63.3469 5.38377C64.2244 5.36175 65.094 5.55513 65.8811 5.94728C66.5982 6.32296 67.0924 6.76379 67.3637 7.26979L66.7192 9.22147C66.3724 8.83131 65.9482 8.51912 65.4741 8.30519C64.9179 8.03505 64.3076 7.89763 63.6903 7.90355C62.5869 7.90355 61.7023 8.19981 61.0366 8.79234C60.371 9.38487 60.0376 10.1693 60.0366 11.1457C60.0366 12.1291 60.3694 12.9207 61.0351 13.5204C61.7008 14.12 62.5854 14.4199 63.6888 14.4199C64.3227 14.4327 64.95 14.2874 65.5149 13.9968C65.9839 13.7621 66.4064 13.4428 66.7616 13.0546L67.4484 15.0078Z" fill="#38056C"/>
<path d="M79.6494 16.657H77.4012V15.507C77.2287 15.9143 76.8419 16.2543 76.2408 16.5272C75.5688 16.8155 74.8436 16.956 74.1136 16.9395C73.3838 16.9419 72.6608 16.7981 71.9864 16.5165C71.3232 16.2408 70.7182 15.8396 70.2042 15.3345C69.6798 14.8154 69.2632 14.1961 68.9787 13.5126C68.6704 12.7712 68.5159 11.9739 68.5249 11.17C68.516 10.3665 68.6705 9.56971 68.9787 8.82886C69.2646 8.143 69.6809 7.52039 70.2042 6.99629C71.245 5.95798 72.6503 5.37719 74.1136 5.38058C74.8406 5.36537 75.5625 5.5059 76.2317 5.7929C76.8369 6.06779 77.2272 6.41445 77.4027 6.83289V5.6631H79.657L79.6494 16.657ZM70.8639 11.1929C70.8639 12.1753 71.1755 12.9593 71.7988 13.5447C72.4222 14.1301 73.2492 14.4228 74.28 14.4228C74.9454 14.4379 75.6034 14.2801 76.1909 13.9646C76.7486 13.6592 77.1213 13.2723 77.3089 12.804V9.54356C77.1234 9.06709 76.7507 8.6736 76.1909 8.36308C75.6042 8.04446 74.9462 7.88353 74.28 7.89578C73.2482 7.89578 72.4212 8.1956 71.7988 8.79526C71.1765 9.39492 70.8649 10.1941 70.8639 11.1929Z" fill="#38056C"/>
<path d="M84.5282 5.66082V9.73675H89.7705V5.66082H92.111V16.6562H89.7705V12.2519H84.5282V16.6547H82.1861V5.65929L84.5282 5.66082Z" fill="#38056C"/>
<path d="M103.692 15.0087C103.533 15.2871 103.328 15.5365 103.087 15.7463C102.813 15.9902 102.507 16.1957 102.179 16.3571C101.371 16.748 100.486 16.9485 99.5903 16.9435C98.8502 16.9469 98.1166 16.8032 97.4314 16.5205C96.7612 16.2451 96.1487 15.8441 95.6264 15.3385C95.0956 14.8205 94.6718 14.2012 94.3798 13.5166C94.0634 12.7678 93.9057 11.9605 93.9168 11.1465C93.9061 10.3347 94.0632 9.52954 94.3783 8.78251C94.6662 8.10527 95.0841 7.49226 95.6078 6.9788C96.1316 6.46535 96.7508 6.0616 97.4299 5.79084C98.1166 5.51457 98.8496 5.37457 99.5888 5.37851C100.466 5.35667 101.336 5.55004 102.123 5.94203C102.84 6.3177 103.334 6.75854 103.606 7.26453L102.961 9.21621C102.614 8.8257 102.189 8.51348 101.714 8.29993C101.159 8.02961 100.549 7.89217 99.9322 7.89829C98.8298 7.89829 97.9453 8.19456 97.2786 8.78709C96.6119 9.37962 96.279 10.1661 96.28 11.1465C96.28 12.13 96.6129 12.9216 97.2786 13.5212C97.9443 14.1209 98.8288 14.4207 99.9322 14.4207C100.567 14.4345 101.195 14.2897 101.761 13.9992C102.23 13.7645 102.653 13.4451 103.008 13.057L103.692 15.0087Z" fill="#38056C"/>
<path d="M6.1551 28.7749C6.09593 28.9018 6.00348 29.025 5.87775 29.1445C5.75941 29.2565 5.61149 29.3572 5.43399 29.4468C5.25649 29.5364 5.0531 29.6073 4.82382 29.6596C4.60194 29.7193 4.36157 29.7492 4.10271 29.7492C3.72552 29.7492 3.36312 29.6783 3.01551 29.5364C2.6679 29.3946 2.36096 29.1967 2.09471 28.9429C1.83585 28.6816 1.62506 28.3718 1.46235 28.0135C1.30704 27.6551 1.22938 27.2557 1.22938 26.8153C1.22938 26.3823 1.30704 25.9866 1.46235 25.6283C1.62506 25.2625 1.83585 24.9526 2.09471 24.6988C2.36096 24.445 2.6679 24.2472 3.01551 24.1053C3.36312 23.9635 3.72552 23.8925 4.10271 23.8925C4.35418 23.8925 4.58715 23.9187 4.80163 23.9709C5.02351 24.0232 5.21951 24.0941 5.38961 24.1837C5.56712 24.2733 5.71504 24.3741 5.83337 24.486C5.9591 24.598 6.05155 24.7137 6.11072 24.8332L5.84447 25.6395C5.68915 25.4603 5.47097 25.3072 5.18992 25.1803C4.90888 25.046 4.60934 24.9788 4.29131 24.9788C3.67005 24.9788 3.17082 25.1467 2.79363 25.4827C2.42383 25.8112 2.23893 26.2554 2.23893 26.8153C2.23893 27.0915 2.287 27.3453 2.38315 27.5767C2.48669 27.8007 2.62722 27.9948 2.80472 28.159C2.98222 28.3158 3.19671 28.439 3.44817 28.5286C3.69963 28.6182 3.98068 28.663 4.29131 28.663C4.63153 28.663 4.94216 28.5958 5.2232 28.4614C5.50425 28.3195 5.72243 28.159 5.87775 27.9799L6.1551 28.7749Z" fill="#38056C"/>
<path d="M11.5472 25.1131H9.7056V29.6148H8.69605V25.1131H6.85445V24.0269H11.5472V25.1131Z" fill="#38056C"/>
<path d="M17.917 25.6395C18.0723 25.9978 18.1499 26.3935 18.1499 26.8265C18.1499 27.2595 18.0723 27.6551 17.917 28.0135C17.7616 28.3718 17.5545 28.6816 17.2957 28.9429C17.0368 29.1967 16.7336 29.3946 16.386 29.5364C16.0458 29.6783 15.6871 29.7492 15.3099 29.7492C14.8883 29.7492 14.5259 29.6783 14.2227 29.5364C13.9194 29.3946 13.7234 29.2191 13.6347 29.0101V32H12.6251V24.0269H13.6014V24.6204C13.6902 24.4114 13.8861 24.2397 14.1894 24.1053C14.5 23.9635 14.8661 23.8925 15.2877 23.8925C15.6723 23.8925 16.0384 23.9635 16.386 24.1053C16.7336 24.2472 17.0368 24.4487 17.2957 24.71C17.5545 24.9638 17.7616 25.2737 17.917 25.6395ZM17.1404 26.8041C17.1404 26.2442 16.9703 25.8 16.6301 25.4715C16.2898 25.143 15.8387 24.9788 15.2766 24.9788C14.892 24.9788 14.5444 25.0683 14.2338 25.2475C13.9305 25.4192 13.7308 25.6395 13.6347 25.9082V27.7335C13.7308 28.0023 13.9305 28.2262 14.2338 28.4054C14.5444 28.5771 14.892 28.663 15.2766 28.663C15.8387 28.663 16.2898 28.495 16.6301 28.159C16.9703 27.8231 17.1404 27.3714 17.1404 26.8041Z" fill="#38056C"/>
<path d="M20.0018 26.8377C20.0018 27.3976 20.1719 27.8418 20.5122 28.1702C20.8524 28.4987 21.3035 28.663 21.8656 28.663C22.2502 28.663 22.5941 28.5771 22.8974 28.4054C23.208 28.2262 23.4114 28.0023 23.5075 27.7335V25.9082C23.4114 25.6395 23.208 25.4192 22.8974 25.2475C22.5941 25.0683 22.2502 24.9788 21.8656 24.9788C21.3035 24.9788 20.8524 25.1467 20.5122 25.4827C20.1719 25.8186 20.0018 26.2703 20.0018 26.8377ZM24.5171 29.6148H23.5408V29.0213C23.4521 29.2303 23.2524 29.4058 22.9417 29.5476C22.6311 29.682 22.265 29.7492 21.8434 29.7492C21.4588 29.7492 21.0927 29.6783 20.7451 29.5364C20.4049 29.3946 20.1017 29.1967 19.8354 28.9429C19.5766 28.6816 19.3695 28.3718 19.2142 28.0135C19.0662 27.6551 18.9923 27.2595 18.9923 26.8265C18.9923 26.3935 19.0662 25.9978 19.2142 25.6395C19.3695 25.2737 19.5766 24.9638 19.8354 24.71C20.1017 24.4487 20.4049 24.2472 20.7451 24.1053C21.0927 23.9635 21.4588 23.8925 21.8434 23.8925C22.265 23.8925 22.6311 23.9635 22.9417 24.1053C23.2524 24.2397 23.4521 24.4114 23.5408 24.6204V24.0269H24.5171V29.6148Z" fill="#38056C"/>
<path d="M26.602 29.6148H25.3594L27.4451 26.6473L25.5702 24.0269H26.8017L28.0553 25.7962L29.32 24.0269H30.5736L28.6987 26.6585L30.8066 29.6148H29.5862L28.0775 27.5207L26.602 29.6148Z" fill="#38056C"/>
<path d="M36.4635 25.6619C36.6188 26.0202 36.6964 26.4084 36.6964 26.8265C36.6964 27.2445 36.6188 27.6327 36.4635 27.9911C36.3155 28.3494 36.1121 28.6592 35.8533 28.9205C35.6018 29.1818 35.306 29.3871 34.9658 29.5364C34.633 29.6783 34.278 29.7492 33.9008 29.7492C33.5236 29.7492 33.1649 29.6783 32.8246 29.5364C32.4844 29.3871 32.1849 29.1818 31.926 28.9205C31.6746 28.6592 31.4749 28.3494 31.327 27.9911C31.179 27.6327 31.1051 27.2445 31.1051 26.8265C31.1051 26.4084 31.179 26.0202 31.327 25.6619C31.4749 25.3035 31.6746 24.9937 31.926 24.7324C32.1849 24.4711 32.4844 24.2658 32.8246 24.1165C33.1649 23.9672 33.5236 23.8925 33.9008 23.8925C34.278 23.8925 34.633 23.9672 34.9658 24.1165C35.306 24.2658 35.6018 24.4711 35.8533 24.7324C36.1121 24.9937 36.3155 25.3035 36.4635 25.6619ZM32.1146 26.8265C32.1146 27.1027 32.159 27.3565 32.2477 27.5879C32.3365 27.8119 32.4622 28.006 32.6249 28.1702C32.7877 28.327 32.9763 28.4502 33.1907 28.5398C33.4052 28.6219 33.6419 28.663 33.9008 28.663C34.1522 28.663 34.3852 28.6219 34.5997 28.5398C34.8216 28.4502 35.0138 28.327 35.1766 28.1702C35.3393 28.006 35.465 27.8119 35.5538 27.5879C35.6425 27.364 35.6869 27.1139 35.6869 26.8377C35.6869 26.5614 35.6425 26.3113 35.5538 26.0874C35.465 25.856 35.3393 25.6581 35.1766 25.4939C35.0138 25.3296 34.8216 25.2027 34.5997 25.1131C34.3852 25.0236 34.1522 24.9788 33.9008 24.9788C33.6419 24.9788 33.4052 25.0236 33.1907 25.1131C32.9763 25.2027 32.7877 25.3296 32.6249 25.4939C32.4622 25.6581 32.3365 25.856 32.2477 26.0874C32.159 26.3113 32.1146 26.5577 32.1146 26.8265Z" fill="#38056C"/>
<path d="M40.0203 24.0269C40.5676 24.0269 41.0113 24.1613 41.3516 24.4301C41.6992 24.6988 41.873 25.0684 41.873 25.5387C41.873 25.7701 41.836 25.9829 41.762 26.177C41.6955 26.3636 41.5697 26.5316 41.3848 26.6809C41.8878 26.9272 42.1392 27.3677 42.1392 28.0023C42.1392 28.2412 42.0875 28.4614 41.9839 28.663C41.8878 28.8571 41.7546 29.025 41.5845 29.1669C41.4144 29.3087 41.211 29.4207 40.9744 29.5028C40.7451 29.5775 40.4973 29.6148 40.2311 29.6148H37.9124V24.0269H40.0203ZM40.4308 28.551C40.6305 28.551 40.7932 28.495 40.9189 28.383C41.0446 28.2636 41.1075 28.1105 41.1075 27.9239C41.1075 27.7372 41.0409 27.5917 40.9078 27.4872C40.7821 27.3826 40.6231 27.3304 40.4308 27.3304H38.922V28.551H40.4308ZM40.2089 26.2778C40.3938 26.2778 40.5454 26.2255 40.6637 26.121C40.7821 26.009 40.8412 25.8672 40.8412 25.6954C40.8412 25.4939 40.7784 25.3446 40.6526 25.2475C40.5269 25.143 40.379 25.0907 40.2089 25.0907H38.922V26.2778H40.2089Z" fill="#38056C"/>
<path d="M44.0107 26.8377C44.0107 27.3976 44.1808 27.8418 44.521 28.1702C44.8613 28.4987 45.3124 28.663 45.8745 28.663C46.2591 28.663 46.603 28.5771 46.9063 28.4054C47.2169 28.2262 47.4203 28.0023 47.5164 27.7335V25.9082C47.4203 25.6395 47.2169 25.4192 46.9063 25.2475C46.603 25.0683 46.2591 24.9788 45.8745 24.9788C45.3124 24.9788 44.8613 25.1467 44.521 25.4827C44.1808 25.8186 44.0107 26.2703 44.0107 26.8377ZM48.526 29.6148H47.5497V29.0213C47.461 29.2303 47.2613 29.4058 46.9506 29.5476C46.64 29.682 46.2739 29.7492 45.8523 29.7492C45.4677 29.7492 45.1016 29.6783 44.754 29.5364C44.4138 29.3946 44.1106 29.1967 43.8443 28.9429C43.5855 28.6816 43.3784 28.3718 43.2231 28.0135C43.0751 27.6551 43.0012 27.2595 43.0012 26.8265C43.0012 26.3935 43.0751 25.9978 43.2231 25.6395C43.3784 25.2737 43.5855 24.9638 43.8443 24.71C44.1106 24.4487 44.4138 24.2472 44.754 24.1053C45.1016 23.9635 45.4677 23.8925 45.8523 23.8925C46.2739 23.8925 46.64 23.9635 46.9506 24.1053C47.2613 24.2397 47.461 24.4114 47.5497 24.6204V24.0269H48.526V29.6148Z" fill="#38056C"/>
<path d="M51.1323 24.0269V26.1882H54.0389V24.0269H55.0484V29.6148H54.0389V27.2744H51.1323V29.6148H50.1227V24.0269H51.1323Z" fill="#38056C"/>
<path d="M57.6599 24.0269V27.9351L60.6109 24.0269H61.6205V29.6148H60.6109V25.7066L57.6599 29.6148H56.6504V24.0269H57.6599Z" fill="#38056C"/>
<path d="M65.773 28.663C65.9505 28.663 66.1243 28.6406 66.2944 28.5958C66.4645 28.551 66.6235 28.495 66.7715 28.4278C66.9268 28.3606 67.0636 28.2822 67.1819 28.1926C67.3003 28.103 67.4001 28.0135 67.4815 27.9239L67.7477 28.7189C67.6886 28.8459 67.5961 28.969 67.4704 29.0885C67.3521 29.2079 67.2041 29.3199 67.0266 29.4244C66.8565 29.5215 66.6605 29.5999 66.4386 29.6596C66.2168 29.7193 65.9764 29.7492 65.7175 29.7492C65.3034 29.7492 64.9188 29.682 64.5638 29.5476C64.2162 29.4058 63.9129 29.2117 63.6541 28.9653C63.4026 28.7115 63.2029 28.4054 63.055 28.0471C62.9145 27.6812 62.8442 27.2744 62.8442 26.8265C62.8442 26.4383 62.9071 26.0687 63.0328 25.7178C63.1585 25.3595 63.3397 25.046 63.5764 24.7772C63.8131 24.5084 64.0978 24.2957 64.4306 24.1389C64.7635 23.9747 65.1407 23.8925 65.5622 23.8925C65.9616 23.8925 66.3203 23.9709 66.6383 24.1277C66.9564 24.2845 67.2263 24.4972 67.4482 24.766C67.6775 25.0273 67.8513 25.3371 67.9696 25.6954C68.088 26.0463 68.1471 26.4196 68.1471 26.8153C68.1471 26.9347 68.136 27.0616 68.1138 27.196H63.8759C63.9277 27.6887 64.1237 28.0583 64.4639 28.3046C64.8041 28.5435 65.2405 28.663 65.773 28.663ZM67.071 26.1658C67.0562 26.0015 67.0081 25.8485 66.9268 25.7066C66.8454 25.5573 66.7345 25.4304 66.594 25.3259C66.4608 25.2139 66.3055 25.1281 66.128 25.0683C65.9505 25.0086 65.7619 24.9788 65.5622 24.9788C65.3625 24.9788 65.1665 25.0086 64.9742 25.0683C64.7893 25.1281 64.6229 25.2102 64.475 25.3147C64.3345 25.4192 64.2162 25.5461 64.12 25.6954C64.0239 25.8373 63.9647 25.9941 63.9425 26.1658H67.071Z" fill="#38056C"/>
<path d="M112.36 13.2254L105.32 0H119.4L112.36 13.2254Z" fill="#99ff66"/>
</svg>
