<svg width="70" height="25" viewBox="0 0 70 25" fill="none" xmlns="http://www.w3.org/2000/svg">
<g clip-path="url(#clip0_434_15326)">
<path d="M14.3031 14.2812C13.9609 14.6653 13.5144 14.9376 13.02 15.0638C12.5256 15.1899 12.0055 15.1642 11.5255 14.9899C11.0455 14.8156 10.627 14.5005 10.3231 14.0844C10.0191 13.6684 9.84322 13.17 9.81769 12.6523C9.79216 12.1347 9.9181 11.6209 10.1796 11.176C10.4411 10.7311 10.8264 10.375 11.2869 10.1527C11.7474 9.93045 12.2623 9.85195 12.7666 9.92716C13.2709 10.0024 13.742 10.2279 14.1203 10.5753C14.3723 10.806 14.577 11.085 14.7226 11.3964C14.8682 11.7077 14.9519 12.0453 14.9689 12.3896C14.9859 12.7339 14.9358 13.0783 14.8216 13.4029C14.7073 13.7275 14.5311 14.026 14.3031 14.2812Z" fill="#FDFDFD" style="fill:#FDFDFD;fill:color(display-p3 0.9922 0.9922 0.9922);fill-opacity:1;"/>
<path d="M13.0655 3.53917C13.2788 3.75603 13.4806 3.97675 13.6596 4.19748C14.2823 4.95297 14.7953 5.7954 15.1828 6.69903C15.794 6.81494 16.4162 6.85912 17.0373 6.83069H17.1478H17.2468C18.9435 6.67303 20.5271 5.89743 21.706 4.64667L21.8622 4.48403C21.6261 4.19748 21.3861 3.91867 21.1234 3.65147C19.0261 1.52628 16.2468 0.239449 13.2934 0.0261502C10.34 -0.187149 7.40973 0.687323 5.03809 2.48976C8.80808 0.623282 11.4242 1.90891 13.0655 3.53917Z" fill="#FDFDFD" style="fill:#FDFDFD;fill:color(display-p3 0.9922 0.9922 0.9922);fill-opacity:1;"/>
<path d="M4.33717 16.2637C4.41333 15.9655 4.50092 15.679 4.59612 15.4118C4.93003 14.4866 5.39162 13.6143 5.96702 12.8212C5.76105 12.2256 5.48757 11.6564 5.1521 11.1251L5.09117 11.0283L5.03405 10.947C4.05698 9.54533 2.61802 8.54647 0.978449 8.13175L0.761389 8.06592C0.635722 8.41443 0.52148 8.76682 0.42247 9.13082C-0.340527 12.0394 -0.0490158 15.1301 1.24375 17.8382C2.53651 20.5463 4.74423 22.691 7.4636 23.8807C3.97921 21.4798 3.76215 18.5213 4.33717 16.2637Z" fill="#FDFDFD" style="fill:#FDFDFD;fill:color(display-p3 0.9922 0.9922 0.9922);fill-opacity:1;"/>
<path d="M19.574 17.6076C19.2807 17.689 18.9913 17.7548 18.7133 17.8051C17.7588 17.9732 16.7855 18.0019 15.823 17.8903C15.4202 18.3643 15.0727 18.8841 14.7872 19.4393C14.7872 19.4741 14.7529 19.5051 14.7377 19.54C14.7222 19.5702 14.7082 19.6012 14.6958 19.6329C13.9833 21.1948 13.8481 22.9655 14.315 24.6205C14.315 24.6941 14.3569 24.7676 14.3798 24.8412C14.7377 24.7754 15.0995 24.7057 15.4574 24.6089C18.3109 23.8237 20.7924 22.0228 22.4501 19.534C24.1079 17.0451 24.8319 14.0337 24.4902 11.0479C24.1855 15.3191 21.775 16.9842 19.574 17.6076Z" fill="#FDFDFD" style="fill:#FDFDFD;fill:color(display-p3 0.9922 0.9922 0.9922);fill-opacity:1;"/>
<path d="M5.01907 2.48986C3.21371 3.77252 1.80234 5.54873 0.948242 7.613C2.21815 7.88566 3.39458 8.49491 4.35827 9.37899C5.32196 10.2631 6.03865 11.3905 6.43568 12.6471C6.77459 12.4264 7.81801 11.586 8.51869 9.27812C9.36789 6.48614 10.9749 4.42604 13.0655 3.52765C13.0655 3.53927 10.4189 -0.290502 5.01907 2.48986Z" fill="#FDFDFD" style="fill:#FDFDFD;fill:color(display-p3 0.9922 0.9922 0.9922);fill-opacity:1;"/>
<path d="M13.4957 22.5916C13.4942 20.7207 14.1832 18.9173 15.4264 17.5382L15.4454 17.5111C15.1903 17.2361 14.303 16.5623 12.0181 17.089C9.23443 17.7357 6.14228 17.6621 4.33725 16.2642C4.33725 16.2642 2.39513 20.5238 7.46368 23.8734C9.4556 24.8222 11.6711 25.178 13.8536 24.8995C13.6106 24.1554 13.4896 23.3757 13.4957 22.5916Z" fill="#FDFDFD" style="fill:#FDFDFD;fill:color(display-p3 0.9922 0.9922 0.9922);fill-opacity:1;"/>
<path d="M22.1626 4.90234C21.4808 5.69037 20.642 6.32198 19.7018 6.75526C18.7616 7.18854 17.7416 7.4136 16.7094 7.41551C16.1655 7.41354 15.6233 7.35516 15.091 7.24125H15.0644C14.9577 7.62849 14.8739 8.73211 16.4162 10.4205C18.3698 12.5658 19.8435 15.3229 19.5731 17.6115C19.5731 17.6115 24.1428 17.1971 24.4893 11.0517C24.3006 8.81953 23.4939 6.68743 22.1626 4.90234Z" fill="#FDFDFD" style="fill:#FDFDFD;fill:color(display-p3 0.9922 0.9922 0.9922);fill-opacity:1;"/>
<path d="M30.1749 15.6987H28.8916V9.61523H30.9518C32.475 9.61523 33.4042 10.2503 33.4042 11.6482C33.4042 13.0462 32.4293 13.7974 30.8451 13.7974H30.1749V15.6987ZM30.1483 12.6473H30.8451C31.6068 12.6473 32.0752 12.3453 32.0752 11.7024C32.0752 11.0596 31.6448 10.7653 30.8451 10.7653H30.1483V12.6473Z" fill="#FDFDFD" style="fill:#FDFDFD;fill:color(display-p3 0.9922 0.9922 0.9922);fill-opacity:1;"/>
<path d="M34.3369 12.659C34.3369 10.6144 35.5593 9.51074 37.2082 9.51074C39.0551 9.51074 40.1252 10.7034 40.1252 12.659C40.1252 14.8236 38.8838 15.8033 37.2425 15.8033C35.5098 15.8033 34.3369 14.7152 34.3369 12.659ZM38.7657 12.659C38.7657 11.2765 38.1412 10.6608 37.2082 10.6608C36.3628 10.6608 35.685 11.3036 35.685 12.659C35.685 14.0143 36.378 14.6571 37.2767 14.6571C38.1755 14.6571 38.7657 14.022 38.7657 12.659Z" fill="#FDFDFD" style="fill:#FDFDFD;fill:color(display-p3 0.9922 0.9922 0.9922);fill-opacity:1;"/>
<path d="M45.8299 15.4544C45.3303 15.7141 44.7718 15.8343 44.2115 15.8029C42.3836 15.8029 41.165 14.7341 41.165 12.736C41.165 10.641 42.3684 9.51031 44.3257 9.51031C44.8475 9.49803 45.3661 9.59559 45.849 9.79686L45.5672 10.8927C45.2299 10.7809 44.8784 10.7196 44.5238 10.7107C43.3433 10.7107 42.5398 11.311 42.5398 12.6469C42.5398 13.9326 43.3014 14.5831 44.5161 14.5831C44.8799 14.5712 45.2386 14.4925 45.5748 14.3508L45.8299 15.4544Z" fill="#FDFDFD" style="fill:#FDFDFD;fill:color(display-p3 0.9922 0.9922 0.9922);fill-opacity:1;"/>
<path d="M50.522 14.0762H47.982L47.4032 15.6987H46.6416L48.9264 9.61523H49.6881L51.9272 15.6987H51.1237L50.522 14.0762ZM48.2143 13.3637H50.2669L49.2692 10.502H49.2349L48.2143 13.3637Z" fill="#FDFDFD" style="fill:#FDFDFD;fill:color(display-p3 0.9922 0.9922 0.9922);fill-opacity:1;"/>
<path d="M54.5695 15.6987H53.8079V10.3471H52.0371V9.61523H56.344V10.3471H54.5695V15.6987Z" fill="#FDFDFD" style="fill:#FDFDFD;fill:color(display-p3 0.9922 0.9922 0.9922);fill-opacity:1;"/>
<path d="M57.1514 12.6587C57.1514 10.7225 58.2557 9.52979 59.817 9.52979C61.5954 9.52979 62.5512 10.8154 62.5512 12.6587C62.5512 14.7265 61.4088 15.7875 59.8437 15.7875C58.2024 15.7875 57.1514 14.5871 57.1514 12.6587ZM61.7515 12.6587C61.7515 10.9897 61.0166 10.2578 59.8475 10.2578C58.7965 10.2578 57.9853 11.0323 57.9853 12.6587C57.9853 14.2851 58.7698 15.0557 59.9503 15.0557C61.0584 15.0557 61.7515 14.2308 61.7515 12.6587Z" fill="#FDFDFD" style="fill:#FDFDFD;fill:color(display-p3 0.9922 0.9922 0.9922);fill-opacity:1;"/>
<path d="M69.9997 15.6987H69.238L68.8572 10.9473L67.334 15.6987H66.5305L65.0301 10.9628L64.6493 15.6987H63.8877L64.398 9.61523H65.3386L66.9532 14.8468L68.545 9.61523H69.4856L69.9997 15.6987Z" fill="#FDFDFD" style="fill:#FDFDFD;fill:color(display-p3 0.9922 0.9922 0.9922);fill-opacity:1;"/>
</g>
<defs>
<clipPath id="clip0_434_15326">
<rect width="70" height="25" fill="white" style="fill:white;fill-opacity:1;"/>
</clipPath>
</defs>
</svg>
