<svg width="206" height="66" viewBox="0 0 206 66" fill="none" xmlns="http://www.w3.org/2000/svg">
<path d="M55.8036 57.034H34.2779L42.6582 65.4594H64.2445V43.7876L55.8036 35.3014V57.034ZM139.396 50.6465C141.09 50.6465 142.436 51.3461 143.314 52.654L146.505 49.6428C145.28 47.9395 142.966 46.2818 139.169 46.2818C133.451 46.2818 129.336 50.3272 129.336 56.0455C129.336 61.7638 133.451 65.8548 139.169 65.8548C142.966 65.8548 145.28 64.1971 146.505 62.4633L143.314 59.4977C142.436 60.7296 141.09 61.5052 139.396 61.5052C136.446 61.5052 134.358 59.3 134.358 56.0607C134.358 52.8213 136.431 50.6618 139.396 50.6618M149.455 51.042H154.644V65.4137H159.56V51.042H164.749V46.7532H149.47V51.042H149.455ZM171.662 54.3117C171.889 52.4563 173.189 50.1751 176.23 50.1751C179.452 50.1751 180.692 52.5324 180.798 54.3117H171.662ZM176.23 46.2818C170.588 46.2818 166.624 50.6465 166.624 56.0455C166.624 62.0375 170.89 65.8548 176.533 65.8548C179.422 65.8548 182.341 64.9727 184.172 63.2694L182.024 60.1061C180.829 61.2619 178.65 61.9615 177.077 61.9615C173.931 61.9615 172.04 59.9996 171.737 57.6423H185.533V56.5625C185.533 50.464 181.766 46.297 176.245 46.297M116.312 61.5052C113.286 61.5052 111.592 58.9959 111.592 56.0607C111.592 53.1255 113.286 50.6618 116.312 50.6618C119.337 50.6618 121.077 53.1711 121.077 56.0607C121.077 58.9502 119.352 61.5052 116.312 61.5052ZM116.312 46.2818C110.2 46.2818 106.525 50.753 106.525 56.0455C106.525 61.3379 110.216 65.8548 116.312 65.8548C122.408 65.8548 126.144 61.3684 126.144 56.0455C126.144 50.7226 122.453 46.2818 116.312 46.2818ZM199.344 55.8173L205.561 46.738H200.1L196.304 52.4867L192.461 46.738H187L193.187 55.8173L186.622 65.3985H192.038L196.304 59.1023L200.524 65.3985H205.985L199.344 55.8173ZM8.44089 35.3014L0 43.7876V65.4594H21.5863L29.9667 57.034H8.44089V35.3014ZM34.293 9.29536H55.8188V31.0583L64.2597 22.5721V0.869995H42.6734L34.293 9.29536ZM0 0.869995V22.5721L8.44089 31.0583V9.29536H29.9667L21.5863 0.869995H0ZM95.1037 51.4222H89.31V44.472H95.1037C97.2517 44.472 98.8703 45.7799 98.8703 47.9547C98.8703 50.1295 97.2517 51.4222 95.1037 51.4222ZM95.8298 39.6358H83.8492V65.3985H89.31V56.2432H95.8449C101.381 56.2432 104.452 52.4259 104.452 47.9395C104.452 43.4531 101.412 39.6358 95.8449 39.6358" fill="white" style="fill:white;fill-opacity:1;"/>
</svg>
