<svg width="177" height="24" viewBox="0 0 177 24" fill="none" xmlns="http://www.w3.org/2000/svg">
<path d="M50.4251 0.455994H58.3046L64.6519 17.2727L70.9536 0.455994H78.5503V22.8814H73.498V5.7363L66.9136 22.8814H61.7245L55.14 5.8275V22.8814H50.416V0.455994H50.4251Z" fill="white" style="fill:white;fill-opacity:1;"/>
<path d="M111.545 0.455994H128.927V22.8814H123.547V5.18H116.461C116.415 8.33542 116.324 12.5487 116.233 14.9107C116.05 20.7929 114.336 22.8814 109.284 22.8814H106.876V18.1573H108.217C110.487 18.1573 111.226 17.1359 111.372 13.944C111.5 10.515 111.545 3.70261 111.545 0.455994Z" fill="white" style="fill:white;fill-opacity:1;"/>
<path d="M156.414 0.455994H176.851V5.18H169.3V22.8814H163.974V5.18H156.423V0.455994H156.414Z" fill="white" style="fill:white;fill-opacity:1;"/>
<path d="M36.5176 0H34.5934C29.9697 0 26.4677 2.80887 25.6652 6.99481L30.5807 7.77911C31.2556 5.79101 32.7968 4.42306 34.7484 4.34098C35.3777 4.31362 35.2318 4.32274 35.861 4.34098C38.7611 4.4413 40.0743 5.83661 40.0743 9.27474C34.5751 9.27474 30.8178 9.01939 28.0545 10.8342C25.7929 12.3207 24.8262 13.9714 24.8262 16.5796C24.8262 20.3552 27.7627 23.3464 32.505 23.3464C33.2528 23.3464 32.9427 23.3464 33.1616 23.3464C36.5085 23.3464 39.2171 22.0423 40.3206 20.4646V22.8813H45.2725V9.36594C45.2543 4.14946 42.4637 0 36.5176 0ZM33.499 18.969C31.3924 18.9051 30.1794 17.6922 30.1794 16.151C30.1794 14.8742 30.754 14.2541 31.5109 13.8072C32.3043 13.3421 33.344 13.178 34.949 13.1233C36.4994 13.0685 37.7488 12.9956 40.1473 12.9956C40.1473 16.8259 37.7397 18.7501 34.7484 18.9507C34.2833 18.9963 33.9915 18.9872 33.499 18.969Z" fill="white" style="fill:white;fill-opacity:1;"/>
<path d="M155.164 13.1871V11.0896C155.164 3.84852 150.623 0.109436 144.75 0.109436H143.601C137.281 0.109436 133.25 4.41394 133.04 10.4968C133.013 11.3905 133.013 11.7553 133.04 12.9773C133.186 19.0237 137.427 23.1002 143.09 23.2461C144.13 23.2735 143.993 23.2735 144.978 23.2461C149.911 23.1093 153.641 20.264 154.745 16.5431L149.975 15.7133C148.808 18.0479 146.583 18.9416 144.804 19.0328C144.239 19.0602 144.166 19.0602 143.601 19.0328C140.81 18.9143 138.32 16.7347 138.32 13.561V13.2053H155.164V13.1871ZM143.509 4.33186C144.075 4.3045 144.276 4.3045 144.832 4.33186C147.176 4.45042 149.638 5.97341 149.875 8.99203H138.339C138.612 6.30172 140.783 4.47778 143.509 4.33186Z" fill="white" style="fill:white;fill-opacity:1;"/>
<path d="M105.399 9.69425C105.281 4.26802 100.903 0.109436 95.1121 0.109436H93.0146C87.2327 0.109436 82.8552 4.26802 82.7276 9.72161C82.7002 11.2355 82.7002 12.1201 82.7276 13.6248C82.8461 19.0784 87.2236 23.237 93.0146 23.237H95.1121C100.894 23.237 105.271 19.0784 105.399 13.6248C105.436 12.1201 105.436 11.2081 105.399 9.69425ZM100.119 13.3512C100.055 16.5158 97.7477 18.668 94.647 18.8322C94.0542 18.8596 94.0907 18.8596 93.4979 18.8322C90.3607 18.6772 88.0899 16.5249 88.0261 13.3512C87.9987 12.0289 87.9987 11.2811 88.0261 9.96784C88.0899 6.83066 90.3607 4.67841 93.4979 4.52337C94.0907 4.49601 94.0542 4.49601 94.647 4.52337C97.7477 4.67841 100.055 6.83066 100.119 10.0043C100.146 11.3176 100.146 12.038 100.119 13.3512Z" fill="white" style="fill:white;fill-opacity:1;"/>
<path d="M16.4907 14.9746C15.8706 17.0538 14.1925 18.4765 11.9491 18.7957C11.3016 18.8869 10.6632 18.8596 10.1343 18.7866C7.34365 18.3944 5.37379 16.2969 5.30995 13.3512C5.28259 12.0289 5.28259 11.2811 5.30995 9.96784C5.36467 7.00393 7.43484 4.82432 10.2802 4.52337C10.4443 4.50513 11.0645 4.45042 11.6664 4.51425C14.0649 4.76961 15.8614 6.21052 16.5089 8.39013L21.7163 7.38696C20.5946 3.12806 16.7369 0.109436 11.8032 0.109436H10.3075C4.52565 0.109436 0.148195 4.26802 0.0205193 9.72161C-0.00683978 11.2355 -0.00683978 12.1201 0.0205193 13.6248C0.139076 19.0784 4.51653 23.237 10.3075 23.237H11.8032C16.8373 23.237 20.7314 20.0998 21.7619 15.6859L16.4907 14.9746Z" fill="white" style="fill:white;fill-opacity:1;"/>
</svg>
