<svg width="237" height="64" viewBox="0 0 237 64" fill="none" xmlns="http://www.w3.org/2000/svg">
<path d="M187.904 19.2412L196.675 12.7772H167.321V51.6027H196.675V45.1355H175.699V35.1963H193.59V28.7324H175.699V19.2412H187.904Z" fill="white" style="fill:white;fill-opacity:1;"/>
<path d="M145.165 27.91H134.969V19.2412H151.241L160.013 12.7772H126.592V51.6027H144.083C153.894 51.6027 159.52 47.1547 159.52 39.4043C159.52 31.9931 154.422 27.91 145.165 27.91ZM143.705 45.1355H134.969V34.374H143.705C149.021 34.374 151.497 36.1755 151.497 39.7563C151.497 43.4139 148.877 45.1355 143.705 45.1355Z" fill="white" style="fill:white;fill-opacity:1;"/>
<path d="M220.457 12.7772H204.477V51.5995H212.851V40.6043H220.457C230.656 40.6043 236.992 35.2412 236.992 26.6716C236.992 18.102 230.656 12.7772 220.457 12.7772ZM220.272 34.1403H212.851V19.2412H220.272C225.641 19.2412 228.592 21.8876 228.592 26.6908C228.592 31.494 225.638 34.1403 220.272 34.1403Z" fill="white" style="fill:white;fill-opacity:1;"/>
<path d="M112.211 43.1963C109.991 44.3989 107.504 45.0219 104.979 45.0075C97.4269 45.0075 91.9452 39.6156 91.9452 32.1884C91.9452 24.7612 97.4269 19.3852 104.979 19.3852C107.709 19.3455 110.379 20.1822 112.598 21.7724L118.608 17.3436L118.211 16.9948C114.691 13.9132 110.016 12.2844 104.656 12.2844C98.8413 12.2844 93.5645 14.2428 89.7981 17.8044C86.0317 21.366 83.9229 26.422 83.9229 31.99C83.9229 37.558 86.0029 42.6972 89.7789 46.3899C93.5549 50.0827 98.8285 52.1307 104.601 52.1307C110.64 52.1307 115.913 50.0252 119.491 46.1948L114.067 42.1979L112.211 43.1963Z" fill="white" style="fill:white;fill-opacity:1;"/>
<path d="M63.9936 31.9996C63.9942 30.0777 63.8229 28.1597 63.4816 26.2684L56.592 31.3436C56.592 31.5612 56.592 31.782 56.592 31.9836C56.5995 37.4901 54.7624 42.8404 51.3736 47.1808C47.9849 51.5211 43.24 54.6012 37.8961 55.9296C32.5522 57.258 26.9173 56.758 21.8907 54.5095C16.8642 52.261 12.7357 48.3936 10.1641 43.5244C7.59247 38.6553 6.72599 33.065 7.70292 27.6458C8.67985 22.2267 11.4439 17.2909 15.5539 13.6263C19.6639 9.96162 24.8831 7.77931 30.3783 7.42762C35.8736 7.07594 41.3284 8.57514 45.872 11.686L52.096 7.09717C46.4483 2.53959 39.4191 0.0371146 32.1619 0.000409592C24.9046 -0.0362955 17.8505 2.39494 12.1569 6.89517C6.4634 11.3954 2.46866 17.6973 0.828238 24.7668C-0.812187 31.8363 -0.000857543 39.2534 3.1291 45.801C6.25905 52.3487 11.5217 57.638 18.0535 60.8009C24.5853 63.9639 31.9982 64.8126 39.0759 63.2079C46.1535 61.6031 52.4755 57.6402 57.0044 51.9694C61.5333 46.2987 64.0001 39.2569 64 31.9996H63.9936Z" fill="white" style="fill:white;fill-opacity:1;"/>
<path d="M57.3155 12.4348C58.8368 14.3999 60.1254 16.5347 61.1555 18.7964L31.9939 40.2875L19.8115 32.6491V23.4619L31.9939 31.0971L57.3155 12.4348Z" fill="white" style="fill:white;fill-opacity:1;"/>
</svg>
