<svg width="154" height="123" viewBox="0 0 154 123" fill="none" xmlns="http://www.w3.org/2000/svg">
<path d="M33.5721 15.6825C39.8737 15.6825 46.1754 15.6825 52.6681 15.6825C52.6681 22.8872 52.6681 30.0919 52.6681 37.515C58.9697 37.515 65.2714 37.515 71.7641 37.515C71.7641 43.8064 71.7641 50.0979 71.7641 56.58C65.4624 56.58 59.1607 56.58 52.6681 56.58C52.6681 67.2349 52.6681 77.8897 52.6681 88.8675C61.4091 88.8675 70.1501 88.8675 79.1561 88.8675C79.1561 95.2604 79.1561 101.653 79.1561 108.24C74.5251 108.278 74.5251 108.278 69.8006 108.317C68.838 108.328 67.8755 108.339 66.8837 108.351C58.4438 108.408 51.0092 107.089 44.3521 101.475C44.1087 101.277 43.8653 101.079 43.6146 100.874C38.369 96.4208 34.5094 89.8917 33.5721 83.025C33.4067 80.8184 33.4549 78.6004 33.4672 76.3893C33.4674 75.7253 33.4673 75.0612 33.4668 74.3972C33.4665 72.6052 33.4719 70.8132 33.4784 69.0213C33.4842 67.1445 33.4847 65.2678 33.4858 63.3911C33.4887 59.842 33.4962 56.293 33.5055 52.7439C33.5159 48.7014 33.5209 44.6589 33.5256 40.6164C33.5352 32.3051 33.5522 23.9938 33.5721 15.6825Z" fill="#FEFEFE" style="fill:#FEFEFE;fill:color(display-p3 0.9961 0.9961 0.9961);fill-opacity:1;"/>
<path d="M124.394 31.9608C131.324 37.2724 136.096 44.2478 137.291 53.0438C137.325 53.5044 137.35 53.9659 137.368 54.4275C137.384 54.7605 137.4 55.0934 137.416 55.4365C137.493 58.4776 137.108 61.3073 136.444 64.2675C136.369 64.6056 136.294 64.9438 136.217 65.2921C134.259 72.6578 128.761 79.0226 122.271 82.8172C121.968 82.9873 121.665 83.1573 121.352 83.3325C121.138 83.455 120.923 83.5775 120.702 83.7037C116.973 85.7004 112.852 86.8229 108.63 86.7848C108.362 86.7849 108.094 86.785 107.818 86.7851C106.945 86.7847 106.072 86.7799 105.199 86.7751C104.589 86.7739 103.978 86.7731 103.368 86.7724C101.771 86.7701 100.174 86.7641 98.5774 86.7572C96.6564 86.7498 94.7355 86.747 92.8145 86.7434C89.9043 86.7375 86.9942 86.7257 84.084 86.715C84.084 80.3221 84.084 73.9292 84.084 67.3425C85.8972 67.331 87.7105 67.3195 89.5787 67.3077C90.7311 67.2984 91.8835 67.2888 93.0359 67.2783C94.8628 67.2616 96.6897 67.2459 98.5168 67.236C99.9906 67.228 101.464 67.2155 102.938 67.2001C103.499 67.195 104.06 67.1914 104.621 67.1895C105.409 67.1865 106.198 67.1779 106.987 67.168C107.33 67.1686 107.33 67.1686 107.681 67.1693C110.649 67.117 113.1 66.0648 115.192 63.96C117.415 60.963 118.016 58.1289 117.656 54.4275C116.901 51.613 115.528 49.3838 113.113 47.7394C110.594 46.2959 107.915 45.7451 105.028 46.125C102.183 46.8948 99.7272 48.3643 98.08 50.8456C97.0774 52.7167 96.6663 54.4922 96.096 56.58C89.7943 56.58 83.4926 56.58 77 56.58C77 52.2369 77 52.2369 77.4812 50.1994C77.5353 49.9661 77.5894 49.7327 77.6452 49.4924C79.5421 41.8359 84.5281 35.2581 91.168 31.0575C101.529 24.8607 114.437 24.9722 124.394 31.9608Z" fill="#FDFDFD" style="fill:#FDFDFD;fill:color(display-p3 0.9922 0.9922 0.9922);fill-opacity:1;"/>
<path d="M84.084 88.8675C101.16 88.8675 118.235 88.8675 135.828 88.8675C135.828 95.2604 135.828 101.653 135.828 108.24C118.752 108.24 101.677 108.24 84.084 108.24C84.084 101.847 84.084 95.4541 84.084 88.8675Z" fill="#FCFCFC" style="fill:#FCFCFC;fill:color(display-p3 0.9882 0.9882 0.9882);fill-opacity:1;"/>
<path d="M9.24023 37.515C15.5419 37.515 21.8436 37.515 28.3362 37.515C28.3362 43.8065 28.3362 50.0979 28.3362 56.58C22.0346 56.58 15.7329 56.58 9.24023 56.58C9.24023 50.2886 9.24023 43.9971 9.24023 37.515Z" fill="white" style="fill:white;fill-opacity:1;"/>
</svg>
