<svg width="187" height="29" viewBox="0 0 187 29" fill="none" xmlns="http://www.w3.org/2000/svg">
<path d="M117.691 0.676231C115.46 1.31373 112.591 4.37373 112.018 6.79623C111.316 9.53748 112.528 12.8525 114.759 14.3825C115.906 15.1475 118.903 16.295 121.453 16.8687C127.445 18.335 128.338 18.845 128.338 20.6937C128.338 23.1162 126.744 24.2 123.174 24.2C119.285 24.2 117.755 23.4987 117.245 21.3312C116.926 19.9925 116.48 19.7375 114.313 19.7375C111.954 19.7375 111.763 19.865 111.763 21.5862C111.763 25.9212 116.353 28.9175 122.983 28.9175C126.871 28.9175 127.891 28.7262 130.123 27.26C133.055 25.2837 134.458 22.16 133.82 18.845C133.183 15.3387 130.378 13.4262 123.939 12.0875C117.564 10.685 116.034 9.28248 117.819 6.60498C118.648 5.32998 119.349 5.07498 121.963 5.07498C125.086 5.07498 127.7 6.54123 127.7 8.26248C127.7 8.58123 128.848 8.89998 130.25 8.89998C132.545 8.89998 132.8 8.70873 132.8 7.30623C132.8 6.47748 131.971 4.81998 130.888 3.60873C128.083 0.357481 122.791 -0.790018 117.691 0.676231Z" fill="white" style="fill:white;fill-opacity:1;"/>
<path d="M0.200195 3.16247V5.71247H4.34395H8.4877V17.1875V28.6625H11.3564H14.2252V17.1875V5.71247H18.3689H22.5127V3.16247V0.612473H11.3564H0.200195V3.16247Z" fill="white" style="fill:white;fill-opacity:1;"/>
<path d="M23.8514 13.8087C21.2376 21.0762 19.0064 27.4512 18.8151 27.8975C18.6239 28.535 19.2614 28.6625 21.5564 28.535C24.5526 28.3437 24.6801 28.28 25.5726 25.6025L26.4651 22.925H31.6926H36.9201L37.6851 25.7937C38.4501 28.6625 38.4501 28.6625 41.3189 28.6625C43.6139 28.6625 44.1876 28.4712 44.1239 27.515C44.1239 26.9412 42.0201 20.6937 39.5339 13.6812L34.9439 0.931227L31.7564 0.739977L28.5051 0.548727L23.8514 13.8087ZM31.8839 17.6975C30.1626 17.825 28.6326 17.7612 28.5051 17.6337C28.3776 17.5062 29.0151 15.1475 29.9714 12.3425L31.6289 7.30623L33.3501 12.4062L35.0714 17.5062L31.8839 17.6975Z" fill="white" style="fill:white;fill-opacity:1;"/>
<path d="M48.0127 14.5737V28.6625H54.2602C61.4002 28.6625 64.4602 27.9612 67.0739 25.73C71.3452 22.16 72.6202 12.6612 69.6239 6.66872C67.2652 1.88747 65.3527 1.05872 55.8539 0.739973L48.0127 0.484972V14.5737ZM63.1214 6.66872C65.7352 8.51747 66.3089 16.2312 64.1414 20.5025C62.9939 22.8612 61.4639 23.5625 57.3202 23.5625H53.7502V14.6375V5.71247H57.7664C60.2527 5.71247 62.2289 6.09497 63.1214 6.66872Z" fill="white" style="fill:white;fill-opacity:1;"/>
<path d="M78.2306 14.4462L82.8844 28.3438H85.5619H88.3031L93.0206 14.6375C95.6344 7.115 97.7381 0.8675 97.7381 0.74C97.7381 0.612501 96.3994 0.612501 94.7419 0.74L91.6819 0.93125L88.8769 11.0037C87.2831 16.4862 85.8169 20.8212 85.5619 20.5663C85.3069 20.2475 83.9044 15.6575 82.3744 10.3025L79.6331 0.612501H76.6369H73.6406L78.2306 14.4462Z" fill="white" style="fill:white;fill-opacity:1;"/>
<path d="M100.543 1.44126C100.416 1.88751 100.352 8.13501 100.416 15.275L100.607 28.3438L103.348 28.535L106.026 28.7263V14.7013V0.612509H103.476C101.946 0.612509 100.734 0.931257 100.543 1.44126Z" fill="white" style="fill:white;fill-opacity:1;"/>
<path d="M138.538 14.6375V28.6625H148.738H158.938V26.1125V23.5625H151.288H143.638V20.0562V16.55H150.332H157.026V14V11.45H150.332H143.638V8.58122V5.71247H150.969H158.301V3.16247V0.612473H148.419H138.538V14.6375Z" fill="white" style="fill:white;fill-opacity:1;"/>
<path d="M163.719 1.37751C163.528 1.82376 163.464 8.13501 163.528 15.275L163.719 28.3438L166.46 28.535L169.138 28.7263V23.3075V17.825H173.537C178.892 17.825 179.465 18.335 179.912 24.0725L180.294 28.3438L183.29 28.535L186.287 28.7263L185.968 25.3475C185.394 19.2275 185.012 17.7613 183.8 16.55C182.589 15.3388 182.589 15.275 184.119 13.745C187.243 10.6213 186.542 4.56501 182.78 2.14251C180.422 0.548758 164.293 -0.0887413 163.719 1.37751ZM179.465 6.79626C180.804 8.00751 180.932 10.1113 179.784 11.705C179.147 12.5975 177.935 12.8525 174.174 12.98L169.457 13.0438L169.265 9.34626L169.074 5.71251H173.664C177.043 5.71251 178.573 5.96751 179.465 6.79626Z" fill="white" style="fill:white;fill-opacity:1;"/>
</svg>
