<svg width="267" height="80" viewBox="0 0 267 80" fill="none" xmlns="http://www.w3.org/2000/svg">
<path fill-rule="evenodd" clip-rule="evenodd" d="M267 55.0416V58.3361C267 60.7487 266.302 62.5124 264.921 63.6605C263.524 64.8585 261.312 65.4575 258.302 65.4575H253.977V73.0782H248.322V47.9534H258.601C260.663 47.9534 262.293 48.2196 263.508 48.752C264.722 49.2346 265.62 50.0332 266.219 51.1314C266.734 52.1464 267 53.4609 267 55.0416ZM258.302 52.9118H253.977V60.5324H258.302C259.516 60.5324 260.331 60.2995 260.763 59.8169C261.196 59.351 261.395 58.6522 261.345 57.7371V55.5241C261.345 54.6256 261.129 53.9767 260.68 53.5607C260.264 53.1447 259.483 52.9118 258.302 52.9118Z" fill="white" style="fill:white;fill-opacity:1;"/>
<path fill-rule="evenodd" clip-rule="evenodd" d="M244.463 69.4341C243.848 70.5988 242.85 71.5638 241.469 72.3126C240.056 73.0614 238.176 73.444 235.848 73.444C233.486 73.444 231.606 73.0614 230.226 72.3126C228.796 71.5306 227.798 70.5822 227.232 69.4341C226.617 68.3026 226.317 67.0547 226.317 65.7236V47.9199H232.022V65.1911C231.989 66.2228 232.255 67.0048 232.854 67.5705C233.436 68.1529 234.434 68.4524 235.848 68.4524C237.228 68.4524 238.226 68.1529 238.808 67.5705C239.39 67.0381 239.69 66.2394 239.69 65.1911V47.9199H245.345V65.7236C245.328 67.0381 245.045 68.2693 244.463 69.4341Z" fill="white" style="fill:white;fill-opacity:1;"/>
<path fill-rule="evenodd" clip-rule="evenodd" d="M223.922 55.2412V65.7238C223.922 67.0715 223.606 68.3194 222.957 69.4342C222.342 70.5657 221.311 71.5307 219.83 72.3128C218.417 73.0615 216.537 73.4442 214.175 73.4442C211.83 73.4442 209.934 73.0615 208.47 72.3128C207.023 71.564 205.976 70.599 205.344 69.4342C204.712 68.2362 204.379 67.0049 204.379 65.7238V55.2412C204.379 53.96 204.695 52.7287 205.344 51.5307C205.976 50.366 207.007 49.4009 208.47 48.6522C209.934 47.9034 211.83 47.5208 214.175 47.5208C216.537 47.5208 218.417 47.9034 219.83 48.6522C221.294 49.4342 222.342 50.3993 222.957 51.5307C223.606 52.6622 223.922 53.8935 223.922 55.2412ZM217.269 53.4109C216.654 52.8286 215.622 52.5291 214.192 52.5291C212.778 52.5291 211.73 52.8286 211.065 53.4109C210.4 53.96 210.067 54.7254 210.067 55.7071V65.2745C210.067 66.2562 210.4 67.0216 211.065 67.5707C211.73 68.153 212.778 68.4525 214.192 68.4525C215.622 68.4525 216.654 68.153 217.269 67.5707C217.934 67.0382 218.267 66.2728 218.267 65.2745V55.7071C218.267 54.7254 217.934 53.96 217.269 53.4109Z" fill="white" style="fill:white;fill-opacity:1;"/>
<path fill-rule="evenodd" clip-rule="evenodd" d="M161.467 55.2412C161.467 53.7271 161.816 52.3793 162.515 51.198C163.23 50.0166 164.261 49.1181 165.592 48.4858C166.989 47.8535 168.702 47.5208 170.714 47.5208C172.045 47.5208 173.475 47.5873 175.006 47.7371C176.303 47.8868 177.567 48.0865 178.798 48.3194L178.083 53.2778C177.035 53.1447 176.203 53.0282 175.621 52.945C174.407 52.8618 173.509 52.7953 172.96 52.7287C171.796 52.6788 171.047 52.6455 170.714 52.6455C169.334 52.6955 168.386 53.0282 167.887 53.6439C167.371 54.2928 167.138 55.1081 167.172 56.1064V64.7587C167.138 65.7404 167.371 66.5723 167.887 67.2545C168.369 67.9367 169.301 68.2861 170.714 68.3361C171.413 68.3361 171.929 68.3194 172.261 68.2861C173.176 68.2029 173.775 68.153 174.058 68.1198V60.3826H179.463V72.2462C177.783 72.6955 176.32 72.9783 175.089 73.1281C173.775 73.3277 172.311 73.4276 170.714 73.4276C168.702 73.4276 167.005 73.1114 165.592 72.4625C164.211 71.7803 163.197 70.8818 162.515 69.7504C161.816 68.5357 161.467 67.188 161.467 65.7071V55.2412Z" fill="white" style="fill:white;fill-opacity:1;"/>
<path fill-rule="evenodd" clip-rule="evenodd" d="M147.246 65.2743V47.9199H152.651V73.0447H145.666L137.433 56.5389V73.0447H132.027V47.9199H138.963L147.246 65.2743Z" fill="white" style="fill:white;fill-opacity:1;"/>
<path fill-rule="evenodd" clip-rule="evenodd" d="M127.488 51.0815C128.02 52.1297 128.286 53.4609 128.286 55.0416V58.1697C128.286 59.7337 127.987 61.0482 127.404 62.0798C126.822 63.1281 125.891 63.9267 124.61 64.4592L130.681 73.0782H123.945L118.406 65.2911H115.08V73.0782H109.425V47.9534H119.87C121.949 47.9534 123.612 48.2196 124.826 48.752C126.024 49.2013 126.905 50 127.488 51.0815ZM121.966 53.4941C121.483 53.1114 120.702 52.9118 119.587 52.9118H115.096V60.3161H119.587C120.785 60.3161 121.6 60.0998 121.999 59.6505C122.448 59.2013 122.664 58.5025 122.631 57.5707V55.574C122.664 54.6256 122.448 53.9434 121.966 53.4941Z" fill="white" style="fill:white;fill-opacity:1;"/>
<path fill-rule="evenodd" clip-rule="evenodd" d="M201.252 55.0416V58.1697C201.252 59.767 200.952 61.0648 200.337 62.0798C199.755 63.1281 198.84 63.9101 197.593 64.4592L203.663 73.0782H196.927L191.389 65.2911H188.062V73.0782H182.357V47.9534H192.836C194.898 47.9534 196.528 48.2196 197.742 48.752C198.973 49.2512 199.855 50.0332 200.404 51.1314C200.986 52.1131 201.252 53.4276 201.252 55.0416ZM192.57 52.9118H188.079V60.3161H192.57C193.767 60.3161 194.582 60.0998 194.981 59.6505C195.397 59.2013 195.613 58.5025 195.613 57.5707V55.574C195.613 54.5923 195.397 53.8935 194.948 53.4941C194.466 53.1114 193.667 52.9118 192.57 52.9118Z" fill="white" style="fill:white;fill-opacity:1;"/>
<path fill-rule="evenodd" clip-rule="evenodd" d="M55.6525 38.0033C53.6898 38.8685 51.7938 39.767 49.9808 40.6822C49.9476 40.6988 49.9309 40.7154 49.8977 40.7321C49.8977 40.6988 49.8977 40.6655 49.881 40.6322C49.4486 37.4542 48.9995 34.5091 48.5338 31.797C47.2032 23.8436 44.9911 13.2446 41.8809 0.0166016C42.463 1.56402 43.7104 4.89181 45.6231 9.98332C47.4527 14.8918 49.0161 19.0016 50.2802 22.3128C52.5089 28.203 54.3052 33.4109 55.6358 37.9035C55.6358 37.9367 55.6525 37.97 55.6525 38.0033Z" fill="white" style="fill:white;fill-opacity:1;"/>
<path fill-rule="evenodd" clip-rule="evenodd" d="M31.8508 0.765392C31.3185 3.09484 30.5368 6.52246 29.489 11.0483C28.4578 15.5907 27.5929 19.6173 26.8943 23.1115C24.965 32.7787 23.7175 41.4975 23.1188 49.2512C23.0356 50.3494 22.9691 51.4143 22.9358 52.4626C22.8194 56.2729 22.9192 59.6839 23.2685 62.7454C23.5346 64.9584 23.8506 66.7554 24.2331 68.1531C24.3662 66.6223 25.1812 64.609 26.6947 62.0799C27.5762 60.5491 28.6241 59.0682 29.8216 57.6373C29.8216 57.6373 29.8382 57.6373 29.8382 57.6539C31.8175 55.2745 34.2126 53.0449 37.0068 50.9817C42.6119 46.772 49.3979 42.9118 57.3316 39.4176C62.5042 37.1215 68.0428 35.0749 73.9639 33.2612C69.5397 35.624 64.8993 38.5358 60.026 41.9967C53.5726 46.5724 47.7513 51.3644 42.562 56.3893C39.5516 59.3178 37.0733 62.0466 35.144 64.5923C33.3144 66.9883 31.9506 69.2013 31.0358 71.2313C30.1376 73.2779 29.7218 74.9251 29.805 76.2063C29.9214 77.9534 30.9194 79.2346 32.8154 80C27.7259 79.0849 23.7508 77.2546 20.8734 74.5092C17.9627 71.7138 16.1332 67.9867 15.3847 63.3111C14.7194 59.1181 14.7194 55.1414 15.3847 51.3644C16.366 45.8569 17.5636 40.782 18.944 36.173C19.7091 33.6273 21.2227 29.1681 23.5013 22.7621C25.9629 15.807 28.807 8.21963 32.0504 0C31.9672 0.249584 31.9007 0.499169 31.8508 0.765392Z" fill="white" style="fill:white;fill-opacity:1;"/>
<path fill-rule="evenodd" clip-rule="evenodd" d="M0 33.2446C5.87123 35.0416 11.2435 37.0217 16.1168 39.1847C15.7509 40.4659 15.4348 41.6806 15.1521 42.8287C13.7217 41.7638 11.6593 40.3495 8.98148 38.619C5.55521 36.4227 2.56139 34.6257 0 33.2446Z" fill="white" style="fill:white;fill-opacity:1;"/>
<path fill-rule="evenodd" clip-rule="evenodd" d="M33.0986 32.9119C34.2462 31.7971 35.5269 31.248 36.924 31.248C38.3045 31.248 39.5519 31.7971 40.6663 32.9119C41.7474 33.9935 42.2963 35.2414 42.2963 36.6557C42.2963 38.1199 41.7474 39.4011 40.6663 40.4827C39.6351 41.5975 38.3877 42.1465 36.924 42.1465C35.4437 42.1465 34.163 41.5975 33.0986 40.4827C32.0674 39.451 31.5518 38.1865 31.5518 36.6557C31.5684 35.1748 32.084 33.9269 33.0986 32.9119Z" fill="white" style="fill:white;fill-opacity:1;"/>
<path fill-rule="evenodd" clip-rule="evenodd" d="M29.7727 54.8253C29.7561 54.8253 29.7561 54.8419 29.7727 54.8253C29.7394 54.8086 29.7062 54.7753 29.6729 54.7587C28.0429 53.2446 26.4462 51.8302 24.8994 50.5158C24.916 50.2163 24.9327 49.9168 24.9659 49.6173C25.1156 47.7038 25.2986 45.7404 25.5314 43.7104C28.9577 45.5574 32.1844 47.554 35.2447 49.6838C35.278 49.7005 35.3113 49.7337 35.3445 49.7504C33.2322 51.3477 31.386 53.0449 29.7727 54.8253Z" fill="white" style="fill:white;fill-opacity:1;"/>
<path fill-rule="evenodd" clip-rule="evenodd" d="M50.9114 51.5308C50.9945 51.4642 51.0777 51.3976 51.1608 51.3144C53.2565 49.584 55.4187 47.8702 57.6641 46.2063C57.9967 47.8702 58.2795 49.6006 58.5124 51.3644C59.0446 55.9234 59.0446 59.9001 58.5124 63.3111C57.7639 67.9867 55.9343 71.7138 53.0237 74.5091C50.1629 77.2545 46.1878 79.0848 41.0816 80C42.9777 79.2179 43.9923 77.9534 44.0921 76.2063C44.1752 74.9251 43.7594 73.2778 42.8613 71.2313C41.8467 68.9684 40.2833 66.5058 38.1377 63.8103C38.1543 63.777 38.1876 63.7604 38.2042 63.7271C39.7011 61.9966 41.4143 60.1996 43.3436 58.3194C43.5765 58.0865 43.826 57.8702 44.0588 57.6372C45.2563 59.0682 46.2876 60.5491 47.1857 62.0798C48.6826 64.609 49.5142 66.6223 49.6473 68.1531C50.0132 66.7554 50.3292 64.9584 50.612 62.7454C50.9779 59.4342 51.0777 55.7071 50.9114 51.5308Z" fill="white" style="fill:white;fill-opacity:1;"/>
<path fill-rule="evenodd" clip-rule="evenodd" d="M106.829 52.9116H96.6335V57.5372H105.998V62.5622H96.6335V68.053H106.829V73.0447H90.9785V47.9199H106.829V52.9116Z" fill="white" style="fill:white;fill-opacity:1;"/>
<path fill-rule="evenodd" clip-rule="evenodd" d="M89.7807 52.9116H83.0446V73.0447H77.3397V52.9116H70.5703V47.9199H89.7807V52.9116Z" fill="white" style="fill:white;fill-opacity:1;"/>
</svg>
