<svg width="213" height="76" viewBox="0 0 213 76" fill="none" xmlns="http://www.w3.org/2000/svg">
<path fill-rule="evenodd" clip-rule="evenodd" d="M14.4716 0L10.8515 9.86413H61.0188L64.639 0H14.4716ZM9.04025 14.794L5.42008 24.6559H55.5875L59.2076 14.794H9.04025ZM3.62016 29.5879L0 39.4498H50.1674L53.7853 29.5879H3.62016Z" fill="white" style="fill:white;fill-opacity:1;"/>
<mask id="mask0_313_16081" style="mask-type:luminance" maskUnits="userSpaceOnUse" x="75" y="14" width="138" height="62">
<path d="M75.2666 75.4076H212.594V14.9836H75.2666V75.4076Z" fill="white" style="fill:white;fill-opacity:1;"/>
</mask>
<g mask="url(#mask0_313_16081)">
<path fill-rule="evenodd" clip-rule="evenodd" d="M106.652 43.2088V43.4169C108.945 44.254 111.135 45.7177 112.282 46.6577C115.827 49.5852 117.392 53.4527 117.392 58.4706C117.392 66.7317 113.012 72.6896 105.817 74.5719C103.627 75.1986 101.335 75.409 97.0572 75.409H75.2666V14.9836H94.557C98.5195 14.9836 101.23 15.1917 103.627 15.8184C110.615 17.7007 115.202 22.5105 115.202 30.1402C115.202 34.2182 113.742 37.6694 111.345 39.9679C110.302 41.0132 108.842 42.2688 106.652 43.2088ZM87.3619 49.5852V65.4761H95.7044C98.2047 65.4761 100.5 65.2679 102.17 63.699C103.837 62.13 104.567 60.1448 104.567 57.5306C104.567 55.5454 104.045 53.6631 103.002 52.3046C101.23 50.109 99.0396 49.5852 95.287 49.5852H87.3619ZM87.2569 39.1309H94.0345C96.1196 39.1309 97.1622 39.1309 98.2047 38.8175C101.022 37.9804 102.795 35.4738 102.795 32.0225C102.795 27.9469 100.917 26.1675 98.2047 25.3327C97.0572 25.0194 95.912 24.9142 93.6171 24.9142H87.2569V39.1309ZM135.535 75.409V25.1223H118.122V14.9836H166.506L163.066 25.1223H147.631V75.409H135.535ZM170.258 75.409V14.9836H209.466L206.026 25.1223H182.251V38.5042H191.949C199.769 38.5042 203.836 40.3865 206.651 42.7902C208.841 44.6725 212.594 48.8534 212.594 57.1144C212.594 65.2679 208.736 69.7621 205.504 72.0629C201.751 74.6748 197.789 75.409 189.759 75.409H170.258ZM182.251 65.2679H191.324C194.764 65.2679 196.849 64.4308 198.309 62.5486C199.039 61.6086 200.081 59.9344 200.081 56.7988C200.081 53.6631 199.039 51.4675 196.954 49.8986C195.704 48.9586 194.034 48.4371 191.219 48.4371H182.251V65.2679Z" fill="white" style="fill:white;fill-opacity:1;"/>
</g>
</svg>
