<?xml version="1.0" encoding="utf-8"?>
<!-- Generator: Adobe Illustrator 27.0.1, SVG Export Plug-In . SVG Version: 6.00 Build 0)  -->
<svg version="1.1" id="Logos" xmlns="http://www.w3.org/2000/svg" xmlns:xlink="http://www.w3.org/1999/xlink" x="0px" y="0px"
	 viewBox="0 0 510.2 170.1" style="enable-background:new 0 0 510.2 170.1;" xml:space="preserve">
<style type="text/css">
	.st0{fill:#00AEEF;}
	.st1{fill-rule:evenodd;clip-rule:evenodd;fill:url(#SVGID_1_);}
</style>
<g>
	<path d="M265.2,64.6c0,11.7-9.3,21.1-21.1,21.1s-19.5-8-20.7-18.5h-6.5v17.7h-6.7V44.3h6.7v16.6h6.6c1.7-9.9,10.1-17.3,20.5-17.3
		s21.1,9.3,21.1,21.1L265.2,64.6z M258.5,64.6c0-8.4-6.3-14.6-14.4-14.6s-14.4,6.1-14.4,14.6s6.3,14.6,14.4,14.6
		S258.5,73,258.5,64.6z"/>
	<path d="M305,44.3V85h-6.7V67.4h-17.4V85h-6.7V44.3h6.7V61h17.4V44.3H305z"/>
	<path d="M340.5,57.4L321.3,85h-5.2V44.3h6.7v27.6L342,44.3h5.2V85h-6.7V57.4z"/>
	<path d="M387.8,73.4c0,6.7-5.5,11.6-12.2,11.6h-17.4V44.3h16.2c6.6,0,11.9,4.8,11.9,11.3s-1.6,6.5-4.1,8.3c3.4,1.8,5.7,5.1,5.7,9.5
		L387.8,73.4z M364.8,50.6v10.7h9.5c3,0,5.2-2.3,5.2-5.3s-2.3-5.3-5.2-5.3h-9.5V50.6z M381.1,73c0-3.2-2.4-5.7-5.5-5.7h-10.8v11.4
		h10.8C378.7,78.7,381.1,76.2,381.1,73z"/>
	<path d="M421.3,78.6V85h-24.7V44.3H421v6.4h-17.7v10.6h16.3v6.3h-16.3v11L421.3,78.6L421.3,78.6z"/>
	<path d="M458.7,57.7c0,7.5-5.8,13.4-13.5,13.4h-8.3V85h-6.7V44.3h15C452.9,44.3,458.7,50.1,458.7,57.7z M452,57.7
		c0-4.1-2.8-7.1-6.8-7.1h-8.3v14.2h8.3C449.2,64.8,452,61.8,452,57.7z"/>
	<path d="M465.4,64.6c0-11.8,8.9-21.1,21.3-21.1s14.1,3.8,17.5,9.7l-5.8,3.4c-2.2-4-6.6-6.6-11.7-6.6c-8.8,0-14.6,6.2-14.6,14.6
		s5.8,14.6,14.6,14.6s9.6-2.6,11.7-6.6l5.8,3.3c-3.4,5.9-10,9.8-17.5,9.8C474.3,85.7,465.4,76.4,465.4,64.6L465.4,64.6z"/>
</g>
<g>
	<path class="st0" d="M231.4,127.9v3.5h-26.1v-3.5h2.5c1.5-1.9,2.6-4.6,2.6-9.9v-14.7h18v24.6C228.4,127.9,231.4,127.9,231.4,127.9z
		 M224.6,127.9v-21.1h-10.5v11.3c0,5.2-1,8-2.1,9.8C212,127.9,224.6,127.9,224.6,127.9z"/>
	<g>
		<path class="st0" d="M256.4,125.2h-12.7l-2.3,6.3h-4l10.5-28.2h4.2l10.5,28.2h-4l-2.3-6.3H256.4z M255.1,121.7l-5.1-13.9l-5,13.9
			H255.1z"/>
		<path class="st0" d="M285.3,106.8H277v24.6h-3.7v-24.6H265v-3.5h20.3C285.3,103.3,285.3,106.8,285.3,106.8z"/>
		<path class="st0" d="M306.5,125.2h-12.7l-2.3,6.3h-4l10.5-28.2h4.2l10.5,28.2h-4L306.5,125.2L306.5,125.2z M305.2,121.7l-5.1-13.9
			l-5,13.9H305.2z"/>
	</g>
</g>
<linearGradient id="SVGID_1_" gradientUnits="userSpaceOnUse" x1="6.0843" y1="85.0109" x2="170.4936" y2="85.0109">
	<stop  offset="0" style="stop-color:#FF0066"/>
	<stop  offset="0.5" style="stop-color:#9900FF"/>
	<stop  offset="1" style="stop-color:#10C2F5"/>
</linearGradient>
<path class="st1" d="M88.3,2.8C42.9,2.8,6.1,39.6,6.1,85s36.8,82.2,82.2,82.2c45.4,0,82.2-36.8,82.2-82.2S133.7,2.8,88.3,2.8z
	 M138.9,54.4c-16.9,0-30.6,13.7-30.6,30.6c0,16.9,13.7,30.6,30.6,30.6c6.7,0,12.8-2.1,17.9-5.8c-8.4,13.7-23.5,22.8-40.7,22.8
	c-26.3,0-47.7-21.3-47.7-47.7c0-26.3,21.3-47.7,47.7-47.7c17.2,0,32.3,9.1,40.7,22.8C151.8,56.5,145.6,54.4,138.9,54.4z M163.8,85
	c0,13.7-11.1,24.9-24.9,24.9c-13.7,0-24.9-11.1-24.9-24.9c0-13.7,11.1-24.9,24.9-24.9C152.6,60.1,163.8,71.3,163.8,85z M88.3,160.8
	c-41.9,0-75.8-33.9-75.8-75.8S46.4,9.2,88.3,9.2c27,0,50.7,14.1,64.2,35.4c-9.6-8.7-22.4-13.9-36.3-13.9c-30,0-54.3,24.3-54.3,54.3
	s24.3,54.3,54.3,54.3c14,0,26.7-5.3,36.3-13.9C139,146.7,115.3,160.8,88.3,160.8z"/>
</svg>
