<svg width="174" height="29" viewBox="0 0 174 29" fill="none" xmlns="http://www.w3.org/2000/svg">
<path d="M15.556 15.2122H28.9869V23.4056L15.5535 28.8226V15.2098L15.556 15.2122ZM28.9869 13.3151V5.12168L15.556 -0.297607V13.3081L28.9869 13.3151ZM0 5.12168V23.408L13.4334 28.8249V-0.297607L0 5.12168Z" fill="white" style="fill:white;fill-opacity:1;"/>
<path d="M48.02 4.71372C41.6473 4.71372 38.2148 8.17259 38.2148 14.2743C38.2148 20.376 41.6473 23.8348 47.8437 23.8348C51.9151 23.8348 55.2055 21.8674 56.5153 17.8668H52.2676C51.4524 19.2222 50.2846 20.0711 47.8437 20.0711C44.1983 20.0711 42.7465 18.2068 42.7465 14.3071V14.2063C42.7465 10.3065 44.1983 8.47744 48.02 8.47744C50.2846 8.47744 51.4524 9.22315 52.2676 10.5129H56.5153C55.2055 6.64835 52.0914 4.71607 48.02 4.71607V4.71372ZM92.6217 16.0049C92.6217 18.718 94.0368 20.0734 96.8693 20.0734C99.7019 20.0734 101.117 18.718 101.117 16.0049V5.11941H105.578V23.4291H101.401V20.716C100.233 22.6483 98.3211 23.8348 95.136 23.8348C90.6043 23.8348 88.1635 21.4617 88.1635 16.7154V5.11941H92.6241V16.0025L92.6217 16.0049ZM161.045 16.0049C161.045 18.718 162.46 20.0734 165.292 20.0734C168.125 20.0734 169.54 18.718 169.54 16.0049V5.11941H174.001V23.4291H169.824V20.716C168.656 22.6483 166.744 23.8348 163.559 23.8348C159.027 23.8348 156.586 21.4617 156.586 16.7154V5.11941H161.047V16.0025L161.045 16.0049ZM118.321 20.0734C122.145 20.0734 123.631 18.2092 123.631 14.3094V14.2086C123.631 10.3089 122.145 8.51262 118.321 8.51262C114.497 8.51262 113.01 10.3089 113.01 14.2086V14.3094C113.01 18.2092 114.497 20.0734 118.321 20.0734ZM127.947 -2V23.4291H123.699V20.716C122.495 22.5474 120.656 23.8348 117.505 23.8348C111.488 23.8348 108.479 19.8343 108.479 14.5439C108.479 8.74712 111.488 4.74655 117.505 4.74655C120.125 4.74655 122.637 5.9683 123.486 7.59572V-2H127.947ZM58.2486 23.4291H62.7093V-2H58.2486V23.4291ZM75.4523 23.8372C69.3636 23.8372 65.5419 20.2095 65.5419 14.2766C65.5419 8.34378 69.366 4.71607 75.4523 4.71607C81.5386 4.71607 85.3627 8.34378 85.3627 14.2766C85.3627 20.2095 81.5386 23.8372 75.4523 23.8372ZM70.0711 14.3094C70.0711 18.2092 71.5572 20.0734 75.4523 20.0734C79.3474 20.0734 80.8335 18.2092 80.8335 14.3094V14.2086C80.8335 10.3089 79.3474 8.47979 75.4523 8.47979C71.5572 8.47979 70.0711 10.3112 70.0711 14.2086V14.3094ZM152.229 5.12175H154.354V9.19032H151.168C148.336 9.19032 147.381 10.4449 147.381 12.478V23.4291H142.92V5.08658H147.168V8.47744C148.018 6.13714 149.717 5.12175 152.231 5.12175H152.229ZM135.414 23.8372C137.36 23.8372 138.599 22.7186 138.599 20.8192C138.599 18.9197 137.36 17.8011 135.414 17.8011C133.468 17.8011 132.229 18.9197 132.229 20.8192C132.229 22.7186 133.468 23.8372 135.414 23.8372Z" fill="white" style="fill:white;fill-opacity:1;"/>
</svg>
