<svg width="174" height="49" viewBox="0 0 174 49" fill="none" xmlns="http://www.w3.org/2000/svg">
<path d="M0 24.5002V49.0002H10.6551H21.3127L21.3023 43.5668C21.2944 37.6811 21.2996 37.953 21.1532 37.0248C20.5963 33.5262 18.9751 31.1521 16.4467 30.1402C15.3825 29.7139 14.4909 29.5728 12.8331 29.5728H12.3416V24.5028V19.4328L12.8593 19.4171C14.1091 19.3805 14.5458 19.3517 14.9171 19.2838C15.9577 19.0929 16.852 18.7425 17.6312 18.2248C18.0757 17.9267 18.3293 17.7228 18.6797 17.3724C19.9714 16.0807 20.8368 14.1615 21.1637 11.871C21.2996 10.9297 21.2944 11.165 21.3023 5.41782L21.3127 8.39233e-05H10.6551H0V24.5002Z" fill="white" style="fill:white;fill-opacity:1;"/>
<path d="M33.1808 5.41782C33.1808 10.7859 33.173 11.3873 33.0867 12.5247C32.8906 15.1629 32.3859 17.4456 31.6643 18.9438C31.442 19.404 30.9191 20.1675 30.37 20.8265C29.1986 22.2358 27.5748 23.5536 26.0583 24.325L25.7314 24.4923L25.972 24.6126C26.8009 25.0257 27.7553 25.669 28.605 26.3828C29.0443 26.7541 29.9176 27.6222 30.2837 28.0562C30.9008 28.7883 31.4133 29.5309 31.6774 30.0748C32.3781 31.5181 32.8906 33.84 33.0867 36.4495C33.173 37.5608 33.1808 38.2171 33.1808 43.5799V49.0002H41.0904H49V24.5002V8.39233e-05H41.0904H33.1808V5.41782Z" fill="white" style="fill:white;fill-opacity:1;"/>
<path d="M93.9998 5.41527C91.0661 5.5983 88.5167 6.76185 86.404 8.87718C84.4351 10.8487 83.3553 13.0947 83.0519 15.8454C82.9892 16.4285 82.9892 17.8405 83.0519 18.434C83.3605 21.2606 84.4613 23.5589 86.4694 25.5723C88.2213 27.3294 90.3157 28.438 92.614 28.825C93.4586 28.9688 93.6782 28.9845 94.8104 28.9845C95.9452 28.9845 96.2171 28.9636 97.0329 28.825C99.6503 28.3805 102.001 27.0234 103.802 24.9212C105.481 22.9628 106.378 20.769 106.579 18.1203C106.619 17.579 106.598 16.1618 106.54 15.6886C106.26 13.4007 105.489 11.5416 104.106 9.81848C102.662 8.02477 100.832 6.72002 98.7796 6.01927C97.3206 5.51986 95.6602 5.31068 93.9998 5.41527ZM95.519 9.62238C96.4028 9.71128 97.1114 9.91 97.8827 10.2891C98.5835 10.6343 99.13 11.0343 99.7392 11.6462C100.362 12.2737 100.798 12.862 101.167 13.5811C101.711 14.6374 101.954 15.6101 101.993 16.8652C102.064 19.2211 101.295 21.2266 99.7157 22.8111C98.4371 24.0923 96.944 24.7329 95.0614 24.8035C93.3645 24.8715 91.7512 24.3303 90.4961 23.2765C90.1771 23.0098 89.6019 22.4189 89.3325 22.0816C88.7285 21.3259 88.2082 20.3585 87.9493 19.5061C87.5519 18.1856 87.497 16.7528 87.7925 15.4009C88.1664 13.7014 89.2646 12.0253 90.7367 10.9219C91.712 10.1898 92.8389 9.7505 94.0521 9.62499C94.3711 9.59361 95.2052 9.591 95.519 9.62238Z" fill="white" style="fill:white;fill-opacity:1;"/>
<path d="M162.088 5.4152C159.98 5.55901 158.105 6.17609 156.453 7.27689C155.109 8.16851 153.94 9.3373 153.046 10.6734C151.76 12.5979 151.135 14.8649 151.192 17.4011C151.226 18.8131 151.404 19.8904 151.812 21.1036C152.458 23.0307 153.619 24.7433 155.25 26.171C157.133 27.8183 159.308 28.7308 161.899 28.9609C162.501 29.0132 163.962 29.0001 164.493 28.9347C166.546 28.6837 168.256 28.0091 169.827 26.8299C171.532 25.5539 172.79 23.8883 173.695 21.7207L173.799 21.4671H171.268H168.737L168.575 21.7338C167.584 23.3784 166.083 24.406 164.237 24.7067C162.807 24.9394 161.382 24.7721 160.176 24.2282C158.341 23.3967 156.756 21.5272 156.126 19.438C155.794 18.3425 155.708 16.9854 155.893 15.7748C156.134 14.1824 156.858 12.7652 158.019 11.599C159.198 10.4172 160.587 9.76612 162.245 9.61969C162.904 9.56217 163.832 9.61185 164.441 9.73997C166.172 10.1008 167.594 11.1336 168.63 12.7783L168.813 13.0738H171.297H173.783L173.765 12.9953C173.739 12.8646 173.493 12.2214 173.313 11.8187C172.913 10.9192 172.353 10.0171 171.731 9.26147C171.438 8.90326 170.659 8.14237 170.272 7.83383C168.567 6.47416 166.556 5.67406 164.284 5.4518C163.764 5.40212 162.577 5.38121 162.088 5.4152Z" fill="white" style="fill:white;fill-opacity:1;"/>
<path d="M110.74 17.1972L110.747 28.566L113.004 28.5739L115.258 28.5791V24.5027V20.4237L118.22 20.4133C121.07 20.4054 121.196 20.4028 121.625 20.3479C122.984 20.1727 123.947 19.906 124.828 19.4589C126.14 18.7895 127.103 17.8273 127.754 16.5252C128.261 15.5107 128.517 14.4308 128.559 13.1391C128.627 10.9741 127.976 9.21175 126.629 7.90961C125.576 6.89248 124.143 6.2388 122.409 5.9904C121.402 5.84397 121.572 5.8492 115.943 5.83874L110.734 5.82828L110.74 17.1972ZM121.102 9.95957C121.742 10.0563 122.197 10.1897 122.621 10.4015C123.23 10.7074 123.68 11.1937 123.913 11.8003C124.229 12.6135 124.216 13.7274 123.886 14.5223C123.452 15.5629 122.399 16.1617 120.736 16.316C120.563 16.3317 119.402 16.3421 117.854 16.3421H115.258V13.126V9.90727L118.077 9.91773C120.111 9.92557 120.95 9.93603 121.102 9.95957Z" fill="white" style="fill:white;fill-opacity:1;"/>
<path d="M130.345 5.8492C130.345 5.85966 132.118 9.80007 134.283 14.606L138.218 23.3444L137.133 25.9356C136.534 27.3606 136.045 28.5399 136.045 28.553C136.045 28.5713 136.871 28.5791 138.382 28.5791H140.72L140.772 28.4536C141.036 27.8339 150.227 5.91195 150.238 5.87535C150.248 5.83351 150.123 5.8309 147.871 5.8309H145.495L142.961 11.9128L140.427 17.9946L140.385 17.9057C140.362 17.8587 139.172 15.1211 137.744 11.8239L135.148 5.8309H132.748C131.425 5.8309 130.345 5.83874 130.345 5.8492Z" fill="white" style="fill:white;fill-opacity:1;"/>
<path d="M62.3877 17.4273V28.5791H64.8325H67.2773V24.5838V20.5859L68.3205 19.5295C68.8932 18.949 69.369 18.4784 69.3743 18.4862C69.3821 18.4941 70.8777 20.7532 72.7002 23.5065C74.5253 26.2598 76.0288 28.5294 76.0471 28.5477C76.0706 28.5713 76.7112 28.5791 79.1325 28.5739L82.1839 28.566L81.6818 27.847C81.4047 27.4522 79.2789 24.4191 76.9622 21.1062L72.7447 15.0844L76.4602 11.314C78.5023 9.24051 80.4581 7.25854 80.8059 6.90817L81.436 6.2754L78.1546 6.27802H74.8731L71.0948 10.3936C69.0161 12.6554 67.3086 14.5092 67.2982 14.5092C67.2851 14.5118 67.2773 12.658 67.2773 10.3936V6.2754H64.8325H62.3877V17.4273Z" fill="white" style="fill:white;fill-opacity:1;"/>
<path d="M71.6438 35.4167C70.4776 35.6023 69.4369 36.4155 68.961 37.5163C68.6473 38.2458 68.6054 39.242 68.8617 40.0212C69.1441 40.8919 69.8396 41.6946 70.6632 42.1052C71.5915 42.5654 72.8204 42.5784 73.7591 42.1339C74.1382 41.9561 74.4232 41.7522 74.7422 41.4306C75.4377 40.7324 75.775 39.914 75.775 38.91C75.775 37.8275 75.3515 36.8835 74.5592 36.2142C73.8741 35.6337 73.1394 35.3722 72.2164 35.3801C72.0229 35.3827 71.7667 35.3984 71.6438 35.4167ZM72.7812 36.6979C73.4113 36.8705 73.9787 37.3882 74.2297 38.0236C74.5069 38.7138 74.4206 39.5976 74.0179 40.2199C73.8715 40.4474 73.5238 40.7873 73.3041 40.9155C72.823 41.1978 72.185 41.2737 71.6411 41.1142C70.9587 40.9128 70.3573 40.2618 70.1507 39.4957C70.1037 39.3283 70.0932 39.2106 70.0906 38.9073C70.088 38.4707 70.1246 38.2929 70.2867 37.9451C70.5403 37.396 71.0267 36.9332 71.5444 36.7476C71.8765 36.6273 72.4386 36.6064 72.7812 36.6979Z" fill="white" style="fill:white;fill-opacity:1;"/>
<path d="M86.5998 35.4168C85.7736 35.5475 85.0388 35.9685 84.4871 36.6221C83.8465 37.3857 83.5824 38.2956 83.7001 39.3441C83.7916 40.1651 84.1367 40.8737 84.7303 41.4568C85.2401 41.9562 85.8206 42.2595 86.5344 42.4007C86.8587 42.4661 87.5934 42.4661 87.9124 42.4033C88.5635 42.2726 89.0943 41.9954 89.5806 41.5326C89.9336 41.1927 90.1898 40.8214 90.4016 40.3377L90.4696 40.1886H89.7009H88.9348L88.9086 40.2462C88.8563 40.3638 88.5818 40.6828 88.4354 40.7979C88.0876 41.0698 87.7294 41.1875 87.2273 41.1901C86.8508 41.1927 86.6103 41.1378 86.2991 40.9835C85.7762 40.7247 85.2977 40.1181 85.1303 39.4957C85.0493 39.195 85.0493 38.5675 85.1303 38.2668C85.2088 37.9818 85.3683 37.6654 85.5539 37.4301C85.9932 36.881 86.592 36.6065 87.2927 36.6405C87.6379 36.6561 87.8235 36.7032 88.1085 36.8418C88.3648 36.9673 88.689 37.2575 88.8537 37.5112L88.9635 37.6785H89.714H90.4644L90.386 37.4746C89.9545 36.3502 89.0106 35.5998 87.8026 35.4168C87.4993 35.3697 86.9005 35.3697 86.5998 35.4168Z" fill="white" style="fill:white;fill-opacity:1;"/>
<path d="M76.9521 38.9204V42.3326H77.632H78.3118V40.9076V39.4826H79.58H80.8481V40.9076V42.3326H81.5279H82.2078V38.9204V35.5082H81.5279H80.8481V36.8678V38.2275H79.58H78.3118V36.8678V35.5082H77.632H76.9521V38.9204Z" fill="white" style="fill:white;fill-opacity:1;"/>
<path d="M93.597 35.5919C93.4741 35.8873 90.9404 42.3013 90.9404 42.317C90.9404 42.3248 91.2673 42.3326 91.6673 42.3326H92.3916L92.6662 41.5927L92.9407 40.8553H94.2062H95.4718L95.7385 41.5874L96.0078 42.3196L96.7451 42.3274C97.4407 42.3326 97.4825 42.33 97.472 42.2882C97.4642 42.262 96.8602 40.7272 96.1307 38.8733L94.8024 35.5082H94.2167H93.631L93.597 35.5919ZM94.6403 38.4393C94.8625 39.1061 95.0456 39.6604 95.0456 39.6708C95.0456 39.6839 94.669 39.6918 94.2088 39.6918C93.7487 39.6918 93.3721 39.6839 93.3721 39.6735C93.3721 39.6656 93.5395 39.174 93.7408 38.5831C93.9448 37.9922 94.1356 37.4405 94.1618 37.3568C94.1905 37.2731 94.2193 37.2104 94.2245 37.2156C94.2324 37.2208 94.418 37.7725 94.6403 38.4393Z" fill="white" style="fill:white;fill-opacity:1;"/>
<path d="M99.0851 38.8969C98.4524 40.7612 97.9321 42.2987 97.9268 42.3091C97.9216 42.3222 98.238 42.3326 98.6328 42.3326H99.3466L100.142 39.8277C100.578 38.4524 100.949 37.294 100.965 37.2548C100.991 37.1921 101.078 37.4483 101.807 39.7519L102.623 42.3196L103.334 42.3274C103.998 42.3326 104.045 42.33 104.03 42.2882C104.019 42.2647 103.499 40.7272 102.871 38.876L101.729 35.5082H100.981H100.233L99.0851 38.8969Z" fill="white" style="fill:white;fill-opacity:1;"/>
<path d="M104.333 36.1148L104.341 36.724L105.016 36.7319L105.688 36.7371V39.5349V42.3326H106.368H107.047V39.5349V36.7371H107.727H108.407V36.1226V35.5082H106.368H104.328L104.333 36.1148Z" fill="white" style="fill:white;fill-opacity:1;"/>
<path d="M109.688 38.9204V42.3326H110.272L110.852 42.33L112.356 40.0761L113.859 37.8222L113.867 40.0761L113.872 42.3326H114.552H115.232V38.9204V35.5082L114.638 35.5134L114.042 35.5213L112.552 37.749L111.061 39.9768L111.053 37.7412L111.048 35.5082H110.368H109.688V38.9204Z" fill="white" style="fill:white;fill-opacity:1;"/>
<path d="M116.983 38.9204V42.3326H117.663H118.343V40.9076V39.4826H119.611H120.879V40.9076V42.3326H121.546H122.213V38.9204V35.5082H121.546H120.879V36.8678V38.2275H119.611H118.343V36.8678V35.5082H117.663H116.983V38.9204Z" fill="white" style="fill:white;fill-opacity:1;"/>
<path d="M123.991 38.9204V42.3326H124.671H125.351V39.5349V36.7371H126.462H127.573V36.1226V35.5082H125.782H123.991V38.9204Z" fill="white" style="fill:white;fill-opacity:1;"/>
<path d="M62.3877 38.9858V42.3326H63.1198H63.8519V41.1351V39.9402L64.1736 39.6212L64.4926 39.3048L65.4888 40.8109L66.485 42.3196L67.4054 42.3274C67.91 42.33 68.3231 42.3274 68.3231 42.3222C68.3231 42.3091 65.7921 38.6877 65.5881 38.4053L65.4992 38.285L66.6288 37.1372C67.2485 36.507 67.8342 35.9135 67.9283 35.8141L68.0983 35.6389H67.1178H66.1346L64.9998 36.8731L63.865 38.1072L63.8572 36.8731L63.8519 35.6389H63.1198H62.3877V38.9858Z" fill="white" style="fill:white;fill-opacity:1;"/>
</svg>
