<svg id="Layer_1" data-name="Layer 1" xmlns="http://www.w3.org/2000/svg" viewBox="0 0 1442.59 258.84"><defs><style>.cls-1{fill:#1a171b;}</style></defs><title>GBM_black</title><path class="cls-1" d="M754.37,209.68h32.1c11.67,0,17.2,6.14,17.2,14.19,0,6.83-2.8,14.28-13.48,19.52,3.82,1.61,10.06,4.32,10.06,13,0,13.88-12,26.35-30,26.35h-31.4Zm-3.83,64.6h21c11.18,0,18.62-6.64,18.62-16.4,0-7.66-7.64-9.25-14.79-9.25H756Zm7.15-33.71H775.5c9.65,0,18-3.52,18-14.19,0-5.24-3.62-8.25-13.18-8.25H762.42Z" transform="translate(-39.74 -25.41)"/><path class="cls-1" d="M826.57,229.51,819,264.83a19.4,19.4,0,0,0-.5,4c0,5.63,3.51,7.64,8.25,7.64,11.27,0,16.8-10,18.41-17.72l6.24-29.27h9L849,282.73h-8.45l1.72-7.75-.1-.2c-5.14,6.15-10.37,9.47-18.93,9.47-6.83,0-14.28-2.92-14.28-12.07a23.75,23.75,0,0,1,.5-4.43l8.14-38.24Z" transform="translate(-39.74 -25.41)"/><path class="cls-1" d="M900.21,244.69a14.29,14.29,0,0,0,.29-2.2c0-3.12-1.91-6.74-11-6.74-2.73,0-12.38,1.3-12.38,8.94,0,2.83,1.9,4.13,12.68,6.86,12.58,3.1,16.5,6.64,16.5,12,0,12.78-12.67,20.74-25.16,20.74-16.49,0-19.42-7.35-19.42-13.69a35.29,35.29,0,0,1,.51-4.93h8.65a11.16,11.16,0,0,0-.31,2.71c0,3.73,2,8.16,12.09,8.16,6.73,0,14.18-3.12,14.18-10,0-2.41-1.91-4.92-14.28-7.45C873.14,257.18,868,254.17,868,248c0-13.47,13.48-20,24.15-20,14.78,0,17,8.55,17,13.58a14.84,14.84,0,0,1-.31,3.11Z" transform="translate(-39.74 -25.41)"/><path class="cls-1" d="M921.7,282.73h-9L924,229.51h9Zm4.43-62.88,2.12-10.17h9l-2.11,10.17Z" transform="translate(-39.74 -25.41)"/><path class="cls-1" d="M954.29,229.51l-1.62,7.54H953c2.53-2.81,8.76-9.05,17.92-9.05,7.14,0,15.28,2.51,15.28,13a29.06,29.06,0,0,1-.59,5.53l-7.75,36.22h-9l7-32.8a33.3,33.3,0,0,0,.9-6.13c0-5-2.71-7.75-9.26-7.75-5,0-14.8,3.21-17.81,17.71l-6,29h-9.06L946,229.51Z" transform="translate(-39.74 -25.41)"/><path class="cls-1" d="M1039.29,266c-3.72,8.25-11.36,18.22-27.78,18.22-12.37,0-18.81-7.75-18.81-19.23,0-19.62,13.27-37,32.61-37,11.86,0,17.49,7.44,17.49,19.62a55.07,55.07,0,0,1-1.29,11.46h-38.75a31.92,31.92,0,0,0-.7,5.75c0,7.44,4,11.67,12.37,11.67s15.09-6.54,15.9-10.47ZM1033.85,252a28.55,28.55,0,0,0,.31-4.13c0-6.53-2.82-11.77-11.88-11.77-8.15,0-16.31,7.64-18,15.9Z" transform="translate(-39.74 -25.41)"/><path class="cls-1" d="M1084.85,244.69a14.29,14.29,0,0,0,.29-2.2c0-3.12-1.91-6.74-11-6.74-2.72,0-12.38,1.3-12.38,8.94,0,2.83,1.91,4.13,12.69,6.86,12.57,3.1,16.5,6.64,16.5,12,0,12.78-12.68,20.74-25.17,20.74-16.5,0-19.41-7.35-19.41-13.69a32.51,32.51,0,0,1,.51-4.93h8.64a11.7,11.7,0,0,0-.3,2.71c0,3.73,2,8.16,12.07,8.16,6.75,0,14.2-3.12,14.2-10,0-2.41-1.91-4.92-14.29-7.45-9.47-1.9-14.6-4.91-14.6-11.07,0-13.47,13.49-20,24.16-20,14.78,0,17,8.55,17,13.58a15.57,15.57,0,0,1-.29,3.11Z" transform="translate(-39.74 -25.41)"/><path class="cls-1" d="M1135.62,244.69a12.39,12.39,0,0,0,.3-2.2c0-3.12-1.9-6.74-11-6.74-2.7,0-12.36,1.3-12.36,8.94,0,2.83,1.91,4.13,12.67,6.86,12.57,3.1,16.52,6.64,16.52,12,0,12.78-12.69,20.74-25.17,20.74-16.5,0-19.41-7.35-19.41-13.69a33.91,33.91,0,0,1,.5-4.93h8.65a11.18,11.18,0,0,0-.3,2.71c0,3.73,2,8.16,12.07,8.16,6.75,0,14.19-3.12,14.19-10,0-2.41-1.92-4.92-14.3-7.45-9.45-1.9-14.58-4.91-14.58-11.07,0-13.47,13.48-20,24.14-20,14.8,0,17,8.55,17,13.58a16.34,16.34,0,0,1-.29,3.11Z" transform="translate(-39.74 -25.41)"/><path class="cls-1" d="M1206.81,209.68l7.66,61.78h.2l33.92-61.78h14l-15.5,73.05h-9.55l9.15-43.17c.4-2.11,2.71-11.46,4.22-18.2h-.09l-33.73,61.37h-9.74l-7.46-61.37h-.29c-1.51,6.64-3.23,16.09-3.62,18.2l-9.17,43.17h-9.56l15.5-73.05Z" transform="translate(-39.74 -25.41)"/><path class="cls-1" d="M1309.21,266c-3.73,8.25-11.37,18.22-27.79,18.22-12.37,0-18.81-7.75-18.81-19.23,0-19.62,13.27-37,32.61-37,11.86,0,17.49,7.44,17.49,19.62a55.07,55.07,0,0,1-1.29,11.46h-38.75a31.92,31.92,0,0,0-.7,5.75c0,7.44,4,11.67,12.36,11.67s15.1-6.54,15.91-10.47ZM1303.76,252a28.6,28.6,0,0,0,.32-4.13c0-6.53-2.83-11.77-11.89-11.77-8.15,0-16.31,7.64-18,15.9Z" transform="translate(-39.74 -25.41)"/><path class="cls-1" d="M1359.78,282.73h-8.45l1.51-7.34h-.2c-5.43,7.24-11.78,8.86-17,8.86-13.58,0-17.51-9.47-17.51-19.53,0-18.61,11-36.72,28.27-36.72,9.06,0,12.27,5.23,14.08,9.05l5.85-27.37h9Zm-32.5-19.32c0,7.75,3.23,13.09,10.76,13.09,8.76,0,19.23-9.16,19.23-28.49,0-6.33-2.11-12-10.37-12C1331,236.05,1327.28,254.65,1327.28,263.41Z" transform="translate(-39.74 -25.41)"/><path class="cls-1" d="M1382.08,282.73h-8.95l11.28-53.22h8.95Zm4.43-62.88,2.12-10.17h8.95l-2.1,10.17Z" transform="translate(-39.74 -25.41)"/><path class="cls-1" d="M1402.7,245.7c2.82-12.88,12.68-17.7,25.85-17.7,3.84,0,16.81,1,16.81,11.56,0,3.54-6.94,32.71-6.94,34.83,0,1.3.61,2.21,2.42,2.21a22,22,0,0,0,2.91-.4l-1.4,6.53a20.16,20.16,0,0,1-4.94,1c-4.83,0-8.05-1.4-8.05-5.92a18,18,0,0,1,.21-2.22c-4.34,3.72-10.57,8.66-20.93,8.66-8.47,0-13.89-4.73-13.89-12,0-11.38,9.66-18.73,19.33-19.93,3.31-.39,14.28-1.6,16-2,4.84-1.11,5.94-5,5.94-8.45,0-4.32-3.32-6.44-10.66-6.44-10.17,0-13,6.24-14.39,10.26Zm15.3,13.19c-6.94.6-13.69,3.42-13.69,11.37,0,4.13,2.61,6.53,8.15,6.53,8.34,0,17.51-5.33,19-12.47l1.82-8.75C1431.68,256.68,1425.45,258.28,1418,258.89Z" transform="translate(-39.74 -25.41)"/><path class="cls-1" d="M266.47,93l-6.67,5.23q-12.35,9.32-33.78,21a500.3,500.3,0,0,1-72,32.31,184.93,184.93,0,0,1-30.83,8.33c-3.32.54-6.67,1-9.84,1.32l-5.68.33c-5.13,0-7.85-1.23-8.21-3.84-.2-1.59.25-4.3,1.36-7.87q7.35-23.49,38.45-50a192.13,192.13,0,0,1,33-23,146.75,146.75,0,0,1,32.47-13.57,208.62,208.62,0,0,1,117.73,0c2.43.8,6.08,1.9,10.91,3.44l20.18-29.36-8.68-2.18C332,32.08,319.36,29.73,307,28a312.05,312.05,0,0,0-40.34-2.56A320.47,320.47,0,0,0,212.55,30a339.72,339.72,0,0,0-50.74,13.29,313.05,313.05,0,0,0-43.73,19Q96.39,73.64,81.82,85.59a132.89,132.89,0,0,0-24.08,25.8c-5.53,7.58-9.26,14.69-11.22,21.39q-4.86,16.71,10.6,32.31c10.73,10.81,22.42,18.09,35.15,22a64,64,0,0,0,12.23,2.85,80.93,80.93,0,0,0,13.52.91,101.62,101.62,0,0,0,24.84-3.11A151.77,151.77,0,0,0,168.81,179a268.73,268.73,0,0,0,29.47-15.24c12.69-7.35,23.5-14.3,32.47-20.74l12.1-9-13.63,18.66Q204,185.73,176.79,200.35a117.94,117.94,0,0,1-35.55,12.14A253.62,253.62,0,0,1,96,216.26a159.25,159.25,0,0,1-21.16-1.06c-3.83-.38-9.31-1.17-16.48-2.39l-18.6,29.27,8,1.61a204.29,204.29,0,0,0,27.83,3.64c7.79.67,15.81,1,23.93,1a262.09,262.09,0,0,0,37-2.35q82.53-10.64,126.79-64.67c6.19-7.62,12.94-16.78,20.24-27.6L323,93Z" transform="translate(-39.74 -25.41)"/><path class="cls-1" d="M499.24,105.41l23.87-33.3-7.94.14c-3.8.31-7.56.57-11.26,1-23.36,2.75-47.7,12.13-72.82,28.27-5.38,3.44-11,7.48-17.09,12.24-2.87,2.11-6.88,5.32-12.07,9.55l12.25-15C422.11,97.34,427,88.91,429,83.08a26.63,26.63,0,0,0,1.17-6.44l.06-2.37-60.64-.1.07,1.41a16.7,16.7,0,0,1-.82,5.83,40.15,40.15,0,0,1-3,7l-5,8.91c-2.24,3.71-3.76,6.22-4.63,7.51L301.6,188.77l60.13.11,2.07-3.18A104.15,104.15,0,0,1,373,173.61a172.68,172.68,0,0,1,19.31-19.81,176,176,0,0,1,18.94-14.45c8.3-5.75,16.48-10.81,24.48-15.25q26.18-14.5,46.42-18A64.3,64.3,0,0,1,493.8,105a30.28,30.28,0,0,1,3.26.13Z" transform="translate(-39.74 -25.41)"/><path class="cls-1" d="M654.6,75.44a149.39,149.39,0,0,0-32.44-3.24A201.93,201.93,0,0,0,590,74.7a204.71,204.71,0,0,0-32.06,7.69,119.42,119.42,0,0,0-27.75,12.94c-17.39,10.91-28.35,23.83-33,38.62Q486.8,167,523.61,182.69a89.18,89.18,0,0,0,23,6.69,123.82,123.82,0,0,0,23.64,1.82c29.81-.1,56.27-5.67,79.46-17q35.43-17.41,45.6-47.78c3.38-12,1.31-22.56-6.13-31.74Q678.25,80.54,654.6,75.44ZM646,104.2l-.41,1.33-2.81,7.75c-1.14,2.54-2.36,5.08-3.72,7.56a80.9,80.9,0,0,1-7,10.66A99.19,99.19,0,0,1,605.87,155c-12.81,7.91-25.51,11.88-38,11.72a38.32,38.32,0,0,1-7.33-.45l-5.8-1.07a29.49,29.49,0,0,1-5.65-1.4l-3.46-1.29a40.38,40.38,0,0,1,1.84-9.18q6-19.12,24.7-36.06Q594.31,97,622.72,96.66c2.92,0,6.06.27,9.24.5l8.56,1.14c1.84.34,3.41.79,4.84,1.12l1.44.47Z" transform="translate(-39.74 -25.41)"/><path class="cls-1" d="M821.79,161.7c-5.59.73-10.82,1.21-15.71,1.63l-12.21.7-9.8.23c-8.54.1-12.2-1.68-11-5.15L774.7,156l1.68-3,4.78-7.53,7.65-11.69,21.37-32.14,65.78.08,17.69-27.16-65,0,24.26-35.87-60.82-.07-23.56,35.9-33.16,0-17.91,27.18h32.8l-22.06,33.79c-5.91,8.81-9.78,16-11.58,21.37a9.46,9.46,0,0,0-.61,4.77c-.27,5.21,3.18,11,10.28,17.28q13.25,12.87,39,12.46,16.89.18,44.15-3.4l12.26-1.84,18.12-27.22-6.84,1.22Z" transform="translate(-39.74 -25.41)"/><path class="cls-1" d="M1076.93,97l-1.14-3c-.58-.84-1.26-1.81-2.1-2.85-5.18-5.71-13.71-10.59-25.65-14.41a103.25,103.25,0,0,0-10.61-2.82l-5-.82-4.44-.39c-2.76-.18-5.13-.21-7.06-.21q-43.16.8-89.74,20.77-50.58,21.82-59,50.06c-3.81,12.53-.9,23.13,8.91,31.85q13.93,12.15,41.7,14.86a276.56,276.56,0,0,0,31.27,1.49,327.65,327.65,0,0,0,47-3.16c6.42-.7,12.29-1.72,17.64-2.82l8.2-1.81,21.9-30.38-5,1.66c-5.55,1.68-11.93,3.2-19.28,4.65s-14.32,2.44-21.56,3.16a229.41,229.41,0,0,1-27.66,1.56,164.2,164.2,0,0,1-17.39-.7,95.37,95.37,0,0,1-13.13-1.74c-6.91-1.22-11.23-3.57-12.9-7.14l-.65-1.71c3.81-.12,6.78-.24,8.83-.5a446.26,446.26,0,0,0,63.79-9.84,260.23,260.23,0,0,0,25.67-7c20-6.47,33.56-14,40.81-22.78a35.62,35.62,0,0,0,6-10.79A18.39,18.39,0,0,0,1076.93,97Zm-44,6.16-2,1.87-2.29,1.73a74.1,74.1,0,0,1-18.63,8.79,174.82,174.82,0,0,1-26.88,7.35L969,125.38c-7.36,1.09-14.07,1.93-20.12,2.4-2.67.29-6.51.58-11.61.79l3.51-3.31a40.7,40.7,0,0,1,6.56-4.83c3.4-2.34,6.61-4.32,9.56-6.07a134.1,134.1,0,0,1,24.49-10.74A111.61,111.61,0,0,1,1018,97l6.17.38c7,.8,10.29,2.23,9.83,4.18Z" transform="translate(-39.74 -25.41)"/><path class="cls-1" d="M1173.56,164.57c-12.16.09-21.24-1.8-27.16-5.76-6.82-4.51-9-10.55-6.39-18.13,2.24-6.67,7.21-14,14.89-21.9a99.77,99.77,0,0,1,13.3-11.91l6.8-5.06,6.54-.74a94.27,94.27,0,0,1,10.18-.87c5.18-.21,10.29-.38,15.32-.43a259.26,259.26,0,0,1,40.22,3l3.11.62,19.74-26.85-8.31-1.46a266.81,266.81,0,0,0-37.57-2.5,236.83,236.83,0,0,0-35.75,2.82,213.92,213.92,0,0,0-31.94,7.29,193.07,193.07,0,0,0-27,10.52,142.46,142.46,0,0,0-24.65,14.18,82,82,0,0,0-18.28,17.2,47.39,47.39,0,0,0-9.05,17.25Q1071.34,161,1086,174q13,11.58,41.7,15.62a169.78,169.78,0,0,0,27.26,2,191.79,191.79,0,0,0,22.14-1.16c4.58-.38,9-.9,13.32-1.64l6.59-1,24.24-31.32-10,2.93A159.09,159.09,0,0,1,1173.56,164.57Z" transform="translate(-39.74 -25.41)"/><path class="cls-1" d="M1430.38,175.42a59.08,59.08,0,0,1-9.2,1.13c-5.69-.24-9.75-5.09-12.23-14.5a132.2,132.2,0,0,1-3.35-18.44l-1.78-17.85-.7-10.44L1482.33,75l-67.52-.1-6.58,3.31c-7.83,3.85-15.91,8.3-24.15,13.19s-17.33,10.58-27.22,17.21c-7.58,5-14.94,10.07-21.95,15l-11.2,8,28.87-42.88L1362,74.94l8.19-12.78c2.73-4.3,4.6-7.32,5.62-9.13,1.67-3.08,3.18-6.2,4.61-9.2l2.41-6.58c1.11-3.84,1.54-6.77,1.35-8.77l-59.81-.09c.49,2.23.2,5.06-.93,8.52l-2.84,7.52-3.52,6.87c-3.23,5.48-6.7,11.1-10.32,16.84l-80,121.4h57.06l6.1-5.11q7.79-6.37,23.14-17.22c8.72-6.07,15.64-10.78,20.82-14.09l15.2-9.07.85,7.89c.42,3.7,1,7.92,2,12.72a74.76,74.76,0,0,0,3.82,13c3.42,9.51,11.92,14.27,25.56,14.19A207.86,207.86,0,0,0,1424,187c2.22-.36,5.49-1.17,10-2.3l7.37-11.42-4.13.93Z" transform="translate(-39.74 -25.41)"/></svg>