<svg width="266" height="81" viewBox="0 0 266 81" fill="none" xmlns="http://www.w3.org/2000/svg">
<g clip-path="url(#clip0_313_16397)">
<path d="M88.5599 27.7723H90.3353C93.8862 27.7723 96.648 26.9845 98.7194 25.2118C100.692 23.5375 101.679 21.174 101.679 18.1209C101.679 15.068 100.692 12.7043 98.7194 11.0301C96.648 9.25746 93.8862 8.37107 90.3353 8.37107H88.5599V27.7723ZM80.5703 35.0601V1.1818H89.6449C95.9576 1.1818 100.89 2.65905 104.539 5.71202C108.09 8.76504 109.866 12.9013 109.866 18.1209C109.866 21.2724 109.176 24.0299 107.795 26.4921C106.315 28.9541 104.243 30.9238 101.481 32.4995C99.9034 33.4844 98.2265 34.0752 96.4511 34.4692C94.5766 34.8631 92.3083 35.0601 89.6449 35.0601H80.5703ZM115.685 35.0601V1.1818H123.774V35.0601H115.685ZM160.566 16.2498V32.795C158.297 33.8783 156.028 34.7646 153.858 35.3555C151.689 35.9464 149.617 36.2419 147.644 36.2419C142.416 36.2419 138.175 34.4692 134.723 31.1208C131.27 27.6738 129.594 23.3405 129.594 18.2194C129.594 12.9013 131.369 8.56806 134.821 5.12114C138.274 1.67422 142.613 0 147.94 0C149.913 0 151.885 0.29545 153.661 0.787866C155.436 1.37877 157.212 2.16664 158.889 3.34844L158.001 11.818C156.423 10.2423 154.845 9.06047 153.266 8.27263C151.787 7.58323 150.11 7.18931 148.335 7.18931C145.375 7.18931 142.811 8.17414 140.838 10.2423C138.767 12.3104 137.78 14.871 137.78 17.924C137.78 21.0755 138.767 23.7345 140.74 25.8027C142.613 27.7723 145.079 28.8556 148.137 28.8556C148.828 28.8556 149.617 28.7571 150.308 28.6587C150.998 28.4617 151.787 28.3632 152.576 28.0678V23.1436H146.165V16.2498H160.566ZM167.372 35.0601V1.1818H175.559V35.0601H167.372ZM190.354 35.0601V8.27263H179.504V1.1818H209.194V8.27263H198.443V35.0601H190.354ZM216.987 24.3254H225.963L221.524 13.6892L216.987 24.3254ZM204.263 35.0601L221.623 0.0984836H222.116L239.081 35.0601H230.599L228.429 30.1359H214.62L212.449 35.0601H204.263ZM241.646 35.0601V1.1818H249.734V27.7723H263.051V35.0601H241.646Z" fill="white" style="fill:white;fill-opacity:1;"/>
<path d="M7.98968 72.1013H9.7652C13.3161 72.1013 16.078 71.2148 18.0508 69.5402C20.1222 67.7678 21.1086 65.4041 21.1086 62.4499C21.1086 59.3966 20.1222 57.033 18.0508 55.2604C16.078 53.5861 13.3161 52.6998 9.7652 52.6998H7.98968V72.1013ZM0 79.389V45.412H8.97609C15.2889 45.412 20.3195 46.9877 23.8704 49.9423C27.52 52.9952 29.2955 57.1315 29.2955 62.4499C29.2955 65.601 28.6051 68.3584 27.1255 70.821C25.7446 73.2831 23.6732 75.2524 20.9113 76.8285C19.3331 77.7145 17.6562 78.4041 15.7821 78.7978C14.0066 79.1916 11.738 79.389 8.97609 79.389H0Z" fill="white" style="fill:white;fill-opacity:1;"/>
<path d="M34.918 79.3879V45.411H55.9278V52.4033H42.809V58.608H54.0537V65.5014H42.809V72.1986H56.1251V79.3879H34.918ZM73.88 80.6681H73.288L57.2103 45.411H65.7919L73.88 64.0243L81.9681 45.411H89.8593L73.88 80.6681ZM92.6211 79.3879V45.411H113.533V52.4033H100.512V58.608H111.658V65.5014H100.512V72.1986H113.73V79.3879H92.6211ZM119.944 79.3879V45.411H128.033V72.1001H141.348V79.3879H119.944ZM150.719 62.4487C150.719 65.403 151.508 67.8651 153.284 69.8349C154.961 71.8042 157.131 72.7892 159.695 72.7892C162.26 72.7892 164.331 71.8042 166.107 69.8349C167.784 67.8651 168.671 65.403 168.671 62.4487C168.671 59.3955 167.784 56.9334 166.107 54.9638C164.331 52.9942 162.26 52.0094 159.695 52.0094C157.131 52.0094 154.961 52.9942 153.284 54.9638C151.508 56.9334 150.719 59.3955 150.719 62.4487ZM142.335 62.4487C142.335 59.8882 142.729 57.5246 143.617 55.3578C144.505 53.1911 145.787 51.2215 147.464 49.4487C149.042 47.7745 150.916 46.5928 152.988 45.7064C155.158 44.82 157.328 44.3276 159.695 44.3276C161.964 44.3276 164.232 44.82 166.304 45.7064C168.474 46.5928 170.348 47.873 171.926 49.5472C173.603 51.2215 174.885 53.0927 175.674 55.3578C176.562 57.5246 176.957 59.8882 176.957 62.4487C176.957 64.5165 176.661 66.5848 176.069 68.4562C175.477 70.3271 174.589 72.0017 173.504 73.5772C171.827 75.744 169.756 77.418 167.389 78.6982C164.923 79.8801 162.358 80.4712 159.695 80.4712C157.328 80.4712 155.158 80.0769 153.086 79.191C150.916 78.3045 149.141 77.0242 147.464 75.3497C145.787 73.5772 144.505 71.6074 143.617 69.4412C142.729 67.2744 142.335 64.9108 142.335 62.4487ZM191.851 51.7139H190.766V60.7742H192.245C194.317 60.7742 195.895 60.3804 196.98 59.5924C198.065 58.8049 198.559 57.6231 198.559 56.1456C198.559 54.5699 198.065 53.4866 196.98 52.7972C195.895 52.0094 194.218 51.7139 191.851 51.7139ZM182.678 79.3879V45.411H191.457C194.12 45.411 196.191 45.6079 197.769 46.0019C199.348 46.3958 200.827 47.0852 202.011 47.9715C203.293 48.9563 204.279 50.0397 204.97 51.4185C205.66 52.7972 205.956 54.2744 205.956 55.8502C205.956 59.2971 204.773 61.956 202.307 64.0243C199.841 65.9942 196.586 66.9786 192.345 66.9786C191.95 66.9786 191.654 66.9786 191.358 66.9786C191.161 66.9786 190.964 66.9786 190.766 66.9786V79.3879H182.678ZM210.987 79.3879V45.411H231.997V52.4033H218.878V58.608H230.123V65.5014H218.878V72.1986H232.194V79.3879H210.987ZM247.582 51.6154H246.201V61.0701H247.976C249.949 61.0701 251.527 60.5773 252.612 59.7898C253.697 59.0017 254.289 57.8199 254.289 56.2441C254.289 54.5699 253.697 53.4866 252.711 52.6987C251.626 52.0094 249.949 51.6154 247.582 51.6154ZM238.31 79.3879V45.411H247.088C249.85 45.411 252.02 45.6079 253.599 46.0019C255.177 46.3958 256.459 46.9867 257.741 47.873C258.925 48.7594 259.911 49.8427 260.602 51.2215C261.391 52.5018 261.687 53.979 261.687 55.4562C261.687 57.5246 261.095 59.3955 260.01 61.0701C258.925 62.6456 257.445 63.9259 255.374 64.8124L265.731 79.3879H256.459L247.384 66.0926H246.201V79.3879H238.31Z" fill="white" style="fill:white;fill-opacity:1;"/>
<path d="M34.918 36.2419V0H44.4924C51.2261 0 56.592 1.68078 60.3797 4.83225C64.2729 8.08875 66.1666 12.5008 66.1666 18.1735C66.1666 21.535 65.4303 24.4764 63.8518 27.1027C62.3786 29.7289 60.1691 31.8299 57.2233 33.5107C55.5399 34.4561 53.7512 35.1914 51.7522 35.6116C49.8583 36.0318 47.4384 36.2419 44.4924 36.2419H34.918Z" fill="white" style="fill:white;fill-opacity:1;"/>
<path d="M0 36.2419V0H9.57447C16.3082 0 21.6741 1.68078 25.4618 4.83225C29.3547 8.08875 31.2485 12.5008 31.2485 18.1735C31.2485 21.535 30.5121 24.4764 28.9338 27.1027C27.4608 29.7289 25.2513 31.8299 22.3053 33.5107C20.622 34.4561 18.8333 35.1914 16.8342 35.6116C14.9404 36.0318 12.5204 36.2419 9.57447 36.2419H0Z" fill="white" style="fill:white;fill-opacity:1;"/>
</g>
<defs>
<clipPath id="clip0_313_16397">
<rect width="266" height="81" fill="white" style="fill:white;fill-opacity:1;"/>
</clipPath>
</defs>
</svg>
