<svg width="280" height="50" viewBox="0 0 280 50" fill="none" xmlns="http://www.w3.org/2000/svg">
<g clip-path="url(#clip0_313_16429)">
<path d="M138.707 35.5953H144.937C147.202 35.5953 148.276 36.7814 148.276 38.3364C148.276 39.6558 147.732 41.0949 145.659 42.1071C146.401 42.4181 147.612 42.9416 147.612 44.6183C147.612 47.2995 145.283 49.7083 141.789 49.7083H135.694L138.707 35.5953ZM137.963 48.0741H142.039C144.209 48.0741 145.653 46.7914 145.653 44.9061C145.653 43.4264 144.17 43.1193 142.783 43.1193H139.023L137.963 48.0741ZM139.351 41.5623H142.808C144.681 41.5623 146.302 40.8824 146.302 38.8213C146.302 37.8091 145.599 37.2276 143.743 37.2276H140.269L139.351 41.5623Z" fill="white" style="fill:white;fill-opacity:1;"/>
<path d="M152.72 39.4259L151.25 46.2486C151.191 46.5022 151.159 46.7611 151.153 47.0213C151.153 48.1089 151.835 48.4971 152.755 48.4971C154.942 48.4971 156.016 46.5654 156.328 45.0742L157.539 39.4201H159.286L157.073 49.7064H155.433L155.767 48.2093L155.748 48.1707C154.75 49.3587 153.735 50 152.073 50C150.748 50 149.302 49.4359 149.302 47.6684C149.307 47.3808 149.34 47.0943 149.399 46.8127L150.979 39.4259H152.72Z" fill="white" style="fill:white;fill-opacity:1;"/>
<path d="M167.014 42.3582C167.044 42.2182 167.062 42.0761 167.07 41.9332C167.07 41.3306 166.699 40.6313 164.935 40.6313C164.405 40.6313 162.532 40.8824 162.532 42.3582C162.532 42.9049 162.901 43.156 164.993 43.6834C167.435 44.2822 168.196 44.966 168.196 46.0014C168.196 48.4701 165.737 50.0077 163.312 50.0077C160.112 50.0077 159.543 48.5879 159.543 47.3632C159.553 47.0439 159.587 46.7257 159.642 46.4109H161.321C161.279 46.5823 161.259 46.7581 161.261 46.9344C161.261 47.6549 161.649 48.5107 163.607 48.5107C164.914 48.5107 166.36 47.908 166.36 46.579C166.36 46.1134 165.989 45.6286 163.588 45.1399C161.76 44.7709 160.762 44.1895 160.762 42.9976C160.762 40.3956 163.378 39.1342 165.449 39.1342C168.318 39.1342 168.749 40.7858 168.749 41.7575C168.75 41.9593 168.73 42.1606 168.689 42.3582H167.014Z" fill="white" style="fill:white;fill-opacity:1;"/>
<path d="M171.184 49.7064H169.438L171.631 39.4259H173.378L171.184 49.7064ZM172.044 37.5599L172.456 35.5953H174.203L173.793 37.5599H172.044Z" fill="white" style="fill:white;fill-opacity:1;"/>
<path d="M177.51 39.4259L177.196 40.8824H177.26C177.751 40.3396 178.96 39.1342 180.738 39.1342C182.124 39.1342 183.704 39.6191 183.704 41.6454C183.7 42.0043 183.662 42.362 183.589 42.7136L182.085 49.7102H180.338L181.697 43.3743C181.792 42.9858 181.85 42.5894 181.872 42.1902C181.872 41.2243 181.346 40.6931 180.074 40.6931C179.104 40.6931 177.202 41.3132 176.617 44.1141L175.453 49.716H173.694L175.901 39.4259H177.51Z" fill="white" style="fill:white;fill-opacity:1;"/>
<path d="M194.008 46.4746C193.286 48.0683 191.803 49.9942 188.616 49.9942C186.215 49.9942 184.965 48.4971 184.965 46.2795C184.965 42.4895 187.54 39.1323 191.294 39.1323C193.596 39.1323 194.689 40.5694 194.689 42.9222C194.684 43.6668 194.6 44.4088 194.439 45.136H186.917C186.838 45.5014 186.793 45.8731 186.782 46.2467C186.782 47.6839 187.558 48.501 189.183 48.501C190.807 48.501 192.111 47.2377 192.269 46.4785L194.008 46.4746ZM192.952 43.7703C192.991 43.5061 193.011 43.2395 193.012 42.9725C193.012 41.7111 192.465 40.6989 190.706 40.6989C189.124 40.6989 187.54 42.1747 187.212 43.7703H192.952Z" fill="white" style="fill:white;fill-opacity:1;"/>
<path d="M202.851 42.3582C202.88 42.2182 202.899 42.0761 202.907 41.9332C202.907 41.3305 202.536 40.6313 200.772 40.6313C200.244 40.6313 198.369 40.8824 198.369 42.3582C198.369 42.9049 198.74 43.156 200.832 43.6833C203.272 44.2822 204.035 44.966 204.035 46.0014C204.035 48.4701 201.573 50.0077 199.149 50.0077C195.947 50.0077 195.382 48.5879 195.382 47.3632C195.39 47.0437 195.424 46.7254 195.481 46.4109H197.158C197.118 46.5825 197.098 46.7582 197.1 46.9344C197.1 47.6549 197.488 48.5106 199.442 48.5106C200.752 48.5106 202.198 47.908 202.198 46.579C202.198 46.1134 201.828 45.6286 199.425 45.1398C197.587 44.7728 196.591 44.1914 196.591 43.0015C196.591 40.3995 199.209 39.1381 201.28 39.1381C204.149 39.1381 204.58 40.7897 204.58 41.7613C204.582 41.9629 204.563 42.1642 204.524 42.3621L202.851 42.3582Z" fill="white" style="fill:white;fill-opacity:1;"/>
<path d="M212.705 42.3582C212.737 42.2186 212.757 42.0763 212.763 41.9332C212.763 41.3305 212.395 40.6313 210.628 40.6313C210.104 40.6313 208.229 40.8824 208.229 42.3582C208.229 42.9049 208.6 43.156 210.688 43.6833C213.128 44.2822 213.895 44.966 213.895 46.0014C213.895 48.4701 211.432 50.0077 209.01 50.0077C205.807 50.0077 205.242 48.5879 205.242 47.3632C205.251 47.0438 205.284 46.7256 205.339 46.4109H207.018C206.977 46.5824 206.958 46.7582 206.96 46.9344C206.96 47.6549 207.348 48.5106 209.303 48.5106C210.613 48.5106 212.057 47.908 212.057 46.579C212.057 46.1134 211.684 45.6286 209.281 45.1398C207.447 44.7728 206.451 44.1914 206.451 43.0015C206.451 40.3995 209.068 39.1381 211.137 39.1381C214.009 39.1381 214.436 40.7897 214.436 41.7613C214.437 41.9629 214.418 42.1641 214.38 42.3621L212.705 42.3582Z" fill="white" style="fill:white;fill-opacity:1;"/>
<path d="M226.523 35.5953L228.009 47.5294H228.048L234.632 35.5953H237.349L234.341 49.7064H232.487L234.263 41.3672C234.341 40.9597 234.789 39.1535 235.082 37.8516H235.065L228.518 49.7064H226.627L225.179 37.8516H225.123C224.83 39.1342 224.496 40.9597 224.421 41.3672L222.641 49.7064H220.785L223.794 35.5953H226.523Z" fill="white" style="fill:white;fill-opacity:1;"/>
<path d="M246.398 46.4746C245.674 48.0683 244.192 49.9942 241.004 49.9942C238.604 49.9942 237.354 48.4971 237.354 46.2795C237.354 42.4895 239.929 39.1323 243.683 39.1323C245.985 39.1323 247.078 40.5694 247.078 42.9222C247.072 43.6668 246.988 44.4088 246.827 45.136H239.306C239.227 45.5014 239.182 45.8731 239.17 46.2467C239.17 47.6839 239.947 48.501 241.569 48.501C243.192 48.501 244.5 47.2377 244.657 46.4785L246.398 46.4746ZM245.341 43.7703C245.381 43.5062 245.401 43.2395 245.403 42.9725C245.403 41.7111 244.853 40.6989 243.095 40.6989C241.513 40.6989 239.929 42.1747 239.601 43.7703H245.341Z" fill="white" style="fill:white;fill-opacity:1;"/>
<path d="M256.214 49.7064H254.574L254.867 48.2885H254.828C253.774 49.6871 252.542 50 251.528 50C248.893 50 248.13 48.1707 248.13 46.2274C248.13 42.6325 250.265 39.1342 253.617 39.1342C255.375 39.1342 255.999 40.1445 256.35 40.8824L257.485 35.5953H259.232L256.214 49.7064ZM249.906 45.9743C249.906 47.4714 250.533 48.5029 251.994 48.5029C253.695 48.5029 255.727 46.7335 255.727 42.9995C255.727 41.7768 255.317 40.6815 253.714 40.6815C250.628 40.6892 249.906 44.2822 249.906 45.9743Z" fill="white" style="fill:white;fill-opacity:1;"/>
<path d="M260.542 49.7064H258.805L260.994 39.4259H262.731L260.542 49.7064ZM261.402 37.5599L261.813 35.5953H263.55L263.143 37.5599H261.402Z" fill="white" style="fill:white;fill-opacity:1;"/>
<path d="M264.544 42.5533C265.091 40.0653 267.005 39.1342 269.561 39.1342C270.307 39.1342 272.824 39.3274 272.824 41.3673C272.824 42.0511 271.477 47.6858 271.477 48.0954C271.477 48.3465 271.596 48.5223 271.947 48.5223C272.137 48.5091 272.325 48.4832 272.512 48.445L272.24 49.7064C271.93 49.8104 271.608 49.8753 271.281 49.8996C270.344 49.8996 269.719 49.6291 269.719 48.756C269.723 48.6123 269.737 48.4691 269.759 48.3272C268.917 49.0457 267.708 50 265.697 50C264.053 50 263.001 49.0863 263.001 47.682C263.001 45.4837 264.876 44.0639 266.753 43.8321C267.395 43.7568 269.525 43.523 269.858 43.4458C270.798 43.2313 271.011 42.4799 271.011 41.8135C271.011 40.979 270.367 40.5695 268.942 40.5695C266.968 40.5695 266.419 41.7748 266.149 42.5514L264.544 42.5533ZM267.514 45.1012C266.167 45.2171 264.857 45.7619 264.857 47.2976C264.857 48.0954 265.363 48.559 266.438 48.559C268.057 48.559 269.837 47.5294 270.126 46.1501L270.479 44.4599C270.169 44.6743 268.96 44.9834 267.514 45.1012Z" fill="white" style="fill:white;fill-opacity:1;"/>
<path d="M44.0073 13.0565L42.7126 14.0667C41.1146 15.267 38.9291 16.6191 36.1561 18.1233C31.6702 20.5667 26.9974 22.6536 22.1812 24.3646C20.2369 25.0717 18.2348 25.6101 16.1973 25.9737C15.5529 26.078 14.9027 26.1669 14.2874 26.2287L13.1849 26.2924C12.1892 26.2924 11.6613 26.0548 11.5914 25.5507C11.5526 25.2435 11.6399 24.72 11.8554 24.0304C12.8064 21.0054 15.2941 17.7859 19.3183 14.3719C21.2913 12.672 23.4381 11.1829 25.7235 9.92904C27.711 8.80684 29.827 7.92674 32.0258 7.30773C39.4847 5.1244 47.4176 5.1244 54.8766 7.30773C55.3483 7.46227 56.0567 7.67475 56.9942 7.97223L60.911 2.30078L59.2263 1.87967C56.7263 1.28857 54.273 0.834619 51.8739 0.500435C49.2775 0.167362 46.6621 0.00217792 44.0441 0.0059216C40.5246 0.00329561 37.0111 0.297971 33.5416 0.886775C30.1973 1.48864 26.9047 2.34694 23.6932 3.454C20.7743 4.46089 17.9369 5.68785 15.2055 7.12422C12.3988 8.58587 10.0529 10.0862 8.16756 11.6251C6.39391 13.0721 4.82212 14.7482 3.49374 16.6088C2.42039 18.0731 1.69642 19.4465 1.31599 20.7407C0.687122 22.8926 1.37293 24.9731 3.3734 26.982C5.45604 29.0702 7.72502 30.4765 10.1959 31.2318C10.9671 31.4923 11.7622 31.6767 12.5696 31.7823C13.4379 31.9138 14.3157 31.9726 15.1938 31.9581C16.8197 31.9564 18.439 31.7546 20.0151 31.3573C21.7417 30.9468 23.4275 30.3817 25.0519 29.669C27.0177 28.8059 28.928 27.8227 30.7719 26.7251C33.235 25.3053 35.3331 23.9628 37.0742 22.7188L39.4227 20.9803L36.7772 24.5848C33.5138 28.841 30.1217 31.9104 26.6008 33.7932C24.4414 34.9368 22.1119 35.7285 19.7007 36.1383C16.8015 36.6418 13.8628 36.8855 10.9198 36.8665C9.54776 36.8891 8.1757 36.8207 6.81277 36.6618C6.06939 36.5884 5.00574 36.4358 3.61408 36.2001L0.00390625 41.8542L1.55667 42.1652C3.3389 42.5225 5.14372 42.7574 6.95834 42.8683C8.47034 42.9977 10.027 43.0615 11.603 43.0615C14.0047 43.0791 16.4045 42.9274 18.7846 42.6075C29.4637 41.2373 37.6668 37.0732 43.3939 30.1153C44.5954 28.6433 45.9055 26.8739 47.3224 24.7838L54.9795 13.0565H44.0073Z" fill="white" style="fill:white;fill-opacity:1;"/>
<path d="M89.1872 15.4535L93.8202 9.021L92.2791 9.04804C91.5415 9.10792 90.8118 9.15815 90.0936 9.24121C85.5595 9.77243 80.8353 11.5844 75.9596 14.7021C74.9153 15.3666 73.8245 16.147 72.6425 17.0665C72.0854 17.4741 71.3071 18.0942 70.2998 18.9113L72.6774 16.0137C74.2166 13.8947 75.1657 12.2662 75.5539 11.1401C75.6807 10.7363 75.757 10.3184 75.781 9.89605L75.7927 9.43824L64.0227 9.41892L64.0363 9.69129C64.0507 10.0731 63.9968 10.4544 63.8771 10.8175C63.7265 11.2855 63.5316 11.7383 63.2949 12.1697L62.3244 13.8908C61.8896 14.6075 61.5946 15.0923 61.4257 15.3415L50.8262 31.5562L62.4971 31.5774L62.8989 30.9631C63.4362 30.1424 64.033 29.3619 64.6846 28.6277C65.8291 27.2544 67.0824 25.9748 68.4326 24.801C69.5932 23.789 70.8214 22.8565 72.1087 22.0097C73.7197 20.899 75.3074 19.9216 76.8602 19.0639C80.2478 17.1966 83.2511 16.0376 85.8701 15.5868C86.6158 15.4477 87.3726 15.3766 88.1313 15.3743C88.3425 15.3714 88.5537 15.3798 88.764 15.3995L89.1872 15.4535Z" fill="white" style="fill:white;fill-opacity:1;"/>
<path d="M119.341 9.6643C117.272 9.2277 115.16 9.01783 113.045 9.03843C110.954 9.03349 108.867 9.19498 106.803 9.52135C104.692 9.8492 102.611 10.346 100.58 11.0068C98.6842 11.6066 96.874 12.4467 95.1938 13.5064C91.8185 15.6139 89.6912 18.1097 88.7886 20.9666C87.4442 25.2228 89.1535 28.3612 93.9166 30.3817C95.3395 31.0103 96.8411 31.445 98.3808 31.674C99.8955 31.937 101.432 32.0548 102.969 32.0256C108.755 32.0063 113.891 30.9303 118.392 28.7417C122.977 26.4997 125.927 23.4231 127.243 19.5121C127.899 17.194 127.497 15.1542 126.053 13.3809C124.639 11.5599 122.401 10.3211 119.341 9.6643ZM117.672 15.2199L117.592 15.4768L117.047 16.9738C116.826 17.4645 116.589 17.9551 116.325 18.4342C115.927 19.1551 115.473 19.8436 114.966 20.4934C113.557 22.296 111.836 23.8333 109.883 25.0329C107.397 26.5608 104.932 27.3277 102.507 27.2968C102.031 27.3132 101.555 27.2841 101.085 27.2099L99.9588 27.0032C99.5852 26.9493 99.2179 26.8587 98.8622 26.7328L98.1906 26.4836C98.2402 25.8807 98.36 25.2856 98.5478 24.7103C99.3241 22.248 100.922 19.9261 103.342 17.7446C106.207 15.1342 109.477 13.8071 113.153 13.7634C113.72 13.7634 114.33 13.8155 114.947 13.8599L116.608 14.0802C116.965 14.1458 117.27 14.2328 117.548 14.2965L117.827 14.3873L117.672 15.2199Z" fill="white" style="fill:white;fill-opacity:1;"/>
<path d="M151.792 26.3271C150.707 26.4681 149.692 26.5608 148.743 26.6419L146.373 26.7771L144.471 26.8216C142.813 26.8409 142.103 26.4971 142.336 25.8268L142.652 25.226L142.978 24.6465L143.906 23.1919L145.391 20.9338L149.539 14.7253L162.306 14.7408L165.74 9.49427H153.123L157.832 2.56528L146.027 2.55176L141.454 9.48654H135.018L131.542 14.7369H137.908L133.627 21.2641C132.479 22.9659 131.728 24.3548 131.379 25.3921C131.26 25.684 131.22 26.0014 131.261 26.3135C131.208 27.32 131.878 28.4384 133.256 29.6515C134.97 31.3089 137.494 32.1112 140.826 32.0584C143.011 32.0816 145.868 31.8627 149.395 31.4016L151.774 31.0462L155.292 25.7881L153.964 26.0238L151.792 26.3271Z" fill="white" style="fill:white;fill-opacity:1;"/>
<path d="M201.313 13.829L201.092 13.2495C200.98 13.0873 200.848 12.8999 200.685 12.699C199.679 11.596 198.024 10.6533 195.706 9.91541C195.03 9.69762 194.342 9.51578 193.647 9.37067L192.676 9.21228L191.814 9.13694C191.279 9.10217 190.819 9.09637 190.444 9.09637C184.859 9.1994 179.053 10.5368 173.026 13.1085C166.481 15.9185 162.664 19.1418 161.574 22.7786C160.835 25.199 161.4 27.2466 163.304 28.931C165.106 30.4957 167.804 31.4525 171.398 31.8015C173.414 32.0114 175.44 32.1075 177.467 32.0893C180.519 32.104 183.567 31.9 186.589 31.4789C187.836 31.3437 188.975 31.1467 190.013 30.9342L191.605 30.5846L195.856 24.7161L194.885 25.0367C193.808 25.3612 192.569 25.6549 191.143 25.935C189.716 26.2151 188.363 26.4063 186.958 26.5454C185.176 26.7534 183.384 26.854 181.59 26.8467C180.463 26.8611 179.336 26.8159 178.214 26.7115C177.358 26.6584 176.506 26.5461 175.666 26.3754C174.325 26.1397 173.486 25.6858 173.162 24.9962L173.036 24.6658C173.775 24.6427 174.352 24.6195 174.75 24.5693C178.917 24.2339 183.055 23.5987 187.131 22.6685C188.814 22.3026 190.477 21.8513 192.113 21.3163C195.995 20.0665 198.627 18.6119 200.034 16.9159C200.542 16.2939 200.936 15.5885 201.199 14.8316C201.285 14.5045 201.323 14.1669 201.313 13.829ZM192.773 15.019L192.385 15.3802L191.941 15.7144C190.821 16.4451 189.604 17.0167 188.325 17.4123C186.626 18.023 184.882 18.4978 183.107 18.8321L180.365 19.3112C178.936 19.5217 177.634 19.684 176.46 19.7748C175.941 19.8308 175.196 19.8868 174.206 19.9274L174.887 19.288C175.279 18.9354 175.706 18.6228 176.161 18.355C176.821 17.903 177.444 17.5205 178.016 17.1825C179.527 16.335 181.12 15.64 182.77 15.1078C185.05 14.2889 187.452 13.8566 189.875 13.829L191.073 13.9024C192.432 14.057 193.07 14.3332 192.981 14.7099L192.773 15.019Z" fill="white" style="fill:white;fill-opacity:1;"/>
<path d="M220.069 26.8814C217.709 26.8988 215.946 26.5337 214.797 25.7688C213.474 24.8976 213.05 23.7308 213.557 22.2666C213.992 20.9782 214.956 19.5622 216.447 18.0362C217.237 17.1941 218.101 16.4241 219.029 15.7356L220.348 14.7581L221.618 14.6152C222.273 14.5237 222.933 14.4675 223.594 14.4471C224.599 14.4066 225.591 14.3737 226.567 14.3641C229.181 14.3552 231.791 14.5489 234.374 14.9436L234.977 15.0633L238.809 9.87673L237.196 9.5947C234.78 9.26302 232.343 9.10164 229.904 9.11178C227.58 9.11856 225.261 9.30067 222.965 9.65652C220.865 9.96751 218.793 10.4383 216.765 11.0647C214.97 11.6105 213.218 12.2898 211.525 13.0969C209.842 13.8488 208.239 14.7664 206.74 15.836C205.393 16.7557 204.197 17.8764 203.192 19.1585C202.381 20.1362 201.783 21.2709 201.436 22.4907C200.631 24.9581 201.177 27.0289 203.074 28.703C204.756 30.1943 207.454 31.2001 211.168 31.7203C212.918 31.9904 214.688 32.1196 216.459 32.1067C217.894 32.1145 219.329 32.0397 220.756 31.8826C221.645 31.8092 222.503 31.7088 223.341 31.5658L224.62 31.3726L229.325 25.3226L227.384 25.8885C224.995 26.5095 222.539 26.8428 220.069 26.8814Z" fill="white" style="fill:white;fill-opacity:1;"/>
<path d="M269.917 28.9773C269.329 29.0965 268.732 29.1695 268.132 29.1956C267.027 29.1493 266.239 28.2124 265.758 26.3947C265.457 25.2241 265.239 24.0338 265.108 22.8326L264.762 19.3845L264.626 17.3678L280 9.57926L266.895 9.55994L265.618 10.1993C264.098 10.943 262.53 11.8026 260.931 12.7472C259.331 13.6918 257.567 14.791 255.647 16.0717C254.176 17.0375 252.748 18.0169 251.387 18.9692L249.213 20.5146L254.817 12.2315L256.645 9.56767L258.235 7.09896C258.764 6.26833 259.127 5.68496 259.325 5.33532C259.65 4.74036 259.943 4.13767 260.22 3.55816L260.688 2.2871C260.903 1.54533 260.987 0.979347 260.95 0.593008L249.341 0.575623C249.436 1.00639 249.38 1.55306 249.161 2.22143L248.609 3.67406L247.926 5.00114C247.299 6.05971 246.626 7.14532 245.923 8.25411L230.396 31.7049H241.471L242.655 30.7178C243.663 29.8975 245.16 28.7887 247.146 27.3914C248.838 26.2189 250.182 25.309 251.187 24.6697L254.137 22.9176L254.302 24.4417C254.384 25.1564 254.496 25.9716 254.69 26.8988C254.861 27.7565 255.109 28.597 255.432 29.41C256.096 31.2471 257.745 32.1666 260.393 32.1511C263.18 32.1245 265.957 31.8105 268.679 31.2142C269.11 31.1447 269.744 30.9882 270.62 30.77L272.05 28.564L271.249 28.7436L269.917 28.9773Z" fill="white" style="fill:white;fill-opacity:1;"/>
</g>
<defs>
<clipPath id="clip0_313_16429">
<rect width="280" height="50" fill="white" style="fill:white;fill-opacity:1;"/>
</clipPath>
</defs>
</svg>
