<svg width="289" height="53" viewBox="0 0 289 53" fill="none" xmlns="http://www.w3.org/2000/svg">
<mask id="mask0_313_16403" style="mask-type:luminance" maskUnits="userSpaceOnUse" x="0" y="0" width="289" height="53">
<path d="M289 0H0V52.824H289V0Z" fill="white" style="fill:white;fill-opacity:1;"/>
</mask>
<g mask="url(#mask0_313_16403)">
<path d="M1.46985 9.66626H10.9312C22.1744 9.66626 31.2829 18.7637 31.2829 29.9832V39.4283C31.2829 40.2409 30.6227 40.8956 29.8132 40.8956H1.46985C0.655767 40.8956 0 40.2364 0 39.4283V11.1336C0 10.3209 0.660312 9.66626 1.46985 9.66626Z" fill="white" style="fill:white;fill-opacity:1;"/>
<path fill-rule="evenodd" clip-rule="evenodd" d="M277.408 9.63042C277.514 9.63042 277.595 9.7117 277.595 9.81553V13.9602C277.595 14.1452 277.839 14.2219 277.947 14.0729C278.331 13.563 278.775 13.0572 279.276 12.556C280.23 11.6033 281.415 10.8133 282.807 10.1767C284.292 9.48142 286.015 9.14282 287.946 9.14282H288.806C288.911 9.14282 288.992 9.22408 288.992 9.32794V14.9625C288.992 15.0663 288.911 15.1475 288.806 15.1475H287.702C285.595 15.1475 283.808 15.7255 282.298 16.8631C280.795 17.9873 279.628 19.4683 278.793 21.3284C277.992 23.157 277.59 25.1209 277.59 27.2293V41.0359C277.59 41.1396 277.508 41.2208 277.403 41.2208H271.76C271.655 41.2208 271.573 41.1396 271.573 41.0359V9.81553C271.573 9.7117 271.66 9.63042 271.76 9.63042H277.403H277.408Z" fill="white" style="fill:white;fill-opacity:1;"/>
<path fill-rule="evenodd" clip-rule="evenodd" d="M243.48 11.364C241.11 12.7998 239.287 14.7728 238.017 17.2603C236.75 19.7029 236.126 22.4345 236.126 25.4277C236.126 28.4213 236.773 31.121 238.08 33.6043V33.6133C239.432 36.0966 241.314 38.0786 243.72 39.5549H243.729C246.153 41.0041 248.961 41.7129 252.136 41.7129C255.831 41.7129 258.92 40.8417 261.33 39.0357C263.736 37.2253 265.486 34.9046 266.587 32.0826L266.881 31.3241C266.926 31.2022 266.839 31.0714 266.708 31.0714H260.612C260.544 31.0714 260.481 31.1076 260.45 31.1707L260.289 31.4642C259.548 32.8367 258.508 33.9701 257.161 34.8683C255.858 35.6946 254.217 36.1326 252.199 36.1326C250.3 36.1326 248.658 35.7353 247.256 34.9632C245.836 34.1416 244.701 33.0626 243.842 31.7261C243.195 30.6334 242.729 29.4596 242.449 28.2045C242.422 28.0915 242.512 27.9833 242.63 27.9833H267.359C267.464 27.9833 267.546 27.9021 267.546 27.7981V25.4325C267.546 22.4345 266.92 19.7077 265.654 17.2651C264.388 14.7773 262.564 12.8087 260.195 11.3732C257.843 9.8832 255.049 9.15179 251.838 9.15179C248.627 9.15179 245.868 9.8832 243.484 11.3687L243.48 11.364ZM261.135 22.0507C261.164 22.1681 261.077 22.2766 260.957 22.2766H242.725C242.602 22.2766 242.517 22.1636 242.544 22.0462C243.055 20.1049 243.991 18.4615 245.352 17.1024C246.958 15.5358 249.092 14.7277 251.829 14.7277C254.565 14.7277 256.7 15.5358 258.306 17.1069C259.703 18.4705 260.644 20.1094 261.127 22.0507H261.135Z" fill="white" style="fill:white;fill-opacity:1;"/>
<path fill-rule="evenodd" clip-rule="evenodd" d="M182.384 11.0345C180.095 12.4748 178.318 14.4431 177.051 16.9264C175.785 19.3687 175.161 22.1003 175.161 25.0983C175.161 28.096 175.79 30.7824 177.051 33.2657C178.318 35.7487 180.095 37.7352 182.379 39.2162H182.384L182.393 39.2251C184.735 40.6699 187.449 41.3832 190.506 41.3832C193.093 41.3832 195.355 40.8822 197.254 39.8483C198.367 39.2569 199.362 38.5434 200.234 37.7173C200.357 37.6044 200.56 37.6856 200.56 37.8526V40.7151C200.56 40.8188 200.641 40.9003 200.746 40.9003H206.39C206.494 40.9003 206.575 40.8188 206.575 40.7151V9.4813C206.575 9.37747 206.494 9.29621 206.39 9.29621H200.746C200.641 9.29621 200.56 9.37747 200.56 9.4813V12.3663C200.56 12.5334 200.357 12.6193 200.234 12.5018C199.362 11.6619 198.367 10.9441 197.254 10.3482C195.355 9.31426 193.093 8.81311 190.506 8.81311C187.449 8.81311 184.731 9.54903 182.384 11.0345ZM196.368 34.3536C197.82 33.3876 198.919 32.1097 199.665 30.5071C200.42 28.8411 200.804 27.044 200.804 25.0938C200.804 23.1433 200.42 21.3058 199.669 19.6848C198.923 18.0822 197.824 16.7998 196.372 15.8337H196.363C194.984 14.8856 193.247 14.3935 191.112 14.3935C188.978 14.3935 187.259 14.8856 185.785 15.8382C184.288 16.809 183.152 18.0911 182.366 19.6985C181.574 21.3148 181.176 23.1071 181.176 25.0938C181.176 27.0803 181.574 28.8319 182.37 30.4934C183.157 32.0963 184.292 33.3784 185.785 34.3492C187.254 35.3018 189.018 35.7939 191.112 35.7939C193.206 35.7939 194.984 35.3018 196.363 34.3581H196.372L196.368 34.3536Z" fill="white" style="fill:white;fill-opacity:1;"/>
<path fill-rule="evenodd" clip-rule="evenodd" d="M148.925 11.0293C146.556 12.4651 144.733 14.4334 143.467 16.9257C142.2 19.3682 141.576 22.0998 141.576 25.0975C141.576 28.0955 142.223 30.7908 143.53 33.2739V33.2831C144.882 35.7661 146.764 37.7481 149.17 39.2246H149.179C151.603 40.6739 154.411 41.3827 157.586 41.3827C161.281 41.3827 164.37 40.5112 166.781 38.7052C169.187 36.8948 170.937 34.5744 172.036 31.7524L172.33 30.9939C172.375 30.872 172.285 30.7412 172.158 30.7412H166.062C165.994 30.7412 165.931 30.7772 165.899 30.8405L165.741 31.134C164.999 32.5065 163.959 33.6396 162.611 34.5381C161.309 35.3644 159.671 35.8024 157.65 35.8024C155.75 35.8024 154.109 35.4051 152.706 34.633C151.286 33.8112 150.151 32.7321 149.292 31.3959C148.645 30.3032 148.179 29.1294 147.899 27.8743C147.872 27.7613 147.962 27.6531 148.08 27.6531H172.809C172.913 27.6531 172.995 27.5716 172.995 27.4679V25.102C172.995 22.1043 172.371 19.3772 171.104 16.9346C169.838 14.4471 168.015 12.4785 165.646 11.0382C163.294 9.54842 160.499 8.81702 157.288 8.81702C154.077 8.81702 151.318 9.54842 148.93 11.0338L148.925 11.0293ZM166.582 21.716C166.609 21.8334 166.523 21.9417 166.401 21.9417H148.175C148.053 21.9417 147.967 21.829 147.994 21.7115C148.505 19.77 149.441 18.1266 150.802 16.7678C152.408 15.2011 154.543 14.393 157.279 14.393C160.015 14.393 162.15 15.2011 163.755 16.7722C165.148 18.1358 166.093 19.7747 166.577 21.716H166.582Z" fill="white" style="fill:white;fill-opacity:1;"/>
<path fill-rule="evenodd" clip-rule="evenodd" d="M113.391 9.29621C113.495 9.29621 113.577 9.37747 113.577 9.4813V12.3032C113.577 12.47 113.785 12.5559 113.902 12.4385C114.762 11.6122 115.738 10.9126 116.828 10.3437C118.769 9.31426 121.043 8.81311 123.63 8.81311C126.688 8.81311 129.383 9.54452 131.69 11.0345C134.019 12.4748 135.819 14.4431 137.081 16.9264C138.347 19.3687 138.971 22.1003 138.971 25.0938C138.971 28.0871 138.342 30.7779 137.081 33.261C135.814 35.7487 134.014 37.7352 131.69 39.2117C129.383 40.6654 126.688 41.3742 123.63 41.3742C121.039 41.3742 118.764 40.8732 116.824 39.8391H116.815L116.806 39.8302C115.725 39.2162 114.757 38.4984 113.902 37.6677C113.78 37.5502 113.577 37.6359 113.577 37.803V52.6342C113.577 52.7382 113.495 52.8194 113.391 52.8194H107.747C107.643 52.8194 107.562 52.7382 107.562 52.6342V9.4813C107.562 9.37747 107.643 9.29621 107.747 9.29621H113.391ZM128.352 34.3492H128.343C126.918 35.3018 125.159 35.7939 123.024 35.7939C120.89 35.7939 119.194 35.3018 117.765 34.3536C116.313 33.3876 115.214 32.1097 114.468 30.5071C113.712 28.8411 113.328 27.044 113.328 25.0983C113.328 23.1523 113.712 21.3103 114.463 19.6895C115.209 18.0866 116.308 16.8045 117.76 15.8382C119.185 14.89 120.926 14.3979 123.02 14.3979C125.114 14.3979 126.914 14.89 128.339 15.8382H128.347C129.844 16.8134 130.98 18.0956 131.767 19.7029C132.558 21.3192 132.956 23.1115 132.956 25.0983C132.956 27.0848 132.558 28.8366 131.762 30.4979C130.975 32.1008 129.84 33.3829 128.347 34.3536L128.352 34.3492Z" fill="white" style="fill:white;fill-opacity:1;"/>
<path fill-rule="evenodd" clip-rule="evenodd" d="M85.857 35.2703C84.7536 34.7194 83.9667 34.0421 83.451 33.261C82.94 32.3806 82.6371 31.5002 82.533 30.6108L82.4742 30.1187C82.4652 30.0239 82.3838 29.9561 82.2887 29.9561H76.4908C76.3823 29.9561 76.2964 30.0465 76.3053 30.1547L76.3461 30.7509C76.4772 32.6517 77.0833 34.417 78.1552 36.0467V36.0559C79.2495 37.6677 80.8053 38.9498 82.7952 39.9206H82.7999C84.8576 40.9047 87.327 41.3832 90.1807 41.3832C94.016 41.3832 97.159 40.6024 99.5336 38.9635C102.003 37.2476 103.233 34.7601 103.233 31.6042C103.233 29.5951 102.718 27.9155 101.6 26.6557C100.547 25.4322 99.1989 24.5022 97.5707 23.8611C95.9967 23.2426 94.3234 22.7684 92.555 22.439C90.8772 22.0777 89.2806 21.7212 87.761 21.3644C86.2913 20.9761 85.129 20.484 84.2515 19.9015C83.5054 19.405 83.1344 18.7187 83.1344 17.748C83.1344 16.5515 83.6049 15.7163 84.5726 15.1338C85.5948 14.5154 87.2274 14.1586 89.5702 14.1586C92.0532 14.1586 93.6361 14.6191 94.5178 15.3687H94.5226L94.527 15.3776C95.5265 16.195 96.0556 17.134 96.1914 18.2085L96.2547 18.6961C96.2681 18.791 96.3451 18.8588 96.44 18.8588H102.139C102.251 18.8588 102.338 18.7639 102.324 18.651L102.256 18.0325C102.08 16.4207 101.515 14.9218 100.565 13.5401C99.6331 12.1269 98.2536 11.0027 96.4762 10.154C94.6897 9.24204 92.4105 8.81311 89.6923 8.81311C85.7123 8.81311 82.5693 9.58968 80.3713 11.2512C78.1912 12.8946 77.1195 15.2331 77.1195 18.1678C77.1195 20.1454 77.6395 21.8024 78.7566 23.0574L78.761 23.0666C79.8148 24.2042 81.1582 25.0846 82.7771 25.7212H82.7863L82.7952 25.7257C84.36 26.2992 86.0018 26.7732 87.725 27.1389C89.4435 27.5001 91.0627 27.8793 92.5731 28.2768H92.5823H92.5913C94.0565 28.6243 95.2054 29.112 96.0737 29.726C96.8291 30.2588 97.209 30.9902 97.209 32.0104C97.209 32.8682 96.9738 33.5048 96.5485 33.9924C96.0692 34.5389 95.4676 34.9542 94.7304 35.234H94.7259H94.7215C93.9753 35.532 93.1882 35.7398 92.3651 35.848C91.4967 35.9655 90.7913 36.0241 90.2351 36.0241C88.3716 36.0241 86.9245 35.7532 85.8526 35.2566L85.857 35.2703Z" fill="white" style="fill:white;fill-opacity:1;"/>
<path fill-rule="evenodd" clip-rule="evenodd" d="M38.1757 9.66626C38.0717 9.66626 37.9902 9.74752 37.9902 9.85138V40.7104C37.9902 40.8142 38.0717 40.8956 38.1757 40.8956H43.7613C43.8653 40.8956 43.9465 40.8142 43.9465 40.7104V9.85138C43.9465 9.74752 43.8653 9.66626 43.7613 9.66626H38.1757Z" fill="white" style="fill:white;fill-opacity:1;"/>
<path d="M43.7658 0H38.1757C38.0733 0 37.9902 0.0828638 37.9902 0.185117V5.76547C37.9902 5.8677 38.0733 5.95059 38.1757 5.95059H43.7658C43.8682 5.95059 43.9513 5.8677 43.9513 5.76547V0.185117C43.9513 0.0828638 43.8682 0 43.7658 0Z" fill="white" style="fill:white;fill-opacity:1;"/>
<path d="M73.5607 35.2155H67.9706C67.8682 35.2155 67.7852 35.2985 67.7852 35.4007V40.981C67.7852 41.0832 67.8682 41.166 67.9706 41.166H73.5607C73.6632 41.166 73.7462 41.0832 73.7462 40.981V35.4007C73.7462 35.2985 73.6632 35.2155 73.5607 35.2155Z" fill="white" style="fill:white;fill-opacity:1;"/>
<path fill-rule="evenodd" clip-rule="evenodd" d="M63.1269 15.617C63.231 15.617 63.3124 15.5356 63.3124 15.4318V9.85599C63.3124 9.75216 63.231 9.6709 63.1269 9.6709H55.1174V4.13116C55.1174 4.02733 55.036 3.94604 54.9319 3.94604H49.3466C49.2426 3.94604 49.1611 4.02733 49.1611 4.13116V32.2001C49.1611 33.6675 49.5773 35.8029 50.9159 37.6541C52.3359 39.618 54.6516 41.0627 57.9034 41.1213H57.9123H63.1269C63.231 41.1213 63.3124 41.0401 63.3124 40.9363V35.3605C63.3124 35.2567 63.231 35.1753 63.1269 35.1753H57.926H57.9123C56.6326 35.1301 56.0761 34.638 55.7506 34.1821C55.2982 33.559 55.1219 32.7193 55.1219 32.2001V15.617H63.1314H63.1269Z" fill="white" style="fill:white;fill-opacity:1;"/>
<path fill-rule="evenodd" clip-rule="evenodd" d="M218.248 23.6081V0.410861C218.248 0.307031 218.167 0.225769 218.063 0.225769H212.477C212.373 0.225769 212.292 0.307031 212.292 0.410861V40.7151C212.292 40.8189 212.373 40.9 212.477 40.9H218.063C218.167 40.9 218.248 40.8189 218.248 40.7151V27.3375L229.293 40.8323C229.329 40.8775 229.383 40.9 229.437 40.9H236.479C236.637 40.9 236.723 40.7196 236.624 40.5977L224.476 25.5901C224.422 25.5226 224.422 25.4278 224.476 25.36L236.705 9.97334C236.8 9.85144 236.714 9.67084 236.56 9.67084H229.333C229.274 9.67084 229.22 9.69793 229.189 9.74309L218.248 23.6126V23.6081Z" fill="white" style="fill:white;fill-opacity:1;"/>
</g>
</svg>
