<svg width="157" height="36" viewBox="0 0 157 36" fill="none" xmlns="http://www.w3.org/2000/svg">
<path d="M4.65799 1.67993H0.328125V34.2379H4.65799V1.67993Z" fill="white" style="fill:white;fill-opacity:1;"/>
<path d="M77.2732 1.67993H72.9434V34.2379H77.2732V1.67993Z" fill="white" style="fill:white;fill-opacity:1;"/>
<path d="M90.3561 1.44714H60.1953V5.84885H90.3561V1.44714Z" fill="white" style="fill:white;fill-opacity:1;"/>
<path d="M117.273 15.6007H95V20.0024H117.273V15.6007Z" fill="white" style="fill:white;fill-opacity:1;"/>
<path d="M119.007 34.7035H101.684C96.9632 34.7035 94.5674 32.617 94.5674 28.4998V7.34485C94.5674 3.21472 96.7978 0.843567 100.678 0.843567H118.854V5.24529H100.678C99.8768 5.24529 99.5161 5.4048 99.3597 5.53844C99.0671 5.77987 98.9017 6.43951 98.9017 7.34485V28.4998C98.9017 28.974 98.9477 29.5862 99.1767 29.7931C99.3 29.9139 99.8469 30.2932 101.684 30.2932H119.007V34.7035Z" fill="white" style="fill:white;fill-opacity:1;"/>
<path d="M55.0349 34.7035H35.9513C33.8775 34.7035 32.321 33.7163 31.791 32.0608C31.1506 30.0777 32.215 27.6461 34.3906 26.0252C35.4466 25.2362 37.6221 23.8092 40.1411 22.1451C43.2242 20.1275 46.7186 17.834 48.1731 16.6915C50.3826 14.967 51.604 13.984 51.604 9.38831C51.635 8.89112 51.5303 8.39483 51.3012 7.95435C51.0722 7.5138 50.7279 7.14621 50.3063 6.89216C49.2885 6.21961 47.6558 5.84885 45.7136 5.84885H34.5263V1.44714H45.7263C52.0323 1.44714 55.9467 4.49083 55.9467 9.38831C55.9467 15.6568 53.8262 17.8123 50.8577 20.1662C49.2546 21.4295 45.828 23.6713 42.516 25.8441C40.1581 27.3875 37.9317 28.8619 37.0029 29.556C36.7214 29.7637 36.4726 30.0137 36.265 30.2975H55.0349V34.7035Z" fill="white" style="fill:white;fill-opacity:1;"/>
<path d="M30.7344 35.8072L30.8306 35.6822L30.7344 35.6003V35.8072Z" fill="white" style="fill:white;fill-opacity:1;"/>
<path d="M29.1066 34.2337C22.9277 29.0387 13.1315 20.7181 11.2825 18.8643C10.6633 18.2478 10.4344 17.821 10.4344 17.627C10.4344 17.433 10.6888 16.9329 11.3885 16.2647C12.9788 14.7558 24.6791 4.23649 27.5035 1.68427H20.9981C16.4435 5.80145 9.67942 11.8845 8.45385 13.0485C6.9017 14.5186 6.13836 15.9931 6.1214 17.5666C6.10443 19.1402 6.79569 20.55 8.24177 22.0028C9.93815 23.6885 17.0881 29.7975 22.3255 34.2337H29.1066Z" fill="white" style="fill:white;fill-opacity:1;"/>
<path d="M151.573 34.8588H156.728C154.257 31.2331 148.082 22.1624 146.551 19.8084C145.47 18.1357 145.466 17.1915 146.53 15.605C147.802 13.7383 155.3 2.14985 156.314 0.5849H151.224C148.68 4.51669 143.96 11.794 143.023 13.1736C140.991 16.1914 140.983 19.0583 143.023 22.1796C144.299 24.1627 148.663 30.5864 151.573 34.8588Z" fill="white" style="fill:white;fill-opacity:1;"/>
<path d="M135.063 19.8084C133.541 22.1624 127.366 31.2331 124.885 34.8588H130.042C132.951 30.5864 137.315 24.1627 138.595 22.1796C140.614 19.0583 140.61 16.1957 138.574 13.1693C137.646 11.794 132.93 4.51669 130.381 0.5849H125.291C126.306 2.14985 133.82 13.7383 135.075 15.605C136.148 17.1915 136.144 18.1357 135.063 19.8084Z" fill="white" style="fill:white;fill-opacity:1;"/>
</svg>
