<svg width="252" height="73" viewBox="0 0 252 73" fill="none" xmlns="http://www.w3.org/2000/svg">
<g clip-path="url(#clip0_809_1341)">
<path d="M73.9004 67.4001C72.8004 68.3001 71.7004 68.4001 71.0004 68.4001C70.3004 68.4001 69.0004 68.2001 68.3004 67.3001C67.5004 66.4001 67.4004 65.3001 67.4004 64.3001C67.4004 61.9001 68.2004 59.4001 69.5004 57.9001C70.1004 57.3001 71.1004 56.4001 73.1004 56.4001C75.1004 56.4001 75.2004 56.9001 75.7004 57.4001C76.4004 58.2001 76.6004 59.2001 76.6004 60.3001C76.6004 62.8001 75.8004 65.7001 74.0004 67.3001L73.9004 67.4001ZM74.4004 58.1001C74.0004 57.7001 73.4004 57.6001 72.9004 57.6001C72.4004 57.6001 71.2004 57.8001 70.3004 58.9001C69.4004 60.2001 68.8004 62.5001 68.8004 64.6001C68.8004 66.7001 68.8004 66.0001 69.3004 66.6001C69.6004 67.0001 70.1004 67.4001 71.1004 67.4001C72.1004 67.4001 72.9004 66.9001 73.3004 66.4001C74.5004 65.1001 75.1004 62.0001 75.1004 60.3001C75.1004 58.6001 75.1004 58.8001 74.4004 58.2001V58.1001Z" fill="white" style="fill:white;fill-opacity:1;"/>
<path d="M80.1006 59.6001C80.2006 59.9001 80.3006 60.3001 80.3006 60.5001C80.3006 60.7001 80.3006 61.1001 80.3006 61.4001C80.6006 60.9001 81.1006 60.5001 81.7006 60.1001C82.1006 59.9001 82.6006 59.7001 83.2006 59.7001C83.8006 59.7001 84.5006 60.1001 84.7006 60.3001C85.2006 60.9001 85.3006 61.8001 85.3006 62.4001C85.3006 63.6001 85.0006 65.6001 83.9006 67.0001C82.9006 68.2001 81.8006 68.5001 80.9006 68.5001C80.0006 68.5001 79.6006 68.3001 79.1006 68.1001L78.4006 71.6001L77.1006 71.9001L79.0006 62.4001C79.2006 61.7001 79.2006 61.3001 79.2006 61.1001C79.2006 60.9001 79.2006 60.6001 79.1006 60.4001L80.3006 59.8001L80.1006 59.6001ZM79.1006 66.9001C79.4006 67.2001 79.9006 67.4001 80.6006 67.4001C81.3006 67.4001 82.0006 67.3001 82.7006 66.3001C83.3006 65.4001 83.7006 63.7001 83.7006 62.5001C83.7006 61.3001 83.7006 61.5001 83.3006 61.2001C83.1006 61.0001 82.8006 60.9001 82.5006 60.9001C81.8006 60.9001 81.3006 61.2001 81.0006 61.5001C80.5006 61.9001 80.1006 62.3001 79.8006 62.8001L79.0006 66.9001H79.1006Z" fill="white" style="fill:white;fill-opacity:1;"/>
<path d="M92.5002 67.2002C91.5002 68.3002 90.2002 68.4002 89.5002 68.4002C88.8002 68.4002 88.0002 68.4002 87.4002 67.6002C86.9002 67.0002 86.7002 66.1002 86.7002 65.4002C86.7002 64.2002 87.1002 62.3002 88.4002 60.9002C89.3002 60.0002 90.2002 59.7002 91.0002 59.7002C91.8002 59.7002 92.4002 60.0002 92.7002 60.3002C93.1002 60.8002 93.2002 61.4002 93.2002 61.8002C93.2002 62.2002 93.2002 62.9002 92.5002 63.6002C91.7002 64.3002 90.3002 64.5002 89.1002 64.5002C87.9002 64.5002 88.4002 64.5002 88.1002 64.5002C88.1002 64.9002 88.0002 65.3002 88.0002 65.6002C88.0002 66.3002 88.3002 66.7002 88.5002 67.0002C88.9002 67.4002 89.4002 67.4002 89.7002 67.4002C90.6002 67.4002 91.3002 67.1002 91.7002 66.6002L91.9002 66.4002L92.4002 67.2002H92.5002ZM89.4002 63.6002C90.3002 63.6002 91.0002 63.6002 91.5002 63.1002C92.1002 62.7002 92.1002 62.2002 92.1002 61.9002C92.1002 61.0002 91.5002 60.7002 90.9002 60.7002C90.3002 60.7002 90.0002 60.9002 89.4002 61.5002C89.0002 61.9002 88.6002 62.6002 88.4002 63.6002C88.7002 63.6002 89.1002 63.6002 89.4002 63.6002Z" fill="white" style="fill:white;fill-opacity:1;"/>
<path d="M96.9004 59.6001C96.9004 59.7001 97.1004 60.1001 97.1004 60.6001C97.1004 61.1001 97.1004 61.3001 97.0004 61.4001C97.7004 60.4001 98.9004 59.6001 100.1 59.6001C101.3 59.6001 101 59.7001 101.3 60.0001C101.7 60.4001 101.7 60.9001 101.7 61.2001C101.7 61.5001 101.7 61.6001 101.7 61.7001L100.4 68.1001H99.2004L100.3 62.4001C100.3 62.1001 100.4 61.7001 100.4 61.5001C100.4 61.3001 100.4 61.0001 100.2 60.9001C100 60.7001 99.8004 60.7001 99.6004 60.7001C99.2004 60.7001 98.8004 60.9001 98.5004 61.1001C98.0004 61.4001 97.4004 62.0001 96.8004 62.7001L95.7004 68.2001H94.4004L95.6004 62.2001C95.6004 61.8001 95.8004 61.4001 95.8004 60.9001C95.8004 60.4001 95.8004 60.4001 95.7004 60.1001L96.9004 59.5001V59.6001Z" fill="white" style="fill:white;fill-opacity:1;"/>
<path d="M114.3 58.5001C113.9 58.2001 113.1 57.6001 111.9 57.6001C110.7 57.6001 110.5 57.9001 110.3 58.0001C109.6 58.5001 109.4 59.1001 109.4 59.7001C109.4 60.3001 109.4 60.2001 109.6 60.5001C109.8 60.8001 110.1 61.1001 110.8 61.3001L111.9 61.8001C112.4 62.1001 112.9 62.3001 113.3 63.0001C113.6 63.5001 113.7 64.0001 113.7 64.7001C113.7 65.8001 113.3 66.7001 112.5 67.4001C111.8 68.0001 110.8 68.4001 109.2 68.4001C107.6 68.4001 107.2 68.2001 106.2 67.5001L106.8 66.4001C107.9 67.2001 108.8 67.3001 109.4 67.3001C110 67.3001 110.9 67.2001 111.5 66.6001C112.1 66.1001 112.3 65.5001 112.3 64.9001C112.3 64.3001 111.9 63.5001 110.8 63.0001L109.8 62.6001C108.5 62.0001 107.9 61.2001 107.9 60.0001C107.9 58.8001 108.2 57.9001 109.5 57.1001C110.2 56.7001 111.1 56.5001 111.9 56.5001C112.7 56.5001 113.9 56.7001 114.8 57.5001L114.1 58.5001H114.3Z" fill="white" style="fill:white;fill-opacity:1;"/>
<path d="M118.7 67.9001C118 69.3001 117.4 70.4001 116.7 71.0001C116.4 71.3001 115.8 71.6001 115.2 71.7001L114.9 70.8001C115.5 70.7001 116 70.4001 116.3 70.0001C116.5 69.8001 116.9 69.3001 117.3 68.2001H116.8C116.8 67.5001 116.7 65.8001 116.6 65.3001L115.9 59.9001L117.2 59.6001L117.7 65.0001C117.7 65.6001 117.7 66.1001 117.7 67.1001C118.2 66.2001 118.4 65.8001 118.6 65.3001L121.3 59.8001H122.7L118.6 67.8001L118.7 67.9001Z" fill="white" style="fill:white;fill-opacity:1;"/>
<path d="M128.301 61.3001C127.401 60.8001 126.801 60.7001 126.501 60.7001C125.901 60.7001 125.501 60.8001 125.201 61.0001C125.001 61.1001 124.701 61.4001 124.701 62.0001C124.701 62.6001 124.701 62.4001 124.801 62.5001C124.901 62.7001 125.301 62.9001 125.501 63.0001L126.501 63.4001C127.001 63.6001 127.401 63.8001 127.801 64.3001C128.001 64.6001 128.201 65.0001 128.201 65.5001C128.201 66.0001 128.001 67.0001 127.101 67.6001C126.401 68.1001 125.601 68.3001 124.801 68.3001C123.601 68.3001 122.801 67.9001 122.101 67.5001L122.601 66.5001C123.301 67.0001 124.101 67.3001 124.901 67.3001C125.701 67.3001 126.101 67.1001 126.401 66.8001C126.701 66.6001 126.801 66.2001 126.801 65.8001C126.801 65.1001 126.401 64.7001 125.801 64.5001L124.901 64.1001C124.701 64.1001 124.201 63.8001 123.901 63.5001C123.701 63.2001 123.401 62.8001 123.401 62.2001C123.401 61.6001 123.701 60.7001 124.501 60.2001C125.001 59.8001 125.801 59.6001 126.601 59.6001C127.801 59.6001 128.501 60.0001 128.801 60.2001L128.301 61.2001V61.3001Z" fill="white" style="fill:white;fill-opacity:1;"/>
<path d="M134.3 60.9002H132.6L131.6 65.8002C131.6 66.3002 131.5 66.6002 131.5 66.7002C131.5 67.0002 131.5 67.1002 131.6 67.2002C131.8 67.4002 132 67.4002 132.3 67.4002C132.6 67.4002 132.9 67.4002 133.1 67.2002V68.0002C132.6 68.2002 132.1 68.3002 131.7 68.3002C131.1 68.3002 130.8 68.1002 130.6 68.0002C130.3 67.7002 130.2 67.2002 130.2 66.9002C130.2 66.6002 130.2 66.0002 130.3 65.8002L131.3 60.7002H130.3L130.5 59.7002H131.6C131.9 58.5002 132 58.2002 132.2 57.6002L133.6 57.3002C133.3 58.3002 133.1 59.1002 133 59.7002H135L134.5 60.7002L134.3 60.9002Z" fill="white" style="fill:white;fill-opacity:1;"/>
<path d="M140.7 67.2002C139.7 68.3002 138.4 68.4002 137.7 68.4002C137 68.4002 136.2 68.4002 135.6 67.6002C135.1 67.0002 134.9 66.1002 134.9 65.4002C134.9 64.2002 135.3 62.3002 136.7 60.9002C137.6 60.0002 138.5 59.7002 139.3 59.7002C140.1 59.7002 140.7 60.0002 141 60.3002C141.4 60.8002 141.5 61.4002 141.5 61.8002C141.5 62.2002 141.5 62.9002 140.8 63.6002C140 64.3002 138.6 64.5002 137.4 64.5002C136.2 64.5002 136.7 64.5002 136.4 64.5002C136.4 64.9002 136.3 65.3002 136.3 65.6002C136.3 66.3002 136.6 66.7002 136.8 67.0002C137.2 67.4002 137.7 67.4002 138 67.4002C138.9 67.4002 139.5 67.1002 140 66.6002L140.2 66.4002L140.7 67.2002ZM137.5 63.6002C138.4 63.6002 139.1 63.6002 139.6 63.1002C140.2 62.7002 140.2 62.2002 140.2 61.9002C140.2 61.0002 139.6 60.7002 139 60.7002C138.4 60.7002 138.1 60.9002 137.5 61.5002C137.1 61.9002 136.7 62.6002 136.5 63.6002C136.8 63.6002 137.2 63.6002 137.5 63.6002Z" fill="white" style="fill:white;fill-opacity:1;"/>
<path d="M145.101 59.6001C145.201 59.9001 145.301 60.3001 145.301 60.6001C145.301 60.9001 145.301 61.2001 145.201 61.5001C145.601 61.0001 146.001 60.6001 146.501 60.3001C147.001 59.9001 147.601 59.7001 148.201 59.7001C148.801 59.7001 149.101 59.9001 149.301 60.4001C149.401 60.7001 149.501 61.2001 149.501 61.5001C150.201 60.5001 151.401 59.7001 152.301 59.7001C153.201 59.7001 153.201 59.9001 153.501 60.2001C153.701 60.5001 153.801 61.0001 153.801 61.3001C153.801 61.6001 153.801 62.0001 153.701 62.2001L152.501 68.2001H151.301L152.501 62.3001C152.501 62.1001 152.501 61.7001 152.501 61.5001C152.501 61.1001 152.401 61.0001 152.201 60.9001C152.001 60.8001 151.801 60.8001 151.701 60.8001C151.401 60.8001 151.101 61.0001 150.801 61.2001C150.101 61.7001 149.501 62.5001 149.301 62.8001L148.201 68.3001H147.001L148.201 62.6001C148.301 62.0001 148.401 61.7001 148.401 61.5001C148.401 61.3001 148.401 61.1001 148.201 61.0001C148.101 60.9001 148.001 60.8001 147.801 60.8001C147.501 60.8001 147.101 61.0001 146.801 61.1001C146.001 61.6001 145.401 62.4001 145.101 62.7001L144.001 68.2001H142.801L144.001 62.2001C144.001 62.0001 144.201 61.3001 144.201 60.9001C144.201 60.5001 144.201 60.3001 144.101 60.1001L145.301 59.5001L145.101 59.6001Z" fill="white" style="fill:white;fill-opacity:1;"/>
<path d="M160.9 61.3001C160.1 60.8001 159.4 60.7001 159.1 60.7001C158.5 60.7001 158.1 60.8001 157.8 61.0001C157.6 61.1001 157.3 61.4001 157.3 62.0001C157.3 62.6001 157.3 62.4001 157.4 62.5001C157.5 62.7001 157.9 62.9001 158.1 63.0001L159.1 63.4001C159.6 63.6001 160 63.8001 160.4 64.3001C160.6 64.6001 160.8 65.0001 160.8 65.5001C160.8 66.0001 160.6 67.0001 159.7 67.6001C159 68.1001 158.2 68.3001 157.4 68.3001C156.2 68.3001 155.4 67.9001 154.7 67.5001L155.2 66.5001C155.9 67.0001 156.7 67.3001 157.5 67.3001C158.3 67.3001 158.7 67.1001 159 66.8001C159.2 66.6001 159.4 66.2001 159.4 65.8001C159.4 65.1001 159 64.7001 158.4 64.5001L157.5 64.1001C157.3 64.1001 156.8 63.8001 156.5 63.5001C156.3 63.2001 156 62.8001 156 62.2001C156 61.6001 156.3 60.7001 157 60.2001C157.5 59.8001 158.3 59.6001 159.1 59.6001C160.3 59.6001 161 60.0001 161.4 60.2001L160.9 61.2001V61.3001Z" fill="white" style="fill:white;fill-opacity:1;"/>
<path d="M171.301 56.7002C172.201 56.7002 173.201 56.7002 173.901 57.6002C174.401 58.1002 174.601 58.8002 174.601 59.5002C174.601 60.2002 174.301 61.8002 173.101 62.9002C172.601 63.3002 171.801 63.7002 170.201 63.7002H168.301L167.401 68.3002H166.101L168.401 56.8002H171.301V56.7002ZM170.401 62.5002C171.401 62.5002 171.901 62.3002 172.401 61.8002C172.701 61.5002 173.301 60.8002 173.301 59.7002C173.301 58.6002 173.101 58.6002 172.901 58.4002C172.401 57.9002 171.501 57.8002 171.001 57.8002H169.601L168.701 62.5002H170.501H170.401Z" fill="white" style="fill:white;fill-opacity:1;"/>
<path d="M182.401 59.7002L181.201 65.6002C181.201 65.8002 181.001 66.4002 181.001 66.7002C181.001 67.0002 181.001 67.2002 181.401 67.7002L180.401 68.5002C180.201 68.3002 180.001 68.0002 179.901 67.8002C179.901 67.6002 179.701 67.1002 179.801 66.7002C179.501 67.1002 179.101 67.5002 178.801 67.8002C178.301 68.2002 177.601 68.5002 176.801 68.5002C176.001 68.5002 175.801 68.3002 175.601 68.1002C175.201 67.7002 175.101 67.2002 175.101 66.8002C175.101 66.4002 175.101 65.9002 175.201 65.6002L176.301 60.0002L177.601 59.7002L176.501 65.3002C176.401 66.0002 176.401 66.3002 176.401 66.5002C176.401 66.7002 176.401 67.1002 176.601 67.2002C176.801 67.4002 177.001 67.4002 177.101 67.4002C177.801 67.4002 178.501 66.9002 178.701 66.7002C179.101 66.4002 179.601 65.9002 180.001 65.2002L181.101 60.0002L182.401 59.7002Z" fill="white" style="fill:white;fill-opacity:1;"/>
<path d="M186.501 59.9001C186.501 60.3001 186.201 61.0001 186.101 61.5001C186.801 60.5001 187.901 59.7001 189.001 59.7001C190.101 59.7001 191.201 60.7001 191.201 62.5001C191.201 64.3001 190.401 66.3001 189.301 67.4001C188.601 68.1001 187.601 68.5001 186.701 68.5001C185.801 68.5001 184.501 68.2001 183.601 67.5001C183.601 67.2001 183.801 66.7001 183.901 66.2001L185.401 59.0001C185.501 58.4001 185.601 57.9001 185.601 57.4001C185.601 56.9001 185.601 56.7001 185.601 56.5001L186.901 56.0001C186.901 56.3001 187.001 56.6001 187.001 57.0001C187.001 57.6001 187.001 58.2001 186.801 58.9001L186.601 60.0001L186.501 59.9001ZM185.101 66.9001C185.501 67.3001 186.001 67.4001 186.801 67.4001C187.601 67.4001 188.201 67.0001 188.501 66.6001C189.301 65.6001 189.801 63.8001 189.801 62.6001C189.801 61.4001 189.401 61.0001 188.501 61.0001C187.601 61.0001 186.801 61.7001 185.901 62.9001L185.101 67.0001V66.9001Z" fill="white" style="fill:white;fill-opacity:1;"/>
<path d="M195.801 55.9001C195.801 56.3001 195.901 56.6001 195.901 57.0001C195.901 57.6001 195.801 58.4001 195.701 59.0001L194.201 66.5001C194.201 66.9001 194.201 67.0001 194.201 67.1001C194.201 67.2001 194.201 67.3001 194.201 67.4001C194.201 67.4001 194.401 67.4001 194.501 67.4001C194.601 67.4001 194.701 67.4001 194.801 67.4001V68.2001C194.601 68.3001 194.301 68.4001 193.901 68.4001C193.501 68.4001 193.301 68.4001 193.001 68.1001C192.801 67.9001 192.801 67.6001 192.801 67.4001C192.801 67.2001 192.801 67.0001 192.801 66.8001L194.401 59.0001C194.401 58.5001 194.601 57.8001 194.601 57.4001C194.601 57.0001 194.601 56.7001 194.501 56.4001L195.801 55.9001Z" fill="white" style="fill:white;fill-opacity:1;"/>
<path d="M197.801 68.3002H196.601L198.301 59.9002L199.601 59.7002L197.901 68.3002H197.801ZM199.401 58.3002C198.901 58.3002 198.401 57.8002 198.401 57.3002C198.401 56.8002 198.901 56.3002 199.401 56.3002C199.901 56.3002 200.401 56.8002 200.401 57.3002C200.401 57.8002 200.001 58.3002 199.401 58.3002Z" fill="white" style="fill:white;fill-opacity:1;"/>
<path d="M206.7 61.4001C206.1 60.9001 205.5 60.8001 205.1 60.8001C204.7 60.8001 204 60.8001 203.4 61.7001C203.1 62.2001 202.8 62.8001 202.7 63.4001C202.5 64.0001 202.3 64.9001 202.3 65.6001C202.3 66.3001 202.3 66.4001 202.6 66.7001C202.8 67.0001 203.2 67.3001 203.8 67.3001C204.4 67.3001 205.2 67.0001 205.7 66.4001L206.2 67.2001C205.1 68.2001 204.2 68.3001 203.5 68.3001C202.8 68.3001 202 68.1001 201.5 67.5001C201 66.9001 200.9 66.3001 200.9 65.4001C200.9 64.5001 201.2 63.3001 201.5 62.6001C202 61.3001 202.7 60.7001 202.9 60.5001C203.4 60.1001 204.2 59.5001 205.3 59.5001C206.4 59.5001 206.6 59.6001 207.2 60.2001L206.6 61.2001L206.7 61.4001Z" fill="white" style="fill:white;fill-opacity:1;"/>
<path d="M213 68.6002C212.6 68.2002 212.4 67.6002 212.4 67.1002C212.4 66.6002 212.4 66.9002 212.4 66.8002C212.2 67.3002 211.8 67.7002 211.3 68.0002C210.9 68.2002 210.3 68.4002 209.7 68.4002C209.1 68.4002 208.7 68.2002 208.3 67.8002C208 67.4002 207.7 66.7002 207.7 65.8002C207.7 64.9002 208.1 62.4002 209.4 61.1002C210 60.4002 211.1 59.7002 212.6 59.7002C214.1 59.7002 214.5 60.1002 214.8 60.4002C214.5 61.4002 214.5 61.6002 214.4 62.2002L213.7 65.7002C213.7 66.1002 213.6 66.5002 213.6 66.8002C213.6 67.1002 213.7 67.6002 214 67.9002L213 68.7002V68.6002ZM213.5 61.0002C213.3 60.9002 213 60.8002 212.5 60.8002C211.6 60.8002 210.9 61.2002 210.2 62.0002C209.3 63.2002 209.1 64.9002 209.1 65.9002C209.1 66.9002 209.1 66.7002 209.4 67.0002C209.5 67.2002 209.8 67.4002 210.2 67.4002C210.9 67.4002 211.3 67.0002 211.6 66.8002C212 66.4002 212.4 66.0002 212.6 65.4002L213.5 61.1002V61.0002Z" fill="white" style="fill:white;fill-opacity:1;"/>
<path d="M220.5 60.9002H218.8L217.8 65.8002C217.8 66.3002 217.7 66.6002 217.7 66.7002C217.7 67.0002 217.7 67.1002 217.8 67.2002C218 67.4002 218.2 67.4002 218.5 67.4002C218.8 67.4002 219.1 67.4002 219.3 67.2002V68.0002C218.8 68.2002 218.3 68.3002 217.9 68.3002C217.3 68.3002 217 68.1002 216.8 68.0002C216.5 67.7002 216.4 67.2002 216.4 66.9002C216.4 66.6002 216.4 66.0002 216.5 65.8002L217.5 60.7002H216.5L216.7 59.7002H217.8C218.1 58.5002 218.2 58.2002 218.4 57.6002L219.8 57.3002C219.4 58.3002 219.3 59.1002 219.1 59.7002H221.1L220.6 60.7002L220.5 60.9002Z" fill="white" style="fill:white;fill-opacity:1;"/>
<path d="M222.1 68.3002H220.9L222.6 59.9002L223.9 59.7002L222.2 68.3002H222.1ZM223.6 58.3002C223.1 58.3002 222.6 57.8002 222.6 57.3002C222.6 56.8002 223.1 56.3002 223.6 56.3002C224.1 56.3002 224.6 56.8002 224.6 57.3002C224.6 57.8002 224.2 58.3002 223.6 58.3002Z" fill="white" style="fill:white;fill-opacity:1;"/>
<path d="M230.4 67.4002C229.5 68.3002 228.4 68.5002 227.6 68.5002C226.8 68.5002 226 68.1002 225.6 67.7002C225 67.0002 224.9 66.0002 224.9 65.5002C224.9 63.8002 225.5 62.2002 226.4 61.1002C227.4 60.0002 228.5 59.8002 229.3 59.8002C230.1 59.8002 230.9 60.1002 231.3 60.6002C231.9 61.3002 232 62.1002 232 62.9002C232 64.8002 231.3 66.5002 230.3 67.5002L230.4 67.4002ZM230.3 61.2002C230.1 60.9002 229.7 60.7002 229.2 60.7002C228.7 60.7002 228 60.7002 227.3 61.8002C226.6 62.8002 226.4 64.4002 226.4 65.4002C226.4 66.4002 226.4 66.4002 226.8 66.8002C227.2 67.2002 227.6 67.3002 227.9 67.3002C228.6 67.3002 229.3 67.0002 229.9 66.1002C230.5 65.1002 230.7 63.7002 230.7 62.6002C230.7 61.5002 230.7 61.5002 230.3 61.1002V61.2002Z" fill="white" style="fill:white;fill-opacity:1;"/>
<path d="M235.9 59.6001C235.9 59.7001 236.1 60.1001 236.1 60.6001C236.1 61.1001 236.1 61.3001 236 61.4001C236.7 60.4001 237.9 59.6001 239.1 59.6001C240.3 59.6001 240 59.7001 240.3 60.0001C240.6 60.4001 240.7 60.9001 240.7 61.2001C240.7 61.5001 240.7 61.6001 240.7 61.7001L239.4 68.1001H238.2L239.3 62.4001C239.3 62.1001 239.4 61.7001 239.4 61.5001C239.4 61.3001 239.4 61.0001 239.2 60.9001C239 60.7001 238.8 60.7001 238.6 60.7001C238.2 60.7001 237.9 60.9001 237.5 61.1001C237 61.4001 236.4 62.0001 235.8 62.7001L234.7 68.2001H233.5L234.7 62.2001C234.7 61.8001 234.9 61.4001 234.9 60.9001C234.9 60.4001 234.9 60.4001 234.8 60.1001L236 59.5001L235.9 59.6001Z" fill="white" style="fill:white;fill-opacity:1;"/>
<path d="M247.801 61.3001C246.901 60.8001 246.301 60.7001 246.001 60.7001C245.401 60.7001 245.001 60.8001 244.701 61.0001C244.501 61.1001 244.201 61.4001 244.201 62.0001C244.201 62.6001 244.201 62.4001 244.301 62.5001C244.401 62.7001 244.801 62.9001 245.001 63.0001L246.001 63.4001C246.501 63.6001 246.901 63.8001 247.301 64.3001C247.501 64.6001 247.701 65.0001 247.701 65.5001C247.701 66.0001 247.501 67.0001 246.601 67.6001C245.901 68.1001 245.101 68.3001 244.301 68.3001C243.101 68.3001 242.301 67.9001 241.601 67.5001L242.101 66.5001C242.801 67.0001 243.601 67.3001 244.401 67.3001C245.201 67.3001 245.601 67.1001 245.901 66.8001C246.201 66.6001 246.301 66.2001 246.301 65.8001C246.301 65.1001 245.901 64.7001 245.301 64.5001L244.401 64.1001C244.201 64.1001 243.701 63.8001 243.401 63.5001C243.201 63.2001 242.901 62.8001 242.901 62.2001C242.901 61.6001 243.101 60.7001 243.901 60.2001C244.401 59.8001 245.201 59.6001 246.001 59.6001C247.201 59.6001 247.901 60.0001 248.301 60.2001L247.801 61.2001V61.3001Z" fill="white" style="fill:white;fill-opacity:1;"/>
<path d="M99.5998 5.60012V5.10012C99.4998 5.10012 99.2998 4.60012 99.2998 4.60012L99.0998 4.20012L98.8998 3.70012L98.6998 3.30013L98.3998 3.00012L98.0998 2.60012L97.7998 2.30013L97.4998 2.00012L97.1998 1.70012L96.7998 1.40012L96.3998 1.20012L95.9998 0.900124L95.5998 0.700123L95.1998 0.500122H94.7998C94.7998 0.400122 94.2998 0.300125 94.2998 0.300125H93.8998C93.8998 0.200125 93.3998 0.100124 93.3998 0.100124H92.8998L92.3998 0.00012207H91.7998H91.2998H90.1998L89.5998 0.100124H88.9998L88.3998 0.300125L87.8998 0.500122H87.2998C87.2998 0.600122 86.7998 0.800125 86.7998 0.800125L86.2998 1.00012L85.7998 1.20012L85.2998 1.40012L84.7998 1.70012L84.2998 2.00012L83.7998 2.30013L83.2998 2.60012L82.7998 2.90012L82.3998 3.30013L81.8998 3.60012L81.3998 4.00012L80.9998 4.40012L80.5998 4.90012L80.1998 5.30013L79.8998 5.80013L79.5998 6.30013L79.2998 6.70012L79.0998 7.10012L78.7998 7.40012L78.5998 7.70012V8.00012C78.4998 8.00012 78.3998 8.10012 78.3998 8.10012V8.20012C78.3998 8.30012 78.2998 8.90012 78.2998 8.90012L77.9998 9.80013L77.6998 10.9001L77.4998 12.2001L77.2998 13.4001V14.5001V15.6001V16.1001L77.3998 16.6001V17.0001C77.4998 17.0001 77.6998 17.5001 77.6998 17.5001L77.8998 18.0001L78.0998 18.4001L78.2998 18.8001L78.5998 19.2001L78.8998 19.5001L79.1998 19.8001L79.4998 20.1001L79.8998 20.4001L80.2998 20.6001L80.6998 20.8001L81.0998 21.1001L81.4998 21.3001H81.8998C81.8998 21.4001 82.2998 21.5001 82.2998 21.5001H82.7998L83.2998 21.7001H83.7998L84.3998 21.9001H84.8998H85.4998H86.5998L87.1998 21.8001H87.7998L88.2998 21.6001H88.8998C88.8998 21.5001 89.3998 21.4001 89.3998 21.4001L89.9998 21.2001L90.4998 21.0001L90.9998 20.8001L91.4998 20.6001L91.9998 20.3001L92.4998 20.1001L92.9998 19.8001L93.4998 19.5001L93.9998 19.2001L94.3998 18.8001L94.8998 18.4001L95.2998 18.0001L95.6998 17.5001L96.0998 17.0001L96.4998 16.5001L96.8998 16.0001L97.2998 15.5001L97.5998 15.0001L97.8998 14.5001L98.1998 14.0001L98.3998 13.4001L98.6998 12.8001L98.9998 12.2001L99.1998 11.6001L99.3998 11.0001L99.6998 9.60012L99.8998 8.30013V7.20012V6.10012V5.60012H99.5998ZM93.0998 10.9001L92.8998 11.4001L92.6998 12.0001L92.3998 12.6001L92.1998 13.2001V13.5001C92.0998 13.5001 91.8998 13.8001 91.8998 13.8001L91.6998 14.1001L91.4998 14.3001L91.2998 14.6001L91.0998 14.8001L90.8998 15.0001L90.6998 15.3001L90.4998 15.5001L90.2998 15.7001L89.9998 15.9001L89.7998 16.1001L89.4998 16.3001L89.2998 16.5001H88.9998C88.9998 16.6001 88.6998 16.7001 88.6998 16.7001H88.4998L88.1998 16.9001H87.8998L87.5998 17.0001H87.2998H86.9998H86.6998H86.3998H85.7998H85.4998H85.1998H84.9998H84.6998L84.3998 16.8001H84.1998L83.8998 16.5001L83.5998 16.2001L83.3998 15.8001L83.1998 15.4001V14.9001C83.0998 14.9001 82.9998 14.4001 82.9998 14.4001V13.9001V13.4001V12.4001V12.3001V12.0001L83.1998 11.7001V11.2001C83.2998 11.2001 83.2998 11.2001 83.2998 11.2001V10.6001C83.3998 10.6001 83.5998 10.0001 83.5998 10.0001L83.7998 9.40012L84.0998 8.80013V8.50012C84.1998 8.50012 84.3998 8.20012 84.3998 8.20012L84.5998 7.90012L84.7998 7.60012L84.9998 7.30013L85.1998 7.10012V6.90012C85.2998 6.90012 85.5998 6.70012 85.5998 6.70012V6.40012C85.6998 6.40012 85.8998 6.20012 85.8998 6.20012L86.0998 6.00012L86.2998 5.80013L86.5998 5.60012L86.7998 5.40012H87.0998C87.0998 5.30012 87.3998 5.20012 87.3998 5.20012H87.6998L87.9998 5.00012H88.2998L88.5998 4.90012H88.8998H89.1998H89.4998H89.7998H90.3998H90.5998H90.8998H91.1998H91.4998L91.6998 5.10012H91.8998L92.1998 5.40012L92.4998 5.80013L92.7998 6.20012L92.9998 6.70012V7.10012L93.1998 7.60012V9.80013L93.0998 10.4001V11.0001C92.9998 11.0001 92.9998 11.0001 92.9998 11.0001L93.0998 10.9001Z" fill="white" style="fill:white;fill-opacity:1;"/>
<path d="M102.4 21.3002H108.4L111.2 10.8002L112.7 5.10017H117.7L119 0.300171H103L101.8 5.10017H106.8L105.2 10.8002L102.4 21.3002Z" fill="white" style="fill:white;fill-opacity:1;"/>
<path d="M121.1 21.3001L124 10.5001H124.1V10.4001H124.2H124.3H124.4H124.5V10.3001H124.6L124.7 10.2001H124.8L124.9 10.1001H125V10.0001H125.1H125.2V10.1001L125.3 10.2001V10.3001L125.4 10.4001V10.5001H125.5V10.6001L125.6 10.7001V10.8001L125.7 10.9001V11.0001H125.8V11.1001L125.9 11.2001L126 11.4001L126.1 11.6001L126.2 11.7001L126.3 11.9001L126.4 12.1001L126.5 12.3001L126.6 12.5001L126.7 12.9001L126.9 13.4001L127.1 13.8001L127.3 14.3001L127.4 14.8001L127.6 15.3001L127.8 15.9001L127.9 16.5001L128 17.1001L128.2 17.6001L128.3 18.2001L128.4 18.8001V19.4001L128.3 20.1001V20.7001V21.3001H134.5V21.1001V20.7001V20.4001V20.1001V19.8001V19.4001V19.1001V18.8001V18.5001L134.4 18.2001L134.3 17.8001V17.4001V17.2001V16.8001L134.2 16.5001V16.1001L134.1 15.5001L133.9 15.0001L133.7 14.4001L133.6 13.8001L133.5 13.3001L133.3 12.7001L133.1 12.1001L133 11.6001L132.8 11.0001L132.6 10.5001L132.4 9.90015L132.1 9.40015L131.8 8.90015L131.5 8.40015L131.2 7.90015L130.9 7.40015L131.1 7.30015L131.3 7.20015H131.4L131.6 7.00014L131.8 6.90015L132 6.80015L132.2 6.70015L132.5 6.60015L132.7 6.50014L132.9 6.30015L133.1 6.20015L133.3 6.00014L133.5 5.90015L133.7 5.70015L133.9 5.60015L134.1 5.50014L134.3 5.30015L134.5 5.20015L134.7 5.10015L134.9 4.90015L135.1 4.80015L135.3 4.60015L135.4 4.40015L135.6 4.30015L135.8 4.20015L136 4.00014L136.2 3.90015L136.4 3.70015L136.5 3.60015L136.7 3.40015L136.9 3.30015L137.1 3.10015L137.3 2.90015L137.4 2.80015L137.5 2.70015L137.6 2.60015L137.7 2.50014L137.8 2.40015V2.30015L137.9 2.20015L138 2.10015V2.00014H138.1L138.3 1.90015H138.4V1.80015L138.6 1.60015L138.7 1.40015L138.8 1.20015L139 1.10015L139.1 0.900146L139.2 0.700146L139.3 0.600147L139.5 0.400146H132.4L132.1 0.700146L131.9 0.900146L131.6 1.20015L131.3 1.40015L131.1 1.60015L130.9 1.80015L130.6 2.10015L130.3 2.20015L130.1 2.30015L130 2.40015L129.8 2.50014L129.6 2.70015L129.5 2.80015L129.4 2.90015L129.2 3.00014L129.1 3.10015H128.9L128.8 3.20015L128.6 3.30015L128.4 3.40015L128.3 3.50014L128.2 3.60015H128L127.9 3.70015H127.8L127.6 3.80015L127.4 4.00014H127.3L127.1 4.10015H127H126.9L126.7 4.20015L126.6 4.30015L126.4 4.40015H126.2L126.1 4.50014H125.9L125.8 4.60015L125.7 4.70015H125.5L126.7 0.400146H120.8L115.1 21.3001H121.1Z" fill="white" style="fill:white;fill-opacity:1;"/>
<path d="M142.1 21.3001L146.4 5.10015H149.2H149.4H149.6L149.8 5.20015H150H150.1L150.3 5.30015H150.5H150.6H150.9L151.2 5.40015L151.4 5.50014L151.5 5.70015L151.7 5.80015L151.9 5.90015L152 6.10015L152.2 6.30015L152.3 6.50014V6.60015L152.4 6.70015L152.5 6.90015V7.00014V7.20015V7.30015V7.50014V7.60015V7.70015V7.80015V7.90015V8.00014L152.4 8.10015L152.3 8.20015V8.30015V8.40015V8.50014V8.60015L152.2 9.00014L152 9.40015L151.9 9.70015L151.7 10.1001L151.5 10.4001L151.2 10.7001L150.9 10.9001L150.6 11.1001L150.5 11.2001L150.3 11.3001L150.2 11.4001L150 11.5001L149.8 11.6001H149.7L149.4 11.7001H149.3L149.1 11.8001H149H148.8L148.6 11.9001H148.4H148.3H148.1H147.9H147.8H147.6H147.5H147.4H147.2H147.1L146.9 11.8001H146.8H146.7H146.6L146.4 11.7001H146.3H146.2L146.1 11.6001H146H145.8L144.6 16.2001H144.8L145 16.3001L145.2 16.4001L145.4 16.5001H145.6H145.8H146H146.2H146.4L146.6 16.6001H146.8H147H147.2H147.4H147.6H147.8H148.3H148.8L149.4 16.5001H149.9L150.3 16.4001L150.8 16.2001L151.2 16.1001L151.7 16.0001L152.1 15.8001L152.5 15.7001L152.8 15.5001L153.3 15.3001L153.6 15.0001L154 14.8001L154.4 14.5001L154.7 14.3001L155 14.0001L155.4 13.7001L155.7 13.4001L156 13.1001L156.3 12.8001L156.6 12.4001L156.8 12.1001L157.1 11.7001L157.3 11.4001L157.5 11.0001L157.7 10.6001L157.9 10.2001L158 9.80015L158.2 9.40015L158.3 9.00014L158.4 8.60015V8.50014H158.5V8.40015V8.30015V8.20015H158.6V8.10015V8.00014V7.90015V7.80015L158.7 7.70015V7.60015L158.8 6.90015V6.20015L158.7 5.60015L158.6 4.90015L158.5 4.40015L158.3 3.80015L158 3.20015L157.7 2.70015L157.5 2.40015L157.3 2.10015L157 1.90015L156.7 1.70015L156.5 1.50014L156.1 1.20015L155.8 1.10015L155.5 1.00014L155 0.900146L154.6 0.700146H154.2L153.7 0.600147L153.2 0.500145L152.7 0.400146H152.1H151.5H141.7L136.1 21.3001H142.1Z" fill="white" style="fill:white;fill-opacity:1;"/>
<path d="M167 21.3002H167.1H167.3H167.5H167.7H167.9H168.2H168.5H168.8H168.9L169 21.2002H169.2H169.4L169.6 21.1002H169.8H170L170.1 21.0002H170.3H170.5L170.6 20.9002H170.8L171 20.8002H171.2L171.4 20.7002L171.6 20.6002L171.9 20.5002H172.1L172.3 20.4002L172.6 20.3002L172.8 20.1002L173.1 20.0002L173.4 19.8002L173.6 19.7002L173.9 19.6002L174.1 19.4002L174.3 19.3002L174.6 19.1002L174.8 19.0002L175.1 18.8002L175.3 18.6002L175.6 18.4002L175.8 18.2002L176.1 17.9002L176.3 17.7002L176.5 17.4002L176.7 17.2002L176.9 16.9002L177.1 16.6002L177.3 16.3002L177.7 15.6002L178 14.9002L178.3 14.1002L178.5 13.3002L178.6 12.4002L178.7 11.6002L178.8 10.9002V10.8002L178.7 10.1002L178.6 9.40017L178.4 8.80017L178.2 8.20017L177.9 7.60017L177.7 7.30017L177.4 7.10017L177.1 6.80017L176.9 6.50017L176.6 6.30017L176.3 6.10017L176 5.90017L175.7 5.70017L175.3 5.60017L174.9 5.50017L174.6 5.40017L174.2 5.30017H173.8H173.3L172.9 5.20017H172.4H172.3L172.1 5.30017H171.9H171.8H171.6H171.5H171.3H171.2H171.1H171L170.9 5.40017H170.8H170.6H170.5H170.4H170.3H170.2L170.1 5.50017H170H169.9H169.8H169.7L169.6 5.60017H169.5H169.4H169.3H169.2L169.1 5.70017H169H168.9H168.8L167.6 10.4002H167.7L167.8 10.3002H167.9L168 10.2002H168.1H168.2L168.3 10.1002H168.4H168.5L168.7 10.0002H168.8H169L169.1 9.90017H169.2H169.3H169.4H169.6H169.7H169.9L170.1 10.0002H170.3H170.5H170.7L170.9 10.1002L171.1 10.2002H171.2L171.5 10.4002L171.8 10.5002L172 10.8002L172.1 11.0002L172.3 11.3002L172.4 11.6002L172.5 11.8002V12.1002V12.4002V12.7002L172.4 13.0002L172.3 13.3002L172.2 13.8002L172 14.3002L171.8 14.8002L171.5 15.2002L171.4 15.3002L171.2 15.5002L171.1 15.6002L170.9 15.7002L170.7 15.8002L170.5 15.9002L170.3 16.0002H170.1L170 16.1002H169.8L169.6 16.2002L169.4 16.3002L169.2 16.4002L169 16.5002H168.8H168.6H168.4H168.2L168 16.6002H167.8H167.6H167.4H167.2H167H166.9H166.8H166.7H164.9L166.5 10.8002L169.2 0.300171H163.3L160.4 10.8002L157.6 21.3002H167Z" fill="white" style="fill:white;fill-opacity:1;"/>
<path d="M183.6 21.3002L186.4 10.8002L189.2 0.300171H183.2L180.4 10.8002L177.6 21.3002H183.6Z" fill="white" style="fill:white;fill-opacity:1;"/>
<path d="M190.4 21.3001H196.4L200.7 5.10015H205.7L207 0.400146H190.9L189.8 5.10015H194.7L190.4 21.3001Z" fill="white" style="fill:white;fill-opacity:1;"/>
<path d="M203 21.3002H212.4H212.6H212.7H212.9H213.1H213.3H213.6H213.9H214.2H214.4L214.5 21.2002H214.7H214.9L215 21.1002H215.2H215.4L215.6 21.0002H215.7H215.9L216 20.9002H216.3L216.4 20.8002H216.6L216.8 20.7002L217 20.6002L217.3 20.5002H217.5L217.7 20.4002L218 20.3002L218.3 20.1002L218.6 20.0002L218.8 19.8002L219 19.7002L219.3 19.6002L219.5 19.4002L219.8 19.3002L220 19.1002L220.3 19.0002L220.5 18.8002L220.8 18.6002L221 18.4002L221.2 18.2002L221.5 17.9002L221.7 17.7002L221.9 17.4002L222.1 17.2002L222.4 16.9002L222.6 16.6002L222.8 16.3002L223.1 15.6002L223.4 14.9002L223.7 14.1002L223.9 13.3002L224.1 12.4002L224.2 11.6002V10.9002V10.8002V10.1002L224.1 9.40017L223.8 8.80017L223.6 8.20017L223.3 7.60017L223.1 7.30017L222.8 7.10017L222.6 6.80017L222.4 6.50017L222.1 6.30017L221.8 6.10017L221.4 5.90017L221.1 5.70017L220.8 5.60017L220.4 5.50017L220 5.40017L219.6 5.30017H219.2H218.8L218.3 5.20017H217.8H217.7L217.5 5.30017H217.3H217.2H217.1H216.9H216.8H216.7H216.6H216.5L216.3 5.40017H216.2H216H215.9H215.8H215.7H215.6L215.5 5.50017H215.4H215.3H215.2H215.1V5.60017H215H214.9H214.8H214.7H214.6V5.70017H214.5H214.4H214.3L213 10.4002H213.1L213.2 10.3002H213.3L213.4 10.2002H213.5H213.7V10.1002H213.8H214L214.1 10.0002H214.2H214.3H214.4L214.5 9.90017H214.7H214.9H215H215.1H215.3L215.6 10.0002H215.7H216H216.2L216.3 10.1002L216.5 10.2002H216.7L216.9 10.4002L217.2 10.5002L217.4 10.8002L217.6 11.0002L217.7 11.3002L217.8 11.6002L217.9 11.8002V12.1002V12.4002V12.7002L217.8 13.0002L217.7 13.3002L217.6 13.8002L217.4 14.3002L217.2 14.8002L216.9 15.2002L216.8 15.3002L216.7 15.5002L216.5 15.6002L216.3 15.7002L216.2 15.8002L216 15.9002L215.7 16.0002H215.6L215.4 16.1002H215.2L215 16.2002L214.8 16.3002L214.7 16.4002L214.5 16.5002H214.3H214H213.8H213.6L213.4 16.6002H213.2H213H212.8H212.6H212.4H212.3H212.2H212.1H210.3L211.9 10.8002L214.7 0.300171H208.7L205.9 10.8002L203 21.3002Z" fill="white" style="fill:white;fill-opacity:1;"/>
<path d="M229 21.3002L231.8 10.8002L234.6 0.300171H228.7L225.8 10.8002L223 21.3002H229Z" fill="white" style="fill:white;fill-opacity:1;"/>
<path d="M242.8 9.10017L242.2 11.5002H250L250.7 9.10017L251.3 6.80017H243.4L242.8 9.10017Z" fill="white" style="fill:white;fill-opacity:1;"/>
<path d="M120.8 32.9001H121L121.2 33.0001H121.3H121.4L121.6 33.1001H121.8L122 33.2001H122.2H122.3H122.4H122.6L123.7 28.7001L123.6 28.6001H123.4H123.2L122.9 28.5001H122.7L122.5 28.4001L122.3 28.3001H122H121.8H121.6L121.3 28.2001H121H120.8H120.5H120.2H119.9H119.3L118.6 28.3001H117.9L117.3 28.4001L116.7 28.6001L116 28.7001L115.4 28.9001L114.9 29.1001L114.3 29.3001L113.7 29.5001L113.1 29.7001L112.6 30.0001L112 30.2001L111.5 30.6001L111 30.9001L110.5 31.2001L110.1 31.6001L109.6 32.0001L109.2 32.4001L108.8 32.9001L108.4 33.4001L108 33.8001L107.7 34.3001L107.6 34.4001L107.3 34.8001L107.1 35.3001L106.7 35.8001L106.5 36.3001L106.2 36.9001L106 37.4001L105.7 38.0001L105.5 38.5001L105.3 39.1001V39.2001V39.3001L105.2 39.4001V39.5001V39.6001V39.7001V39.8001V39.9001V40.0001V40.1001V40.2001V40.3001L105 41.2001V42.1001V43.0001L105.1 43.9001L105.2 44.7001L105.4 45.5001L105.7 46.3001L106.1 47.1001L106.3 47.5001L106.5 47.8001L106.8 48.1001L107.1 48.4001L107.5 48.7001L107.9 49.0001L108.3 49.2001L108.8 49.4001L109.2 49.5001L109.7 49.7001L110.3 49.8001L110.9 49.9001L111.5 50.0001H112.1L112.7 50.1001H113.4H113.6H113.8L114 50.0001H114.2H114.3H114.5H114.7H114.9H115.1H115.5H115.7H116L116.3 49.9001H116.6L116.9 49.8001H117.1H117.4L117.6 49.7001H117.9L118.1 49.6001L119.4 45.0001H119.3L119.2 45.1001H119.1H119H118.9L118.8 45.2001H118.7H118.6H118.5L118.3 45.3001H118.2H118.1L117.9 45.4001H117.8H117.7H117.6H117.5H117.3H117.2L117.1 45.5001H117H116.9H116.7H116.6L116.5 45.6001H116.4H116.3H116.2H116.1H116H115.8H115.7L115.5 45.5001H115.4H115.3H115.1H114.9H114.8H114.6L114.5 45.4001L114.3 45.3001H114.1H114L113.8 45.2001H113.6L113.5 45.1001L113.2 45.0001L112.9 44.8001L112.7 44.6001L112.4 44.4001L112.2 44.1001L112 43.9001L111.7 43.5001L111.6 43.2001L111.5 42.9001L111.3 42.5001L111.2 42.0001L111.1 41.5001L111.2 41.0001L111.3 40.4001L111.4 39.8001L111.5 39.1001L111.7 38.4001L112 37.8001L112.4 37.2001L112.7 36.6001L112.9 36.3001L113.1 36.0001L113.3 35.8001L113.5 35.5001L113.7 35.3001L114 35.0001L114.2 34.8001L114.5 34.6001L114.8 34.4001L115.1 34.2001L115.3 34.0001L115.7 33.8001L116 33.6001L116.3 33.5001L116.6 33.4001L116.9 33.2001H117.3L117.6 33.1001L117.9 33.0001H118.3L118.7 32.9001H119H119.4H119.8H120H120.2H120.4H120.7H120.8Z" fill="white" style="fill:white;fill-opacity:1;"/>
<path d="M246.699 21.3002L247.999 16.6002H239.699L241.699 9.10017L242.799 5.10017H250.499L251.799 0.300171H238.099L235.699 9.10017L232.399 21.3002H246.699Z" fill="white" style="fill:white;fill-opacity:1;"/>
<path d="M139 28.8002L138.8 28.9002L138.6 29.0002L138.4 29.1002L138.3 29.2002H138.1L137.9 29.3002L137.7 29.4002L137.5 29.5002L137.3 29.6002L137.1 29.7002L136.9 29.8002L136.6 30.0002H136.5L136.3 30.2002L136.1 30.3002L135.9 30.4002L135.7 30.6002L135.5 30.7002L135.3 30.8002L135 31.0002L134.8 31.1002L134.6 31.3002L134.3 31.5002L134.2 31.6002L134 31.7002L133.7 31.9002L133.5 32.1002L133.3 32.2002L133.1 32.4002L132.8 32.5002L132.6 32.8002L132.5 32.9002L132.3 33.0002H132.2L132.1 33.2002H131.9L131.8 33.3002L131.7 33.4002L131.6 33.5002L131.5 33.6002L131.3 33.7002L131.2 33.8002L131.1 34.0002H131V34.1002L130.8 34.2002L130.7 34.3002L130.6 34.4002L132.1 28.8002H126.1L120.5 49.7002H126.5L128.7 41.5002L128.8 41.4002L129 41.3002L129.1 41.2002L129.2 41.1002L129.3 40.9002L129.4 40.8002L129.5 40.6002L129.7 40.5002V40.4002H129.8V40.3002H129.9V40.2002L130 40.1002L130.2 40.0002L130.3 39.9002L130.4 39.8002L130.5 39.7002L130.7 39.6002V39.5002L130.8 39.4002L131 39.3002L131.2 39.1002L131.5 38.9002L131.7 38.8002L131.9 38.6002L132.1 38.4002L132.3 38.2002L132.5 38.0002L132.6 37.9002L132.8 37.8002L132.9 37.7002L133 37.6002H133.1L133.3 37.5002L133.4 37.4002L133.5 37.3002L133.6 37.2002L133.7 37.1002L133.8 37.0002H133.9H134L134.1 36.9002L134.3 36.8002L134.4 36.6002L134.7 36.5002L134.9 36.4002L135.1 36.2002L135.3 36.1002L135.5 35.9002L135.7 35.8002L135.9 35.7002L136.1 35.5002L136.3 35.4002L136.5 35.3002L136.6 35.2002L136.8 35.1002L137 35.0002L137.3 34.9002L137.5 34.8002L133.4 49.7002H139.4L145 28.8002H139Z" fill="white" style="fill:white;fill-opacity:1;"/>
<path d="M162.999 28.7002H162.799H162.599L162.299 28.6002H162.099L161.899 28.5002H161.699L161.399 28.4002H161.199H160.999L160.699 28.3002H160.499H160.199H159.899H159.599H159.399H158.699L157.999 28.4002L157.299 28.5002H156.699L156.099 28.7002L155.499 28.8002L154.899 29.0002L154.299 29.2002L153.699 29.3002L153.099 29.5002L152.599 29.8002L151.999 30.0002L151.499 30.3002L150.899 30.7002L150.499 31.0002L149.899 31.3002L149.499 31.7002L149.099 32.1002L148.599 32.5002L148.199 33.0002L147.799 33.4002L147.399 33.9002L147.099 34.4002L146.799 34.9002L146.499 35.4002L146.199 35.8002L145.899 36.4002L145.599 37.0002L145.399 37.5002L145.099 38.0002L144.899 38.6002L144.799 39.2002V39.3002L144.699 39.4002V39.5002V39.6002V39.7002V39.8002V39.9002H144.599V40.0002V40.1002V40.2002V40.3002V40.4002L144.499 41.3002L144.399 42.2002V43.1002L144.499 43.9002L144.599 44.8002L144.899 45.6002L145.099 46.4002L145.499 47.2002L145.699 47.5002L145.899 47.9002L146.199 48.2002L146.599 48.5002L146.899 48.8002L147.299 49.1002L147.699 49.3002L148.199 49.5002L148.699 49.6002L149.199 49.8002L149.699 49.9002L150.299 50.0002H150.899L151.499 50.1002L152.199 50.2002H152.799H152.999H153.199L153.399 50.1002H153.599H153.699L153.899 50.0002H154.099H154.299H154.599H154.899H155.199H155.499H155.699H155.999L156.299 49.9002H156.499L156.799 49.8002H157.099H157.299L157.499 49.7002L158.799 45.1002H158.699L158.599 45.2002H158.499H158.399H158.299V45.3002H158.199H158.099H157.999H157.899H157.699L157.599 45.4002H157.499L157.299 45.5002H157.199H157.099H156.999H156.899H156.799H156.699L156.499 45.6002H156.399H156.299H156.199H156.099H155.999H155.899L155.799 45.7002H155.699H155.599H155.499H155.399H155.199L155.099 45.6002H154.999H154.799H154.699H154.499H154.299H154.199H153.999L153.899 45.5002L153.699 45.4002H153.499L153.399 45.3002H153.299H153.099L152.899 45.2002L152.699 45.1002L152.399 44.9002L152.099 44.7002L151.799 44.5002L151.599 44.2002L151.399 43.9002L151.199 43.6002L150.999 43.3002L150.899 43.0002L150.699 42.6002L150.599 42.1002V41.6002V41.1002L150.699 40.5002L150.799 39.8002L150.899 39.2002L151.199 38.6002L151.499 37.8002L151.799 37.2002L152.099 36.7002L152.299 36.4002L152.499 36.1002L152.699 35.8002L152.899 35.6002L153.099 35.4002L153.399 35.1002L153.599 34.9002L153.899 34.7002L154.199 34.5002L154.499 34.2002L154.799 34.1002L155.099 33.9002L155.399 33.7002L155.699 33.6002L155.999 33.4002L156.399 33.3002L156.699 33.2002H156.999L157.299 33.1002H157.699L158.099 33.0002H158.499H158.899H159.299H159.399H159.599H159.799H160.099H160.199H160.399L160.599 33.1002H160.699H160.899L161.099 33.2002H161.299H161.399H161.599L161.699 33.3002H161.799H161.999L163.199 28.8002L162.999 28.7002Z" fill="white" style="fill:white;fill-opacity:1;"/>
<path d="M179.8 28.8002H163.8L162.6 33.5002H167.6L163.2 49.7002H169.3L173.6 33.5002H178.6L179.8 28.8002Z" fill="white" style="fill:white;fill-opacity:1;"/>
<path d="M186.3 37.5001L185.6 39.8001H193.5L194.2 37.5001L194.8 35.2001H186.9L186.3 37.5001Z" fill="white" style="fill:white;fill-opacity:1;"/>
<path d="M185.199 37.5001L185.999 34.4001L186.199 33.4001H193.999L195.299 28.7001H181.499L179.999 34.4001L179.199 37.5001L175.899 49.6001H190.199L191.499 45.0001H183.199L185.199 37.5001Z" fill="white" style="fill:white;fill-opacity:1;"/>
<path d="M215.9 28.7001L215.8 28.8001L215.7 29.0001L215.5 29.1001L215.4 29.2001L215.3 29.3001L215.1 29.4001L215 29.5001L214.8 29.6001L214.7 29.8001L214.5 29.9001L214.4 30.0001L214.3 30.2001H214.1L214 30.3001L213.9 30.4001L213.7 30.6001L213.6 30.8001L213.4 30.9001L213.2 31.1001L213 31.3001L212.8 31.5001L212.6 31.7001L212.4 31.9001L212.2 32.1001L212.1 32.2001L212 32.3001L211.9 32.4001L211.8 32.5001L211.7 32.6001V32.8001H211.5L211.4 32.9001L211.3 33.0001L211.2 33.1001L211.1 33.3001L211 33.4001L210.9 33.5001L210.8 33.6001L210.7 33.7001V33.8001L210.4 34.0001L210.2 34.3001L210 34.6001L209.7 34.9001L209.5 35.1001L209.3 35.4001L209.1 35.7001L208.9 35.9001L208.7 36.2001L208.5 36.5001L208.4 36.7001L208.2 37.0001L208.1 37.3001L207.9 37.5001L207.8 37.7001L207.7 37.8001H207.6V37.7001L207.5 37.5001V37.2001V36.9001L207.4 36.7001V36.5001V36.2001L207.3 36.0001V35.8001L207.2 35.5001L207.1 35.2001L207 34.9001V34.7001L206.9 34.4001L206.8 34.1001L206.7 33.8001L206.6 33.6001V33.4001L206.4 33.1001V32.8001L206.3 32.6001V32.4001L206.2 32.2001L206.1 31.9001L206 31.8001L205.9 31.7001L205.8 31.5001V31.4001L205.7 31.3001V31.2001L205.6 31.1001V31.0001L205.5 30.9001V30.8001L205.4 30.6001L205.3 30.5001V30.4001L205.2 30.3001V30.2001H205.1V30.1001V30.0001H205V29.9001L204.9 29.8001V29.7001L204.8 29.6001V29.5001H204.7H204.6V29.4001V29.3001H204.5V29.2001V29.1001H204.4V29.0001L204.3 28.9001L204.2 28.8001V28.7001H198.2L192.6 49.7001H198.6L201.9 37.4001L202 37.6001L202.2 37.8001L202.4 38.1001L202.5 38.4001L202.6 38.6001L202.7 38.9001L202.8 39.1001L202.9 39.4001L203 39.7001L203.1 40.0001L203.2 40.3001V40.6001L203.3 40.8001V41.1001L203.4 41.4001V41.7001V41.9001L203.5 42.3001L203.6 42.6001V42.9001V43.2001V43.5001V43.9001V44.2001V44.5001V44.7001L203.5 45.1001V45.4001V45.6001V45.8001V46.1001V46.3001H207.2L207.5 45.7001L207.8 45.1001L208 44.6001L208.3 44.1001L208.5 43.7001L208.8 43.2001L209 42.8001L209.3 42.4001L209.6 42.0001L209.9 41.6001L210.1 41.2001L210.4 40.8001L210.6 40.5001L210.9 40.2001L211.1 39.8001L211.4 39.6001L211.5 39.4001L211.7 39.2001L211.9 39.0001L212 38.9001L212.1 38.8001L212.3 38.6001L212.4 38.4001L212.5 38.3001L212.7 38.2001L212.8 38.1001L212.9 38.0001L213.1 37.8001H213.3L213.4 37.6001L213.5 37.5001L213.6 37.4001L210.3 49.7001H216.3L221.9 28.7001H215.9Z" fill="white" style="fill:white;fill-opacity:1;"/>
<path d="M243.8 34.4001L242.5 39.2001L239.7 49.6001H245.7L248.5 39.2001L249.8 34.4001L251.3 28.7001H245.3L243.8 34.4001Z" fill="white" style="fill:white;fill-opacity:1;"/>
<path d="M240.1 43.3001L240.4 42.5001L240.6 41.7001L240.8 40.8001L240.9 40.0001V39.3001V39.2001V38.5001L240.8 37.8001L240.5 37.2001L240.3 36.5001L239.9 36.0001L239.8 35.7001L239.5 35.4001L239.3 35.2001L239 34.9001L238.8 34.7001L238.5 34.4001H238.3L238.1 34.3001L237.8 34.1001L237.4 34.0001L237.1 33.9001L236.7 33.8001L236.3 33.7001H235.9L235.4 33.6001H235H234.5H234.4H234.2L234 33.7001H233.9H233.7H233.6H233.5H233.3H233.1L233 33.8001H232.9H232.7H232.6H232.5H232.4H232.3L232.2 33.9001H232.1H232H231.9H231.8H231.7V34.0001H231.6H231.5H231.4H231.3H231.2H231.1H231L230.9 34.4001L229.7 38.7001H229.8H229.9H230L230.1 38.6001H230.2L230.4 38.5001H230.5L230.7 38.4001H230.8H230.9H231L231.1 38.3001H231.2H231.3H231.4H231.5H231.7H231.8H232H232.2H232.5L232.6 38.4001H232.9H233L233.2 38.5001L233.3 38.6001L233.6 38.7001L233.9 38.9001L234.1 39.2001L234.2 39.4001L234.4 39.7001L234.5 39.9001L234.6 40.2001V40.5001V40.8001V41.1001L234.5 41.4001V41.7001L234.3 42.2001L234.1 42.7001L233.9 43.2001L233.6 43.6001L233.5 43.7001L233.3 43.9001L233.2 44.0001L233 44.1001L232.9 44.2001L232.6 44.3001H232.5L232.2 44.4001L232.1 44.5001H231.9L231.7 44.6001L231.5 44.7001H231.3L231.1 44.8001L230.9 44.9001H230.7H230.5H230.3L230.1 45.0001H229.9H229.7H229.5H229.3H229.1H229H228.9H228.8H227L228.5 39.2001L229.8 34.4001L231.3 28.7001H225.4L223.8 34.4001L222.6 39.2001L219.7 49.6001H229.1H229.3H229.4H229.6H229.8H230H230.3H230.6H230.9H231.1H231.2H231.3L231.5 49.5001H231.7H231.9L232.1 49.4001H232.2H232.4L232.6 49.3001H232.7H232.9L233.1 49.2001L233.3 49.1001H233.5L233.7 49.0001L233.9 48.9001L234.2 48.8001H234.5L234.7 48.6001L235 48.5001L235.2 48.4001L235.5 48.2001L235.7 48.1001L235.9 48.0001L236.2 47.8001L236.5 47.7001L236.7 47.5001L236.9 47.3001L237.2 47.1001L237.4 47.0001L237.7 46.7001L237.9 46.5001L238.2 46.3001L238.4 46.1001L238.6 45.8001L238.8 45.6001L239 45.3001L239.2 45.0001L239.4 44.7001L239.8 44.0001L240.1 43.3001Z" fill="white" style="fill:white;fill-opacity:1;"/>
<path d="M61.4 42.5001L58.1 38.0001L57.6 38.3001L60.8 42.8001L43.8 53.1001L42.7 51.5001V45.3001H42.6L35.6 35.7001L37.3 34.7001L37 34.2001L35.3 35.2001L34.7 34.4001L36.4 33.4001L36.1 32.9001L34.4 33.9001L33.4 32.5001L35.1 31.5001L34.7 31.0001L33 32.0001L31.3 29.7001V27.2001L34 25.6001V25.3001V25.5001C34.1 25.5001 35.4 24.8001 35.4 24.8001L35 24.3001L31.2 26.6001L19.8 11.0001L36.7 0.800076L47.4 15.5001L47.9 15.2001L37 0.300076H36.8C36.8 0.200076 36.6 0.200073 36.6 0.200073L19.2 10.7001H19L18.9 11.0001V13.1001L18 11.9001H17.8C17.8 11.8001 17.6 11.9001 17.6 11.9001L0.299999 22.3001H0.1V22.6001C3.7998e-07 22.6001 0 29.4001 0 29.4001H0.1C0.1 29.5001 1.1 30.9001 1.1 30.9001L0.299999 31.3001H0.1L0 31.6001V38.3001H0.1C0.1 38.4001 11.7 54.3001 11.7 54.3001V54.5001L11.9 54.6001H12.1L13.1 53.9001V55.9001V56.1001L24.8 72.0001L25 72.2001H25.2L42.6 61.7001H42.8V61.4001V59.2001L43.6 60.4001C43.6 60.5001 43.8 60.6001 43.8 60.6001H44L61.4 50.0001H61.6V49.7001V42.7001H61.3L61.4 42.5001ZM42 45.4001L25 55.7001L13.6 40.2001L30.7 29.9001L42 45.4001ZM42.1 46.0001V52.0001L25.3 62.1001V56.1001L42.1 46.0001ZM12.1 38.6001L29 28.5001V30.3001L13.3 39.8001H13.1L13 40.1001V44.1001L12.1 44.6001V38.6001ZM13.6 41.2001L24.7 56.3001V61.9001L13.6 46.8001V41.2001ZM19.4 11.7001L30.5 26.9001V29.3001L29.6 29.9001V28.0001V27.8001H29.4C29.4 27.7001 29.4 27.7001 29.4 27.7001L19.4 14.0001V11.7001ZM17.6 12.4001L28.9 27.9001L11.9 38.1001L0.6 22.7001L17.6 12.4001ZM0.4 29.1001V23.4001L11.4 38.4001V44.1001L0.4 29.1001ZM11.5 53.2001L0.4 38.1001V32.5001L11.5 47.6001V53.3001V53.2001ZM11.9 47.1001L0.5 31.6001L1.2 31.2001L11.4 45.1001C11.4 45.2001 11.4 45.3001 11.4 45.3001H11.6C11.6 45.4001 11.8 45.3001 11.8 45.3001L12.8 44.7001V46.3001L11.8 47.0001L11.9 47.1001ZM13.1 48.8001V49.1001C13 49.1001 13 53.1001 13 53.1001L12.2 53.6001V47.6001L13.1 47.0001L14 48.2001L13.3 48.6001H13.1V48.8001ZM24.7 70.9001L13.7 55.8001V50.2001L24.7 65.3001V70.9001ZM25 64.6001L13.7 49.1001L14.4 48.7001L24.7 62.7001V62.9001L24.9 63.0001H25.1L41.3 53.2001L42.1 54.3001L25.1 64.5001L25 64.6001ZM42.1 61.0001L25.3 71.1001V65.1001L42.1 55.0001V61.0001ZM43.7 59.2001L42.9 58.0001V54.5001V54.3001L41.9 53.0001L42.8 52.5001H42.9V52.4001L43.8 53.7001V59.2001H43.7ZM61.1 49.4001L44.3 59.6001V53.6001L61.1 43.5001V49.5001V49.4001Z" fill="white" style="fill:white;fill-opacity:1;"/>
<path d="M51.2002 13.1001L34.2002 23.3001L45.5002 38.7001L62.4002 28.5001L51.2002 13.1001Z" fill="white" style="fill:white;fill-opacity:1;"/>
<path d="M46.1006 40.0001V45.3001L62.7006 35.2001V30.0001L46.1006 40.0001Z" fill="white" style="fill:white;fill-opacity:1;"/>
<path d="M33.9004 29.9L44.6004 44.5V39.9L33.9004 25.3V29.9Z" fill="white" style="fill:white;fill-opacity:1;"/>
</g>
<defs>
<clipPath id="clip0_809_1341">
<rect width="251.8" height="72.2" fill="white" style="fill:white;fill-opacity:1;"/>
</clipPath>
</defs>
</svg>
