<svg width="227" height="48" viewBox="0 0 227 48" fill="none" xmlns="http://www.w3.org/2000/svg">
<path d="M80.7564 27.2097V8.37495H88.2176C89.3348 8.36063 90.4366 8.6389 91.4155 9.18264C92.3483 9.69739 93.1267 10.4562 93.669 11.3793C94.2112 12.3025 94.4974 13.3561 94.4974 14.4294C94.4974 15.5027 94.2112 16.5563 93.669 17.4794C93.1267 18.4026 92.3483 19.1614 91.4155 19.6761C90.4364 20.2192 89.3347 20.4971 88.2176 20.4829H83.688V27.2097H80.7564ZM88.2176 17.7928C88.6587 17.8031 89.0972 17.7212 89.5054 17.552C89.9136 17.3829 90.2827 17.1303 90.5894 16.81C91.2049 16.1705 91.5492 15.3138 91.5492 14.4221C91.5492 13.5303 91.2049 12.6737 90.5894 12.0341C90.2806 11.7175 89.9109 11.4681 89.503 11.3013C89.095 11.1344 88.6576 11.0538 88.2176 11.0642H83.688V17.7909L88.2176 17.7928ZM100.343 27.2097H97.4114V8.37495H100.343V27.2097ZM106.445 27.2097H103.007L109.67 17.4154L103.541 8.37495H107.031L111.535 15.1828H111.588L116.092 8.37495H119.53L113.4 17.3351L120.062 27.2097H116.572L111.535 19.595H111.482L106.445 27.2097ZM141.913 27.2097H138.583L134.719 20.214H130.322V27.2097H127.395V8.37495H135.122C136.224 8.35671 137.313 8.62546 138.282 9.15529C139.188 9.65018 139.944 10.3852 140.467 11.2812C140.995 12.195 141.267 13.2369 141.253 14.2949C141.267 15.4544 140.936 16.5915 140.305 17.5599C139.673 18.5284 138.769 19.2841 137.709 19.7299L141.913 27.2097ZM130.322 11.0642V17.5211H135.119C135.544 17.5375 135.969 17.4651 136.365 17.3082C136.762 17.1513 137.122 16.9135 137.424 16.6095C137.719 16.3047 137.951 15.9425 138.104 15.5449C138.258 15.1473 138.33 14.7224 138.316 14.2958C138.336 13.8665 138.267 13.4377 138.113 13.0369C137.96 12.6361 137.725 12.2721 137.424 11.9682C137.123 11.6643 136.762 11.4271 136.365 11.2719C135.968 11.1168 135.544 11.0469 135.119 11.0669L130.322 11.0642ZM146.671 26.5889C145.664 26.0123 144.83 25.1708 144.259 24.154C143.683 23.1141 143.38 21.9422 143.38 20.7505C143.38 19.5587 143.683 18.3869 144.259 17.347C144.83 16.33 145.664 15.4883 146.671 14.9112C147.701 14.329 148.861 14.0233 150.041 14.0233C151.222 14.0233 152.382 14.329 153.412 14.9112C154.419 15.4883 155.253 16.33 155.824 17.347C156.4 18.3869 156.703 19.5587 156.703 20.7505C156.703 21.9422 156.4 23.1141 155.824 24.154C155.253 25.1708 154.419 26.0123 153.412 26.5889C152.382 27.171 151.222 27.4767 150.041 27.4767C148.861 27.4767 147.701 27.171 146.671 26.5889ZM152.081 24.3828C152.688 24.0292 153.186 23.5122 153.519 22.8896C153.86 22.2293 154.039 21.4954 154.039 20.7505C154.039 20.0055 153.86 19.2717 153.519 18.6114C153.186 17.9885 152.688 17.4715 152.081 17.1182C151.458 16.7649 150.756 16.5794 150.042 16.5794C149.328 16.5794 148.626 16.7649 148.003 17.1182C147.395 17.4712 146.897 17.9883 146.564 18.6114C146.222 19.2717 146.044 20.0055 146.044 20.7505C146.044 21.4954 146.222 22.2293 146.564 22.8896C146.897 23.5125 147.396 24.0295 148.003 24.3828C148.626 24.7354 149.328 24.9206 150.042 24.9206C150.756 24.9206 151.458 24.7354 152.081 24.3828ZM163.486 26.835C162.807 26.5026 162.225 26.0005 161.794 25.3764H161.766V27.206H159.102V8.37495H161.766V16.1236H161.794C162.225 15.5013 162.808 15.0011 163.486 14.6705C164.31 14.2314 165.231 14.0091 166.163 14.0242C167.217 14.0205 168.249 14.3244 169.135 14.8993C170.062 15.4957 170.82 16.3254 171.333 17.3069C171.893 18.3658 172.177 19.5508 172.159 20.7509C172.177 21.9511 171.893 23.1361 171.333 24.195C170.82 25.1769 170.062 26.0069 169.135 26.6034C168.248 27.1777 167.217 27.4813 166.163 27.4777C165.231 27.4938 164.311 27.2728 163.486 26.835ZM167.576 24.3864C168.166 24.0231 168.649 23.5077 168.975 22.8932C169.316 22.2329 169.495 21.499 169.495 20.7541C169.495 20.0092 169.316 19.2753 168.975 18.615C168.649 18.0003 168.166 17.4847 167.576 17.1218C166.987 16.7691 166.315 16.583 165.631 16.583C164.946 16.583 164.274 16.7691 163.685 17.1218C163.095 17.4844 162.612 18 162.287 18.615C161.945 19.2753 161.767 20.0092 161.767 20.7541C161.767 21.499 161.945 22.2329 162.287 22.8932C162.612 23.508 163.095 24.0235 163.685 24.3864C164.274 24.7385 164.946 24.9242 165.631 24.9242C166.315 24.9242 166.987 24.7385 167.576 24.3864ZM176.916 26.5925C175.909 26.0158 175.076 25.1743 174.504 24.1576C173.927 23.1177 173.625 21.9459 173.625 20.7541C173.625 19.5624 173.927 18.3905 174.504 17.3506C175.076 16.3338 175.909 15.4922 176.916 14.9148C177.946 14.3327 179.107 14.027 180.287 14.027C181.468 14.027 182.628 14.3327 183.658 14.9148C184.665 15.4922 185.498 16.3339 186.07 17.3506C186.646 18.3905 186.949 19.5624 186.949 20.7541C186.949 21.9459 186.646 23.1177 186.07 24.1576C185.498 25.1742 184.665 26.0156 183.658 26.5925C182.628 27.1747 181.468 27.4803 180.287 27.4803C179.107 27.4803 177.946 27.1747 176.916 26.5925ZM182.326 24.3864C182.933 24.0329 183.431 23.5159 183.765 22.8932C184.106 22.2329 184.285 21.499 184.285 20.7541C184.285 20.0092 184.106 19.2753 183.765 18.615C183.431 17.9921 182.933 17.4751 182.326 17.1218C181.703 16.7686 181.001 16.5831 180.287 16.5831C179.573 16.5831 178.871 16.7686 178.248 17.1218C177.641 17.4751 177.143 17.9922 176.81 18.615C176.468 19.2753 176.29 20.0092 176.29 20.7541C176.29 21.499 176.468 22.2329 176.81 22.8932C177.143 23.5159 177.641 24.0329 178.248 24.3864C178.871 24.739 179.573 24.9242 180.287 24.9242C181.001 24.9242 181.703 24.739 182.326 24.3864ZM191.453 26.2424C190.706 25.3531 190.333 24.2041 190.413 23.0409V16.8511H188.014V14.2986H189.481C189.648 14.312 189.815 14.2875 189.971 14.227C190.128 14.1664 190.268 14.0712 190.384 13.9485C190.607 13.617 190.711 13.2178 190.677 12.8181V9.99215H193.075V14.2977H196.145V16.8502H193.075V22.7692C193.035 23.3154 193.208 23.8558 193.555 24.2761C193.738 24.4544 193.955 24.5921 194.194 24.6802C194.433 24.7683 194.687 24.8048 194.94 24.7875C195.455 24.7827 195.96 24.6436 196.407 24.3837V26.9362C196.13 27.0647 195.839 27.1596 195.541 27.2188C195.168 27.3001 194.788 27.3408 194.408 27.34C193.866 27.3754 193.324 27.2958 192.815 27.1064C192.306 26.9171 191.842 26.6221 191.453 26.2406V26.2424ZM199.037 11.4042C198.881 11.258 198.757 11.081 198.672 10.8842C198.587 10.6875 198.544 10.4752 198.544 10.2606C198.544 10.046 198.587 9.83374 198.672 9.63698C198.757 9.44023 198.881 9.26322 199.037 9.117C199.18 8.96787 199.352 8.84935 199.542 8.76842C199.732 8.68748 199.936 8.64579 200.143 8.64579C200.349 8.64579 200.553 8.68748 200.743 8.76842C200.933 8.84935 201.105 8.96787 201.249 9.117C201.404 9.26322 201.528 9.44023 201.613 9.63698C201.698 9.83374 201.742 10.046 201.742 10.2606C201.742 10.4752 201.698 10.6875 201.613 10.8842C201.528 11.081 201.404 11.258 201.249 11.4042C201.105 11.5531 200.933 11.6715 200.743 11.7522C200.553 11.833 200.349 11.8746 200.143 11.8746C199.936 11.8746 199.732 11.833 199.542 11.7522C199.353 11.6715 199.181 11.5531 199.037 11.4042ZM201.474 27.2115H198.811V14.2949H201.476L201.474 27.2115ZM207.162 26.5925C206.155 26.0159 205.322 25.1745 204.751 24.1576C204.174 23.1177 203.871 21.9459 203.871 20.7541C203.871 19.5624 204.174 18.3905 204.751 17.3506C205.322 16.3337 206.155 15.4919 207.162 14.9148C208.188 14.3218 209.352 14.0154 210.534 14.0269C211.647 14.004 212.748 14.2682 213.732 14.7945C214.581 15.2447 215.334 15.8622 215.944 16.6104L214.024 18.2513C213.598 17.7329 213.065 17.3149 212.462 17.0267C211.859 16.7385 211.201 16.587 210.534 16.5831C209.818 16.5747 209.114 16.7608 208.495 17.1218C207.887 17.4751 207.389 17.9921 207.056 18.615C206.714 19.2753 206.536 20.0092 206.536 20.7541C206.536 21.499 206.714 22.2329 207.056 22.8932C207.389 23.5159 207.887 24.0329 208.495 24.3864C209.114 24.7471 209.819 24.9329 210.534 24.9243C211.252 24.9352 211.962 24.7641 212.598 24.4265C213.191 24.1115 213.72 23.6873 214.158 23.1758L216.076 24.8167C215.443 25.5874 214.664 26.223 213.785 26.6864C212.759 27.224 211.618 27.497 210.462 27.4811C209.307 27.4652 208.173 27.1608 207.162 26.5952V26.5925ZM219.061 26.7402C218.264 26.338 217.563 25.7642 217.009 25.0592L218.741 23.3098C219.158 23.7948 219.654 24.2042 220.207 24.5204C220.777 24.8701 221.431 25.0564 222.098 25.0592C222.684 25.0964 223.265 24.936 223.751 24.6034C223.931 24.4766 224.079 24.3076 224.181 24.1108C224.283 23.914 224.337 23.6952 224.337 23.473C224.335 23.2767 224.278 23.0851 224.172 22.9207C224.066 22.7563 223.915 22.6259 223.738 22.545C223.137 22.2431 222.508 22.0042 221.859 21.8321C221.109 21.6146 220.374 21.3447 219.661 21.0244C219.079 20.7521 218.567 20.3463 218.168 19.8393C217.729 19.2527 217.507 18.5292 217.542 17.7946C217.538 17.1245 217.733 16.4687 218.101 15.9112C218.506 15.3096 219.069 14.8341 219.727 14.5383C220.504 14.1833 221.351 14.0085 222.205 14.0269C223.135 14.0093 224.059 14.193 224.913 14.5657C225.592 14.849 226.212 15.2598 226.739 15.7763L225.007 17.5247C224.654 17.2055 224.248 16.9508 223.807 16.7718C223.302 16.555 222.758 16.4452 222.209 16.4491C221.69 16.4189 221.175 16.5607 220.743 16.8529C220.585 16.9543 220.454 17.093 220.361 17.2571C220.268 17.4212 220.217 17.6057 220.21 17.7946C220.209 17.9847 220.262 18.1712 220.363 18.3313C220.465 18.4913 220.611 18.6178 220.783 18.6953C221.387 18.9882 222.016 19.2271 222.662 19.409C223.422 19.6243 224.165 19.8939 224.887 20.2158C225.469 20.4887 225.98 20.8944 226.38 21.4009C226.818 21.9878 227.04 22.7112 227.005 23.4456C227.007 24.1594 226.798 24.8575 226.406 25.4512C225.979 26.0939 225.386 26.6058 224.69 26.9307C223.873 27.3138 222.98 27.5025 222.079 27.4822C221.027 27.4953 219.988 27.2394 219.06 26.7384L219.061 26.7402ZM84.8698 44.4545H85.853V46.8247H84.9953V45.2941H80.0521V46.821H79.1953V44.4509H79.6738C80.0023 44.0647 80.2432 43.6108 80.3799 43.1208C80.6005 42.4238 80.7141 41.6967 80.7166 40.9649L80.7546 39.1836H84.8698V44.4545ZM84.013 44.4545V40.025H81.5897L81.5644 40.9649C81.5586 41.6854 81.4504 42.4013 81.243 43.0908C81.1132 43.584 80.8886 44.0468 80.5821 44.4527L84.013 44.4545ZM88.5074 44.9951C88.0464 44.7127 87.6644 44.3161 87.3978 43.8428C87.1195 43.3559 86.9757 42.8024 86.9816 42.2402C86.9742 41.6752 87.1134 41.118 87.3852 40.6239C87.6413 40.1532 88.0148 39.7582 88.4686 39.4781C88.9155 39.2003 89.4308 39.055 89.9556 39.0587C90.464 39.0525 90.964 39.1888 91.4002 39.4525C91.8368 39.7196 92.1923 40.1028 92.4276 40.5601C92.6844 41.0544 92.8144 41.6056 92.8059 42.1636C92.8056 42.2999 92.7972 42.4359 92.7807 42.5711H87.8619C87.9006 42.9324 88.0242 43.2791 88.2226 43.5823C88.421 43.8855 88.6883 44.1364 89.0022 44.3141C89.3201 44.4928 89.6785 44.5848 90.0423 44.5812C90.3985 44.576 90.7491 44.4917 91.0693 44.3341C91.3896 44.1766 91.6714 43.9497 91.895 43.6696L92.4872 44.2166C92.2053 44.5673 91.8585 44.8593 91.4661 45.0762C91.0212 45.3175 90.5218 45.4378 90.017 45.4254C89.4829 45.4279 88.9589 45.2788 88.5047 44.9951H88.5074ZM91.9383 41.82C91.8903 41.2867 91.6636 40.786 91.2955 40.4006C91.1196 40.226 90.9105 40.0892 90.6809 39.9985C90.4512 39.9078 90.2057 39.865 89.9592 39.8728C89.6113 39.8708 89.269 39.9607 88.9661 40.1335C88.6618 40.306 88.4021 40.5487 88.2084 40.8418C88.0146 41.1349 87.8922 41.47 87.851 41.82H91.9383ZM95.6211 39.1854H99.8645V45.2932H99.0077V40.0241H96.4363L96.4111 40.9658C96.4071 41.8838 96.3078 42.7989 96.1149 43.6961C96.0257 44.1963 95.8035 44.6626 95.4721 45.0452C95.2079 45.2949 94.8569 45.4295 94.4952 45.4199C94.2954 45.4186 94.098 45.3755 93.9156 45.2932V44.491C94.0694 44.5474 94.2313 44.5782 94.395 44.5821C94.5093 44.5848 94.6227 44.5609 94.7265 44.5124C94.8302 44.4639 94.9216 44.392 94.9936 44.3023C95.2008 43.9825 95.3321 43.6187 95.3773 43.2393C95.4989 42.4882 95.5623 41.7287 95.5669 40.9676L95.6211 39.1854ZM105.581 39.3678C105.932 39.5659 106.222 39.8588 106.418 40.2137C106.625 40.5936 106.729 41.0213 106.721 41.4544V45.2978H105.902V44.3141H105.889C105.689 44.6336 105.411 44.8964 105.082 45.0781C104.689 45.3109 104.24 45.4295 103.784 45.4208C103.419 45.4279 103.058 45.3449 102.732 45.1792C102.439 45.0329 102.19 44.8112 102.01 44.5366C101.841 44.2825 101.751 43.9836 101.751 43.6778C101.746 43.4471 101.788 43.2179 101.875 43.0044C101.962 42.7909 102.091 42.5978 102.255 42.4371C102.651 42.0738 103.149 41.8446 103.68 41.7817L105.873 41.4125V41.3997C105.882 41.1958 105.849 40.9923 105.776 40.8019C105.703 40.6115 105.593 40.4382 105.451 40.293C105.304 40.1517 105.131 40.0417 104.942 39.9694C104.752 39.8972 104.55 39.8644 104.348 39.8728C104.024 39.8653 103.704 39.9466 103.422 40.108C103.141 40.2782 102.885 40.4858 102.659 40.7251L102.092 40.1782C102.358 39.8533 102.683 39.5831 103.05 39.3823C103.448 39.1635 103.895 39.052 104.348 39.0587C104.777 39.0505 105.2 39.1558 105.575 39.3641L105.581 39.3678ZM104.887 44.3688C105.188 44.1952 105.437 43.9434 105.609 43.6395C105.787 43.3236 105.879 42.9655 105.874 42.6021V42.17L103.882 42.5009C103.531 42.5431 103.2 42.684 102.924 42.9075C102.823 42.9989 102.742 43.1114 102.688 43.2373C102.633 43.3632 102.606 43.4995 102.609 43.6368C102.609 43.7745 102.64 43.9104 102.7 44.034C102.76 44.1577 102.848 44.2657 102.956 44.3497C103.216 44.5546 103.54 44.6584 103.87 44.6423C104.225 44.6423 104.575 44.5467 104.882 44.3652L104.887 44.3688ZM110.082 44.9987C109.622 44.7161 109.24 44.3195 108.973 43.8465C108.695 43.3595 108.551 42.8061 108.557 42.2439C108.55 41.6788 108.689 41.1216 108.961 40.6276C109.217 40.1568 109.59 39.7618 110.044 39.4817C110.491 39.2038 111.007 39.0584 111.532 39.0624C112.041 39.0561 112.541 39.1924 112.977 39.4562C113.413 39.7235 113.769 40.1066 114.004 40.5638C114.261 41.058 114.391 41.6093 114.383 42.1673C114.382 42.3035 114.374 42.4396 114.357 42.5748H109.441C109.48 42.9386 109.606 43.2876 109.807 43.5921C110.003 43.8948 110.269 44.145 110.582 44.3214C110.9 44.5 111.258 44.592 111.622 44.5885C111.978 44.5835 112.329 44.4992 112.649 44.3417C112.969 44.1841 113.251 43.9571 113.474 43.6769L114.067 44.2239C113.786 44.5746 113.439 44.8666 113.046 45.0835C112.601 45.3249 112.101 45.4453 111.596 45.4327C111.059 45.4343 110.532 45.2826 110.077 44.9951L110.082 44.9987ZM113.513 41.8236C113.463 41.2875 113.232 40.785 112.858 40.4006C112.683 40.226 112.474 40.0891 112.244 39.9984C112.015 39.9077 111.77 39.8649 111.523 39.8728C111.175 39.8707 110.833 39.9606 110.53 40.1335C110.226 40.3061 109.966 40.5488 109.772 40.8419C109.578 41.1349 109.456 41.47 109.414 41.82L113.513 41.8236ZM118.458 45.2978H117.6V40.0287H115.407V39.1891H120.638V40.0287H118.458V45.2978ZM129.536 39.19H130.432L127.823 46.2531C127.667 46.7453 127.397 47.1927 127.034 47.5576C126.774 47.7706 126.46 47.9075 126.128 47.9535C125.796 47.9994 125.458 47.9527 125.15 47.8183V46.9788C125.24 47.0267 125.335 47.0648 125.434 47.0927C125.551 47.1272 125.672 47.1444 125.795 47.1438C126.057 47.1377 126.31 47.0447 126.515 46.8792C126.72 46.7137 126.866 46.4847 126.93 46.2276L127.291 45.3114L124.619 39.19H125.552L127.732 44.2421H127.757L129.536 39.19ZM132.863 45.2978H131.999V39.19H132.705L135.087 42.2949H135.125L137.507 39.19H138.201V45.2978H137.343V40.7124H137.318L135.1 43.5757L132.881 40.7124H132.856L132.863 45.2978ZM141.369 45.2978H140.511V39.19H141.369V41.7944H144.872V39.1854H145.73V45.2932H144.872V42.5948H141.369V45.2978ZM149.17 44.9987C148.709 44.7164 148.327 44.3197 148.06 43.8465C147.782 43.3595 147.638 42.8061 147.644 42.2439C147.637 41.6788 147.776 41.1216 148.047 40.6276C148.304 40.1569 148.677 39.7619 149.131 39.4817C149.578 39.2039 150.093 39.0586 150.618 39.0624C151.126 39.0561 151.626 39.1924 152.063 39.4562C152.499 39.7232 152.855 40.1064 153.09 40.5638C153.347 41.058 153.477 41.6093 153.468 42.1673C153.468 42.3035 153.46 42.4396 153.443 42.5748H148.521C148.56 42.9361 148.684 43.2828 148.882 43.586C149.081 43.8892 149.348 44.1401 149.662 44.3178C149.98 44.4964 150.338 44.5885 150.702 44.5849C151.058 44.5797 151.409 44.4953 151.729 44.3378C152.049 44.1802 152.331 43.9533 152.555 43.6733L153.147 44.2202C152.865 44.571 152.518 44.863 152.126 45.0799C151.681 45.3212 151.181 45.4415 150.677 45.429C150.141 45.431 149.616 45.2806 149.162 44.9951L149.17 44.9987ZM152.601 41.8236C152.553 41.2904 152.326 40.7897 151.958 40.4042C151.782 40.2297 151.573 40.0929 151.343 40.0022C151.114 39.9114 150.868 39.8687 150.622 39.8764C150.274 39.8745 149.931 39.9643 149.628 40.1371C149.324 40.3098 149.064 40.5525 148.871 40.8455C148.677 41.1386 148.554 41.4737 148.512 41.8236H152.601ZM156.492 44.9987C156.031 44.7161 155.65 44.3195 155.383 43.8465C155.105 43.3595 154.961 42.8061 154.967 42.2439C154.96 41.6788 155.099 41.1216 155.371 40.6276C155.627 40.157 156 39.762 156.454 39.4817C156.901 39.2038 157.417 39.0584 157.942 39.0624C158.45 39.0561 158.95 39.1924 159.387 39.4562C159.823 39.7235 160.178 40.1066 160.414 40.5638C160.671 41.058 160.801 41.6093 160.792 42.1673C160.792 42.3035 160.784 42.4396 160.767 42.5748H155.835C155.873 42.9382 155.996 43.2872 156.196 43.5921C156.392 43.8948 156.658 44.145 156.971 44.3214C157.289 44.5 157.647 44.592 158.011 44.5885C158.367 44.5835 158.718 44.4992 159.038 44.3417C159.358 44.1841 159.64 43.9571 159.863 43.6769L160.456 44.2239C160.175 44.5746 159.828 44.8666 159.435 45.0835C158.99 45.3248 158.491 45.4451 157.986 45.4327C157.454 45.4315 156.933 45.2799 156.481 44.9951L156.492 44.9987ZM159.923 41.8236C159.875 41.2903 159.648 40.7894 159.28 40.4042C159.104 40.2296 158.895 40.0928 158.666 40.002C158.436 39.9113 158.191 39.8686 157.945 39.8764C157.597 39.8743 157.254 39.9642 156.952 40.1371C156.647 40.3098 156.388 40.5525 156.194 40.8455C156 41.1386 155.877 41.4737 155.836 41.8236H159.923Z" fill="#003AEF"/>
<path d="M66.7637 35.5517V0.0337219L0.000724792 0.0337219V35.5517L66.7637 35.5517Z" fill="#003AEF"/>
<path d="M35.1779 31.919H31.5791V3.6656H35.1779V31.919ZM31.5791 3.6656H3.59766V31.919L31.5791 3.6656ZM35.1779 3.6656L49.1723 17.7955L63.1666 3.6656H35.1779ZM63.1666 31.9254L49.1723 17.7955L35.1779 31.9254H63.1666Z" fill="white"/>
</svg>
