<svg width="267" height="68" viewBox="0 0 267 68" fill="none" xmlns="http://www.w3.org/2000/svg">
<path d="M209.821 48.9587L219.075 59.515H213.064L205.906 51.3781V59.515H200.924V39.8303H205.906V46.9744L212.945 39.8303H218.836L209.82 48.9587H209.821ZM60.7252 45.1493C64.3623 45.1493 66.0236 43.4031 66.0236 40.7837C66.0236 38.1643 64.3623 36.4181 60.7252 36.4181H53.5284V45.1493H60.7252ZM60.8838 31.7343C67.1321 31.7343 71.2447 34.9479 71.2447 40.7823C71.2447 46.6167 67.1321 49.8318 60.8838 49.8318H53.5284V59.515H48.3086V31.7343H60.8838ZM83.0258 55.3874C85.9515 55.3874 88.6806 53.2848 88.6806 49.6727C88.6806 46.0605 85.9515 43.9579 83.0258 43.9579C80.1002 43.9579 77.3711 46.0619 77.3711 49.6727C77.3711 53.2835 80.1002 55.3874 83.0258 55.3874ZM83.0258 39.2755C88.4042 39.2755 93.7419 42.7679 93.7419 49.674C93.7419 56.5801 88.4042 60.0712 83.0258 60.0712C77.6475 60.0712 72.3098 56.5801 72.3098 49.674C72.3098 42.7679 77.6475 39.2755 83.0258 39.2755ZM106.463 55.3887C103.458 55.3887 101.244 53.2059 101.244 49.674C101.244 46.1421 103.536 43.9593 106.463 43.9593C108.243 43.9593 109.785 44.793 111.011 46.6575L115.282 44.1973C113.858 41.1414 110.774 39.2768 106.504 39.2768C100.928 39.2768 96.1837 43.4044 96.1837 49.674C96.1837 55.9436 100.692 60.0726 106.504 60.0726C110.695 60.0726 113.503 58.1672 115.48 54.7944L111.367 52.5327C110.18 54.2001 108.916 55.3901 106.465 55.3901M159.515 50.9837C159.278 54.0002 158.683 54.6747 157.656 54.6747C156.954 54.6747 156.623 54.5972 156.142 54.4707L156.167 59.5639C156.167 59.5639 156.786 59.7543 157.932 59.7543C162.163 59.7543 163.745 57.0153 164.141 51.1823L164.615 44.3156H170.23V59.4769H175.212V39.8317H160.344L159.514 50.9837H159.515ZM150.325 47.0533C149.85 44.5931 147.993 43.0848 145.224 43.0848C142.614 43.0848 140.637 44.8311 139.924 47.0533H150.325ZM145.381 39.2755C150.997 39.2755 154.951 43.3636 154.951 49.1178V50.864H139.845C140.16 53.8805 142.296 55.7845 145.223 55.7845C147.872 55.7845 148.979 54.6339 150.205 53.0863L154.16 55.0705C152.183 58.4433 149.453 60.0712 145.143 60.0712C139.686 60.0712 135.06 55.9042 135.06 49.6727C135.06 43.4411 139.687 39.2755 145.38 39.2755M193.266 47.0533C192.792 44.5931 190.933 43.0848 188.165 43.0848C185.556 43.0848 183.579 44.8311 182.866 47.0533H193.266ZM188.324 39.2755C193.939 39.2755 197.894 43.3636 197.894 49.1178V50.864H182.787C183.103 53.8805 185.238 55.7845 188.165 55.7845C190.815 55.7845 191.922 54.6339 193.148 53.0863L197.102 55.0705C195.125 58.4433 192.396 60.0712 188.086 60.0712C182.629 60.0712 178.002 55.9042 178.002 49.6727C178.002 43.4411 182.629 39.2755 188.323 39.2755M117.029 44.1959H122.882V59.515H127.864V44.1959H133.717V39.8303H117.029V44.1959ZM228.967 55.3887C231.893 55.3887 234.622 53.2862 234.622 49.674C234.622 46.0619 231.893 43.9593 228.967 43.9593C226.041 43.9593 223.312 46.0632 223.312 49.674C223.312 53.2848 226.041 55.3887 228.967 55.3887ZM228.967 39.2755C234.345 39.2755 239.683 42.7679 239.683 49.674C239.683 56.5801 234.345 60.0726 228.967 60.0726C223.589 60.0726 218.251 56.5801 218.251 49.674C218.251 42.7679 223.589 39.2755 228.967 39.2755ZM259.508 39.8276L254.1 53.6139L248.692 39.8276H242.179V59.4769H246.915V47.037L252.165 59.4769H256.032L261.282 47.037V59.4769H266.018V39.8276H259.505H259.508Z" fill="white" style="fill:white;fill-opacity:1;"/>
<path d="M14.8113 49.8114L40.8371 23.8544L17.0052 0L3.51263 13.5143C-0.520099 17.5481 0.0246445 20.1892 0.0246445 25.6074V62.6838C0.0246445 65.5493 2.39333 68 5.37723 68H32.9437L32.1672 67.2221L14.81 49.8127L14.8113 49.8114ZM5.38129 67.5444C1.48949 67.5444 0.862087 63.7296 2.51935 62.0772L14.4793 50.1432L31.8461 67.5444H5.38129Z" fill="white" style="fill:white;fill-opacity:1;"/>
</svg>
