<svg width="257" height="41" viewBox="0 0 257 41" fill="none" xmlns="http://www.w3.org/2000/svg">
<path d="M18.3535 0.15057C14.8429 0.532772 11.3554 1.8589 8.58758 3.86837C5.04215 6.44534 2.47157 9.91992 1.09634 14.0083C0.614717 15.4329 0.27236 17.037 0.115688 18.589C0.0228454 19.5387 0.0344507 21.6466 0.138899 22.6369C0.73077 28.1904 3.49864 33.1764 7.89706 36.6336C10.8448 38.95 14.3728 40.3977 18.22 40.861C19.3747 41.0058 21.7016 41.0058 22.8621 40.8668C26.7847 40.392 30.3476 38.9095 33.394 36.4831C34.3572 35.7129 35.7847 34.2883 36.5564 33.327C38.1812 31.3001 39.5332 28.7232 40.2295 26.3199C40.891 24.0383 41.1811 21.6003 41.0361 19.4171C40.9664 18.3863 40.8098 17.0544 40.7401 16.9328C40.7169 16.8864 39.8871 17.4655 38.5293 18.4674L36.3533 20.0715L36.3127 21.0501C36.1792 24.4436 35.1058 27.4086 33.0226 30.142C32.4655 30.8774 31.0091 32.3425 30.2895 32.8927C27.7364 34.8442 25.0788 35.8982 21.9047 36.1993C21.0575 36.2804 19.189 36.234 18.3651 36.1124C15.4986 35.6897 12.8932 34.5547 10.6185 32.7421C9.99182 32.2441 8.79067 31.0453 8.27423 30.4025C6.458 28.1383 5.29167 25.4281 4.89708 22.5268C4.75782 21.525 4.75782 19.4518 4.89708 18.5079C5.17561 16.5795 5.63982 15.0681 6.43479 13.4872C8.634 9.11497 12.6959 6.0226 17.4947 5.06709C18.6204 4.84704 19.2761 4.78334 20.5701 4.78334C23.6165 4.78913 26.3902 5.58249 28.8969 7.16342L29.454 7.51088L31.4385 6.05735C32.5236 5.2582 33.4172 4.59224 33.4172 4.57486C33.423 4.55749 33.1561 4.34901 32.8253 4.1C29.8195 1.8589 26.1697 0.46328 22.4269 0.115822C21.5507 0.0347481 19.2123 0.052124 18.3535 0.15057Z" fill="white" style="fill:white;fill-opacity:1;"/>
<path d="M62.2038 7.79468C59.2096 8.06106 57.08 8.86021 55.5829 10.2906C54.4572 11.3677 53.7841 12.6301 53.5288 14.1879C53.3779 15.0565 53.4301 16.4348 53.639 17.2224C54.2251 19.4635 55.8266 20.8938 58.9021 21.913C59.4243 22.0868 60.8169 22.469 61.9949 22.7585C64.9484 23.4882 65.7608 23.7719 66.55 24.351C67.9542 25.3818 67.7279 27.3739 66.1148 28.2136C65.1051 28.7406 63.5674 28.9664 61.8846 28.839C59.9756 28.6943 58.2986 28.2483 56.6042 27.4202C56.1922 27.2233 55.6119 26.8991 55.316 26.7022C55.0201 26.5111 54.7706 26.3721 54.7532 26.3952C54.7009 26.4821 52.9775 30.4258 52.9775 30.4605C52.9775 30.4779 53.2213 30.6574 53.5172 30.8485C55.3914 32.082 58.0781 32.9217 60.9794 33.1822C61.9833 33.2749 64.2753 33.2286 65.1051 33.0954C68.5577 32.5568 70.989 31.0338 72.1321 28.6943C73.1592 26.5979 72.9967 23.7719 71.755 22.0462C71.3894 21.5308 70.6699 20.8591 70.078 20.4711C68.8536 19.6777 67.5132 19.2029 64.2289 18.3921C61.8556 17.8072 61.1825 17.6104 60.4978 17.2919C59.169 16.6838 58.6293 15.8673 58.786 14.7265C58.9775 13.3424 60.2193 12.4622 62.3372 12.2132C63.0742 12.1263 64.8962 12.1784 65.5577 12.3C66.2366 12.4274 66.8343 12.6012 67.4668 12.856L68.0122 13.0818L69.9851 11.6283L71.9639 10.1748L71.5635 9.94312C69.9619 9.00499 67.7279 8.23479 65.7086 7.93366C64.931 7.81784 62.8827 7.73677 62.2038 7.79468Z" fill="white" style="fill:white;fill-opacity:1;"/>
<path d="M29.0131 13.7072C24.7539 16.8401 21.1041 19.5213 20.9068 19.6661L20.5412 19.9267L16.7288 17.5408C14.6283 16.2321 12.8759 15.1318 12.8411 15.097C12.783 15.0565 12.7656 15.6414 12.7656 17.9925V20.9459L16.6128 23.355C18.7308 24.6811 20.4832 25.7698 20.518 25.7814C20.5586 25.7929 37.1948 13.6088 39.1619 12.1205C39.2432 12.0626 39.22 11.9757 38.9414 11.4256C38.7732 11.0839 38.4888 10.5511 38.309 10.25C37.9318 9.60142 36.9976 8.21159 36.8583 8.08998C36.7712 8.0147 36.0517 8.53009 29.0131 13.7072Z" fill="white" style="fill:white;fill-opacity:1;"/>
<path d="M219.775 8.04938C216.479 8.26944 213.688 9.34076 211.524 11.2344C209.348 13.1281 207.938 15.9598 207.613 19.0927C207.526 19.973 207.572 22.1272 207.706 22.9611C208.065 25.2833 208.971 27.3391 210.363 28.9953C212.278 31.2653 215.145 32.6841 218.76 33.1358C219.688 33.2516 222.16 33.2343 222.996 33.1069C225.578 32.7073 227.939 31.7286 229.164 30.5588L229.495 30.2403L229.489 27.5823C229.489 25.5091 229.471 24.9532 229.419 25.0401C228.636 26.2909 227.284 27.4491 225.781 28.1672C224.319 28.8563 223.001 29.169 221.284 29.2269C217.094 29.3601 213.932 27.368 212.76 23.8471C212.365 22.6716 212.295 22.1967 212.29 20.6447C212.29 19.4228 212.307 19.1796 212.423 18.6063C213.032 15.6066 214.825 13.5045 217.593 12.5432C219.201 11.9814 221.232 11.8598 222.874 12.2131C225.154 12.7111 227.29 14.043 228.763 15.8903L229.03 16.2262L229.019 13.2033L229.001 10.1747L228.491 9.87353C227.458 9.25969 225.601 8.57057 224.301 8.32156C222.984 8.06675 221.156 7.95672 219.775 8.04938Z" fill="white" style="fill:white;fill-opacity:1;"/>
<path d="M77.7955 8.20004C77.7723 8.2232 77.7549 13.7767 77.7549 20.5406V32.8406L84.8515 32.8174C89.9695 32.8 92.0875 32.7769 92.4646 32.7248C95.482 32.3194 97.5942 31.2886 98.7083 29.6729C98.9984 29.2502 99.3814 28.3815 99.5207 27.8546C99.6948 27.1712 99.7412 25.6656 99.6077 24.9301C99.2886 23.1002 98.2905 21.6409 96.7354 20.7317C96.3872 20.529 95.9811 20.3495 95.3079 20.0947L95.1397 20.031L95.424 19.8746C96.1319 19.4866 96.8631 18.8554 97.3505 18.2184C97.6986 17.7551 98.1396 16.8286 98.2905 16.2321C98.836 14.0894 98.3195 11.9584 96.9269 10.5685C95.9752 9.61882 94.5072 8.88337 92.836 8.51854C91.3911 8.20583 91.3853 8.20583 84.3699 8.18266C80.7781 8.17108 77.8187 8.17687 77.7955 8.20004ZM90.4337 12.4332C91.5478 12.688 92.2673 13.1224 92.7083 13.8057C93.1958 14.5643 93.2364 15.7341 92.8128 16.6027C92.453 17.3382 91.7741 17.8246 90.7122 18.1142L90.1436 18.2647L86.6214 18.2879L83.0933 18.3053V15.2882V12.2653L86.5053 12.2942C89.6678 12.3174 89.9521 12.3232 90.4337 12.4332ZM90.7819 22.4748C92.7258 22.6716 93.8689 23.4129 94.2054 24.6985C94.3041 25.0865 94.3215 26.0188 94.2286 26.401C93.9385 27.6577 92.8302 28.4337 90.985 28.6653C90.747 28.6942 88.8728 28.7232 86.8244 28.7232H83.0933V25.5671V22.4111H86.6214C88.7567 22.4111 90.4047 22.4342 90.7819 22.4748Z" fill="white" style="fill:white;fill-opacity:1;"/>
<path d="M104.68 20.5V32.8347H114.022H123.364V30.7789V28.7231H116.691H110.018V25.5671V22.411H115.705H121.391V20.3552V18.2994H115.705H110.018V15.2881V12.2768H113.906H117.8L120.451 10.331C121.908 9.25972 123.155 8.33316 123.219 8.27525C123.329 8.16522 123.138 8.16522 114.005 8.16522H104.68V20.5Z" fill="white" style="fill:white;fill-opacity:1;"/>
<path d="M128.337 8.20576C128.314 8.22313 128.297 13.7767 128.297 20.5405V32.8347H130.966H133.635V29.3312V25.8277L136.281 25.8392L138.933 25.8566L141.289 29.3428L143.645 32.8289L146.506 32.8347C148.78 32.8347 149.361 32.8173 149.326 32.7594C149.303 32.7247 148.084 30.9237 146.616 28.7579C145.154 26.5979 143.964 24.8258 143.976 24.82C146.79 23.4997 148.351 21.525 148.873 18.6179C149.024 17.7724 149.012 16.1799 148.85 15.2881C148.537 13.5682 147.817 12.1726 146.639 11.0028C144.962 9.34658 142.583 8.42002 139.49 8.22892C138.452 8.15943 128.401 8.14206 128.337 8.20576ZM139.885 12.4158C140.993 12.6301 141.759 13.018 142.426 13.6898C143.157 14.4253 143.494 15.1723 143.622 16.3884C143.79 17.923 143.395 19.336 142.542 20.2567C141.73 21.1312 140.68 21.5713 139.09 21.7161C138.724 21.745 137.343 21.774 136.032 21.774H133.635V17.0196V12.2652L136.525 12.2942C138.858 12.3173 139.502 12.3405 139.885 12.4158Z" fill="white" style="fill:white;fill-opacity:1;"/>
<path d="M161.778 10.3947V12.3926H165.84H169.902V22.6137V32.8347H172.078H174.254V22.6137V12.3926H178.403H182.552V10.3947V8.39686H172.165H161.778V10.3947Z" fill="white" style="fill:white;fill-opacity:1;"/>
<path d="M186.962 20.6158V32.8347H195.637H204.312V30.8368V28.839H197.813H191.314V25.5381V22.2373H196.972H202.629V20.2394V18.2415H196.972H191.314V15.3171V12.3926H197.61H203.906V10.3947V8.39686H195.434H186.962V20.6158Z" fill="white" style="fill:white;fill-opacity:1;"/>
<path d="M234.775 20.6158V32.8347H236.951H239.127V27.536V22.2373H245.858H252.59V27.536V32.8347H254.766H256.942V20.6158V8.39686H254.766H252.59V13.3192V18.2415H245.858H239.127V13.3192V8.39686H236.951H234.775V20.6158Z" fill="white" style="fill:white;fill-opacity:1;"/>
</svg>
