<svg width="212" height="57" viewBox="0 0 212 57" fill="none" xmlns="http://www.w3.org/2000/svg">
<path fill-rule="evenodd" clip-rule="evenodd" d="M79.4654 32.0652L79.4667 35.8878H72.493L72.5153 55.8286H67.6929L67.6686 35.8878H60.7295V32.0652H79.4654Z" fill="white" style="fill:white;fill-opacity:1;"/>
<path fill-rule="evenodd" clip-rule="evenodd" d="M80.7658 47.4935C80.7214 48.8684 81.1547 50.1113 81.8024 51.0395C82.8358 52.5211 84.2927 53.0724 85.8499 53.0724C87.7789 53.0724 89.6527 52.1083 90.8945 51.1111L92.5768 53.6571C90.8223 54.9671 88.3253 56.2748 85.1715 56.2748C82.2024 56.2748 80.4382 55.1723 79.6847 54.6568C78.4069 53.7263 76.3992 51.6957 76.3179 47.6678C76.2511 44.2558 77.5413 41.9862 78.9236 40.6049C80.2337 39.3309 82.3247 38.1617 85.2193 38.1617C88.5971 38.1617 90.4094 39.7124 91.3634 41.0871C92.8161 43.1201 92.9751 45.6348 92.9983 46.8041L93.0128 47.4935L80.7658 47.4935ZM88.6939 44.9098C88.6417 44.1865 88.4001 43.2227 87.9011 42.4325C87.2515 41.3996 86.425 40.9174 85.1625 40.9174C84.0504 40.9174 82.9448 41.2967 82.0401 42.3302C81.168 43.2939 80.9257 44.2558 80.8658 44.9098H88.6939Z" fill="white" style="fill:white;fill-opacity:1;"/>
<path fill-rule="evenodd" clip-rule="evenodd" d="M106.508 42.7564C104.646 42.3435 102.782 43.0106 102.125 43.5284C101.395 44.1509 100.704 44.9765 100.275 45.7308L100.297 55.8286H95.7694L95.7637 38.6793H100.033L100.062 42.4974C100.457 41.7388 101.142 40.7414 101.833 40.0495C102.524 39.3622 103.587 38.6728 105.182 38.6728C105.629 38.6728 106.224 38.7755 106.518 38.8111L106.508 42.7564Z" fill="white" style="fill:white;fill-opacity:1;"/>
<path fill-rule="evenodd" clip-rule="evenodd" d="M113.021 41.1585C114.626 39.6768 117.157 38.2307 119.717 38.2307C121.648 38.2307 122.847 38.9183 123.531 39.5741C124.814 40.8148 125.032 42.3613 125.019 43.5664L125.039 55.8286H120.585L120.562 45.1841C120.545 44.3585 120.482 43.1868 119.617 42.3969C119.274 42.087 118.672 41.743 117.748 41.743C116.153 41.743 114.353 42.8431 113.228 43.9813L113.239 55.8286H108.713L108.707 38.6793H113.048L113.021 41.1585Z" fill="white" style="fill:white;fill-opacity:1;"/>
<path fill-rule="evenodd" clip-rule="evenodd" d="M145.576 40.603C144.617 40.1321 142.815 39.4335 140.943 39.4335C138.956 39.4335 136.818 40.054 135.281 41.6115C134.24 42.6514 133.18 44.3873 133.233 47.0051C133.281 49.703 134.433 51.4412 135.486 52.4276C136.939 53.8021 138.936 54.4761 140.863 54.4761C141.927 54.4761 143.399 54.2196 144.735 53.8021L144.728 46.1771H146.967L146.964 54.9671C144.607 56.0069 142.545 56.2657 140.894 56.2657C138.603 56.2657 136.22 55.8506 134.206 54.2953C131.994 52.606 130.717 49.9618 130.661 47.112C130.623 45.115 131.15 43.3473 132.319 41.6918C134.31 38.8622 137.247 37.6438 140.6 37.6438C141.999 37.6438 144.015 37.8492 146.41 38.9649L145.576 40.603Z" fill="white" style="fill:white;fill-opacity:1;"/>
<path fill-rule="evenodd" clip-rule="evenodd" d="M153.939 38.0034C155.642 38.0034 157.269 38.1103 158.601 39.1726C159.566 39.9492 160.345 41.221 160.373 42.8569C160.404 44.3631 159.836 45.3963 159.095 46.1013C158.327 46.8269 157.023 47.3978 155.683 47.6031C156.586 48.0429 157.437 48.6923 158.469 49.9618L162.676 55.2013L160.77 56.4466L155.759 50.069C155.158 49.2901 154.531 48.7435 153.916 48.4869C153.489 48.3282 152.846 48.2259 152.286 48.2259H151.029L151.005 55.9021H148.715L148.628 38.0033L153.939 38.0034ZM150.998 46.5411H153.206C154.268 46.5411 155.944 46.4094 157.016 45.4766C157.566 44.9856 157.999 44.2313 157.975 43.0398C157.95 41.8461 157.518 40.9399 156.61 40.3686C155.705 39.7708 154.559 39.6924 153.69 39.6924H150.98L150.998 46.5411Z" fill="white" style="fill:white;fill-opacity:1;"/>
<path fill-rule="evenodd" clip-rule="evenodd" d="M178.514 39.9245C180.588 41.6917 181.726 44.3339 181.778 46.9806C181.827 49.5711 180.785 52.115 178.888 53.8532C176.827 55.7213 174.294 56.2165 171.947 56.2165C169.487 56.2165 167.043 55.7213 164.829 53.724C162.579 51.7022 161.863 49.212 161.822 47.0317C161.773 44.4388 162.736 41.9998 164.545 40.2659C166.906 37.9809 169.753 37.6953 171.567 37.6953C173.97 37.6953 176.439 38.1617 178.514 39.9245ZM166.552 41.3796C165.48 42.3612 164.31 44.1531 164.364 46.9806C164.386 48.1452 164.618 50.0154 165.992 51.7267C167.85 54.0097 170.456 54.3734 171.912 54.3734C173.839 54.3734 176.176 53.7509 177.705 51.7783C178.795 50.3788 179.235 48.538 179.203 46.8487C179.151 44.1285 178.002 42.5196 177.148 41.6627C176.151 40.6765 174.369 39.5608 171.632 39.5608C169.341 39.5608 167.621 40.3931 166.552 41.3796Z" fill="white" style="fill:white;fill-opacity:1;"/>
<path fill-rule="evenodd" clip-rule="evenodd" d="M185.467 38.0033L185.46 49.6515C185.467 51.4147 186.242 52.4565 186.865 53.0236C187.664 53.7753 188.959 54.3735 190.859 54.3735C192.707 54.3735 194.118 53.829 194.99 52.5547C195.779 51.4146 195.998 49.6003 195.998 48.1452L196.001 38.0033H198.378L198.353 48.6653C198.347 49.7833 198.271 51.7023 197.24 53.3112C195.856 55.4622 193.575 56.1631 190.81 56.1631C187.512 56.1631 185.676 55.0743 184.706 54.0098C183.509 52.738 182.996 50.8187 182.986 48.9263L183.006 38.0033H185.467Z" fill="white" style="fill:white;fill-opacity:1;"/>
<path fill-rule="evenodd" clip-rule="evenodd" d="M206.202 38.0033C207.741 38.0033 209.23 38.4474 210.168 39.1479C211.103 39.8465 211.964 41.1183 211.998 43.0107C212.023 44.1757 211.735 45.2936 210.97 46.2285C209.247 48.3282 206.371 48.4066 205.337 48.4066H202.571V55.9021H200.226L200.25 38.0033L206.202 38.0033ZM202.568 46.7238H204.777C206.312 46.7238 207.566 46.4093 208.365 45.8134C209.465 45.0079 209.669 43.9188 209.652 43.0397C209.627 41.6628 208.995 40.8596 208.375 40.42C208.232 40.3174 207.24 39.6412 205.229 39.6412H202.571L202.568 46.7238Z" fill="white" style="fill:white;fill-opacity:1;"/>
<path fill-rule="evenodd" clip-rule="evenodd" d="M3.35579e-05 17.3248C3.35579e-05 17.3248 10.4102 24.1039 21.3591 31.6702C21.6761 30.3358 22.0642 28.9726 22.518 27.5389C16.1868 24.4955 11.3014 22.6764 3.35579e-05 17.3248Z" fill="white" style="fill:white;fill-opacity:1;"/>
<path fill-rule="evenodd" clip-rule="evenodd" d="M36.0119 36.102C33.3163 33.6296 30.3784 31.6592 26.8634 29.7468C26.5867 31.6259 26.3551 33.4175 26.1748 35.0757C28.7228 36.9434 30.9083 38.6592 32.4574 40.0807C33.3407 38.8221 34.4864 37.5124 35.9573 36.1534C35.9742 36.1421 35.9952 36.1198 36.0119 36.102Z" fill="white" style="fill:white;fill-opacity:1;"/>
<path fill-rule="evenodd" clip-rule="evenodd" d="M38.7049 40.8952C37.6459 41.973 36.7603 43.0039 36.0127 43.9881C40.9393 50.4172 39.674 54.572 39.674 54.572C39.674 54.572 45.5385 48.5514 39.5672 40.0806C39.256 40.364 38.9648 40.641 38.7049 40.8952Z" fill="white" style="fill:white;fill-opacity:1;"/>
<path fill-rule="evenodd" clip-rule="evenodd" d="M39.4619 2.69577e-05C39.4619 2.69577e-05 43.2564 16.787 45.1633 29.7467C46.5076 29.0129 47.9563 28.2832 49.5045 27.539C47.3732 20.7802 43.8619 12.5622 39.4619 2.69577e-05Z" fill="white" style="fill:white;fill-opacity:1;"/>
<path fill-rule="evenodd" clip-rule="evenodd" d="M45.8465 35.0756C46.131 37.7397 46.28 40.0472 46.1967 41.7031C45.5965 54.1032 38.9531 56.9999 38.9531 56.9999C38.9531 56.9999 51.7401 55.9686 51.7501 40.1454C51.7556 37.3203 51.3633 34.5846 50.6657 31.6702C48.9702 32.8305 47.3489 33.9799 45.8465 35.0756Z" fill="white" style="fill:white;fill-opacity:1;"/>
<path fill-rule="evenodd" clip-rule="evenodd" d="M38.6663 28.129C38.6663 29.4835 37.4762 30.5946 36.0118 30.5946C34.5418 30.5946 33.3594 29.4834 33.3594 28.129C33.3594 26.7574 34.5418 25.6556 36.0118 25.6556C37.4762 25.6556 38.6663 26.7574 38.6663 28.129Z" fill="white" style="fill:white;fill-opacity:1;"/>
<path fill-rule="evenodd" clip-rule="evenodd" d="M72.0222 17.3248C60.7222 22.6764 55.8343 24.4955 49.5054 27.539C47.9572 28.2832 46.5085 29.0129 45.1641 29.7467C41.6473 31.6592 38.7049 33.6295 36.0128 36.1019C35.996 36.1197 35.9751 36.1421 35.9582 36.1533C34.4873 37.5123 33.3416 38.8221 32.4582 40.0806C26.4818 48.5513 32.347 54.5719 32.347 54.5719C32.347 54.5719 31.0839 50.4172 36.0128 43.9881C36.7604 43.0039 37.646 41.9729 38.7049 40.8952C38.9649 40.6409 39.256 40.364 39.5673 40.0806C41.1138 38.6591 43.3005 36.9434 45.8472 35.0757C47.3496 33.98 48.9709 32.8306 50.6665 31.6702C61.6165 24.104 72.0222 17.3248 72.0222 17.3248ZM22.5186 27.539C22.0647 28.9726 21.6767 30.3358 21.3596 31.6702C20.6562 34.5846 20.2618 37.3203 20.2666 40.1454C20.2844 55.9687 33.0704 56.9999 33.0704 56.9999C33.0704 56.9999 26.4282 54.1032 25.8228 41.7031C25.7429 40.0472 25.8886 37.7397 26.1756 35.0756C26.3559 33.4174 26.5875 31.6258 26.8642 29.7466C28.7582 16.7869 32.5527 -6.10352e-05 32.5527 -6.10352e-05C28.1582 12.562 24.643 20.7801 22.5186 27.539Z" fill="white" style="fill:white;fill-opacity:1;"/>
</svg>
