<svg width="110" height="120" viewBox="0 0 110 120" fill="none" xmlns="http://www.w3.org/2000/svg">
<path d="M92.6664 59.0501V60.2356C92.6664 65.5704 90.1373 74.936 72.0384 74.936H70.2601C52.1217 74.936 49.5926 65.5704 49.5926 60.2356V59.0501C49.5926 53.6362 52.1217 44.4287 70.2601 44.4287H72.0384C90.1373 44.4287 92.6664 53.6362 92.6664 59.0501ZM81.0088 59.8009V59.2872C81.0088 56.2444 79.033 52.3322 71.1295 52.3322C63.0285 52.3322 61.2107 56.2444 61.2107 59.2872V59.7614C61.2107 62.8042 63.1865 66.9536 71.1295 66.9536C79.033 66.9536 81.0088 62.8438 81.0088 59.8009Z" fill="white"/>
<path d="M47.7785 74.3828H10V70.9448C10 66.9536 10.4742 60.1961 25.7674 56.8766C27.6247 56.442 29.9167 56.0073 31.4579 55.7306C35.1725 54.9798 35.5677 54.4266 35.5677 53.5177C35.5677 52.4902 34.6983 51.5813 29.1264 51.5813C22.3689 51.5813 22.0528 54.2685 21.9342 55.4145H10.4742V55.1379C10.4742 51.4233 11.9363 44.4287 27.9408 44.4287H29.6401C44.4591 44.4287 47.3438 48.7361 47.3438 53.5572V53.7153C47.3438 58.6154 44.5381 60.9074 33.9475 62.6066L27.6247 63.6736C20.8672 64.8196 19.7608 66.1632 19.7608 66.9931H37.3855V63.5155H47.7785V74.3828Z" fill="white"/>
<path d="M74.223 101.724V90.6395H67.7026V85.7788H88.7752V90.6395H82.2549V101.724H74.223Z" fill="white"/>
<path d="M54.1912 89.2465C51.1385 89.2465 49.9826 90.2245 49.5973 91.6472H58.7851C58.459 90.1356 57.2439 89.2465 54.1912 89.2465ZM66.7873 95.915V95.9743C66.7873 98.1972 65.424 102.169 55.021 102.169H53.4502C43.6401 102.169 41.5951 97.6933 41.5951 93.9589V93.3662C41.5951 89.6911 43.4919 85.3343 53.3613 85.3343H54.9914C65.3943 85.3343 66.8466 90.1949 66.8466 94.0182V94.9073H49.5084C49.7455 96.5671 51.1088 97.8415 54.3394 97.8415H54.369C58.1923 97.8415 58.7851 96.2707 58.8443 95.915H66.7873Z" fill="white"/>
<path d="M31.7013 101.724V90.6395H26.1887C26.0997 95.263 25.9516 97.2784 25.2106 98.8195C24.3511 100.716 22.6025 101.724 19.3719 101.724H16.3489V96.656H16.7045C17.6233 96.656 18.216 96.2707 18.4828 95.2334C18.7792 94.1664 18.9866 92.892 18.9866 85.7788H39.7332V101.724H31.7013Z" fill="white"/>
<path d="M95.1596 33.57C94.1585 33.57 93.3154 33.3231 92.6305 32.8291C91.9455 32.3285 91.4252 31.6535 91.0695 30.8038C90.7205 29.9476 90.5459 28.9893 90.5459 27.929C90.5459 26.8554 90.7205 25.8938 91.0695 25.0442C91.4252 24.1946 91.9455 23.5261 92.6305 23.0387C93.322 22.5513 94.1683 22.3076 95.1694 22.3076C96.1574 22.3076 97.007 22.5546 97.7183 23.0486C98.4362 23.5359 98.9861 24.2044 99.3681 25.0541C99.7502 25.9037 99.9411 26.862 99.9411 27.929C99.9411 28.9959 99.7502 29.9542 99.3681 30.8038C98.9861 31.6535 98.4362 32.3285 97.7183 32.8291C97.007 33.3231 96.1541 33.57 95.1596 33.57ZM90.2495 38.0157V22.604H91.8204V30.4581H92.0179V38.0157H90.2495ZM94.9422 31.9597C95.6469 31.9597 96.2298 31.7819 96.6908 31.4262C97.1519 31.0706 97.4977 30.5898 97.7282 29.9838C97.9587 29.3713 98.074 28.6864 98.074 27.929C98.074 27.1781 97.9587 26.4997 97.7282 25.8938C97.5042 25.2879 97.1552 24.8071 96.681 24.4514C96.2133 24.0958 95.6173 23.9179 94.8928 23.9179C94.2013 23.9179 93.6283 24.0892 93.1738 24.4317C92.7194 24.7676 92.3802 25.2385 92.1562 25.8444C91.9323 26.4438 91.8204 27.1386 91.8204 27.929C91.8204 28.7061 91.929 29.401 92.1464 30.0135C92.3703 30.6194 92.7128 31.0969 93.1738 31.446C93.6348 31.7885 94.2243 31.9597 94.9422 31.9597Z" fill="white"/>
<path d="M82.366 33.5503C81.681 33.5503 81.0916 33.4416 80.5976 33.2243C80.1102 33.0069 79.7052 32.7171 79.3824 32.3549C79.0597 31.9926 78.8062 31.5909 78.6217 31.1496C78.4373 30.7083 78.3056 30.2572 78.2266 29.7961C78.1541 29.3351 78.1179 28.9037 78.1179 28.502V22.604H79.8962V27.9487C79.8962 28.4493 79.9423 28.9333 80.0345 29.401C80.1267 29.8686 80.2815 30.2901 80.4988 30.6655C80.7227 31.0409 81.0191 31.3373 81.3879 31.5547C81.7634 31.772 82.231 31.8807 82.7908 31.8807C83.2321 31.8807 83.6338 31.8049 83.9961 31.6535C84.3583 31.502 84.6679 31.278 84.9247 30.9817C85.1816 30.6787 85.3792 30.2967 85.5175 29.8357C85.6558 29.3746 85.725 28.8378 85.725 28.2253L86.8808 28.581C86.8808 29.6084 86.6931 30.4943 86.3177 31.2385C85.9489 31.9828 85.4253 32.5558 84.7469 32.9575C84.0751 33.3527 83.2815 33.5503 82.366 33.5503ZM85.9226 33.2737V30.4185H85.725V22.604H87.4934V33.2737H85.9226Z" fill="white"/>
<path d="M70.9932 33.57C69.9328 33.57 69.0173 33.3296 68.2467 32.8489C67.4827 32.3681 66.8933 31.7028 66.4784 30.8532C66.0634 30.0036 65.856 29.0288 65.856 27.929C65.856 26.8093 66.0667 25.8279 66.4882 24.9849C66.9098 24.1419 67.5058 23.4865 68.2764 23.0189C69.047 22.5447 69.9526 22.3076 70.9932 22.3076C72.0602 22.3076 72.979 22.548 73.7495 23.0288C74.5201 23.503 75.1096 24.1649 75.5179 25.0146C75.9329 25.8576 76.1403 26.8291 76.1403 27.929C76.1403 29.042 75.9329 30.0234 75.5179 30.873C75.103 31.716 74.5102 32.3779 73.7397 32.8587C72.9691 33.3329 72.0536 33.57 70.9932 33.57ZM70.9932 31.9004C72.0997 31.9004 72.923 31.5316 73.463 30.794C74.0031 30.0563 74.2731 29.1013 74.2731 27.929C74.2731 26.7237 73.9998 25.7654 73.4532 25.0541C72.9065 24.3362 72.0865 23.9772 70.9932 23.9772C70.249 23.9772 69.6365 24.1452 69.1557 24.4811C68.6749 24.817 68.3159 25.2813 68.0788 25.8741C67.8417 26.4668 67.7231 27.1518 67.7231 27.929C67.7231 29.1276 67.9998 30.0892 68.553 30.8137C69.1062 31.5382 69.9196 31.9004 70.9932 31.9004Z" fill="white"/>
<path d="M59.2708 33.2737V22.604H60.8416V25.1825L60.5847 24.8466C60.7099 24.5173 60.8712 24.2143 61.0688 23.9377C61.273 23.6611 61.5002 23.4339 61.7505 23.256C62.0271 23.0321 62.34 22.8609 62.689 22.7423C63.0381 22.6238 63.3937 22.5546 63.756 22.5348C64.1182 22.5085 64.4574 22.5315 64.7736 22.604V24.2538C64.4047 24.1551 63.9997 24.1287 63.5584 24.1748C63.1171 24.2209 62.7088 24.3823 62.3334 24.6589C61.9909 24.9026 61.7241 25.199 61.5331 25.548C61.3487 25.8971 61.2203 26.2758 61.1478 26.6842C61.0754 27.0859 61.0392 27.4976 61.0392 27.9191V33.2737H59.2708Z" fill="white"/>
<path d="M50.9254 33.57C49.9506 33.57 49.0615 33.3988 48.258 33.0563C47.4544 32.7138 46.7629 32.2232 46.1833 31.5843C45.6037 30.9388 45.1559 30.1617 44.8397 29.2528C44.5302 28.3373 44.3754 27.3066 44.3754 26.1606C44.3754 24.6457 44.6454 23.3351 45.1855 22.2286C45.7256 21.1221 46.4863 20.2692 47.4676 19.6698C48.449 19.0639 49.6015 18.7609 50.9254 18.7609C52.5192 18.7609 53.8036 19.1331 54.7783 19.8773C55.7531 20.615 56.4249 21.6259 56.7937 22.9103L55.0154 23.2758C54.719 22.413 54.2317 21.7247 53.5533 21.211C52.8749 20.6973 52.0286 20.4404 51.0143 20.4404C49.9539 20.4338 49.0714 20.6709 48.3666 21.1517C47.6685 21.6259 47.1416 22.2944 46.7859 23.1572C46.4303 24.02 46.2492 25.0211 46.2426 26.1606C46.236 27.2934 46.4105 28.2879 46.7662 29.1441C47.1218 30.0003 47.652 30.6721 48.3568 31.1595C49.0681 31.6403 49.9539 31.884 51.0143 31.8906C51.9298 31.8971 52.7004 31.7226 53.326 31.367C53.9517 31.0113 54.4358 30.4976 54.7783 29.8258C55.1208 29.154 55.3283 28.3472 55.4007 27.4053H52.3776V25.9531H57.258C57.2778 26.0848 57.2877 26.2429 57.2877 26.4273C57.2942 26.6051 57.2975 26.727 57.2975 26.7928C57.2975 28.0903 57.0538 29.2528 56.5665 30.2802C56.0857 31.3011 55.3711 32.1046 54.4227 32.6908C53.4808 33.277 52.3151 33.57 50.9254 33.57Z" fill="white"/>
<path d="M33.8129 33.57C32.8052 33.57 31.8963 33.3988 31.0862 33.0563C30.2826 32.7138 29.6174 32.2265 29.0905 31.5942C28.5702 30.9553 28.231 30.2012 28.073 29.3318L29.8908 29.0453C30.1213 29.941 30.5988 30.6425 31.3233 31.1496C32.0543 31.6502 32.9138 31.9004 33.9018 31.9004C34.5406 31.9004 35.1169 31.8016 35.6307 31.6041C36.151 31.3999 36.5626 31.1101 36.8656 30.7347C37.1685 30.3593 37.32 29.9147 37.32 29.401C37.32 29.0848 37.264 28.8148 37.1521 28.5909C37.0467 28.3603 36.8985 28.1661 36.7075 28.008C36.5231 27.8433 36.3123 27.705 36.0752 27.5931C35.8381 27.4811 35.5911 27.3889 35.3343 27.3164L31.7086 26.2396C31.3134 26.121 30.9314 25.9728 30.5626 25.795C30.1937 25.6106 29.8644 25.3834 29.5746 25.1133C29.2848 24.8367 29.0543 24.5074 28.8831 24.1254C28.7118 23.7368 28.6262 23.2791 28.6262 22.7522C28.6262 21.9092 28.8436 21.1913 29.2783 20.5985C29.7195 19.9992 30.3156 19.5414 31.0664 19.2253C31.8172 18.9091 32.6636 18.7544 33.6054 18.7609C34.5604 18.7675 35.4133 18.9388 36.1641 19.2747C36.9216 19.604 37.5472 20.0782 38.0412 20.6973C38.5418 21.3164 38.8777 22.0573 39.0489 22.9201L37.1817 23.2462C37.0829 22.6666 36.8623 22.1693 36.5198 21.7544C36.1839 21.3329 35.7624 21.0101 35.2552 20.7862C34.7481 20.5557 34.1916 20.4371 33.5856 20.4305C33.006 20.424 32.4824 20.5162 32.0148 20.7072C31.5472 20.8982 31.1751 21.1649 30.8985 21.5074C30.6218 21.8433 30.4835 22.2319 30.4835 22.6732C30.4835 23.1078 30.6087 23.4602 30.8589 23.7302C31.1092 23.9937 31.4155 24.2044 31.7777 24.3625C32.1465 24.514 32.5055 24.6391 32.8546 24.7379L35.5615 25.5184C35.871 25.604 36.2267 25.7226 36.6285 25.8741C37.0368 26.0255 37.432 26.2396 37.814 26.5162C38.196 26.7862 38.5121 27.1485 38.7624 27.6029C39.0127 28.0508 39.1378 28.6172 39.1378 29.3022C39.1378 29.9871 38.9995 30.5964 38.7229 31.1298C38.4528 31.6633 38.0741 32.1112 37.5868 32.4734C37.0994 32.8291 36.533 33.0991 35.8875 33.2835C35.2421 33.4745 34.5505 33.57 33.8129 33.57Z" fill="white"/>
<path d="M24.0418 33.2737V19.0474H25.8003V33.2737H24.0418Z" fill="white"/>
<path d="M10.3952 33.2737V19.0474H14.7816C14.9265 19.0474 15.1801 19.0507 15.5423 19.0573C15.9045 19.0639 16.2503 19.0903 16.5796 19.1364C17.6795 19.2813 18.5983 19.683 19.336 20.3416C20.0802 20.9937 20.64 21.8235 21.0154 22.8312C21.3909 23.8389 21.5786 24.9487 21.5786 26.1606C21.5786 27.3724 21.3909 28.4822 21.0154 29.4899C20.64 30.4976 20.0802 31.3307 19.336 31.9893C18.5983 32.6414 17.6795 33.0399 16.5796 33.1847C16.2503 33.2243 15.9012 33.2506 15.5324 33.2638C15.1702 33.2704 14.9199 33.2737 14.7816 33.2737H10.3952ZM12.2031 31.5942H14.7816C15.0319 31.5942 15.3118 31.5876 15.6213 31.5744C15.9309 31.5547 16.2009 31.525 16.4314 31.4855C17.2086 31.3406 17.8376 31.0146 18.3184 30.5075C18.7992 30.0003 19.1515 29.368 19.3755 28.6106C19.5994 27.8532 19.7114 27.0365 19.7114 26.1606C19.7114 25.2648 19.5961 24.4383 19.3656 23.6808C19.1417 22.9234 18.7893 22.2944 18.3085 21.7939C17.8277 21.2933 17.202 20.9739 16.4314 20.8356C16.2009 20.7895 15.9276 20.7599 15.6115 20.7467C15.2953 20.7335 15.0187 20.7269 14.7816 20.7269H12.2031V31.5942Z" fill="white"/>
<path fill-rule="evenodd" clip-rule="evenodd" d="M106 1H4C2.34315 1 1 2.34315 1 4V116C1 117.657 2.34315 119 4 119H106C107.657 119 109 117.657 109 116V4C109 2.34315 107.657 1 106 1ZM4 0C1.79086 0 0 1.79086 0 4V116C0 118.209 1.79086 120 4 120H106C108.209 120 110 118.209 110 116V4C110 1.79086 108.209 0 106 0H4Z" fill="#D9D9D9"/>
</svg>
