<svg width="32" height="26" viewBox="0 0 32 26" fill="none" xmlns="http://www.w3.org/2000/svg">
<path d="M22.2033 24.8647C22.6302 25.2916 23.3223 25.2916 23.7492 24.8647L30.7058 17.9081C31.1327 17.4812 31.1327 16.7891 30.7058 16.3622C30.2789 15.9353 29.5868 15.9353 29.1599 16.3622L22.9762 22.5458L16.7926 16.3622C16.3657 15.9353 15.6735 15.9353 15.2466 16.3622C14.8198 16.7891 14.8198 17.4812 15.2466 17.9081L22.2033 24.8647ZM0.582031 2.21618H16.4175V0.0299172H0.582031V2.21618ZM21.8831 7.68182V24.0918H24.0694V7.68182H21.8831ZM16.4175 2.21618C19.4361 2.21618 21.8831 4.66323 21.8831 7.68182H24.0694C24.0694 3.45579 20.6435 0.0299172 16.4175 0.0299172V2.21618Z" fill="#FF9F43"/>
</svg>
