<svg width="27" height="34" viewBox="0 0 27 34" fill="none" xmlns="http://www.w3.org/2000/svg">
<path d="M26.1329 21.3336C26.7187 21.9193 26.7187 22.8691 26.1329 23.4549L16.5869 33.0008C16.0012 33.5866 15.0514 33.5866 14.4656 33.0008C13.8798 32.415 13.8798 31.4653 14.4656 30.8795L22.9509 22.3942L14.4656 13.9089C13.8798 13.3231 13.8798 12.3734 14.4656 11.7876C15.0514 11.2018 16.0012 11.2018 16.5869 11.7876L26.1329 21.3336ZM3.60352 6.55671e-08L3.60351 15.8354L0.603515 15.8354L0.603516 -6.55671e-08L3.60352 6.55671e-08ZM8.66229 20.8942L25.0722 20.8942L25.0722 23.8942L8.66229 23.8942L8.66229 20.8942ZM3.60351 15.8354C3.60351 18.6293 5.86841 20.8942 8.66229 20.8942L8.66229 23.8942C4.21155 23.8942 0.603515 20.2862 0.603515 15.8354L3.60351 15.8354Z" fill="#FF9F43"/>
</svg>
