<svg width="20" height="21" viewBox="0 0 20 21" fill="none" xmlns="http://www.w3.org/2000/svg">
<g clip-path="url(#clip0_550_10727)">
<path d="M8.125 14.25C9.50571 14.25 10.625 13.1307 10.625 11.75C10.625 10.3693 9.50571 9.25 8.125 9.25C6.74429 9.25 5.625 10.3693 5.625 11.75C5.625 13.1307 6.74429 14.25 8.125 14.25Z" stroke="#FDFDFD" style="stroke:#FDFDFD;stroke:color(display-p3 0.9922 0.9922 0.9922);stroke-opacity:1;" stroke-linecap="square"/>
<path d="M4.17109 16.75C4.52567 16.0014 5.08548 15.3688 5.78542 14.9259C6.48536 14.4829 7.29667 14.2478 8.125 14.2478C8.95333 14.2478 9.76464 14.4829 10.4646 14.9259C11.1645 15.3688 11.7243 16.0014 12.0789 16.75H16.875C17.0408 16.75 17.1997 16.6842 17.3169 16.5669C17.4342 16.4497 17.5 16.2908 17.5 16.125V4.875C17.5 4.70924 17.4342 4.55027 17.3169 4.43306C17.1997 4.31585 17.0408 4.25 16.875 4.25H3.125C2.95924 4.25 2.80027 4.31585 2.68306 4.43306C2.56585 4.55027 2.5 4.70924 2.5 4.875V16.125C2.5 16.2908 2.56585 16.4497 2.68306 16.5669C2.80027 16.6842 2.95924 16.75 3.125 16.75H4.17109Z" stroke="#FDFDFD" style="stroke:#FDFDFD;stroke:color(display-p3 0.9922 0.9922 0.9922);stroke-opacity:1;" stroke-linecap="square"/>
<path d="M13.75 14.25H15V6.75H5V8" stroke="#FDFDFD" style="stroke:#FDFDFD;stroke:color(display-p3 0.9922 0.9922 0.9922);stroke-opacity:1;" stroke-linecap="square"/>
</g>
<defs>
<clipPath id="clip0_550_10727">
<rect width="20" height="20" fill="white" style="fill:white;fill-opacity:1;" transform="translate(0 0.5)"/>
</clipPath>
</defs>
</svg>
