<svg width="20" height="21" viewBox="0 0 20 21" fill="none" xmlns="http://www.w3.org/2000/svg">
<g opacity="0.8">
<path d="M18.3332 14.5994V17.0994C18.3341 17.3315 18.2866 17.5612 18.1936 17.7739C18.1006 17.9865 17.9643 18.1774 17.7933 18.3343C17.6222 18.4912 17.4203 18.6107 17.2005 18.685C16.9806 18.7594 16.7477 18.787 16.5165 18.7661C13.9522 18.4875 11.489 17.6112 9.32486 16.2078C7.31139 14.9283 5.60431 13.2212 4.32486 11.2078C2.91651 9.03377 2.04007 6.55859 1.76653 3.98276C1.7457 3.75232 1.77309 3.52006 1.84695 3.30078C1.9208 3.0815 2.03951 2.88 2.1955 2.70911C2.3515 2.53822 2.54137 2.40169 2.75302 2.3082C2.96468 2.21471 3.19348 2.16631 3.42486 2.1661H5.92486C6.32928 2.16212 6.72136 2.30533 7.028 2.56904C7.33464 2.83275 7.53493 3.19897 7.59153 3.59943C7.69705 4.39949 7.89274 5.18504 8.17486 5.9411C8.28698 6.23937 8.31125 6.56353 8.24478 6.87516C8.17832 7.1868 8.02392 7.47286 7.79986 7.69943L6.74153 8.75776C7.92783 10.8441 9.65524 12.5715 11.7415 13.7578L12.7999 12.6994C13.0264 12.4754 13.3125 12.321 13.6241 12.2545C13.9358 12.188 14.2599 12.2123 14.5582 12.3244C15.3143 12.6066 16.0998 12.8022 16.8999 12.9078C17.3047 12.9649 17.6744 13.1688 17.9386 13.4807C18.2029 13.7926 18.3433 14.1907 18.3332 14.5994Z" stroke="white" stroke-width="2" stroke-linecap="round" stroke-linejoin="round"/>
</g>
</svg>
