<svg width="32" height="32" viewBox="0 0 32 32" fill="none" xmlns="http://www.w3.org/2000/svg">
<g clip-path="url(#clip0_404_8284)">
<path d="M16.0098 21.3499C21.9137 21.3499 26.6998 18.9546 26.6998 15.9999C26.6998 13.0452 21.9137 10.6499 16.0098 10.6499C10.1059 10.6499 5.31982 13.0452 5.31982 15.9999C5.31982 18.9546 10.1059 21.3499 16.0098 21.3499Z" stroke="#FDFDFD" style="stroke:#FDFDFD;stroke:color(display-p3 0.9922 0.9922 0.9922);stroke-opacity:1;" stroke-width="2" stroke-miterlimit="10"/>
<path d="M16.0098 26.7C21.9137 26.7 26.6998 24.3047 26.6998 21.35C26.6998 18.3953 21.9137 16 16.0098 16C10.1059 16 5.31982 18.3953 5.31982 21.35C5.31982 24.3047 10.1059 26.7 16.0098 26.7Z" stroke="#FDFDFD" style="stroke:#FDFDFD;stroke:color(display-p3 0.9922 0.9922 0.9922);stroke-opacity:1;" stroke-width="2" stroke-miterlimit="10"/>
<path d="M16.0098 16.0198C21.9137 16.0198 26.6998 13.6245 26.6998 10.6698C26.6998 7.7151 21.9137 5.31982 16.0098 5.31982C10.1059 5.31982 5.31982 7.7151 5.31982 10.6698C5.31982 13.6245 10.1059 16.0198 16.0098 16.0198Z" stroke="#FDFDFD" style="stroke:#FDFDFD;stroke:color(display-p3 0.9922 0.9922 0.9922);stroke-opacity:1;" stroke-width="2" stroke-miterlimit="10"/>
</g>
<defs>
<clipPath id="clip0_404_8284">
<rect width="32" height="32" fill="white" style="fill:white;fill-opacity:1;"/>
</clipPath>
</defs>
</svg>
