<svg width="50" height="50" viewBox="0 0 50 50" fill="none" xmlns="http://www.w3.org/2000/svg">
<rect width="50" height="50" rx="25" fill="#FDFDFD" style="fill:#FDFDFD;fill:color(display-p3 0.9922 0.9922 0.9922);fill-opacity:1;"/>
<g clip-path="url(#clip0_394_3265)">
<mask id="mask0_394_3265" style="mask-type:luminance" maskUnits="userSpaceOnUse" x="11" y="11" width="28" height="23">
<path d="M11.875 11.25H38.75V33.75H11.875V11.25Z" fill="white" style="fill:white;fill-opacity:1;"/>
</mask>
<g mask="url(#mask0_394_3265)">
<path d="M26.0338 24.8562H16.0915V21.0446H26.0338C26.6148 21.0446 27.0187 21.143 27.2214 21.3139C27.424 21.4854 27.5497 21.8025 27.5497 22.2666V23.6356C27.5497 24.1243 27.424 24.4421 27.2214 24.6129C27.018 24.7845 26.6148 24.8576 26.0338 24.8576V24.8562ZM26.7165 17.4509H11.875V33.7507H16.0915V28.4478H23.862L27.5497 33.7507H32.2709L28.2056 28.4232C29.7047 28.208 30.3773 27.7622 30.933 27.0296C31.4879 26.2962 31.7661 25.1241 31.7661 23.5589V22.3369C31.7661 21.4088 31.6644 20.6754 31.4879 20.1136C31.3106 19.5542 30.999 19.0434 30.5785 18.623C30.1332 18.2122 29.5983 17.9034 29.0133 17.7195C28.4068 17.5486 27.6492 17.4509 26.7165 17.4509Z" fill="#080821" style="fill:#080821;fill:color(display-p3 0.0314 0.0314 0.1294);fill-opacity:1;"/>
<path d="M35.5105 17.4488C37.2995 17.4488 38.7501 16.0615 38.7501 14.3494C38.7501 12.638 37.2995 11.25 35.5105 11.25C33.7215 11.25 32.271 12.638 32.271 14.3494C32.271 16.0615 33.7215 17.4488 35.5105 17.4488Z" fill="#080821" style="fill:#080821;fill:color(display-p3 0.0314 0.0314 0.1294);fill-opacity:1;"/>
</g>
</g>
<defs>
<clipPath id="clip0_394_3265">
<rect width="26.875" height="22.5" fill="white" style="fill:white;fill-opacity:1;" transform="translate(11.875 11.25)"/>
</clipPath>
</defs>
</svg>
