<svg width="37" height="32" viewBox="0 0 37 32" fill="none" xmlns="http://www.w3.org/2000/svg">
<g clip-path="url(#clip0_437_2393)">
<path d="M19.4934 19.3497H5.80513V13.929H19.4934C20.293 13.929 20.8489 14.0685 21.1279 14.312C21.4069 14.5556 21.5798 15.0073 21.5798 15.6672V17.6136C21.5798 18.3089 21.4069 18.7606 21.1279 19.0042C20.8489 19.2477 20.293 19.3518 19.4934 19.3518V19.3497ZM20.4325 8.8185H0V32.0001H5.80513V24.4581H16.5034L21.5798 32.0001H28.0804L22.4834 24.4228C24.5469 24.1167 25.4735 23.4839 26.2376 22.441C27.0018 21.3981 27.3849 19.7307 27.3849 17.5054V15.7671C27.3849 14.4474 27.2454 13.4044 27.0018 12.6051C26.7582 11.8057 26.3417 11.1104 25.7504 10.4859C25.1257 9.89471 24.4303 9.47838 23.5953 9.19943C22.7604 8.95587 21.7172 8.81641 20.4325 8.81641V8.8185Z" fill="white"/>
<path d="M32.5399 8.81633C35.003 8.81633 36.9997 6.84271 36.9997 4.40816C36.9997 1.9736 35.003 0 32.5399 0C30.0768 0 28.0801 1.9736 28.0801 4.40816C28.0801 6.84271 30.0768 8.81633 32.5399 8.81633Z" fill="#ED143B"/>
</g>
<defs>
<clipPath id="clip0_437_2393">
<rect width="37" height="32" fill="white"/>
</clipPath>
</defs>
</svg>
