<svg width="28" height="28" viewBox="0 0 28 28" fill="none" xmlns="http://www.w3.org/2000/svg">
<path d="M0 13.44C0 7.10267 0 3.93867 1.96 1.96C3.948 0 7.112 0 13.44 0H14.56C20.8973 0 24.0613 0 26.04 1.96C28 3.948 28 7.112 28 13.44V14.56C28 20.8973 28 24.0613 26.04 26.04C24.052 28 20.888 28 14.56 28H13.44C7.10267 28 3.93867 28 1.96 26.04C0 24.052 0 20.888 0 14.56V13.44Z" fill="#0077FF"/>
<path d="M14.896 20.1691C8.51199 20.1691 4.87199 15.8011 4.72266 8.52105H7.93332C8.03599 13.8597 10.388 16.1184 12.2547 16.5851V8.52105H15.2693V13.1224C17.108 12.9264 19.0493 10.8264 19.7027 8.51172H22.708C22.4629 9.7099 21.9734 10.8447 21.2701 11.8451C20.5667 12.8456 19.6645 13.6903 18.62 14.3264C19.7857 14.9066 20.8151 15.7273 21.6404 16.7344C22.4657 17.7415 23.0682 18.9121 23.408 20.1691H20.0947C19.3853 17.9571 17.612 16.2397 15.2693 16.0064V20.1691H14.9053H14.896Z" fill="white"/>
</svg>
